<?xml version="1.0" standalone="no"?>
 <!DOCTYPE svg PUBLIC "-//W3C//DTD SVG 1.1//EN" 
 "http://www.w3.org/Graphics/SVG/1.1/DTD/svg11.dtd"> 
<svg xmlns="http://www.w3.org/2000/svg" version="1.1" 
    width="2.68986cm" height="2.1336cm" viewBox="0 0 10590 8400 ">
<title>SVG Picture created as WoodElf_03-B.Mask.svg date 2019/06/15 22:28:23 </title>
  <desc>Picture generated by PCBNEW </desc>
<g style="fill:#000000; fill-opacity:1;stroke:#000000; stroke-opacity:1;
stroke-linecap:round; stroke-linejoin:round; "
 transform="translate(0 0) scale(1 1)">
</g>
<g style="fill:#000000; fill-opacity:0.0; 
stroke:#000000; stroke-width:-0.000393701; stroke-opacity:1; 
stroke-linecap:round; stroke-linejoin:round;">
</g>
<g style="fill:#848400; fill-opacity:0.0; 
stroke:#848400; stroke-width:-0.000393701; stroke-opacity:1; 
stroke-linecap:round; stroke-linejoin:round;">
</g>
<g style="fill:#848400; fill-opacity:1.0; 
stroke:#848400; stroke-width:0; stroke-opacity:1; 
stroke-linecap:round; stroke-linejoin:round;">
<polyline style="fill-rule:evenodd;"
points="10124,7132
10240,7180
10343,7249
10344,7250
10433,7339
10503,7443
10551,7560
10575,7683
10575,7808
10553,7918
10551,7932
10503,8048
10448,8129
10433,8152
10344,8241
10344,8241
10240,8311
10240,8311
10240,8311
10124,8359
10000,8383
9875,8383
9751,8359
9635,8311
9635,8311
9635,8311
9531,8241
9531,8241
9442,8152
9427,8129
9372,8048
9324,7932
9322,7918
9300,7808
9300,7683
9324,7560
9372,7443
9442,7339
9531,7250
9532,7249
9635,7180
9751,7132
9875,7108
10000,7108
10124,7132
" /> 
<polyline style="fill-rule:evenodd;"
points="911,7132
1027,7180
1130,7249
1131,7250
1220,7339
1290,7443
1338,7560
1363,7683
1363,7808
1341,7918
1338,7932
1290,8048
1236,8129
1220,8152
1131,8241
1131,8241
1027,8311
1027,8311
1027,8311
911,8359
788,8383
662,8383
539,8359
423,8311
423,8311
423,8311
318,8241
318,8241
229,8152
214,8129
160,8048
112,7932
109,7918
87,7808
87,7683
112,7560
160,7443
229,7339
318,7250
320,7249
423,7180
539,7132
662,7108
788,7108
911,7132
" /> 
<polyline style="fill-rule:evenodd;"
points="2772,7734
2822,7754
2822,7754
2867,7785
2905,7823
2936,7868
2956,7918
2967,7972
2967,8026
2956,8079
2936,8129
2936,8129
2905,8174
2867,8213
2822,8243
2772,8264
2719,8274
2664,8274
2611,8264
2561,8243
2516,8213
2477,8174
2477,8174
2447,8129
2447,8129
2426,8079
2416,8026
2416,7972
2426,7918
2447,7868
2477,7823
2516,7785
2516,7785
2561,7754
2561,7754
2611,7734
2664,7723
2719,7723
2772,7734
" /> 
<polyline style="fill-rule:evenodd;"
points="6709,7734
6759,7754
6804,7785
6843,7823
6873,7868
6893,7918
6904,7972
6904,8026
6893,8079
6873,8129
6843,8174
6804,8213
6762,8241
6759,8243
6709,8264
6656,8274
6601,8274
6548,8264
6498,8243
6495,8241
6453,8213
6414,8174
6384,8129
6363,8079
6353,8026
6353,7972
6363,7918
6384,7868
6414,7823
6453,7785
6498,7754
6548,7734
6601,7723
6656,7723
6709,7734
" /> 
<polyline style="fill-rule:evenodd;"
points="5921,7734
5972,7754
6017,7785
6055,7823
6085,7868
6106,7918
6117,7972
6117,8026
6106,8079
6085,8129
6055,8174
6017,8213
5974,8241
5972,8243
5921,8264
5868,8274
5814,8274
5761,8264
5710,8243
5708,8241
5665,8213
5627,8174
5597,8129
5576,8079
5565,8026
5565,7972
5576,7918
5597,7868
5627,7823
5665,7785
5710,7754
5761,7734
5814,7723
5868,7723
5921,7734
" /> 
<polyline style="fill-rule:evenodd;"
points="3559,7734
3609,7754
3655,7785
3693,7823
3723,7868
3744,7918
3754,7972
3754,8026
3744,8079
3723,8129
3693,8174
3655,8213
3612,8241
3609,8243
3559,8264
3506,8274
3452,8274
3398,8264
3348,8243
3345,8241
3303,8213
3265,8174
3235,8129
3214,8079
3203,8026
3203,7972
3214,7918
3235,7868
3265,7823
3303,7785
3348,7754
3398,7734
3452,7723
3506,7723
3559,7734
" /> 
<polyline style="fill-rule:evenodd;"
points="5134,7734
5184,7754
5229,7785
5268,7823
5298,7868
5319,7918
5329,7972
5329,8026
5319,8079
5298,8129
5268,8174
5229,8213
5187,8241
5184,8243
5134,8264
5081,8274
5026,8274
4973,8264
4923,8243
4920,8241
4878,8213
4840,8174
4809,8129
4789,8079
4778,8026
4778,7972
4789,7918
4809,7868
4840,7823
4878,7785
4923,7754
4973,7734
5026,7723
5081,7723
5134,7734
" /> 
<polyline style="fill-rule:evenodd;"
points="4347,7734
4397,7754
4442,7785
4480,7823
4510,7868
4531,7918
4542,7972
4542,8026
4531,8079
4510,8129
4480,8174
4442,8213
4400,8241
4397,8243
4347,8264
4293,8274
4239,8274
4186,8264
4136,8243
4133,8241
4091,8213
4052,8174
4022,8129
4001,8079
3991,8026
3991,7972
4001,7918
4022,7868
4052,7823
4091,7785
4136,7754
4186,7734
4239,7723
4293,7723
4347,7734
" /> 
<polyline style="fill-rule:evenodd;"
points="7496,7734
7546,7754
7592,7785
7630,7823
7660,7868
7681,7918
7691,7972
7691,8026
7681,8079
7660,8129
7630,8174
7592,8213
7549,8241
7546,8243
7496,8264
7443,8274
7389,8274
7335,8264
7285,8243
7282,8241
7240,8213
7202,8174
7172,8129
7151,8079
7140,8026
7140,7972
7151,7918
7172,7868
7202,7823
7240,7785
7285,7754
7335,7734
7389,7723
7443,7723
7496,7734
" /> 
<polyline style="fill-rule:evenodd;"
points="7390,6241
7435,6250
7519,6285
7593,6335
7595,6336
7659,6400
7659,6400
7710,6476
7745,6560
7763,6650
7763,6741
7745,6830
7710,6915
7660,6990
7659,6991
7595,7055
7595,7055
7519,7106
7435,7141
7390,7150
7345,7158
7254,7158
7209,7150
7165,7141
7080,7106
7004,7055
7004,7055
6940,6991
6940,6990
6889,6915
6854,6830
6837,6741
6837,6650
6854,6560
6889,6476
6940,6400
6940,6400
7004,6336
7006,6335
7080,6285
7165,6250
7209,6241
7254,6232
7345,6232
7390,6241
" /> 
<polyline style="fill-rule:evenodd;"
points="3453,6241
3498,6250
3582,6285
3656,6335
3658,6336
3722,6400
3722,6400
3773,6476
3808,6560
3826,6650
3826,6741
3808,6830
3773,6915
3723,6990
3722,6991
3658,7055
3658,7055
3582,7106
3498,7141
3453,7150
3408,7158
3317,7158
3272,7150
3227,7141
3143,7106
3067,7055
3067,7055
3003,6991
3003,6990
2952,6915
2917,6830
2900,6741
2900,6650
2917,6560
2952,6476
3003,6400
3003,6400
3067,6336
3069,6335
3143,6285
3227,6250
3272,6241
3317,6232
3408,6232
3453,6241
" /> 
<polyline style="fill-rule:evenodd;"
points="5403,5410
5475,5425
5564,5462
5645,5515
5645,5516
5714,5584
5714,5584
5768,5665
5805,5755
5824,5850
5824,5947
5805,6042
5768,6131
5714,6212
5714,6212
5645,6281
5645,6281
5564,6335
5475,6372
5403,6386
5380,6391
5283,6391
5259,6386
5187,6372
5098,6335
5017,6281
5017,6281
4948,6212
4948,6212
4895,6131
4857,6042
4839,5947
4839,5850
4857,5755
4895,5665
4948,5584
4948,5584
5017,5516
5017,5515
5098,5462
5187,5425
5259,5410
5283,5406
5380,5406
5403,5410
" /> 
<polyline style="fill-rule:evenodd;"
points="9476,5125
9544,5153
9605,5194
9657,5246
9698,5307
9727,5376
9741,5448
9741,5522
9727,5594
9698,5662
9657,5723
9605,5776
9544,5817
9476,5845
9403,5859
9330,5859
9257,5845
9189,5817
9128,5776
9076,5723
9035,5662
9006,5594
8992,5522
8992,5448
9006,5376
9035,5307
9076,5246
9128,5194
9189,5153
9257,5125
9330,5110
9403,5110
9476,5125
" /> 
<polyline style="fill-rule:evenodd;"
points="7704,5125
7772,5153
7833,5194
7886,5246
7927,5307
7955,5376
7969,5448
7969,5522
7955,5594
7927,5662
7886,5723
7833,5776
7772,5817
7704,5845
7632,5859
7558,5859
7486,5845
7417,5817
7356,5776
7304,5723
7263,5662
7235,5594
7220,5522
7220,5448
7235,5376
7263,5307
7304,5246
7356,5194
7417,5153
7486,5125
7558,5110
7632,5110
7704,5125
" /> 
<polyline style="fill-rule:evenodd;"
points="2003,4830
2071,4858
2133,4899
2185,4951
2226,5012
2254,5080
2268,5153
2268,5226
2254,5299
2226,5367
2185,5428
2133,5480
2071,5521
2003,5550
1931,5564
1857,5564
1785,5550
1717,5521
1655,5480
1603,5428
1562,5367
1534,5299
1520,5226
1520,5153
1534,5080
1562,5012
1603,4951
1655,4899
1717,4858
1785,4830
1857,4815
1931,4815
2003,4830
" /> 
<polyline style="fill-rule:evenodd;"
points="2003,3845
2071,3873
2133,3914
2185,3967
2226,4028
2254,4096
2268,4168
2268,4242
2254,4314
2226,4383
2185,4444
2133,4496
2071,4537
2003,4565
1931,4580
1857,4580
1785,4565
1717,4537
1655,4496
1603,4444
1562,4383
1534,4314
1520,4242
1520,4168
1534,4096
1562,4028
1603,3967
1655,3914
1717,3873
1785,3845
1857,3831
1931,3831
2003,3845
" /> 
<polyline style="fill-rule:evenodd;"
points="2003,2861
2071,2889
2133,2930
2185,2982
2226,3044
2254,3112
2268,3184
2268,3258
2254,3330
2226,3398
2185,3460
2133,3512
2071,3553
2003,3581
1931,3595
1857,3595
1785,3581
1717,3553
1655,3512
1603,3460
1562,3398
1534,3330
1520,3258
1520,3184
1534,3112
1562,3044
1603,2982
1655,2930
1717,2889
1785,2861
1857,2847
1931,2847
2003,2861
" /> 
<polyline style="fill-rule:evenodd;"
points="7704,2566
7772,2594
7833,2635
7886,2687
7927,2748
7955,2817
7969,2889
7969,2963
7955,3035
7927,3103
7886,3164
7833,3217
7772,3258
7704,3286
7632,3300
7558,3300
7486,3286
7417,3258
7356,3217
7304,3164
7263,3103
7235,3035
7220,2963
7220,2889
7235,2817
7263,2748
7304,2687
7356,2635
7417,2594
7486,2566
7558,2551
7632,2551
7704,2566
" /> 
<polyline style="fill-rule:evenodd;"
points="9476,2566
9544,2594
9605,2635
9657,2687
9698,2748
9727,2817
9741,2889
9741,2963
9727,3035
9698,3103
9657,3164
9605,3217
9544,3258
9476,3286
9403,3300
9330,3300
9257,3286
9189,3258
9128,3217
9076,3164
9035,3103
9006,3035
8992,2963
8992,2889
9006,2817
9035,2748
9076,2687
9128,2635
9189,2594
9257,2566
9330,2551
9403,2551
9476,2566
" /> 
<polyline style="fill-rule:evenodd;"
points="5403,2025
5475,2039
5564,2076
5638,2125
5645,2130
5714,2198
5714,2198
5768,2279
5805,2369
5824,2464
5824,2561
5805,2656
5768,2746
5720,2817
5714,2826
5645,2895
5645,2895
5564,2949
5475,2986
5403,3000
5380,3005
5283,3005
5259,3000
5187,2986
5098,2949
5017,2895
5017,2895
4948,2826
4942,2817
4895,2746
4857,2656
4839,2561
4839,2464
4857,2369
4895,2279
4948,2198
4948,2198
5017,2130
5024,2125
5098,2076
5187,2039
5259,2025
5283,2020
5380,2020
5403,2025
" /> 
<polyline style="fill-rule:evenodd;"
points="3453,1261
3498,1270
3582,1305
3657,1355
3658,1355
3722,1420
3722,1420
3773,1496
3808,1580
3826,1670
3826,1761
3808,1850
3773,1934
3723,2010
3722,2010
3658,2075
3658,2075
3582,2125
3498,2160
3453,2169
3408,2178
3317,2178
3272,2169
3227,2160
3143,2125
3067,2075
3067,2075
3003,2010
3003,2010
2952,1934
2917,1850
2900,1761
2900,1670
2917,1580
2952,1496
3003,1420
3003,1420
3067,1355
3068,1355
3143,1305
3227,1270
3272,1261
3317,1252
3408,1252
3453,1261
" /> 
<polyline style="fill-rule:evenodd;"
points="7390,1261
7435,1270
7519,1305
7594,1355
7595,1355
7659,1420
7659,1420
7710,1496
7745,1580
7763,1670
7763,1761
7745,1850
7710,1934
7660,2010
7659,2010
7595,2075
7595,2075
7519,2125
7435,2160
7390,2169
7345,2178
7254,2178
7209,2169
7165,2160
7080,2125
7004,2075
7004,2075
6940,2010
6940,2010
6889,1934
6854,1850
6837,1761
6837,1670
6854,1580
6889,1496
6940,1420
6940,1420
7004,1355
7005,1355
7080,1305
7165,1270
7209,1261
7254,1252
7345,1252
7390,1261
" /> 
<polyline style="fill-rule:evenodd;"
points="911,46
1027,94
1130,163
1131,164
1220,252
1290,357
1338,473
1363,596
1363,722
1338,845
1290,961
1220,1066
1131,1154
1131,1154
1027,1224
1027,1224
1027,1224
911,1272
788,1297
662,1297
539,1272
423,1224
423,1224
423,1224
318,1154
318,1154
229,1066
160,961
112,845
87,722
87,596
112,473
160,357
229,252
318,164
320,163
423,94
539,46
662,21
788,21
911,46
" /> 
<polyline style="fill-rule:evenodd;"
points="10124,46
10240,94
10343,163
10344,164
10433,252
10503,357
10551,473
10575,596
10575,722
10551,845
10503,961
10433,1066
10344,1154
10344,1154
10240,1224
10240,1224
10240,1224
10124,1272
10000,1297
9875,1297
9751,1272
9635,1224
9635,1224
9635,1224
9531,1154
9531,1154
9442,1066
9372,961
9324,845
9300,722
9300,596
9324,473
9372,357
9442,252
9531,164
9532,163
9635,94
9751,46
9875,21
10000,21
10124,46
" /> 
<polyline style="fill-rule:evenodd;"
points="4456,408
4524,436
4585,477
4638,530
4679,591
4707,659
4721,731
4721,805
4707,877
4679,946
4638,1007
4585,1059
4524,1100
4456,1128
4384,1143
4310,1143
4238,1128
4169,1100
4108,1059
4056,1007
4015,946
3987,877
3972,805
3972,731
3987,659
4015,591
4056,530
4108,477
4169,436
4238,408
4310,394
4384,394
4456,408
" /> 
<polyline style="fill-rule:evenodd;"
points="6425,408
6493,436
6554,477
6606,530
6647,591
6675,659
6690,731
6690,805
6675,877
6647,946
6606,1007
6554,1059
6493,1100
6425,1128
6352,1143
6278,1143
6206,1128
6138,1100
6077,1059
6024,1007
5984,946
5955,877
5941,805
5941,731
5955,659
5984,591
6024,530
6077,477
6138,436
6206,408
6278,394
6352,394
6425,408
" /> 
<polyline style="fill-rule:evenodd;"
points="5440,408
5508,436
5570,477
5622,530
5663,591
5691,659
5705,731
5705,805
5691,877
5663,946
5622,1007
5570,1059
5508,1100
5440,1128
5368,1143
5294,1143
5222,1128
5154,1100
5092,1059
5040,1007
4999,946
4971,877
4957,805
4957,731
4971,659
4999,591
5040,530
5092,477
5154,436
5222,408
5294,394
5368,394
5440,408
" /> 
</g>
<g style="fill:#000000; fill-opacity:1.0; 
stroke:#000000; stroke-width:0; stroke-opacity:1; 
stroke-linecap:round; stroke-linejoin:round;">
</g>
<g style="fill:#C2C200; fill-opacity:1.0; 
stroke:#C2C200; stroke-width:0; stroke-opacity:1; 
stroke-linecap:round; stroke-linejoin:round;">
</g>
<g style="fill:#C2C200; fill-opacity:1.0; 
stroke:#C2C200; stroke-width:59.0551; stroke-opacity:1; 
stroke-linecap:round; stroke-linejoin:round;">
</g>
<g style="fill:#C2C200; fill-opacity:0.0; 
stroke:#C2C200; stroke-width:59.0551; stroke-opacity:1; 
stroke-linecap:round; stroke-linejoin:round;">
<path d="M10567 659
L10567 7746
" />
<path d="M10567.9 659.449 A629.921 629.921 0.0 0 0 9937.99 29.528 " />
<path d="M9937.99 8375.98 A629.921 629.921 0.0 0 0 10567.9 7746.06 " />
<path d="M725.394 29.528 A629.921 629.921 0.0 0 0 95.4724 659.449 " />
<path d="M95 7746
L95 659
" />
<path d="M9937 8375
L725 8375
" />
<path d="M9937 29
L725 29
" />
<path d="M95.4724 7746.06 A629.921 629.921 0.0 0 0 725.394 8375.98 " />
</g> 
</svg>
