<?xml version="1.0" standalone="no"?>
 <!DOCTYPE svg PUBLIC "-//W3C//DTD SVG 1.1//EN" 
 "http://www.w3.org/Graphics/SVG/1.1/DTD/svg11.dtd"> 
<svg xmlns="http://www.w3.org/2000/svg" version="1.1" 
    width="2.68986cm" height="2.1336cm" viewBox="0 0 10590 8400 ">
<title>SVG Picture created as WoodElf_03-B.SilkS.svg date 2019/06/15 22:28:23 </title>
  <desc>Picture generated by PCBNEW </desc>
<g style="fill:#000000; fill-opacity:1;stroke:#000000; stroke-opacity:1;
stroke-linecap:round; stroke-linejoin:round; "
 transform="translate(0 0) scale(1 1)">
</g>
<g style="fill:#000000; fill-opacity:0.0; 
stroke:#000000; stroke-width:-0.000393701; stroke-opacity:1; 
stroke-linecap:round; stroke-linejoin:round;">
</g>
<g style="fill:#840084; fill-opacity:0.0; 
stroke:#840084; stroke-width:-0.000393701; stroke-opacity:1; 
stroke-linecap:round; stroke-linejoin:round;">
</g>
<g style="fill:#840084; fill-opacity:0.0; 
stroke:#840084; stroke-width:98.4252; stroke-opacity:1; 
stroke-linecap:round; stroke-linejoin:round;">
<path d="M1285 6651
L1004 6651
L948 6669
L910 6707
L891 6763
L891 6801
" />
<path d="M891 6407
L910 6444
L929 6463
L966 6482
L1079 6482
L1116 6463
L1135 6444
L1154 6407
L1154 6351
L1135 6313
L1116 6294
L1079 6276
L966 6276
L929 6294
L910 6313
L891 6351
L891 6407
" />
<path d="M1154 6145
L891 6051
" />
<path d="M1154 5957
L891 6051
L798 6088
L779 6107
L760 6145
" />
<path d="M910 5826
L891 5788
L891 5713
L910 5676
L948 5657
L966 5657
L1004 5676
L1023 5713
L1023 5770
L1041 5807
L1079 5826
L1098 5826
L1135 5807
L1154 5770
L1154 5713
L1135 5676
" />
<path d="M1154 5545
L1154 5395
" />
<path d="M1285 5488
L948 5488
L910 5470
L891 5432
L891 5395
" />
<path d="M891 5263
L1154 5263
" />
<path d="M1285 5263
L1266 5282
L1247 5263
L1266 5245
L1285 5263
L1247 5263
" />
<path d="M910 4907
L891 4945
L891 5020
L910 5057
L929 5076
L966 5095
L1079 5095
L1116 5076
L1135 5057
L1154 5020
L1154 4945
L1135 4907
" />
<path d="M891 4738
L1285 4738
" />
<path d="M1041 4701
L891 4588
" />
<path d="M1154 4588
L1004 4738
" />
<path d="M1098 3989
L1079 3932
L1060 3914
L1023 3895
L966 3895
L929 3914
L910 3932
L891 3970
L891 4120
L1285 4120
L1285 3989
L1266 3951
L1247 3932
L1210 3914
L1172 3914
L1135 3932
L1116 3951
L1098 3989
L1098 4120
" />
<path d="M891 3726
L1154 3726
" />
<path d="M1079 3726
L1116 3707
L1135 3689
L1154 3651
L1154 3614
" />
<path d="M910 3332
L891 3370
L891 3445
L910 3482
L948 3501
L1098 3501
L1135 3482
L1154 3445
L1154 3370
L1135 3332
L1098 3314
L1060 3314
L1023 3501
" />
<path d="M891 2976
L1098 2976
L1135 2995
L1154 3032
L1154 3107
L1135 3145
" />
<path d="M910 2976
L891 3014
L891 3107
L910 3145
L948 3164
L985 3164
L1023 3145
L1041 3107
L1041 3014
L1060 2976
" />
<path d="M891 2789
L1285 2789
" />
<path d="M1041 2751
L891 2639
" />
<path d="M1154 2639
L1004 2789
" />
<path d="M891 2414
L910 2451
L929 2470
L966 2489
L1079 2489
L1116 2470
L1135 2451
L1154 2414
L1154 2357
L1135 2320
L1116 2301
L1079 2282
L966 2282
L929 2301
L910 2320
L891 2357
L891 2414
" />
<path d="M1154 1945
L891 1945
" />
<path d="M1154 2114
L948 2114
L910 2095
L891 2058
L891 2001
L910 1964
L929 1945
" />
<path d="M1154 1814
L1154 1664
" />
<path d="M1285 1758
L948 1758
L910 1739
L891 1701
L891 1664
" />
<path d="M202 6848
L596 6848
" />
<path d="M409 6848
L409 6623
" />
<path d="M202 6623
L596 6623
" />
<path d="M202 6266
L409 6266
L446 6285
L465 6323
L465 6398
L446 6435
" />
<path d="M221 6266
L202 6304
L202 6398
L221 6435
L259 6454
L296 6454
L334 6435
L352 6398
L352 6304
L371 6266
" />
<path d="M465 6079
L202 6079
" />
<path d="M427 6079
L446 6060
L465 6023
L465 5966
L446 5929
L409 5910
L202 5910
" />
<path d="M465 5723
L202 5723
" />
<path d="M427 5723
L446 5704
L465 5666
L465 5610
L446 5573
L409 5554
L202 5554
" />
<path d="M202 5198
L409 5198
L446 5217
L465 5254
L465 5329
L446 5366
" />
<path d="M221 5198
L202 5235
L202 5329
L221 5366
L259 5385
L296 5385
L334 5366
L352 5329
L352 5235
L371 5198
" />
<path d="M202 5010
L596 5010
" />
<path d="M202 4842
L409 4842
L446 4860
L465 4898
L465 4954
L446 4992
L427 5010
" />
<path d="M577 4148
L596 4185
L596 4242
L577 4298
L540 4335
L502 4354
L427 4373
L371 4373
L296 4354
L259 4335
L221 4298
L202 4242
L202 4204
L221 4148
L240 4129
L371 4129
L371 4204
" />
<path d="M202 3960
L465 3960
" />
<path d="M390 3960
L427 3942
L446 3923
L465 3885
L465 3848
" />
<path d="M202 3548
L409 3548
L446 3567
L465 3604
L465 3679
L446 3717
" />
<path d="M221 3548
L202 3585
L202 3679
L221 3717
L259 3735
L296 3735
L334 3717
L352 3679
L352 3585
L371 3548
" />
<path d="M221 3192
L202 3229
L202 3304
L221 3342
L240 3360
L277 3379
L390 3379
L427 3360
L446 3342
L465 3304
L465 3229
L446 3192
" />
<path d="M221 2873
L202 2911
L202 2986
L221 3023
L259 3042
L409 3042
L446 3023
L465 2986
L465 2911
L446 2873
L409 2854
L371 2854
L334 3042
" />
<path d="M596 2367
L521 2404
" />
<path d="M202 1992
L202 2217
" />
<path d="M202 2104
L596 2104
L540 2142
L502 2179
L484 2217
" />
<path d="M202 1804
L202 1729
L221 1692
L240 1673
L296 1636
L371 1617
L521 1617
L559 1636
L577 1654
L596 1692
L596 1767
L577 1804
L559 1823
L521 1842
L427 1842
L390 1823
L371 1804
L352 1767
L352 1692
L371 1654
L390 1636
L427 1617
" />
</g>
<g style="fill:#840084; fill-opacity:0.0; 
stroke:#840084; stroke-width:49.2126; stroke-opacity:1; 
stroke-linecap:round; stroke-linejoin:round;">
<path d="M2954 7480
L2888 7677
L2823 7480
" />
<path d="M2757 7677
L2757 7480
L2710 7480
L2682 7490
L2664 7508
L2654 7527
L2645 7565
L2645 7593
L2654 7630
L2664 7649
L2682 7668
L2710 7677
L2757 7677
" />
<path d="M2560 7677
L2560 7480
L2514 7480
L2485 7490
L2467 7508
L2457 7527
L2448 7565
L2448 7593
L2457 7630
L2467 7649
L2485 7668
L2514 7677
L2560 7677
" />
<path d="M4418 7490
L4437 7480
L4465 7480
L4493 7490
L4512 7508
L4521 7527
L4531 7565
L4531 7593
L4521 7630
L4512 7649
L4493 7668
L4465 7677
L4446 7677
L4418 7668
L4409 7658
L4409 7593
L4446 7593
" />
<path d="M4324 7677
L4324 7480
L4212 7677
L4212 7480
" />
<path d="M4118 7677
L4118 7480
L4071 7480
L4043 7490
L4024 7508
L4015 7527
L4006 7565
L4006 7593
L4015 7630
L4024 7649
L4043 7668
L4071 7677
L4118 7677
" />
<path d="M5215 7470
L5215 7611
L5224 7639
L5243 7658
L5271 7667
L5290 7667
" />
<path d="M5121 7667
L5121 7470
" />
<path d="M5121 7564
L5009 7564
" />
<path d="M5009 7667
L5009 7470
" />
<path d="M4924 7611
L4831 7611
" />
<path d="M4943 7667
L4877 7470
L4812 7667
" />
<path d="M3609 7480
L3609 7621
L3618 7649
L3637 7668
L3665 7677
L3684 7677
" />
<path d="M3543 7480
L3478 7677
L3412 7480
" />
<path d="M3356 7621
L3262 7621
" />
<path d="M3375 7677
L3309 7480
L3244 7677
" />
<path d="M6082 7668
L6054 7677
L6007 7677
L5988 7668
L5979 7658
L5970 7640
L5970 7621
L5979 7602
L5988 7593
L6007 7583
L6045 7574
L6063 7565
L6073 7555
L6082 7537
L6082 7518
L6073 7499
L6063 7490
L6045 7480
L5998 7480
L5970 7490
" />
<path d="M5773 7658
L5782 7668
L5810 7677
L5829 7677
L5857 7668
L5876 7649
L5885 7630
L5895 7593
L5895 7565
L5885 7527
L5876 7508
L5857 7490
L5829 7480
L5810 7480
L5782 7490
L5773 7499
" />
<path d="M5716 7480
L5651 7677
L5585 7480
" />
<path d="M6869 7668
L6841 7677
L6794 7677
L6776 7668
L6766 7658
L6757 7640
L6757 7621
L6766 7602
L6776 7593
L6794 7583
L6832 7574
L6851 7565
L6860 7555
L6869 7537
L6869 7518
L6860 7499
L6851 7490
L6832 7480
L6785 7480
L6757 7490
" />
<path d="M6682 7621
L6588 7621
" />
<path d="M6701 7677
L6635 7480
L6569 7677
" />
<path d="M6438 7574
L6410 7583
L6401 7593
L6391 7612
L6391 7640
L6401 7658
L6410 7668
L6429 7677
L6504 7677
L6504 7480
L6438 7480
L6419 7490
L6410 7499
L6401 7518
L6401 7537
L6410 7555
L6419 7565
L6438 7574
L6504 7574
" />
<path d="M7671 7668
L7643 7677
L7596 7677
L7577 7668
L7568 7658
L7558 7640
L7558 7621
L7568 7602
L7577 7593
L7596 7583
L7633 7574
L7652 7565
L7662 7555
L7671 7537
L7671 7518
L7662 7499
L7652 7490
L7633 7480
L7587 7480
L7558 7490
" />
<path d="M7408 7574
L7380 7583
L7371 7593
L7362 7612
L7362 7640
L7371 7658
L7380 7668
L7399 7677
L7474 7677
L7474 7480
L7408 7480
L7390 7490
L7380 7499
L7371 7518
L7371 7537
L7380 7555
L7390 7565
L7408 7574
L7474 7574
" />
<path d="M7212 7574
L7183 7583
L7174 7593
L7165 7612
L7165 7640
L7174 7658
L7183 7668
L7202 7677
L7277 7677
L7277 7480
L7212 7480
L7193 7490
L7183 7499
L7174 7518
L7174 7537
L7183 7555
L7193 7565
L7212 7574
L7277 7574
" />
</g>
<g style="fill:#840084; fill-opacity:1.0; 
stroke:#840084; stroke-width:3.93701; stroke-opacity:1; 
stroke-linecap:round; stroke-linejoin:round;">
<polyline style="fill-rule:evenodd;"
points="2071,426
2058,424
2053,424
2048,425
2043,428
2036,433
2026,441
2013,452
2011,454
1993,471
1974,490
1954,511
1936,530
1921,548
1910,562
1904,570
1900,575
1899,576
1897,573
1893,565
1889,555
1889,555
1883,535
1880,514
1880,511
1880,495
1881,473
1883,447
1886,419
1890,388
1893,360
1896,339
1898,324
1898,312
1896,304
1893,298
1889,293
1877,286
1863,284
1848,288
1831,299
1817,312
1781,352
1749,396
1722,443
1701,492
1700,493
1686,541
1678,592
1676,645
1680,701
1690,760
1697,792
1703,815
1712,843
1723,877
1736,915
1751,958
1768,1004
1784,1048
1797,1087
1808,1121
1818,1152
1826,1181
1832,1208
1837,1234
1841,1260
1842,1264
1846,1295
1848,1321
1847,1344
1845,1366
1840,1389
1833,1414
1833,1415
1824,1447
1818,1474
1816,1497
1818,1517
1823,1534
1832,1549
1836,1554
1843,1562
1848,1566
1855,1567
1861,1568
1875,1565
1885,1558
1890,1547
1891,1533
1886,1519
1884,1514
1880,1507
1879,1499
1878,1489
1880,1477
1884,1461
1890,1441
1895,1424
1901,1406
1905,1392
1907,1379
1909,1366
1909,1350
1909,1332
1908,1303
1906,1275
1903,1246
1898,1217
1891,1186
1883,1152
1872,1115
1859,1075
1844,1030
1826,979
1823,972
1804,920
1788,873
1774,831
1763,793
1754,759
1748,728
1743,700
1740,673
1739,647
1739,622
1741,602
1745,568
1752,538
1762,508
1767,495
1773,483
1780,468
1789,451
1799,435
1808,420
1815,409
1821,401
1821,401
1822,403
1822,411
1822,423
1821,438
1820,449
1818,469
1817,488
1816,505
1816,519
1816,522
1818,534
1820,548
1824,562
1830,577
1838,595
1848,615
1861,638
1876,663
1894,693
1915,727
1940,765
1968,807
1975,818
2007,867
2036,911
2061,952
2083,988
2102,1022
2119,1053
2134,1082
2146,1109
2158,1136
2168,1163
2168,1164
2183,1210
2192,1251
2196,1290
2195,1325
2189,1359
2177,1390
2176,1392
2171,1401
2163,1413
2153,1426
2151,1429
2141,1440
2136,1448
2133,1455
2132,1461
2132,1466
2136,1480
2144,1490
2156,1495
2158,1495
2168,1495
2177,1493
2185,1486
2195,1476
2202,1468
2223,1437
2239,1408
2243,1397
2252,1364
2258,1328
2259,1289
2256,1249
2251,1223
2243,1189
2259,1196
2283,1208
2308,1225
2334,1247
2359,1271
2383,1298
2395,1313
2424,1355
2449,1401
2471,1448
2488,1496
2501,1544
2508,1591
2510,1631
2508,1669
2501,1703
2490,1733
2474,1760
2465,1772
2457,1783
2453,1791
2451,1799
2451,1803
2454,1817
2462,1828
2474,1833
2480,1834
2487,1834
2492,1833
2498,1829
2506,1821
2508,1818
2526,1797
2541,1773
2553,1745
2557,1732
2568,1691
2573,1647
2572,1600
2566,1551
2555,1501
2539,1451
2518,1399
2492,1348
2462,1298
2459,1293
2451,1283
2442,1271
2431,1259
2418,1244
2400,1227
2392,1219
2375,1201
2360,1187
2347,1176
2335,1166
2321,1158
2307,1149
2289,1140
2266,1129
2250,1121
2213,1103
2194,1062
2186,1046
2181,1031
2177,1020
2176,1014
2176,1014
2177,1003
2175,990
2172,972
2166,950
2158,925
2050,817
2050,817
2048,814
2042,806
2035,794
2025,779
2013,762
2009,755
1991,728
1977,707
1966,689
1957,676
1951,666
1947,658
1944,652
1943,648
1942,644
1943,640
1943,639
1947,624
1956,607
1970,587
1976,579
1990,562
1991,577
1992,599
1995,623
2000,649
2007,678
2017,711
2029,749
2031,756
2037,775
2043,792
2047,805
2049,814
2050,817
2158,925
2158,924
2147,892
2133,855
2128,841
2116,808
2104,774
2093,742
2083,711
2074,684
2068,660
2063,642
2062,637
2056,603
2054,571
2055,543
2058,518
2065,497
2075,482
2076,481
2085,469
2088,456
2087,443
2081,433
2071,426
" /> 
<polyline style="fill-rule:evenodd;"
points="2331,1888
2320,1885
2319,1885
2312,1886
2307,1887
2302,1891
2295,1898
2288,1906
2277,1921
2266,1938
2255,1959
2244,1984
2233,2015
2226,2037
2220,2057
2214,2071
2210,2082
2206,2090
2202,2096
2197,2102
2196,2103
2187,2111
2179,2116
2170,2118
2162,2119
2147,2123
2136,2128
2130,2136
2127,2143
2126,2157
2131,2169
2140,2178
2148,2182
2159,2183
2174,2181
2190,2178
2205,2173
2216,2168
2229,2160
2241,2150
2251,2137
2261,2121
2270,2101
2279,2076
2285,2058
2295,2028
2305,2002
2314,1982
2322,1965
2331,1950
2337,1943
2346,1928
2350,1916
2348,1905
2340,1895
2331,1888
" /> 
<polyline style="fill-rule:evenodd;"
points="1660,1728
1648,1727
1635,1730
1627,1736
1621,1745
1619,1757
1619,1768
1624,1777
1624,1777
1627,1782
1631,1791
1636,1805
1642,1823
1648,1847
1656,1876
1665,1912
1666,1915
1679,1966
1691,2011
1702,2051
1712,2085
1722,2116
1732,2143
1742,2166
1751,2188
1762,2207
1772,2224
1783,2240
1797,2256
1812,2270
1826,2282
1833,2286
1859,2296
1885,2299
1911,2296
1937,2286
1963,2270
1984,2253
1993,2244
1997,2237
1999,2231
2000,2227
1998,2213
1990,2202
1980,2197
1972,2194
1964,2194
1956,2197
1945,2205
1938,2211
1919,2224
1901,2233
1885,2236
1872,2234
1857,2226
1842,2211
1826,2191
1811,2165
1796,2135
1790,2120
1784,2102
1776,2080
1768,2053
1760,2024
1751,1994
1743,1964
1736,1935
1735,1930
1724,1888
1715,1851
1706,1820
1698,1794
1691,1774
1685,1757
1679,1745
1673,1737
1671,1735
1660,1728
" /> 
</g>
<g style="fill:#000000; fill-opacity:1.0; 
stroke:#000000; stroke-width:3.93701; stroke-opacity:1; 
stroke-linecap:round; stroke-linejoin:round;">
</g>
<g style="fill:#C2C200; fill-opacity:1.0; 
stroke:#C2C200; stroke-width:3.93701; stroke-opacity:1; 
stroke-linecap:round; stroke-linejoin:round;">
</g>
<g style="fill:#C2C200; fill-opacity:1.0; 
stroke:#C2C200; stroke-width:59.0551; stroke-opacity:1; 
stroke-linecap:round; stroke-linejoin:round;">
</g>
<g style="fill:#C2C200; fill-opacity:0.0; 
stroke:#C2C200; stroke-width:59.0551; stroke-opacity:1; 
stroke-linecap:round; stroke-linejoin:round;">
<path d="M10567 659
L10567 7746
" />
<path d="M10567.9 659.449 A629.921 629.921 0.0 0 0 9937.99 29.528 " />
<path d="M9937.99 8375.98 A629.921 629.921 0.0 0 0 10567.9 7746.06 " />
<path d="M725.394 29.528 A629.921 629.921 0.0 0 0 95.4724 659.449 " />
<path d="M95 7746
L95 659
" />
<path d="M9937 8375
L725 8375
" />
<path d="M9937 29
L725 29
" />
<path d="M95.4724 7746.06 A629.921 629.921 0.0 0 0 725.394 8375.98 " />
</g> 
</svg>
