<?xml version="1.0" standalone="no"?>
 <!DOCTYPE svg PUBLIC "-//W3C//DTD SVG 1.1//EN" 
 "http://www.w3.org/Graphics/SVG/1.1/DTD/svg11.dtd"> 
<svg xmlns="http://www.w3.org/2000/svg" version="1.1" 
    width="2.68986cm" height="2.1336cm" viewBox="0 0 10590 8400 ">
<title>SVG Picture created as WoodElf_03-F.Fab.svg date 2019/06/15 22:28:23 </title>
  <desc>Picture generated by PCBNEW </desc>
<g style="fill:#000000; fill-opacity:1;stroke:#000000; stroke-opacity:1;
stroke-linecap:round; stroke-linejoin:round; "
 transform="translate(0 0) scale(1 1)">
</g>
<g style="fill:#000000; fill-opacity:0.0; 
stroke:#000000; stroke-width:-0.000393701; stroke-opacity:1; 
stroke-linecap:round; stroke-linejoin:round;">
</g>
<g style="fill:#848484; fill-opacity:0.0; 
stroke:#848484; stroke-width:-0.000393701; stroke-opacity:1; 
stroke-linecap:round; stroke-linejoin:round;">
</g>
<g style="fill:#848484; fill-opacity:0.0; 
stroke:#848484; stroke-width:78.7402; stroke-opacity:1; 
stroke-linecap:round; stroke-linejoin:round;">
<circle cx="6705.17" cy="5594.76" r="511.811" /> 
<circle cx="6705.17" cy="2819.76" r="511.81" /> 
<circle cx="3955.17" cy="2819.76" r="511.811" /> 
<circle cx="3955.17" cy="5594.76" r="511.811" /> 
<path d="M7955 3794
L5980 3794
" />
<circle cx="8480.17" cy="4219.76" r="688.976" /> 
<circle cx="5330.17" cy="4219.76" r="787.402" /> 
<path d="M5955 4644
L7980 4669
" />
<path d="M9772 2512
L7920 2512
" />
<path d="M9772 5898
L9772 2512
" />
<path d="M7920 5898
L9772 5898
" />
<path d="M6118 7355
L6118 6794
" />
<path d="M4544 7355
L6118 7355
" />
<path d="M4544 6794
L4544 7355
" />
<path d="M1394 5670
L2742 5670
" />
<path d="M1394 2740
L1394 5670
" />
<path d="M2742 2740
L1394 2740
" />
<path d="M6796 351
L6796 1617
" />
<path d="M3866 351
L6796 351
" />
<path d="M3866 1617
L3866 351
" />
<path d="M7920 6794
L2742 6794
" />
<path d="M7920 1617
L7920 6794
" />
<path d="M2742 1617
L7920 1617
" />
<path d="M2742 6794
L2742 1617
" />
</g>
<g style="fill:#848484; fill-opacity:0.0; 
stroke:#848484; stroke-width:49.2126; stroke-opacity:1; 
stroke-linecap:round; stroke-linejoin:round;">
<path d="M-1 836
L137 697
L84 842
L230 789
L91 929
" />
<path d="M177 1015
L170 995
L170 982
L177 962
L217 922
L237 915
L250 915
L270 922
L290 942
L296 962
L296 975
L290 995
L250 1035
L230 1041
L217 1041
L197 1035
L177 1015
" />
<path d="M435 1088
L343 1180
" />
<path d="M376 1028
L303 1101
L296 1121
L303 1141
L323 1161
L343 1167
L356 1167
" />
<path d="M502 1154
L409 1247
" />
<path d="M488 1167
L502 1167
L522 1174
L541 1194
L548 1214
L541 1233
L469 1306
" />
<path d="M608 1260
L661 1313
" />
<path d="M674 1233
L555 1353
L548 1373
L555 1393
L568 1406
" />
<path d="M-1 836
L137 697
L84 842
L230 789
L91 929
" />
<path d="M177 1015
L170 995
L170 982
L177 962
L217 922
L237 915
L250 915
L270 922
L290 942
L296 962
L296 975
L290 995
L250 1035
L230 1041
L217 1041
L197 1035
L177 1015
" />
<path d="M435 1088
L343 1180
" />
<path d="M376 1028
L303 1101
L296 1121
L303 1141
L323 1161
L343 1167
L356 1167
" />
<path d="M502 1154
L409 1247
" />
<path d="M488 1167
L502 1167
L522 1174
L541 1194
L548 1214
L541 1233
L469 1306
" />
<path d="M608 1260
L661 1313
" />
<path d="M674 1233
L555 1353
L548 1373
L555 1393
L568 1406
" />
<path d="M-1 7922
L137 7783
L84 7929
L230 7876
L91 8015
" />
<path d="M177 8101
L170 8081
L170 8068
L177 8048
L217 8009
L237 8002
L250 8002
L270 8009
L290 8028
L296 8048
L296 8062
L290 8081
L250 8121
L230 8128
L217 8128
L197 8121
L177 8101
" />
<path d="M435 8174
L343 8267
" />
<path d="M376 8115
L303 8187
L296 8207
L303 8227
L323 8247
L343 8254
L356 8254
" />
<path d="M502 8241
L409 8333
" />
<path d="M488 8254
L502 8254
L522 8260
L541 8280
L548 8300
L541 8320
L469 8393
" />
<path d="M608 8347
L661 8400
" />
<path d="M674 8320
L555 8439
L548 8459
L555 8479
L568 8492
" />
<path d="M-1 7922
L137 7783
L84 7929
L230 7876
L91 8015
" />
<path d="M177 8101
L170 8081
L170 8068
L177 8048
L217 8009
L237 8002
L250 8002
L270 8009
L290 8028
L296 8048
L296 8062
L290 8081
L250 8121
L230 8128
L217 8128
L197 8121
L177 8101
" />
<path d="M435 8174
L343 8267
" />
<path d="M376 8115
L303 8187
L296 8207
L303 8227
L323 8247
L343 8254
L356 8254
" />
<path d="M502 8241
L409 8333
" />
<path d="M488 8254
L502 8254
L522 8260
L541 8280
L548 8300
L541 8320
L469 8393
" />
<path d="M608 8347
L661 8400
" />
<path d="M674 8320
L555 8439
L548 8459
L555 8479
L568 8492
" />
<path d="M9211 7922
L9350 7783
L9297 7929
L9443 7876
L9303 8015
" />
<path d="M9390 8101
L9383 8081
L9383 8068
L9390 8048
L9429 8009
L9449 8002
L9462 8002
L9482 8009
L9502 8028
L9509 8048
L9509 8062
L9502 8081
L9462 8121
L9443 8128
L9429 8128
L9409 8121
L9390 8101
" />
<path d="M9648 8174
L9555 8267
" />
<path d="M9588 8115
L9515 8187
L9509 8207
L9515 8227
L9535 8247
L9555 8254
L9568 8254
" />
<path d="M9714 8241
L9621 8333
" />
<path d="M9701 8254
L9714 8254
L9734 8260
L9754 8280
L9761 8300
L9754 8320
L9681 8393
" />
<path d="M9820 8347
L9873 8400
" />
<path d="M9887 8320
L9767 8439
L9761 8459
L9767 8479
L9781 8492
" />
<path d="M9211 7922
L9350 7783
L9297 7929
L9443 7876
L9303 8015
" />
<path d="M9390 8101
L9383 8081
L9383 8068
L9390 8048
L9429 8009
L9449 8002
L9462 8002
L9482 8009
L9502 8028
L9509 8048
L9509 8062
L9502 8081
L9462 8121
L9443 8128
L9429 8128
L9409 8121
L9390 8101
" />
<path d="M9648 8174
L9555 8267
" />
<path d="M9588 8115
L9515 8187
L9509 8207
L9515 8227
L9535 8247
L9555 8254
L9568 8254
" />
<path d="M9714 8241
L9621 8333
" />
<path d="M9701 8254
L9714 8254
L9734 8260
L9754 8280
L9761 8300
L9754 8320
L9681 8393
" />
<path d="M9820 8347
L9873 8400
" />
<path d="M9887 8320
L9767 8439
L9761 8459
L9767 8479
L9781 8492
" />
<path d="M9211 836
L9350 697
L9297 842
L9443 789
L9303 929
" />
<path d="M9390 1015
L9383 995
L9383 982
L9390 962
L9429 922
L9449 915
L9462 915
L9482 922
L9502 942
L9509 962
L9509 975
L9502 995
L9462 1035
L9443 1041
L9429 1041
L9409 1035
L9390 1015
" />
<path d="M9648 1088
L9555 1180
" />
<path d="M9588 1028
L9515 1101
L9509 1121
L9515 1141
L9535 1161
L9555 1167
L9568 1167
" />
<path d="M9714 1154
L9621 1247
" />
<path d="M9701 1167
L9714 1167
L9734 1174
L9754 1194
L9761 1214
L9754 1233
L9681 1306
" />
<path d="M9820 1260
L9873 1313
" />
<path d="M9887 1233
L9767 1353
L9761 1373
L9767 1393
L9781 1406
" />
<path d="M9211 836
L9350 697
L9297 842
L9443 789
L9303 929
" />
<path d="M9390 1015
L9383 995
L9383 982
L9390 962
L9429 922
L9449 915
L9462 915
L9482 922
L9502 942
L9509 962
L9509 975
L9502 995
L9462 1035
L9443 1041
L9429 1041
L9409 1035
L9390 1015
" />
<path d="M9648 1088
L9555 1180
" />
<path d="M9588 1028
L9515 1101
L9509 1121
L9515 1141
L9535 1161
L9555 1167
L9568 1167
" />
<path d="M9714 1154
L9621 1247
" />
<path d="M9701 1167
L9714 1167
L9734 1174
L9754 1194
L9761 1214
L9754 1233
L9681 1306
" />
<path d="M9820 1260
L9873 1313
" />
<path d="M9887 1233
L9767 1353
L9761 1373
L9767 1393
L9781 1406
" />
</g>
<g style="fill:#848484; fill-opacity:0.0; 
stroke:#848484; stroke-width:100; stroke-opacity:1; 
stroke-linecap:round; stroke-linejoin:round;">
<path d="M5487 4746
L5510 4675
L5510 4556
L5487 4508
L5463 4484
L5415 4460
L5368 4460
L5320 4484
L5296 4508
L5272 4556
L5248 4651
L5225 4698
L5201 4722
L5153 4746
L5106 4746
L5058 4722
L5034 4698
L5010 4651
L5010 4532
L5034 4460
" />
<path d="M5510 3984
L5510 4270
" />
<path d="M5510 4127
L5010 4127
L5082 4175
L5129 4222
L5153 4270
" />
<path d="M5487 4746
L5510 4675
L5510 4556
L5487 4508
L5463 4484
L5415 4460
L5368 4460
L5320 4484
L5296 4508
L5272 4556
L5248 4651
L5225 4698
L5201 4722
L5153 4746
L5106 4746
L5058 4722
L5034 4698
L5010 4651
L5010 4532
L5034 4460
" />
<path d="M5510 3984
L5510 4270
" />
<path d="M5510 4127
L5010 4127
L5082 4175
L5129 4222
L5153 4270
" />
</g>
<g style="fill:#848484; fill-opacity:0.0; 
stroke:#848484; stroke-width:49.2126; stroke-opacity:1; 
stroke-linecap:round; stroke-linejoin:round;">
<path d="M6516 7891
L6628 7891
" />
<path d="M6572 8088
L6572 7891
" />
<path d="M6797 8088
L6685 8088
" />
<path d="M6741 8088
L6741 7891
L6722 7919
L6703 7938
L6685 7947
" />
<path d="M6089 8385
L6118 8394
L6127 8403
L6136 8422
L6136 8450
L6127 8469
L6118 8478
L6099 8488
L6024 8488
L6024 8291
L6089 8291
L6108 8300
L6118 8310
L6127 8328
L6127 8347
L6118 8366
L6108 8375
L6089 8385
L6024 8385
" />
<path d="M6249 8488
L6230 8478
L6221 8460
L6221 8291
" />
<path d="M6408 8488
L6408 8385
L6399 8366
L6380 8356
L6343 8356
L6324 8366
" />
<path d="M6408 8478
L6389 8488
L6343 8488
L6324 8478
L6314 8460
L6314 8441
L6324 8422
L6343 8413
L6389 8413
L6408 8403
" />
<path d="M6502 8356
L6502 8488
" />
<path d="M6502 8375
L6511 8366
L6530 8356
L6558 8356
L6577 8366
L6586 8385
L6586 8488
" />
<path d="M6680 8488
L6680 8291
" />
<path d="M6699 8413
L6755 8488
" />
<path d="M6755 8356
L6680 8431
" />
<path d="M6811 8291
L6924 8291
" />
<path d="M6867 8488
L6867 8291
" />
<path d="M6989 8488
L6989 8291
" />
<path d="M7074 8488
L7074 8385
L7064 8366
L7046 8356
L7017 8356
L6999 8366
L6989 8375
" />
<path d="M7167 8488
L7167 8356
" />
<path d="M7167 8394
L7177 8375
L7186 8366
L7205 8356
L7224 8356
" />
<path d="M7317 8488
L7299 8478
L7289 8469
L7280 8450
L7280 8394
L7289 8375
L7299 8366
L7317 8356
L7346 8356
L7364 8366
L7374 8375
L7383 8394
L7383 8450
L7374 8469
L7364 8478
L7346 8488
L7317 8488
" />
<path d="M7552 8356
L7552 8488
" />
<path d="M7467 8356
L7467 8460
L7477 8478
L7496 8488
L7524 8488
L7542 8478
L7552 8469
" />
<path d="M7730 8356
L7730 8516
L7720 8535
L7711 8544
L7692 8553
L7664 8553
L7646 8544
" />
<path d="M7730 8478
L7711 8488
L7674 8488
L7655 8478
L7646 8469
L7636 8450
L7636 8394
L7646 8375
L7655 8366
L7674 8356
L7711 8356
L7730 8366
" />
<path d="M7824 8488
L7824 8291
" />
<path d="M7908 8488
L7908 8385
L7899 8366
L7880 8356
L7852 8356
L7833 8366
L7824 8375
" />
<path d="M8002 8413
L8152 8413
" />
<path d="M8245 8488
L8245 8291
" />
<path d="M8245 8385
L8358 8385
" />
<path d="M8358 8488
L8358 8291
" />
<path d="M8480 8488
L8461 8478
L8452 8469
L8442 8450
L8442 8394
L8452 8375
L8461 8366
L8480 8356
L8508 8356
L8527 8366
L8536 8375
L8545 8394
L8545 8450
L8536 8469
L8527 8478
L8508 8488
L8480 8488
" />
<path d="M8658 8488
L8639 8478
L8630 8460
L8630 8291
" />
<path d="M8808 8478
L8789 8488
L8752 8488
L8733 8478
L8723 8460
L8723 8385
L8733 8366
L8752 8356
L8789 8356
L8808 8366
L8817 8385
L8817 8403
L8723 8422
" />
<path d="M3366 7891
L3479 7891
" />
<path d="M3422 8088
L3422 7891
" />
<path d="M3638 7891
L3544 7891
L3535 7985
L3544 7975
L3563 7966
L3610 7966
L3629 7975
L3638 7985
L3647 8003
L3647 8050
L3638 8069
L3629 8078
L3610 8088
L3563 8088
L3544 8078
L3535 8069
" />
<path d="M2940 8385
L2968 8394
L2977 8403
L2987 8422
L2987 8450
L2977 8469
L2968 8478
L2949 8488
L2874 8488
L2874 8291
L2940 8291
L2959 8300
L2968 8310
L2977 8328
L2977 8347
L2968 8366
L2959 8375
L2940 8385
L2874 8385
" />
<path d="M3099 8488
L3080 8478
L3071 8460
L3071 8291
" />
<path d="M3259 8488
L3259 8385
L3249 8366
L3230 8356
L3193 8356
L3174 8366
" />
<path d="M3259 8478
L3240 8488
L3193 8488
L3174 8478
L3165 8460
L3165 8441
L3174 8422
L3193 8413
L3240 8413
L3259 8403
" />
<path d="M3352 8356
L3352 8488
" />
<path d="M3352 8375
L3362 8366
L3380 8356
L3409 8356
L3427 8366
L3437 8385
L3437 8488
" />
<path d="M3530 8488
L3530 8291
" />
<path d="M3549 8413
L3605 8488
" />
<path d="M3605 8356
L3530 8431
" />
<path d="M3662 8291
L3774 8291
" />
<path d="M3718 8488
L3718 8291
" />
<path d="M3840 8488
L3840 8291
" />
<path d="M3924 8488
L3924 8385
L3915 8366
L3896 8356
L3868 8356
L3849 8366
L3840 8375
" />
<path d="M4018 8488
L4018 8356
" />
<path d="M4018 8394
L4027 8375
L4037 8366
L4055 8356
L4074 8356
" />
<path d="M4168 8488
L4149 8478
L4140 8469
L4130 8450
L4130 8394
L4140 8375
L4149 8366
L4168 8356
L4196 8356
L4215 8366
L4224 8375
L4233 8394
L4233 8450
L4224 8469
L4215 8478
L4196 8488
L4168 8488
" />
<path d="M4402 8356
L4402 8488
" />
<path d="M4318 8356
L4318 8460
L4327 8478
L4346 8488
L4374 8488
L4393 8478
L4402 8469
" />
<path d="M4580 8356
L4580 8516
L4571 8535
L4562 8544
L4543 8553
L4515 8553
L4496 8544
" />
<path d="M4580 8478
L4562 8488
L4524 8488
L4505 8478
L4496 8469
L4487 8450
L4487 8394
L4496 8375
L4505 8366
L4524 8356
L4562 8356
L4580 8366
" />
<path d="M4674 8488
L4674 8291
" />
<path d="M4758 8488
L4758 8385
L4749 8366
L4730 8356
L4702 8356
L4683 8366
L4674 8375
" />
<path d="M4852 8413
L5002 8413
" />
<path d="M5096 8488
L5096 8291
" />
<path d="M5096 8385
L5208 8385
" />
<path d="M5208 8488
L5208 8291
" />
<path d="M5330 8488
L5311 8478
L5302 8469
L5293 8450
L5293 8394
L5302 8375
L5311 8366
L5330 8356
L5358 8356
L5377 8366
L5386 8375
L5396 8394
L5396 8450
L5386 8469
L5377 8478
L5358 8488
L5330 8488
" />
<path d="M5508 8488
L5490 8478
L5480 8460
L5480 8291
" />
<path d="M5658 8478
L5640 8488
L5602 8488
L5583 8478
L5574 8460
L5574 8385
L5583 8366
L5602 8356
L5640 8356
L5658 8366
L5668 8385
L5668 8403
L5574 8422
" />
<path d="M4154 7891
L4266 7891
" />
<path d="M4210 8088
L4210 7891
" />
<path d="M4416 7891
L4379 7891
L4360 7900
L4351 7910
L4332 7938
L4322 7975
L4322 8050
L4332 8069
L4341 8078
L4360 8088
L4397 8088
L4416 8078
L4425 8069
L4435 8050
L4435 8003
L4425 7985
L4416 7975
L4397 7966
L4360 7966
L4341 7975
L4332 7985
L4322 8003
" />
<path d="M3727 8385
L3755 8394
L3765 8403
L3774 8422
L3774 8450
L3765 8469
L3755 8478
L3737 8488
L3662 8488
L3662 8291
L3727 8291
L3746 8300
L3755 8310
L3765 8328
L3765 8347
L3755 8366
L3746 8375
L3727 8385
L3662 8385
" />
<path d="M3887 8488
L3868 8478
L3858 8460
L3858 8291
" />
<path d="M4046 8488
L4046 8385
L4037 8366
L4018 8356
L3980 8356
L3962 8366
" />
<path d="M4046 8478
L4027 8488
L3980 8488
L3962 8478
L3952 8460
L3952 8441
L3962 8422
L3980 8413
L4027 8413
L4046 8403
" />
<path d="M4140 8356
L4140 8488
" />
<path d="M4140 8375
L4149 8366
L4168 8356
L4196 8356
L4215 8366
L4224 8385
L4224 8488
" />
<path d="M4318 8488
L4318 8291
" />
<path d="M4337 8413
L4393 8488
" />
<path d="M4393 8356
L4318 8431
" />
<path d="M4449 8291
L4562 8291
" />
<path d="M4505 8488
L4505 8291
" />
<path d="M4627 8488
L4627 8291
" />
<path d="M4711 8488
L4711 8385
L4702 8366
L4683 8356
L4655 8356
L4637 8366
L4627 8375
" />
<path d="M4805 8488
L4805 8356
" />
<path d="M4805 8394
L4815 8375
L4824 8366
L4843 8356
L4861 8356
" />
<path d="M4955 8488
L4936 8478
L4927 8469
L4918 8450
L4918 8394
L4927 8375
L4936 8366
L4955 8356
L4983 8356
L5002 8366
L5011 8375
L5021 8394
L5021 8450
L5011 8469
L5002 8478
L4983 8488
L4955 8488
" />
<path d="M5190 8356
L5190 8488
" />
<path d="M5105 8356
L5105 8460
L5115 8478
L5133 8488
L5161 8488
L5180 8478
L5190 8469
" />
<path d="M5368 8356
L5368 8516
L5358 8535
L5349 8544
L5330 8553
L5302 8553
L5283 8544
" />
<path d="M5368 8478
L5349 8488
L5311 8488
L5293 8478
L5283 8469
L5274 8450
L5274 8394
L5283 8375
L5293 8366
L5311 8356
L5349 8356
L5368 8366
" />
<path d="M5461 8488
L5461 8291
" />
<path d="M5546 8488
L5546 8385
L5536 8366
L5518 8356
L5490 8356
L5471 8366
L5461 8375
" />
<path d="M5640 8413
L5789 8413
" />
<path d="M5883 8488
L5883 8291
" />
<path d="M5883 8385
L5996 8385
" />
<path d="M5996 8488
L5996 8291
" />
<path d="M6118 8488
L6099 8478
L6089 8469
L6080 8450
L6080 8394
L6089 8375
L6099 8366
L6118 8356
L6146 8356
L6164 8366
L6174 8375
L6183 8394
L6183 8450
L6174 8469
L6164 8478
L6146 8488
L6118 8488
" />
<path d="M6296 8488
L6277 8478
L6268 8460
L6268 8291
" />
<path d="M6446 8478
L6427 8488
L6389 8488
L6371 8478
L6361 8460
L6361 8385
L6371 8366
L6389 8356
L6427 8356
L6446 8366
L6455 8385
L6455 8403
L6361 8422
" />
<path d="M1791 7891
L1904 7891
" />
<path d="M1848 8088
L1848 7891
" />
<path d="M1979 8088
L2016 8088
L2035 8078
L2045 8069
L2063 8041
L2073 8003
L2073 7928
L2063 7910
L2054 7900
L2035 7891
L1998 7891
L1979 7900
L1970 7910
L1960 7928
L1960 7975
L1970 7994
L1979 8003
L1998 8013
L2035 8013
L2054 8003
L2063 7994
L2073 7975
" />
<path d="M1365 8385
L1393 8394
L1403 8403
L1412 8422
L1412 8450
L1403 8469
L1393 8478
L1374 8488
L1299 8488
L1299 8291
L1365 8291
L1384 8300
L1393 8310
L1403 8328
L1403 8347
L1393 8366
L1384 8375
L1365 8385
L1299 8385
" />
<path d="M1524 8488
L1506 8478
L1496 8460
L1496 8291
" />
<path d="M1684 8488
L1684 8385
L1674 8366
L1656 8356
L1618 8356
L1599 8366
" />
<path d="M1684 8478
L1665 8488
L1618 8488
L1599 8478
L1590 8460
L1590 8441
L1599 8422
L1618 8413
L1665 8413
L1684 8403
" />
<path d="M1777 8356
L1777 8488
" />
<path d="M1777 8375
L1787 8366
L1806 8356
L1834 8356
L1852 8366
L1862 8385
L1862 8488
" />
<path d="M1956 8488
L1956 8291
" />
<path d="M1974 8413
L2031 8488
" />
<path d="M2031 8356
L1956 8431
" />
<path d="M2087 8291
L2199 8291
" />
<path d="M2143 8488
L2143 8291
" />
<path d="M2265 8488
L2265 8291
" />
<path d="M2349 8488
L2349 8385
L2340 8366
L2321 8356
L2293 8356
L2274 8366
L2265 8375
" />
<path d="M2443 8488
L2443 8356
" />
<path d="M2443 8394
L2452 8375
L2462 8366
L2481 8356
L2499 8356
" />
<path d="M2593 8488
L2574 8478
L2565 8469
L2556 8450
L2556 8394
L2565 8375
L2574 8366
L2593 8356
L2621 8356
L2640 8366
L2649 8375
L2659 8394
L2659 8450
L2649 8469
L2640 8478
L2621 8488
L2593 8488
" />
<path d="M2827 8356
L2827 8488
" />
<path d="M2743 8356
L2743 8460
L2752 8478
L2771 8488
L2799 8488
L2818 8478
L2827 8469
" />
<path d="M3005 8356
L3005 8516
L2996 8535
L2987 8544
L2968 8553
L2940 8553
L2921 8544
" />
<path d="M3005 8478
L2987 8488
L2949 8488
L2930 8478
L2921 8469
L2912 8450
L2912 8394
L2921 8375
L2930 8366
L2949 8356
L2987 8356
L3005 8366
" />
<path d="M3099 8488
L3099 8291
" />
<path d="M3184 8488
L3184 8385
L3174 8366
L3155 8356
L3127 8356
L3109 8366
L3099 8375
" />
<path d="M3277 8413
L3427 8413
" />
<path d="M3521 8488
L3521 8291
" />
<path d="M3521 8385
L3634 8385
" />
<path d="M3634 8488
L3634 8291
" />
<path d="M3755 8488
L3737 8478
L3727 8469
L3718 8450
L3718 8394
L3727 8375
L3737 8366
L3755 8356
L3783 8356
L3802 8366
L3812 8375
L3821 8394
L3821 8450
L3812 8469
L3802 8478
L3783 8488
L3755 8488
" />
<path d="M3933 8488
L3915 8478
L3905 8460
L3905 8291
" />
<path d="M4083 8478
L4065 8488
L4027 8488
L4008 8478
L3999 8460
L3999 8385
L4008 8366
L4027 8356
L4065 8356
L4083 8366
L4093 8385
L4093 8403
L3999 8422
" />
<path d="M2485 7891
L2598 7891
" />
<path d="M2541 8088
L2541 7891
" />
<path d="M2766 8088
L2654 8088
" />
<path d="M2710 8088
L2710 7891
L2691 7919
L2673 7938
L2654 7947
" />
<path d="M2888 7891
L2907 7891
L2926 7900
L2935 7910
L2944 7928
L2954 7966
L2954 8013
L2944 8050
L2935 8069
L2926 8078
L2907 8088
L2888 8088
L2869 8078
L2860 8069
L2851 8050
L2841 8013
L2841 7966
L2851 7928
L2860 7910
L2869 7900
L2888 7891
" />
<path d="M2152 8385
L2181 8394
L2190 8403
L2199 8422
L2199 8450
L2190 8469
L2181 8478
L2162 8488
L2087 8488
L2087 8291
L2152 8291
L2171 8300
L2181 8310
L2190 8328
L2190 8347
L2181 8366
L2171 8375
L2152 8385
L2087 8385
" />
<path d="M2312 8488
L2293 8478
L2284 8460
L2284 8291
" />
<path d="M2471 8488
L2471 8385
L2462 8366
L2443 8356
L2406 8356
L2387 8366
" />
<path d="M2471 8478
L2452 8488
L2406 8488
L2387 8478
L2377 8460
L2377 8441
L2387 8422
L2406 8413
L2452 8413
L2471 8403
" />
<path d="M2565 8356
L2565 8488
" />
<path d="M2565 8375
L2574 8366
L2593 8356
L2621 8356
L2640 8366
L2649 8385
L2649 8488
" />
<path d="M2743 8488
L2743 8291
" />
<path d="M2762 8413
L2818 8488
" />
<path d="M2818 8356
L2743 8431
" />
<path d="M2874 8291
L2987 8291
" />
<path d="M2930 8488
L2930 8291
" />
<path d="M3052 8488
L3052 8291
" />
<path d="M3137 8488
L3137 8385
L3127 8366
L3109 8356
L3080 8356
L3062 8366
L3052 8375
" />
<path d="M3230 8488
L3230 8356
" />
<path d="M3230 8394
L3240 8375
L3249 8366
L3268 8356
L3287 8356
" />
<path d="M3380 8488
L3362 8478
L3352 8469
L3343 8450
L3343 8394
L3352 8375
L3362 8366
L3380 8356
L3409 8356
L3427 8366
L3437 8375
L3446 8394
L3446 8450
L3437 8469
L3427 8478
L3409 8488
L3380 8488
" />
<path d="M3615 8356
L3615 8488
" />
<path d="M3530 8356
L3530 8460
L3540 8478
L3559 8488
L3587 8488
L3605 8478
L3615 8469
" />
<path d="M3793 8356
L3793 8516
L3783 8535
L3774 8544
L3755 8553
L3727 8553
L3708 8544
" />
<path d="M3793 8478
L3774 8488
L3737 8488
L3718 8478
L3708 8469
L3699 8450
L3699 8394
L3708 8375
L3718 8366
L3737 8356
L3774 8356
L3793 8366
" />
<path d="M3887 8488
L3887 8291
" />
<path d="M3971 8488
L3971 8385
L3962 8366
L3943 8356
L3915 8356
L3896 8366
L3887 8375
" />
<path d="M4065 8413
L4215 8413
" />
<path d="M4308 8488
L4308 8291
" />
<path d="M4308 8385
L4421 8385
" />
<path d="M4421 8488
L4421 8291
" />
<path d="M4543 8488
L4524 8478
L4515 8469
L4505 8450
L4505 8394
L4515 8375
L4524 8366
L4543 8356
L4571 8356
L4590 8366
L4599 8375
L4608 8394
L4608 8450
L4599 8469
L4590 8478
L4571 8488
L4543 8488
" />
<path d="M4721 8488
L4702 8478
L4693 8460
L4693 8291
" />
<path d="M4871 8478
L4852 8488
L4815 8488
L4796 8478
L4786 8460
L4786 8385
L4796 8366
L4815 8356
L4852 8356
L4871 8366
L4880 8385
L4880 8403
L4786 8422
" />
<path d="M4941 7891
L5054 7891
" />
<path d="M4997 8088
L4997 7891
" />
<path d="M5100 7891
L5222 7891
L5157 7966
L5185 7966
L5204 7975
L5213 7985
L5222 8003
L5222 8050
L5213 8069
L5204 8078
L5185 8088
L5129 8088
L5110 8078
L5100 8069
" />
<path d="M4515 8385
L4543 8394
L4552 8403
L4562 8422
L4562 8450
L4552 8469
L4543 8478
L4524 8488
L4449 8488
L4449 8291
L4515 8291
L4533 8300
L4543 8310
L4552 8328
L4552 8347
L4543 8366
L4533 8375
L4515 8385
L4449 8385
" />
<path d="M4674 8488
L4655 8478
L4646 8460
L4646 8291
" />
<path d="M4833 8488
L4833 8385
L4824 8366
L4805 8356
L4768 8356
L4749 8366
" />
<path d="M4833 8478
L4815 8488
L4768 8488
L4749 8478
L4740 8460
L4740 8441
L4749 8422
L4768 8413
L4815 8413
L4833 8403
" />
<path d="M4927 8356
L4927 8488
" />
<path d="M4927 8375
L4936 8366
L4955 8356
L4983 8356
L5002 8366
L5011 8385
L5011 8488
" />
<path d="M5105 8488
L5105 8291
" />
<path d="M5124 8413
L5180 8488
" />
<path d="M5180 8356
L5105 8431
" />
<path d="M5236 8291
L5349 8291
" />
<path d="M5293 8488
L5293 8291
" />
<path d="M5415 8488
L5415 8291
" />
<path d="M5499 8488
L5499 8385
L5490 8366
L5471 8356
L5443 8356
L5424 8366
L5415 8375
" />
<path d="M5593 8488
L5593 8356
" />
<path d="M5593 8394
L5602 8375
L5611 8366
L5630 8356
L5649 8356
" />
<path d="M5743 8488
L5724 8478
L5714 8469
L5705 8450
L5705 8394
L5714 8375
L5724 8366
L5743 8356
L5771 8356
L5789 8366
L5799 8375
L5808 8394
L5808 8450
L5799 8469
L5789 8478
L5771 8488
L5743 8488
" />
<path d="M5977 8356
L5977 8488
" />
<path d="M5893 8356
L5893 8460
L5902 8478
L5921 8488
L5949 8488
L5968 8478
L5977 8469
" />
<path d="M6155 8356
L6155 8516
L6146 8535
L6136 8544
L6118 8553
L6089 8553
L6071 8544
" />
<path d="M6155 8478
L6136 8488
L6099 8488
L6080 8478
L6071 8469
L6061 8450
L6061 8394
L6071 8375
L6080 8366
L6099 8356
L6136 8356
L6155 8366
" />
<path d="M6249 8488
L6249 8291
" />
<path d="M6333 8488
L6333 8385
L6324 8366
L6305 8356
L6277 8356
L6258 8366
L6249 8375
" />
<path d="M6427 8413
L6577 8413
" />
<path d="M6671 8488
L6671 8291
" />
<path d="M6671 8385
L6783 8385
" />
<path d="M6783 8488
L6783 8291
" />
<path d="M6905 8488
L6886 8478
L6877 8469
L6867 8450
L6867 8394
L6877 8375
L6886 8366
L6905 8356
L6933 8356
L6952 8366
L6961 8375
L6971 8394
L6971 8450
L6961 8469
L6952 8478
L6933 8488
L6905 8488
" />
<path d="M7083 8488
L7064 8478
L7055 8460
L7055 8291
" />
<path d="M7233 8478
L7214 8488
L7177 8488
L7158 8478
L7149 8460
L7149 8385
L7158 8366
L7177 8356
L7214 8356
L7233 8366
L7242 8385
L7242 8403
L7149 8422
" />
<path d="M5728 7891
L5841 7891
" />
<path d="M5785 8088
L5785 7891
" />
<path d="M5897 7910
L5907 7900
L5925 7891
L5972 7891
L5991 7900
L6000 7910
L6010 7928
L6010 7947
L6000 7975
L5888 8088
L6010 8088
" />
<path d="M5302 8385
L5330 8394
L5340 8403
L5349 8422
L5349 8450
L5340 8469
L5330 8478
L5311 8488
L5236 8488
L5236 8291
L5302 8291
L5321 8300
L5330 8310
L5340 8328
L5340 8347
L5330 8366
L5321 8375
L5302 8385
L5236 8385
" />
<path d="M5461 8488
L5443 8478
L5433 8460
L5433 8291
" />
<path d="M5621 8488
L5621 8385
L5611 8366
L5593 8356
L5555 8356
L5536 8366
" />
<path d="M5621 8478
L5602 8488
L5555 8488
L5536 8478
L5527 8460
L5527 8441
L5536 8422
L5555 8413
L5602 8413
L5621 8403
" />
<path d="M5714 8356
L5714 8488
" />
<path d="M5714 8375
L5724 8366
L5743 8356
L5771 8356
L5789 8366
L5799 8385
L5799 8488
" />
<path d="M5893 8488
L5893 8291
" />
<path d="M5911 8413
L5968 8488
" />
<path d="M5968 8356
L5893 8431
" />
<path d="M6024 8291
L6136 8291
" />
<path d="M6080 8488
L6080 8291
" />
<path d="M6202 8488
L6202 8291
" />
<path d="M6286 8488
L6286 8385
L6277 8366
L6258 8356
L6230 8356
L6211 8366
L6202 8375
" />
<path d="M6380 8488
L6380 8356
" />
<path d="M6380 8394
L6389 8375
L6399 8366
L6418 8356
L6436 8356
" />
<path d="M6530 8488
L6511 8478
L6502 8469
L6493 8450
L6493 8394
L6502 8375
L6511 8366
L6530 8356
L6558 8356
L6577 8366
L6586 8375
L6596 8394
L6596 8450
L6586 8469
L6577 8478
L6558 8488
L6530 8488
" />
<path d="M6764 8356
L6764 8488
" />
<path d="M6680 8356
L6680 8460
L6689 8478
L6708 8488
L6736 8488
L6755 8478
L6764 8469
" />
<path d="M6942 8356
L6942 8516
L6933 8535
L6924 8544
L6905 8553
L6877 8553
L6858 8544
" />
<path d="M6942 8478
L6924 8488
L6886 8488
L6867 8478
L6858 8469
L6849 8450
L6849 8394
L6858 8375
L6867 8366
L6886 8356
L6924 8356
L6942 8366
" />
<path d="M7036 8488
L7036 8291
" />
<path d="M7121 8488
L7121 8385
L7111 8366
L7092 8356
L7064 8356
L7046 8366
L7036 8375
" />
<path d="M7214 8413
L7364 8413
" />
<path d="M7458 8488
L7458 8291
" />
<path d="M7458 8385
L7571 8385
" />
<path d="M7571 8488
L7571 8291
" />
<path d="M7692 8488
L7674 8478
L7664 8469
L7655 8450
L7655 8394
L7664 8375
L7674 8366
L7692 8356
L7720 8356
L7739 8366
L7749 8375
L7758 8394
L7758 8450
L7749 8469
L7739 8478
L7720 8488
L7692 8488
" />
<path d="M7870 8488
L7852 8478
L7842 8460
L7842 8291
" />
<path d="M8020 8478
L8002 8488
L7964 8488
L7945 8478
L7936 8460
L7936 8385
L7945 8366
L7964 8356
L8002 8356
L8020 8366
L8030 8385
L8030 8403
L7936 8422
" />
</g>
<g style="fill:#000000; fill-opacity:0.0; 
stroke:#000000; stroke-width:49.2126; stroke-opacity:1; 
stroke-linecap:round; stroke-linejoin:round;">
</g>
<g style="fill:#C2C200; fill-opacity:0.0; 
stroke:#C2C200; stroke-width:49.2126; stroke-opacity:1; 
stroke-linecap:round; stroke-linejoin:round;">
</g>
<g style="fill:#C2C200; fill-opacity:0.0; 
stroke:#C2C200; stroke-width:59.0551; stroke-opacity:1; 
stroke-linecap:round; stroke-linejoin:round;">
<path d="M10567 659
L10567 7746
" />
<path d="M10567.9 659.449 A629.921 629.921 0.0 0 0 9937.99 29.528 " />
<path d="M9937.99 8375.98 A629.921 629.921 0.0 0 0 10567.9 7746.06 " />
<path d="M725.394 29.528 A629.921 629.921 0.0 0 0 95.4724 659.449 " />
<path d="M95 7746
L95 659
" />
<path d="M9937 8375
L725 8375
" />
<path d="M9937 29
L725 29
" />
<path d="M95.4724 7746.06 A629.921 629.921 0.0 0 0 725.394 8375.98 " />
</g> 
</svg>
