<?xml version="1.0" standalone="no"?>
 <!DOCTYPE svg PUBLIC "-//W3C//DTD SVG 1.1//EN" 
 "http://www.w3.org/Graphics/SVG/1.1/DTD/svg11.dtd"> 
<svg xmlns="http://www.w3.org/2000/svg" version="1.1" 
    width="2.17678cm" height="2.17678cm" viewBox="0 0 8570 8570 ">
<title>SVG Picture created as WoodElf_03-B.SilkS.svg date 2019/06/03 16:19:49 </title>
  <desc>Picture generated by PCBNEW </desc>
<g style="fill:#000000; fill-opacity:1;stroke:#000000; stroke-opacity:1;
stroke-linecap:round; stroke-linejoin:round; "
 transform="translate(0 0) scale(1 1)">
</g>
<g style="fill:#000000; fill-opacity:0.0; 
stroke:#000000; stroke-width:-0.000393701; stroke-opacity:1; 
stroke-linecap:round; stroke-linejoin:round;">
</g>
<g style="fill:#840084; fill-opacity:0.0; 
stroke:#840084; stroke-width:-0.000393701; stroke-opacity:1; 
stroke-linecap:round; stroke-linejoin:round;">
</g>
<g style="fill:#840084; fill-opacity:0.0; 
stroke:#840084; stroke-width:98.4252; stroke-opacity:1; 
stroke-linecap:round; stroke-linejoin:round;">
<path d="M3989 3080
L4270 3080
L4326 3061
L4364 3024
L4382 2967
L4382 2930
" />
<path d="M4382 3324
L4364 3286
L4345 3267
L4307 3249
L4195 3249
L4158 3267
L4139 3286
L4120 3324
L4120 3380
L4139 3417
L4158 3436
L4195 3455
L4307 3455
L4345 3436
L4364 3417
L4382 3380
L4382 3324
" />
<path d="M4120 3586
L4382 3680
" />
<path d="M4120 3773
L4382 3680
L4476 3642
L4495 3623
L4514 3586
" />
<path d="M4364 3905
L4382 3942
L4382 4017
L4364 4055
L4326 4073
L4307 4073
L4270 4055
L4251 4017
L4251 3961
L4233 3923
L4195 3905
L4176 3905
L4139 3923
L4120 3961
L4120 4017
L4139 4055
" />
<path d="M4120 4186
L4120 4336
" />
<path d="M3989 4242
L4326 4242
L4364 4261
L4382 4298
L4382 4336
" />
<path d="M4382 4467
L4120 4467
" />
<path d="M3989 4467
L4008 4448
L4026 4467
L4008 4486
L3989 4467
L4026 4467
" />
<path d="M4364 4823
L4382 4786
L4382 4711
L4364 4673
L4345 4655
L4307 4636
L4195 4636
L4158 4655
L4139 4673
L4120 4711
L4120 4786
L4139 4823
" />
<path d="M4382 4992
L3989 4992
" />
<path d="M4233 5030
L4382 5142
" />
<path d="M4120 5142
L4270 4992
" />
<path d="M4176 5742
L4195 5798
L4214 5817
L4251 5836
L4307 5836
L4345 5817
L4364 5798
L4382 5761
L4382 5611
L3989 5611
L3989 5742
L4008 5779
L4026 5798
L4064 5817
L4101 5817
L4139 5798
L4158 5779
L4176 5742
L4176 5611
" />
<path d="M4382 6004
L4120 6004
" />
<path d="M4195 6004
L4158 6023
L4139 6042
L4120 6079
L4120 6117
" />
<path d="M4364 6398
L4382 6361
L4382 6286
L4364 6248
L4326 6229
L4176 6229
L4139 6248
L4120 6286
L4120 6361
L4139 6398
L4176 6417
L4214 6417
L4251 6229
" />
<path d="M4382 6754
L4176 6754
L4139 6736
L4120 6698
L4120 6623
L4139 6586
" />
<path d="M4364 6754
L4382 6717
L4382 6623
L4364 6586
L4326 6567
L4289 6567
L4251 6586
L4233 6623
L4233 6717
L4214 6754
" />
<path d="M4382 6942
L3989 6942
" />
<path d="M4233 6979
L4382 7092
" />
<path d="M4120 7092
L4270 6942
" />
<path d="M4382 7317
L4364 7279
L4345 7261
L4307 7242
L4195 7242
L4158 7261
L4139 7279
L4120 7317
L4120 7373
L4139 7411
L4158 7429
L4195 7448
L4307 7448
L4345 7429
L4364 7411
L4382 7373
L4382 7317
" />
<path d="M4120 7785
L4382 7785
" />
<path d="M4120 7617
L4326 7617
L4364 7635
L4382 7673
L4382 7729
L4364 7767
L4345 7785
" />
<path d="M4120 7917
L4120 8067
" />
<path d="M3989 7973
L4326 7973
L4364 7992
L4382 8029
L4382 8067
" />
<path d="M5071 2883
L4678 2883
" />
<path d="M4865 2883
L4865 3108
" />
<path d="M5071 3108
L4678 3108
" />
<path d="M5071 3464
L4865 3464
L4828 3445
L4809 3408
L4809 3333
L4828 3295
" />
<path d="M5053 3464
L5071 3427
L5071 3333
L5053 3295
L5015 3277
L4978 3277
L4940 3295
L4921 3333
L4921 3427
L4903 3464
" />
<path d="M4809 3652
L5071 3652
" />
<path d="M4846 3652
L4828 3670
L4809 3708
L4809 3764
L4828 3802
L4865 3820
L5071 3820
" />
<path d="M4809 4008
L5071 4008
" />
<path d="M4846 4008
L4828 4027
L4809 4064
L4809 4120
L4828 4158
L4865 4177
L5071 4177
" />
<path d="M5071 4533
L4865 4533
L4828 4514
L4809 4476
L4809 4402
L4828 4364
" />
<path d="M5053 4533
L5071 4495
L5071 4402
L5053 4364
L5015 4345
L4978 4345
L4940 4364
L4921 4402
L4921 4495
L4903 4533
" />
<path d="M5071 4720
L4678 4720
" />
<path d="M5071 4889
L4865 4889
L4828 4870
L4809 4833
L4809 4776
L4828 4739
L4846 4720
" />
<path d="M4697 5583
L4678 5545
L4678 5489
L4697 5433
L4734 5395
L4771 5376
L4846 5358
L4903 5358
L4978 5376
L5015 5395
L5053 5433
L5071 5489
L5071 5526
L5053 5583
L5034 5601
L4903 5601
L4903 5526
" />
<path d="M5071 5770
L4809 5770
" />
<path d="M4884 5770
L4846 5789
L4828 5808
L4809 5845
L4809 5883
" />
<path d="M5071 6183
L4865 6183
L4828 6164
L4809 6126
L4809 6051
L4828 6014
" />
<path d="M5053 6183
L5071 6145
L5071 6051
L5053 6014
L5015 5995
L4978 5995
L4940 6014
L4921 6051
L4921 6145
L4903 6183
" />
<path d="M5053 6539
L5071 6501
L5071 6426
L5053 6389
L5034 6370
L4996 6351
L4884 6351
L4846 6370
L4828 6389
L4809 6426
L4809 6501
L4828 6539
" />
<path d="M5053 6857
L5071 6820
L5071 6745
L5053 6707
L5015 6689
L4865 6689
L4828 6707
L4809 6745
L4809 6820
L4828 6857
L4865 6876
L4903 6876
L4940 6689
" />
<path d="M4678 7364
L4753 7326
" />
<path d="M5071 7739
L5071 7514
" />
<path d="M5071 7626
L4678 7626
L4734 7589
L4771 7551
L4790 7514
" />
<path d="M5071 7926
L5071 8001
L5053 8039
L5034 8057
L4978 8095
L4903 8114
L4753 8114
L4715 8095
L4697 8076
L4678 8039
L4678 7964
L4697 7926
L4715 7907
L4753 7889
L4846 7889
L4884 7907
L4903 7926
L4921 7964
L4921 8039
L4903 8076
L4884 8095
L4846 8114
" />
</g>
<g style="fill:#840084; fill-opacity:0.0; 
stroke:#840084; stroke-width:49.2126; stroke-opacity:1; 
stroke-linecap:round; stroke-linejoin:round;">
<path d="M1426 1756
L1361 1953
L1295 1756
" />
<path d="M1229 1953
L1229 1756
L1183 1756
L1154 1765
L1136 1784
L1126 1803
L1117 1840
L1117 1869
L1126 1906
L1136 1925
L1154 1944
L1183 1953
L1229 1953
" />
<path d="M1033 1953
L1033 1756
L986 1756
L958 1765
L939 1784
L930 1803
L920 1840
L920 1869
L930 1906
L939 1925
L958 1944
L986 1953
L1033 1953
" />
<path d="M1314 2565
L1333 2556
L1361 2556
L1389 2565
L1408 2584
L1417 2603
L1426 2640
L1426 2669
L1417 2706
L1408 2725
L1389 2744
L1361 2753
L1342 2753
L1314 2744
L1304 2734
L1304 2669
L1342 2669
" />
<path d="M1220 2753
L1220 2556
L1108 2753
L1108 2556
" />
<path d="M1014 2753
L1014 2556
L967 2556
L939 2565
L920 2584
L911 2603
L901 2640
L901 2669
L911 2706
L920 2725
L939 2744
L967 2753
L1014 2753
" />
<path d="M1273 3331
L1273 3472
L1283 3500
L1301 3519
L1329 3528
L1348 3528
" />
<path d="M1179 3528
L1179 3331
" />
<path d="M1179 3425
L1067 3425
" />
<path d="M1067 3528
L1067 3331
" />
<path d="M983 3472
L889 3472
" />
<path d="M1001 3528
L936 3331
L870 3528
" />
<path d="M1254 4131
L1254 4272
L1264 4300
L1283 4319
L1311 4328
L1329 4328
" />
<path d="M1189 4131
L1123 4328
L1058 4131
" />
<path d="M1001 4272
L908 4272
" />
<path d="M1020 4328
L955 4131
L889 4328
" />
<path d="M1378 5194
L1350 5203
L1303 5203
L1284 5194
L1275 5184
L1265 5165
L1265 5147
L1275 5128
L1284 5119
L1303 5109
L1340 5100
L1359 5090
L1369 5081
L1378 5062
L1378 5044
L1369 5025
L1359 5015
L1340 5006
L1294 5006
L1265 5015
" />
<path d="M1069 5184
L1078 5194
L1106 5203
L1125 5203
L1153 5194
L1172 5175
L1181 5156
L1190 5119
L1190 5090
L1181 5053
L1172 5034
L1153 5015
L1125 5006
L1106 5006
L1078 5015
L1069 5025
" />
<path d="M1012 5006
L947 5203
L881 5006
" />
<path d="M1378 5969
L1350 5978
L1303 5978
L1284 5969
L1275 5959
L1265 5940
L1265 5922
L1275 5903
L1284 5894
L1303 5884
L1340 5875
L1359 5865
L1369 5856
L1378 5837
L1378 5819
L1369 5800
L1359 5790
L1340 5781
L1294 5781
L1265 5790
" />
<path d="M1190 5922
L1097 5922
" />
<path d="M1209 5978
L1144 5781
L1078 5978
" />
<path d="M947 5875
L919 5884
L909 5894
L900 5912
L900 5940
L909 5959
L919 5969
L937 5978
L1012 5978
L1012 5781
L947 5781
L928 5790
L919 5800
L909 5819
L909 5837
L919 5856
L928 5865
L947 5875
L1012 5875
" />
<path d="M1417 6769
L1389 6778
L1342 6778
L1323 6769
L1314 6759
L1304 6740
L1304 6722
L1314 6703
L1323 6694
L1342 6684
L1379 6675
L1398 6665
L1408 6656
L1417 6637
L1417 6619
L1408 6600
L1398 6590
L1379 6581
L1333 6581
L1304 6590
" />
<path d="M1154 6675
L1126 6684
L1117 6694
L1108 6712
L1108 6740
L1117 6759
L1126 6769
L1145 6778
L1220 6778
L1220 6581
L1154 6581
L1136 6590
L1126 6600
L1117 6619
L1117 6637
L1126 6656
L1136 6665
L1154 6675
L1220 6675
" />
<path d="M958 6675
L930 6684
L920 6694
L911 6712
L911 6740
L920 6759
L930 6769
L948 6778
L1023 6778
L1023 6581
L958 6581
L939 6590
L930 6600
L920 6619
L920 6637
L930 6656
L939 6665
L958 6675
L1023 6675
" />
</g>
<g style="fill:#840084; fill-opacity:0.0; 
stroke:#840084; stroke-width:59.0551; stroke-opacity:1; 
stroke-linecap:round; stroke-linejoin:round;">
<path d="M7542.39 442.385 A420 420 0.0 0 0 8136.36 1036.36 " />
<path d="M442.385 1036.36 A420 420 0.0 0 0 1036.36 442.385 " />
<path d="M1036.36 8136.36 A420 420 0.0 0 0 442.385 7542.39 " />
<path d="M8136.36 7542.39 A420 420 0.0 0 0 7542.39 8136.36 " />
</g>
<g style="fill:#840084; fill-opacity:1.0; 
stroke:#840084; stroke-width:3.93701; stroke-opacity:1; 
stroke-linecap:round; stroke-linejoin:round;">
<polyline style="fill-rule:evenodd;"
points="3771,2528
3778,2539
3782,2542
3786,2545
3792,2547
3800,2548
3813,2549
3830,2550
3833,2550
3858,2551
3885,2551
3913,2551
3940,2549
3964,2548
3981,2545
3990,2544
3997,2544
3998,2544
3998,2547
3995,2555
3991,2566
3990,2566
3981,2584
3968,2601
3966,2603
3954,2615
3938,2629
3918,2646
3896,2664
3872,2683
3850,2700
3833,2713
3821,2723
3813,2731
3808,2738
3806,2745
3806,2751
3809,2764
3817,2775
3831,2783
3851,2788
3870,2789
3923,2786
3977,2777
4030,2762
4079,2743
4081,2742
4124,2718
4166,2688
4205,2652
4242,2610
4277,2562
4294,2533
4306,2513
4320,2487
4336,2455
4353,2419
4373,2378
4394,2334
4414,2291
4432,2254
4448,2222
4463,2193
4478,2168
4493,2144
4507,2122
4523,2101
4525,2097
4544,2073
4562,2053
4578,2037
4595,2023
4615,2011
4637,1998
4639,1997
4668,1981
4691,1966
4708,1951
4721,1936
4729,1920
4734,1903
4735,1897
4735,1886
4734,1879
4730,1873
4726,1869
4715,1861
4703,1859
4691,1863
4681,1872
4674,1886
4673,1891
4670,1898
4666,1905
4659,1912
4649,1920
4635,1928
4616,1938
4601,1946
4584,1955
4571,1962
4561,1970
4550,1978
4538,1989
4525,2002
4506,2023
4487,2044
4469,2067
4452,2091
4435,2118
4417,2148
4399,2181
4379,2219
4358,2262
4336,2310
4332,2317
4309,2368
4287,2412
4267,2451
4248,2486
4230,2516
4213,2543
4196,2567
4179,2588
4162,2606
4144,2624
4129,2637
4102,2658
4075,2675
4047,2689
4035,2694
4022,2699
4006,2704
3988,2709
3970,2714
3953,2718
3939,2721
3930,2722
3929,2722
3930,2720
3936,2715
3945,2707
3956,2696
3964,2690
3980,2677
3994,2664
4007,2652
4016,2643
4019,2640
4026,2631
4034,2619
4041,2606
4048,2591
4055,2573
4062,2552
4069,2527
4077,2498
4085,2464
4093,2426
4103,2381
4113,2331
4116,2319
4128,2261
4139,2210
4150,2164
4160,2122
4170,2085
4180,2051
4190,2020
4201,1991
4212,1964
4223,1938
4224,1937
4246,1895
4269,1859
4293,1829
4319,1804
4347,1785
4377,1771
4379,1770
4390,1768
4404,1765
4419,1763
4424,1762
4438,1761
4448,1759
4454,1757
4459,1753
4463,1749
4471,1737
4472,1724
4466,1712
4465,1711
4458,1703
4450,1699
4440,1697
4425,1698
4415,1699
4378,1705
4347,1715
4336,1720
4306,1736
4276,1758
4248,1785
4223,1815
4207,1837
4188,1867
4182,1851
4174,1825
4168,1795
4165,1762
4165,1727
4167,1691
4169,1672
4178,1622
4192,1571
4211,1523
4232,1476
4258,1433
4286,1395
4312,1366
4341,1340
4369,1321
4399,1307
4429,1299
4444,1297
4457,1295
4466,1293
4473,1288
4476,1285
4484,1274
4485,1261
4481,1248
4477,1243
4473,1238
4468,1236
4461,1234
4450,1234
4446,1235
4418,1237
4391,1244
4363,1255
4350,1261
4314,1282
4279,1310
4247,1344
4216,1382
4189,1425
4164,1473
4143,1524
4125,1578
4111,1635
4110,1641
4108,1654
4106,1668
4105,1684
4104,1704
4104,1729
4104,1741
4104,1765
4105,1785
4106,1802
4108,1818
4111,1834
4115,1850
4121,1870
4129,1893
4135,1910
4149,1949
4134,1991
4127,2008
4121,2022
4116,2033
4112,2038
4112,2038
4104,2045
4095,2056
4086,2071
4074,2090
4062,2114
4062,2266
4062,2266
4062,2270
4060,2279
4057,2293
4053,2311
4049,2331
4047,2340
4041,2371
4036,2396
4031,2416
4028,2432
4025,2443
4022,2452
4020,2458
4018,2462
4016,2465
4013,2467
4012,2468
3999,2476
3980,2481
3956,2486
3946,2487
3924,2489
3934,2478
3949,2461
3964,2442
3978,2420
3994,2395
4010,2365
4029,2329
4032,2323
4041,2305
4049,2290
4056,2277
4060,2269
4062,2266
4062,2114
4061,2115
4047,2145
4030,2180
4024,2194
4009,2226
3994,2259
3978,2289
3964,2318
3950,2343
3939,2365
3929,2381
3926,2385
3906,2413
3885,2437
3865,2457
3844,2472
3825,2482
3808,2485
3806,2485
3791,2488
3779,2495
3772,2504
3769,2516
3771,2528
" /> 
<polyline style="fill-rule:evenodd;"
points="4620,1311
4626,1320
4628,1321
4632,1325
4637,1328
4643,1329
4653,1329
4663,1328
4682,1326
4703,1321
4725,1314
4750,1303
4779,1290
4800,1279
4819,1270
4833,1263
4843,1258
4852,1256
4859,1254
4867,1254
4869,1254
4880,1254
4889,1257
4898,1262
4904,1266
4917,1275
4928,1278
4939,1277
4945,1274
4956,1265
4961,1253
4960,1240
4957,1232
4950,1224
4939,1214
4926,1205
4911,1198
4901,1194
4885,1190
4869,1189
4853,1190
4835,1195
4814,1203
4790,1214
4774,1222
4745,1237
4720,1248
4699,1257
4681,1262
4665,1266
4655,1268
4638,1271
4627,1277
4621,1286
4619,1299
4620,1311
" /> 
<polyline style="fill-rule:evenodd;"
points="4982,1897
4990,1907
5001,1914
5011,1916
5021,1913
5032,1907
5039,1898
5042,1889
5042,1889
5043,1883
5047,1874
5053,1861
5062,1844
5074,1822
5090,1796
5108,1764
5110,1761
5137,1716
5160,1676
5181,1640
5198,1608
5212,1580
5224,1554
5234,1530
5242,1508
5249,1487
5254,1468
5257,1449
5258,1428
5258,1407
5256,1389
5254,1381
5243,1356
5227,1335
5206,1319
5180,1307
5151,1300
5124,1298
5112,1298
5104,1299
5098,1302
5094,1305
5086,1316
5084,1329
5087,1340
5091,1348
5096,1353
5105,1357
5117,1359
5127,1360
5150,1364
5169,1371
5182,1380
5190,1390
5195,1407
5195,1428
5192,1453
5185,1482
5173,1514
5167,1529
5159,1546
5148,1567
5135,1592
5121,1618
5106,1646
5090,1673
5075,1698
5072,1702
5049,1740
5030,1772
5014,1800
5002,1824
4992,1844
4985,1860
4981,1872
4979,1883
4979,1886
4982,1897
" /> 
</g>
<g style="fill:#000000; fill-opacity:1.0; 
stroke:#000000; stroke-width:3.93701; stroke-opacity:1; 
stroke-linecap:round; stroke-linejoin:round;">
</g>
<g style="fill:#C2C200; fill-opacity:1.0; 
stroke:#C2C200; stroke-width:3.93701; stroke-opacity:1; 
stroke-linecap:round; stroke-linejoin:round;">
</g>
<g style="fill:#C2C200; fill-opacity:1.0; 
stroke:#C2C200; stroke-width:59.0551; stroke-opacity:1; 
stroke-linecap:round; stroke-linejoin:round;">
</g>
<g style="fill:#C2C200; fill-opacity:0.0; 
stroke:#C2C200; stroke-width:59.0551; stroke-opacity:1; 
stroke-linecap:round; stroke-linejoin:round;">
<path d="M8539 739
L8539 7839
" />
<path d="M739 8539
L7839 8539
" />
<path d="M39 7839
L39 764
" />
<path d="M7839.37 8539.37 A700 700 0.0 0 0 8539.37 7839.37 " />
<path d="M39.3705 7839.37 A700 700 0.0 0 0 739.37 8539.37 " />
<path d="M739.37 39.3705 A700 700 0.0 0 0 39.8166 764.359 " />
<path d="M7839 39
L739 39
" />
<path d="M8539.37 739.37 A700 700 0.0 0 0 7839.37 39.3705 " />
</g> 
</svg>
