<?xml version="1.0" standalone="no"?>
 <!DOCTYPE svg PUBLIC "-//W3C//DTD SVG 1.1//EN" 
 "http://www.w3.org/Graphics/SVG/1.1/DTD/svg11.dtd"> 
<svg xmlns="http://www.w3.org/2000/svg" version="1.1" 
    width="2.17678cm" height="2.17678cm" viewBox="0 0 8570 8570 ">
<title>SVG Picture created as WoodElf_03-F.Mask.svg date 2019/06/03 16:19:49 </title>
  <desc>Picture generated by PCBNEW </desc>
<g style="fill:#000000; fill-opacity:1;stroke:#000000; stroke-opacity:1;
stroke-linecap:round; stroke-linejoin:round; "
 transform="translate(0 0) scale(1 1)">
</g>
<g style="fill:#000000; fill-opacity:0.0; 
stroke:#000000; stroke-width:-0.000393701; stroke-opacity:1; 
stroke-linecap:round; stroke-linejoin:round;">
</g>
<g style="fill:#840084; fill-opacity:0.0; 
stroke:#840084; stroke-width:-0.000393701; stroke-opacity:1; 
stroke-linecap:round; stroke-linejoin:round;">
</g>
<g style="fill:#840084; fill-opacity:1.0; 
stroke:#840084; stroke-width:0; stroke-opacity:1; 
stroke-linecap:round; stroke-linejoin:round;">
<polyline style="fill-rule:evenodd;"
points="5967,7741
6035,7769
6096,7810
6148,7862
6189,7923
6217,7991
6232,8064
6232,8138
6217,8210
6189,8278
6148,8339
6096,8392
6035,8432
5967,8461
5894,8475
5820,8475
5748,8461
5680,8432
5619,8392
5567,8339
5526,8278
5497,8210
5483,8138
5483,8064
5497,7991
5526,7923
5567,7862
5619,7810
5680,7769
5748,7741
5820,7726
5894,7726
5967,7741
" /> 
<polyline style="fill-rule:evenodd;"
points="3408,7741
3476,7769
3537,7810
3589,7862
3630,7923
3658,7991
3673,8064
3673,8138
3658,8210
3630,8278
3589,8339
3537,8392
3476,8432
3408,8461
3335,8475
3261,8475
3189,8461
3121,8432
3060,8392
3007,8339
2967,8278
2938,8210
2924,8138
2924,8064
2938,7991
2967,7923
3007,7862
3060,7810
3121,7769
3189,7741
3261,7726
3335,7726
3408,7741
" /> 
<polyline style="fill-rule:evenodd;"
points="837,7517
898,7542
952,7579
999,7625
1036,7680
1061,7741
1074,7806
1074,7872
1061,7937
1036,7998
999,8052
952,8099
898,8136
837,8161
772,8174
706,8174
641,8161
580,8136
525,8099
479,8052
442,7998
417,7937
404,7872
404,7806
417,7741
442,7680
479,7625
525,7579
580,7542
641,7517
706,7504
772,7504
837,7517
" /> 
<polyline style="fill-rule:evenodd;"
points="7937,7517
7998,7542
8052,7579
8099,7625
8136,7680
8161,7741
8174,7806
8174,7872
8161,7937
8136,7998
8099,8052
8052,8099
7998,8136
7937,8161
7872,8174
7806,8174
7741,8161
7680,8136
7625,8099
7579,8052
7542,7998
7517,7937
7504,7872
7504,7806
7517,7741
7542,7680
7579,7625
7625,7579
7680,7542
7741,7517
7806,7504
7872,7504
7937,7517
" /> 
<polyline style="fill-rule:evenodd;"
points="619,6424
669,6445
715,6475
753,6513
783,6558
804,6608
814,6662
814,6716
804,6769
783,6819
753,6865
715,6903
669,6933
619,6954
566,6964
512,6964
458,6954
408,6933
363,6903
325,6865
295,6819
274,6769
263,6716
263,6662
274,6608
295,6558
325,6513
363,6475
408,6445
458,6424
512,6413
566,6413
619,6424
" /> 
<polyline style="fill-rule:evenodd;"
points="5967,5969
6035,5997
6096,6038
6148,6090
6189,6152
6217,6220
6232,6292
6232,6366
6217,6438
6189,6506
6148,6568
6096,6620
6035,6661
5967,6689
5894,6703
5820,6703
5748,6689
5680,6661
5619,6620
5567,6568
5526,6506
5497,6438
5483,6366
5483,6292
5497,6220
5526,6152
5567,6090
5619,6038
5680,5997
5748,5969
5820,5955
5894,5955
5967,5969
" /> 
<polyline style="fill-rule:evenodd;"
points="3408,5969
3476,5997
3537,6038
3589,6090
3630,6152
3658,6220
3673,6292
3673,6366
3658,6438
3630,6506
3589,6568
3537,6620
3476,6661
3408,6689
3335,6703
3261,6703
3189,6689
3121,6661
3060,6620
3007,6568
2967,6506
2938,6438
2924,6366
2924,6292
2938,6220
2967,6152
3007,6090
3060,6038
3121,5997
3189,5969
3261,5955
3335,5955
3408,5969
" /> 
<polyline style="fill-rule:evenodd;"
points="7158,5580
7203,5589
7287,5623
7363,5674
7363,5674
7428,5739
7428,5739
7478,5814
7513,5899
7531,5988
7531,6079
7513,6169
7478,6253
7452,6292
7428,6329
7363,6393
7363,6393
7287,6444
7203,6479
7158,6488
7114,6497
7022,6497
6978,6488
6933,6479
6849,6444
6773,6393
6773,6393
6708,6329
6684,6292
6658,6253
6623,6169
6605,6079
6605,5988
6623,5899
6658,5814
6708,5739
6708,5739
6773,5674
6773,5674
6849,5623
6933,5589
6978,5580
7022,5571
7114,5571
7158,5580
" /> 
<polyline style="fill-rule:evenodd;"
points="2178,5580
2223,5589
2307,5623
2382,5674
2383,5674
2447,5739
2447,5739
2498,5814
2533,5899
2551,5988
2551,6079
2533,6169
2498,6253
2472,6292
2447,6329
2383,6393
2383,6393
2307,6444
2223,6479
2178,6488
2133,6497
2042,6497
1997,6488
1953,6479
1868,6444
1793,6393
1793,6393
1728,6329
1704,6292
1677,6253
1642,6169
1625,6079
1625,5988
1642,5899
1677,5814
1728,5739
1728,5739
1793,5674
1793,5674
1868,5623
1953,5589
1997,5580
2042,5571
2133,5571
2178,5580
" /> 
<polyline style="fill-rule:evenodd;"
points="619,5624
669,5645
714,5674
715,5675
753,5713
783,5758
804,5808
814,5862
814,5916
804,5969
783,6019
753,6065
715,6103
669,6133
619,6154
566,6164
512,6164
458,6154
408,6133
363,6103
325,6065
295,6019
274,5969
263,5916
263,5862
274,5808
295,5758
325,5713
363,5675
364,5674
408,5645
458,5624
512,5613
566,5613
619,5624
" /> 
<polyline style="fill-rule:evenodd;"
points="8124,4689
8192,4718
8254,4759
8306,4811
8347,4872
8375,4940
8389,5013
8389,5086
8375,5159
8347,5227
8306,5288
8254,5340
8192,5381
8124,5410
8052,5424
7978,5424
7906,5410
7838,5381
7776,5340
7724,5288
7683,5227
7655,5159
7640,5086
7640,5013
7655,4940
7683,4872
7724,4811
7776,4759
7838,4718
7906,4689
7978,4675
8052,4675
8124,4689
" /> 
<polyline style="fill-rule:evenodd;"
points="619,4824
669,4845
711,4872
715,4875
753,4913
783,4958
804,5008
814,5062
814,5116
804,5169
783,5219
778,5227
753,5265
715,5303
669,5333
619,5354
566,5364
512,5364
458,5354
408,5333
363,5303
325,5265
300,5227
295,5219
274,5169
263,5116
263,5062
274,5008
295,4958
325,4913
363,4875
367,4872
408,4845
458,4824
512,4813
566,4813
619,4824
" /> 
<polyline style="fill-rule:evenodd;"
points="2957,3577
3029,3592
3118,3629
3199,3682
3199,3683
3267,3751
3267,3751
3321,3832
3359,3922
3377,4017
3377,4114
3359,4209
3321,4299
3308,4319
3267,4379
3199,4448
3199,4448
3118,4502
3029,4539
2957,4553
2933,4558
2836,4558
2813,4553
2741,4539
2652,4502
2571,4448
2571,4448
2502,4379
2462,4319
2448,4299
2411,4209
2392,4114
2392,4017
2411,3922
2448,3832
2502,3751
2502,3751
2571,3683
2571,3682
2652,3629
2741,3592
2813,3577
2836,3573
2933,3573
2957,3577
" /> 
<polyline style="fill-rule:evenodd;"
points="6343,3577
6414,3592
6504,3629
6584,3682
6585,3683
6653,3751
6653,3751
6707,3832
6744,3922
6763,4017
6763,4114
6744,4209
6707,4299
6693,4319
6653,4379
6585,4448
6585,4448
6504,4502
6414,4539
6343,4553
6319,4558
6222,4558
6198,4553
6127,4539
6037,4502
5957,4448
5957,4448
5888,4379
5848,4319
5834,4299
5797,4209
5778,4114
5778,4017
5797,3922
5834,3832
5888,3751
5888,3751
5957,3683
5957,3682
6037,3629
6127,3592
6198,3577
6222,3573
6319,3573
6343,3577
" /> 
<polyline style="fill-rule:evenodd;"
points="619,3974
669,3995
702,4017
715,4025
753,4063
783,4108
804,4158
814,4212
814,4266
804,4319
789,4356
783,4369
765,4397
753,4415
715,4453
669,4483
619,4504
566,4514
512,4514
458,4504
408,4483
363,4453
325,4415
313,4397
295,4369
289,4356
274,4319
263,4266
263,4212
274,4158
295,4108
325,4063
363,4025
375,4017
408,3995
458,3974
512,3963
566,3963
619,3974
" /> 
<polyline style="fill-rule:evenodd;"
points="8124,3705
8192,3733
8254,3774
8306,3827
8347,3888
8375,3956
8389,4028
8389,4102
8375,4174
8347,4243
8306,4304
8254,4356
8192,4397
8124,4425
8052,4440
7978,4440
7906,4425
7838,4397
7776,4356
7724,4304
7683,4243
7655,4174
7640,4102
7640,4028
7655,3956
7683,3888
7724,3827
7776,3774
7838,3733
7906,3705
7978,3691
8052,3691
8124,3705
" /> 
<polyline style="fill-rule:evenodd;"
points="619,3174
669,3195
715,3225
753,3263
783,3308
804,3358
814,3412
814,3466
804,3519
783,3569
753,3615
715,3653
669,3683
619,3704
566,3714
512,3714
458,3704
408,3683
363,3653
325,3615
295,3569
274,3519
263,3466
263,3412
274,3358
295,3308
325,3263
363,3225
408,3195
458,3174
512,3163
566,3163
619,3174
" /> 
<polyline style="fill-rule:evenodd;"
points="8124,2721
8192,2749
8254,2790
8306,2842
8347,2904
8375,2972
8389,3044
8389,3118
8375,3190
8347,3258
8306,3320
8254,3372
8192,3413
8124,3441
8052,3455
7978,3455
7906,3441
7838,3413
7776,3372
7724,3320
7683,3258
7655,3190
7640,3118
7640,3044
7655,2972
7683,2904
7724,2842
7776,2790
7838,2749
7906,2721
7978,2707
8052,2707
8124,2721
" /> 
<polyline style="fill-rule:evenodd;"
points="619,2374
669,2395
715,2425
753,2463
783,2508
804,2558
814,2612
814,2666
804,2719
791,2749
783,2769
769,2790
753,2815
715,2853
669,2883
619,2904
566,2914
512,2914
458,2904
408,2883
363,2853
325,2815
309,2790
295,2769
286,2749
274,2719
263,2666
263,2612
274,2558
295,2508
325,2463
363,2425
408,2395
458,2374
512,2363
566,2363
619,2374
" /> 
<polyline style="fill-rule:evenodd;"
points="2178,1643
2223,1652
2307,1686
2382,1737
2383,1737
2447,1802
2447,1802
2498,1877
2533,1962
2551,2051
2551,2142
2533,2232
2498,2316
2466,2363
2447,2392
2383,2456
2383,2456
2307,2507
2223,2542
2178,2551
2133,2560
2042,2560
1997,2551
1953,2542
1868,2507
1793,2456
1793,2456
1728,2392
1709,2363
1677,2316
1642,2232
1625,2142
1625,2051
1642,1962
1677,1877
1728,1802
1728,1802
1793,1737
1793,1737
1868,1686
1953,1652
1997,1643
2042,1634
2133,1634
2178,1643
" /> 
<polyline style="fill-rule:evenodd;"
points="7158,1643
7203,1652
7287,1686
7363,1737
7363,1737
7428,1802
7428,1802
7478,1877
7513,1962
7531,2051
7531,2142
7513,2232
7478,2316
7447,2363
7428,2392
7363,2456
7363,2456
7287,2507
7203,2542
7158,2551
7114,2560
7022,2560
6978,2551
6933,2542
6849,2507
6773,2456
6773,2456
6708,2392
6689,2363
6658,2316
6623,2232
6605,2142
6605,2051
6623,1962
6658,1877
6708,1802
6708,1802
6773,1737
6773,1737
6849,1686
6933,1652
6978,1643
7022,1634
7114,1634
7158,1643
" /> 
<polyline style="fill-rule:evenodd;"
points="619,1574
669,1595
715,1625
753,1663
783,1708
804,1758
814,1812
814,1866
804,1919
783,1969
753,2015
715,2053
669,2083
619,2104
566,2114
512,2114
458,2104
408,2083
363,2053
325,2015
295,1969
274,1919
263,1866
263,1812
274,1758
295,1708
325,1663
363,1625
408,1595
458,1574
512,1563
566,1563
619,1574
" /> 
<polyline style="fill-rule:evenodd;"
points="7937,417
7998,442
8052,479
8099,525
8136,580
8161,641
8174,706
8174,772
8161,837
8136,898
8099,952
8052,999
7998,1036
7937,1061
7872,1074
7806,1074
7741,1061
7680,1036
7625,999
7579,952
7542,898
7517,837
7504,772
7504,706
7517,641
7542,580
7579,525
7625,479
7680,442
7741,417
7806,404
7872,404
7937,417
" /> 
<polyline style="fill-rule:evenodd;"
points="837,417
898,442
952,479
999,525
1036,580
1061,641
1074,706
1074,772
1061,837
1036,898
999,952
952,999
898,1036
837,1061
772,1074
706,1074
641,1061
580,1036
525,999
479,952
442,898
417,837
404,772
404,706
417,641
442,580
479,525
525,479
580,442
641,417
706,404
772,404
837,417
" /> 
<polyline style="fill-rule:evenodd;"
points="3703,268
3771,296
3832,337
3884,390
3925,451
3954,519
3968,591
3968,665
3954,737
3925,806
3884,867
3832,919
3771,960
3703,988
3630,1003
3557,1003
3484,988
3416,960
3355,919
3303,867
3262,806
3234,737
3219,665
3219,591
3234,519
3262,451
3303,390
3355,337
3416,296
3484,268
3557,254
3630,254
3703,268
" /> 
<polyline style="fill-rule:evenodd;"
points="4687,268
4755,296
4817,337
4869,390
4910,451
4938,519
4952,591
4952,665
4938,737
4910,806
4869,867
4817,919
4755,960
4687,988
4615,1003
4541,1003
4469,988
4400,960
4339,919
4287,867
4246,806
4218,737
4203,665
4203,591
4218,519
4246,451
4287,390
4339,337
4400,296
4469,268
4541,254
4615,254
4687,268
" /> 
<polyline style="fill-rule:evenodd;"
points="5671,268
5739,296
5801,337
5853,390
5894,451
5922,519
5937,591
5937,665
5922,737
5894,806
5853,867
5801,919
5739,960
5671,988
5599,1003
5525,1003
5453,988
5385,960
5323,919
5271,867
5230,806
5202,737
5188,665
5188,591
5202,519
5230,451
5271,390
5323,337
5385,296
5453,268
5525,254
5599,254
5671,268
" /> 
</g>
<g style="fill:#000000; fill-opacity:1.0; 
stroke:#000000; stroke-width:0; stroke-opacity:1; 
stroke-linecap:round; stroke-linejoin:round;">
</g>
<g style="fill:#C2C200; fill-opacity:1.0; 
stroke:#C2C200; stroke-width:0; stroke-opacity:1; 
stroke-linecap:round; stroke-linejoin:round;">
</g>
<g style="fill:#C2C200; fill-opacity:1.0; 
stroke:#C2C200; stroke-width:59.0551; stroke-opacity:1; 
stroke-linecap:round; stroke-linejoin:round;">
</g>
<g style="fill:#C2C200; fill-opacity:0.0; 
stroke:#C2C200; stroke-width:59.0551; stroke-opacity:1; 
stroke-linecap:round; stroke-linejoin:round;">
<path d="M8539 739
L8539 7839
" />
<path d="M739 8539
L7839 8539
" />
<path d="M39 7839
L39 764
" />
<path d="M7839.37 8539.37 A700 700 0.0 0 0 8539.37 7839.37 " />
<path d="M39.3705 7839.37 A700 700 0.0 0 0 739.37 8539.37 " />
<path d="M739.37 39.3705 A700 700 0.0 0 0 39.8166 764.359 " />
<path d="M7839 39
L739 39
" />
<path d="M8539.37 739.37 A700 700 0.0 0 0 7839.37 39.3705 " />
</g> 
</svg>
