<?xml version="1.0" standalone="no"?>
 <!DOCTYPE svg PUBLIC "-//W3C//DTD SVG 1.1//EN" 
 "http://www.w3.org/Graphics/SVG/1.1/DTD/svg11.dtd"> 
<svg xmlns="http://www.w3.org/2000/svg" version="1.1" 
    width="2.68986cm" height="2.1336cm" viewBox="0 0 10590 8400 ">
<title>SVG Picture created as WoodElf_03-F.SilkS.svg date 2019/06/15 22:28:23 </title>
  <desc>Picture generated by PCBNEW </desc>
<g style="fill:#000000; fill-opacity:1;stroke:#000000; stroke-opacity:1;
stroke-linecap:round; stroke-linejoin:round; "
 transform="translate(0 0) scale(1 1)">
</g>
<g style="fill:#000000; fill-opacity:0.0; 
stroke:#000000; stroke-width:-0.000393701; stroke-opacity:1; 
stroke-linecap:round; stroke-linejoin:round;">
</g>
<g style="fill:#008484; fill-opacity:0.0; 
stroke:#008484; stroke-width:-0.000393701; stroke-opacity:1; 
stroke-linecap:round; stroke-linejoin:round;">
</g>
<g style="fill:#008484; fill-opacity:0.0; 
stroke:#008484; stroke-width:98.4252; stroke-opacity:1; 
stroke-linecap:round; stroke-linejoin:round;">
<path d="M1285 1793
L1004 1793
L948 1774
L910 1737
L891 1681
L891 1643
" />
<path d="M891 2037
L910 1999
L929 1981
L966 1962
L1079 1962
L1116 1981
L1135 1999
L1154 2037
L1154 2093
L1135 2131
L1116 2149
L1079 2168
L966 2168
L929 2149
L910 2131
L891 2093
L891 2037
" />
<path d="M1154 2299
L891 2393
" />
<path d="M1154 2487
L891 2393
L798 2356
L779 2337
L760 2299
" />
<path d="M910 2618
L891 2656
L891 2731
L910 2768
L948 2787
L966 2787
L1004 2768
L1023 2731
L1023 2674
L1041 2637
L1079 2618
L1098 2618
L1135 2637
L1154 2674
L1154 2731
L1135 2768
" />
<path d="M1154 2899
L1154 3049
" />
<path d="M1285 2956
L948 2956
L910 2974
L891 3012
L891 3049
" />
<path d="M891 3181
L1154 3181
" />
<path d="M1285 3181
L1266 3162
L1247 3181
L1266 3199
L1285 3181
L1247 3181
" />
<path d="M910 3537
L891 3499
L891 3424
L910 3387
L929 3368
L966 3349
L1079 3349
L1116 3368
L1135 3387
L1154 3424
L1154 3499
L1135 3537
" />
<path d="M891 3705
L1285 3705
" />
<path d="M1041 3743
L891 3855
" />
<path d="M1154 3855
L1004 3705
" />
<path d="M1098 4455
L1079 4512
L1060 4530
L1023 4549
L966 4549
L929 4530
L910 4512
L891 4474
L891 4324
L1285 4324
L1285 4455
L1266 4493
L1247 4512
L1210 4530
L1172 4530
L1135 4512
L1116 4493
L1098 4455
L1098 4324
" />
<path d="M891 4718
L1154 4718
" />
<path d="M1079 4718
L1116 4737
L1135 4755
L1154 4793
L1154 4830
" />
<path d="M910 5112
L891 5074
L891 4999
L910 4962
L948 4943
L1098 4943
L1135 4962
L1154 4999
L1154 5074
L1135 5112
L1098 5130
L1060 5130
L1023 4943
" />
<path d="M891 5468
L1098 5468
L1135 5449
L1154 5411
L1154 5336
L1135 5299
" />
<path d="M910 5468
L891 5430
L891 5336
L910 5299
L948 5280
L985 5280
L1023 5299
L1041 5336
L1041 5430
L1060 5468
" />
<path d="M891 5655
L1285 5655
" />
<path d="M1041 5693
L891 5805
" />
<path d="M1154 5805
L1004 5655
" />
<path d="M891 6030
L910 5993
L929 5974
L966 5955
L1079 5955
L1116 5974
L1135 5993
L1154 6030
L1154 6086
L1135 6124
L1116 6143
L1079 6161
L966 6161
L929 6143
L910 6124
L891 6086
L891 6030
" />
<path d="M1154 6499
L891 6499
" />
<path d="M1154 6330
L948 6330
L910 6349
L891 6386
L891 6443
L910 6480
L929 6499
" />
<path d="M1154 6630
L1154 6780
" />
<path d="M1285 6686
L948 6686
L910 6705
L891 6743
L891 6780
" />
<path d="M202 1596
L596 1596
" />
<path d="M409 1596
L409 1821
" />
<path d="M202 1821
L596 1821
" />
<path d="M202 2178
L409 2178
L446 2159
L465 2121
L465 2046
L446 2009
" />
<path d="M221 2178
L202 2140
L202 2046
L221 2009
L259 1990
L296 1990
L334 2009
L352 2046
L352 2140
L371 2178
" />
<path d="M465 2365
L202 2365
" />
<path d="M427 2365
L446 2384
L465 2421
L465 2477
L446 2515
L409 2534
L202 2534
" />
<path d="M465 2721
L202 2721
" />
<path d="M427 2721
L446 2740
L465 2777
L465 2834
L446 2871
L409 2890
L202 2890
" />
<path d="M202 3246
L409 3246
L446 3227
L465 3190
L465 3115
L446 3077
" />
<path d="M221 3246
L202 3209
L202 3115
L221 3077
L259 3059
L296 3059
L334 3077
L352 3115
L352 3209
L371 3246
" />
<path d="M202 3434
L596 3434
" />
<path d="M202 3602
L409 3602
L446 3584
L465 3546
L465 3490
L446 3452
L427 3434
" />
<path d="M577 4296
L596 4258
L596 4202
L577 4146
L540 4109
L502 4090
L427 4071
L371 4071
L296 4090
L259 4109
L221 4146
L202 4202
L202 4240
L221 4296
L240 4315
L371 4315
L371 4240
" />
<path d="M202 4483
L465 4483
" />
<path d="M390 4483
L427 4502
L446 4521
L465 4558
L465 4596
" />
<path d="M202 4896
L409 4896
L446 4877
L465 4840
L465 4765
L446 4727
" />
<path d="M221 4896
L202 4858
L202 4765
L221 4727
L259 4708
L296 4708
L334 4727
L352 4765
L352 4858
L371 4896
" />
<path d="M221 5252
L202 5215
L202 5140
L221 5102
L240 5083
L277 5065
L390 5065
L427 5083
L446 5102
L465 5140
L465 5215
L446 5252
" />
<path d="M221 5571
L202 5533
L202 5458
L221 5421
L259 5402
L409 5402
L446 5421
L465 5458
L465 5533
L446 5571
L409 5590
L371 5590
L334 5402
" />
<path d="M596 6077
L521 6040
" />
<path d="M202 6452
L202 6227
" />
<path d="M202 6339
L596 6339
L540 6302
L502 6264
L484 6227
" />
<path d="M202 6639
L202 6714
L221 6752
L240 6771
L296 6808
L371 6827
L521 6827
L559 6808
L577 6789
L596 6752
L596 6677
L577 6639
L559 6621
L521 6602
L427 6602
L390 6621
L371 6639
L352 6677
L352 6752
L371 6789
L390 6808
L427 6827
" />
</g>
<g style="fill:#008484; fill-opacity:0.0; 
stroke:#008484; stroke-width:49.2126; stroke-opacity:1; 
stroke-linecap:round; stroke-linejoin:round;">
<path d="M2431 7480
L2497 7677
L2562 7480
" />
<path d="M2628 7677
L2628 7480
L2675 7480
L2703 7490
L2722 7508
L2731 7527
L2740 7565
L2740 7593
L2731 7630
L2722 7649
L2703 7668
L2675 7677
L2628 7677
" />
<path d="M2825 7677
L2825 7480
L2872 7480
L2900 7490
L2918 7508
L2928 7527
L2937 7565
L2937 7593
L2928 7630
L2918 7649
L2900 7668
L2872 7677
L2825 7677
" />
<path d="M4118 7490
L4099 7480
L4071 7480
L4043 7490
L4024 7508
L4015 7527
L4006 7565
L4006 7593
L4015 7630
L4024 7649
L4043 7668
L4071 7677
L4090 7677
L4118 7668
L4128 7658
L4128 7593
L4090 7593
" />
<path d="M4212 7677
L4212 7480
L4324 7677
L4324 7480
" />
<path d="M4418 7677
L4418 7480
L4465 7480
L4493 7490
L4512 7508
L4521 7527
L4531 7565
L4531 7593
L4521 7630
L4512 7649
L4493 7668
L4465 7677
L4418 7677
" />
<path d="M4896 7470
L4896 7611
L4887 7639
L4868 7658
L4840 7667
L4821 7667
" />
<path d="M4990 7667
L4990 7470
" />
<path d="M4990 7564
L5102 7564
" />
<path d="M5102 7667
L5102 7470
" />
<path d="M5187 7611
L5281 7611
" />
<path d="M5168 7667
L5234 7470
L5299 7667
" />
<path d="M3303 7480
L3303 7621
L3293 7649
L3275 7668
L3247 7677
L3228 7677
" />
<path d="M3368 7480
L3434 7677
L3500 7480
" />
<path d="M3556 7621
L3650 7621
" />
<path d="M3537 7677
L3603 7480
L3668 7677
" />
<path d="M5604 7668
L5632 7677
L5679 7677
L5698 7668
L5707 7658
L5716 7640
L5716 7621
L5707 7602
L5698 7593
L5679 7583
L5641 7574
L5623 7565
L5613 7555
L5604 7537
L5604 7518
L5613 7499
L5623 7490
L5641 7480
L5688 7480
L5716 7490
" />
<path d="M5913 7658
L5904 7668
L5876 7677
L5857 7677
L5829 7668
L5810 7649
L5801 7630
L5791 7593
L5791 7565
L5801 7527
L5810 7508
L5829 7490
L5857 7480
L5876 7480
L5904 7490
L5913 7499
" />
<path d="M5970 7480
L6035 7677
L6101 7480
" />
<path d="M6391 7668
L6419 7677
L6466 7677
L6485 7668
L6494 7658
L6504 7640
L6504 7621
L6494 7602
L6485 7593
L6466 7583
L6429 7574
L6410 7565
L6401 7555
L6391 7537
L6391 7518
L6401 7499
L6410 7490
L6429 7480
L6476 7480
L6504 7490
" />
<path d="M6579 7621
L6673 7621
" />
<path d="M6560 7677
L6626 7480
L6691 7677
" />
<path d="M6823 7574
L6851 7583
L6860 7593
L6869 7612
L6869 7640
L6860 7658
L6851 7668
L6832 7677
L6757 7677
L6757 7480
L6823 7480
L6841 7490
L6851 7499
L6860 7518
L6860 7537
L6851 7555
L6841 7565
L6823 7574
L6757 7574
" />
<path d="M7165 7668
L7193 7677
L7240 7677
L7258 7668
L7268 7658
L7277 7640
L7277 7621
L7268 7602
L7258 7593
L7240 7583
L7202 7574
L7183 7565
L7174 7555
L7165 7537
L7165 7518
L7174 7499
L7183 7490
L7202 7480
L7249 7480
L7277 7490
" />
<path d="M7427 7574
L7455 7583
L7465 7593
L7474 7612
L7474 7640
L7465 7658
L7455 7668
L7437 7677
L7362 7677
L7362 7480
L7427 7480
L7446 7490
L7455 7499
L7465 7518
L7465 7537
L7455 7555
L7446 7565
L7427 7574
L7362 7574
" />
<path d="M7624 7574
L7652 7583
L7662 7593
L7671 7612
L7671 7640
L7662 7658
L7652 7668
L7633 7677
L7558 7677
L7558 7480
L7624 7480
L7643 7490
L7652 7499
L7662 7518
L7662 7537
L7652 7555
L7643 7565
L7624 7574
L7558 7574
" />
</g>
<g style="fill:#008484; fill-opacity:1.0; 
stroke:#008484; stroke-width:3.93701; stroke-opacity:1; 
stroke-linecap:round; stroke-linejoin:round;">
<polyline style="fill-rule:evenodd;"
points="1700,928
1687,929
1675,926
1667,921
1661,911
1658,900
1659,888
1663,880
1663,880
1667,875
1671,865
1675,852
1681,833
1688,810
1695,780
1704,745
1705,741
1718,690
1730,645
1741,606
1751,571
1761,541
1771,514
1781,490
1791,469
1801,449
1811,432
1823,416
1836,401
1851,386
1865,375
1873,370
1898,361
1924,357
1950,361
1977,370
2003,386
2023,403
2032,412
2037,419
2039,425
2039,430
2037,444
2030,454
2020,460
2011,463
2003,462
1995,459
1985,452
1977,446
1958,432
1940,424
1924,420
1912,422
1896,431
1881,445
1865,466
1850,491
1836,521
1829,537
1823,554
1816,577
1807,603
1799,632
1790,663
1782,693
1775,722
1774,726
1763,769
1754,806
1745,837
1738,862
1731,883
1724,899
1718,911
1712,920
1710,922
1700,928
" /> 
<polyline style="fill-rule:evenodd;"
points="2370,769
2360,771
2358,771
2352,771
2347,769
2341,765
2334,758
2328,751
2316,736
2305,718
2294,697
2284,672
2273,642
2266,620
2259,600
2254,585
2250,574
2246,566
2241,560
2236,555
2235,553
2226,545
2219,541
2209,538
2201,537
2186,534
2176,529
2169,520
2167,513
2165,500
2170,488
2180,478
2188,475
2198,474
2213,475
2229,479
2244,483
2255,488
2269,497
2280,507
2291,519
2300,535
2309,555
2319,581
2324,598
2335,629
2344,654
2353,675
2362,692
2370,706
2376,714
2386,728
2390,740
2387,751
2380,762
2370,769
" /> 
<polyline style="fill-rule:evenodd;"
points="2111,2230
2098,2233
2092,2233
2087,2231
2082,2229
2075,2224
2066,2216
2053,2204
2050,2202
2032,2185
2013,2166
1994,2146
1976,2126
1960,2108
1950,2094
1944,2087
1939,2082
1938,2081
1936,2084
1933,2091
1928,2101
1928,2102
1922,2122
1919,2142
1919,2146
1919,2162
1920,2184
1923,2209
1926,2238
1929,2268
1933,2296
1936,2317
1937,2333
1937,2344
1935,2352
1932,2359
1928,2363
1916,2371
1902,2373
1887,2368
1870,2357
1856,2345
1820,2305
1788,2260
1761,2213
1740,2164
1740,2163
1726,2115
1718,2065
1715,2011
1719,1955
1729,1897
1737,1864
1743,1841
1751,1813
1762,1780
1776,1741
1791,1699
1807,1653
1823,1609
1836,1570
1848,1535
1857,1504
1865,1476
1871,1449
1876,1423
1881,1397
1881,1392
1885,1362
1887,1336
1887,1312
1884,1290
1880,1268
1872,1243
1872,1241
1863,1210
1857,1183
1856,1160
1857,1140
1863,1123
1872,1107
1875,1103
1882,1095
1888,1090
1895,1089
1901,1089
1914,1092
1924,1099
1930,1110
1930,1123
1926,1138
1923,1142
1920,1149
1918,1157
1918,1167
1920,1179
1923,1195
1930,1216
1935,1232
1940,1250
1944,1264
1947,1277
1948,1290
1948,1307
1948,1325
1948,1354
1946,1382
1942,1410
1938,1440
1931,1471
1922,1504
1911,1541
1898,1582
1883,1627
1865,1677
1862,1684
1843,1737
1827,1783
1814,1825
1803,1863
1794,1897
1787,1928
1782,1957
1779,1984
1778,2009
1779,2034
1780,2054
1784,2088
1791,2119
1801,2149
1806,2161
1812,2174
1820,2189
1829,2205
1838,2221
1847,2236
1855,2248
1860,2255
1861,2256
1862,2254
1862,2246
1861,2234
1860,2218
1859,2208
1858,2188
1856,2168
1856,2151
1856,2138
1856,2135
1857,2122
1860,2109
1864,2095
1870,2079
1877,2061
1888,2042
1900,2019
1915,1993
1933,1964
1955,1930
1979,1892
2007,1849
2014,1839
2046,1789
2075,1745
2100,1705
2122,1668
2141,1635
2158,1604
2173,1575
2186,1547
2197,1520
2207,1493
2208,1492
2222,1447
2232,1405
2236,1367
2235,1331
2228,1298
2217,1267
2216,1264
2210,1255
2202,1243
2193,1231
2190,1227
2181,1216
2175,1208
2172,1202
2171,1196
2172,1190
2175,1176
2183,1167
2196,1162
2197,1162
2207,1161
2216,1164
2225,1170
2235,1181
2241,1189
2262,1219
2278,1248
2282,1259
2292,1292
2297,1329
2298,1368
2295,1407
2290,1433
2283,1468
2299,1461
2322,1449
2347,1431
2373,1410
2398,1385
2422,1359
2434,1344
2463,1301
2489,1256
2510,1209
2527,1160
2540,1112
2547,1065
2549,1026
2547,987
2541,954
2529,923
2514,896
2505,884
2497,874
2492,865
2490,857
2490,853
2493,839
2501,829
2514,823
2519,822
2526,822
2531,824
2537,828
2545,836
2548,838
2565,860
2580,884
2592,911
2597,924
2607,966
2612,1010
2611,1056
2605,1105
2594,1155
2578,1206
2557,1257
2532,1308
2501,1359
2498,1363
2490,1374
2482,1385
2471,1398
2457,1412
2439,1430
2431,1438
2414,1455
2399,1469
2386,1480
2374,1490
2361,1499
2346,1508
2328,1517
2306,1528
2290,1536
2252,1554
2233,1594
2226,1611
2220,1625
2217,1636
2215,1642
2215,1643
2216,1653
2215,1667
2211,1685
2205,1706
2197,1731
2089,1839
2089,1839
2087,1842
2082,1850
2074,1862
2064,1877
2053,1894
2048,1902
2031,1928
2016,1950
2005,1967
1997,1981
1991,1991
1986,1999
1984,2004
1982,2009
1982,2013
1982,2016
1982,2018
1986,2032
1995,2049
2009,2069
2016,2078
2029,2094
2030,2079
2031,2057
2035,2033
2040,2008
2047,1979
2056,1945
2068,1907
2070,1900
2077,1881
2082,1865
2086,1852
2089,1843
2089,1839
2197,1731
2197,1733
2186,1764
2173,1801
2168,1815
2155,1849
2143,1882
2132,1915
2122,1945
2114,1973
2107,1996
2102,2015
2101,2019
2096,2053
2093,2085
2094,2114
2098,2139
2105,2159
2114,2174
2115,2175
2124,2188
2128,2201
2126,2213
2121,2223
2111,2230
" /> 
</g>
<g style="fill:#008484; fill-opacity:0.0; 
stroke:#008484; stroke-width:78.7402; stroke-opacity:1; 
stroke-linecap:round; stroke-linejoin:round;">
<circle cx="8086.66" cy="6148.3" r="47.0079" /> 
<path d="M7920 5898
L7920 6794
" />
<path d="M6796 351
L6796 1617
" />
<path d="M3866 351
L6796 351
" />
<path d="M3866 1617
L3866 351
" />
<path d="M6118 7355
L6118 6794
" />
<path d="M4544 7355
L6118 7355
" />
<path d="M4544 6794
L4544 7355
" />
<path d="M1394 5670
L2742 5670
" />
<path d="M1394 2740
L1394 5670
" />
<path d="M2742 2740
L1394 2740
" />
<path d="M2742 6794
L2742 1617
" />
<path d="M7920 2512
L7920 1617
" />
<path d="M9772 2512
L7920 2512
" />
<path d="M9772 5898
L9772 2512
" />
<path d="M7920 5898
L9772 5898
" />
</g>
<g style="fill:#000000; fill-opacity:0.0; 
stroke:#000000; stroke-width:78.7402; stroke-opacity:1; 
stroke-linecap:round; stroke-linejoin:round;">
</g>
<g style="fill:#C2C200; fill-opacity:0.0; 
stroke:#C2C200; stroke-width:78.7402; stroke-opacity:1; 
stroke-linecap:round; stroke-linejoin:round;">
</g>
<g style="fill:#C2C200; fill-opacity:0.0; 
stroke:#C2C200; stroke-width:59.0551; stroke-opacity:1; 
stroke-linecap:round; stroke-linejoin:round;">
<path d="M10567 659
L10567 7746
" />
<path d="M10567.9 659.449 A629.921 629.921 0.0 0 0 9937.99 29.528 " />
<path d="M9937.99 8375.98 A629.921 629.921 0.0 0 0 10567.9 7746.06 " />
<path d="M725.394 29.528 A629.921 629.921 0.0 0 0 95.4724 659.449 " />
<path d="M95 7746
L95 659
" />
<path d="M9937 8375
L725 8375
" />
<path d="M9937 29
L725 29
" />
<path d="M95.4724 7746.06 A629.921 629.921 0.0 0 0 725.394 8375.98 " />
</g> 
</svg>
