<?xml version="1.0" standalone="no"?>
 <!DOCTYPE svg PUBLIC "-//W3C//DTD SVG 1.1//EN" 
 "http://www.w3.org/Graphics/SVG/1.1/DTD/svg11.dtd"> 
<svg xmlns="http://www.w3.org/2000/svg" version="1.1" 
    width="2.17678cm" height="2.17678cm" viewBox="0 0 8570 8570 ">
<title>SVG Picture created as WoodElf_03-F.Fab.svg date 2019/06/03 16:19:49 </title>
  <desc>Picture generated by PCBNEW </desc>
<g style="fill:#000000; fill-opacity:1;stroke:#000000; stroke-opacity:1;
stroke-linecap:round; stroke-linejoin:round; "
 transform="translate(0 0) scale(1 1)">
</g>
<g style="fill:#000000; fill-opacity:0.0; 
stroke:#000000; stroke-width:-0.000393701; stroke-opacity:1; 
stroke-linecap:round; stroke-linejoin:round;">
</g>
<g style="fill:#848484; fill-opacity:0.0; 
stroke:#848484; stroke-width:-0.000393701; stroke-opacity:1; 
stroke-linecap:round; stroke-linejoin:round;">
</g>
<g style="fill:#848484; fill-opacity:0.0; 
stroke:#848484; stroke-width:78.7402; stroke-opacity:1; 
stroke-linecap:round; stroke-linejoin:round;">
<circle cx="3189.37" cy="5439.37" r="511.811" /> 
<circle cx="5964.37" cy="5439.37" r="511.811" /> 
<circle cx="5964.37" cy="2689.37" r="511.811" /> 
<circle cx="3189.37" cy="2689.37" r="511.811" /> 
<path d="M4989 6689
L4989 4714
" />
<circle cx="4564.37" cy="7214.37" r="688.976" /> 
<circle cx="4564.37" cy="4064.37" r="787.402" /> 
<path d="M4139 4689
L4114 6714
" />
<path d="M1989 1477
L7166 1477
" />
<path d="M7166 1477
L7166 6654
" />
<path d="M7166 6654
L1989 6654
" />
<path d="M1989 6654
L1989 1477
" />
<path d="M7166 2600
L8432 2600
" />
<path d="M8432 2600
L8432 5530
" />
<path d="M8432 5530
L7166 5530
" />
<path d="M6043 1477
L6043 128
" />
<path d="M6043 128
L3113 128
" />
<path d="M3113 128
L3113 1477
" />
<path d="M1989 3278
L1428 3278
" />
<path d="M1428 3278
L1428 4853
" />
<path d="M1428 4853
L1989 4853
" />
<path d="M2885 6654
L2885 8506
" />
<path d="M2885 8506
L6271 8506
" />
<path d="M6271 8506
L6271 6654
" />
</g>
<g style="fill:#848484; fill-opacity:0.0; 
stroke:#848484; stroke-width:49.2126; stroke-opacity:1; 
stroke-linecap:round; stroke-linejoin:round;">
<path d="M7890 138
L8029 0
L7976 144
L8122 91
L7983 231
" />
<path d="M8069 317
L8062 297
L8062 284
L8069 264
L8108 224
L8128 217
L8142 217
L8161 224
L8181 244
L8188 264
L8188 277
L8181 297
L8142 337
L8122 343
L8108 343
L8089 337
L8069 317
" />
<path d="M8327 390
L8234 483
" />
<path d="M8268 330
L8195 403
L8188 423
L8195 443
L8215 463
L8234 469
L8248 469
" />
<path d="M8393 456
L8301 549
" />
<path d="M8380 469
L8393 469
L8413 476
L8433 496
L8440 516
L8433 536
L8360 608
" />
<path d="M8500 562
L8553 615
" />
<path d="M8566 536
L8447 655
L8440 675
L8447 695
L8460 708
" />
<path d="M7890 138
L8029 0
L7976 144
L8122 91
L7983 231
" />
<path d="M8069 317
L8062 297
L8062 284
L8069 264
L8108 224
L8128 217
L8142 217
L8161 224
L8181 244
L8188 264
L8188 277
L8181 297
L8142 337
L8122 343
L8108 343
L8089 337
L8069 317
" />
<path d="M8327 390
L8234 483
" />
<path d="M8268 330
L8195 403
L8188 423
L8195 443
L8215 463
L8234 469
L8248 469
" />
<path d="M8393 456
L8301 549
" />
<path d="M8380 469
L8393 469
L8413 476
L8433 496
L8440 516
L8433 536
L8360 608
" />
<path d="M8500 562
L8553 615
" />
<path d="M8566 536
L8447 655
L8440 675
L8447 695
L8460 708
" />
<path d="M138 688
L0 549
L144 602
L91 456
L231 595
" />
<path d="M317 509
L297 516
L284 516
L264 509
L224 469
L217 449
L217 436
L224 416
L244 396
L264 390
L277 390
L297 396
L337 436
L343 456
L343 469
L337 489
L317 509
" />
<path d="M390 251
L483 343
" />
<path d="M330 310
L403 383
L423 390
L443 383
L463 363
L469 343
L469 330
" />
<path d="M456 184
L549 277
" />
<path d="M469 198
L469 184
L476 164
L496 144
L516 138
L536 144
L608 217
" />
<path d="M562 78
L615 25
" />
<path d="M536 12
L655 131
L675 138
L695 131
L708 118
" />
<path d="M138 688
L0 549
L144 602
L91 456
L231 595
" />
<path d="M317 509
L297 516
L284 516
L264 509
L224 469
L217 449
L217 436
L224 416
L244 396
L264 390
L277 390
L297 396
L337 436
L343 456
L343 469
L337 489
L317 509
" />
<path d="M390 251
L483 343
" />
<path d="M330 310
L403 383
L423 390
L443 383
L463 363
L469 343
L469 330
" />
<path d="M456 184
L549 277
" />
<path d="M469 198
L469 184
L476 164
L496 144
L516 138
L536 144
L608 217
" />
<path d="M562 78
L615 25
" />
<path d="M536 12
L655 131
L675 138
L695 131
L708 118
" />
<path d="M12 8016
L151 7876
L98 8022
L244 7969
L105 8108
" />
<path d="M191 8195
L184 8175
L184 8161
L191 8142
L231 8102
L251 8095
L264 8095
L284 8102
L304 8122
L310 8142
L310 8155
L304 8175
L264 8215
L244 8221
L231 8221
L211 8215
L191 8195
" />
<path d="M449 8268
L357 8360
" />
<path d="M390 8208
L317 8281
L310 8301
L317 8321
L337 8340
L357 8347
L370 8347
" />
<path d="M516 8334
L423 8427
" />
<path d="M502 8347
L516 8347
L536 8354
L555 8374
L562 8393
L555 8413
L483 8486
" />
<path d="M622 8440
L675 8493
" />
<path d="M688 8413
L569 8533
L562 8553
L569 8572
L582 8586
" />
<path d="M12 8016
L151 7876
L98 8022
L244 7969
L105 8108
" />
<path d="M191 8195
L184 8175
L184 8161
L191 8142
L231 8102
L251 8095
L264 8095
L284 8102
L304 8122
L310 8142
L310 8155
L304 8175
L264 8215
L244 8221
L231 8221
L211 8215
L191 8195
" />
<path d="M449 8268
L357 8360
" />
<path d="M390 8208
L317 8281
L310 8301
L317 8321
L337 8340
L357 8347
L370 8347
" />
<path d="M516 8334
L423 8427
" />
<path d="M502 8347
L516 8347
L536 8354
L555 8374
L562 8393
L555 8413
L483 8486
" />
<path d="M622 8440
L675 8493
" />
<path d="M688 8413
L569 8533
L562 8553
L569 8572
L582 8586
" />
<path d="M8016 8566
L7876 8427
L8022 8480
L7969 8334
L8108 8473
" />
<path d="M8195 8387
L8175 8393
L8161 8393
L8142 8387
L8102 8347
L8095 8327
L8095 8314
L8102 8294
L8122 8274
L8142 8268
L8155 8268
L8175 8274
L8215 8314
L8221 8334
L8221 8347
L8215 8367
L8195 8387
" />
<path d="M8268 8128
L8360 8221
" />
<path d="M8208 8188
L8281 8261
L8301 8268
L8321 8261
L8340 8241
L8347 8221
L8347 8208
" />
<path d="M8334 8062
L8427 8155
" />
<path d="M8347 8075
L8347 8062
L8354 8042
L8374 8022
L8393 8016
L8413 8022
L8486 8095
" />
<path d="M8440 7956
L8493 7903
" />
<path d="M8413 7890
L8533 8009
L8553 8016
L8572 8009
L8586 7996
" />
<path d="M8016 8566
L7876 8427
L8022 8480
L7969 8334
L8108 8473
" />
<path d="M8195 8387
L8175 8393
L8161 8393
L8142 8387
L8102 8347
L8095 8327
L8095 8314
L8102 8294
L8122 8274
L8142 8268
L8155 8268
L8175 8274
L8215 8314
L8221 8334
L8221 8347
L8215 8367
L8195 8387
" />
<path d="M8268 8128
L8360 8221
" />
<path d="M8208 8188
L8281 8261
L8301 8268
L8321 8261
L8340 8241
L8347 8221
L8347 8208
" />
<path d="M8334 8062
L8427 8155
" />
<path d="M8347 8075
L8347 8062
L8354 8042
L8374 8022
L8393 8016
L8413 8022
L8486 8095
" />
<path d="M8440 7956
L8493 7903
" />
<path d="M8413 7890
L8533 8009
L8553 8016
L8572 8009
L8586 7996
" />
</g>
<g style="fill:#848484; fill-opacity:0.0; 
stroke:#848484; stroke-width:100; stroke-opacity:1; 
stroke-linecap:round; stroke-linejoin:round;">
<path d="M4037 4221
L4108 4245
L4228 4245
L4275 4221
L4299 4197
L4323 4149
L4323 4102
L4299 4054
L4275 4030
L4228 4006
L4132 3983
L4085 3959
L4061 3935
L4037 3887
L4037 3840
L4061 3792
L4085 3768
L4132 3745
L4251 3745
L4323 3768
" />
<path d="M4799 4245
L4513 4245
" />
<path d="M4656 4245
L4656 3745
L4608 3816
L4561 3864
L4513 3887
" />
<path d="M4037 4221
L4108 4245
L4228 4245
L4275 4221
L4299 4197
L4323 4149
L4323 4102
L4299 4054
L4275 4030
L4228 4006
L4132 3983
L4085 3959
L4061 3935
L4037 3887
L4037 3840
L4061 3792
L4085 3768
L4132 3745
L4251 3745
L4323 3768
" />
<path d="M4799 4245
L4513 4245
" />
<path d="M4656 4245
L4656 3745
L4608 3816
L4561 3864
L4513 3887
" />
</g>
<g style="fill:#848484; fill-opacity:0.0; 
stroke:#848484; stroke-width:49.2126; stroke-opacity:1; 
stroke-linecap:round; stroke-linejoin:round;">
<path d="M1139 6581
L1251 6581
" />
<path d="M1195 6778
L1195 6581
" />
<path d="M1420 6778
L1308 6778
" />
<path d="M1364 6778
L1364 6581
L1345 6609
L1326 6628
L1308 6637
" />
<path d="M-787 6275
L-758 6284
L-749 6294
L-740 6312
L-740 6340
L-749 6359
L-758 6369
L-777 6378
L-852 6378
L-852 6181
L-787 6181
L-768 6190
L-758 6200
L-749 6219
L-749 6237
L-758 6256
L-768 6265
L-787 6275
L-852 6275
" />
<path d="M-627 6378
L-646 6369
L-655 6350
L-655 6181
" />
<path d="M-468 6378
L-468 6275
L-477 6256
L-496 6247
L-533 6247
L-552 6256
" />
<path d="M-468 6369
L-487 6378
L-533 6378
L-552 6369
L-562 6350
L-562 6331
L-552 6312
L-533 6303
L-487 6303
L-468 6294
" />
<path d="M-374 6247
L-374 6378
" />
<path d="M-374 6265
L-365 6256
L-346 6247
L-318 6247
L-299 6256
L-290 6275
L-290 6378
" />
<path d="M-196 6378
L-196 6181
" />
<path d="M-177 6303
L-121 6378
" />
<path d="M-121 6247
L-196 6322
" />
<path d="M-65 6181
L47 6181
" />
<path d="M-8 6378
L-8 6181
" />
<path d="M112 6378
L112 6181
" />
<path d="M197 6378
L197 6275
L187 6256
L169 6247
L140 6247
L122 6256
L112 6265
" />
<path d="M290 6378
L290 6247
" />
<path d="M290 6284
L300 6265
L309 6256
L328 6247
L347 6247
" />
<path d="M440 6378
L422 6369
L412 6359
L403 6340
L403 6284
L412 6265
L422 6256
L440 6247
L469 6247
L487 6256
L497 6265
L506 6284
L506 6340
L497 6359
L487 6369
L469 6378
L440 6378
" />
<path d="M675 6247
L675 6378
" />
<path d="M590 6247
L590 6350
L600 6369
L619 6378
L647 6378
L665 6369
L675 6359
" />
<path d="M853 6247
L853 6406
L844 6425
L834 6434
L815 6444
L787 6444
L769 6434
" />
<path d="M853 6369
L834 6378
L797 6378
L778 6369
L769 6359
L759 6340
L759 6284
L769 6265
L778 6256
L797 6247
L834 6247
L853 6256
" />
<path d="M947 6378
L947 6181
" />
<path d="M1031 6378
L1031 6275
L1022 6256
L1003 6247
L975 6247
L956 6256
L947 6265
" />
<path d="M1125 6303
L1275 6303
" />
<path d="M1368 6378
L1368 6181
" />
<path d="M1368 6275
L1481 6275
" />
<path d="M1481 6378
L1481 6181
" />
<path d="M1603 6378
L1584 6369
L1575 6359
L1565 6340
L1565 6284
L1575 6265
L1584 6256
L1603 6247
L1631 6247
L1650 6256
L1659 6265
L1668 6284
L1668 6340
L1659 6359
L1650 6369
L1631 6378
L1603 6378
" />
<path d="M1781 6378
L1762 6369
L1753 6350
L1753 6181
" />
<path d="M1931 6369
L1912 6378
L1875 6378
L1856 6369
L1847 6350
L1847 6275
L1856 6256
L1875 6247
L1912 6247
L1931 6256
L1940 6275
L1940 6294
L1847 6312
" />
<path d="M1139 2531
L1251 2531
" />
<path d="M1195 2728
L1195 2531
" />
<path d="M1411 2531
L1317 2531
L1308 2625
L1317 2615
L1336 2606
L1383 2606
L1401 2615
L1411 2625
L1420 2644
L1420 2690
L1411 2709
L1401 2719
L1383 2728
L1336 2728
L1317 2719
L1308 2709
" />
<path d="M-787 2225
L-758 2234
L-749 2244
L-740 2262
L-740 2290
L-749 2309
L-758 2319
L-777 2328
L-852 2328
L-852 2131
L-787 2131
L-768 2140
L-758 2150
L-749 2169
L-749 2187
L-758 2206
L-768 2215
L-787 2225
L-852 2225
" />
<path d="M-627 2328
L-646 2319
L-655 2300
L-655 2131
" />
<path d="M-468 2328
L-468 2225
L-477 2206
L-496 2197
L-533 2197
L-552 2206
" />
<path d="M-468 2319
L-487 2328
L-533 2328
L-552 2319
L-562 2300
L-562 2281
L-552 2262
L-533 2253
L-487 2253
L-468 2244
" />
<path d="M-374 2197
L-374 2328
" />
<path d="M-374 2215
L-365 2206
L-346 2197
L-318 2197
L-299 2206
L-290 2225
L-290 2328
" />
<path d="M-196 2328
L-196 2131
" />
<path d="M-177 2253
L-121 2328
" />
<path d="M-121 2197
L-196 2272
" />
<path d="M-65 2131
L47 2131
" />
<path d="M-8 2328
L-8 2131
" />
<path d="M112 2328
L112 2131
" />
<path d="M197 2328
L197 2225
L187 2206
L169 2197
L140 2197
L122 2206
L112 2215
" />
<path d="M290 2328
L290 2197
" />
<path d="M290 2234
L300 2215
L309 2206
L328 2197
L347 2197
" />
<path d="M440 2328
L422 2319
L412 2309
L403 2290
L403 2234
L412 2215
L422 2206
L440 2197
L469 2197
L487 2206
L497 2215
L506 2234
L506 2290
L497 2309
L487 2319
L469 2328
L440 2328
" />
<path d="M675 2197
L675 2328
" />
<path d="M590 2197
L590 2300
L600 2319
L619 2328
L647 2328
L665 2319
L675 2309
" />
<path d="M853 2197
L853 2356
L844 2375
L834 2384
L815 2394
L787 2394
L769 2384
" />
<path d="M853 2319
L834 2328
L797 2328
L778 2319
L769 2309
L759 2290
L759 2234
L769 2215
L778 2206
L797 2197
L834 2197
L853 2206
" />
<path d="M947 2328
L947 2131
" />
<path d="M1031 2328
L1031 2225
L1022 2206
L1003 2197
L975 2197
L956 2206
L947 2215
" />
<path d="M1125 2253
L1275 2253
" />
<path d="M1368 2328
L1368 2131
" />
<path d="M1368 2225
L1481 2225
" />
<path d="M1481 2328
L1481 2131
" />
<path d="M1603 2328
L1584 2319
L1575 2309
L1565 2290
L1565 2234
L1575 2215
L1584 2206
L1603 2197
L1631 2197
L1650 2206
L1659 2215
L1668 2234
L1668 2290
L1659 2309
L1650 2319
L1631 2328
L1603 2328
" />
<path d="M1781 2328
L1762 2319
L1753 2300
L1753 2131
" />
<path d="M1931 2319
L1912 2328
L1875 2328
L1856 2319
L1847 2300
L1847 2225
L1856 2206
L1875 2197
L1912 2197
L1931 2206
L1940 2225
L1940 2244
L1847 2262
" />
<path d="M1139 3331
L1251 3331
" />
<path d="M1195 3528
L1195 3331
" />
<path d="M1401 3331
L1364 3331
L1345 3340
L1336 3350
L1317 3378
L1308 3415
L1308 3490
L1317 3509
L1326 3519
L1345 3528
L1383 3528
L1401 3519
L1411 3509
L1420 3490
L1420 3444
L1411 3425
L1401 3415
L1383 3406
L1345 3406
L1326 3415
L1317 3425
L1308 3444
" />
<path d="M-787 3025
L-758 3034
L-749 3044
L-740 3062
L-740 3090
L-749 3109
L-758 3119
L-777 3128
L-852 3128
L-852 2931
L-787 2931
L-768 2940
L-758 2950
L-749 2969
L-749 2987
L-758 3006
L-768 3015
L-787 3025
L-852 3025
" />
<path d="M-627 3128
L-646 3119
L-655 3100
L-655 2931
" />
<path d="M-468 3128
L-468 3025
L-477 3006
L-496 2997
L-533 2997
L-552 3006
" />
<path d="M-468 3119
L-487 3128
L-533 3128
L-552 3119
L-562 3100
L-562 3081
L-552 3062
L-533 3053
L-487 3053
L-468 3044
" />
<path d="M-374 2997
L-374 3128
" />
<path d="M-374 3015
L-365 3006
L-346 2997
L-318 2997
L-299 3006
L-290 3025
L-290 3128
" />
<path d="M-196 3128
L-196 2931
" />
<path d="M-177 3053
L-121 3128
" />
<path d="M-121 2997
L-196 3072
" />
<path d="M-65 2931
L47 2931
" />
<path d="M-8 3128
L-8 2931
" />
<path d="M112 3128
L112 2931
" />
<path d="M197 3128
L197 3025
L187 3006
L169 2997
L140 2997
L122 3006
L112 3015
" />
<path d="M290 3128
L290 2997
" />
<path d="M290 3034
L300 3015
L309 3006
L328 2997
L347 2997
" />
<path d="M440 3128
L422 3119
L412 3109
L403 3090
L403 3034
L412 3015
L422 3006
L440 2997
L469 2997
L487 3006
L497 3015
L506 3034
L506 3090
L497 3109
L487 3119
L469 3128
L440 3128
" />
<path d="M675 2997
L675 3128
" />
<path d="M590 2997
L590 3100
L600 3119
L619 3128
L647 3128
L665 3119
L675 3109
" />
<path d="M853 2997
L853 3156
L844 3175
L834 3184
L815 3194
L787 3194
L769 3184
" />
<path d="M853 3119
L834 3128
L797 3128
L778 3119
L769 3109
L759 3090
L759 3034
L769 3015
L778 3006
L797 2997
L834 2997
L853 3006
" />
<path d="M947 3128
L947 2931
" />
<path d="M1031 3128
L1031 3025
L1022 3006
L1003 2997
L975 2997
L956 3006
L947 3015
" />
<path d="M1125 3053
L1275 3053
" />
<path d="M1368 3128
L1368 2931
" />
<path d="M1368 3025
L1481 3025
" />
<path d="M1481 3128
L1481 2931
" />
<path d="M1603 3128
L1584 3119
L1575 3109
L1565 3090
L1565 3034
L1575 3015
L1584 3006
L1603 2997
L1631 2997
L1650 3006
L1659 3015
L1668 3034
L1668 3090
L1659 3109
L1650 3119
L1631 3128
L1603 3128
" />
<path d="M1781 3128
L1762 3119
L1753 3100
L1753 2931
" />
<path d="M1931 3119
L1912 3128
L1875 3128
L1856 3119
L1847 3100
L1847 3025
L1856 3006
L1875 2997
L1912 2997
L1931 3006
L1940 3025
L1940 3044
L1847 3062
" />
<path d="M1139 1731
L1251 1731
" />
<path d="M1195 1928
L1195 1731
" />
<path d="M1326 1928
L1364 1928
L1383 1919
L1392 1909
L1411 1881
L1420 1844
L1420 1769
L1411 1750
L1401 1740
L1383 1731
L1345 1731
L1326 1740
L1317 1750
L1308 1769
L1308 1815
L1317 1834
L1326 1844
L1345 1853
L1383 1853
L1401 1844
L1411 1834
L1420 1815
" />
<path d="M-787 1425
L-758 1434
L-749 1444
L-740 1462
L-740 1490
L-749 1509
L-758 1519
L-777 1528
L-852 1528
L-852 1331
L-787 1331
L-768 1340
L-758 1350
L-749 1369
L-749 1387
L-758 1406
L-768 1415
L-787 1425
L-852 1425
" />
<path d="M-627 1528
L-646 1519
L-655 1500
L-655 1331
" />
<path d="M-468 1528
L-468 1425
L-477 1406
L-496 1397
L-533 1397
L-552 1406
" />
<path d="M-468 1519
L-487 1528
L-533 1528
L-552 1519
L-562 1500
L-562 1481
L-552 1462
L-533 1453
L-487 1453
L-468 1444
" />
<path d="M-374 1397
L-374 1528
" />
<path d="M-374 1415
L-365 1406
L-346 1397
L-318 1397
L-299 1406
L-290 1425
L-290 1528
" />
<path d="M-196 1528
L-196 1331
" />
<path d="M-177 1453
L-121 1528
" />
<path d="M-121 1397
L-196 1472
" />
<path d="M-65 1331
L47 1331
" />
<path d="M-8 1528
L-8 1331
" />
<path d="M112 1528
L112 1331
" />
<path d="M197 1528
L197 1425
L187 1406
L169 1397
L140 1397
L122 1406
L112 1415
" />
<path d="M290 1528
L290 1397
" />
<path d="M290 1434
L300 1415
L309 1406
L328 1397
L347 1397
" />
<path d="M440 1528
L422 1519
L412 1509
L403 1490
L403 1434
L412 1415
L422 1406
L440 1397
L469 1397
L487 1406
L497 1415
L506 1434
L506 1490
L497 1509
L487 1519
L469 1528
L440 1528
" />
<path d="M675 1397
L675 1528
" />
<path d="M590 1397
L590 1500
L600 1519
L619 1528
L647 1528
L665 1519
L675 1509
" />
<path d="M853 1397
L853 1556
L844 1575
L834 1584
L815 1594
L787 1594
L769 1584
" />
<path d="M853 1519
L834 1528
L797 1528
L778 1519
L769 1509
L759 1490
L759 1434
L769 1415
L778 1406
L797 1397
L834 1397
L853 1406
" />
<path d="M947 1528
L947 1331
" />
<path d="M1031 1528
L1031 1425
L1022 1406
L1003 1397
L975 1397
L956 1406
L947 1415
" />
<path d="M1125 1453
L1275 1453
" />
<path d="M1368 1528
L1368 1331
" />
<path d="M1368 1425
L1481 1425
" />
<path d="M1481 1528
L1481 1331
" />
<path d="M1603 1528
L1584 1519
L1575 1509
L1565 1490
L1565 1434
L1575 1415
L1584 1406
L1603 1397
L1631 1397
L1650 1406
L1659 1415
L1668 1434
L1668 1490
L1659 1509
L1650 1519
L1631 1528
L1603 1528
" />
<path d="M1781 1528
L1762 1519
L1753 1500
L1753 1331
" />
<path d="M1931 1519
L1912 1528
L1875 1528
L1856 1519
L1847 1500
L1847 1425
L1856 1406
L1875 1397
L1912 1397
L1931 1406
L1940 1425
L1940 1444
L1847 1462
" />
<path d="M1045 4131
L1158 4131
" />
<path d="M1101 4328
L1101 4131
" />
<path d="M1326 4328
L1214 4328
" />
<path d="M1270 4328
L1270 4131
L1251 4159
L1233 4178
L1214 4187
" />
<path d="M1448 4131
L1467 4131
L1486 4140
L1495 4150
L1504 4169
L1514 4206
L1514 4253
L1504 4290
L1495 4309
L1486 4319
L1467 4328
L1448 4328
L1429 4319
L1420 4309
L1411 4290
L1401 4253
L1401 4206
L1411 4169
L1420 4150
L1429 4140
L1448 4131
" />
<path d="M-787 3825
L-758 3834
L-749 3844
L-740 3862
L-740 3890
L-749 3909
L-758 3919
L-777 3928
L-852 3928
L-852 3731
L-787 3731
L-768 3740
L-758 3750
L-749 3769
L-749 3787
L-758 3806
L-768 3815
L-787 3825
L-852 3825
" />
<path d="M-627 3928
L-646 3919
L-655 3900
L-655 3731
" />
<path d="M-468 3928
L-468 3825
L-477 3806
L-496 3797
L-533 3797
L-552 3806
" />
<path d="M-468 3919
L-487 3928
L-533 3928
L-552 3919
L-562 3900
L-562 3881
L-552 3862
L-533 3853
L-487 3853
L-468 3844
" />
<path d="M-374 3797
L-374 3928
" />
<path d="M-374 3815
L-365 3806
L-346 3797
L-318 3797
L-299 3806
L-290 3825
L-290 3928
" />
<path d="M-196 3928
L-196 3731
" />
<path d="M-177 3853
L-121 3928
" />
<path d="M-121 3797
L-196 3872
" />
<path d="M-65 3731
L47 3731
" />
<path d="M-8 3928
L-8 3731
" />
<path d="M112 3928
L112 3731
" />
<path d="M197 3928
L197 3825
L187 3806
L169 3797
L140 3797
L122 3806
L112 3815
" />
<path d="M290 3928
L290 3797
" />
<path d="M290 3834
L300 3815
L309 3806
L328 3797
L347 3797
" />
<path d="M440 3928
L422 3919
L412 3909
L403 3890
L403 3834
L412 3815
L422 3806
L440 3797
L469 3797
L487 3806
L497 3815
L506 3834
L506 3890
L497 3909
L487 3919
L469 3928
L440 3928
" />
<path d="M675 3797
L675 3928
" />
<path d="M590 3797
L590 3900
L600 3919
L619 3928
L647 3928
L665 3919
L675 3909
" />
<path d="M853 3797
L853 3956
L844 3975
L834 3984
L815 3994
L787 3994
L769 3984
" />
<path d="M853 3919
L834 3928
L797 3928
L778 3919
L769 3909
L759 3890
L759 3834
L769 3815
L778 3806
L797 3797
L834 3797
L853 3806
" />
<path d="M947 3928
L947 3731
" />
<path d="M1031 3928
L1031 3825
L1022 3806
L1003 3797
L975 3797
L956 3806
L947 3815
" />
<path d="M1125 3853
L1275 3853
" />
<path d="M1368 3928
L1368 3731
" />
<path d="M1368 3825
L1481 3825
" />
<path d="M1481 3928
L1481 3731
" />
<path d="M1603 3928
L1584 3919
L1575 3909
L1565 3890
L1565 3834
L1575 3815
L1584 3806
L1603 3797
L1631 3797
L1650 3806
L1659 3815
L1668 3834
L1668 3890
L1659 3909
L1650 3919
L1631 3928
L1603 3928
" />
<path d="M1781 3928
L1762 3919
L1753 3900
L1753 3731
" />
<path d="M1931 3919
L1912 3928
L1875 3928
L1856 3919
L1847 3900
L1847 3825
L1856 3806
L1875 3797
L1912 3797
L1931 3806
L1940 3825
L1940 3844
L1847 3862
" />
<path d="M1139 4981
L1251 4981
" />
<path d="M1195 5178
L1195 4981
" />
<path d="M1298 4981
L1420 4981
L1354 5056
L1383 5056
L1401 5065
L1411 5075
L1420 5094
L1420 5140
L1411 5159
L1401 5169
L1383 5178
L1326 5178
L1308 5169
L1298 5159
" />
<path d="M-787 4675
L-758 4684
L-749 4694
L-740 4712
L-740 4740
L-749 4759
L-758 4769
L-777 4778
L-852 4778
L-852 4581
L-787 4581
L-768 4590
L-758 4600
L-749 4619
L-749 4637
L-758 4656
L-768 4665
L-787 4675
L-852 4675
" />
<path d="M-627 4778
L-646 4769
L-655 4750
L-655 4581
" />
<path d="M-468 4778
L-468 4675
L-477 4656
L-496 4647
L-533 4647
L-552 4656
" />
<path d="M-468 4769
L-487 4778
L-533 4778
L-552 4769
L-562 4750
L-562 4731
L-552 4712
L-533 4703
L-487 4703
L-468 4694
" />
<path d="M-374 4647
L-374 4778
" />
<path d="M-374 4665
L-365 4656
L-346 4647
L-318 4647
L-299 4656
L-290 4675
L-290 4778
" />
<path d="M-196 4778
L-196 4581
" />
<path d="M-177 4703
L-121 4778
" />
<path d="M-121 4647
L-196 4722
" />
<path d="M-65 4581
L47 4581
" />
<path d="M-8 4778
L-8 4581
" />
<path d="M112 4778
L112 4581
" />
<path d="M197 4778
L197 4675
L187 4656
L169 4647
L140 4647
L122 4656
L112 4665
" />
<path d="M290 4778
L290 4647
" />
<path d="M290 4684
L300 4665
L309 4656
L328 4647
L347 4647
" />
<path d="M440 4778
L422 4769
L412 4759
L403 4740
L403 4684
L412 4665
L422 4656
L440 4647
L469 4647
L487 4656
L497 4665
L506 4684
L506 4740
L497 4759
L487 4769
L469 4778
L440 4778
" />
<path d="M675 4647
L675 4778
" />
<path d="M590 4647
L590 4750
L600 4769
L619 4778
L647 4778
L665 4769
L675 4759
" />
<path d="M853 4647
L853 4806
L844 4825
L834 4834
L815 4844
L787 4844
L769 4834
" />
<path d="M853 4769
L834 4778
L797 4778
L778 4769
L769 4759
L759 4740
L759 4684
L769 4665
L778 4656
L797 4647
L834 4647
L853 4656
" />
<path d="M947 4778
L947 4581
" />
<path d="M1031 4778
L1031 4675
L1022 4656
L1003 4647
L975 4647
L956 4656
L947 4665
" />
<path d="M1125 4703
L1275 4703
" />
<path d="M1368 4778
L1368 4581
" />
<path d="M1368 4675
L1481 4675
" />
<path d="M1481 4778
L1481 4581
" />
<path d="M1603 4778
L1584 4769
L1575 4759
L1565 4740
L1565 4684
L1575 4665
L1584 4656
L1603 4647
L1631 4647
L1650 4656
L1659 4665
L1668 4684
L1668 4740
L1659 4759
L1650 4769
L1631 4778
L1603 4778
" />
<path d="M1781 4778
L1762 4769
L1753 4750
L1753 4581
" />
<path d="M1931 4769
L1912 4778
L1875 4778
L1856 4769
L1847 4750
L1847 4675
L1856 4656
L1875 4647
L1912 4647
L1931 4656
L1940 4675
L1940 4694
L1847 4712
" />
<path d="M1139 5781
L1251 5781
" />
<path d="M1195 5978
L1195 5781
" />
<path d="M1308 5800
L1317 5790
L1336 5781
L1383 5781
L1401 5790
L1411 5800
L1420 5819
L1420 5837
L1411 5865
L1298 5978
L1420 5978
" />
<path d="M-787 5475
L-758 5484
L-749 5494
L-740 5512
L-740 5540
L-749 5559
L-758 5569
L-777 5578
L-852 5578
L-852 5381
L-787 5381
L-768 5390
L-758 5400
L-749 5419
L-749 5437
L-758 5456
L-768 5465
L-787 5475
L-852 5475
" />
<path d="M-627 5578
L-646 5569
L-655 5550
L-655 5381
" />
<path d="M-468 5578
L-468 5475
L-477 5456
L-496 5447
L-533 5447
L-552 5456
" />
<path d="M-468 5569
L-487 5578
L-533 5578
L-552 5569
L-562 5550
L-562 5531
L-552 5512
L-533 5503
L-487 5503
L-468 5494
" />
<path d="M-374 5447
L-374 5578
" />
<path d="M-374 5465
L-365 5456
L-346 5447
L-318 5447
L-299 5456
L-290 5475
L-290 5578
" />
<path d="M-196 5578
L-196 5381
" />
<path d="M-177 5503
L-121 5578
" />
<path d="M-121 5447
L-196 5522
" />
<path d="M-65 5381
L47 5381
" />
<path d="M-8 5578
L-8 5381
" />
<path d="M112 5578
L112 5381
" />
<path d="M197 5578
L197 5475
L187 5456
L169 5447
L140 5447
L122 5456
L112 5465
" />
<path d="M290 5578
L290 5447
" />
<path d="M290 5484
L300 5465
L309 5456
L328 5447
L347 5447
" />
<path d="M440 5578
L422 5569
L412 5559
L403 5540
L403 5484
L412 5465
L422 5456
L440 5447
L469 5447
L487 5456
L497 5465
L506 5484
L506 5540
L497 5559
L487 5569
L469 5578
L440 5578
" />
<path d="M675 5447
L675 5578
" />
<path d="M590 5447
L590 5550
L600 5569
L619 5578
L647 5578
L665 5569
L675 5559
" />
<path d="M853 5447
L853 5606
L844 5625
L834 5634
L815 5644
L787 5644
L769 5634
" />
<path d="M853 5569
L834 5578
L797 5578
L778 5569
L769 5559
L759 5540
L759 5484
L769 5465
L778 5456
L797 5447
L834 5447
L853 5456
" />
<path d="M947 5578
L947 5381
" />
<path d="M1031 5578
L1031 5475
L1022 5456
L1003 5447
L975 5447
L956 5456
L947 5465
" />
<path d="M1125 5503
L1275 5503
" />
<path d="M1368 5578
L1368 5381
" />
<path d="M1368 5475
L1481 5475
" />
<path d="M1481 5578
L1481 5381
" />
<path d="M1603 5578
L1584 5569
L1575 5559
L1565 5540
L1565 5484
L1575 5465
L1584 5456
L1603 5447
L1631 5447
L1650 5456
L1659 5465
L1668 5484
L1668 5540
L1659 5559
L1650 5569
L1631 5578
L1603 5578
" />
<path d="M1781 5578
L1762 5569
L1753 5550
L1753 5381
" />
<path d="M1931 5569
L1912 5578
L1875 5578
L1856 5569
L1847 5550
L1847 5475
L1856 5456
L1875 5447
L1912 5447
L1931 5456
L1940 5475
L1940 5494
L1847 5512
" />
</g>
<g style="fill:#000000; fill-opacity:0.0; 
stroke:#000000; stroke-width:49.2126; stroke-opacity:1; 
stroke-linecap:round; stroke-linejoin:round;">
</g>
<g style="fill:#C2C200; fill-opacity:0.0; 
stroke:#C2C200; stroke-width:49.2126; stroke-opacity:1; 
stroke-linecap:round; stroke-linejoin:round;">
</g>
<g style="fill:#C2C200; fill-opacity:0.0; 
stroke:#C2C200; stroke-width:59.0551; stroke-opacity:1; 
stroke-linecap:round; stroke-linejoin:round;">
<path d="M8539 739
L8539 7839
" />
<path d="M739 8539
L7839 8539
" />
<path d="M39 7839
L39 764
" />
<path d="M7839.37 8539.37 A700 700 0.0 0 0 8539.37 7839.37 " />
<path d="M39.3705 7839.37 A700 700 0.0 0 0 739.37 8539.37 " />
<path d="M739.37 39.3705 A700 700 0.0 0 0 39.8166 764.359 " />
<path d="M7839 39
L739 39
" />
<path d="M8539.37 739.37 A700 700 0.0 0 0 7839.37 39.3705 " />
</g> 
</svg>
