<?xml version="1.0" standalone="no"?>
 <!DOCTYPE svg PUBLIC "-//W3C//DTD SVG 1.1//EN" 
 "http://www.w3.org/Graphics/SVG/1.1/DTD/svg11.dtd"> 
<svg xmlns="http://www.w3.org/2000/svg" version="1.1" 
    width="2.17678cm" height="2.17678cm" viewBox="0 0 8570 8570 ">
<title>SVG Picture created as WoodElf_03-F.SilkS.svg date 2019/06/03 16:19:49 </title>
  <desc>Picture generated by PCBNEW </desc>
<g style="fill:#000000; fill-opacity:1;stroke:#000000; stroke-opacity:1;
stroke-linecap:round; stroke-linejoin:round; "
 transform="translate(0 0) scale(1 1)">
</g>
<g style="fill:#000000; fill-opacity:0.0; 
stroke:#000000; stroke-width:-0.000393701; stroke-opacity:1; 
stroke-linecap:round; stroke-linejoin:round;">
</g>
<g style="fill:#008484; fill-opacity:0.0; 
stroke:#008484; stroke-width:-0.000393701; stroke-opacity:1; 
stroke-linecap:round; stroke-linejoin:round;">
</g>
<g style="fill:#008484; fill-opacity:0.0; 
stroke:#008484; stroke-width:49.2126; stroke-opacity:1; 
stroke-linecap:round; stroke-linejoin:round;">
<path d="M901 1756
L967 1953
L1033 1756
" />
<path d="M1098 1953
L1098 1756
L1145 1756
L1173 1765
L1192 1784
L1201 1803
L1211 1840
L1211 1869
L1201 1906
L1192 1925
L1173 1944
L1145 1953
L1098 1953
" />
<path d="M1295 1953
L1295 1756
L1342 1756
L1370 1765
L1389 1784
L1398 1803
L1408 1840
L1408 1869
L1398 1906
L1389 1925
L1370 1944
L1342 1953
L1295 1953
" />
<path d="M1014 2565
L995 2556
L967 2556
L939 2565
L920 2584
L911 2603
L901 2640
L901 2669
L911 2706
L920 2725
L939 2744
L967 2753
L986 2753
L1014 2744
L1023 2734
L1023 2669
L986 2669
" />
<path d="M1108 2753
L1108 2556
L1220 2753
L1220 2556
" />
<path d="M1314 2753
L1314 2556
L1361 2556
L1389 2565
L1408 2584
L1417 2603
L1426 2640
L1426 2669
L1417 2706
L1408 2725
L1389 2744
L1361 2753
L1314 2753
" />
<path d="M955 3331
L955 3472
L945 3500
L926 3519
L898 3528
L880 3528
" />
<path d="M1048 3528
L1048 3331
" />
<path d="M1048 3425
L1161 3425
" />
<path d="M1161 3528
L1161 3331
" />
<path d="M1245 3472
L1339 3472
" />
<path d="M1226 3528
L1292 3331
L1358 3528
" />
<path d="M948 4131
L948 4272
L939 4300
L920 4319
L892 4328
L873 4328
" />
<path d="M1014 4131
L1079 4328
L1145 4131
" />
<path d="M1201 4272
L1295 4272
" />
<path d="M1183 4328
L1248 4131
L1314 4328
" />
<path d="M900 5194
L928 5203
L975 5203
L994 5194
L1003 5184
L1012 5165
L1012 5147
L1003 5128
L994 5119
L975 5109
L937 5100
L919 5090
L909 5081
L900 5062
L900 5044
L909 5025
L919 5015
L937 5006
L984 5006
L1012 5015
" />
<path d="M1209 5184
L1200 5194
L1172 5203
L1153 5203
L1125 5194
L1106 5175
L1097 5156
L1087 5119
L1087 5090
L1097 5053
L1106 5034
L1125 5015
L1153 5006
L1172 5006
L1200 5015
L1209 5025
" />
<path d="M1265 5006
L1331 5203
L1397 5006
" />
<path d="M900 5969
L928 5978
L975 5978
L994 5969
L1003 5959
L1012 5940
L1012 5922
L1003 5903
L994 5894
L975 5884
L937 5875
L919 5865
L909 5856
L900 5837
L900 5819
L909 5800
L919 5790
L937 5781
L984 5781
L1012 5790
" />
<path d="M1087 5922
L1181 5922
" />
<path d="M1069 5978
L1134 5781
L1200 5978
" />
<path d="M1331 5875
L1359 5884
L1369 5894
L1378 5912
L1378 5940
L1369 5959
L1359 5969
L1340 5978
L1265 5978
L1265 5781
L1331 5781
L1350 5790
L1359 5800
L1369 5819
L1369 5837
L1359 5856
L1350 5865
L1331 5875
L1265 5875
" />
<path d="M911 6769
L939 6778
L986 6778
L1005 6769
L1014 6759
L1023 6740
L1023 6722
L1014 6703
L1005 6694
L986 6684
L948 6675
L930 6665
L920 6656
L911 6637
L911 6619
L920 6600
L930 6590
L948 6581
L995 6581
L1023 6590
" />
<path d="M1173 6675
L1201 6684
L1211 6694
L1220 6712
L1220 6740
L1211 6759
L1201 6769
L1183 6778
L1108 6778
L1108 6581
L1173 6581
L1192 6590
L1201 6600
L1211 6619
L1211 6637
L1201 6656
L1192 6665
L1173 6675
L1108 6675
" />
<path d="M1370 6675
L1398 6684
L1408 6694
L1417 6712
L1417 6740
L1408 6759
L1398 6769
L1379 6778
L1304 6778
L1304 6581
L1370 6581
L1389 6590
L1398 6600
L1408 6619
L1408 6637
L1398 6656
L1389 6665
L1370 6675
L1304 6675
" />
</g>
<g style="fill:#008484; fill-opacity:1.0; 
stroke:#008484; stroke-width:3.93701; stroke-opacity:1; 
stroke-linecap:round; stroke-linejoin:round;">
<polyline style="fill-rule:evenodd;"
points="4582,5437
4592,5445
4599,5456
4601,5466
4598,5476
4592,5487
4583,5494
4574,5497
4574,5497
4568,5498
4559,5502
4546,5508
4529,5517
4507,5529
4481,5545
4449,5563
4446,5565
4401,5592
4361,5615
4325,5636
4293,5653
4265,5667
4239,5679
4215,5689
4193,5697
4172,5704
4153,5709
4134,5712
4113,5713
4092,5713
4074,5711
4066,5709
4041,5698
4020,5682
4004,5661
3992,5635
3985,5606
3983,5579
3983,5567
3984,5559
3987,5553
3990,5549
4001,5541
4014,5539
4025,5542
4033,5546
4038,5551
4042,5560
4044,5572
4045,5582
4049,5605
4056,5624
4065,5637
4075,5645
4092,5650
4113,5650
4138,5647
4167,5640
4199,5628
4214,5622
4231,5614
4252,5603
4277,5590
4303,5576
4331,5561
4358,5545
4383,5530
4387,5527
4425,5504
4457,5485
4485,5469
4509,5457
4529,5447
4545,5440
4557,5436
4568,5434
4571,5434
4582,5437
" /> 
<polyline style="fill-rule:evenodd;"
points="3996,5075
4005,5081
4006,5083
4010,5087
4013,5092
4014,5098
4014,5108
4013,5118
4011,5137
4006,5158
3999,5180
3988,5205
3975,5234
3964,5255
3955,5274
3948,5288
3943,5298
3941,5307
3939,5314
3939,5322
3939,5324
3939,5335
3942,5344
3947,5353
3951,5359
3960,5372
3963,5383
3962,5394
3959,5400
3950,5411
3938,5416
3925,5415
3917,5412
3909,5405
3899,5394
3890,5381
3883,5366
3879,5356
3875,5340
3874,5324
3875,5308
3880,5290
3888,5269
3899,5245
3907,5229
3922,5200
3933,5175
3942,5154
3947,5136
3951,5120
3953,5110
3956,5093
3962,5082
3971,5076
3984,5074
3996,5075
" /> 
<polyline style="fill-rule:evenodd;"
points="5213,4226
5224,4233
5227,4237
5230,4241
5232,4247
5233,4255
5234,4268
5235,4285
5235,4288
5236,4313
5236,4340
5236,4368
5234,4395
5233,4419
5230,4436
5229,4445
5229,4452
5229,4453
5232,4453
5240,4450
5251,4446
5251,4445
5269,4436
5286,4423
5288,4421
5300,4409
5314,4393
5331,4373
5349,4351
5368,4327
5385,4305
5398,4288
5408,4276
5416,4268
5423,4263
5430,4261
5436,4261
5449,4264
5460,4272
5468,4286
5473,4306
5474,4325
5471,4378
5462,4432
5447,4485
5428,4534
5427,4536
5403,4579
5373,4621
5337,4660
5295,4697
5247,4732
5218,4749
5198,4761
5172,4775
5140,4791
5104,4808
5063,4828
5019,4849
4976,4869
4939,4887
4907,4903
4878,4918
4853,4933
4829,4948
4807,4962
4786,4978
4782,4980
4758,4999
4738,5017
4722,5033
4708,5050
4696,5070
4683,5092
4682,5094
4666,5123
4651,5146
4636,5163
4621,5176
4605,5184
4588,5189
4582,5190
4571,5190
4564,5189
4558,5185
4554,5181
4546,5170
4544,5158
4548,5146
4557,5136
4571,5129
4576,5128
4583,5125
4590,5121
4597,5114
4605,5104
4613,5090
4623,5071
4631,5056
4640,5039
4647,5026
4655,5016
4663,5005
4674,4993
4687,4980
4708,4961
4729,4942
4752,4924
4776,4907
4803,4890
4833,4872
4866,4854
4904,4834
4947,4813
4995,4791
5002,4787
5053,4764
5097,4742
5136,4722
5171,4703
5201,4685
5228,4668
5252,4651
5273,4634
5291,4617
5309,4599
5322,4584
5343,4557
5360,4530
5374,4502
5379,4490
5384,4477
5389,4461
5394,4443
5399,4425
5403,4408
5406,4394
5407,4385
5407,4384
5405,4385
5400,4391
5392,4400
5381,4411
5375,4419
5362,4435
5349,4449
5337,4462
5328,4471
5325,4474
5316,4481
5304,4489
5291,4496
5276,4503
5258,4510
5237,4517
5212,4524
5183,4532
5149,4540
5111,4548
5066,4558
5016,4568
5004,4571
4946,4583
4895,4594
4849,4605
4807,4615
4770,4625
4736,4635
4705,4645
4676,4656
4649,4667
4623,4678
4622,4679
4580,4701
4544,4724
4514,4748
4489,4774
4470,4802
4456,4832
4455,4834
4453,4845
4450,4859
4448,4874
4447,4879
4446,4893
4444,4903
4442,4909
4438,4914
4434,4918
4422,4926
4409,4927
4397,4921
4396,4920
4388,4913
4384,4905
4382,4895
4383,4880
4384,4870
4390,4833
4400,4802
4405,4791
4421,4761
4443,4731
4470,4703
4500,4678
4522,4662
4552,4643
4536,4637
4510,4629
4480,4623
4447,4620
4412,4620
4376,4622
4357,4624
4307,4633
4256,4647
4208,4666
4161,4687
4118,4713
4080,4741
4051,4767
4025,4796
4006,4824
3992,4854
3984,4884
3982,4899
3980,4912
3978,4921
3973,4928
3970,4931
3959,4939
3946,4940
3933,4936
3928,4932
3923,4928
3921,4923
3919,4916
3919,4905
3920,4901
3922,4873
3929,4846
3940,4818
3946,4805
3967,4769
3995,4734
4029,4702
4067,4671
4110,4644
4158,4619
4209,4598
4263,4580
4320,4566
4326,4565
4339,4563
4353,4561
4369,4560
4389,4559
4414,4559
4426,4559
4450,4559
4470,4560
4487,4561
4503,4563
4519,4566
4535,4570
4555,4576
4578,4584
4595,4590
4634,4604
4676,4589
4693,4582
4707,4576
4718,4571
4723,4567
4723,4567
4730,4559
4741,4550
4756,4541
4775,4529
4799,4517
4951,4517
4951,4517
4955,4517
4964,4515
4978,4512
4996,4508
5016,4504
5025,4502
5056,4496
5081,4491
5101,4486
5117,4483
5128,4480
5137,4477
5143,4475
5147,4473
5150,4471
5152,4468
5153,4467
5161,4454
5166,4435
5171,4411
5172,4401
5174,4379
5163,4389
5146,4404
5127,4419
5105,4433
5080,4449
5050,4465
5014,4484
5008,4487
4990,4496
4975,4504
4962,4511
4954,4515
4951,4517
4799,4517
4800,4516
4830,4502
4865,4485
4879,4479
4911,4464
4944,4449
4974,4433
5003,4419
5028,4405
5050,4394
5066,4384
5070,4381
5098,4361
5122,4340
5142,4320
5157,4299
5167,4280
5170,4263
5170,4261
5173,4246
5180,4234
5189,4227
5201,4224
5213,4226
" /> 
</g>
<g style="fill:#008484; fill-opacity:0.0; 
stroke:#008484; stroke-width:59.0551; stroke-opacity:1; 
stroke-linecap:round; stroke-linejoin:round;">
<path d="M7542.39 442.385 A420 420 0.0 0 0 8136.36 1036.36 " />
<path d="M442.385 1036.36 A420 420 0.0 0 0 1036.36 442.385 " />
<path d="M1036.36 8136.36 A420 420 0.0 0 0 442.385 7542.39 " />
<path d="M8136.36 7542.39 A420 420 0.0 0 0 7542.39 8136.36 " />
</g>
<g style="fill:#008484; fill-opacity:0.0; 
stroke:#008484; stroke-width:78.7402; stroke-opacity:1; 
stroke-linecap:round; stroke-linejoin:round;">
<path d="M2885 6654
L2885 8506
" />
<path d="M2885 8506
L6271 8506
" />
<path d="M6271 8506
L6271 6654
" />
<path d="M6271 6654
L7166 6654
" />
<path d="M1989 1477
L7166 1477
" />
<path d="M6043 1477
L6043 128
" />
<path d="M6043 128
L3113 128
" />
<path d="M3113 128
L3113 1477
" />
<path d="M1989 3278
L1428 3278
" />
<path d="M1428 3278
L1428 4853
" />
<path d="M1428 4853
L1989 4853
" />
<path d="M7166 2600
L8432 2600
" />
<path d="M8432 2600
L8432 5530
" />
<path d="M8432 5530
L7166 5530
" />
<path d="M2885 6654
L1989 6654
" />
<circle cx="2635.83" cy="6820.87" r="47.0079" /> 
</g>
<g style="fill:#000000; fill-opacity:0.0; 
stroke:#000000; stroke-width:78.7402; stroke-opacity:1; 
stroke-linecap:round; stroke-linejoin:round;">
</g>
<g style="fill:#C2C200; fill-opacity:0.0; 
stroke:#C2C200; stroke-width:78.7402; stroke-opacity:1; 
stroke-linecap:round; stroke-linejoin:round;">
</g>
<g style="fill:#C2C200; fill-opacity:0.0; 
stroke:#C2C200; stroke-width:59.0551; stroke-opacity:1; 
stroke-linecap:round; stroke-linejoin:round;">
<path d="M8539 739
L8539 7839
" />
<path d="M739 8539
L7839 8539
" />
<path d="M39 7839
L39 764
" />
<path d="M7839.37 8539.37 A700 700 0.0 0 0 8539.37 7839.37 " />
<path d="M39.3705 7839.37 A700 700 0.0 0 0 739.37 8539.37 " />
<path d="M739.37 39.3705 A700 700 0.0 0 0 39.8166 764.359 " />
<path d="M7839 39
L739 39
" />
<path d="M8539.37 739.37 A700 700 0.0 0 0 7839.37 39.3705 " />
</g> 
</svg>
