<?xml version="1.0" encoding="UTF-8"?>
<!-- Generated by SVGo -->
<svg width="124.302mm" height="91.155mm" viewBox="0.000 0.000 124.302 91.155" xmlns="http://www.w3.org/2000/svg" xmlns:xlink="http://www.w3.org/1999/xlink">
<polygon points="119.302,86.155 5.001,86.155 5.001,5.001 119.302,5.001" style="fill:none;stroke-width:0.050000mm;stroke:black"/>
<polygon points="7.526,69.629 7.526,83.629 21.526,83.629 21.526,69.629" style="fill:none;stroke-width:0.050000mm;stroke:black"/>
<polygon points="83.726,69.629 83.726,83.629 97.726,83.629 97.726,69.629" style="fill:none;stroke-width:0.050000mm;stroke:black"/>
<polygon points="102.776,69.629 102.776,83.629 116.776,83.629 116.776,69.629" style="fill:none;stroke-width:0.050000mm;stroke:black"/>
<polygon points="26.576,67.152 26.576,81.152 40.576,81.152 40.576,67.152" style="fill:none;stroke-width:0.050000mm;stroke:black"/>
<polygon points="64.676,67.152 64.676,81.152 78.676,81.152 78.676,67.152" style="fill:none;stroke-width:0.050000mm;stroke:black"/>
<polygon points="45.626,64.676 45.626,78.676 59.626,78.676 59.626,64.676" style="fill:none;stroke-width:0.050000mm;stroke:black"/>
<polygon points="7.526,50.578 7.526,64.579 21.526,64.579 21.526,50.578" style="fill:none;stroke-width:0.050000mm;stroke:black"/>
<polygon points="83.726,50.578 83.726,64.579 97.726,64.579 97.726,50.578" style="fill:none;stroke-width:0.050000mm;stroke:black"/>
<polygon points="102.776,50.578 102.776,64.579 116.776,64.579 116.776,50.578" style="fill:none;stroke-width:0.050000mm;stroke:black"/>
<polygon points="26.576,48.125 26.576,62.125 40.576,62.125 40.576,48.125" style="fill:none;stroke-width:0.050000mm;stroke:black"/>
<polygon points="64.676,48.125 64.676,62.125 78.676,62.125 78.676,48.125" style="fill:none;stroke-width:0.050000mm;stroke:black"/>
<polygon points="45.626,45.626 45.626,59.626 59.626,59.626 59.626,45.626" style="fill:none;stroke-width:0.050000mm;stroke:black"/>
<polygon points="7.526,31.576 7.526,45.576 21.526,45.576 21.526,31.576" style="fill:none;stroke-width:0.050000mm;stroke:black"/>
<polygon points="83.726,31.529 83.726,45.529 97.726,45.529 97.726,31.529" style="fill:none;stroke-width:0.050000mm;stroke:black"/>
<polygon points="102.776,31.529 102.776,45.529 116.776,45.529 116.776,31.529" style="fill:none;stroke-width:0.050000mm;stroke:black"/>
<polygon points="26.576,29.052 26.576,43.052 40.576,43.052 40.576,29.052" style="fill:none;stroke-width:0.050000mm;stroke:black"/>
<polygon points="64.676,29.052 64.676,43.052 78.676,43.052 78.676,29.052" style="fill:none;stroke-width:0.050000mm;stroke:black"/>
<polygon points="45.626,26.576 45.626,40.576 59.626,40.576 59.626,26.576" style="fill:none;stroke-width:0.050000mm;stroke:black"/>
<polygon points="7.526,12.479 7.526,26.479 21.526,26.479 21.526,12.479" style="fill:none;stroke-width:0.050000mm;stroke:black"/>
<polygon points="83.726,12.479 83.726,26.479 97.726,26.479 97.726,12.479" style="fill:none;stroke-width:0.050000mm;stroke:black"/>
<polygon points="102.776,12.479 102.776,26.479 116.776,26.479 116.776,12.479" style="fill:none;stroke-width:0.050000mm;stroke:black"/>
<polygon points="26.576,10.002 26.576,24.002 40.576,24.002 40.576,10.002" style="fill:none;stroke-width:0.050000mm;stroke:black"/>
<polygon points="64.676,10.002 64.676,24.002 78.676,24.002 78.676,10.002" style="fill:none;stroke-width:0.050000mm;stroke:black"/>
<polygon points="45.626,7.526 45.626,21.526 59.626,21.526 59.626,7.526" style="fill:none;stroke-width:0.050000mm;stroke:black"/>
</svg>