<?xml version="1.0" encoding="UTF-8"?>
<!-- Generated by SVGo -->
<svg width="115.251mm" height="120.013mm" viewBox="0.000 0.000 115.251 120.013" xmlns="http://www.w3.org/2000/svg" xmlns:xlink="http://www.w3.org/1999/xlink">
<polygon points="110.251,115.013 5.000,115.013 5.000,5.000 110.251,5.000" style="fill:none;stroke-width:0.050000mm;stroke:black"/>
<polygon points="107.941,112.062 107.663,112.204 107.441,112.425 107.299,112.704 107.251,113.013 107.299,113.322 107.441,113.601 107.663,113.822 107.941,113.964 108.251,114.013 108.560,113.964 108.838,113.822 109.060,113.601 109.202,113.322 109.251,113.013 109.202,112.704 109.060,112.425 108.838,112.204 108.560,112.062 108.251,112.013" style="fill:none;stroke-width:0.050000mm;stroke:black"/>
<polygon points="6.690,112.062 6.412,112.204 6.190,112.425 6.048,112.704 6.000,113.013 6.048,113.322 6.190,113.601 6.412,113.822 6.690,113.964 7.000,114.013 7.309,113.964 7.587,113.822 7.809,113.601 7.951,113.322 8.000,113.013 7.951,112.704 7.809,112.425 7.587,112.204 7.309,112.062 7.000,112.013" style="fill:none;stroke-width:0.050000mm;stroke:black"/>
<polygon points="12.524,93.487 12.524,94.487 11.724,94.487 11.724,97.587 12.524,97.587 12.524,103.387 11.724,103.387 11.724,106.487 12.524,106.487 12.524,107.487 26.525,107.487 26.525,106.487 27.325,106.487 27.325,103.387 26.525,103.387 26.525,97.587 27.325,97.587 27.325,94.487 26.525,94.487 26.525,93.487" style="fill:none;stroke-width:0.050000mm;stroke:black"/>
<polygon points="50.625,93.487 50.625,94.487 49.825,94.487 49.825,97.587 50.625,97.587 50.625,103.387 49.825,103.387 49.825,106.487 50.625,106.487 50.625,107.487 64.625,107.487 64.625,106.487 65.425,106.487 65.425,103.387 64.625,103.387 64.625,97.587 65.425,97.587 65.425,94.487 64.625,94.487 64.625,93.487" style="fill:none;stroke-width:0.050000mm;stroke:black"/>
<polygon points="31.575,88.725 31.575,89.725 30.775,89.725 30.775,92.825 31.575,92.825 31.575,98.625 30.775,98.625 30.775,101.725 31.575,101.725 31.575,102.725 45.575,102.725 45.575,101.725 46.375,101.725 46.375,98.625 45.575,98.625 45.575,92.825 46.375,92.825 46.375,89.725 45.575,89.725 45.575,88.725" style="fill:none;stroke-width:0.050000mm;stroke:black"/>
<polygon points="69.675,88.725 69.675,89.725 68.875,89.725 68.875,92.825 69.675,92.825 69.675,98.625 68.875,98.625 68.875,101.725 69.675,101.725 69.675,102.725 83.675,102.725 83.675,101.725 84.475,101.725 84.475,98.625 83.675,98.625 83.675,92.825 84.475,92.825 84.475,89.725 83.675,89.725 83.675,88.725" style="fill:none;stroke-width:0.050000mm;stroke:black"/>
<polygon points="88.725,88.725 88.725,89.725 87.925,89.725 87.925,92.825 88.725,92.825 88.725,98.625 87.925,98.625 87.925,101.725 88.725,101.725 88.725,102.725 102.725,102.725 102.725,101.725 103.525,101.725 103.525,98.625 102.725,98.625 102.725,92.825 103.525,92.825 103.525,89.725 102.725,89.725 102.725,88.725" style="fill:none;stroke-width:0.050000mm;stroke:black"/>
<polygon points="12.524,74.437 12.524,75.437 11.724,75.437 11.724,78.537 12.524,78.537 12.524,84.337 11.724,84.337 11.724,87.437 12.524,87.437 12.524,88.437 26.525,88.437 26.525,87.437 27.325,87.437 27.325,84.337 26.525,84.337 26.525,78.537 27.325,78.537 27.325,75.437 26.525,75.437 26.525,74.437" style="fill:none;stroke-width:0.050000mm;stroke:black"/>
<polygon points="50.625,74.437 50.625,75.437 49.825,75.437 49.825,78.537 50.625,78.537 50.625,84.337 49.825,84.337 49.825,87.437 50.625,87.437 50.625,88.437 64.625,88.437 64.625,87.437 65.425,87.437 65.425,84.337 64.625,84.337 64.625,78.537 65.425,78.537 65.425,75.437 64.625,75.437 64.625,74.437" style="fill:none;stroke-width:0.050000mm;stroke:black"/>
<polygon points="31.575,69.675 31.575,70.675 30.775,70.675 30.775,73.775 31.575,73.775 31.575,79.575 30.775,79.575 30.775,82.675 31.575,82.675 31.575,83.675 45.575,83.675 45.575,82.675 46.375,82.675 46.375,79.575 45.575,79.575 45.575,73.775 46.375,73.775 46.375,70.675 45.575,70.675 45.575,69.675" style="fill:none;stroke-width:0.050000mm;stroke:black"/>
<polygon points="69.675,69.675 69.675,70.675 68.875,70.675 68.875,73.775 69.675,73.775 69.675,79.575 68.875,79.575 68.875,82.675 69.675,82.675 69.675,83.675 83.675,83.675 83.675,82.675 84.475,82.675 84.475,79.575 83.675,79.575 83.675,73.775 84.475,73.775 84.475,70.675 83.675,70.675 83.675,69.675" style="fill:none;stroke-width:0.050000mm;stroke:black"/>
<polygon points="88.725,69.675 88.725,70.675 87.925,70.675 87.925,73.775 88.725,73.775 88.725,79.575 87.925,79.575 87.925,82.675 88.725,82.675 88.725,83.675 102.725,83.675 102.725,82.675 103.525,82.675 103.525,79.575 102.725,79.575 102.725,73.775 103.525,73.775 103.525,70.675 102.725,70.675 102.725,69.675" style="fill:none;stroke-width:0.050000mm;stroke:black"/>
<polygon points="12.524,55.387 12.524,56.387 11.724,56.387 11.724,59.487 12.524,59.487 12.524,65.287 11.724,65.287 11.724,68.387 12.524,68.387 12.524,69.387 26.525,69.387 26.525,68.387 27.325,68.387 27.325,65.287 26.525,65.287 26.525,59.487 27.325,59.487 27.325,56.387 26.525,56.387 26.525,55.387" style="fill:none;stroke-width:0.050000mm;stroke:black"/>
<polygon points="50.625,55.387 50.625,56.387 49.825,56.387 49.825,59.487 50.625,59.487 50.625,65.287 49.825,65.287 49.825,68.387 50.625,68.387 50.625,69.387 64.625,69.387 64.625,68.387 65.425,68.387 65.425,65.287 64.625,65.287 64.625,59.487 65.425,59.487 65.425,56.387 64.625,56.387 64.625,55.387" style="fill:none;stroke-width:0.050000mm;stroke:black"/>
<polygon points="31.575,50.625 31.575,51.625 30.775,51.625 30.775,54.725 31.575,54.725 31.575,60.525 30.775,60.525 30.775,63.625 31.575,63.625 31.575,64.625 45.575,64.625 45.575,63.625 46.375,63.625 46.375,60.525 45.575,60.525 45.575,54.725 46.375,54.725 46.375,51.625 45.575,51.625 45.575,50.625" style="fill:none;stroke-width:0.050000mm;stroke:black"/>
<polygon points="69.675,50.625 69.675,51.625 68.875,51.625 68.875,54.725 69.675,54.725 69.675,60.525 68.875,60.525 68.875,63.625 69.675,63.625 69.675,64.625 83.675,64.625 83.675,63.625 84.475,63.625 84.475,60.525 83.675,60.525 83.675,54.725 84.475,54.725 84.475,51.625 83.675,51.625 83.675,50.625" style="fill:none;stroke-width:0.050000mm;stroke:black"/>
<polygon points="88.725,50.625 88.725,51.625 87.925,51.625 87.925,54.725 88.725,54.725 88.725,60.525 87.925,60.525 87.925,63.625 88.725,63.625 88.725,64.625 102.725,64.625 102.725,63.625 103.525,63.625 103.525,60.525 102.725,60.525 102.725,54.725 103.525,54.725 103.525,51.625 102.725,51.625 102.725,50.625" style="fill:none;stroke-width:0.050000mm;stroke:black"/>
<polygon points="12.524,36.337 12.524,37.337 11.724,37.337 11.724,40.437 12.524,40.437 12.524,46.237 11.724,46.237 11.724,49.337 12.524,49.337 12.524,50.337 26.525,50.337 26.525,49.337 27.325,49.337 27.325,46.237 26.525,46.237 26.525,40.437 27.325,40.437 27.325,37.337 26.525,37.337 26.525,36.337" style="fill:none;stroke-width:0.050000mm;stroke:black"/>
<polygon points="50.625,36.337 50.625,37.337 49.825,37.337 49.825,40.437 50.625,40.437 50.625,46.237 49.825,46.237 49.825,49.337 50.625,49.337 50.625,50.337 64.625,50.337 64.625,49.337 65.425,49.337 65.425,46.237 64.625,46.237 64.625,40.437 65.425,40.437 65.425,37.337 64.625,37.337 64.625,36.337" style="fill:none;stroke-width:0.050000mm;stroke:black"/>
<polygon points="31.575,31.575 31.575,32.575 30.775,32.575 30.775,35.675 31.575,35.675 31.575,41.475 30.775,41.475 30.775,44.575 31.575,44.575 31.575,45.575 45.575,45.575 45.575,44.575 46.375,44.575 46.375,41.475 45.575,41.475 45.575,35.675 46.375,35.675 46.375,32.575 45.575,32.575 45.575,31.575" style="fill:none;stroke-width:0.050000mm;stroke:black"/>
<polygon points="69.675,31.575 69.675,32.575 68.875,32.575 68.875,35.675 69.675,35.675 69.675,41.475 68.875,41.475 68.875,44.575 69.675,44.575 69.675,45.575 83.675,45.575 83.675,44.575 84.475,44.575 84.475,41.475 83.675,41.475 83.675,35.675 84.475,35.675 84.475,32.575 83.675,32.575 83.675,31.575" style="fill:none;stroke-width:0.050000mm;stroke:black"/>
<polygon points="88.725,31.575 88.725,32.575 87.925,32.575 87.925,35.675 88.725,35.675 88.725,41.475 87.925,41.475 87.925,44.575 88.725,44.575 88.725,45.575 102.725,45.575 102.725,44.575 103.525,44.575 103.525,41.475 102.725,41.475 102.725,35.675 103.525,35.675 103.525,32.575 102.725,32.575 102.725,31.575" style="fill:none;stroke-width:0.050000mm;stroke:black"/>
<polygon points="12.524,17.287 12.524,18.287 11.724,18.287 11.724,21.387 12.524,21.387 12.524,27.187 11.724,27.187 11.724,30.287 12.524,30.287 12.524,31.287 26.525,31.287 26.525,30.287 27.325,30.287 27.325,27.187 26.525,27.187 26.525,21.387 27.325,21.387 27.325,18.287 26.525,18.287 26.525,17.287" style="fill:none;stroke-width:0.050000mm;stroke:black"/>
<polygon points="50.625,17.287 50.625,18.287 49.825,18.287 49.825,21.387 50.625,21.387 50.625,27.187 49.825,27.187 49.825,30.287 50.625,30.287 50.625,31.287 64.625,31.287 64.625,30.287 65.425,30.287 65.425,27.187 64.625,27.187 64.625,21.387 65.425,21.387 65.425,18.287 64.625,18.287 64.625,17.287" style="fill:none;stroke-width:0.050000mm;stroke:black"/>
<polygon points="31.575,12.525 31.575,13.525 30.775,13.525 30.775,16.625 31.575,16.625 31.575,22.425 30.775,22.425 30.775,25.525 31.575,25.525 31.575,26.525 45.575,26.525 45.575,25.525 46.375,25.525 46.375,22.425 45.575,22.425 45.575,16.625 46.375,16.625 46.375,13.525 45.575,13.525 45.575,12.525" style="fill:none;stroke-width:0.050000mm;stroke:black"/>
<polygon points="69.675,12.525 69.675,13.525 68.875,13.525 68.875,16.625 69.675,16.625 69.675,22.425 68.875,22.425 68.875,25.525 69.675,25.525 69.675,26.525 83.675,26.525 83.675,25.525 84.475,25.525 84.475,22.425 83.675,22.425 83.675,16.625 84.475,16.625 84.475,13.525 83.675,13.525 83.675,12.525" style="fill:none;stroke-width:0.050000mm;stroke:black"/>
<polygon points="88.725,12.525 88.725,13.525 87.925,13.525 87.925,16.625 88.725,16.625 88.725,22.425 87.925,22.425 87.925,25.525 88.725,25.525 88.725,26.525 102.725,26.525 102.725,25.525 103.525,25.525 103.525,22.425 102.725,22.425 102.725,16.625 103.525,16.625 103.525,13.525 102.725,13.525 102.725,12.525" style="fill:none;stroke-width:0.050000mm;stroke:black"/>
<polygon points="107.941,6.048 107.663,6.190 107.441,6.412 107.299,6.690 107.251,7.000 107.299,7.309 107.441,7.587 107.663,7.809 107.941,7.951 108.251,8.000 108.560,7.951 108.838,7.809 109.060,7.587 109.202,7.309 109.251,7.000 109.202,6.690 109.060,6.412 108.838,6.190 108.560,6.048 108.251,6.000" style="fill:none;stroke-width:0.050000mm;stroke:black"/>
<polygon points="6.690,6.048 6.412,6.190 6.190,6.412 6.048,6.690 6.000,7.000 6.048,7.309 6.190,7.587 6.412,7.809 6.690,7.951 7.000,8.000 7.309,7.951 7.587,7.809 7.809,7.587 7.951,7.309 8.000,7.000 7.951,6.690 7.809,6.412 7.587,6.190 7.309,6.048 7.000,6.000" style="fill:none;stroke-width:0.050000mm;stroke:black"/>
</svg>