<?xml version="1.0" encoding="UTF-8"?>
<!-- Generated by SVGo -->
<svg width="115.251mm" height="120.013mm" viewBox="0.000 0.000 115.251 120.013" xmlns="http://www.w3.org/2000/svg" xmlns:xlink="http://www.w3.org/1999/xlink">
<polygon points="110.251,115.013 5.000,115.013 5.000,5.000 110.251,5.000" style="fill:none;stroke-width:0.050000mm;stroke:black"/>
<polygon points="107.941,112.062 107.663,112.204 107.441,112.425 107.299,112.704 107.251,113.013 107.299,113.322 107.441,113.601 107.663,113.822 107.941,113.964 108.251,114.013 108.560,113.964 108.838,113.822 109.060,113.601 109.202,113.322 109.251,113.013 109.202,112.704 109.060,112.425 108.838,112.204 108.560,112.062 108.251,112.013" style="fill:none;stroke-width:0.050000mm;stroke:black"/>
<polygon points="6.690,112.062 6.412,112.204 6.190,112.425 6.048,112.704 6.000,113.013 6.048,113.322 6.190,113.601 6.412,113.822 6.690,113.964 7.000,114.013 7.309,113.964 7.587,113.822 7.809,113.601 7.951,113.322 8.000,113.013 7.951,112.704 7.809,112.425 7.587,112.204 7.309,112.062 7.000,112.013" style="fill:none;stroke-width:0.050000mm;stroke:black"/>
<polygon points="107.941,6.048 107.663,6.190 107.441,6.412 107.299,6.690 107.251,7.000 107.299,7.309 107.441,7.587 107.663,7.809 107.941,7.951 108.251,8.000 108.560,7.951 108.838,7.809 109.060,7.587 109.202,7.309 109.251,7.000 109.202,6.690 109.060,6.412 108.838,6.190 108.560,6.048 108.251,6.000" style="fill:none;stroke-width:0.050000mm;stroke:black"/>
<polygon points="6.690,6.048 6.412,6.190 6.190,6.412 6.048,6.690 6.000,7.000 6.048,7.309 6.190,7.587 6.412,7.809 6.690,7.951 7.000,8.000 7.309,7.951 7.587,7.809 7.809,7.587 7.951,7.309 8.000,7.000 7.951,6.690 7.809,6.412 7.587,6.190 7.309,6.048 7.000,6.000" style="fill:none;stroke-width:0.050000mm;stroke:black"/>
</svg>