<?xml version="1.0" encoding="UTF-8"?>
<!-- Generated by SVGo -->
<svg width="115.252mm" height="120.014mm" viewBox="0.000 0.000 115.252 120.014" xmlns="http://www.w3.org/2000/svg" xmlns:xlink="http://www.w3.org/1999/xlink">
<polygon points="105.252,5.001 105.644,5.016 106.034,5.062 106.419,5.139 106.797,5.245 107.165,5.381 107.521,5.545 107.864,5.737 108.190,5.955 108.499,6.198 108.787,6.465 109.054,6.753 109.297,7.062 109.515,7.388 109.707,7.731 109.871,8.087 110.007,8.455 110.113,8.833 110.190,9.218 110.236,9.608 110.252,10.001 110.252,110.014 110.236,110.406 110.190,110.796 110.113,111.181 110.007,111.559 109.871,111.927 109.707,112.284 109.515,112.626 109.297,112.953 109.054,113.261 108.787,113.550 108.499,113.816 108.190,114.059 107.864,114.277 107.521,114.469 107.165,114.633 106.797,114.769 106.419,114.876 106.034,114.952 105.644,114.999 105.251,115.014 10.001,115.014 9.608,114.999 9.218,114.952 8.833,114.876 8.455,114.769 8.087,114.633 7.731,114.469 7.388,114.277 7.062,114.059 6.753,113.816 6.465,113.550 6.198,113.261 5.955,112.953 5.737,112.626 5.545,112.284 5.381,111.927 5.245,111.559 5.139,111.181 5.062,110.796 5.016,110.406 5.000,110.014 5.001,10.001 5.016,9.608 5.062,9.218 5.139,8.833 5.245,8.455 5.381,8.087 5.545,7.731 5.737,7.388 5.955,7.062 6.198,6.753 6.465,6.465 6.753,6.198 7.062,5.955 7.388,5.737 7.731,5.545 8.087,5.381 8.455,5.245 8.833,5.139 9.218,5.062 9.608,5.016 10.001,5.000" style="fill:none;stroke-width:0.050000mm;stroke:black"/>
<polygon points="107.442,111.563 107.164,111.705 106.942,111.926 106.800,112.205 106.752,112.514 106.800,112.823 106.942,113.102 107.164,113.323 107.442,113.465 107.752,113.514 108.061,113.465 108.339,113.323 108.561,113.102 108.703,112.823 108.752,112.514 108.703,112.205 108.561,111.926 108.339,111.705 108.061,111.563 107.752,111.514" style="fill:none;stroke-width:0.050000mm;stroke:black"/>
<polygon points="7.191,111.563 6.913,111.705 6.691,111.926 6.549,112.205 6.500,112.514 6.549,112.823 6.691,113.102 6.913,113.323 7.191,113.465 7.500,113.514 7.810,113.465 8.088,113.323 8.310,113.102 8.452,112.823 8.501,112.514 8.452,112.205 8.310,111.926 8.088,111.705 7.810,111.563 7.501,111.514" style="fill:none;stroke-width:0.050000mm;stroke:black"/>
<polygon points="12.525,93.488 12.525,94.488 11.725,94.488 11.725,97.588 12.525,97.588 12.525,103.388 11.725,103.388 11.725,106.488 12.525,106.488 12.525,107.488 26.526,107.488 26.526,106.488 27.326,106.488 27.326,103.388 26.526,103.388 26.526,97.588 27.326,97.588 27.326,94.488 26.526,94.488 26.526,93.488" style="fill:none;stroke-width:0.050000mm;stroke:black"/>
<polygon points="50.626,93.488 50.626,94.488 49.826,94.488 49.826,97.588 50.626,97.588 50.626,103.388 49.826,103.388 49.826,106.488 50.626,106.488 50.626,107.488 64.626,107.488 64.626,106.488 65.426,106.488 65.426,103.388 64.626,103.388 64.626,97.588 65.426,97.588 65.426,94.488 64.626,94.488 64.626,93.488" style="fill:none;stroke-width:0.050000mm;stroke:black"/>
<polygon points="31.576,88.726 31.576,89.726 30.776,89.726 30.776,92.826 31.576,92.826 31.576,98.626 30.776,98.626 30.776,101.726 31.576,101.726 31.576,102.726 45.576,102.726 45.576,101.726 46.376,101.726 46.376,98.626 45.576,98.626 45.576,92.826 46.376,92.826 46.376,89.726 45.576,89.726 45.576,88.726" style="fill:none;stroke-width:0.050000mm;stroke:black"/>
<polygon points="69.676,88.726 69.676,89.726 68.876,89.726 68.876,92.826 69.676,92.826 69.676,98.626 68.876,98.626 68.876,101.726 69.676,101.726 69.676,102.726 83.676,102.726 83.676,101.726 84.476,101.726 84.476,98.626 83.676,98.626 83.676,92.826 84.476,92.826 84.476,89.726 83.676,89.726 83.676,88.726" style="fill:none;stroke-width:0.050000mm;stroke:black"/>
<polygon points="88.726,88.726 88.726,89.726 87.926,89.726 87.926,92.826 88.726,92.826 88.726,98.626 87.926,98.626 87.926,101.726 88.726,101.726 88.726,102.726 102.726,102.726 102.726,101.726 103.526,101.726 103.526,98.626 102.726,98.626 102.726,92.826 103.526,92.826 103.526,89.726 102.726,89.726 102.726,88.726" style="fill:none;stroke-width:0.050000mm;stroke:black"/>
<polygon points="12.525,74.438 12.525,75.438 11.725,75.438 11.725,78.538 12.525,78.538 12.525,84.338 11.725,84.338 11.725,87.438 12.525,87.438 12.525,88.438 26.526,88.438 26.526,87.438 27.326,87.438 27.326,84.338 26.526,84.338 26.526,78.538 27.326,78.538 27.326,75.438 26.526,75.438 26.526,74.438" style="fill:none;stroke-width:0.050000mm;stroke:black"/>
<polygon points="50.626,74.438 50.626,75.438 49.826,75.438 49.826,78.538 50.626,78.538 50.626,84.338 49.826,84.338 49.826,87.438 50.626,87.438 50.626,88.438 64.626,88.438 64.626,87.438 65.426,87.438 65.426,84.338 64.626,84.338 64.626,78.538 65.426,78.538 65.426,75.438 64.626,75.438 64.626,74.438" style="fill:none;stroke-width:0.050000mm;stroke:black"/>
<polygon points="31.576,69.676 31.576,70.676 30.776,70.676 30.776,73.776 31.576,73.776 31.576,79.576 30.776,79.576 30.776,82.676 31.576,82.676 31.576,83.676 45.576,83.676 45.576,82.676 46.376,82.676 46.376,79.576 45.576,79.576 45.576,73.776 46.376,73.776 46.376,70.676 45.576,70.676 45.576,69.676" style="fill:none;stroke-width:0.050000mm;stroke:black"/>
<polygon points="69.676,69.676 69.676,70.676 68.876,70.676 68.876,73.776 69.676,73.776 69.676,79.576 68.876,79.576 68.876,82.676 69.676,82.676 69.676,83.676 83.676,83.676 83.676,82.676 84.476,82.676 84.476,79.576 83.676,79.576 83.676,73.776 84.476,73.776 84.476,70.676 83.676,70.676 83.676,69.676" style="fill:none;stroke-width:0.050000mm;stroke:black"/>
<polygon points="88.726,69.676 88.726,70.676 87.926,70.676 87.926,73.776 88.726,73.776 88.726,79.576 87.926,79.576 87.926,82.676 88.726,82.676 88.726,83.676 102.726,83.676 102.726,82.676 103.526,82.676 103.526,79.576 102.726,79.576 102.726,73.776 103.526,73.776 103.526,70.676 102.726,70.676 102.726,69.676" style="fill:none;stroke-width:0.050000mm;stroke:black"/>
<polygon points="12.525,55.388 12.525,56.388 11.725,56.388 11.725,59.488 12.525,59.488 12.525,65.288 11.725,65.288 11.725,68.388 12.525,68.388 12.525,69.388 26.526,69.388 26.526,68.388 27.326,68.388 27.326,65.288 26.526,65.288 26.526,59.488 27.326,59.488 27.326,56.388 26.526,56.388 26.526,55.388" style="fill:none;stroke-width:0.050000mm;stroke:black"/>
<polygon points="50.626,55.388 50.626,56.388 49.826,56.388 49.826,59.488 50.626,59.488 50.626,65.288 49.826,65.288 49.826,68.388 50.626,68.388 50.626,69.388 64.626,69.388 64.626,68.388 65.426,68.388 65.426,65.288 64.626,65.288 64.626,59.488 65.426,59.488 65.426,56.388 64.626,56.388 64.626,55.388" style="fill:none;stroke-width:0.050000mm;stroke:black"/>
<polygon points="31.576,50.626 31.576,51.626 30.776,51.626 30.776,54.726 31.576,54.726 31.576,60.526 30.776,60.526 30.776,63.626 31.576,63.626 31.576,64.626 45.576,64.626 45.576,63.626 46.376,63.626 46.376,60.526 45.576,60.526 45.576,54.726 46.376,54.726 46.376,51.626 45.576,51.626 45.576,50.626" style="fill:none;stroke-width:0.050000mm;stroke:black"/>
<polygon points="69.676,50.626 69.676,51.626 68.876,51.626 68.876,54.726 69.676,54.726 69.676,60.526 68.876,60.526 68.876,63.626 69.676,63.626 69.676,64.626 83.676,64.626 83.676,63.626 84.476,63.626 84.476,60.526 83.676,60.526 83.676,54.726 84.476,54.726 84.476,51.626 83.676,51.626 83.676,50.626" style="fill:none;stroke-width:0.050000mm;stroke:black"/>
<polygon points="88.726,50.626 88.726,51.626 87.926,51.626 87.926,54.726 88.726,54.726 88.726,60.526 87.926,60.526 87.926,63.626 88.726,63.626 88.726,64.626 102.726,64.626 102.726,63.626 103.526,63.626 103.526,60.526 102.726,60.526 102.726,54.726 103.526,54.726 103.526,51.626 102.726,51.626 102.726,50.626" style="fill:none;stroke-width:0.050000mm;stroke:black"/>
<polygon points="12.525,36.338 12.525,37.338 11.725,37.338 11.725,40.438 12.525,40.438 12.525,46.238 11.725,46.238 11.725,49.338 12.525,49.338 12.525,50.338 26.526,50.338 26.526,49.338 27.326,49.338 27.326,46.238 26.526,46.238 26.526,40.438 27.326,40.438 27.326,37.338 26.526,37.338 26.526,36.338" style="fill:none;stroke-width:0.050000mm;stroke:black"/>
<polygon points="50.626,36.338 50.626,37.338 49.826,37.338 49.826,40.438 50.626,40.438 50.626,46.238 49.826,46.238 49.826,49.338 50.626,49.338 50.626,50.338 64.626,50.338 64.626,49.338 65.426,49.338 65.426,46.238 64.626,46.238 64.626,40.438 65.426,40.438 65.426,37.338 64.626,37.338 64.626,36.338" style="fill:none;stroke-width:0.050000mm;stroke:black"/>
<polygon points="31.576,31.576 31.576,32.576 30.776,32.576 30.776,35.676 31.576,35.676 31.576,41.476 30.776,41.476 30.776,44.576 31.576,44.576 31.576,45.576 45.576,45.576 45.576,44.576 46.376,44.576 46.376,41.476 45.576,41.476 45.576,35.676 46.376,35.676 46.376,32.576 45.576,32.576 45.576,31.576" style="fill:none;stroke-width:0.050000mm;stroke:black"/>
<polygon points="69.676,31.576 69.676,32.576 68.876,32.576 68.876,35.676 69.676,35.676 69.676,41.476 68.876,41.476 68.876,44.576 69.676,44.576 69.676,45.576 83.676,45.576 83.676,44.576 84.476,44.576 84.476,41.476 83.676,41.476 83.676,35.676 84.476,35.676 84.476,32.576 83.676,32.576 83.676,31.576" style="fill:none;stroke-width:0.050000mm;stroke:black"/>
<polygon points="88.726,31.576 88.726,32.576 87.926,32.576 87.926,35.676 88.726,35.676 88.726,41.476 87.926,41.476 87.926,44.576 88.726,44.576 88.726,45.576 102.726,45.576 102.726,44.576 103.526,44.576 103.526,41.476 102.726,41.476 102.726,35.676 103.526,35.676 103.526,32.576 102.726,32.576 102.726,31.576" style="fill:none;stroke-width:0.050000mm;stroke:black"/>
<polygon points="12.525,17.288 12.525,18.288 11.725,18.288 11.725,21.388 12.525,21.388 12.525,27.188 11.725,27.188 11.725,30.288 12.525,30.288 12.525,31.288 26.526,31.288 26.526,30.288 27.326,30.288 27.326,27.188 26.526,27.188 26.526,21.388 27.326,21.388 27.326,18.288 26.526,18.288 26.526,17.288" style="fill:none;stroke-width:0.050000mm;stroke:black"/>
<polygon points="50.626,17.288 50.626,18.288 49.826,18.288 49.826,21.388 50.626,21.388 50.626,27.188 49.826,27.188 49.826,30.288 50.626,30.288 50.626,31.288 64.626,31.288 64.626,30.288 65.426,30.288 65.426,27.188 64.626,27.188 64.626,21.388 65.426,21.388 65.426,18.288 64.626,18.288 64.626,17.288" style="fill:none;stroke-width:0.050000mm;stroke:black"/>
<polygon points="31.576,12.526 31.576,13.526 30.776,13.526 30.776,16.626 31.576,16.626 31.576,22.426 30.776,22.426 30.776,25.526 31.576,25.526 31.576,26.526 45.576,26.526 45.576,25.526 46.376,25.526 46.376,22.426 45.576,22.426 45.576,16.626 46.376,16.626 46.376,13.526 45.576,13.526 45.576,12.526" style="fill:none;stroke-width:0.050000mm;stroke:black"/>
<polygon points="69.676,12.526 69.676,13.526 68.876,13.526 68.876,16.626 69.676,16.626 69.676,22.426 68.876,22.426 68.876,25.526 69.676,25.526 69.676,26.526 83.676,26.526 83.676,25.526 84.476,25.526 84.476,22.426 83.676,22.426 83.676,16.626 84.476,16.626 84.476,13.526 83.676,13.526 83.676,12.526" style="fill:none;stroke-width:0.050000mm;stroke:black"/>
<polygon points="88.726,12.526 88.726,13.526 87.926,13.526 87.926,16.626 88.726,16.626 88.726,22.426 87.926,22.426 87.926,25.526 88.726,25.526 88.726,26.526 102.726,26.526 102.726,25.526 103.526,25.526 103.526,22.426 102.726,22.426 102.726,16.626 103.526,16.626 103.526,13.526 102.726,13.526 102.726,12.526" style="fill:none;stroke-width:0.050000mm;stroke:black"/>
<polygon points="107.442,6.549 107.164,6.691 106.942,6.913 106.800,7.191 106.752,7.500 106.800,7.810 106.942,8.088 107.164,8.310 107.442,8.452 107.752,8.501 108.061,8.452 108.339,8.310 108.561,8.088 108.703,7.810 108.752,7.501 108.703,7.191 108.561,6.913 108.339,6.691 108.061,6.549 107.752,6.501" style="fill:none;stroke-width:0.050000mm;stroke:black"/>
<polygon points="7.191,6.549 6.913,6.691 6.691,6.913 6.549,7.191 6.500,7.500 6.549,7.810 6.691,8.088 6.913,8.310 7.191,8.452 7.500,8.501 7.810,8.452 8.088,8.310 8.310,8.088 8.452,7.810 8.501,7.501 8.452,7.191 8.310,6.913 8.088,6.691 7.810,6.549 7.501,6.501" style="fill:none;stroke-width:0.050000mm;stroke:black"/>
</svg>