<?xml version="1.0" standalone="no"?>
 <!DOCTYPE svg PUBLIC "-//W3C//DTD SVG 1.1//EN" 
 "http://www.w3.org/Graphics/SVG/1.1/DTD/svg11.dtd"> 
<svg xmlns="http://www.w3.org/2000/svg" version="1.1" 
    width="2.0447cm" height="2.0447cm" viewBox="0 0 8050 8050 ">
<title>SVG Picture created as WoodElf_02-F.Fab.svg date 2019/05/12 14:16:08 </title>
  <desc>Picture generated by PCBNEW </desc>
<g style="fill:#000000; fill-opacity:1;stroke:#000000; stroke-opacity:1;
stroke-linecap:round; stroke-linejoin:round; "
 transform="translate(0 0) scale(1 1)">
</g>
<g style="fill:#000000; fill-opacity:0.0; 
stroke:#000000; stroke-width:-0.000393701; stroke-opacity:1; 
stroke-linecap:round; stroke-linejoin:round;">
</g>
<g style="fill:#848484; fill-opacity:0.0; 
stroke:#848484; stroke-width:-0.000393701; stroke-opacity:1; 
stroke-linecap:round; stroke-linejoin:round;">
</g>
<g style="fill:#848484; fill-opacity:0.0; 
stroke:#848484; stroke-width:47.2441; stroke-opacity:1; 
stroke-linecap:round; stroke-linejoin:round;">
<path d="M4028 6028
L4028 5568
" />
<path d="M4028 6028
L3568 6028
" />
<path d="M4028 6028
L4028 6488
" />
<path d="M4028 6028
L4488 6028
" />
</g>
<g style="fill:#848484; fill-opacity:0.0; 
stroke:#848484; stroke-width:11.811; stroke-opacity:1; 
stroke-linecap:round; stroke-linejoin:round;">
<path d="M278 4028
L7778 4028
" />
<path d="M4028 278
L4028 7778
" />
</g>
<g style="fill:#848484; fill-opacity:0.0; 
stroke:#848484; stroke-width:19.685; stroke-opacity:1; 
stroke-linecap:round; stroke-linejoin:round;">
<path d="M4755 6430
L3298 6430
" />
<path d="M4755 6430
L4755 4973
" />
<path d="M3298 4973
L4755 4973
" />
<path d="M3298 4973
L3298 6430
" />
</g>
<g style="fill:#848484; fill-opacity:0.0; 
stroke:#848484; stroke-width:39.3701; stroke-opacity:1; 
stroke-linecap:round; stroke-linejoin:round;">
<circle cx="4028.94" cy="5703.94" r="590.551" /> 
<path d="M4717 5014
L3339 5014
" />
<path d="M4717 6392
L4717 5014
" />
<path d="M3339 6392
L4717 6392
" />
<path d="M3339 5014
L3339 6392
" />
<path d="M4717 5999
L4324 6392
" />
</g>
<g style="fill:#848484; fill-opacity:0.0; 
stroke:#848484; stroke-width:49.2126; stroke-opacity:1; 
stroke-linecap:round; stroke-linejoin:round;">
<path d="M4878 2983
L4907 2992
L4953 2992
L4972 2983
L4982 2974
L4991 2955
L4991 2936
L4982 2917
L4972 2908
L4953 2899
L4916 2889
L4897 2880
L4888 2871
L4878 2852
L4878 2833
L4888 2814
L4897 2805
L4916 2796
L4963 2796
L4991 2805
" />
<path d="M5178 2992
L5066 2992
" />
<path d="M5122 2992
L5122 2796
L5103 2824
L5085 2843
L5066 2852
" />
</g>
<g style="fill:#848484; fill-opacity:0.0; 
stroke:#848484; stroke-width:59.0551; stroke-opacity:1; 
stroke-linecap:round; stroke-linejoin:round;">
<path d="M1655 8327
L1655 7933
" />
<path d="M1880 8327
L1712 8102
" />
<path d="M1880 7933
L1655 8158
" />
<path d="M2218 8327
L2218 8121
L2199 8083
L2162 8065
L2087 8065
L2049 8083
" />
<path d="M2218 8308
L2180 8327
L2087 8327
L2049 8308
L2030 8271
L2030 8233
L2049 8196
L2087 8177
L2180 8177
L2218 8158
" />
<path d="M2405 8327
L2405 8065
" />
<path d="M2405 7933
L2387 7952
L2405 7971
L2424 7952
L2405 7933
L2405 7971
" />
<path d="M2649 8327
L2612 8308
L2593 8271
L2593 7933
" />
<path d="M2799 8327
L2799 7933
" />
<path d="M2968 8327
L2968 8121
L2949 8083
L2912 8065
L2855 8065
L2818 8083
L2799 8102
" />
<path d="M3062 8365
L3362 8365
" />
<path d="M3680 8327
L3549 8140
" />
<path d="M3455 8327
L3455 7933
L3605 7933
L3643 7952
L3661 7971
L3680 8008
L3680 8065
L3661 8102
L3643 8121
L3605 8140
L3455 8140
" />
<path d="M4055 7952
L4018 7933
L3961 7933
L3905 7952
L3868 7990
L3849 8027
L3830 8102
L3830 8158
L3849 8233
L3868 8271
L3905 8308
L3961 8327
L3999 8327
L4055 8308
L4074 8290
L4074 8158
L3999 8158
" />
<path d="M4374 8121
L4430 8140
L4449 8158
L4468 8196
L4468 8252
L4449 8290
L4430 8308
L4393 8327
L4243 8327
L4243 7933
L4374 7933
L4411 7952
L4430 7971
L4449 8008
L4449 8046
L4430 8083
L4411 8102
L4374 8121
L4243 8121
" />
<path d="M4543 8365
L4843 8365
" />
<path d="M4918 8308
L4974 8327
L5068 8327
L5105 8308
L5124 8290
L5143 8252
L5143 8215
L5124 8177
L5105 8158
L5068 8140
L4993 8121
L4955 8102
L4936 8083
L4918 8046
L4918 8008
L4936 7971
L4955 7952
L4993 7933
L5086 7933
L5143 7952
" />
<path d="M5274 8065
L5349 8327
L5424 8140
L5499 8327
L5574 8065
" />
<path d="M5724 8327
L5724 8065
" />
<path d="M5724 7933
L5705 7952
L5724 7971
L5742 7952
L5724 7933
L5724 7971
" />
<path d="M5855 8065
L6005 8065
" />
<path d="M5911 7933
L5911 8271
L5930 8308
L5967 8327
L6005 8327
" />
<path d="M6305 8308
L6267 8327
L6192 8327
L6155 8308
L6136 8290
L6117 8252
L6117 8140
L6136 8102
L6155 8083
L6192 8065
L6267 8065
L6305 8083
" />
<path d="M6474 8327
L6474 7933
" />
<path d="M6642 8327
L6642 8121
L6624 8083
L6586 8065
L6530 8065
L6492 8083
L6474 8102
" />
</g>
<g style="fill:#848484; fill-opacity:0.0; 
stroke:#848484; stroke-width:49.2126; stroke-opacity:1; 
stroke-linecap:round; stroke-linejoin:round;">
<path d="M4878 2983
L4907 2992
L4953 2992
L4972 2983
L4982 2974
L4991 2955
L4991 2936
L4982 2917
L4972 2908
L4953 2899
L4916 2889
L4897 2880
L4888 2871
L4878 2852
L4878 2833
L4888 2814
L4897 2805
L4916 2796
L4963 2796
L4991 2805
" />
<path d="M5178 2992
L5066 2992
" />
<path d="M5122 2992
L5122 2796
L5103 2824
L5085 2843
L5066 2852
" />
<path d="M167 1667
L-28 1667
L111 1602
L-28 1536
L167 1536
" />
<path d="M167 1414
L158 1433
L149 1442
L130 1452
L74 1452
L55 1442
L46 1433
L36 1414
L36 1386
L46 1367
L55 1358
L74 1349
L130 1349
L149 1358
L158 1367
L167 1386
L167 1414
" />
<path d="M36 1180
L167 1180
" />
<path d="M36 1264
L139 1264
L158 1255
L167 1236
L167 1208
L158 1189
L149 1180
" />
<path d="M36 1086
L167 1086
" />
<path d="M55 1086
L46 1077
L36 1058
L36 1030
L46 1011
L64 1002
L167 1002
" />
<path d="M36 936
L36 861
" />
<path d="M-28 908
L139 908
L158 899
L167 880
L167 861
" />
<path d="M167 1667
L-28 1667
L111 1602
L-28 1536
L167 1536
" />
<path d="M167 1414
L158 1433
L149 1442
L130 1452
L74 1452
L55 1442
L46 1433
L36 1414
L36 1386
L46 1367
L55 1358
L74 1349
L130 1349
L149 1358
L158 1367
L167 1386
L167 1414
" />
<path d="M36 1180
L167 1180
" />
<path d="M36 1264
L139 1264
L158 1255
L167 1236
L167 1208
L158 1189
L149 1180
" />
<path d="M36 1086
L167 1086
" />
<path d="M55 1086
L46 1077
L36 1058
L36 1030
L46 1011
L64 1002
L167 1002
" />
<path d="M36 936
L36 861
" />
<path d="M-28 908
L139 908
L158 899
L167 880
L167 861
" />
</g>
<g style="fill:#848484; fill-opacity:0.0; 
stroke:#848484; stroke-width:59.0551; stroke-opacity:1; 
stroke-linecap:round; stroke-linejoin:round;">
<path d="M2351 7142
L2407 7161
L2501 7161
L2538 7142
L2557 7124
L2575 7086
L2575 7049
L2557 7011
L2538 6992
L2501 6974
L2426 6955
L2388 6936
L2369 6917
L2351 6880
L2351 6842
L2369 6805
L2388 6786
L2426 6767
L2519 6767
L2575 6786
" />
<path d="M2744 7161
L2744 6767
" />
<path d="M2969 7161
L2800 6936
" />
<path d="M2969 6767
L2744 6992
" />
<path d="M3307 6767
L3232 6767
L3194 6786
L3175 6805
L3138 6861
L3119 6936
L3119 7086
L3138 7124
L3157 7142
L3194 7161
L3269 7161
L3307 7142
L3325 7124
L3344 7086
L3344 6992
L3325 6955
L3307 6936
L3269 6917
L3194 6917
L3157 6936
L3138 6955
L3119 6992
" />
<path d="M3569 6936
L3532 6917
L3513 6899
L3494 6861
L3494 6842
L3513 6805
L3532 6786
L3569 6767
L3644 6767
L3682 6786
L3700 6805
L3719 6842
L3719 6861
L3700 6899
L3682 6917
L3644 6936
L3569 6936
L3532 6955
L3513 6974
L3494 7011
L3494 7086
L3513 7124
L3532 7142
L3569 7161
L3644 7161
L3682 7142
L3700 7124
L3719 7086
L3719 7011
L3700 6974
L3682 6955
L3644 6936
" />
<path d="M4094 7161
L3869 7161
" />
<path d="M3982 7161
L3982 6767
L3944 6824
L3907 6861
L3869 6880
" />
<path d="M4244 6805
L4263 6786
L4300 6767
L4394 6767
L4432 6786
L4450 6805
L4469 6842
L4469 6880
L4450 6936
L4225 7161
L4469 7161
" />
<path d="M4638 7161
L4638 6767
L4769 7049
L4900 6767
L4900 7161
" />
<path d="M5088 7161
L5088 6767
" />
<path d="M5275 7161
L5275 6767
L5500 7161
L5500 6767
" />
<path d="M5688 7161
L5688 6767
" />
</g>
<g style="fill:#848484; fill-opacity:0.0; 
stroke:#848484; stroke-width:39.3701; stroke-opacity:1; 
stroke-linecap:round; stroke-linejoin:round;">
<path d="M3996 5792
L3902 5792
L3902 5596
" />
<path d="M4164 5792
L4052 5792
" />
<path d="M4108 5792
L4108 5596
L4089 5624
L4071 5643
L4052 5652
" />
</g>
<g style="fill:#848484; fill-opacity:0.0; 
stroke:#848484; stroke-width:49.2126; stroke-opacity:1; 
stroke-linecap:round; stroke-linejoin:round;">
<path d="M5739 167
L5739 -28
L5805 111
L5871 -28
L5871 167
" />
<path d="M5993 167
L5974 158
L5964 149
L5955 130
L5955 74
L5964 55
L5974 46
L5993 36
L6021 36
L6039 46
L6049 55
L6058 74
L6058 130
L6049 149
L6039 158
L6021 167
L5993 167
" />
<path d="M6227 36
L6227 167
" />
<path d="M6142 36
L6142 139
L6152 158
L6171 167
L6199 167
L6217 158
L6227 149
" />
<path d="M6321 36
L6321 167
" />
<path d="M6321 55
L6330 46
L6349 36
L6377 36
L6396 46
L6405 64
L6405 167
" />
<path d="M6471 36
L6546 36
" />
<path d="M6499 -28
L6499 139
L6508 158
L6527 167
L6546 167
" />
<path d="M5739 167
L5739 -28
L5805 111
L5871 -28
L5871 167
" />
<path d="M5993 167
L5974 158
L5964 149
L5955 130
L5955 74
L5964 55
L5974 46
L5993 36
L6021 36
L6039 46
L6049 55
L6058 74
L6058 130
L6049 149
L6039 158
L6021 167
L5993 167
" />
<path d="M6227 36
L6227 167
" />
<path d="M6142 36
L6142 139
L6152 158
L6171 167
L6199 167
L6217 158
L6227 149
" />
<path d="M6321 36
L6321 167
" />
<path d="M6321 55
L6330 46
L6349 36
L6377 36
L6396 46
L6405 64
L6405 167
" />
<path d="M6471 36
L6546 36
" />
<path d="M6499 -28
L6499 139
L6508 158
L6527 167
L6546 167
" />
<path d="M8067 6517
L7871 6517
L8011 6452
L7871 6386
L8067 6386
" />
<path d="M8067 6264
L8058 6283
L8049 6292
L8030 6302
L7974 6302
L7955 6292
L7946 6283
L7936 6264
L7936 6236
L7946 6217
L7955 6208
L7974 6199
L8030 6199
L8049 6208
L8058 6217
L8067 6236
L8067 6264
" />
<path d="M7936 6030
L8067 6030
" />
<path d="M7936 6114
L8039 6114
L8058 6105
L8067 6086
L8067 6058
L8058 6039
L8049 6030
" />
<path d="M7936 5936
L8067 5936
" />
<path d="M7955 5936
L7946 5927
L7936 5908
L7936 5880
L7946 5861
L7964 5852
L8067 5852
" />
<path d="M7936 5786
L7936 5711
" />
<path d="M7871 5758
L8039 5758
L8058 5749
L8067 5730
L8067 5711
" />
<path d="M8067 6517
L7871 6517
L8011 6452
L7871 6386
L8067 6386
" />
<path d="M8067 6264
L8058 6283
L8049 6292
L8030 6302
L7974 6302
L7955 6292
L7946 6283
L7936 6264
L7936 6236
L7946 6217
L7955 6208
L7974 6199
L8030 6199
L8049 6208
L8058 6217
L8067 6236
L8067 6264
" />
<path d="M7936 6030
L8067 6030
" />
<path d="M7936 6114
L8039 6114
L8058 6105
L8067 6086
L8067 6058
L8058 6039
L8049 6030
" />
<path d="M7936 5936
L8067 5936
" />
<path d="M7955 5936
L7946 5927
L7936 5908
L7936 5880
L7946 5861
L7964 5852
L8067 5852
" />
<path d="M7936 5786
L7936 5711
" />
<path d="M7871 5758
L8039 5758
L8058 5749
L8067 5730
L8067 5711
" />
<path d="M3214 8067
L3214 7871
L3280 8011
L3346 7871
L3346 8067
" />
<path d="M3468 8067
L3449 8058
L3439 8049
L3430 8030
L3430 7974
L3439 7955
L3449 7946
L3468 7936
L3496 7936
L3514 7946
L3524 7955
L3533 7974
L3533 8030
L3524 8049
L3514 8058
L3496 8067
L3468 8067
" />
<path d="M3702 7936
L3702 8067
" />
<path d="M3617 7936
L3617 8039
L3627 8058
L3646 8067
L3674 8067
L3692 8058
L3702 8049
" />
<path d="M3796 7936
L3796 8067
" />
<path d="M3796 7955
L3805 7946
L3824 7936
L3852 7936
L3871 7946
L3880 7964
L3880 8067
" />
<path d="M3946 7936
L4021 7936
" />
<path d="M3974 7871
L3974 8039
L3983 8058
L4002 8067
L4021 8067
" />
<path d="M3214 8067
L3214 7871
L3280 8011
L3346 7871
L3346 8067
" />
<path d="M3468 8067
L3449 8058
L3439 8049
L3430 8030
L3430 7974
L3439 7955
L3449 7946
L3468 7936
L3496 7936
L3514 7946
L3524 7955
L3533 7974
L3533 8030
L3524 8049
L3514 8058
L3496 8067
L3468 8067
" />
<path d="M3702 7936
L3702 8067
" />
<path d="M3617 7936
L3617 8039
L3627 8058
L3646 8067
L3674 8067
L3692 8058
L3702 8049
" />
<path d="M3796 7936
L3796 8067
" />
<path d="M3796 7955
L3805 7946
L3824 7936
L3852 7936
L3871 7946
L3880 7964
L3880 8067
" />
<path d="M3946 7936
L4021 7936
" />
<path d="M3974 7871
L3974 8039
L3983 8058
L4002 8067
L4021 8067
" />
<path d="M1005 6247
L996 6266
L996 6294
L1005 6322
L1024 6341
L1043 6350
L1080 6360
L1108 6360
L1146 6350
L1164 6341
L1183 6322
L1192 6294
L1192 6275
L1183 6247
L1174 6238
L1108 6238
L1108 6275
" />
<path d="M1192 6153
L996 6153
L1192 6041
L996 6041
" />
<path d="M1192 5947
L996 5947
L996 5900
L1005 5872
L1024 5853
L1043 5844
L1080 5835
L1108 5835
L1146 5844
L1164 5853
L1183 5872
L1192 5900
L1192 5947
" />
<path d="M1192 5647
L1192 5760
" />
<path d="M1192 5703
L996 5703
L1024 5722
L1043 5741
L1052 5760
" />
<path d="M5488 6908
L5516 6917
L5563 6917
L5582 6908
L5591 6899
L5600 6880
L5600 6861
L5591 6842
L5582 6833
L5563 6824
L5525 6814
L5507 6805
L5497 6796
L5488 6777
L5488 6758
L5497 6739
L5507 6730
L5525 6721
L5572 6721
L5600 6730
" />
<path d="M5666 6721
L5713 6917
L5750 6777
L5788 6917
L5835 6721
" />
<path d="M5947 6721
L5985 6721
L6003 6730
L6022 6749
L6032 6786
L6032 6852
L6022 6889
L6003 6908
L5985 6917
L5947 6917
L5928 6908
L5910 6889
L5900 6852
L5900 6786
L5910 6749
L5928 6730
L5947 6721
" />
<path d="M6219 6917
L6107 6917
" />
<path d="M6163 6917
L6163 6721
L6144 6749
L6125 6768
L6107 6777
" />
<path d="M5839 10430
L5849 10402
L5858 10392
L5877 10383
L5905 10383
L5924 10392
L5933 10402
L5942 10420
L5942 10495
L5746 10495
L5746 10430
L5755 10411
L5764 10402
L5783 10392
L5802 10392
L5821 10402
L5830 10411
L5839 10430
L5839 10495
" />
<path d="M5942 10270
L5933 10289
L5914 10299
L5746 10299
" />
<path d="M5942 10111
L5839 10111
L5821 10120
L5811 10139
L5811 10177
L5821 10195
" />
<path d="M5933 10111
L5942 10130
L5942 10177
L5933 10195
L5914 10205
L5896 10205
L5877 10195
L5867 10177
L5867 10130
L5858 10111
" />
<path d="M5811 10017
L5942 10017
" />
<path d="M5830 10017
L5821 10008
L5811 9989
L5811 9961
L5821 9942
L5839 9933
L5942 9933
" />
<path d="M5942 9839
L5746 9839
" />
<path d="M5867 9821
L5942 9764
" />
<path d="M5811 9764
L5886 9839
" />
<path d="M5746 9708
L5746 9596
" />
<path d="M5942 9652
L5746 9652
" />
<path d="M5942 9530
L5746 9530
" />
<path d="M5942 9446
L5839 9446
L5821 9455
L5811 9474
L5811 9502
L5821 9521
L5830 9530
" />
<path d="M5942 9352
L5811 9352
" />
<path d="M5849 9352
L5830 9342
L5821 9333
L5811 9314
L5811 9296
" />
<path d="M5942 9202
L5933 9221
L5924 9230
L5905 9239
L5849 9239
L5830 9230
L5821 9221
L5811 9202
L5811 9174
L5821 9155
L5830 9146
L5849 9136
L5905 9136
L5924 9146
L5933 9155
L5942 9174
L5942 9202
" />
<path d="M5811 8968
L5942 8968
" />
<path d="M5811 9052
L5914 9052
L5933 9043
L5942 9024
L5942 8996
L5933 8977
L5924 8968
" />
<path d="M5811 8789
L5971 8789
L5989 8799
L5999 8808
L6008 8827
L6008 8855
L5999 8874
" />
<path d="M5933 8789
L5942 8808
L5942 8846
L5933 8864
L5924 8874
L5905 8883
L5849 8883
L5830 8874
L5821 8864
L5811 8846
L5811 8808
L5821 8789
" />
<path d="M5942 8696
L5746 8696
" />
<path d="M5942 8611
L5839 8611
L5821 8621
L5811 8639
L5811 8668
L5821 8686
L5830 8696
" />
<path d="M5867 8518
L5867 8368
" />
<path d="M5942 8274
L5746 8274
" />
<path d="M5839 8274
L5839 8161
" />
<path d="M5942 8161
L5746 8161
" />
<path d="M5942 8040
L5933 8058
L5924 8068
L5905 8077
L5849 8077
L5830 8068
L5821 8058
L5811 8040
L5811 8011
L5821 7993
L5830 7983
L5849 7974
L5905 7974
L5924 7983
L5933 7993
L5942 8011
L5942 8040
" />
<path d="M5942 7861
L5933 7880
L5914 7890
L5746 7890
" />
<path d="M5933 7711
L5942 7730
L5942 7768
L5933 7786
L5914 7796
L5839 7796
L5821 7786
L5811 7768
L5811 7730
L5821 7711
L5839 7702
L5858 7702
L5877 7796
" />
<path d="M4497 6721
L4563 6917
L4628 6721
" />
<path d="M4694 6917
L4694 6721
L4741 6721
L4769 6730
L4788 6749
L4797 6768
L4807 6805
L4807 6833
L4797 6871
L4788 6889
L4769 6908
L4741 6917
L4694 6917
" />
<path d="M4891 6917
L4891 6721
L4938 6721
L4966 6730
L4985 6749
L4994 6768
L5003 6805
L5003 6833
L4994 6871
L4985 6889
L4966 6908
L4938 6917
L4891 6917
" />
<path d="M5191 6917
L5078 6917
" />
<path d="M5135 6917
L5135 6721
L5116 6749
L5097 6768
L5078 6777
" />
<path d="M4814 10430
L4824 10402
L4833 10392
L4852 10383
L4880 10383
L4899 10392
L4908 10402
L4917 10420
L4917 10495
L4721 10495
L4721 10430
L4730 10411
L4739 10402
L4758 10392
L4777 10392
L4796 10402
L4805 10411
L4814 10430
L4814 10495
" />
<path d="M4917 10270
L4908 10289
L4889 10299
L4721 10299
" />
<path d="M4917 10111
L4814 10111
L4796 10120
L4786 10139
L4786 10177
L4796 10195
" />
<path d="M4908 10111
L4917 10130
L4917 10177
L4908 10195
L4889 10205
L4871 10205
L4852 10195
L4842 10177
L4842 10130
L4833 10111
" />
<path d="M4786 10017
L4917 10017
" />
<path d="M4805 10017
L4796 10008
L4786 9989
L4786 9961
L4796 9942
L4814 9933
L4917 9933
" />
<path d="M4917 9839
L4721 9839
" />
<path d="M4842 9821
L4917 9764
" />
<path d="M4786 9764
L4861 9839
" />
<path d="M4721 9708
L4721 9596
" />
<path d="M4917 9652
L4721 9652
" />
<path d="M4917 9530
L4721 9530
" />
<path d="M4917 9446
L4814 9446
L4796 9455
L4786 9474
L4786 9502
L4796 9521
L4805 9530
" />
<path d="M4917 9352
L4786 9352
" />
<path d="M4824 9352
L4805 9342
L4796 9333
L4786 9314
L4786 9296
" />
<path d="M4917 9202
L4908 9221
L4899 9230
L4880 9239
L4824 9239
L4805 9230
L4796 9221
L4786 9202
L4786 9174
L4796 9155
L4805 9146
L4824 9136
L4880 9136
L4899 9146
L4908 9155
L4917 9174
L4917 9202
" />
<path d="M4786 8968
L4917 8968
" />
<path d="M4786 9052
L4889 9052
L4908 9043
L4917 9024
L4917 8996
L4908 8977
L4899 8968
" />
<path d="M4786 8789
L4946 8789
L4964 8799
L4974 8808
L4983 8827
L4983 8855
L4974 8874
" />
<path d="M4908 8789
L4917 8808
L4917 8846
L4908 8864
L4899 8874
L4880 8883
L4824 8883
L4805 8874
L4796 8864
L4786 8846
L4786 8808
L4796 8789
" />
<path d="M4917 8696
L4721 8696
" />
<path d="M4917 8611
L4814 8611
L4796 8621
L4786 8639
L4786 8668
L4796 8686
L4805 8696
" />
<path d="M4842 8518
L4842 8368
" />
<path d="M4917 8274
L4721 8274
" />
<path d="M4814 8274
L4814 8161
" />
<path d="M4917 8161
L4721 8161
" />
<path d="M4917 8040
L4908 8058
L4899 8068
L4880 8077
L4824 8077
L4805 8068
L4796 8058
L4786 8040
L4786 8011
L4796 7993
L4805 7983
L4824 7974
L4880 7974
L4899 7983
L4908 7993
L4917 8011
L4917 8040
" />
<path d="M4917 7861
L4908 7880
L4889 7890
L4721 7890
" />
<path d="M4908 7711
L4917 7730
L4917 7768
L4908 7786
L4889 7796
L4814 7796
L4796 7786
L4786 7768
L4786 7730
L4796 7711
L4814 7702
L4833 7702
L4852 7796
" />
<path d="M6730 4397
L6721 4416
L6721 4444
L6730 4472
L6749 4491
L6768 4500
L6805 4510
L6833 4510
L6871 4500
L6889 4491
L6908 4472
L6917 4444
L6917 4425
L6908 4397
L6899 4388
L6833 4388
L6833 4425
" />
<path d="M6917 4303
L6721 4303
L6917 4191
L6721 4191
" />
<path d="M6917 4097
L6721 4097
L6721 4050
L6730 4022
L6749 4003
L6768 3994
L6805 3985
L6833 3985
L6871 3994
L6889 4003
L6908 4022
L6917 4050
L6917 4097
" />
<path d="M6917 3797
L6917 3910
" />
<path d="M6917 3853
L6721 3853
L6749 3872
L6768 3891
L6777 3910
" />
<path d="M7777 4139
L7805 4149
L7815 4158
L7824 4177
L7824 4205
L7815 4224
L7805 4233
L7786 4242
L7711 4242
L7711 4046
L7777 4046
L7796 4055
L7805 4064
L7815 4083
L7815 4102
L7805 4121
L7796 4130
L7777 4139
L7711 4139
" />
<path d="M7936 4242
L7918 4233
L7908 4214
L7908 4046
" />
<path d="M8096 4242
L8096 4139
L8086 4121
L8068 4111
L8030 4111
L8011 4121
" />
<path d="M8096 4233
L8077 4242
L8030 4242
L8011 4233
L8002 4214
L8002 4196
L8011 4177
L8030 4167
L8077 4167
L8096 4158
" />
<path d="M8189 4111
L8189 4242
" />
<path d="M8189 4130
L8199 4121
L8218 4111
L8246 4111
L8264 4121
L8274 4139
L8274 4242
" />
<path d="M8368 4242
L8368 4046
" />
<path d="M8386 4167
L8443 4242
" />
<path d="M8443 4111
L8368 4186
" />
<path d="M8499 4046
L8611 4046
" />
<path d="M8555 4242
L8555 4046
" />
<path d="M8677 4242
L8677 4046
" />
<path d="M8761 4242
L8761 4139
L8752 4121
L8733 4111
L8705 4111
L8686 4121
L8677 4130
" />
<path d="M8855 4242
L8855 4111
" />
<path d="M8855 4149
L8864 4130
L8874 4121
L8893 4111
L8911 4111
" />
<path d="M9005 4242
L8986 4233
L8977 4224
L8968 4205
L8968 4149
L8977 4130
L8986 4121
L9005 4111
L9033 4111
L9052 4121
L9061 4130
L9071 4149
L9071 4205
L9061 4224
L9052 4233
L9033 4242
L9005 4242
" />
<path d="M9239 4111
L9239 4242
" />
<path d="M9155 4111
L9155 4214
L9164 4233
L9183 4242
L9211 4242
L9230 4233
L9239 4224
" />
<path d="M9417 4111
L9417 4271
L9408 4289
L9399 4299
L9380 4308
L9352 4308
L9333 4299
" />
<path d="M9417 4233
L9399 4242
L9361 4242
L9342 4233
L9333 4224
L9324 4205
L9324 4149
L9333 4130
L9342 4121
L9361 4111
L9399 4111
L9417 4121
" />
<path d="M9511 4242
L9511 4046
" />
<path d="M9596 4242
L9596 4139
L9586 4121
L9567 4111
L9539 4111
L9521 4121
L9511 4130
" />
<path d="M9689 4167
L9839 4167
" />
<path d="M9933 4242
L9933 4046
" />
<path d="M9933 4139
L10046 4139
" />
<path d="M10046 4242
L10046 4046
" />
<path d="M10167 4242
L10149 4233
L10139 4224
L10130 4205
L10130 4149
L10139 4130
L10149 4121
L10167 4111
L10195 4111
L10214 4121
L10224 4130
L10233 4149
L10233 4205
L10224 4224
L10214 4233
L10195 4242
L10167 4242
" />
<path d="M10345 4242
L10327 4233
L10317 4214
L10317 4046
" />
<path d="M10495 4233
L10477 4242
L10439 4242
L10420 4233
L10411 4214
L10411 4139
L10420 4121
L10439 4111
L10477 4111
L10495 4121
L10505 4139
L10505 4158
L10411 4177
" />
<path d="M6908 2566
L6917 2538
L6917 2491
L6908 2472
L6899 2463
L6880 2453
L6861 2453
L6842 2463
L6833 2472
L6824 2491
L6814 2528
L6805 2547
L6796 2557
L6777 2566
L6758 2566
L6739 2557
L6730 2547
L6721 2528
L6721 2482
L6730 2453
" />
<path d="M6721 2388
L6917 2341
L6777 2303
L6917 2266
L6721 2219
" />
<path d="M6917 2144
L6721 2144
" />
<path d="M6917 2050
L6721 2050
L6917 1938
L6721 1938
" />
<path d="M6917 1741
L6917 1853
" />
<path d="M6917 1797
L6721 1797
L6749 1816
L6768 1835
L6777 1853
" />
<path d="M7777 2164
L7805 2174
L7815 2183
L7824 2202
L7824 2230
L7815 2249
L7805 2258
L7786 2267
L7711 2267
L7711 2071
L7777 2071
L7796 2080
L7805 2089
L7815 2108
L7815 2127
L7805 2146
L7796 2155
L7777 2164
L7711 2164
" />
<path d="M7936 2267
L7918 2258
L7908 2239
L7908 2071
" />
<path d="M8096 2267
L8096 2164
L8086 2146
L8068 2136
L8030 2136
L8011 2146
" />
<path d="M8096 2258
L8077 2267
L8030 2267
L8011 2258
L8002 2239
L8002 2221
L8011 2202
L8030 2192
L8077 2192
L8096 2183
" />
<path d="M8189 2136
L8189 2267
" />
<path d="M8189 2155
L8199 2146
L8218 2136
L8246 2136
L8264 2146
L8274 2164
L8274 2267
" />
<path d="M8368 2267
L8368 2071
" />
<path d="M8386 2192
L8443 2267
" />
<path d="M8443 2136
L8368 2211
" />
<path d="M8499 2071
L8611 2071
" />
<path d="M8555 2267
L8555 2071
" />
<path d="M8677 2267
L8677 2071
" />
<path d="M8761 2267
L8761 2164
L8752 2146
L8733 2136
L8705 2136
L8686 2146
L8677 2155
" />
<path d="M8855 2267
L8855 2136
" />
<path d="M8855 2174
L8864 2155
L8874 2146
L8893 2136
L8911 2136
" />
<path d="M9005 2267
L8986 2258
L8977 2249
L8968 2230
L8968 2174
L8977 2155
L8986 2146
L9005 2136
L9033 2136
L9052 2146
L9061 2155
L9071 2174
L9071 2230
L9061 2249
L9052 2258
L9033 2267
L9005 2267
" />
<path d="M9239 2136
L9239 2267
" />
<path d="M9155 2136
L9155 2239
L9164 2258
L9183 2267
L9211 2267
L9230 2258
L9239 2249
" />
<path d="M9417 2136
L9417 2296
L9408 2314
L9399 2324
L9380 2333
L9352 2333
L9333 2324
" />
<path d="M9417 2258
L9399 2267
L9361 2267
L9342 2258
L9333 2249
L9324 2230
L9324 2174
L9333 2155
L9342 2146
L9361 2136
L9399 2136
L9417 2146
" />
<path d="M9511 2267
L9511 2071
" />
<path d="M9596 2267
L9596 2164
L9586 2146
L9567 2136
L9539 2136
L9521 2146
L9511 2155
" />
<path d="M9689 2192
L9839 2192
" />
<path d="M9933 2267
L9933 2071
" />
<path d="M9933 2164
L10046 2164
" />
<path d="M10046 2267
L10046 2071
" />
<path d="M10167 2267
L10149 2258
L10139 2249
L10130 2230
L10130 2174
L10139 2155
L10149 2146
L10167 2136
L10195 2136
L10214 2146
L10224 2155
L10233 2174
L10233 2230
L10224 2249
L10214 2258
L10195 2267
L10167 2267
" />
<path d="M10345 2267
L10327 2258
L10317 2239
L10317 2071
" />
<path d="M10495 2258
L10477 2267
L10439 2267
L10420 2258
L10411 2239
L10411 2164
L10420 2146
L10439 2136
L10477 2136
L10495 2146
L10505 2164
L10505 2183
L10411 2202
" />
<path d="M1342 5299
L1146 5299
L1146 5252
L1155 5224
L1174 5205
L1193 5196
L1230 5186
L1258 5186
L1296 5196
L1314 5205
L1333 5224
L1342 5252
L1342 5299
" />
<path d="M1342 5102
L1146 5102
" />
<path d="M1342 5008
L1146 5008
L1342 4896
L1146 4896
" />
<path d="M1342 4699
L1342 4811
" />
<path d="M1342 4755
L1146 4755
L1174 4774
L1193 4793
L1202 4811
" />
<path d="M-2372 4939
L-2344 4949
L-2334 4958
L-2325 4977
L-2325 5005
L-2334 5024
L-2344 5033
L-2363 5042
L-2438 5042
L-2438 4846
L-2372 4846
L-2353 4855
L-2344 4864
L-2334 4883
L-2334 4902
L-2344 4921
L-2353 4930
L-2372 4939
L-2438 4939
" />
<path d="M-2213 5042
L-2231 5033
L-2241 5014
L-2241 4846
" />
<path d="M-2053 5042
L-2053 4939
L-2063 4921
L-2081 4911
L-2119 4911
L-2138 4921
" />
<path d="M-2053 5033
L-2072 5042
L-2119 5042
L-2138 5033
L-2147 5014
L-2147 4996
L-2138 4977
L-2119 4967
L-2072 4967
L-2053 4958
" />
<path d="M-1960 4911
L-1960 5042
" />
<path d="M-1960 4930
L-1950 4921
L-1931 4911
L-1903 4911
L-1885 4921
L-1875 4939
L-1875 5042
" />
<path d="M-1781 5042
L-1781 4846
" />
<path d="M-1763 4967
L-1706 5042
" />
<path d="M-1706 4911
L-1781 4986
" />
<path d="M-1650 4846
L-1538 4846
" />
<path d="M-1594 5042
L-1594 4846
" />
<path d="M-1472 5042
L-1472 4846
" />
<path d="M-1388 5042
L-1388 4939
L-1397 4921
L-1416 4911
L-1444 4911
L-1463 4921
L-1472 4930
" />
<path d="M-1294 5042
L-1294 4911
" />
<path d="M-1294 4949
L-1285 4930
L-1275 4921
L-1256 4911
L-1238 4911
" />
<path d="M-1144 5042
L-1163 5033
L-1172 5024
L-1181 5005
L-1181 4949
L-1172 4930
L-1163 4921
L-1144 4911
L-1116 4911
L-1097 4921
L-1088 4930
L-1078 4949
L-1078 5005
L-1088 5024
L-1097 5033
L-1116 5042
L-1144 5042
" />
<path d="M-910 4911
L-910 5042
" />
<path d="M-994 4911
L-994 5014
L-985 5033
L-966 5042
L-938 5042
L-919 5033
L-910 5024
" />
<path d="M-732 4911
L-732 5071
L-741 5089
L-750 5099
L-769 5108
L-797 5108
L-816 5099
" />
<path d="M-732 5033
L-750 5042
L-788 5042
L-807 5033
L-816 5024
L-825 5005
L-825 4949
L-816 4930
L-807 4921
L-788 4911
L-750 4911
L-732 4921
" />
<path d="M-638 5042
L-638 4846
" />
<path d="M-553 5042
L-553 4939
L-563 4921
L-582 4911
L-610 4911
L-628 4921
L-638 4930
" />
<path d="M-460 4967
L-310 4967
" />
<path d="M-216 5042
L-216 4846
" />
<path d="M-216 4939
L-103 4939
" />
<path d="M-103 5042
L-103 4846
" />
<path d="M17 5042
L0 5033
L-10 5024
L-19 5005
L-19 4949
L-10 4930
L0 4921
L17 4911
L45 4911
L64 4921
L74 4930
L83 4949
L83 5005
L74 5024
L64 5033
L45 5042
L17 5042
" />
<path d="M195 5042
L177 5033
L167 5014
L167 4846
" />
<path d="M345 5033
L327 5042
L289 5042
L270 5033
L261 5014
L261 4939
L270 4921
L289 4911
L327 4911
L345 4921
L355 4939
L355 4958
L261 4977
" />
<path d="M6917 3402
L6721 3402
L6721 3355
L6730 3327
L6749 3308
L6768 3299
L6805 3289
L6833 3289
L6871 3299
L6889 3308
L6908 3327
L6917 3355
L6917 3402
" />
<path d="M6721 3167
L6721 3130
L6730 3111
L6749 3093
L6786 3083
L6852 3083
L6889 3093
L6908 3111
L6917 3130
L6917 3167
L6908 3186
L6889 3205
L6852 3214
L6786 3214
L6749 3205
L6730 3186
L6721 3167
" />
<path d="M6917 2896
L6917 3008
" />
<path d="M6917 2952
L6721 2952
L6749 2971
L6768 2989
L6777 3008
" />
<path d="M7777 3139
L7805 3149
L7815 3158
L7824 3177
L7824 3205
L7815 3224
L7805 3233
L7786 3242
L7711 3242
L7711 3046
L7777 3046
L7796 3055
L7805 3064
L7815 3083
L7815 3102
L7805 3121
L7796 3130
L7777 3139
L7711 3139
" />
<path d="M7936 3242
L7918 3233
L7908 3214
L7908 3046
" />
<path d="M8096 3242
L8096 3139
L8086 3121
L8068 3111
L8030 3111
L8011 3121
" />
<path d="M8096 3233
L8077 3242
L8030 3242
L8011 3233
L8002 3214
L8002 3196
L8011 3177
L8030 3167
L8077 3167
L8096 3158
" />
<path d="M8189 3111
L8189 3242
" />
<path d="M8189 3130
L8199 3121
L8218 3111
L8246 3111
L8264 3121
L8274 3139
L8274 3242
" />
<path d="M8368 3242
L8368 3046
" />
<path d="M8386 3167
L8443 3242
" />
<path d="M8443 3111
L8368 3186
" />
<path d="M8499 3046
L8611 3046
" />
<path d="M8555 3242
L8555 3046
" />
<path d="M8677 3242
L8677 3046
" />
<path d="M8761 3242
L8761 3139
L8752 3121
L8733 3111
L8705 3111
L8686 3121
L8677 3130
" />
<path d="M8855 3242
L8855 3111
" />
<path d="M8855 3149
L8864 3130
L8874 3121
L8893 3111
L8911 3111
" />
<path d="M9005 3242
L8986 3233
L8977 3224
L8968 3205
L8968 3149
L8977 3130
L8986 3121
L9005 3111
L9033 3111
L9052 3121
L9061 3130
L9071 3149
L9071 3205
L9061 3224
L9052 3233
L9033 3242
L9005 3242
" />
<path d="M9239 3111
L9239 3242
" />
<path d="M9155 3111
L9155 3214
L9164 3233
L9183 3242
L9211 3242
L9230 3233
L9239 3224
" />
<path d="M9417 3111
L9417 3271
L9408 3289
L9399 3299
L9380 3308
L9352 3308
L9333 3299
" />
<path d="M9417 3233
L9399 3242
L9361 3242
L9342 3233
L9333 3224
L9324 3205
L9324 3149
L9333 3130
L9342 3121
L9361 3111
L9399 3111
L9417 3121
" />
<path d="M9511 3242
L9511 3046
" />
<path d="M9596 3242
L9596 3139
L9586 3121
L9567 3111
L9539 3111
L9521 3121
L9511 3130
" />
<path d="M9689 3167
L9839 3167
" />
<path d="M9933 3242
L9933 3046
" />
<path d="M9933 3139
L10046 3139
" />
<path d="M10046 3242
L10046 3046
" />
<path d="M10167 3242
L10149 3233
L10139 3224
L10130 3205
L10130 3149
L10139 3130
L10149 3121
L10167 3111
L10195 3111
L10214 3121
L10224 3130
L10233 3149
L10233 3205
L10224 3224
L10214 3233
L10195 3242
L10167 3242
" />
<path d="M10345 3242
L10327 3233
L10317 3214
L10317 3046
" />
<path d="M10495 3233
L10477 3242
L10439 3242
L10420 3233
L10411 3214
L10411 3139
L10420 3121
L10439 3111
L10477 3111
L10495 3121
L10505 3139
L10505 3158
L10411 3177
" />
<path d="M1155 6247
L1146 6266
L1146 6294
L1155 6322
L1174 6341
L1193 6350
L1230 6360
L1258 6360
L1296 6350
L1314 6341
L1333 6322
L1342 6294
L1342 6275
L1333 6247
L1324 6238
L1258 6238
L1258 6275
" />
<path d="M1342 6153
L1146 6153
L1342 6041
L1146 6041
" />
<path d="M1342 5947
L1146 5947
L1146 5900
L1155 5872
L1174 5853
L1193 5844
L1230 5835
L1258 5835
L1296 5844
L1314 5853
L1333 5872
L1342 5900
L1342 5947
" />
<path d="M1342 5647
L1342 5760
" />
<path d="M1342 5703
L1146 5703
L1174 5722
L1193 5741
L1202 5760
" />
<path d="M-2372 5914
L-2344 5924
L-2334 5933
L-2325 5952
L-2325 5980
L-2334 5999
L-2344 6008
L-2363 6017
L-2438 6017
L-2438 5821
L-2372 5821
L-2353 5830
L-2344 5839
L-2334 5858
L-2334 5877
L-2344 5896
L-2353 5905
L-2372 5914
L-2438 5914
" />
<path d="M-2213 6017
L-2231 6008
L-2241 5989
L-2241 5821
" />
<path d="M-2053 6017
L-2053 5914
L-2063 5896
L-2081 5886
L-2119 5886
L-2138 5896
" />
<path d="M-2053 6008
L-2072 6017
L-2119 6017
L-2138 6008
L-2147 5989
L-2147 5971
L-2138 5952
L-2119 5942
L-2072 5942
L-2053 5933
" />
<path d="M-1960 5886
L-1960 6017
" />
<path d="M-1960 5905
L-1950 5896
L-1931 5886
L-1903 5886
L-1885 5896
L-1875 5914
L-1875 6017
" />
<path d="M-1781 6017
L-1781 5821
" />
<path d="M-1763 5942
L-1706 6017
" />
<path d="M-1706 5886
L-1781 5961
" />
<path d="M-1650 5821
L-1538 5821
" />
<path d="M-1594 6017
L-1594 5821
" />
<path d="M-1472 6017
L-1472 5821
" />
<path d="M-1388 6017
L-1388 5914
L-1397 5896
L-1416 5886
L-1444 5886
L-1463 5896
L-1472 5905
" />
<path d="M-1294 6017
L-1294 5886
" />
<path d="M-1294 5924
L-1285 5905
L-1275 5896
L-1256 5886
L-1238 5886
" />
<path d="M-1144 6017
L-1163 6008
L-1172 5999
L-1181 5980
L-1181 5924
L-1172 5905
L-1163 5896
L-1144 5886
L-1116 5886
L-1097 5896
L-1088 5905
L-1078 5924
L-1078 5980
L-1088 5999
L-1097 6008
L-1116 6017
L-1144 6017
" />
<path d="M-910 5886
L-910 6017
" />
<path d="M-994 5886
L-994 5989
L-985 6008
L-966 6017
L-938 6017
L-919 6008
L-910 5999
" />
<path d="M-732 5886
L-732 6046
L-741 6064
L-750 6074
L-769 6083
L-797 6083
L-816 6074
" />
<path d="M-732 6008
L-750 6017
L-788 6017
L-807 6008
L-816 5999
L-825 5980
L-825 5924
L-816 5905
L-807 5896
L-788 5886
L-750 5886
L-732 5896
" />
<path d="M-638 6017
L-638 5821
" />
<path d="M-553 6017
L-553 5914
L-563 5896
L-582 5886
L-610 5886
L-628 5896
L-638 5905
" />
<path d="M-460 5942
L-310 5942
" />
<path d="M-216 6017
L-216 5821
" />
<path d="M-216 5914
L-103 5914
" />
<path d="M-103 6017
L-103 5821
" />
<path d="M17 6017
L0 6008
L-10 5999
L-19 5980
L-19 5924
L-10 5905
L0 5896
L17 5886
L45 5886
L64 5896
L74 5905
L83 5924
L83 5980
L74 5999
L64 6008
L45 6017
L17 6017
" />
<path d="M195 6017
L177 6008
L167 5989
L167 5821
" />
<path d="M345 6008
L327 6017
L289 6017
L270 6008
L261 5989
L261 5914
L270 5896
L289 5886
L327 5886
L345 5896
L355 5914
L355 5933
L261 5952
" />
<path d="M1333 4416
L1342 4388
L1342 4341
L1333 4322
L1324 4313
L1305 4303
L1286 4303
L1267 4313
L1258 4322
L1249 4341
L1239 4378
L1230 4397
L1221 4407
L1202 4416
L1183 4416
L1164 4407
L1155 4397
L1146 4378
L1146 4332
L1155 4303
" />
<path d="M1146 4238
L1342 4191
L1202 4153
L1342 4116
L1146 4069
" />
<path d="M1342 3994
L1146 3994
" />
<path d="M1342 3900
L1146 3900
L1342 3788
L1146 3788
" />
<path d="M1342 3591
L1342 3703
" />
<path d="M1342 3647
L1146 3647
L1174 3666
L1193 3685
L1202 3703
" />
<path d="M-2372 3939
L-2344 3949
L-2334 3958
L-2325 3977
L-2325 4005
L-2334 4024
L-2344 4033
L-2363 4042
L-2438 4042
L-2438 3846
L-2372 3846
L-2353 3855
L-2344 3864
L-2334 3883
L-2334 3902
L-2344 3921
L-2353 3930
L-2372 3939
L-2438 3939
" />
<path d="M-2213 4042
L-2231 4033
L-2241 4014
L-2241 3846
" />
<path d="M-2053 4042
L-2053 3939
L-2063 3921
L-2081 3911
L-2119 3911
L-2138 3921
" />
<path d="M-2053 4033
L-2072 4042
L-2119 4042
L-2138 4033
L-2147 4014
L-2147 3996
L-2138 3977
L-2119 3967
L-2072 3967
L-2053 3958
" />
<path d="M-1960 3911
L-1960 4042
" />
<path d="M-1960 3930
L-1950 3921
L-1931 3911
L-1903 3911
L-1885 3921
L-1875 3939
L-1875 4042
" />
<path d="M-1781 4042
L-1781 3846
" />
<path d="M-1763 3967
L-1706 4042
" />
<path d="M-1706 3911
L-1781 3986
" />
<path d="M-1650 3846
L-1538 3846
" />
<path d="M-1594 4042
L-1594 3846
" />
<path d="M-1472 4042
L-1472 3846
" />
<path d="M-1388 4042
L-1388 3939
L-1397 3921
L-1416 3911
L-1444 3911
L-1463 3921
L-1472 3930
" />
<path d="M-1294 4042
L-1294 3911
" />
<path d="M-1294 3949
L-1285 3930
L-1275 3921
L-1256 3911
L-1238 3911
" />
<path d="M-1144 4042
L-1163 4033
L-1172 4024
L-1181 4005
L-1181 3949
L-1172 3930
L-1163 3921
L-1144 3911
L-1116 3911
L-1097 3921
L-1088 3930
L-1078 3949
L-1078 4005
L-1088 4024
L-1097 4033
L-1116 4042
L-1144 4042
" />
<path d="M-910 3911
L-910 4042
" />
<path d="M-994 3911
L-994 4014
L-985 4033
L-966 4042
L-938 4042
L-919 4033
L-910 4024
" />
<path d="M-732 3911
L-732 4071
L-741 4089
L-750 4099
L-769 4108
L-797 4108
L-816 4099
" />
<path d="M-732 4033
L-750 4042
L-788 4042
L-807 4033
L-816 4024
L-825 4005
L-825 3949
L-816 3930
L-807 3921
L-788 3911
L-750 3911
L-732 3921
" />
<path d="M-638 4042
L-638 3846
" />
<path d="M-553 4042
L-553 3939
L-563 3921
L-582 3911
L-610 3911
L-628 3921
L-638 3930
" />
<path d="M-460 3967
L-310 3967
" />
<path d="M-216 4042
L-216 3846
" />
<path d="M-216 3939
L-103 3939
" />
<path d="M-103 4042
L-103 3846
" />
<path d="M17 4042
L0 4033
L-10 4024
L-19 4005
L-19 3949
L-10 3930
L0 3921
L17 3911
L45 3911
L64 3921
L74 3930
L83 3949
L83 4005
L74 4024
L64 4033
L45 4042
L17 4042
" />
<path d="M195 4042
L177 4033
L167 4014
L167 3846
" />
<path d="M345 4033
L327 4042
L289 4042
L270 4033
L261 4014
L261 3939
L270 3921
L289 3911
L327 3911
L345 3921
L355 3939
L355 3958
L261 3977
" />
<path d="M2813 1333
L2841 1342
L2888 1342
L2907 1333
L2916 1324
L2925 1305
L2925 1286
L2916 1267
L2907 1258
L2888 1249
L2850 1239
L2832 1230
L2822 1221
L2813 1202
L2813 1183
L2822 1164
L2832 1155
L2850 1146
L2897 1146
L2925 1155
" />
<path d="M2991 1146
L3038 1342
L3075 1202
L3113 1342
L3160 1146
" />
<path d="M3272 1146
L3310 1146
L3328 1155
L3347 1174
L3357 1211
L3357 1277
L3347 1314
L3328 1333
L3310 1342
L3272 1342
L3253 1333
L3235 1314
L3225 1277
L3225 1211
L3235 1174
L3253 1155
L3272 1146
" />
<path d="M3544 1342
L3432 1342
" />
<path d="M3488 1342
L3488 1146
L3469 1174
L3450 1193
L3432 1202
" />
<path d="M3164 280
L3174 252
L3183 242
L3202 233
L3230 233
L3249 242
L3258 252
L3267 270
L3267 345
L3071 345
L3071 280
L3080 261
L3089 252
L3108 242
L3127 242
L3146 252
L3155 261
L3164 280
L3164 345
" />
<path d="M3267 120
L3258 139
L3239 149
L3071 149
" />
<path d="M3267 -38
L3164 -38
L3146 -29
L3136 -10
L3136 27
L3146 45
" />
<path d="M3258 -38
L3267 -19
L3267 27
L3258 45
L3239 55
L3221 55
L3202 45
L3192 27
L3192 -19
L3183 -38
" />
<path d="M3136 -132
L3267 -132
" />
<path d="M3155 -132
L3146 -141
L3136 -160
L3136 -188
L3146 -207
L3164 -216
L3267 -216
" />
<path d="M3267 -310
L3071 -310
" />
<path d="M3192 -328
L3267 -385
" />
<path d="M3136 -385
L3211 -310
" />
<path d="M3071 -441
L3071 -553
" />
<path d="M3267 -497
L3071 -497
" />
<path d="M3267 -619
L3071 -619
" />
<path d="M3267 -703
L3164 -703
L3146 -694
L3136 -675
L3136 -647
L3146 -628
L3155 -619
" />
<path d="M3267 -797
L3136 -797
" />
<path d="M3174 -797
L3155 -807
L3146 -816
L3136 -835
L3136 -853
" />
<path d="M3267 -947
L3258 -928
L3249 -919
L3230 -910
L3174 -910
L3155 -919
L3146 -928
L3136 -947
L3136 -975
L3146 -994
L3155 -1003
L3174 -1013
L3230 -1013
L3249 -1003
L3258 -994
L3267 -975
L3267 -947
" />
<path d="M3136 -1181
L3267 -1181
" />
<path d="M3136 -1097
L3239 -1097
L3258 -1106
L3267 -1125
L3267 -1153
L3258 -1172
L3249 -1181
" />
<path d="M3136 -1360
L3296 -1360
L3314 -1350
L3324 -1341
L3333 -1322
L3333 -1294
L3324 -1275
" />
<path d="M3258 -1360
L3267 -1341
L3267 -1303
L3258 -1285
L3249 -1275
L3230 -1266
L3174 -1266
L3155 -1275
L3146 -1285
L3136 -1303
L3136 -1341
L3146 -1360
" />
<path d="M3267 -1453
L3071 -1453
" />
<path d="M3267 -1538
L3164 -1538
L3146 -1528
L3136 -1510
L3136 -1481
L3146 -1463
L3155 -1453
" />
<path d="M3192 -1631
L3192 -1781
" />
<path d="M3267 -1875
L3071 -1875
" />
<path d="M3164 -1875
L3164 -1988
" />
<path d="M3267 -1988
L3071 -1988
" />
<path d="M3267 -2109
L3258 -2091
L3249 -2081
L3230 -2072
L3174 -2072
L3155 -2081
L3146 -2091
L3136 -2109
L3136 -2138
L3146 -2156
L3155 -2166
L3174 -2175
L3230 -2175
L3249 -2166
L3258 -2156
L3267 -2138
L3267 -2109
" />
<path d="M3267 -2288
L3258 -2269
L3239 -2259
L3071 -2259
" />
<path d="M3258 -2438
L3267 -2419
L3267 -2381
L3258 -2363
L3239 -2353
L3164 -2353
L3146 -2363
L3136 -2381
L3136 -2419
L3146 -2438
L3164 -2447
L3183 -2447
L3202 -2353
" />
<path d="M1822 1146
L1888 1342
L1953 1146
" />
<path d="M2019 1342
L2019 1146
L2066 1146
L2094 1155
L2113 1174
L2122 1193
L2132 1230
L2132 1258
L2122 1296
L2113 1314
L2094 1333
L2066 1342
L2019 1342
" />
<path d="M2216 1342
L2216 1146
L2263 1146
L2291 1155
L2310 1174
L2319 1193
L2328 1230
L2328 1258
L2319 1296
L2310 1314
L2291 1333
L2263 1342
L2216 1342
" />
<path d="M2516 1342
L2403 1342
" />
<path d="M2460 1342
L2460 1146
L2441 1174
L2422 1193
L2403 1202
" />
<path d="M2164 280
L2174 252
L2183 242
L2202 233
L2230 233
L2249 242
L2258 252
L2267 270
L2267 345
L2071 345
L2071 280
L2080 261
L2089 252
L2108 242
L2127 242
L2146 252
L2155 261
L2164 280
L2164 345
" />
<path d="M2267 120
L2258 139
L2239 149
L2071 149
" />
<path d="M2267 -38
L2164 -38
L2146 -29
L2136 -10
L2136 27
L2146 45
" />
<path d="M2258 -38
L2267 -19
L2267 27
L2258 45
L2239 55
L2221 55
L2202 45
L2192 27
L2192 -19
L2183 -38
" />
<path d="M2136 -132
L2267 -132
" />
<path d="M2155 -132
L2146 -141
L2136 -160
L2136 -188
L2146 -207
L2164 -216
L2267 -216
" />
<path d="M2267 -310
L2071 -310
" />
<path d="M2192 -328
L2267 -385
" />
<path d="M2136 -385
L2211 -310
" />
<path d="M2071 -441
L2071 -553
" />
<path d="M2267 -497
L2071 -497
" />
<path d="M2267 -619
L2071 -619
" />
<path d="M2267 -703
L2164 -703
L2146 -694
L2136 -675
L2136 -647
L2146 -628
L2155 -619
" />
<path d="M2267 -797
L2136 -797
" />
<path d="M2174 -797
L2155 -807
L2146 -816
L2136 -835
L2136 -853
" />
<path d="M2267 -947
L2258 -928
L2249 -919
L2230 -910
L2174 -910
L2155 -919
L2146 -928
L2136 -947
L2136 -975
L2146 -994
L2155 -1003
L2174 -1013
L2230 -1013
L2249 -1003
L2258 -994
L2267 -975
L2267 -947
" />
<path d="M2136 -1181
L2267 -1181
" />
<path d="M2136 -1097
L2239 -1097
L2258 -1106
L2267 -1125
L2267 -1153
L2258 -1172
L2249 -1181
" />
<path d="M2136 -1360
L2296 -1360
L2314 -1350
L2324 -1341
L2333 -1322
L2333 -1294
L2324 -1275
" />
<path d="M2258 -1360
L2267 -1341
L2267 -1303
L2258 -1285
L2249 -1275
L2230 -1266
L2174 -1266
L2155 -1275
L2146 -1285
L2136 -1303
L2136 -1341
L2146 -1360
" />
<path d="M2267 -1453
L2071 -1453
" />
<path d="M2267 -1538
L2164 -1538
L2146 -1528
L2136 -1510
L2136 -1481
L2146 -1463
L2155 -1453
" />
<path d="M2192 -1631
L2192 -1781
" />
<path d="M2267 -1875
L2071 -1875
" />
<path d="M2164 -1875
L2164 -1988
" />
<path d="M2267 -1988
L2071 -1988
" />
<path d="M2267 -2109
L2258 -2091
L2249 -2081
L2230 -2072
L2174 -2072
L2155 -2081
L2146 -2091
L2136 -2109
L2136 -2138
L2146 -2156
L2155 -2166
L2174 -2175
L2230 -2175
L2249 -2166
L2258 -2156
L2267 -2138
L2267 -2109
" />
<path d="M2267 -2288
L2258 -2269
L2239 -2259
L2071 -2259
" />
<path d="M2258 -2438
L2267 -2419
L2267 -2381
L2258 -2363
L2239 -2353
L2164 -2353
L2146 -2363
L2136 -2381
L2136 -2419
L2146 -2438
L2164 -2447
L2183 -2447
L2202 -2353
" />
</g>
<g style="fill:#000000; fill-opacity:0.0; 
stroke:#000000; stroke-width:49.2126; stroke-opacity:1; 
stroke-linecap:round; stroke-linejoin:round;">
</g>
<g style="fill:#C2C200; fill-opacity:0.0; 
stroke:#C2C200; stroke-width:49.2126; stroke-opacity:1; 
stroke-linecap:round; stroke-linejoin:round;">
</g>
<g style="fill:#C2C200; fill-opacity:0.0; 
stroke:#C2C200; stroke-width:59.0551; stroke-opacity:1; 
stroke-linecap:round; stroke-linejoin:round;">
<path d="M253.937 588.937 A375 375 0.0 0 0 628.937 963.937 " />
<path d="M628.937 1593.94 A315 315 0.0 0 0 628.937 963.937 " />
<path d="M628.937 1593.94 A375 375 0.0 0 0 254.071 1978.93 " />
<path d="M2913.94 7803.94 A375 375 0.0 0 0 3288.94 7428.94 " />
<path d="M3918.94 7428.94 A375 375 0.0 0 0 4293.94 7803.94 " />
<path d="M3918.94 7428.94 A315 315 0.0 0 0 3288.94 7428.94 " />
<path d="M7803.94 6818.94 A375 375 0.0 0 0 7428.94 6443.94 " />
<path d="M7428.94 5813.94 A315 315 0.0 0 0 7428.94 6443.94 " />
<path d="M7428.94 5813.94 A375 375 0.0 0 0 7803.94 5438.94 " />
<path d="M7803 803
L7803 5438
" />
<path d="M2913 7803
L803 7803
" />
<path d="M5438 253
L578 253
" />
<path d="M5813.94 628.937 A375 375 0.0 0 0 5438.94 253.937 " />
<path d="M6818.94 253.937 A375 375 0.0 0 0 6443.94 628.937 " />
<path d="M5813.94 628.937 A315 315 0.0 0 0 6443.94 628.937 " />
<path d="M253.937 7253.94 A550 550 0.0 0 0 803.937 7803.94 " />
<path d="M7253.94 7803.94 A550 550 0.0 0 0 7803.94 7253.94 " />
<path d="M6818 253
L7253 253
" />
<path d="M253 7253
L253 1978
" />
<path d="M7253 7803
L4293 7803
" />
<path d="M7803 6818
L7803 7253
" />
<path d="M7803.94 803.937 A550 550 0.0 0 0 7253.94 253.937 " />
<path d="M578.937 253.937 A325 325 0.0 0 0 253.937 578.937 " />
</g> 
</svg>
