<?xml version="1.0" standalone="no"?>
 <!DOCTYPE svg PUBLIC "-//W3C//DTD SVG 1.1//EN" 
 "http://www.w3.org/Graphics/SVG/1.1/DTD/svg11.dtd"> 
<svg xmlns="http://www.w3.org/2000/svg" version="1.1" 
    width="2.0447cm" height="2.0447cm" viewBox="0 0 8050 8050 ">
<title>SVG Picture created as WoodElf_02-B.CrtYd.svg date 2019/05/12 14:16:08 </title>
  <desc>Picture generated by PCBNEW </desc>
<g style="fill:#000000; fill-opacity:1;stroke:#000000; stroke-opacity:1;
stroke-linecap:round; stroke-linejoin:round; "
 transform="translate(0 0) scale(1 1)">
</g>
<g style="fill:#000000; fill-opacity:0.0; 
stroke:#000000; stroke-width:-0.000393701; stroke-opacity:1; 
stroke-linecap:round; stroke-linejoin:round;">
</g>
<g style="fill:#848484; fill-opacity:0.0; 
stroke:#848484; stroke-width:-0.000393701; stroke-opacity:1; 
stroke-linecap:round; stroke-linejoin:round;">
</g>
<g style="fill:#848484; fill-opacity:0.0; 
stroke:#848484; stroke-width:59.0551; stroke-opacity:1; 
stroke-linecap:round; stroke-linejoin:round;">
<path d="M553 553
L553 7503
" />
<path d="M7503 553
L553 553
" />
<path d="M7503 553
L7503 7503
" />
<path d="M7503 7503
L553 7503
" />
<path d="M6798 2583
L6798 1483
" />
<path d="M6798 1483
L2873 1483
" />
<path d="M1873 2483
L648 2483
" />
<path d="M648 2483
L648 3583
" />
<path d="M648 3583
L3073 3583
" />
<path d="M4073 2583
L6798 2583
" />
<path d="M2873.94 1483.94 A1000 1000 0.0 0 0 1873.94 2483.94 " />
<path d="M4073.94 2583.94 A1000 1000 0.0 0 0 3073.94 3583.94 " />
</g>
<g style="fill:#848484; fill-opacity:0.0; 
stroke:#848484; stroke-width:19.685; stroke-opacity:1; 
stroke-linecap:round; stroke-linejoin:round;">
<path d="M3008 4973
L3008 6433
" />
<path d="M3008 6433
L5048 6433
" />
<path d="M5048 6433
L5048 4973
" />
<path d="M5048 4973
L3008 4973
" />
<path d="M2700 4514
L1456 4514
" />
<path d="M1456 4514
L1456 7152
" />
<path d="M1456 7152
L2700 7152
" />
<path d="M2700 7152
L2700 4514
" />
</g>
<g style="fill:#000000; fill-opacity:0.0; 
stroke:#000000; stroke-width:19.685; stroke-opacity:1; 
stroke-linecap:round; stroke-linejoin:round;">
</g>
<g style="fill:#C2C200; fill-opacity:0.0; 
stroke:#C2C200; stroke-width:19.685; stroke-opacity:1; 
stroke-linecap:round; stroke-linejoin:round;">
</g>
<g style="fill:#C2C200; fill-opacity:0.0; 
stroke:#C2C200; stroke-width:59.0551; stroke-opacity:1; 
stroke-linecap:round; stroke-linejoin:round;">
<path d="M253.937 588.937 A375 375 0.0 0 0 628.937 963.937 " />
<path d="M628.937 1593.94 A315 315 0.0 0 0 628.937 963.937 " />
<path d="M628.937 1593.94 A375 375 0.0 0 0 254.071 1978.93 " />
<path d="M2913.94 7803.94 A375 375 0.0 0 0 3288.94 7428.94 " />
<path d="M3918.94 7428.94 A375 375 0.0 0 0 4293.94 7803.94 " />
<path d="M3918.94 7428.94 A315 315 0.0 0 0 3288.94 7428.94 " />
<path d="M7803.94 6818.94 A375 375 0.0 0 0 7428.94 6443.94 " />
<path d="M7428.94 5813.94 A315 315 0.0 0 0 7428.94 6443.94 " />
<path d="M7428.94 5813.94 A375 375 0.0 0 0 7803.94 5438.94 " />
<path d="M7803 803
L7803 5438
" />
<path d="M2913 7803
L803 7803
" />
<path d="M5438 253
L578 253
" />
<path d="M5813.94 628.937 A375 375 0.0 0 0 5438.94 253.937 " />
<path d="M6818.94 253.937 A375 375 0.0 0 0 6443.94 628.937 " />
<path d="M5813.94 628.937 A315 315 0.0 0 0 6443.94 628.937 " />
<path d="M253.937 7253.94 A550 550 0.0 0 0 803.937 7803.94 " />
<path d="M7253.94 7803.94 A550 550 0.0 0 0 7803.94 7253.94 " />
<path d="M6818 253
L7253 253
" />
<path d="M253 7253
L253 1978
" />
<path d="M7253 7803
L4293 7803
" />
<path d="M7803 6818
L7803 7253
" />
<path d="M7803.94 803.937 A550 550 0.0 0 0 7253.94 253.937 " />
<path d="M578.937 253.937 A325 325 0.0 0 0 253.937 578.937 " />
</g> 
</svg>
