<?xml version="1.0" standalone="no"?>
 <!DOCTYPE svg PUBLIC "-//W3C//DTD SVG 1.1//EN" 
 "http://www.w3.org/Graphics/SVG/1.1/DTD/svg11.dtd"> 
<svg xmlns="http://www.w3.org/2000/svg" version="1.1" 
    width="2.0447cm" height="2.0447cm" viewBox="0 0 8050 8050 ">
<title>SVG Picture created as WoodElf_02-F.Cu.svg date 2019/05/12 14:16:08 </title>
  <desc>Picture generated by PCBNEW </desc>
<g style="fill:#000000; fill-opacity:1;stroke:#000000; stroke-opacity:1;
stroke-linecap:round; stroke-linejoin:round; "
 transform="translate(0 0) scale(1 1)">
</g>
<g style="fill:#000000; fill-opacity:0.0; 
stroke:#000000; stroke-width:-0.000393701; stroke-opacity:1; 
stroke-linecap:round; stroke-linejoin:round;">
</g>
<g style="fill:#848400; fill-opacity:0.0; 
stroke:#848400; stroke-width:-0.000393701; stroke-opacity:1; 
stroke-linecap:round; stroke-linejoin:round;">
</g>
<g style="fill:#848400; fill-opacity:1.0; 
stroke:#848400; stroke-width:0; stroke-opacity:1; 
stroke-linecap:round; stroke-linejoin:round;">
<circle cx="5028.94" cy="2028.94" r="629.921" /> 
</g>
<g style="fill:#848400; fill-opacity:1.0; 
stroke:#848400; stroke-width:39.3701; stroke-opacity:1; 
stroke-linecap:round; stroke-linejoin:round;">
</g>
<g style="fill:#848400; fill-opacity:1.0; 
stroke:#848400; stroke-width:0; stroke-opacity:1; 
stroke-linecap:round; stroke-linejoin:round;">
<circle cx="2528.94" cy="3028.94" r="629.921" /> 
</g>
<g style="fill:#848400; fill-opacity:1.0; 
stroke:#848400; stroke-width:39.3701; stroke-opacity:1; 
stroke-linecap:round; stroke-linejoin:round;">
</g>
<g style="fill:#848400; fill-opacity:1.0; 
stroke:#848400; stroke-width:0; stroke-opacity:1; 
stroke-linecap:round; stroke-linejoin:round;">
<polyline style="fill-rule:evenodd;"
points="3500,5767
3500,6160
3300,6160
3300,5767
3500,5767
" /> 
<polyline style="fill-rule:evenodd;"
points="3500,5247
3500,5640
3300,5640
3300,5247
3500,5247
" /> 
<polyline style="fill-rule:evenodd;"
points="4757,5767
4757,6160
4557,6160
4557,5767
4757,5767
" /> 
<polyline style="fill-rule:evenodd;"
points="4757,5247
4757,5640
4557,5640
4557,5247
4757,5247
" /> 
<circle cx="5853.94" cy="7228.94" r="236.22" /> 
</g>
<g style="fill:#848400; fill-opacity:1.0; 
stroke:#848400; stroke-width:39.3701; stroke-opacity:1; 
stroke-linecap:round; stroke-linejoin:round;">
</g>
<g style="fill:#848400; fill-opacity:1.0; 
stroke:#848400; stroke-width:0; stroke-opacity:1; 
stroke-linecap:round; stroke-linejoin:round;">
<circle cx="4853.94" cy="7228.94" r="236.22" /> 
</g>
<g style="fill:#848400; fill-opacity:1.0; 
stroke:#848400; stroke-width:39.3701; stroke-opacity:1; 
stroke-linecap:round; stroke-linejoin:round;">
</g>
<g style="fill:#848400; fill-opacity:1.0; 
stroke:#848400; stroke-width:0; stroke-opacity:1; 
stroke-linecap:round; stroke-linejoin:round;">
<circle cx="7228.94" cy="4153.94" r="236.22" /> 
</g>
<g style="fill:#848400; fill-opacity:1.0; 
stroke:#848400; stroke-width:39.3701; stroke-opacity:1; 
stroke-linecap:round; stroke-linejoin:round;">
</g>
<g style="fill:#848400; fill-opacity:1.0; 
stroke:#848400; stroke-width:0; stroke-opacity:1; 
stroke-linecap:round; stroke-linejoin:round;">
<circle cx="7228.94" cy="2153.94" r="236.22" /> 
</g>
<g style="fill:#848400; fill-opacity:1.0; 
stroke:#848400; stroke-width:39.3701; stroke-opacity:1; 
stroke-linecap:round; stroke-linejoin:round;">
</g>
<g style="fill:#848400; fill-opacity:1.0; 
stroke:#848400; stroke-width:0; stroke-opacity:1; 
stroke-linecap:round; stroke-linejoin:round;">
<circle cx="828.937" cy="5003.94" r="236.22" /> 
</g>
<g style="fill:#848400; fill-opacity:1.0; 
stroke:#848400; stroke-width:39.3701; stroke-opacity:1; 
stroke-linecap:round; stroke-linejoin:round;">
</g>
<g style="fill:#848400; fill-opacity:1.0; 
stroke:#848400; stroke-width:0; stroke-opacity:1; 
stroke-linecap:round; stroke-linejoin:round;">
<circle cx="7228.94" cy="3153.94" r="236.22" /> 
</g>
<g style="fill:#848400; fill-opacity:1.0; 
stroke:#848400; stroke-width:39.3701; stroke-opacity:1; 
stroke-linecap:round; stroke-linejoin:round;">
</g>
<g style="fill:#848400; fill-opacity:1.0; 
stroke:#848400; stroke-width:0; stroke-opacity:1; 
stroke-linecap:round; stroke-linejoin:round;">
<circle cx="828.937" cy="6003.94" r="236.22" /> 
</g>
<g style="fill:#848400; fill-opacity:1.0; 
stroke:#848400; stroke-width:39.3701; stroke-opacity:1; 
stroke-linecap:round; stroke-linejoin:round;">
</g>
<g style="fill:#848400; fill-opacity:1.0; 
stroke:#848400; stroke-width:0; stroke-opacity:1; 
stroke-linecap:round; stroke-linejoin:round;">
<circle cx="828.937" cy="4003.94" r="236.22" /> 
</g>
<g style="fill:#848400; fill-opacity:1.0; 
stroke:#848400; stroke-width:39.3701; stroke-opacity:1; 
stroke-linecap:round; stroke-linejoin:round;">
</g>
<g style="fill:#848400; fill-opacity:1.0; 
stroke:#848400; stroke-width:0; stroke-opacity:1; 
stroke-linecap:round; stroke-linejoin:round;">
<circle cx="3178.94" cy="828.937" r="236.22" /> 
</g>
<g style="fill:#848400; fill-opacity:1.0; 
stroke:#848400; stroke-width:39.3701; stroke-opacity:1; 
stroke-linecap:round; stroke-linejoin:round;">
</g>
<g style="fill:#848400; fill-opacity:1.0; 
stroke:#848400; stroke-width:0; stroke-opacity:1; 
stroke-linecap:round; stroke-linejoin:round;">
<circle cx="2178.94" cy="828.937" r="236.22" /> 
</g>
<g style="fill:#848400; fill-opacity:1.0; 
stroke:#848400; stroke-width:39.3701; stroke-opacity:1; 
stroke-linecap:round; stroke-linejoin:round;">
</g>
<g style="fill:#C2C2C2; fill-opacity:1.0; 
stroke:#C2C2C2; stroke-width:39.3701; stroke-opacity:1; 
stroke-linecap:round; stroke-linejoin:round;">
</g>
<g style="fill:#C2C2C2; fill-opacity:1.0; 
stroke:#C2C2C2; stroke-width:0; stroke-opacity:1; 
stroke-linecap:round; stroke-linejoin:round;">
<circle cx="2792.72" cy="3928.94" r="157.48" /> 
</g>
<g style="fill:#C2C2C2; fill-opacity:1.0; 
stroke:#C2C2C2; stroke-width:39.3701; stroke-opacity:1; 
stroke-linecap:round; stroke-linejoin:round;">
</g>
<g style="fill:#C2C2C2; fill-opacity:1.0; 
stroke:#C2C2C2; stroke-width:0; stroke-opacity:1; 
stroke-linecap:round; stroke-linejoin:round;">
<circle cx="5603.94" cy="6053.94" r="157.48" /> 
</g>
<g style="fill:#C2C2C2; fill-opacity:1.0; 
stroke:#C2C2C2; stroke-width:39.3701; stroke-opacity:1; 
stroke-linecap:round; stroke-linejoin:round;">
</g>
<g style="fill:#840000; fill-opacity:1.0; 
stroke:#840000; stroke-width:39.3701; stroke-opacity:1; 
stroke-linecap:round; stroke-linejoin:round;">
</g>
<g style="fill:#840000; fill-opacity:1.0; 
stroke:#840000; stroke-width:60; stroke-opacity:1; 
stroke-linecap:round; stroke-linejoin:round;">
</g>
<g style="fill:#840000; fill-opacity:0.0; 
stroke:#840000; stroke-width:60; stroke-opacity:1; 
stroke-linecap:round; stroke-linejoin:round;">
<path d="M4399 2658
L5028 2028
" />
<path d="M2792 3928
L4062 2658
" />
<path d="M4062 2658
L4399 2658
" />
<path d="M5105 6552
L5603 6053
" />
<path d="M828 5003
L2377 6552
" />
<path d="M2377 6552
L5105 6552
" />
<path d="M3513 828
L3178 828
" />
<path d="M4922 828
L3513 828
" />
<path d="M6472 2379
L4922 828
" />
<path d="M6472 6610
L6472 2379
" />
<path d="M5853 7228
L6472 6610
" />
</g>
<g style="fill:#840000; fill-opacity:1.0; 
stroke:#840000; stroke-width:60; stroke-opacity:1; 
stroke-linecap:round; stroke-linejoin:round;">
<polyline style="fill-rule:evenodd;"
points="5500,319
5559,337
5613,366
5661,405
5700,452
5729,506
5747,565
5754,629
5754,633
5754,636
5754,639
5754,639
5761,701
5762,706
5763,711
5764,712
5782,771
5784,775
5786,780
5787,781
5816,835
5819,840
5822,844
5823,845
5862,892
5866,896
5870,899
5871,900
5919,938
5923,941
5928,944
5928,945
5983,973
5988,975
5993,977
5994,978
6053,995
6058,996
6063,997
6064,997
6125,1003
6131,1003
6136,1003
6137,1003
6198,996
6203,995
6209,994
6209,994
6268,976
6273,974
6278,972
6279,971
6333,942
6337,939
6342,936
6343,935
6390,896
6394,892
6398,889
6398,888
6437,840
6440,836
6443,831
6443,831
6472,776
6474,771
6476,766
6477,766
6494,707
6495,702
6497,696
6497,695
6503,634
6503,634
6509,567
6527,508
6556,454
6595,406
6642,367
6696,338
6755,320
6819,313
7251,313
7349,323
7440,350
7525,395
7599,456
7660,529
7705,613
7734,705
7744,803
7744,804
7744,5436
7738,5500
7720,5559
7691,5613
7652,5661
7605,5700
7551,5729
7492,5747
7428,5754
7424,5754
7421,5754
7418,5754
7417,5754
7356,5761
7351,5762
7346,5763
7345,5764
7286,5782
7281,5784
7276,5786
7276,5787
7222,5816
7217,5819
7213,5822
7212,5823
7165,5862
7161,5866
7158,5870
7157,5871
7118,5919
7116,5923
7112,5928
7112,5928
7084,5983
7082,5988
7080,5993
7079,5994
7062,6053
7061,6058
7060,6063
7060,6064
7054,6125
7054,6131
7054,6136
7054,6137
7061,6198
7062,6203
7063,6209
7063,6209
7081,6268
7083,6273
7085,6278
7086,6279
7115,6333
7118,6337
7121,6342
7121,6343
7161,6390
7164,6394
7168,6398
7169,6398
7216,6437
7221,6440
7225,6443
7226,6443
7280,6472
7285,6474
7290,6476
7291,6477
7350,6494
7355,6495
7361,6497
7361,6497
7423,6503
7423,6503
7490,6509
7549,6527
7603,6556
7651,6595
7690,6642
7719,6696
7737,6755
7744,6819
7744,7251
7734,7349
7707,7440
7662,7525
7601,7599
7528,7660
7443,7705
7352,7734
7254,7744
7253,7744
4296,7744
4232,7738
4173,7720
4119,7691
4071,7652
4032,7605
4003,7551
3985,7492
3978,7428
3978,7424
3978,7421
3978,7418
3978,7417
3971,7356
3970,7351
3969,7346
3968,7345
3950,7286
3948,7281
3946,7276
3945,7276
3916,7222
3912,7217
3909,7213
3909,7212
3894,7194
4508,7194
4508,7262
4522,7329
4548,7392
4585,7448
4634,7496
4690,7534
4753,7560
4819,7573
4887,7573
4954,7560
5017,7534
5073,7496
5121,7448
5159,7392
5185,7329
5198,7262
5198,7194
5185,7128
5159,7065
5121,7009
5073,6960
5017,6923
4954,6897
4887,6883
4819,6883
4753,6897
4690,6923
4634,6960
4585,7009
4548,7065
4522,7128
4508,7194
3894,7194
3869,7165
3866,7161
3862,7158
3861,7157
3813,7118
3809,7116
3804,7112
3803,7112
3749,7084
3744,7082
3739,7080
3738,7079
3738,7079
3679,7062
3674,7061
3669,7060
3668,7060
3607,7054
3601,7054
3596,7054
3595,7054
3534,7061
3529,7062
3523,7063
3522,7063
3464,7081
3459,7083
3454,7085
3453,7086
3399,7115
3395,7118
3390,7121
3389,7121
3342,7161
3338,7164
3334,7168
3334,7169
3295,7216
3292,7221
3289,7225
3289,7226
3260,7280
3258,7285
3255,7290
3255,7291
3237,7350
3236,7355
3235,7361
3235,7361
3229,7423
3229,7423
3223,7490
3205,7549
3176,7603
3137,7651
3090,7690
3036,7719
2977,7737
2913,7744
806,7744
708,7734
617,7707
532,7662
458,7601
397,7528
352,7443
323,7352
313,7254
313,7253
313,6263
666,6263
695,6304
756,6324
820,6332
884,6328
946,6310
962,6304
991,6263
828,6100
666,6263
313,6263
313,5995
500,5995
504,6059
521,6121
528,6137
569,6166
732,6003
925,6003
1088,6166
1129,6137
1149,6076
1157,6012
1153,5948
1135,5886
1129,5870
1088,5841
925,6003
732,6003
569,5841
528,5870
508,5931
500,5995
313,5995
313,5744
666,5744
828,5907
991,5744
962,5703
901,5683
837,5675
773,5679
711,5696
695,5703
666,5744
313,5744
313,4969
483,4969
483,5037
497,5104
523,5167
560,5223
609,5271
665,5309
728,5335
794,5348
862,5348
929,5335
954,5325
2274,6645
2279,6651
2300,6668
2324,6681
2350,6689
2370,6691
2370,6691
2377,6692
2384,6691
5098,6691
5105,6692
5112,6691
5112,6691
5132,6689
5158,6681
5182,6668
5203,6651
5208,6645
5541,6312
5577,6320
5630,6320
5681,6309
5730,6289
5773,6260
5810,6223
5839,6180
5859,6131
5870,6080
5870,6027
5859,5976
5839,5927
5810,5884
5773,5847
5730,5818
5681,5797
5630,5787
5577,5787
5526,5797
5477,5818
5434,5847
5397,5884
5368,5927
5347,5976
5337,6027
5337,6080
5344,6116
5047,6413
4952,6413
4961,6384
4965,6343
4961,6303
4949,6263
4930,6227
4904,6195
4872,6169
4866,6166
4866,6160
4866,5767
4864,5745
4858,5725
4848,5706
4846,5703
4848,5701
4858,5682
4864,5662
4866,5640
4866,5247
4866,5241
4872,5238
4904,5212
4930,5180
4949,5144
4961,5104
4965,5063
4961,5023
4949,4983
4930,4947
4904,4915
4872,4889
4835,4870
4796,4858
4765,4855
4375,4855
4453,4823
4600,4725
4725,4600
4823,4453
4890,4290
4925,4117
4925,3940
4890,3767
4823,3604
4725,3457
4600,3332
4453,3234
4290,3167
4117,3132
3940,3132
3767,3167
3738,3179
4120,2797
4392,2797
4399,2798
4405,2797
4405,2797
4426,2795
4452,2787
4476,2774
4497,2757
4501,2752
4614,2640
4679,2683
4813,2739
4956,2767
5101,2767
5244,2739
5378,2683
5499,2602
5602,2499
5683,2378
5739,2244
5767,2101
5767,1956
5746,1849
6333,2436
6333,3706
6311,3684
6238,3636
6158,3602
6072,3585
5985,3585
5899,3602
5818,3636
5746,3684
5684,3746
5636,3818
5602,3899
5585,3985
5585,4072
5602,4158
5636,4238
5684,4311
5746,4373
5818,4421
5899,4455
5985,4472
6072,4472
6158,4455
6238,4421
6311,4373
6333,4351
6333,6553
5979,6907
5954,6897
5887,6883
5819,6883
5753,6897
5690,6923
5634,6960
5585,7009
5548,7065
5522,7128
5508,7194
5508,7262
5522,7329
5548,7392
5585,7448
5634,7496
5690,7534
5753,7560
5819,7573
5887,7573
5954,7560
6017,7534
6073,7496
6121,7448
6159,7392
6185,7329
6198,7262
6198,7194
6185,7128
6175,7103
6565,6713
6570,6709
6575,6703
6575,6703
6588,6688
6588,6688
6601,6663
6609,6637
6611,6617
6611,6617
6611,6610
6611,6603
6611,4413
7066,4413
7095,4454
7156,4474
7220,4482
7284,4478
7346,4460
7362,4454
7391,4413
7228,4250
7066,4413
6611,4413
6611,4145
6900,4145
6904,4209
6921,4271
6928,4287
6969,4316
7132,4153
7325,4153
7488,4316
7529,4287
7549,4226
7557,4162
7553,4098
7535,4036
7529,4020
7488,3991
7325,4153
7132,4153
6969,3991
6928,4020
6908,4081
6900,4145
6611,4145
6611,3894
7066,3894
7228,4057
7391,3894
7362,3853
7301,3833
7237,3825
7173,3829
7111,3846
7095,3853
7066,3894
6611,3894
6611,3119
6883,3119
6883,3187
6897,3254
6923,3317
6960,3373
7009,3421
7065,3459
7128,3485
7194,3498
7262,3498
7329,3485
7392,3459
7448,3421
7496,3373
7534,3317
7560,3254
7573,3187
7573,3119
7560,3053
7534,2990
7496,2934
7448,2885
7392,2848
7329,2822
7262,2808
7194,2808
7128,2822
7065,2848
7009,2885
6960,2934
6923,2990
6897,3053
6883,3119
6611,3119
6611,2385
6611,2379
6611,2372
6611,2372
6609,2351
6601,2325
6588,2301
6570,2280
6565,2276
6409,2119
6883,2119
6883,2187
6897,2254
6923,2317
6960,2373
7009,2421
7065,2459
7128,2485
7194,2498
7262,2498
7329,2485
7392,2459
7448,2421
7496,2373
7534,2317
7560,2254
7573,2187
7573,2119
7560,2053
7534,1990
7496,1934
7448,1885
7392,1848
7329,1822
7262,1808
7194,1808
7128,1822
7065,1848
7009,1885
6960,1934
6923,1990
6897,2053
6883,2119
6409,2119
5025,735
5020,730
4999,713
4975,700
4949,692
4928,690
4928,690
4922,689
4915,690
3494,690
3484,665
3446,609
3398,560
3342,523
3279,497
3212,483
3144,483
3078,497
3015,523
2959,560
2910,609
2873,665
2847,728
2833,794
2833,862
2847,929
2873,992
2910,1048
2959,1096
3015,1134
3078,1160
3144,1173
3212,1173
3279,1160
3342,1134
3398,1096
3446,1048
3484,992
3494,967
4864,967
5208,1311
5101,1290
4956,1290
4813,1318
4679,1374
4558,1455
4455,1558
4374,1679
4318,1813
4290,1956
4290,2101
4318,2244
4374,2378
4417,2443
4341,2520
4069,2520
4062,2519
4055,2520
4055,2520
4035,2522
4009,2530
3985,2542
3964,2560
3959,2565
3209,3315
3239,3244
3267,3101
3267,2956
3239,2813
3183,2679
3102,2558
2999,2455
2878,2374
2744,2318
2601,2290
2456,2290
2313,2318
2179,2374
2058,2455
1955,2558
1874,2679
1818,2813
1790,2956
1790,3101
1818,3244
1874,3378
1955,3499
2040,3585
1985,3585
1899,3602
1818,3636
1746,3684
1684,3746
1636,3818
1602,3899
1585,3985
1585,4072
1602,4158
1636,4238
1684,4311
1746,4373
1818,4421
1899,4455
1985,4472
2072,4472
2158,4455
2238,4421
2311,4373
2373,4311
2421,4238
2455,4158
2472,4072
2472,3985
2455,3899
2421,3818
2377,3751
2456,3767
2580,3767
2556,3802
2536,3851
2526,3902
2526,3955
2536,4006
2556,4055
2585,4098
2623,4135
2666,4164
2715,4184
2766,4195
2818,4195
2870,4184
2918,4164
2962,4135
2999,4098
3028,4055
3048,4006
3058,3955
3058,3902
3051,3866
3179,3738
3167,3767
3132,3940
3132,4117
3167,4290
3234,4453
3332,4600
3457,4725
3604,4823
3681,4855
3291,4855
3261,4858
3221,4870
3185,4889
3153,4915
3127,4947
3108,4983
3096,5023
3092,5063
3096,5104
3108,5144
3127,5180
3153,5212
3185,5238
3191,5241
3191,5247
3191,5640
3193,5662
3199,5682
3209,5701
3211,5703
3209,5706
3199,5725
3193,5745
3191,5767
3191,6160
3191,6166
3185,6169
3153,6195
3127,6227
3108,6263
3096,6303
3092,6343
3096,6384
3105,6413
2435,6413
1150,5129
1160,5104
1173,5037
1173,4969
1160,4903
1134,4840
1096,4784
1048,4735
992,4698
929,4672
862,4658
794,4658
728,4672
665,4698
609,4735
560,4784
523,4840
497,4903
483,4969
313,4969
313,3969
483,3969
483,4037
497,4104
523,4167
560,4223
609,4271
665,4309
728,4335
794,4348
862,4348
929,4335
992,4309
1048,4271
1096,4223
1134,4167
1160,4104
1173,4037
1173,3969
1160,3903
1134,3840
1096,3784
1048,3735
992,3698
929,3672
862,3658
794,3658
728,3672
665,3698
609,3735
560,3784
523,3840
497,3903
483,3969
313,3969
313,1982
318,1915
334,1856
361,1801
399,1752
445,1712
499,1681
557,1661
620,1653
629,1653
633,1653
636,1653
639,1653
639,1653
701,1646
706,1645
711,1644
712,1643
771,1625
775,1623
780,1621
781,1620
835,1591
840,1587
844,1584
845,1584
892,1544
896,1541
899,1537
900,1536
938,1488
941,1484
944,1479
945,1478
973,1424
975,1419
977,1414
978,1413
995,1354
996,1349
997,1344
997,1343
1003,1282
1003,1276
1003,1271
1003,1270
996,1209
995,1204
994,1198
994,1197
976,1139
974,1134
972,1129
971,1128
942,1074
939,1070
936,1065
935,1064
896,1017
892,1013
889,1009
888,1009
840,970
836,967
831,964
831,964
776,935
771,933
766,930
766,930
707,912
702,911
696,910
695,910
695,910
634,904
634,904
567,898
508,880
454,851
406,812
392,794
1833,794
1833,862
1847,929
1873,992
1910,1048
1959,1096
2015,1134
2078,1160
2144,1173
2212,1173
2279,1160
2342,1134
2398,1096
2446,1048
2484,992
2510,929
2523,862
2523,794
2510,728
2484,665
2446,609
2398,560
2342,523
2279,497
2212,483
2144,483
2078,497
2015,523
1959,560
1910,609
1873,665
1847,728
1833,794
392,794
367,765
338,711
320,652
313,585
313,585
313,584
318,527
333,477
358,432
390,392
430,359
476,334
525,319
579,313
5436,313
5500,319
" /> 
</g>
<g style="fill:#FFFFFF; fill-opacity:1.0; 
stroke:#FFFFFF; stroke-width:60; stroke-opacity:1; 
stroke-linecap:round; stroke-linejoin:round;">
</g>
<g style="fill:#FFFFFF; fill-opacity:1.0; 
stroke:#FFFFFF; stroke-width:0; stroke-opacity:1; 
stroke-linecap:round; stroke-linejoin:round;">
<circle cx="2792.72" cy="3928.94" r="78.7402" /> 
</g>
<g style="fill:#FFFFFF; fill-opacity:1.0; 
stroke:#FFFFFF; stroke-width:39.3701; stroke-opacity:1; 
stroke-linecap:round; stroke-linejoin:round;">
</g>
<g style="fill:#FFFFFF; fill-opacity:1.0; 
stroke:#FFFFFF; stroke-width:0; stroke-opacity:1; 
stroke-linecap:round; stroke-linejoin:round;">
<circle cx="5603.94" cy="6053.94" r="78.7402" /> 
</g>
<g style="fill:#FFFFFF; fill-opacity:1.0; 
stroke:#FFFFFF; stroke-width:39.3701; stroke-opacity:1; 
stroke-linecap:round; stroke-linejoin:round;">
</g>
<g style="fill:#FFFFFF; fill-opacity:1.0; 
stroke:#FFFFFF; stroke-width:0; stroke-opacity:1; 
stroke-linecap:round; stroke-linejoin:round;">
<circle cx="5028.94" cy="2028.94" r="590.551" /> 
</g>
<g style="fill:#FFFFFF; fill-opacity:1.0; 
stroke:#FFFFFF; stroke-width:39.3701; stroke-opacity:1; 
stroke-linecap:round; stroke-linejoin:round;">
</g>
<g style="fill:#FFFFFF; fill-opacity:1.0; 
stroke:#FFFFFF; stroke-width:0; stroke-opacity:1; 
stroke-linecap:round; stroke-linejoin:round;">
<circle cx="2528.94" cy="3028.94" r="590.551" /> 
</g>
<g style="fill:#FFFFFF; fill-opacity:1.0; 
stroke:#FFFFFF; stroke-width:39.3701; stroke-opacity:1; 
stroke-linecap:round; stroke-linejoin:round;">
</g>
<g style="fill:#FFFFFF; fill-opacity:1.0; 
stroke:#FFFFFF; stroke-width:0; stroke-opacity:1; 
stroke-linecap:round; stroke-linejoin:round;">
<circle cx="4028.94" cy="4028.94" r="787.401" /> 
</g>
<g style="fill:#FFFFFF; fill-opacity:1.0; 
stroke:#FFFFFF; stroke-width:39.3701; stroke-opacity:1; 
stroke-linecap:round; stroke-linejoin:round;">
</g>
<g style="fill:#FFFFFF; fill-opacity:1.0; 
stroke:#FFFFFF; stroke-width:0; stroke-opacity:1; 
stroke-linecap:round; stroke-linejoin:round;">
<circle cx="2028.94" cy="4028.94" r="334.645" /> 
</g>
<g style="fill:#FFFFFF; fill-opacity:1.0; 
stroke:#FFFFFF; stroke-width:39.3701; stroke-opacity:1; 
stroke-linecap:round; stroke-linejoin:round;">
</g>
<g style="fill:#FFFFFF; fill-opacity:1.0; 
stroke:#FFFFFF; stroke-width:0; stroke-opacity:1; 
stroke-linecap:round; stroke-linejoin:round;">
<circle cx="6028.94" cy="4028.94" r="334.645" /> 
</g>
<g style="fill:#FFFFFF; fill-opacity:1.0; 
stroke:#FFFFFF; stroke-width:39.3701; stroke-opacity:1; 
stroke-linecap:round; stroke-linejoin:round;">
</g>
<g style="fill:#FFFFFF; fill-opacity:1.0; 
stroke:#FFFFFF; stroke-width:200; stroke-opacity:1; 
stroke-linecap:round; stroke-linejoin:round;">
</g>
<g style="fill:#FFFFFF; fill-opacity:0.0; 
stroke:#FFFFFF; stroke-width:200; stroke-opacity:1; 
stroke-linecap:round; stroke-linejoin:round;">
<path d="M3400 6060
L3400 5867
" />
<path d="M3400 5540
L3400 5347
" />
<path d="M4657 6060
L4657 5867
" />
<path d="M4657 5540
L4657 5347
" />
<path d="M3302 6343
L4755 6343
" />
<path d="M3302 5063
L4755 5063
" />
</g>
<g style="fill:#FFFFFF; fill-opacity:1.0; 
stroke:#FFFFFF; stroke-width:0; stroke-opacity:1; 
stroke-linecap:round; stroke-linejoin:round;">
<circle cx="5853.94" cy="7228.94" r="196.85" /> 
</g>
<g style="fill:#FFFFFF; fill-opacity:1.0; 
stroke:#FFFFFF; stroke-width:39.3701; stroke-opacity:1; 
stroke-linecap:round; stroke-linejoin:round;">
</g>
<g style="fill:#FFFFFF; fill-opacity:1.0; 
stroke:#FFFFFF; stroke-width:0; stroke-opacity:1; 
stroke-linecap:round; stroke-linejoin:round;">
<circle cx="4853.94" cy="7228.94" r="196.85" /> 
</g>
<g style="fill:#FFFFFF; fill-opacity:1.0; 
stroke:#FFFFFF; stroke-width:39.3701; stroke-opacity:1; 
stroke-linecap:round; stroke-linejoin:round;">
</g>
<g style="fill:#FFFFFF; fill-opacity:1.0; 
stroke:#FFFFFF; stroke-width:0; stroke-opacity:1; 
stroke-linecap:round; stroke-linejoin:round;">
<circle cx="7228.94" cy="4153.94" r="196.85" /> 
</g>
<g style="fill:#FFFFFF; fill-opacity:1.0; 
stroke:#FFFFFF; stroke-width:39.3701; stroke-opacity:1; 
stroke-linecap:round; stroke-linejoin:round;">
</g>
<g style="fill:#FFFFFF; fill-opacity:1.0; 
stroke:#FFFFFF; stroke-width:0; stroke-opacity:1; 
stroke-linecap:round; stroke-linejoin:round;">
<circle cx="7228.94" cy="2153.94" r="196.85" /> 
</g>
<g style="fill:#FFFFFF; fill-opacity:1.0; 
stroke:#FFFFFF; stroke-width:39.3701; stroke-opacity:1; 
stroke-linecap:round; stroke-linejoin:round;">
</g>
<g style="fill:#FFFFFF; fill-opacity:1.0; 
stroke:#FFFFFF; stroke-width:0; stroke-opacity:1; 
stroke-linecap:round; stroke-linejoin:round;">
<circle cx="828.937" cy="5003.94" r="196.85" /> 
</g>
<g style="fill:#FFFFFF; fill-opacity:1.0; 
stroke:#FFFFFF; stroke-width:39.3701; stroke-opacity:1; 
stroke-linecap:round; stroke-linejoin:round;">
</g>
<g style="fill:#FFFFFF; fill-opacity:1.0; 
stroke:#FFFFFF; stroke-width:0; stroke-opacity:1; 
stroke-linecap:round; stroke-linejoin:round;">
<circle cx="7228.94" cy="3153.94" r="196.85" /> 
</g>
<g style="fill:#FFFFFF; fill-opacity:1.0; 
stroke:#FFFFFF; stroke-width:39.3701; stroke-opacity:1; 
stroke-linecap:round; stroke-linejoin:round;">
</g>
<g style="fill:#FFFFFF; fill-opacity:1.0; 
stroke:#FFFFFF; stroke-width:0; stroke-opacity:1; 
stroke-linecap:round; stroke-linejoin:round;">
<circle cx="828.937" cy="6003.94" r="196.85" /> 
</g>
<g style="fill:#FFFFFF; fill-opacity:1.0; 
stroke:#FFFFFF; stroke-width:39.3701; stroke-opacity:1; 
stroke-linecap:round; stroke-linejoin:round;">
</g>
<g style="fill:#FFFFFF; fill-opacity:1.0; 
stroke:#FFFFFF; stroke-width:0; stroke-opacity:1; 
stroke-linecap:round; stroke-linejoin:round;">
<circle cx="828.937" cy="4003.94" r="196.85" /> 
</g>
<g style="fill:#FFFFFF; fill-opacity:1.0; 
stroke:#FFFFFF; stroke-width:39.3701; stroke-opacity:1; 
stroke-linecap:round; stroke-linejoin:round;">
</g>
<g style="fill:#FFFFFF; fill-opacity:1.0; 
stroke:#FFFFFF; stroke-width:0; stroke-opacity:1; 
stroke-linecap:round; stroke-linejoin:round;">
<circle cx="3178.94" cy="828.937" r="196.85" /> 
</g>
<g style="fill:#FFFFFF; fill-opacity:1.0; 
stroke:#FFFFFF; stroke-width:39.3701; stroke-opacity:1; 
stroke-linecap:round; stroke-linejoin:round;">
</g>
<g style="fill:#FFFFFF; fill-opacity:1.0; 
stroke:#FFFFFF; stroke-width:0; stroke-opacity:1; 
stroke-linecap:round; stroke-linejoin:round;">
<circle cx="2178.94" cy="828.937" r="196.85" /> 
</g>
<g style="fill:#FFFFFF; fill-opacity:1.0; 
stroke:#FFFFFF; stroke-width:39.3701; stroke-opacity:1; 
stroke-linecap:round; stroke-linejoin:round;">
</g>
<g style="fill:#000000; fill-opacity:1.0; 
stroke:#000000; stroke-width:39.3701; stroke-opacity:1; 
stroke-linecap:round; stroke-linejoin:round;">
</g>
<g style="fill:#C2C200; fill-opacity:1.0; 
stroke:#C2C200; stroke-width:39.3701; stroke-opacity:1; 
stroke-linecap:round; stroke-linejoin:round;">
</g>
<g style="fill:#C2C200; fill-opacity:0.0; 
stroke:#C2C200; stroke-width:59.0551; stroke-opacity:1; 
stroke-linecap:round; stroke-linejoin:round;">
<path d="M253.937 588.937 A375 375 0.0 0 0 628.937 963.937 " />
<path d="M628.937 1593.94 A315 315 0.0 0 0 628.937 963.937 " />
<path d="M628.937 1593.94 A375 375 0.0 0 0 254.071 1978.93 " />
<path d="M2913.94 7803.94 A375 375 0.0 0 0 3288.94 7428.94 " />
<path d="M3918.94 7428.94 A375 375 0.0 0 0 4293.94 7803.94 " />
<path d="M3918.94 7428.94 A315 315 0.0 0 0 3288.94 7428.94 " />
<path d="M7803.94 6818.94 A375 375 0.0 0 0 7428.94 6443.94 " />
<path d="M7428.94 5813.94 A315 315 0.0 0 0 7428.94 6443.94 " />
<path d="M7428.94 5813.94 A375 375 0.0 0 0 7803.94 5438.94 " />
<path d="M7803 803
L7803 5438
" />
<path d="M2913 7803
L803 7803
" />
<path d="M5438 253
L578 253
" />
<path d="M5813.94 628.937 A375 375 0.0 0 0 5438.94 253.937 " />
<path d="M6818.94 253.937 A375 375 0.0 0 0 6443.94 628.937 " />
<path d="M5813.94 628.937 A315 315 0.0 0 0 6443.94 628.937 " />
<path d="M253.937 7253.94 A550 550 0.0 0 0 803.937 7803.94 " />
<path d="M7253.94 7803.94 A550 550 0.0 0 0 7803.94 7253.94 " />
<path d="M6818 253
L7253 253
" />
<path d="M253 7253
L253 1978
" />
<path d="M7253 7803
L4293 7803
" />
<path d="M7803 6818
L7803 7253
" />
<path d="M7803.94 803.937 A550 550 0.0 0 0 7253.94 253.937 " />
<path d="M578.937 253.937 A325 325 0.0 0 0 253.937 578.937 " />
</g> 
</svg>
