<?xml version="1.0" standalone="no"?>
 <!DOCTYPE svg PUBLIC "-//W3C//DTD SVG 1.1//EN" 
 "http://www.w3.org/Graphics/SVG/1.1/DTD/svg11.dtd"> 
<svg xmlns="http://www.w3.org/2000/svg" version="1.1" 
    width="2.0447cm" height="2.0447cm" viewBox="0 0 8050 8050 ">
<title>SVG Picture created as WoodElf_02-B.Mask.svg date 2019/05/12 14:16:08 </title>
  <desc>Picture generated by PCBNEW </desc>
<g style="fill:#000000; fill-opacity:1;stroke:#000000; stroke-opacity:1;
stroke-linecap:round; stroke-linejoin:round; "
 transform="translate(0 0) scale(1 1)">
</g>
<g style="fill:#000000; fill-opacity:0.0; 
stroke:#000000; stroke-width:-0.000393701; stroke-opacity:1; 
stroke-linecap:round; stroke-linejoin:round;">
</g>
<g style="fill:#848400; fill-opacity:0.0; 
stroke:#848400; stroke-width:-0.000393701; stroke-opacity:1; 
stroke-linecap:round; stroke-linejoin:round;">
</g>
<g style="fill:#848400; fill-opacity:1.0; 
stroke:#848400; stroke-width:0; stroke-opacity:1; 
stroke-linecap:round; stroke-linejoin:round;">
<polyline style="fill-rule:evenodd;"
points="5934,6963
5984,6984
6029,7014
6068,7053
6076,7066
6098,7098
6118,7148
6129,7201
6129,7256
6118,7309
6098,7359
6068,7404
6029,7443
5984,7473
5934,7493
5881,7504
5826,7504
5773,7493
5723,7473
5678,7443
5639,7404
5609,7359
5588,7309
5578,7256
5578,7201
5588,7148
5609,7098
5631,7066
5639,7053
5678,7014
5723,6984
5773,6963
5826,6953
5881,6953
5934,6963
" /> 
<polyline style="fill-rule:evenodd;"
points="4934,6963
4984,6984
5029,7014
5068,7053
5076,7066
5098,7098
5118,7148
5129,7201
5129,7256
5118,7309
5098,7359
5068,7404
5029,7443
4984,7473
4934,7493
4881,7504
4826,7504
4773,7493
4723,7473
4678,7443
4639,7404
4609,7359
4588,7309
4578,7256
4578,7201
4588,7148
4609,7098
4631,7066
4639,7053
4678,7014
4723,6984
4773,6963
4826,6953
4881,6953
4934,6963
" /> 
<polyline style="fill-rule:evenodd;"
points="2562,6435
2576,6439
2588,6445
2599,6454
2608,6465
2614,6478
2619,6491
2620,6508
2620,6999
2619,7016
2614,7029
2608,7042
2599,7052
2588,7061
2576,7068
2562,7072
2546,7074
1611,7074
1595,7072
1581,7068
1569,7061
1558,7052
1549,7042
1542,7029
1538,7016
1537,6999
1537,6508
1538,6491
1542,6478
1549,6465
1558,6454
1569,6445
1581,6439
1595,6435
1611,6433
2546,6433
2562,6435
" /> 
<polyline style="fill-rule:evenodd;"
points="4779,4945
4801,4952
4822,4963
4841,4978
4856,4996
4867,5017
4874,5040
4876,5063
4874,5087
4872,5093
4870,5102
4870,5112
4872,5121
4876,5130
4881,5138
4888,5145
4896,5150
4905,5154
4914,5156
4919,5156
5255,5156
5255,5551
4826,5551
4816,5552
4807,5554
4799,5559
4791,5565
4785,5573
4781,5581
4778,5590
4777,5600
4777,5807
4778,5817
4781,5826
4785,5834
4791,5842
4799,5848
4807,5852
4816,5855
4826,5856
5255,5856
5255,6251
4919,6251
4909,6252
4900,6254
4892,6259
4884,6265
4878,6273
4873,6281
4871,6290
4870,6300
4871,6309
4872,6314
4874,6320
4876,6343
4874,6367
4867,6390
4856,6410
4841,6429
4822,6444
4822,6444
4809,6451
4801,6455
4779,6462
4761,6464
3296,6464
3278,6462
3255,6455
3248,6451
3235,6444
3235,6444
3216,6429
3201,6410
3190,6390
3183,6367
3181,6343
3183,6320
3185,6314
3187,6305
3187,6295
3185,6286
3181,6277
3176,6269
3169,6262
3161,6256
3152,6253
3143,6251
3138,6251
2802,6251
2802,5856
3231,5856
3240,5855
3250,5852
3258,5848
3266,5842
3272,5834
3276,5826
3279,5817
3280,5807
3280,5600
3279,5590
3276,5581
3272,5573
3266,5565
3258,5559
3250,5554
3240,5552
3231,5551
2802,5551
2802,5233
3520,5233
3520,6174
3521,6184
3524,6193
3528,6201
3535,6209
3542,6215
3551,6220
3560,6222
3569,6223
4487,6223
4497,6222
4506,6220
4515,6215
4522,6209
4528,6201
4533,6193
4536,6184
4537,6174
4537,5233
4536,5223
4533,5214
4528,5205
4522,5198
4515,5192
4506,5187
4497,5184
4487,5184
3569,5184
3560,5184
3551,5187
3542,5192
3535,5198
3528,5205
3524,5214
3521,5223
3520,5233
2802,5233
2802,5156
3138,5156
3148,5155
3157,5152
3165,5148
3173,5142
3179,5134
3183,5126
3186,5117
3187,5107
3186,5097
3185,5093
3183,5087
3181,5063
3183,5040
3190,5017
3201,4996
3216,4978
3235,4963
3255,4952
3278,4945
3296,4943
4761,4943
4779,4945
" /> 
<polyline style="fill-rule:evenodd;"
points="909,5738
959,5759
1004,5789
1043,5828
1073,5873
1093,5923
1104,5976
1104,6031
1093,6084
1073,6134
1043,6179
1004,6218
997,6222
959,6248
909,6268
856,6279
801,6279
748,6268
698,6248
660,6222
653,6218
614,6179
584,6134
563,6084
553,6031
553,5976
563,5923
584,5873
614,5828
653,5789
698,5759
748,5738
801,5728
856,5728
909,5738
" /> 
<polyline style="fill-rule:evenodd;"
points="909,4738
959,4759
1004,4789
1043,4828
1073,4873
1093,4923
1104,4976
1104,5031
1093,5084
1075,5128
1073,5134
1043,5179
1004,5218
983,5232
959,5248
909,5268
856,5279
801,5279
748,5268
698,5248
674,5232
653,5218
614,5179
584,5134
582,5128
563,5084
553,5031
553,4976
563,4923
584,4873
614,4828
653,4789
698,4759
748,4738
801,4728
856,4728
909,4738
" /> 
<polyline style="fill-rule:evenodd;"
points="2562,4594
2576,4598
2588,4605
2599,4614
2608,4625
2614,4637
2619,4651
2620,4667
2620,5159
2619,5175
2614,5189
2608,5201
2599,5212
2588,5221
2576,5227
2562,5232
2546,5233
1611,5233
1595,5232
1581,5227
1569,5221
1558,5212
1549,5201
1542,5189
1538,5175
1537,5159
1537,4667
1538,4651
1542,4637
1549,4625
1558,4614
1569,4605
1581,4598
1595,4594
1611,4593
2546,4593
2562,4594
" /> 
<polyline style="fill-rule:evenodd;"
points="4264,3252
4264,3252
4264,3252
4411,3313
4446,3336
4543,3401
4656,3514
4656,3514
4744,3646
4805,3793
4805,3793
4836,3949
4836,4108
4807,4255
4805,4264
4744,4411
4744,4411
4656,4543
4543,4656
4543,4656
4411,4744
4264,4805
4264,4805
4264,4805
4108,4836
3949,4836
3793,4805
3793,4805
3793,4805
3646,4744
3514,4656
3514,4656
3401,4543
3313,4411
3313,4411
3252,4264
3250,4255
3221,4108
3221,3949
3252,3793
3252,3793
3313,3646
3401,3514
3401,3514
3514,3401
3611,3336
3646,3313
3793,3252
3793,3252
3793,3252
3949,3221
4108,3221
4264,3252
" /> 
<polyline style="fill-rule:evenodd;"
points="7309,3888
7359,3909
7404,3939
7443,3978
7473,4023
7493,4073
7504,4126
7504,4181
7493,4234
7481,4264
7473,4284
7443,4329
7404,4368
7401,4370
7359,4398
7309,4418
7256,4429
7201,4429
7148,4418
7098,4398
7056,4370
7053,4368
7014,4329
6984,4284
6976,4264
6963,4234
6953,4181
6953,4126
6963,4073
6984,4023
7014,3978
7053,3939
7098,3909
7148,3888
7201,3878
7256,3878
7309,3888
" /> 
<polyline style="fill-rule:evenodd;"
points="6132,3687
6196,3714
6255,3753
6304,3802
6343,3860
6370,3925
6383,3994
6383,4063
6370,4132
6343,4196
6304,4255
6255,4304
6196,4343
6132,4370
6063,4383
5994,4383
5925,4370
5860,4343
5802,4304
5753,4255
5714,4196
5687,4132
5674,4063
5674,3994
5687,3925
5714,3860
5753,3802
5802,3753
5860,3714
5925,3687
5994,3674
6063,3674
6132,3687
" /> 
<polyline style="fill-rule:evenodd;"
points="2132,3687
2196,3714
2255,3753
2304,3802
2343,3860
2370,3925
2383,3994
2383,4063
2370,4132
2343,4196
2304,4255
2255,4304
2196,4343
2132,4370
2063,4383
1994,4383
1925,4370
1860,4343
1802,4304
1753,4255
1714,4196
1687,4132
1674,4063
1674,3994
1687,3925
1714,3860
1753,3802
1802,3753
1860,3714
1925,3687
1994,3674
2063,3674
2132,3687
" /> 
<polyline style="fill-rule:evenodd;"
points="909,3738
959,3759
1004,3789
1043,3828
1073,3873
1093,3923
1104,3976
1104,4031
1093,4084
1083,4108
1073,4134
1043,4179
1004,4218
959,4248
909,4268
856,4279
801,4279
748,4268
698,4248
653,4218
614,4179
584,4134
573,4108
563,4084
553,4031
553,3976
563,3923
584,3873
614,3828
653,3789
698,3759
748,3738
801,3728
856,3728
909,3738
" /> 
<polyline style="fill-rule:evenodd;"
points="2676,2395
2718,2403
2836,2452
2941,2523
2943,2524
3033,2614
3104,2721
3153,2839
3178,2964
3178,3092
3172,3126
3153,3218
3139,3252
3104,3336
3033,3443
2943,3533
2943,3533
2836,3604
2718,3653
2676,3662
2592,3678
2464,3678
2381,3662
2339,3653
2221,3604
2114,3533
2114,3533
2024,3443
1952,3336
1917,3252
1903,3218
1885,3126
1878,3092
1878,2964
1903,2839
1952,2721
2024,2614
2114,2524
2116,2523
2221,2452
2339,2403
2381,2395
2464,2378
2592,2378
2676,2395
" /> 
<polyline style="fill-rule:evenodd;"
points="1702,3537
695,3537
695,2530
1702,2530
1702,3537
" /> 
<polyline style="fill-rule:evenodd;"
points="7309,2888
7359,2909
7404,2939
7443,2978
7473,3023
7493,3073
7504,3126
7504,3181
7493,3234
7473,3284
7453,3313
7443,3329
7404,3368
7359,3398
7309,3418
7256,3429
7201,3429
7148,3418
7098,3398
7053,3368
7014,3329
7004,3313
6984,3284
6963,3234
6953,3181
6953,3126
6963,3073
6984,3023
7014,2978
7053,2939
7098,2909
7148,2888
7201,2878
7256,2878
7309,2888
" /> 
<polyline style="fill-rule:evenodd;"
points="5176,1395
5218,1403
5336,1452
5441,1523
5443,1524
5533,1614
5604,1721
5650,1830
5654,1839
5660,1846
5668,1852
5676,1857
5686,1859
5695,1860
5705,1859
5714,1857
5723,1852
5730,1846
5736,1839
5741,1830
5744,1821
5745,1811
5745,1530
6752,1530
6752,2537
5745,2537
5745,2246
5744,2236
5741,2227
5736,2218
5730,2211
5723,2205
5714,2200
5705,2197
5695,2196
5686,2197
5676,2200
5668,2205
5660,2211
5654,2218
5650,2227
5604,2336
5533,2443
5443,2533
5443,2533
5336,2604
5218,2653
5176,2662
5092,2678
4964,2678
4881,2662
4839,2653
4721,2604
4614,2533
4614,2533
4524,2443
4452,2336
4410,2234
4403,2218
4385,2126
4378,2092
4378,1964
4400,1857
4403,1839
4452,1721
4524,1614
4524,1614
4614,1524
4616,1523
4721,1452
4839,1403
4881,1395
4964,1378
5092,1378
5176,1395
" /> 
<polyline style="fill-rule:evenodd;"
points="7309,1888
7359,1909
7404,1939
7443,1978
7473,2023
7493,2073
7504,2126
7504,2181
7493,2234
7473,2284
7443,2329
7404,2368
7359,2398
7309,2418
7256,2429
7201,2429
7148,2418
7098,2398
7053,2368
7014,2329
6984,2284
6963,2234
6953,2181
6953,2126
6963,2073
6984,2023
7014,1978
7053,1939
7098,1909
7148,1888
7201,1878
7256,1878
7309,1888
" /> 
<polyline style="fill-rule:evenodd;"
points="3259,563
3309,584
3354,614
3393,653
3423,698
3443,748
3454,801
3454,856
3443,909
3423,959
3393,1004
3354,1043
3309,1073
3259,1093
3206,1104
3151,1104
3098,1093
3048,1073
3003,1043
2964,1004
2934,959
2913,909
2903,856
2903,801
2913,748
2934,698
2964,653
3003,614
3048,584
3098,563
3151,553
3206,553
3259,563
" /> 
<polyline style="fill-rule:evenodd;"
points="2259,563
2309,584
2354,614
2393,653
2423,698
2443,748
2454,801
2454,856
2443,909
2423,959
2393,1004
2354,1043
2309,1073
2259,1093
2206,1104
2151,1104
2098,1093
2048,1073
2003,1043
1964,1004
1934,959
1913,909
1903,856
1903,801
1913,748
1934,698
1964,653
2003,614
2048,584
2098,563
2151,553
2206,553
2259,563
" /> 
</g>
<g style="fill:#000000; fill-opacity:1.0; 
stroke:#000000; stroke-width:0; stroke-opacity:1; 
stroke-linecap:round; stroke-linejoin:round;">
</g>
<g style="fill:#C2C200; fill-opacity:1.0; 
stroke:#C2C200; stroke-width:0; stroke-opacity:1; 
stroke-linecap:round; stroke-linejoin:round;">
</g>
<g style="fill:#C2C200; fill-opacity:0.0; 
stroke:#C2C200; stroke-width:59.0551; stroke-opacity:1; 
stroke-linecap:round; stroke-linejoin:round;">
<path d="M253.937 588.937 A375 375 0.0 0 0 628.937 963.937 " />
<path d="M628.937 1593.94 A315 315 0.0 0 0 628.937 963.937 " />
<path d="M628.937 1593.94 A375 375 0.0 0 0 254.071 1978.93 " />
<path d="M2913.94 7803.94 A375 375 0.0 0 0 3288.94 7428.94 " />
<path d="M3918.94 7428.94 A375 375 0.0 0 0 4293.94 7803.94 " />
<path d="M3918.94 7428.94 A315 315 0.0 0 0 3288.94 7428.94 " />
<path d="M7803.94 6818.94 A375 375 0.0 0 0 7428.94 6443.94 " />
<path d="M7428.94 5813.94 A315 315 0.0 0 0 7428.94 6443.94 " />
<path d="M7428.94 5813.94 A375 375 0.0 0 0 7803.94 5438.94 " />
<path d="M7803 803
L7803 5438
" />
<path d="M2913 7803
L803 7803
" />
<path d="M5438 253
L578 253
" />
<path d="M5813.94 628.937 A375 375 0.0 0 0 5438.94 253.937 " />
<path d="M6818.94 253.937 A375 375 0.0 0 0 6443.94 628.937 " />
<path d="M5813.94 628.937 A315 315 0.0 0 0 6443.94 628.937 " />
<path d="M253.937 7253.94 A550 550 0.0 0 0 803.937 7803.94 " />
<path d="M7253.94 7803.94 A550 550 0.0 0 0 7803.94 7253.94 " />
<path d="M6818 253
L7253 253
" />
<path d="M253 7253
L253 1978
" />
<path d="M7253 7803
L4293 7803
" />
<path d="M7803 6818
L7803 7253
" />
<path d="M7803.94 803.937 A550 550 0.0 0 0 7253.94 253.937 " />
<path d="M578.937 253.937 A325 325 0.0 0 0 253.937 578.937 " />
</g> 
</svg>
