<?xml version="1.0" standalone="no"?>
 <!DOCTYPE svg PUBLIC "-//W3C//DTD SVG 1.1//EN" 
 "http://www.w3.org/Graphics/SVG/1.1/DTD/svg11.dtd"> 
<svg xmlns="http://www.w3.org/2000/svg" version="1.1" 
    width="2.0447cm" height="2.0447cm" viewBox="0 0 8050 8050 ">
<title>SVG Picture created as WoodElf_02-B.SilkS.svg date 2019/05/12 14:16:08 </title>
  <desc>Picture generated by PCBNEW </desc>
<g style="fill:#000000; fill-opacity:1;stroke:#000000; stroke-opacity:1;
stroke-linecap:round; stroke-linejoin:round; "
 transform="translate(0 0) scale(1 1)">
</g>
<g style="fill:#000000; fill-opacity:0.0; 
stroke:#000000; stroke-width:-0.000393701; stroke-opacity:1; 
stroke-linecap:round; stroke-linejoin:round;">
</g>
<g style="fill:#840084; fill-opacity:0.0; 
stroke:#840084; stroke-width:-0.000393701; stroke-opacity:1; 
stroke-linecap:round; stroke-linejoin:round;">
</g>
<g style="fill:#840084; fill-opacity:0.0; 
stroke:#840084; stroke-width:59.0551; stroke-opacity:1; 
stroke-linecap:round; stroke-linejoin:round;">
<path d="M7697 803
L7698 5029
" />
<path d="M7697.94 803.937 A444 444 0.0 0 0 7253.94 359.937 " />
<path d="M7255 359
L7227 358
" />
<path d="M588 358
L5029 358
" />
<path d="M588.937 358.937 A230 230 0.0 0 0 358.937 588.937 " />
<path d="M357 7251
L356 3025
" />
<path d="M358.937 7253.94 A444 444 0.0 0 0 802.937 7697.94 " />
<path d="M7253 7696
L4703 7698
" />
<path d="M7253.94 7697.94 A444 444 0.0 0 0 7697.94 7253.94 " />
<path d="M7697 7255
L7698 7227
" />
<path d="M801 7697
L2503 7698
" />
</g>
<g style="fill:#840084; fill-opacity:0.0; 
stroke:#840084; stroke-width:49.2126; stroke-opacity:1; 
stroke-linecap:round; stroke-linejoin:round;">
<path d="M6048 4504
L6048 4617
" />
<path d="M6245 4560
L6048 4560
" />
<path d="M6245 4682
L6114 4682
" />
<path d="M6048 4682
L6058 4673
L6067 4682
L6058 4692
L6048 4682
L6067 4682
" />
<path d="M6236 4851
L6245 4832
L6245 4795
L6236 4776
L6217 4767
L6142 4767
L6123 4776
L6114 4795
L6114 4832
L6123 4851
L6142 4860
L6161 4860
L6180 4767
" />
<path d="M6114 4917
L6114 4992
" />
<path d="M6245 4945
L6077 4945
L6058 4954
L6048 4973
L6048 4992
" />
<path d="M6245 5085
L6236 5067
L6217 5057
L6048 5057
" />
<path d="M6245 5160
L6114 5160
" />
<path d="M6048 5160
L6058 5151
L6067 5160
L6058 5170
L6048 5160
L6067 5160
" />
<path d="M6114 5254
L6245 5254
" />
<path d="M6133 5254
L6123 5263
L6114 5282
L6114 5310
L6123 5329
L6142 5338
L6245 5338
" />
<path d="M6114 5517
L6273 5517
L6292 5507
L6301 5498
L6311 5479
L6311 5451
L6301 5432
" />
<path d="M6236 5517
L6245 5498
L6245 5460
L6236 5442
L6226 5432
L6208 5423
L6152 5423
L6133 5432
L6123 5442
L6114 5460
L6114 5498
L6123 5517
" />
<path d="M6245 5863
L6245 5751
" />
<path d="M6245 5807
L6048 5807
L6077 5788
L6095 5770
L6105 5751
" />
<path d="M6226 5948
L6236 5957
L6245 5948
L6236 5938
L6226 5948
L6245 5948
" />
<path d="M6048 6135
L6048 6041
L6142 6032
L6133 6041
L6123 6060
L6123 6107
L6133 6126
L6142 6135
L6161 6145
L6208 6145
L6226 6135
L6236 6126
L6245 6107
L6245 6060
L6236 6041
L6226 6032
" />
<path d="M6048 6388
L6086 6370
" />
<path d="M6245 6576
L6245 6463
" />
<path d="M6245 6520
L6048 6520
L6077 6501
L6095 6482
L6105 6463
" />
<path d="M6245 6670
L6245 6707
L6236 6726
L6226 6735
L6198 6754
L6161 6763
L6086 6763
L6067 6754
L6058 6745
L6048 6726
L6048 6688
L6058 6670
L6067 6660
L6086 6651
L6133 6651
L6152 6660
L6161 6670
L6170 6688
L6170 6726
L6161 6745
L6152 6754
L6133 6763
" />
<path d="M6590 4532
L6393 4532
" />
<path d="M6487 4532
L6487 4645
" />
<path d="M6590 4645
L6393 4645
" />
<path d="M6590 4823
L6487 4823
L6468 4814
L6458 4795
L6458 4757
L6468 4739
" />
<path d="M6580 4823
L6590 4804
L6590 4757
L6580 4739
L6562 4729
L6543 4729
L6524 4739
L6515 4757
L6515 4804
L6505 4823
" />
<path d="M6458 4917
L6590 4917
" />
<path d="M6477 4917
L6468 4926
L6458 4945
L6458 4973
L6468 4992
L6487 5001
L6590 5001
" />
<path d="M6458 5095
L6590 5095
" />
<path d="M6477 5095
L6468 5104
L6458 5123
L6458 5151
L6468 5170
L6487 5179
L6590 5179
" />
<path d="M6590 5357
L6487 5357
L6468 5348
L6458 5329
L6458 5292
L6468 5273
" />
<path d="M6580 5357
L6590 5338
L6590 5292
L6580 5273
L6562 5263
L6543 5263
L6524 5273
L6515 5292
L6515 5338
L6505 5357
" />
<path d="M6590 5451
L6393 5451
" />
<path d="M6590 5535
L6487 5535
L6468 5526
L6458 5507
L6458 5479
L6468 5460
L6477 5451
" />
<path d="M6402 5882
L6393 5863
L6393 5835
L6402 5807
L6421 5788
L6440 5779
L6477 5770
L6505 5770
L6543 5779
L6562 5788
L6580 5807
L6590 5835
L6590 5854
L6580 5882
L6571 5891
L6505 5891
L6505 5854
" />
<path d="M6590 5976
L6458 5976
" />
<path d="M6496 5976
L6477 5985
L6468 5995
L6458 6013
L6458 6032
" />
<path d="M6590 6182
L6487 6182
L6468 6173
L6458 6154
L6458 6116
L6468 6098
" />
<path d="M6580 6182
L6590 6163
L6590 6116
L6580 6098
L6562 6088
L6543 6088
L6524 6098
L6515 6116
L6515 6163
L6505 6182
" />
<path d="M6580 6360
L6590 6341
L6590 6304
L6580 6285
L6571 6276
L6552 6266
L6496 6266
L6477 6276
L6468 6285
L6458 6304
L6458 6341
L6468 6360
" />
<path d="M6580 6520
L6590 6501
L6590 6463
L6580 6445
L6562 6435
L6487 6435
L6468 6445
L6458 6463
L6458 6501
L6468 6520
L6487 6529
L6505 6529
L6524 6435
" />
<path d="M5675 6933
L5647 6942
L5600 6942
L5582 6933
L5572 6924
L5563 6905
L5563 6886
L5572 6867
L5582 6858
L5600 6849
L5638 6839
L5657 6830
L5666 6821
L5675 6802
L5675 6783
L5666 6764
L5657 6755
L5638 6746
L5591 6746
L5563 6755
" />
<path d="M5497 6746
L5450 6942
L5413 6802
L5375 6942
L5328 6746
" />
<path d="M5216 6746
L5178 6746
L5160 6755
L5141 6774
L5132 6811
L5132 6877
L5141 6914
L5160 6933
L5178 6942
L5216 6942
L5235 6933
L5253 6914
L5263 6877
L5263 6811
L5253 6774
L5235 6755
L5216 6746
" />
<path d="M4716 6746
L4650 6942
L4585 6746
" />
<path d="M4519 6942
L4519 6746
L4472 6746
L4444 6755
L4425 6774
L4416 6793
L4407 6830
L4407 6858
L4416 6896
L4425 6914
L4444 6933
L4472 6942
L4519 6942
" />
<path d="M4322 6942
L4322 6746
L4275 6746
L4247 6755
L4228 6774
L4219 6793
L4210 6830
L4210 6858
L4219 6896
L4228 6914
L4247 6933
L4275 6942
L4322 6942
" />
<path d="M1155 5853
L1146 5835
L1146 5807
L1155 5778
L1174 5760
L1193 5750
L1230 5741
L1258 5741
L1296 5750
L1314 5760
L1333 5778
L1342 5807
L1342 5825
L1333 5853
L1324 5863
L1258 5863
L1258 5825
" />
<path d="M1342 5947
L1146 5947
L1342 6060
L1146 6060
" />
<path d="M1342 6153
L1146 6153
L1146 6200
L1155 6228
L1174 6247
L1193 6257
L1230 6266
L1258 6266
L1296 6257
L1314 6247
L1333 6228
L1342 6200
L1342 6153
" />
<path d="M1342 4802
L1146 4802
L1146 4849
L1155 4877
L1174 4896
L1193 4905
L1230 4914
L1258 4914
L1296 4905
L1314 4896
L1333 4877
L1342 4849
L1342 4802
" />
<path d="M1342 4999
L1146 4999
" />
<path d="M1342 5092
L1146 5092
L1342 5205
L1146 5205
" />
<path d="M1333 3685
L1342 3713
L1342 3760
L1333 3778
L1324 3788
L1305 3797
L1286 3797
L1267 3788
L1258 3778
L1249 3760
L1239 3722
L1230 3703
L1221 3694
L1202 3685
L1183 3685
L1164 3694
L1155 3703
L1146 3722
L1146 3769
L1155 3797
" />
<path d="M1146 3863
L1342 3910
L1202 3947
L1342 3985
L1146 4032
" />
<path d="M1342 4107
L1146 4107
" />
<path d="M1342 4200
L1146 4200
L1342 4313
L1146 4313
" />
<path d="M1841 746
L1775 942
L1710 746
" />
<path d="M1644 942
L1644 746
L1597 746
L1569 755
L1550 774
L1541 793
L1532 830
L1532 858
L1541 896
L1550 914
L1569 933
L1597 942
L1644 942
" />
<path d="M1447 942
L1447 746
L1400 746
L1372 755
L1353 774
L1344 793
L1335 830
L1335 858
L1344 896
L1353 914
L1372 933
L1400 942
L1447 942
" />
<path d="M4075 933
L4047 942
L4000 942
L3982 933
L3972 924
L3963 905
L3963 886
L3972 867
L3982 858
L4000 849
L4038 839
L4057 830
L4066 821
L4075 802
L4075 783
L4066 764
L4057 755
L4038 746
L3991 746
L3963 755
" />
<path d="M3897 746
L3850 942
L3813 802
L3775 942
L3728 746
" />
<path d="M3616 746
L3578 746
L3560 755
L3541 774
L3532 811
L3532 877
L3541 914
L3560 933
L3578 942
L3616 942
L3635 933
L3653 914
L3663 877
L3663 811
L3653 774
L3635 755
L3616 746
" />
<path d="M7308 1185
L7317 1213
L7317 1260
L7308 1278
L7299 1288
L7280 1297
L7261 1297
L7242 1288
L7233 1278
L7224 1260
L7214 1222
L7205 1203
L7196 1194
L7177 1185
L7158 1185
L7139 1194
L7130 1203
L7121 1222
L7121 1269
L7130 1297
" />
<path d="M7121 1363
L7317 1410
L7177 1447
L7317 1485
L7121 1532
" />
<path d="M7317 1607
L7121 1607
" />
<path d="M7317 1700
L7121 1700
L7317 1813
L7121 1813
" />
<path d="M6892 2999
L6696 2999
L6696 3046
L6705 3074
L6724 3093
L6743 3102
L6780 3111
L6808 3111
L6846 3102
L6864 3093
L6883 3074
L6892 3046
L6892 2999
" />
<path d="M6696 3233
L6696 3271
L6705 3289
L6724 3308
L6761 3317
L6827 3317
L6864 3308
L6883 3289
L6892 3271
L6892 3233
L6883 3214
L6864 3196
L6827 3186
L6761 3186
L6724 3196
L6705 3214
L6696 3233
" />
<path d="M6705 4003
L6696 3985
L6696 3957
L6705 3928
L6724 3910
L6743 3900
L6780 3891
L6808 3891
L6846 3900
L6864 3910
L6883 3928
L6892 3957
L6892 3975
L6883 4003
L6874 4013
L6808 4013
L6808 3975
" />
<path d="M6892 4097
L6696 4097
L6892 4210
L6696 4210
" />
<path d="M6892 4303
L6696 4303
L6696 4350
L6705 4378
L6724 4397
L6743 4407
L6780 4416
L6808 4416
L6846 4407
L6864 4397
L6883 4378
L6892 4350
L6892 4303
" />
</g>
<g style="fill:#840084; fill-opacity:0.0; 
stroke:#840084; stroke-width:59.0551; stroke-opacity:1; 
stroke-linecap:round; stroke-linejoin:round;">
<path d="M358.937 588.937 A270 270 0.0 0 0 628.937 858.937 " />
<path d="M628.937 1698.94 A420 420 0.0 0 0 628.937 858.937 " />
<path d="M628.937 1698.94 A270 270 0.0 0 0 358.937 1968.94 " />
<path d="M358 2378
L358 1968
" />
<path d="M6073 1483
L6073 1133
" />
<path d="M6073 1133
L2523 1133
" />
<path d="M1423 2233
L1423 2483
" />
<path d="M1423 3683
L3173 3683
" />
<path d="M3973 2883
L6073 2883
" />
<path d="M3973.94 2883.94 A800 800 0.0 0 0 3173.94 3683.94 " />
<path d="M2523.94 1133.94 A1100 1100 0.0 0 0 1423.94 2233.94 " />
<path d="M6073 2883
L6073 2583
" />
<path d="M1423 3583
L1423 3683
" />
<path d="M4978 6323
L4738 6563
" />
<path d="M3103 5143
L3103 4923
" />
<path d="M4738 6563
L3103 6563
" />
<path d="M3103 4923
L4978 4923
" />
<path d="M3103 5843
L3103 5563
" />
<path d="M3103 6563
L3103 6263
" />
<path d="M4978 5143
L4978 4923
" />
<path d="M4978 5843
L4978 5563
" />
<path d="M4978 6323
L4978 6263
" />
<path d="M6818 358
L7228 358
" />
<path d="M6818.94 358.937 A270 270 0.0 0 0 6548.94 628.937 " />
<path d="M5708.94 628.937 A420 420 0.0 0 0 6548.94 628.937 " />
<path d="M5708.94 628.937 A270 270 0.0 0 0 5438.94 358.937 " />
<path d="M5028 358
L5438 358
" />
<path d="M7698 6818
L7698 7228
" />
<path d="M7698.94 6818.94 A270 270 0.0 0 0 7428.94 6548.94 " />
<path d="M7428.94 5708.94 A420 420 0.0 0 0 7428.94 6548.94 " />
<path d="M7428.94 5708.94 A270 270 0.0 0 0 7698.94 5438.94 " />
<path d="M7698 5028
L7698 5438
" />
<path d="M2913 7698
L2503 7698
" />
<path d="M2913.94 7698.94 A270 270 0.0 0 0 3183.94 7428.94 " />
<path d="M4023.94 7428.94 A420 420 0.0 0 0 3183.94 7428.94 " />
<path d="M4023.94 7428.94 A270 270 0.0 0 0 4293.94 7698.94 " />
<path d="M4703 7698
L4293 7698
" />
</g>
<g style="fill:#840084; fill-opacity:0.0; 
stroke:#840084; stroke-width:47.2441; stroke-opacity:1; 
stroke-linecap:round; stroke-linejoin:round;">
<path d="M1454 6817
L1454 4510
" />
<path d="M1454 4510
L2702 4510
" />
<path d="M2702 4510
L2702 6817
" />
</g>
<g style="fill:#840084; fill-opacity:1.0; 
stroke:#840084; stroke-width:3.93701; stroke-opacity:1; 
stroke-linecap:round; stroke-linejoin:round;">
<polyline style="fill-rule:evenodd;"
points="6977,7080
6982,7086
6989,7089
6994,7090
7001,7089
7007,7085
7012,7080
7013,7075
7013,7075
7014,7071
7016,7065
7020,7058
7025,7047
7033,7034
7042,7019
7053,7000
7054,6998
7070,6971
7084,6947
7096,6925
7107,6906
7115,6889
7123,6873
7129,6859
7134,6846
7137,6833
7140,6822
7142,6810
7143,6798
7143,6785
7142,6775
7141,6769
7134,6755
7124,6742
7112,6733
7096,6725
7079,6721
7063,6720
7055,6720
7050,6721
7047,6722
7045,6724
7040,6731
7038,6739
7040,6745
7043,6750
7046,6753
7051,6755
7059,6757
7064,6757
7078,6760
7089,6764
7098,6769
7102,6775
7105,6785
7105,6798
7103,6813
7099,6830
7092,6849
7088,6859
7084,6869
7077,6881
7069,6896
7061,6912
7051,6929
7042,6945
7033,6960
7031,6962
7018,6985
7006,7005
6997,7021
6989,7035
6983,7047
6979,7057
6977,7065
6976,7071
6975,7072
6977,7080
" /> 
<polyline style="fill-rule:evenodd;"
points="6760,6728
6764,6733
6765,6734
6767,6736
6770,6738
6774,6738
6780,6738
6786,6738
6798,6737
6810,6734
6823,6729
6838,6723
6856,6715
6868,6709
6879,6703
6888,6699
6894,6696
6899,6695
6904,6694
6908,6693
6909,6693
6916,6694
6922,6695
6927,6698
6930,6701
6938,6706
6945,6708
6951,6707
6955,6706
6961,6700
6965,6693
6964,6685
6962,6680
6958,6675
6952,6670
6944,6664
6935,6660
6928,6657
6919,6655
6910,6654
6900,6655
6889,6658
6877,6663
6862,6670
6852,6675
6835,6683
6820,6690
6808,6695
6797,6699
6787,6701
6781,6702
6771,6704
6764,6707
6761,6713
6759,6720
6760,6728
" /> 
<polyline style="fill-rule:evenodd;"
points="6251,7458
6255,7464
6257,7467
6260,7468
6263,7469
6268,7470
6276,7471
6286,7471
6288,7471
6303,7472
6319,7472
6336,7472
6352,7471
6366,7470
6376,7468
6382,7468
6386,7467
6387,7467
6387,7469
6385,7474
6383,7480
6382,7481
6377,7492
6369,7502
6368,7503
6361,7510
6351,7519
6339,7529
6326,7540
6311,7551
6298,7561
6288,7569
6281,7575
6276,7580
6273,7584
6272,7588
6271,7591
6273,7600
6278,7606
6287,7611
6299,7614
6310,7614
6342,7613
6374,7607
6406,7599
6436,7587
6436,7587
6463,7572
6488,7554
6511,7533
6533,7507
6554,7478
6565,7461
6572,7449
6580,7433
6589,7414
6600,7392
6612,7368
6624,7341
6636,7316
6647,7294
6657,7274
6666,7257
6675,7242
6684,7228
6693,7215
6702,7202
6703,7200
6715,7185
6725,7173
6735,7163
6745,7155
6757,7147
6770,7140
6771,7139
6789,7130
6802,7121
6813,7112
6821,7103
6826,7093
6828,7083
6829,7079
6829,7073
6829,7069
6826,7065
6824,7063
6817,7058
6810,7057
6803,7059
6797,7064
6792,7073
6792,7075
6790,7080
6787,7084
6783,7088
6777,7093
6769,7098
6758,7104
6748,7109
6739,7114
6731,7118
6725,7123
6718,7128
6711,7135
6703,7142
6692,7155
6680,7168
6670,7181
6659,7196
6649,7212
6638,7230
6627,7250
6616,7273
6603,7298
6589,7327
6587,7332
6573,7362
6560,7388
6548,7412
6537,7433
6526,7451
6516,7467
6506,7481
6496,7494
6485,7505
6475,7515
6465,7523
6449,7536
6433,7546
6416,7554
6409,7558
6401,7560
6392,7563
6381,7567
6370,7570
6360,7572
6352,7574
6346,7574
6346,7574
6346,7573
6349,7570
6355,7565
6362,7559
6367,7555
6376,7547
6385,7539
6392,7532
6398,7527
6399,7525
6404,7519
6408,7513
6413,7505
6417,7496
6421,7485
6425,7472
6430,7457
6434,7440
6439,7420
6444,7397
6450,7370
6456,7340
6458,7332
6465,7298
6471,7267
6478,7239
6484,7214
6490,7192
6496,7172
6502,7153
6508,7136
6515,7120
6522,7104
6522,7103
6536,7078
6549,7056
6564,7038
6579,7024
6596,7012
6614,7004
6616,7003
6622,7002
6630,7000
6640,6999
6642,6999
6651,6998
6657,6997
6661,6995
6664,6993
6666,6991
6670,6983
6671,6976
6668,6968
6667,6968
6663,6963
6658,6961
6652,6960
6643,6960
6637,6961
6615,6964
6596,6970
6590,6973
6572,6983
6554,6996
6537,7012
6522,7030
6512,7043
6501,7061
6497,7052
6492,7036
6489,7018
6487,6998
6487,6977
6488,6956
6489,6944
6495,6914
6504,6884
6514,6855
6528,6827
6543,6801
6559,6778
6575,6760
6593,6745
6610,6734
6627,6726
6646,6721
6654,6719
6662,6718
6668,6717
6672,6714
6674,6712
6678,6705
6679,6697
6677,6690
6675,6687
6672,6684
6669,6682
6665,6682
6658,6682
6656,6682
6639,6683
6623,6687
6606,6694
6598,6697
6576,6711
6556,6727
6536,6747
6518,6770
6501,6796
6487,6825
6474,6855
6463,6888
6455,6922
6454,6925
6453,6933
6452,6942
6451,6952
6451,6964
6451,6979
6451,6985
6451,7000
6451,7012
6452,7023
6453,7032
6455,7041
6457,7051
6461,7063
6466,7077
6469,7087
6478,7111
6468,7136
6464,7146
6461,7155
6458,7161
6455,7164
6455,7164
6451,7168
6445,7175
6439,7184
6433,7195
6425,7209
6425,7301
6425,7301
6425,7303
6424,7309
6422,7317
6420,7328
6418,7340
6417,7345
6413,7364
6409,7379
6407,7391
6405,7400
6403,7407
6402,7412
6400,7416
6399,7418
6398,7420
6396,7421
6395,7422
6387,7426
6376,7430
6362,7433
6356,7433
6343,7434
6349,7428
6358,7418
6366,7406
6375,7393
6384,7378
6394,7360
6406,7339
6407,7335
6413,7324
6418,7315
6422,7308
6424,7303
6425,7301
6425,7209
6425,7210
6416,7228
6406,7249
6402,7257
6393,7277
6384,7296
6375,7315
6366,7332
6358,7347
6351,7360
6345,7370
6344,7372
6332,7389
6319,7404
6307,7415
6295,7424
6283,7430
6273,7432
6272,7432
6263,7434
6256,7438
6251,7444
6249,7451
6251,7458
" /> 
</g>
<g style="fill:#840084; fill-opacity:0.0; 
stroke:#840084; stroke-width:3.93701; stroke-opacity:1; 
stroke-linecap:round; stroke-linejoin:round;">
</g>
<g style="fill:#840084; fill-opacity:0.0; 
stroke:#840084; stroke-width:49.2126; stroke-opacity:1; 
stroke-linecap:round; stroke-linejoin:round;">
<path d="M6453 1342
L6453 1146
" />
<path d="M6453 1239
L6341 1239
" />
<path d="M6341 1342
L6341 1146
" />
<path d="M6144 1342
L6257 1342
" />
<path d="M6200 1342
L6200 1146
L6219 1174
L6238 1193
L6257 1202
" />
<path d="M5211 5117
L5305 5117
L5305 4921
" />
<path d="M5043 5117
L5155 5117
" />
<path d="M5099 5117
L5099 4921
L5118 4949
L5136 4968
L5155 4977
" />
<path d="M3074 4717
L3074 4521
L3027 4521
L2999 4530
L2980 4549
L2971 4568
L2961 4605
L2961 4633
L2971 4671
L2980 4689
L2999 4708
L3027 4717
L3074 4717
" />
<path d="M2774 4717
L2886 4717
" />
<path d="M2830 4717
L2830 4521
L2849 4549
L2868 4568
L2886 4577
" />
</g>
<g style="fill:#000000; fill-opacity:0.0; 
stroke:#000000; stroke-width:49.2126; stroke-opacity:1; 
stroke-linecap:round; stroke-linejoin:round;">
</g>
<g style="fill:#C2C200; fill-opacity:0.0; 
stroke:#C2C200; stroke-width:49.2126; stroke-opacity:1; 
stroke-linecap:round; stroke-linejoin:round;">
</g>
<g style="fill:#C2C200; fill-opacity:0.0; 
stroke:#C2C200; stroke-width:59.0551; stroke-opacity:1; 
stroke-linecap:round; stroke-linejoin:round;">
<path d="M253.937 588.937 A375 375 0.0 0 0 628.937 963.937 " />
<path d="M628.937 1593.94 A315 315 0.0 0 0 628.937 963.937 " />
<path d="M628.937 1593.94 A375 375 0.0 0 0 254.071 1978.93 " />
<path d="M2913.94 7803.94 A375 375 0.0 0 0 3288.94 7428.94 " />
<path d="M3918.94 7428.94 A375 375 0.0 0 0 4293.94 7803.94 " />
<path d="M3918.94 7428.94 A315 315 0.0 0 0 3288.94 7428.94 " />
<path d="M7803.94 6818.94 A375 375 0.0 0 0 7428.94 6443.94 " />
<path d="M7428.94 5813.94 A315 315 0.0 0 0 7428.94 6443.94 " />
<path d="M7428.94 5813.94 A375 375 0.0 0 0 7803.94 5438.94 " />
<path d="M7803 803
L7803 5438
" />
<path d="M2913 7803
L803 7803
" />
<path d="M5438 253
L578 253
" />
<path d="M5813.94 628.937 A375 375 0.0 0 0 5438.94 253.937 " />
<path d="M6818.94 253.937 A375 375 0.0 0 0 6443.94 628.937 " />
<path d="M5813.94 628.937 A315 315 0.0 0 0 6443.94 628.937 " />
<path d="M253.937 7253.94 A550 550 0.0 0 0 803.937 7803.94 " />
<path d="M7253.94 7803.94 A550 550 0.0 0 0 7803.94 7253.94 " />
<path d="M6818 253
L7253 253
" />
<path d="M253 7253
L253 1978
" />
<path d="M7253 7803
L4293 7803
" />
<path d="M7803 6818
L7803 7253
" />
<path d="M7803.94 803.937 A550 550 0.0 0 0 7253.94 253.937 " />
<path d="M578.937 253.937 A325 325 0.0 0 0 253.937 578.937 " />
</g> 
</svg>
