<?xml version="1.0" standalone="no"?>
 <!DOCTYPE svg PUBLIC "-//W3C//DTD SVG 1.1//EN" 
 "http://www.w3.org/Graphics/SVG/1.1/DTD/svg11.dtd"> 
<svg xmlns="http://www.w3.org/2000/svg" version="1.1" 
    width="2.0447cm" height="2.0447cm" viewBox="0 0 8050 8050 ">
<title>SVG Picture created as WoodElf_02-B.Cu.svg date 2019/05/12 14:16:08 </title>
  <desc>Picture generated by PCBNEW </desc>
<g style="fill:#000000; fill-opacity:1;stroke:#000000; stroke-opacity:1;
stroke-linecap:round; stroke-linejoin:round; "
 transform="translate(0 0) scale(1 1)">
</g>
<g style="fill:#000000; fill-opacity:0.0; 
stroke:#000000; stroke-width:-0.000393701; stroke-opacity:1; 
stroke-linecap:round; stroke-linejoin:round;">
</g>
<g style="fill:#848400; fill-opacity:0.0; 
stroke:#848400; stroke-width:-0.000393701; stroke-opacity:1; 
stroke-linecap:round; stroke-linejoin:round;">
</g>
<g style="fill:#848400; fill-opacity:1.0; 
stroke:#848400; stroke-width:0; stroke-opacity:1; 
stroke-linecap:round; stroke-linejoin:round;">
<circle cx="5028.94" cy="2028.94" r="629.921" /> 
</g>
<g style="fill:#848400; fill-opacity:1.0; 
stroke:#848400; stroke-width:39.3701; stroke-opacity:1; 
stroke-linecap:round; stroke-linejoin:round;">
</g>
<g style="fill:#848400; fill-opacity:1.0; 
stroke:#848400; stroke-width:0; stroke-opacity:1; 
stroke-linecap:round; stroke-linejoin:round;">
<circle cx="2528.94" cy="3028.94" r="629.921" /> 
</g>
<g style="fill:#848400; fill-opacity:1.0; 
stroke:#848400; stroke-width:39.3701; stroke-opacity:1; 
stroke-linecap:round; stroke-linejoin:round;">
</g>
<g style="fill:#008400; fill-opacity:1.0; 
stroke:#008400; stroke-width:39.3701; stroke-opacity:1; 
stroke-linecap:round; stroke-linejoin:round;">
</g>
<g style="fill:#008400; fill-opacity:1.0; 
stroke:#008400; stroke-width:0; stroke-opacity:1; 
stroke-linecap:round; stroke-linejoin:round;">
<polyline style="fill-rule:evenodd;"
points="706,3526
706,2541
1691,2541
1691,3526
706,3526
" /> 
<polyline style="fill-rule:evenodd;"
points="5756,2526
5756,1541
6741,1541
6741,2526
5756,2526
" /> 
<polyline style="fill-rule:evenodd;"
points="2822,5531
2822,5176
3295,5176
3295,5531
2822,5531
" /> 
<polyline style="fill-rule:evenodd;"
points="2822,6231
2822,5876
3295,5876
3295,6231
2822,6231
" /> 
<polyline style="fill-rule:evenodd;"
points="4762,6231
4762,5876
5235,5876
5235,6231
4762,6231
" /> 
<polyline style="fill-rule:evenodd;"
points="4762,5531
4762,5176
5235,5176
5235,5531
4762,5531
" /> 
</g>
<g style="fill:#848400; fill-opacity:1.0; 
stroke:#848400; stroke-width:0; stroke-opacity:1; 
stroke-linecap:round; stroke-linejoin:round;">
<polyline style="fill-rule:evenodd;"
points="3500,5767
3500,6160
3300,6160
3300,5767
3500,5767
" /> 
<polyline style="fill-rule:evenodd;"
points="3500,5247
3500,5640
3300,5640
3300,5247
3500,5247
" /> 
<polyline style="fill-rule:evenodd;"
points="4757,5767
4757,6160
4557,6160
4557,5767
4757,5767
" /> 
<polyline style="fill-rule:evenodd;"
points="4757,5247
4757,5640
4557,5640
4557,5247
4757,5247
" /> 
<circle cx="5853.94" cy="7228.94" r="236.22" /> 
</g>
<g style="fill:#848400; fill-opacity:1.0; 
stroke:#848400; stroke-width:39.3701; stroke-opacity:1; 
stroke-linecap:round; stroke-linejoin:round;">
</g>
<g style="fill:#848400; fill-opacity:1.0; 
stroke:#848400; stroke-width:0; stroke-opacity:1; 
stroke-linecap:round; stroke-linejoin:round;">
<circle cx="4853.94" cy="7228.94" r="236.22" /> 
</g>
<g style="fill:#848400; fill-opacity:1.0; 
stroke:#848400; stroke-width:39.3701; stroke-opacity:1; 
stroke-linecap:round; stroke-linejoin:round;">
</g>
<g style="fill:#848400; fill-opacity:1.0; 
stroke:#848400; stroke-width:0; stroke-opacity:1; 
stroke-linecap:round; stroke-linejoin:round;">
<circle cx="7228.94" cy="4153.94" r="236.22" /> 
</g>
<g style="fill:#848400; fill-opacity:1.0; 
stroke:#848400; stroke-width:39.3701; stroke-opacity:1; 
stroke-linecap:round; stroke-linejoin:round;">
</g>
<g style="fill:#848400; fill-opacity:1.0; 
stroke:#848400; stroke-width:0; stroke-opacity:1; 
stroke-linecap:round; stroke-linejoin:round;">
<circle cx="7228.94" cy="2153.94" r="236.22" /> 
</g>
<g style="fill:#848400; fill-opacity:1.0; 
stroke:#848400; stroke-width:39.3701; stroke-opacity:1; 
stroke-linecap:round; stroke-linejoin:round;">
</g>
<g style="fill:#008400; fill-opacity:1.0; 
stroke:#008400; stroke-width:39.3701; stroke-opacity:1; 
stroke-linecap:round; stroke-linejoin:round;">
</g>
<g style="fill:#008400; fill-opacity:1.0; 
stroke:#008400; stroke-width:0; stroke-opacity:1; 
stroke-linecap:round; stroke-linejoin:round;">
<polyline style="fill-rule:evenodd;"
points="2511,4613
2521,4615
2530,4617
2539,4620
2548,4624
2556,4629
2564,4635
2571,4642
2578,4649
2584,4656
2588,4665
2593,4673
2596,4683
2598,4692
2600,4701
2600,4711
2600,5115
2600,5124
2598,5134
2596,5143
2593,5152
2588,5161
2584,5169
2578,5177
2571,5184
2564,5191
2556,5196
2548,5201
2539,5206
2530,5209
2521,5211
2511,5213
2502,5213
1655,5213
1646,5213
1636,5211
1627,5209
1618,5206
1609,5201
1601,5196
1593,5191
1586,5184
1579,5177
1573,5169
1568,5161
1564,5152
1561,5143
1559,5134
1557,5124
1557,5115
1557,4711
1557,4701
1559,4692
1561,4683
1564,4673
1568,4665
1573,4656
1579,4649
1586,4642
1593,4635
1601,4629
1609,4624
1618,4620
1627,4617
1636,4615
1646,4613
1655,4613
2502,4613
2511,4613
" /> 
<polyline style="fill-rule:evenodd;"
points="2511,6454
2521,6455
2530,6457
2539,6461
2548,6465
2556,6470
2564,6476
2571,6482
2578,6489
2584,6497
2588,6505
2593,6514
2596,6523
2598,6532
2600,6542
2600,6552
2600,6955
2600,6965
2598,6974
2596,6984
2593,6993
2588,7002
2584,7010
2578,7018
2571,7025
2564,7031
2556,7037
2548,7042
2539,7046
2530,7049
2521,7052
2511,7053
2502,7054
1655,7054
1646,7053
1636,7052
1627,7049
1618,7046
1609,7042
1601,7037
1593,7031
1586,7025
1579,7018
1573,7010
1568,7002
1564,6993
1561,6984
1559,6974
1557,6965
1557,6955
1557,6552
1557,6542
1559,6532
1561,6523
1564,6514
1568,6505
1573,6497
1579,6489
1586,6482
1593,6476
1601,6470
1609,6465
1618,6461
1627,6457
1636,6455
1646,6454
1655,6453
2502,6453
2511,6454
" /> 
</g>
<g style="fill:#848400; fill-opacity:1.0; 
stroke:#848400; stroke-width:0; stroke-opacity:1; 
stroke-linecap:round; stroke-linejoin:round;">
<circle cx="828.937" cy="5003.94" r="236.22" /> 
</g>
<g style="fill:#848400; fill-opacity:1.0; 
stroke:#848400; stroke-width:39.3701; stroke-opacity:1; 
stroke-linecap:round; stroke-linejoin:round;">
</g>
<g style="fill:#848400; fill-opacity:1.0; 
stroke:#848400; stroke-width:0; stroke-opacity:1; 
stroke-linecap:round; stroke-linejoin:round;">
<circle cx="7228.94" cy="3153.94" r="236.22" /> 
</g>
<g style="fill:#848400; fill-opacity:1.0; 
stroke:#848400; stroke-width:39.3701; stroke-opacity:1; 
stroke-linecap:round; stroke-linejoin:round;">
</g>
<g style="fill:#848400; fill-opacity:1.0; 
stroke:#848400; stroke-width:0; stroke-opacity:1; 
stroke-linecap:round; stroke-linejoin:round;">
<circle cx="828.937" cy="6003.94" r="236.22" /> 
</g>
<g style="fill:#848400; fill-opacity:1.0; 
stroke:#848400; stroke-width:39.3701; stroke-opacity:1; 
stroke-linecap:round; stroke-linejoin:round;">
</g>
<g style="fill:#848400; fill-opacity:1.0; 
stroke:#848400; stroke-width:0; stroke-opacity:1; 
stroke-linecap:round; stroke-linejoin:round;">
<circle cx="828.937" cy="4003.94" r="236.22" /> 
</g>
<g style="fill:#848400; fill-opacity:1.0; 
stroke:#848400; stroke-width:39.3701; stroke-opacity:1; 
stroke-linecap:round; stroke-linejoin:round;">
</g>
<g style="fill:#848400; fill-opacity:1.0; 
stroke:#848400; stroke-width:0; stroke-opacity:1; 
stroke-linecap:round; stroke-linejoin:round;">
<circle cx="3178.94" cy="828.937" r="236.22" /> 
</g>
<g style="fill:#848400; fill-opacity:1.0; 
stroke:#848400; stroke-width:39.3701; stroke-opacity:1; 
stroke-linecap:round; stroke-linejoin:round;">
</g>
<g style="fill:#848400; fill-opacity:1.0; 
stroke:#848400; stroke-width:0; stroke-opacity:1; 
stroke-linecap:round; stroke-linejoin:round;">
<circle cx="2178.94" cy="828.937" r="236.22" /> 
</g>
<g style="fill:#848400; fill-opacity:1.0; 
stroke:#848400; stroke-width:39.3701; stroke-opacity:1; 
stroke-linecap:round; stroke-linejoin:round;">
</g>
<g style="fill:#C2C2C2; fill-opacity:1.0; 
stroke:#C2C2C2; stroke-width:39.3701; stroke-opacity:1; 
stroke-linecap:round; stroke-linejoin:round;">
</g>
<g style="fill:#C2C2C2; fill-opacity:1.0; 
stroke:#C2C2C2; stroke-width:0; stroke-opacity:1; 
stroke-linecap:round; stroke-linejoin:round;">
<circle cx="2792.72" cy="3928.94" r="157.48" /> 
</g>
<g style="fill:#C2C2C2; fill-opacity:1.0; 
stroke:#C2C2C2; stroke-width:39.3701; stroke-opacity:1; 
stroke-linecap:round; stroke-linejoin:round;">
</g>
<g style="fill:#C2C2C2; fill-opacity:1.0; 
stroke:#C2C2C2; stroke-width:0; stroke-opacity:1; 
stroke-linecap:round; stroke-linejoin:round;">
<circle cx="5603.94" cy="6053.94" r="157.48" /> 
</g>
<g style="fill:#C2C2C2; fill-opacity:1.0; 
stroke:#C2C2C2; stroke-width:39.3701; stroke-opacity:1; 
stroke-linecap:round; stroke-linejoin:round;">
</g>
<g style="fill:#008400; fill-opacity:1.0; 
stroke:#008400; stroke-width:39.3701; stroke-opacity:1; 
stroke-linecap:round; stroke-linejoin:round;">
</g>
<g style="fill:#008400; fill-opacity:1.0; 
stroke:#008400; stroke-width:60; stroke-opacity:1; 
stroke-linecap:round; stroke-linejoin:round;">
</g>
<g style="fill:#008400; fill-opacity:0.0; 
stroke:#008400; stroke-width:60; stroke-opacity:1; 
stroke-linecap:round; stroke-linejoin:round;">
<path d="M6243 2028
L6248 2033
" />
</g>
<g style="fill:#008400; fill-opacity:0.0; 
stroke:#008400; stroke-width:1000; stroke-opacity:1; 
stroke-linecap:round; stroke-linejoin:round;">
<path d="M5028 2028
L6243 2028
" />
</g>
<g style="fill:#008400; fill-opacity:0.0; 
stroke:#008400; stroke-width:60; stroke-opacity:1; 
stroke-linecap:round; stroke-linejoin:round;">
<path d="M2792 4149
L2792 3928
" />
<path d="M2792 4760
L2792 4149
" />
<path d="M2639 4913
L2792 4760
" />
<path d="M2078 4913
L2639 4913
" />
<path d="M723 6048
L678 6003
" />
<path d="M728 6053
L678 6003
" />
<path d="M878 6053
L828 6003
" />
<path d="M3058 6053
L878 6053
" />
<path d="M4938 6048
L4964 6073
" />
<path d="M4998 6053
L5603 6053
" />
<path d="M3058 5353
L3058 3672
" />
<path d="M3702 3028
L3058 3672
" />
<path d="M6919 3028
L3702 3028
" />
<path d="M7044 3153
L6919 3028
" />
<path d="M7228 3153
L7044 3153
" />
<path d="M5378 6753
L5853 7228
" />
<path d="M2078 6753
L5378 6753
" />
<path d="M2790 2767
L2528 3028
" />
<path d="M1203 3028
L1198 3033
" />
</g>
<g style="fill:#008400; fill-opacity:0.0; 
stroke:#008400; stroke-width:1000; stroke-opacity:1; 
stroke-linecap:round; stroke-linejoin:round;">
<path d="M2528 3028
L1203 3028
" />
</g>
<g style="fill:#008400; fill-opacity:0.0; 
stroke:#008400; stroke-width:60; stroke-opacity:1; 
stroke-linecap:round; stroke-linejoin:round;">
<path d="M1198 3483
L1198 3033
" />
<path d="M1198 3633
L1198 3033
" />
<path d="M828 4003
L1198 3633
" />
<path d="M7228 2488
L6938 2778
" />
<path d="M7228 2153
L7228 2488
" />
<path d="M3669 2778
L6938 2778
" />
<path d="M3419 3028
L3669 2778
" />
<path d="M2528 3028
L3419 3028
" />
</g>
<g style="fill:#008400; fill-opacity:1.0; 
stroke:#008400; stroke-width:60; stroke-opacity:1; 
stroke-linecap:round; stroke-linejoin:round;">
<polyline style="fill-rule:evenodd;"
points="5500,319
5559,337
5613,366
5661,405
5700,452
5729,506
5747,565
5754,629
5754,633
5754,636
5754,639
5754,639
5761,701
5762,706
5763,711
5764,712
5782,771
5784,775
5786,780
5787,781
5816,835
5819,840
5822,844
5823,845
5862,892
5866,896
5870,899
5871,900
5919,938
5923,941
5928,944
5928,945
5983,973
5988,975
5993,977
5994,978
6053,995
6058,996
6063,997
6064,997
6125,1003
6131,1003
6136,1003
6137,1003
6198,996
6203,995
6209,994
6209,994
6268,976
6273,974
6278,972
6279,971
6333,942
6337,939
6342,936
6343,935
6390,896
6394,892
6398,889
6398,888
6437,840
6440,836
6443,831
6443,831
6472,776
6474,771
6476,766
6477,766
6494,707
6495,702
6497,696
6497,695
6503,634
6503,634
6509,567
6527,508
6556,454
6595,406
6642,367
6696,338
6755,320
6819,313
7251,313
7349,323
7440,350
7525,395
7599,456
7660,529
7705,613
7734,705
7744,803
7744,804
7744,5436
7738,5500
7720,5559
7691,5613
7652,5661
7605,5700
7551,5729
7492,5747
7428,5754
7424,5754
7421,5754
7418,5754
7417,5754
7356,5761
7351,5762
7346,5763
7345,5764
7286,5782
7281,5784
7276,5786
7276,5787
7222,5816
7217,5819
7213,5822
7212,5823
7165,5862
7161,5866
7158,5870
7157,5871
7118,5919
7116,5923
7112,5928
7112,5928
7084,5983
7082,5988
7080,5993
7079,5994
7062,6053
7061,6058
7060,6063
7060,6064
7054,6125
7054,6131
7054,6136
7054,6137
7061,6198
7062,6203
7063,6209
7063,6209
7081,6268
7083,6273
7085,6278
7086,6279
7115,6333
7118,6337
7121,6342
7121,6343
7161,6390
7164,6394
7168,6398
7169,6398
7216,6437
7221,6440
7225,6443
7226,6443
7280,6472
7285,6474
7290,6476
7291,6477
7350,6494
7355,6495
7361,6497
7361,6497
7423,6503
7423,6503
7490,6509
7549,6527
7603,6556
7651,6595
7690,6642
7719,6696
7737,6755
7744,6819
7744,7251
7734,7349
7707,7440
7662,7525
7601,7599
7528,7660
7443,7705
7352,7734
7254,7744
7253,7744
4296,7744
4232,7738
4173,7720
4119,7691
4071,7652
4032,7605
4003,7551
3985,7492
3984,7488
4691,7488
4720,7529
4781,7549
4845,7557
4909,7553
4971,7535
4987,7529
5016,7488
4853,7325
4691,7488
3984,7488
3978,7428
3978,7424
3978,7421
3978,7418
3978,7417
3971,7356
3970,7351
3969,7346
3968,7345
3950,7286
3948,7281
3946,7276
3945,7276
3916,7222
3914,7220
4525,7220
4529,7284
4546,7346
4553,7362
4594,7391
4757,7228
4950,7228
5113,7391
5154,7362
5174,7301
5182,7237
5178,7173
5160,7111
5154,7095
5113,7066
4950,7228
4757,7228
4594,7066
4553,7095
4533,7156
4525,7220
3914,7220
3912,7217
3909,7213
3909,7212
3869,7165
3866,7161
3862,7158
3861,7157
3813,7118
3809,7116
3804,7112
3803,7112
3749,7084
3744,7082
3739,7080
3738,7079
3738,7079
3679,7062
3674,7061
3669,7060
3668,7060
3607,7054
3601,7054
3596,7054
3595,7054
3534,7061
3529,7062
3523,7063
3522,7063
3464,7081
3459,7083
3454,7085
3453,7086
3399,7115
3395,7118
3390,7121
3389,7121
3342,7161
3338,7164
3334,7168
3334,7169
3295,7216
3292,7221
3289,7225
3289,7226
3260,7280
3258,7285
3255,7290
3255,7291
3237,7350
3236,7355
3235,7361
3235,7361
3229,7423
3229,7423
3223,7490
3205,7549
3176,7603
3137,7651
3090,7690
3036,7719
2977,7737
2913,7744
806,7744
708,7734
617,7707
532,7662
458,7601
397,7528
352,7443
323,7352
313,7254
313,7253
313,6552
1448,6552
1448,6955
1452,6996
1463,7035
1483,7071
1508,7102
1540,7128
1576,7147
1615,7159
1655,7163
2502,7163
2542,7159
2581,7147
2617,7128
2649,7102
2674,7071
2694,7035
2705,6996
2708,6969
4691,6969
4853,7132
5016,6969
4987,6928
4926,6908
4862,6900
4798,6904
4736,6921
4720,6928
4691,6969
2708,6969
2709,6955
2709,6892
5321,6892
5532,7103
5522,7128
5508,7194
5508,7262
5522,7329
5548,7392
5585,7448
5634,7496
5690,7534
5753,7560
5819,7573
5887,7573
5954,7560
6017,7534
6073,7496
6121,7448
6159,7392
6185,7329
6198,7262
6198,7194
6185,7128
6159,7065
6121,7009
6073,6960
6017,6923
5954,6897
5887,6883
5819,6883
5753,6897
5728,6907
5481,6660
5477,6655
5456,6638
5432,6625
5406,6617
5385,6615
5385,6615
5378,6614
5372,6615
2709,6615
2709,6552
2705,6511
2694,6472
2674,6436
2649,6405
2617,6379
2581,6360
2542,6348
2502,6344
1655,6344
1615,6348
1576,6360
1540,6379
1508,6405
1483,6436
1463,6472
1452,6511
1448,6552
313,6552
313,4969
483,4969
483,5037
497,5104
523,5167
560,5223
609,5271
665,5309
728,5335
794,5348
862,5348
929,5335
992,5309
1048,5271
1096,5223
1134,5167
1160,5104
1173,5037
1173,4969
1160,4903
1134,4840
1096,4784
1048,4735
992,4698
929,4672
862,4658
794,4658
728,4672
665,4698
609,4735
560,4784
523,4840
497,4903
483,4969
313,4969
313,3969
483,3969
483,4037
497,4104
523,4167
560,4223
609,4271
665,4309
728,4335
794,4348
862,4348
929,4335
992,4309
1048,4271
1096,4223
1134,4167
1160,4104
1173,4037
1173,3969
1160,3903
1150,3878
1292,3736
1297,3732
1301,3727
1301,3727
1314,3711
1314,3711
1327,3687
1332,3672
1335,3661
1337,3637
1816,3637
1746,3684
1684,3746
1636,3818
1602,3899
1585,3985
1585,4072
1602,4158
1636,4238
1684,4311
1746,4373
1818,4421
1899,4455
1985,4472
2072,4472
2158,4455
2238,4421
2311,4373
2373,4311
2421,4238
2455,4158
2472,4072
2472,3985
2455,3899
2421,3818
2377,3751
2456,3767
2580,3767
2556,3802
2536,3851
2526,3902
2526,3955
2536,4006
2556,4055
2585,4098
2623,4135
2653,4156
2653,4156
2653,4156
2653,4570
2649,4564
2617,4538
2581,4519
2542,4507
2502,4503
1655,4503
1615,4507
1576,4519
1540,4538
1508,4564
1483,4596
1463,4632
1452,4671
1448,4711
1448,5115
1452,5155
1463,5194
1483,5230
1508,5262
1540,5287
1576,5307
1615,5318
1655,5322
2502,5322
2542,5318
2581,5307
2617,5287
2649,5262
2674,5230
2694,5194
2705,5155
2709,5115
2709,5033
2717,5029
2738,5011
2742,5006
2886,4863
2891,4859
2895,4853
2895,4853
2908,4838
2908,4838
2920,4816
2920,5067
2822,5067
2801,5069
2780,5075
2762,5085
2745,5099
2731,5116
2721,5134
2715,5155
2713,5176
2713,5531
2715,5552
2721,5572
2731,5591
2745,5608
2762,5621
2780,5632
2801,5638
2822,5640
3191,5640
3191,5640
3193,5662
3199,5682
3209,5701
3211,5703
3209,5706
3199,5725
3193,5745
3191,5767
3191,5767
2822,5767
2801,5769
2780,5775
2762,5785
2745,5799
2731,5816
2721,5834
2715,5855
2713,5876
2713,5915
1163,5915
1160,5903
1134,5840
1096,5784
1048,5735
992,5698
929,5672
862,5658
794,5658
728,5672
665,5698
609,5735
560,5784
523,5840
497,5903
483,5969
483,6037
497,6104
523,6167
560,6223
609,6271
665,6309
728,6335
794,6348
862,6348
929,6335
992,6309
1048,6271
1096,6223
1117,6192
2713,6192
2713,6231
2715,6252
2721,6272
2731,6291
2745,6308
2762,6321
2780,6332
2801,6338
2822,6340
3092,6340
3092,6343
3096,6384
3108,6424
3127,6460
3153,6492
3185,6518
3221,6537
3261,6549
3291,6552
4765,6552
4796,6549
4835,6537
4872,6518
4904,6492
4930,6460
4949,6424
4961,6384
4965,6343
4965,6340
5235,6340
5256,6338
5276,6332
5295,6321
5312,6308
5326,6291
5336,6272
5342,6252
5344,6231
5344,6192
5376,6192
5397,6223
5434,6260
5477,6289
5526,6309
5577,6320
5630,6320
5681,6309
5730,6289
5773,6260
5810,6223
5839,6180
5859,6131
5870,6080
5870,6027
5859,5976
5839,5927
5810,5884
5773,5847
5730,5818
5681,5797
5630,5787
5577,5787
5526,5797
5477,5818
5434,5847
5397,5884
5376,5915
5344,5915
5344,5876
5342,5855
5336,5834
5326,5816
5312,5799
5295,5785
5276,5775
5256,5769
5235,5767
4866,5767
4866,5767
4864,5745
4858,5725
4848,5706
4846,5703
4848,5701
4858,5682
4864,5662
4866,5640
4866,5622
4907,5622
4930,5599
4930,5422
5067,5422
5067,5599
5090,5622
5244,5622
5261,5618
5278,5611
5293,5601
5305,5589
5315,5574
5322,5557
5326,5540
5326,5445
5303,5422
5067,5422
4930,5422
4922,5422
4922,5285
4930,5285
4930,5179
4949,5144
4960,5108
5067,5108
5067,5285
5303,5285
5326,5262
5326,5167
5322,5150
5315,5133
5305,5118
5293,5106
5278,5096
5261,5089
5244,5085
5090,5085
5067,5108
4960,5108
4961,5104
4965,5063
4961,5023
4949,4983
4930,4947
4904,4915
4872,4889
4835,4870
4796,4858
4765,4855
4375,4855
4453,4823
4600,4725
4725,4600
4823,4453
4890,4290
4925,4117
4925,3985
5585,3985
5585,4072
5602,4158
5636,4238
5684,4311
5746,4373
5818,4421
5899,4455
5985,4472
6072,4472
6158,4455
6238,4421
6311,4373
6373,4311
6421,4238
6455,4158
6462,4119
6883,4119
6883,4187
6897,4254
6923,4317
6960,4373
7009,4421
7065,4459
7128,4485
7194,4498
7262,4498
7329,4485
7392,4459
7448,4421
7496,4373
7534,4317
7560,4254
7573,4187
7573,4119
7560,4053
7534,3990
7496,3934
7448,3885
7392,3848
7329,3822
7262,3808
7194,3808
7128,3822
7065,3848
7009,3885
6960,3934
6923,3990
6897,4053
6883,4119
6462,4119
6472,4072
6472,3985
6455,3899
6421,3818
6373,3746
6311,3684
6238,3636
6158,3602
6072,3585
5985,3585
5899,3602
5818,3636
5746,3684
5684,3746
5636,3818
5602,3899
5585,3985
4925,3985
4925,3940
4890,3767
4823,3604
4725,3457
4600,3332
4453,3234
4291,3167
6862,3167
6884,3189
6897,3254
6923,3317
6960,3373
7009,3421
7065,3459
7128,3485
7194,3498
7262,3498
7329,3485
7392,3459
7448,3421
7496,3373
7534,3317
7560,3254
7573,3187
7573,3119
7560,3053
7534,2990
7496,2934
7448,2885
7392,2848
7329,2822
7262,2808
7194,2808
7128,2822
7065,2848
7063,2849
7322,2590
7327,2586
7344,2565
7357,2541
7365,2515
7367,2494
7367,2494
7368,2488
7367,2481
7367,2469
7392,2459
7448,2421
7496,2373
7534,2317
7560,2254
7573,2187
7573,2119
7560,2053
7534,1990
7496,1934
7448,1885
7392,1848
7329,1822
7262,1808
7194,1808
7128,1822
7065,1848
7009,1885
6960,1934
6923,1990
6897,2053
6883,2119
6883,2187
6897,2254
6923,2317
6960,2373
7009,2421
7062,2457
6880,2640
5443,2640
5447,2637
6273,2637
6297,2635
6741,2635
6762,2633
6782,2627
6801,2616
6818,2603
6831,2586
6842,2567
6848,2547
6850,2526
6850,2082
6855,2028
6850,1975
6850,1541
6848,1520
6842,1499
6831,1481
6818,1464
6801,1450
6782,1440
6762,1434
6741,1432
6374,1432
6363,1429
6273,1420
5447,1420
5378,1374
5244,1318
5101,1290
4956,1290
4813,1318
4679,1374
4558,1455
4455,1558
4374,1679
4318,1813
4290,1956
4290,2101
4318,2244
4374,2378
4455,2499
4558,2602
4614,2640
3676,2640
3669,2639
3642,2642
3616,2650
3592,2663
3571,2680
3566,2685
3362,2890
3254,2890
3239,2813
3183,2679
3102,2558
2999,2455
2878,2374
2744,2318
2601,2290
2456,2290
2313,2318
2179,2374
2110,2420
1174,2420
1084,2429
1072,2432
706,2432
685,2434
664,2440
646,2450
629,2464
615,2481
605,2499
599,2520
597,2541
597,2975
592,3028
597,3082
597,3526
599,3547
605,3567
615,3586
629,3603
646,3616
664,3627
685,3633
706,3635
1001,3635
954,3682
929,3672
862,3658
794,3658
728,3672
665,3698
609,3735
560,3784
523,3840
497,3903
483,3969
313,3969
313,1982
318,1915
334,1856
361,1801
399,1752
445,1712
499,1681
557,1661
620,1653
629,1653
633,1653
636,1653
639,1653
639,1653
701,1646
706,1645
711,1644
712,1643
771,1625
775,1623
780,1621
781,1620
835,1591
840,1587
844,1584
845,1584
892,1544
896,1541
899,1537
900,1536
938,1488
941,1484
944,1479
945,1478
973,1424
975,1419
977,1414
978,1413
995,1354
996,1349
997,1344
997,1343
1003,1282
1003,1276
1003,1271
1003,1270
996,1209
995,1204
994,1198
994,1197
976,1139
974,1134
972,1129
971,1128
949,1088
2016,1088
2045,1129
2106,1149
2170,1157
2234,1153
2296,1135
2312,1129
2341,1088
2178,925
2016,1088
949,1088
942,1074
939,1070
936,1065
935,1064
896,1017
892,1013
889,1009
888,1009
840,970
836,967
831,964
831,964
776,935
771,933
766,930
766,930
707,912
702,911
696,910
695,910
695,910
634,904
634,904
567,898
508,880
454,851
416,820
1850,820
1854,884
1871,946
1878,962
1919,991
2082,828
2275,828
2438,991
2479,962
2499,901
2507,837
2504,794
2833,794
2833,862
2847,929
2873,992
2910,1048
2959,1096
3015,1134
3078,1160
3144,1173
3212,1173
3279,1160
3342,1134
3398,1096
3446,1048
3484,992
3510,929
3523,862
3523,794
3510,728
3484,665
3446,609
3398,560
3342,523
3279,497
3212,483
3144,483
3078,497
3015,523
2959,560
2910,609
2873,665
2847,728
2833,794
2504,794
2503,773
2485,711
2479,695
2438,666
2275,828
2082,828
1919,666
1878,695
1858,756
1850,820
416,820
406,812
367,765
338,711
320,652
313,585
313,585
313,584
314,569
2016,569
2178,732
2341,569
2312,528
2251,508
2187,500
2123,504
2061,521
2045,528
2016,569
314,569
318,527
333,477
358,432
390,392
430,359
476,334
525,319
579,313
5436,313
5500,319
" /> 
</g>
<g style="fill:#FFFFFF; fill-opacity:1.0; 
stroke:#FFFFFF; stroke-width:60; stroke-opacity:1; 
stroke-linecap:round; stroke-linejoin:round;">
</g>
<g style="fill:#FFFFFF; fill-opacity:1.0; 
stroke:#FFFFFF; stroke-width:0; stroke-opacity:1; 
stroke-linecap:round; stroke-linejoin:round;">
<circle cx="2792.72" cy="3928.94" r="78.7402" /> 
</g>
<g style="fill:#FFFFFF; fill-opacity:1.0; 
stroke:#FFFFFF; stroke-width:39.3701; stroke-opacity:1; 
stroke-linecap:round; stroke-linejoin:round;">
</g>
<g style="fill:#FFFFFF; fill-opacity:1.0; 
stroke:#FFFFFF; stroke-width:0; stroke-opacity:1; 
stroke-linecap:round; stroke-linejoin:round;">
<circle cx="5603.94" cy="6053.94" r="78.7402" /> 
</g>
<g style="fill:#FFFFFF; fill-opacity:1.0; 
stroke:#FFFFFF; stroke-width:39.3701; stroke-opacity:1; 
stroke-linecap:round; stroke-linejoin:round;">
</g>
<g style="fill:#FFFFFF; fill-opacity:1.0; 
stroke:#FFFFFF; stroke-width:0; stroke-opacity:1; 
stroke-linecap:round; stroke-linejoin:round;">
<circle cx="5028.94" cy="2028.94" r="590.551" /> 
</g>
<g style="fill:#FFFFFF; fill-opacity:1.0; 
stroke:#FFFFFF; stroke-width:39.3701; stroke-opacity:1; 
stroke-linecap:round; stroke-linejoin:round;">
</g>
<g style="fill:#FFFFFF; fill-opacity:1.0; 
stroke:#FFFFFF; stroke-width:0; stroke-opacity:1; 
stroke-linecap:round; stroke-linejoin:round;">
<circle cx="2528.94" cy="3028.94" r="590.551" /> 
</g>
<g style="fill:#FFFFFF; fill-opacity:1.0; 
stroke:#FFFFFF; stroke-width:39.3701; stroke-opacity:1; 
stroke-linecap:round; stroke-linejoin:round;">
</g>
<g style="fill:#FFFFFF; fill-opacity:1.0; 
stroke:#FFFFFF; stroke-width:0; stroke-opacity:1; 
stroke-linecap:round; stroke-linejoin:round;">
<circle cx="4028.94" cy="4028.94" r="787.401" /> 
</g>
<g style="fill:#FFFFFF; fill-opacity:1.0; 
stroke:#FFFFFF; stroke-width:39.3701; stroke-opacity:1; 
stroke-linecap:round; stroke-linejoin:round;">
</g>
<g style="fill:#FFFFFF; fill-opacity:1.0; 
stroke:#FFFFFF; stroke-width:0; stroke-opacity:1; 
stroke-linecap:round; stroke-linejoin:round;">
<circle cx="2028.94" cy="4028.94" r="334.645" /> 
</g>
<g style="fill:#FFFFFF; fill-opacity:1.0; 
stroke:#FFFFFF; stroke-width:39.3701; stroke-opacity:1; 
stroke-linecap:round; stroke-linejoin:round;">
</g>
<g style="fill:#FFFFFF; fill-opacity:1.0; 
stroke:#FFFFFF; stroke-width:0; stroke-opacity:1; 
stroke-linecap:round; stroke-linejoin:round;">
<circle cx="6028.94" cy="4028.94" r="334.645" /> 
</g>
<g style="fill:#FFFFFF; fill-opacity:1.0; 
stroke:#FFFFFF; stroke-width:39.3701; stroke-opacity:1; 
stroke-linecap:round; stroke-linejoin:round;">
</g>
<g style="fill:#FFFFFF; fill-opacity:1.0; 
stroke:#FFFFFF; stroke-width:200; stroke-opacity:1; 
stroke-linecap:round; stroke-linejoin:round;">
</g>
<g style="fill:#FFFFFF; fill-opacity:0.0; 
stroke:#FFFFFF; stroke-width:200; stroke-opacity:1; 
stroke-linecap:round; stroke-linejoin:round;">
<path d="M3400 6060
L3400 5867
" />
<path d="M3400 5540
L3400 5347
" />
<path d="M4657 6060
L4657 5867
" />
<path d="M4657 5540
L4657 5347
" />
<path d="M3302 6343
L4755 6343
" />
<path d="M3302 5063
L4755 5063
" />
</g>
<g style="fill:#FFFFFF; fill-opacity:1.0; 
stroke:#FFFFFF; stroke-width:0; stroke-opacity:1; 
stroke-linecap:round; stroke-linejoin:round;">
<circle cx="5853.94" cy="7228.94" r="196.85" /> 
</g>
<g style="fill:#FFFFFF; fill-opacity:1.0; 
stroke:#FFFFFF; stroke-width:39.3701; stroke-opacity:1; 
stroke-linecap:round; stroke-linejoin:round;">
</g>
<g style="fill:#FFFFFF; fill-opacity:1.0; 
stroke:#FFFFFF; stroke-width:0; stroke-opacity:1; 
stroke-linecap:round; stroke-linejoin:round;">
<circle cx="4853.94" cy="7228.94" r="196.85" /> 
</g>
<g style="fill:#FFFFFF; fill-opacity:1.0; 
stroke:#FFFFFF; stroke-width:39.3701; stroke-opacity:1; 
stroke-linecap:round; stroke-linejoin:round;">
</g>
<g style="fill:#FFFFFF; fill-opacity:1.0; 
stroke:#FFFFFF; stroke-width:0; stroke-opacity:1; 
stroke-linecap:round; stroke-linejoin:round;">
<circle cx="7228.94" cy="4153.94" r="196.85" /> 
</g>
<g style="fill:#FFFFFF; fill-opacity:1.0; 
stroke:#FFFFFF; stroke-width:39.3701; stroke-opacity:1; 
stroke-linecap:round; stroke-linejoin:round;">
</g>
<g style="fill:#FFFFFF; fill-opacity:1.0; 
stroke:#FFFFFF; stroke-width:0; stroke-opacity:1; 
stroke-linecap:round; stroke-linejoin:round;">
<circle cx="7228.94" cy="2153.94" r="196.85" /> 
</g>
<g style="fill:#FFFFFF; fill-opacity:1.0; 
stroke:#FFFFFF; stroke-width:39.3701; stroke-opacity:1; 
stroke-linecap:round; stroke-linejoin:round;">
</g>
<g style="fill:#FFFFFF; fill-opacity:1.0; 
stroke:#FFFFFF; stroke-width:0; stroke-opacity:1; 
stroke-linecap:round; stroke-linejoin:round;">
<circle cx="828.937" cy="5003.94" r="196.85" /> 
</g>
<g style="fill:#FFFFFF; fill-opacity:1.0; 
stroke:#FFFFFF; stroke-width:39.3701; stroke-opacity:1; 
stroke-linecap:round; stroke-linejoin:round;">
</g>
<g style="fill:#FFFFFF; fill-opacity:1.0; 
stroke:#FFFFFF; stroke-width:0; stroke-opacity:1; 
stroke-linecap:round; stroke-linejoin:round;">
<circle cx="7228.94" cy="3153.94" r="196.85" /> 
</g>
<g style="fill:#FFFFFF; fill-opacity:1.0; 
stroke:#FFFFFF; stroke-width:39.3701; stroke-opacity:1; 
stroke-linecap:round; stroke-linejoin:round;">
</g>
<g style="fill:#FFFFFF; fill-opacity:1.0; 
stroke:#FFFFFF; stroke-width:0; stroke-opacity:1; 
stroke-linecap:round; stroke-linejoin:round;">
<circle cx="828.937" cy="6003.94" r="196.85" /> 
</g>
<g style="fill:#FFFFFF; fill-opacity:1.0; 
stroke:#FFFFFF; stroke-width:39.3701; stroke-opacity:1; 
stroke-linecap:round; stroke-linejoin:round;">
</g>
<g style="fill:#FFFFFF; fill-opacity:1.0; 
stroke:#FFFFFF; stroke-width:0; stroke-opacity:1; 
stroke-linecap:round; stroke-linejoin:round;">
<circle cx="828.937" cy="4003.94" r="196.85" /> 
</g>
<g style="fill:#FFFFFF; fill-opacity:1.0; 
stroke:#FFFFFF; stroke-width:39.3701; stroke-opacity:1; 
stroke-linecap:round; stroke-linejoin:round;">
</g>
<g style="fill:#FFFFFF; fill-opacity:1.0; 
stroke:#FFFFFF; stroke-width:0; stroke-opacity:1; 
stroke-linecap:round; stroke-linejoin:round;">
<circle cx="3178.94" cy="828.937" r="196.85" /> 
</g>
<g style="fill:#FFFFFF; fill-opacity:1.0; 
stroke:#FFFFFF; stroke-width:39.3701; stroke-opacity:1; 
stroke-linecap:round; stroke-linejoin:round;">
</g>
<g style="fill:#FFFFFF; fill-opacity:1.0; 
stroke:#FFFFFF; stroke-width:0; stroke-opacity:1; 
stroke-linecap:round; stroke-linejoin:round;">
<circle cx="2178.94" cy="828.937" r="196.85" /> 
</g>
<g style="fill:#FFFFFF; fill-opacity:1.0; 
stroke:#FFFFFF; stroke-width:39.3701; stroke-opacity:1; 
stroke-linecap:round; stroke-linejoin:round;">
</g>
<g style="fill:#000000; fill-opacity:1.0; 
stroke:#000000; stroke-width:39.3701; stroke-opacity:1; 
stroke-linecap:round; stroke-linejoin:round;">
</g>
<g style="fill:#C2C200; fill-opacity:1.0; 
stroke:#C2C200; stroke-width:39.3701; stroke-opacity:1; 
stroke-linecap:round; stroke-linejoin:round;">
</g>
<g style="fill:#C2C200; fill-opacity:0.0; 
stroke:#C2C200; stroke-width:59.0551; stroke-opacity:1; 
stroke-linecap:round; stroke-linejoin:round;">
<path d="M253.937 588.937 A375 375 0.0 0 0 628.937 963.937 " />
<path d="M628.937 1593.94 A315 315 0.0 0 0 628.937 963.937 " />
<path d="M628.937 1593.94 A375 375 0.0 0 0 254.071 1978.93 " />
<path d="M2913.94 7803.94 A375 375 0.0 0 0 3288.94 7428.94 " />
<path d="M3918.94 7428.94 A375 375 0.0 0 0 4293.94 7803.94 " />
<path d="M3918.94 7428.94 A315 315 0.0 0 0 3288.94 7428.94 " />
<path d="M7803.94 6818.94 A375 375 0.0 0 0 7428.94 6443.94 " />
<path d="M7428.94 5813.94 A315 315 0.0 0 0 7428.94 6443.94 " />
<path d="M7428.94 5813.94 A375 375 0.0 0 0 7803.94 5438.94 " />
<path d="M7803 803
L7803 5438
" />
<path d="M2913 7803
L803 7803
" />
<path d="M5438 253
L578 253
" />
<path d="M5813.94 628.937 A375 375 0.0 0 0 5438.94 253.937 " />
<path d="M6818.94 253.937 A375 375 0.0 0 0 6443.94 628.937 " />
<path d="M5813.94 628.937 A315 315 0.0 0 0 6443.94 628.937 " />
<path d="M253.937 7253.94 A550 550 0.0 0 0 803.937 7803.94 " />
<path d="M7253.94 7803.94 A550 550 0.0 0 0 7803.94 7253.94 " />
<path d="M6818 253
L7253 253
" />
<path d="M253 7253
L253 1978
" />
<path d="M7253 7803
L4293 7803
" />
<path d="M7803 6818
L7803 7253
" />
<path d="M7803.94 803.937 A550 550 0.0 0 0 7253.94 253.937 " />
<path d="M578.937 253.937 A325 325 0.0 0 0 253.937 578.937 " />
</g> 
</svg>
