<?xml version="1.0" standalone="no"?>
 <!DOCTYPE svg PUBLIC "-//W3C//DTD SVG 1.1//EN" 
 "http://www.w3.org/Graphics/SVG/1.1/DTD/svg11.dtd"> 
<svg xmlns="http://www.w3.org/2000/svg" version="1.1" 
    width="29.7002cm" height="21.0007cm" viewBox="0 0 116930 82680 ">
<title>SVG Picture created as WoodElf_02-B.Cu.svg date 2019/01/21 12:33:38 </title>
  <desc>Picture generated by PCBNEW </desc>
<g style="fill:#000000; fill-opacity:1;stroke:#000000; stroke-opacity:1;
stroke-linecap:round; stroke-linejoin:round; "
 transform="translate(0 0) scale(1 1)">
</g>
<g style="fill:#000000; fill-opacity:0.0; 
stroke:#000000; stroke-width:-0.000393701; stroke-opacity:1; 
stroke-linecap:round; stroke-linejoin:round;">
</g>
<g style="fill:#000000; fill-opacity:0.0; 
stroke:#000000; stroke-width:39.3701; stroke-opacity:1; 
stroke-linecap:round; stroke-linejoin:round;">
</g>
<g style="fill:#000000; fill-opacity:0.0; 
stroke:#000000; stroke-width:59.0551; stroke-opacity:1; 
stroke-linecap:round; stroke-linejoin:round;">
<rect x="69685.9" y="65357.2" width="42519.7" height="12598.4" rx="0" />
</g>
<g style="fill:#000000; fill-opacity:0.0; 
stroke:#000000; stroke-width:39.3701; stroke-opacity:1; 
stroke-linecap:round; stroke-linejoin:round;">
</g>
<g style="fill:#000000; fill-opacity:0.0; 
stroke:#000000; stroke-width:59.0551; stroke-opacity:1; 
stroke-linecap:round; stroke-linejoin:round;">
<rect x="3937.01" y="3937.01" width="109056" height="74806" rx="0" />
</g>
<g style="fill:#000000; fill-opacity:0.0; 
stroke:#000000; stroke-width:39.3701; stroke-opacity:1; 
stroke-linecap:round; stroke-linejoin:round;">
</g>
<g style="fill:#000000; fill-opacity:0.0; 
stroke:#000000; stroke-width:59.0551; stroke-opacity:1; 
stroke-linecap:round; stroke-linejoin:round;">
<rect x="4724.41" y="4724.41" width="107481" height="73231.2" rx="0" />
</g>
<g style="fill:#000000; fill-opacity:0.0; 
stroke:#000000; stroke-width:39.3701; stroke-opacity:1; 
stroke-linecap:round; stroke-linejoin:round;">
</g>
<g style="fill:#000000; fill-opacity:0.0; 
stroke:#000000; stroke-width:59.0551; stroke-opacity:1; 
stroke-linecap:round; stroke-linejoin:round;">
<path d="M23622 4724
L23622 3937
" />
</g>
<g style="fill:#000000; fill-opacity:0.0; 
stroke:#000000; stroke-width:39.3701; stroke-opacity:1; 
stroke-linecap:round; stroke-linejoin:round;">
</g>
<g style="fill:#000000; fill-opacity:0.0; 
stroke:#000000; stroke-width:59.0551; stroke-opacity:1; 
stroke-linecap:round; stroke-linejoin:round;">
<path d="M43307 4724
L43307 3937
" />
</g>
<g style="fill:#000000; fill-opacity:0.0; 
stroke:#000000; stroke-width:39.3701; stroke-opacity:1; 
stroke-linecap:round; stroke-linejoin:round;">
</g>
<g style="fill:#000000; fill-opacity:0.0; 
stroke:#000000; stroke-width:59.0551; stroke-opacity:1; 
stroke-linecap:round; stroke-linejoin:round;">
<path d="M62992 4724
L62992 3937
" />
</g>
<g style="fill:#000000; fill-opacity:0.0; 
stroke:#000000; stroke-width:39.3701; stroke-opacity:1; 
stroke-linecap:round; stroke-linejoin:round;">
</g>
<g style="fill:#000000; fill-opacity:0.0; 
stroke:#000000; stroke-width:59.0551; stroke-opacity:1; 
stroke-linecap:round; stroke-linejoin:round;">
<path d="M82677 4724
L82677 3937
" />
</g>
<g style="fill:#000000; fill-opacity:0.0; 
stroke:#000000; stroke-width:39.3701; stroke-opacity:1; 
stroke-linecap:round; stroke-linejoin:round;">
</g>
<g style="fill:#000000; fill-opacity:0.0; 
stroke:#000000; stroke-width:59.0551; stroke-opacity:1; 
stroke-linecap:round; stroke-linejoin:round;">
<path d="M102362 4724
L102362 3937
" />
</g>
<g style="fill:#000000; fill-opacity:0.0; 
stroke:#000000; stroke-width:39.3701; stroke-opacity:1; 
stroke-linecap:round; stroke-linejoin:round;">
</g>
<g style="fill:#000000; fill-opacity:0.0; 
stroke:#000000; stroke-width:59.0551; stroke-opacity:1; 
stroke-linecap:round; stroke-linejoin:round;">
<path d="M14199 4562
L13906 4562
" />
<path d="M14052 4562
L14052 4050
L14004 4123
L13955 4172
L13906 4196
" />
</g>
<g style="fill:#000000; fill-opacity:0.0; 
stroke:#000000; stroke-width:39.3701; stroke-opacity:1; 
stroke-linecap:round; stroke-linejoin:round;">
</g>
<g style="fill:#000000; fill-opacity:0.0; 
stroke:#000000; stroke-width:59.0551; stroke-opacity:1; 
stroke-linecap:round; stroke-linejoin:round;">
<path d="M33591 4099
L33615 4074
L33664 4050
L33786 4050
L33835 4074
L33859 4099
L33884 4147
L33884 4196
L33859 4269
L33567 4562
L33884 4562
" />
</g>
<g style="fill:#000000; fill-opacity:0.0; 
stroke:#000000; stroke-width:39.3701; stroke-opacity:1; 
stroke-linecap:round; stroke-linejoin:round;">
</g>
<g style="fill:#000000; fill-opacity:0.0; 
stroke:#000000; stroke-width:59.0551; stroke-opacity:1; 
stroke-linecap:round; stroke-linejoin:round;">
<path d="M53252 4050
L53569 4050
L53398 4245
L53471 4245
L53520 4269
L53544 4294
L53569 4342
L53569 4464
L53544 4513
L53520 4537
L53471 4562
L53325 4562
L53276 4537
L53252 4513
" />
</g>
<g style="fill:#000000; fill-opacity:0.0; 
stroke:#000000; stroke-width:39.3701; stroke-opacity:1; 
stroke-linecap:round; stroke-linejoin:round;">
</g>
<g style="fill:#000000; fill-opacity:0.0; 
stroke:#000000; stroke-width:59.0551; stroke-opacity:1; 
stroke-linecap:round; stroke-linejoin:round;">
<path d="M73205 4221
L73205 4562
" />
<path d="M73083 4026
L72961 4391
L73278 4391
" />
</g>
<g style="fill:#000000; fill-opacity:0.0; 
stroke:#000000; stroke-width:39.3701; stroke-opacity:1; 
stroke-linecap:round; stroke-linejoin:round;">
</g>
<g style="fill:#000000; fill-opacity:0.0; 
stroke:#000000; stroke-width:59.0551; stroke-opacity:1; 
stroke-linecap:round; stroke-linejoin:round;">
<path d="M92914 4050
L92671 4050
L92646 4294
L92671 4269
L92719 4245
L92841 4245
L92890 4269
L92914 4294
L92939 4342
L92939 4464
L92914 4513
L92890 4537
L92841 4562
L92719 4562
L92671 4537
L92646 4513
" />
</g>
<g style="fill:#000000; fill-opacity:0.0; 
stroke:#000000; stroke-width:39.3701; stroke-opacity:1; 
stroke-linecap:round; stroke-linejoin:round;">
</g>
<g style="fill:#000000; fill-opacity:0.0; 
stroke:#000000; stroke-width:59.0551; stroke-opacity:1; 
stroke-linecap:round; stroke-linejoin:round;">
<path d="M112575 4050
L112477 4050
L112429 4074
L112404 4099
L112356 4172
L112331 4269
L112331 4464
L112356 4513
L112380 4537
L112429 4562
L112526 4562
L112575 4537
L112599 4513
L112624 4464
L112624 4342
L112599 4294
L112575 4269
L112526 4245
L112429 4245
L112380 4269
L112356 4294
L112331 4342
" />
</g>
<g style="fill:#000000; fill-opacity:0.0; 
stroke:#000000; stroke-width:39.3701; stroke-opacity:1; 
stroke-linecap:round; stroke-linejoin:round;">
</g>
<g style="fill:#000000; fill-opacity:0.0; 
stroke:#000000; stroke-width:59.0551; stroke-opacity:1; 
stroke-linecap:round; stroke-linejoin:round;">
<path d="M23622 77955
L23622 78742
" />
</g>
<g style="fill:#000000; fill-opacity:0.0; 
stroke:#000000; stroke-width:39.3701; stroke-opacity:1; 
stroke-linecap:round; stroke-linejoin:round;">
</g>
<g style="fill:#000000; fill-opacity:0.0; 
stroke:#000000; stroke-width:59.0551; stroke-opacity:1; 
stroke-linecap:round; stroke-linejoin:round;">
<path d="M43307 77955
L43307 78742
" />
</g>
<g style="fill:#000000; fill-opacity:0.0; 
stroke:#000000; stroke-width:39.3701; stroke-opacity:1; 
stroke-linecap:round; stroke-linejoin:round;">
</g>
<g style="fill:#000000; fill-opacity:0.0; 
stroke:#000000; stroke-width:59.0551; stroke-opacity:1; 
stroke-linecap:round; stroke-linejoin:round;">
<path d="M62992 77955
L62992 78742
" />
</g>
<g style="fill:#000000; fill-opacity:0.0; 
stroke:#000000; stroke-width:39.3701; stroke-opacity:1; 
stroke-linecap:round; stroke-linejoin:round;">
</g>
<g style="fill:#000000; fill-opacity:0.0; 
stroke:#000000; stroke-width:59.0551; stroke-opacity:1; 
stroke-linecap:round; stroke-linejoin:round;">
<path d="M82677 77955
L82677 78742
" />
</g>
<g style="fill:#000000; fill-opacity:0.0; 
stroke:#000000; stroke-width:39.3701; stroke-opacity:1; 
stroke-linecap:round; stroke-linejoin:round;">
</g>
<g style="fill:#000000; fill-opacity:0.0; 
stroke:#000000; stroke-width:59.0551; stroke-opacity:1; 
stroke-linecap:round; stroke-linejoin:round;">
<path d="M102362 77955
L102362 78742
" />
</g>
<g style="fill:#000000; fill-opacity:0.0; 
stroke:#000000; stroke-width:39.3701; stroke-opacity:1; 
stroke-linecap:round; stroke-linejoin:round;">
</g>
<g style="fill:#000000; fill-opacity:0.0; 
stroke:#000000; stroke-width:59.0551; stroke-opacity:1; 
stroke-linecap:round; stroke-linejoin:round;">
<path d="M14199 78580
L13906 78580
" />
<path d="M14052 78580
L14052 78069
L14004 78142
L13955 78190
L13906 78215
" />
</g>
<g style="fill:#000000; fill-opacity:0.0; 
stroke:#000000; stroke-width:39.3701; stroke-opacity:1; 
stroke-linecap:round; stroke-linejoin:round;">
</g>
<g style="fill:#000000; fill-opacity:0.0; 
stroke:#000000; stroke-width:59.0551; stroke-opacity:1; 
stroke-linecap:round; stroke-linejoin:round;">
<path d="M33591 78117
L33615 78093
L33664 78069
L33786 78069
L33835 78093
L33859 78117
L33884 78166
L33884 78215
L33859 78288
L33567 78580
L33884 78580
" />
</g>
<g style="fill:#000000; fill-opacity:0.0; 
stroke:#000000; stroke-width:39.3701; stroke-opacity:1; 
stroke-linecap:round; stroke-linejoin:round;">
</g>
<g style="fill:#000000; fill-opacity:0.0; 
stroke:#000000; stroke-width:59.0551; stroke-opacity:1; 
stroke-linecap:round; stroke-linejoin:round;">
<path d="M53252 78069
L53569 78069
L53398 78263
L53471 78263
L53520 78288
L53544 78312
L53569 78361
L53569 78483
L53544 78532
L53520 78556
L53471 78580
L53325 78580
L53276 78556
L53252 78532
" />
</g>
<g style="fill:#000000; fill-opacity:0.0; 
stroke:#000000; stroke-width:39.3701; stroke-opacity:1; 
stroke-linecap:round; stroke-linejoin:round;">
</g>
<g style="fill:#000000; fill-opacity:0.0; 
stroke:#000000; stroke-width:59.0551; stroke-opacity:1; 
stroke-linecap:round; stroke-linejoin:round;">
<path d="M73205 78239
L73205 78580
" />
<path d="M73083 78044
L72961 78410
L73278 78410
" />
</g>
<g style="fill:#000000; fill-opacity:0.0; 
stroke:#000000; stroke-width:39.3701; stroke-opacity:1; 
stroke-linecap:round; stroke-linejoin:round;">
</g>
<g style="fill:#000000; fill-opacity:0.0; 
stroke:#000000; stroke-width:59.0551; stroke-opacity:1; 
stroke-linecap:round; stroke-linejoin:round;">
<path d="M92914 78069
L92671 78069
L92646 78312
L92671 78288
L92719 78263
L92841 78263
L92890 78288
L92914 78312
L92939 78361
L92939 78483
L92914 78532
L92890 78556
L92841 78580
L92719 78580
L92671 78556
L92646 78532
" />
</g>
<g style="fill:#000000; fill-opacity:0.0; 
stroke:#000000; stroke-width:39.3701; stroke-opacity:1; 
stroke-linecap:round; stroke-linejoin:round;">
</g>
<g style="fill:#000000; fill-opacity:0.0; 
stroke:#000000; stroke-width:59.0551; stroke-opacity:1; 
stroke-linecap:round; stroke-linejoin:round;">
<path d="M112575 78069
L112477 78069
L112429 78093
L112404 78117
L112356 78190
L112331 78288
L112331 78483
L112356 78532
L112380 78556
L112429 78580
L112526 78580
L112575 78556
L112599 78532
L112624 78483
L112624 78361
L112599 78312
L112575 78288
L112526 78263
L112429 78263
L112380 78288
L112356 78312
L112331 78361
" />
</g>
<g style="fill:#000000; fill-opacity:0.0; 
stroke:#000000; stroke-width:39.3701; stroke-opacity:1; 
stroke-linecap:round; stroke-linejoin:round;">
</g>
<g style="fill:#000000; fill-opacity:0.0; 
stroke:#000000; stroke-width:59.0551; stroke-opacity:1; 
stroke-linecap:round; stroke-linejoin:round;">
<path d="M3937 23622
L4724 23622
" />
</g>
<g style="fill:#000000; fill-opacity:0.0; 
stroke:#000000; stroke-width:39.3701; stroke-opacity:1; 
stroke-linecap:round; stroke-linejoin:round;">
</g>
<g style="fill:#000000; fill-opacity:0.0; 
stroke:#000000; stroke-width:59.0551; stroke-opacity:1; 
stroke-linecap:round; stroke-linejoin:round;">
<path d="M3937 43307
L4724 43307
" />
</g>
<g style="fill:#000000; fill-opacity:0.0; 
stroke:#000000; stroke-width:39.3701; stroke-opacity:1; 
stroke-linecap:round; stroke-linejoin:round;">
</g>
<g style="fill:#000000; fill-opacity:0.0; 
stroke:#000000; stroke-width:59.0551; stroke-opacity:1; 
stroke-linecap:round; stroke-linejoin:round;">
<path d="M3937 62992
L4724 62992
" />
</g>
<g style="fill:#000000; fill-opacity:0.0; 
stroke:#000000; stroke-width:39.3701; stroke-opacity:1; 
stroke-linecap:round; stroke-linejoin:round;">
</g>
<g style="fill:#000000; fill-opacity:0.0; 
stroke:#000000; stroke-width:59.0551; stroke-opacity:1; 
stroke-linecap:round; stroke-linejoin:round;">
<path d="M4208 13864
L4452 13864
" />
<path d="M4160 14011
L4330 13499
L4501 14011
" />
</g>
<g style="fill:#000000; fill-opacity:0.0; 
stroke:#000000; stroke-width:39.3701; stroke-opacity:1; 
stroke-linecap:round; stroke-linejoin:round;">
</g>
<g style="fill:#000000; fill-opacity:0.0; 
stroke:#000000; stroke-width:59.0551; stroke-opacity:1; 
stroke-linecap:round; stroke-linejoin:round;">
<path d="M4367 33428
L4440 33452
L4464 33476
L4489 33525
L4489 33598
L4464 33647
L4440 33671
L4391 33696
L4196 33696
L4196 33184
L4367 33184
L4416 33208
L4440 33233
L4464 33281
L4464 33330
L4440 33379
L4416 33403
L4367 33428
L4196 33428
" />
</g>
<g style="fill:#000000; fill-opacity:0.0; 
stroke:#000000; stroke-width:39.3701; stroke-opacity:1; 
stroke-linecap:round; stroke-linejoin:round;">
</g>
<g style="fill:#000000; fill-opacity:0.0; 
stroke:#000000; stroke-width:59.0551; stroke-opacity:1; 
stroke-linecap:round; stroke-linejoin:round;">
<path d="M4489 53332
L4464 53356
L4391 53381
L4342 53381
L4269 53356
L4221 53308
L4196 53259
L4172 53161
L4172 53088
L4196 52991
L4221 52942
L4269 52893
L4342 52869
L4391 52869
L4464 52893
L4489 52918
" />
</g>
<g style="fill:#000000; fill-opacity:0.0; 
stroke:#000000; stroke-width:39.3701; stroke-opacity:1; 
stroke-linecap:round; stroke-linejoin:round;">
</g>
<g style="fill:#000000; fill-opacity:0.0; 
stroke:#000000; stroke-width:59.0551; stroke-opacity:1; 
stroke-linecap:round; stroke-linejoin:round;">
<path d="M4196 73066
L4196 72554
L4318 72554
L4391 72578
L4440 72627
L4464 72676
L4489 72773
L4489 72846
L4464 72944
L4440 72993
L4391 73041
L4318 73066
L4196 73066
" />
</g>
<g style="fill:#000000; fill-opacity:0.0; 
stroke:#000000; stroke-width:39.3701; stroke-opacity:1; 
stroke-linecap:round; stroke-linejoin:round;">
</g>
<g style="fill:#000000; fill-opacity:0.0; 
stroke:#000000; stroke-width:59.0551; stroke-opacity:1; 
stroke-linecap:round; stroke-linejoin:round;">
<path d="M112992 23622
L112205 23622
" />
</g>
<g style="fill:#000000; fill-opacity:0.0; 
stroke:#000000; stroke-width:39.3701; stroke-opacity:1; 
stroke-linecap:round; stroke-linejoin:round;">
</g>
<g style="fill:#000000; fill-opacity:0.0; 
stroke:#000000; stroke-width:59.0551; stroke-opacity:1; 
stroke-linecap:round; stroke-linejoin:round;">
<path d="M112992 43307
L112205 43307
" />
</g>
<g style="fill:#000000; fill-opacity:0.0; 
stroke:#000000; stroke-width:39.3701; stroke-opacity:1; 
stroke-linecap:round; stroke-linejoin:round;">
</g>
<g style="fill:#000000; fill-opacity:0.0; 
stroke:#000000; stroke-width:59.0551; stroke-opacity:1; 
stroke-linecap:round; stroke-linejoin:round;">
<path d="M112992 62992
L112205 62992
" />
</g>
<g style="fill:#000000; fill-opacity:0.0; 
stroke:#000000; stroke-width:39.3701; stroke-opacity:1; 
stroke-linecap:round; stroke-linejoin:round;">
</g>
<g style="fill:#000000; fill-opacity:0.0; 
stroke:#000000; stroke-width:59.0551; stroke-opacity:1; 
stroke-linecap:round; stroke-linejoin:round;">
<path d="M112477 13864
L112721 13864
" />
<path d="M112428 14011
L112599 13499
L112769 14011
" />
</g>
<g style="fill:#000000; fill-opacity:0.0; 
stroke:#000000; stroke-width:39.3701; stroke-opacity:1; 
stroke-linecap:round; stroke-linejoin:round;">
</g>
<g style="fill:#000000; fill-opacity:0.0; 
stroke:#000000; stroke-width:59.0551; stroke-opacity:1; 
stroke-linecap:round; stroke-linejoin:round;">
<path d="M112635 33428
L112708 33452
L112733 33476
L112757 33525
L112757 33598
L112733 33647
L112708 33671
L112660 33696
L112465 33696
L112465 33184
L112635 33184
L112684 33208
L112708 33233
L112733 33281
L112733 33330
L112708 33379
L112684 33403
L112635 33428
L112465 33428
" />
</g>
<g style="fill:#000000; fill-opacity:0.0; 
stroke:#000000; stroke-width:39.3701; stroke-opacity:1; 
stroke-linecap:round; stroke-linejoin:round;">
</g>
<g style="fill:#000000; fill-opacity:0.0; 
stroke:#000000; stroke-width:59.0551; stroke-opacity:1; 
stroke-linecap:round; stroke-linejoin:round;">
<path d="M112757 53332
L112733 53356
L112660 53381
L112611 53381
L112538 53356
L112489 53308
L112465 53259
L112440 53161
L112440 53088
L112465 52991
L112489 52942
L112538 52893
L112611 52869
L112660 52869
L112733 52893
L112757 52918
" />
</g>
<g style="fill:#000000; fill-opacity:0.0; 
stroke:#000000; stroke-width:39.3701; stroke-opacity:1; 
stroke-linecap:round; stroke-linejoin:round;">
</g>
<g style="fill:#000000; fill-opacity:0.0; 
stroke:#000000; stroke-width:59.0551; stroke-opacity:1; 
stroke-linecap:round; stroke-linejoin:round;">
<path d="M112465 73066
L112465 72554
L112587 72554
L112660 72578
L112708 72627
L112733 72676
L112757 72773
L112757 72846
L112733 72944
L112708 72993
L112660 73041
L112587 73066
L112465 73066
" />
</g>
<g style="fill:#000000; fill-opacity:0.0; 
stroke:#000000; stroke-width:39.3701; stroke-opacity:1; 
stroke-linecap:round; stroke-linejoin:round;">
</g>
<g style="fill:#000000; fill-opacity:0.0; 
stroke:#000000; stroke-width:59.0551; stroke-opacity:1; 
stroke-linecap:round; stroke-linejoin:round;">
<path d="M78911 76293
L78911 75703
L79051 75703
L79136 75731
L79192 75787
L79220 75843
L79248 75956
L79248 76040
L79220 76153
L79192 76209
L79136 76265
L79051 76293
L78911 76293
" />
<path d="M79754 76293
L79754 75984
L79726 75928
L79670 75899
L79557 75899
L79501 75928
" />
<path d="M79754 76265
L79698 76293
L79557 76293
L79501 76265
L79473 76209
L79473 76153
L79501 76096
L79557 76068
L79698 76068
L79754 76040
" />
<path d="M79951 75899
L80176 75899
" />
<path d="M80036 75703
L80036 76209
L80064 76265
L80120 76293
L80176 76293
" />
<path d="M80598 76265
L80542 76293
L80429 76293
L80373 76265
L80345 76209
L80345 75984
L80373 75928
L80429 75899
L80542 75899
L80598 75928
L80626 75984
L80626 76040
L80345 76096
" />
<path d="M80879 76237
L80907 76265
L80879 76293
L80851 76265
L80879 76237
L80879 76293
" />
<path d="M80879 75928
L80907 75956
L80879 75984
L80851 75956
L80879 75928
L80879 75984
" />
</g>
<g style="fill:#000000; fill-opacity:0.0; 
stroke:#000000; stroke-width:39.3701; stroke-opacity:1; 
stroke-linecap:round; stroke-linejoin:round;">
</g>
<g style="fill:#000000; fill-opacity:0.0; 
stroke:#000000; stroke-width:59.0551; stroke-opacity:1; 
stroke-linecap:round; stroke-linejoin:round;">
<path d="M69685 76577
L112205 76577
" />
</g>
<g style="fill:#000000; fill-opacity:0.0; 
stroke:#000000; stroke-width:39.3701; stroke-opacity:1; 
stroke-linecap:round; stroke-linejoin:round;">
</g>
<g style="fill:#000000; fill-opacity:0.0; 
stroke:#000000; stroke-width:59.0551; stroke-opacity:1; 
stroke-linecap:round; stroke-linejoin:round;">
<path d="M70249 77395
L70249 76805
" />
<path d="M70587 77395
L70334 77058
" />
<path d="M70587 76805
L70249 77142
" />
<path d="M70840 77395
L70840 77002
" />
<path d="M70840 76805
L70812 76833
L70840 76861
L70868 76833
L70840 76805
L70840 76861
" />
<path d="M71458 77339
L71430 77367
L71346 77395
L71290 77395
L71205 77367
L71149 77311
L71121 77255
L71093 77142
L71093 77058
L71121 76946
L71149 76889
L71205 76833
L71290 76805
L71346 76805
L71430 76833
L71458 76861
" />
<path d="M71965 77395
L71965 77086
L71937 77030
L71880 77002
L71768 77002
L71712 77030
" />
<path d="M71965 77367
L71908 77395
L71768 77395
L71712 77367
L71683 77311
L71683 77255
L71712 77199
L71768 77171
L71908 77171
L71965 77142
" />
<path d="M72499 77395
L72499 76805
" />
<path d="M72499 77367
L72443 77395
L72330 77395
L72274 77367
L72246 77339
L72218 77283
L72218 77114
L72246 77058
L72274 77030
L72330 77002
L72443 77002
L72499 77030
" />
<path d="M73230 77086
L73427 77086
" />
<path d="M73511 77395
L73230 77395
L73230 76805
L73511 76805
" />
<path d="M73764 77339
L73793 77367
L73764 77395
L73736 77367
L73764 77339
L73764 77395
" />
<path d="M74046 77395
L74046 76805
L74186 76805
L74271 76833
L74327 76889
L74355 76946
L74383 77058
L74383 77142
L74355 77255
L74327 77311
L74271 77367
L74186 77395
L74046 77395
" />
<path d="M74636 77339
L74664 77367
L74636 77395
L74608 77367
L74636 77339
L74636 77395
" />
<path d="M74889 77227
L75171 77227
" />
<path d="M74833 77395
L75030 76805
L75227 77395
" />
<path d="M75424 77339
L75452 77367
L75424 77395
L75395 77367
L75424 77339
L75424 77395
" />
<path d="M76605 77395
L76605 76805
" />
<path d="M76661 77171
L76830 77395
" />
<path d="M76830 77002
L76605 77227
" />
<path d="M77083 77395
L77083 77002
" />
<path d="M77083 76805
L77055 76833
L77083 76861
L77111 76833
L77083 76805
L77083 76861
" />
<path d="M77617 77367
L77561 77395
L77448 77395
L77392 77367
L77364 77339
L77336 77283
L77336 77114
L77364 77058
L77392 77030
L77448 77002
L77561 77002
L77617 77030
" />
<path d="M78123 77395
L78123 77086
L78095 77030
L78039 77002
L77926 77002
L77870 77030
" />
<path d="M78123 77367
L78067 77395
L77926 77395
L77870 77367
L77842 77311
L77842 77255
L77870 77199
L77926 77171
L78067 77171
L78123 77142
" />
<path d="M78658 77395
L78658 76805
" />
<path d="M78658 77367
L78601 77395
L78489 77395
L78433 77367
L78404 77339
L78376 77283
L78376 77114
L78404 77058
L78433 77030
L78489 77002
L78601 77002
L78658 77030
" />
<path d="M79557 77620
L79529 77592
L79473 77508
L79445 77452
L79417 77367
L79389 77227
L79389 77114
L79417 76974
L79445 76889
L79473 76833
L79529 76749
L79557 76721
" />
<path d="M80064 76805
L79782 76805
L79754 77086
L79782 77058
L79839 77030
L79979 77030
L80036 77058
L80064 77086
L80092 77142
L80092 77283
L80064 77339
L80036 77367
L79979 77395
L79839 77395
L79782 77367
L79754 77339
" />
<path d="M80345 77339
L80373 77367
L80345 77395
L80317 77367
L80345 77339
L80345 77395
" />
<path d="M80739 76805
L80795 76805
L80851 76833
L80879 76861
L80907 76917
L80935 77030
L80935 77171
L80907 77283
L80879 77339
L80851 77367
L80795 77395
L80739 77395
L80682 77367
L80654 77339
L80626 77283
L80598 77171
L80598 77030
L80626 76917
L80654 76861
L80682 76833
L80739 76805
" />
<path d="M81188 77339
L81217 77367
L81188 77395
L81160 77367
L81188 77339
L81188 77395
" />
<path d="M81779 77395
L81442 77395
" />
<path d="M81610 77395
L81610 76805
L81554 76889
L81498 76946
L81442 76974
" />
<path d="M81976 77620
L82004 77592
L82060 77508
L82088 77452
L82117 77367
L82145 77227
L82145 77114
L82117 76974
L82088 76889
L82060 76833
L82004 76749
L81976 76721
" />
<path d="M82426 77171
L82876 77171
" />
<path d="M83101 76805
L83466 76805
L83269 77030
L83354 77030
L83410 77058
L83438 77086
L83466 77142
L83466 77283
L83438 77339
L83410 77367
L83354 77395
L83185 77395
L83129 77367
L83101 77339
" />
</g>
<g style="fill:#000000; fill-opacity:0.0; 
stroke:#000000; stroke-width:39.3701; stroke-opacity:1; 
stroke-linecap:round; stroke-linejoin:round;">
</g>
<g style="fill:#000000; fill-opacity:0.0; 
stroke:#000000; stroke-width:59.0551; stroke-opacity:1; 
stroke-linecap:round; stroke-linejoin:round;">
<path d="M69685 75396
L112205 75396
" />
</g>
<g style="fill:#000000; fill-opacity:0.0; 
stroke:#000000; stroke-width:39.3701; stroke-opacity:1; 
stroke-linecap:round; stroke-linejoin:round;">
</g>
<g style="fill:#000000; fill-opacity:0.0; 
stroke:#000000; stroke-width:118.11; stroke-opacity:1; 
stroke-linecap:round; stroke-linejoin:round;">
<path d="M104099 76293
L103902 76012
" />
<path d="M103761 76293
L103761 75703
L103986 75703
L104042 75731
L104070 75759
L104099 75815
L104099 75899
L104070 75956
L104042 75984
L103986 76012
L103761 76012
" />
<path d="M104577 76265
L104520 76293
L104408 76293
L104352 76265
L104323 76209
L104323 75984
L104352 75928
L104408 75899
L104520 75899
L104577 75928
L104605 75984
L104605 76040
L104323 76096
" />
<path d="M104802 75899
L104942 76293
L105083 75899
" />
<path d="M105308 76237
L105336 76265
L105308 76293
L105280 76265
L105308 76237
L105308 76293
" />
<path d="M105308 75928
L105336 75956
L105308 75984
L105280 75956
L105308 75928
L105308 75984
" />
</g>
<g style="fill:#000000; fill-opacity:0.0; 
stroke:#000000; stroke-width:39.3701; stroke-opacity:1; 
stroke-linecap:round; stroke-linejoin:round;">
</g>
<g style="fill:#000000; fill-opacity:0.0; 
stroke:#000000; stroke-width:59.0551; stroke-opacity:1; 
stroke-linecap:round; stroke-linejoin:round;">
<path d="M70221 76265
L70305 76293
L70446 76293
L70502 76265
L70530 76237
L70559 76181
L70559 76124
L70530 76068
L70502 76040
L70446 76012
L70334 75984
L70277 75956
L70249 75928
L70221 75871
L70221 75815
L70249 75759
L70277 75731
L70334 75703
L70474 75703
L70559 75731
" />
<path d="M70812 76293
L70812 75899
" />
<path d="M70812 75703
L70784 75731
L70812 75759
L70840 75731
L70812 75703
L70812 75759
" />
<path d="M71037 75899
L71346 75899
L71037 76293
L71346 76293
" />
<path d="M71796 76265
L71740 76293
L71627 76293
L71571 76265
L71543 76209
L71543 75984
L71571 75928
L71627 75899
L71740 75899
L71796 75928
L71824 75984
L71824 76040
L71543 76096
" />
<path d="M72077 76237
L72105 76265
L72077 76293
L72049 76265
L72077 76237
L72077 76293
" />
<path d="M72077 75928
L72105 75956
L72077 75984
L72049 75956
L72077 75928
L72077 75984
" />
<path d="M72780 76124
L73061 76124
" />
<path d="M72724 76293
L72921 75703
L73118 76293
" />
<path d="M73568 75899
L73568 76293
" />
<path d="M73427 75674
L73286 76096
L73652 76096
" />
</g>
<g style="fill:#000000; fill-opacity:0.0; 
stroke:#000000; stroke-width:39.3701; stroke-opacity:1; 
stroke-linecap:round; stroke-linejoin:round;">
</g>
<g style="fill:#000000; fill-opacity:0.0; 
stroke:#000000; stroke-width:59.0551; stroke-opacity:1; 
stroke-linecap:round; stroke-linejoin:round;">
<path d="M103714 77395
L103714 76805
" />
<path d="M104248 77395
L104248 76805
" />
<path d="M104248 77367
L104192 77395
L104079 77395
L104023 77367
L103995 77339
L103967 77283
L103967 77114
L103995 77058
L104023 77030
L104079 77002
L104192 77002
L104248 77030
" />
<path d="M104529 77339
L104557 77367
L104529 77395
L104501 77367
L104529 77339
L104529 77395
" />
<path d="M104529 77030
L104557 77058
L104529 77086
L104501 77058
L104529 77030
L104529 77086
" />
<path d="M105570 77395
L105232 77395
" />
<path d="M105401 77395
L105401 76805
L105345 76889
L105289 76946
L105232 76974
" />
<path d="M106245 76777
L105739 77536
" />
<path d="M106751 77395
L106413 77395
" />
<path d="M106582 77395
L106582 76805
L106526 76889
L106470 76946
L106413 76974
" />
</g>
<g style="fill:#000000; fill-opacity:0.0; 
stroke:#000000; stroke-width:39.3701; stroke-opacity:1; 
stroke-linecap:round; stroke-linejoin:round;">
</g>
<g style="fill:#000000; fill-opacity:0.0; 
stroke:#000000; stroke-width:59.0551; stroke-opacity:1; 
stroke-linecap:round; stroke-linejoin:round;">
<path d="M69685 73821
L112205 73821
" />
</g>
<g style="fill:#000000; fill-opacity:0.0; 
stroke:#000000; stroke-width:39.3701; stroke-opacity:1; 
stroke-linecap:round; stroke-linejoin:round;">
</g>
<g style="fill:#000000; fill-opacity:0.0; 
stroke:#000000; stroke-width:157.48; stroke-opacity:1; 
stroke-linecap:round; stroke-linejoin:round;">
<path d="M70360 74099
L70810 74099
" />
<path d="M70486 74886
L70585 74099
" />
<path d="M70974 74886
L71039 74361
" />
<path d="M71072 74099
L71030 74136
L71063 74174
L71105 74136
L71072 74099
L71063 74174
" />
<path d="M71302 74361
L71602 74361
" />
<path d="M71447 74099
L71363 74774
L71391 74849
L71461 74886
L71536 74886
" />
<path d="M71911 74886
L71841 74849
L71813 74774
L71897 74099
" />
<path d="M72516 74849
L72436 74886
L72286 74886
L72216 74849
L72187 74774
L72225 74474
L72272 74399
L72352 74361
L72501 74361
L72572 74399
L72600 74474
L72591 74549
L72206 74624
" />
<path d="M72895 74811
L72928 74849
L72886 74886
L72853 74849
L72895 74811
L72886 74886
" />
<path d="M72947 74399
L72980 74436
L72937 74474
L72905 74436
L72947 74399
L72937 74474
" />
</g>
<g style="fill:#000000; fill-opacity:0.0; 
stroke:#000000; stroke-width:39.3701; stroke-opacity:1; 
stroke-linecap:round; stroke-linejoin:round;">
</g>
<g style="fill:#000000; fill-opacity:0.0; 
stroke:#000000; stroke-width:59.0551; stroke-opacity:1; 
stroke-linecap:round; stroke-linejoin:round;">
<path d="M70446 73070
L70249 73070
" />
<path d="M70249 73380
L70249 72789
L70530 72789
" />
<path d="M70755 73380
L70755 72986
" />
<path d="M70755 72789
L70727 72817
L70755 72845
L70784 72817
L70755 72789
L70755 72845
" />
<path d="M71121 73380
L71065 73352
L71037 73295
L71037 72789
" />
<path d="M71571 73352
L71515 73380
L71402 73380
L71346 73352
L71318 73295
L71318 73070
L71346 73014
L71402 72986
L71515 72986
L71571 73014
L71599 73070
L71599 73127
L71318 73183
" />
<path d="M71852 73323
L71880 73352
L71852 73380
L71824 73352
L71852 73323
L71852 73380
" />
<path d="M71852 73014
L71880 73042
L71852 73070
L71824 73042
L71852 73014
L71852 73070
" />
<path d="M72527 72789
L72668 73380
L72780 72958
L72893 73380
L73033 72789
" />
<path d="M73343 73380
L73286 73352
L73258 73323
L73230 73267
L73230 73099
L73258 73042
L73286 73014
L73343 72986
L73427 72986
L73483 73014
L73511 73042
L73539 73099
L73539 73267
L73511 73323
L73483 73352
L73427 73380
L73343 73380
" />
<path d="M73877 73380
L73821 73352
L73793 73323
L73764 73267
L73764 73099
L73793 73042
L73821 73014
L73877 72986
L73961 72986
L74018 73014
L74046 73042
L74074 73099
L74074 73267
L74046 73323
L74018 73352
L73961 73380
L73877 73380
" />
<path d="M74580 73380
L74580 72789
" />
<path d="M74580 73352
L74524 73380
L74411 73380
L74355 73352
L74327 73323
L74299 73267
L74299 73099
L74327 73042
L74355 73014
L74411 72986
L74524 72986
L74580 73014
" />
<path d="M74861 73070
L75058 73070
" />
<path d="M75142 73380
L74861 73380
L74861 72789
L75142 72789
" />
<path d="M75480 73380
L75424 73352
L75395 73295
L75395 72789
" />
<path d="M75620 72986
L75845 72986
" />
<path d="M75705 73380
L75705 72874
L75733 72817
L75789 72789
L75845 72789
" />
<path d="M75902 73436
L76352 73436
" />
<path d="M76605 72789
L76661 72789
L76717 72817
L76745 72845
L76773 72902
L76802 73014
L76802 73155
L76773 73267
L76745 73323
L76717 73352
L76661 73380
L76605 73380
L76548 73352
L76520 73323
L76492 73267
L76464 73155
L76464 73014
L76492 72902
L76520 72845
L76548 72817
L76605 72789
" />
<path d="M77027 72845
L77055 72817
L77111 72789
L77251 72789
L77308 72817
L77336 72845
L77364 72902
L77364 72958
L77336 73042
L76998 73380
L77364 73380
" />
<path d="M77617 73323
L77645 73352
L77617 73380
L77589 73352
L77617 73323
L77617 73380
" />
<path d="M77898 73380
L77898 72789
" />
<path d="M77955 73155
L78123 73380
" />
<path d="M78123 72986
L77898 73211
" />
<path d="M78376 73380
L78376 72986
" />
<path d="M78376 72789
L78348 72817
L78376 72845
L78404 72817
L78376 72789
L78376 72845
" />
<path d="M78911 73352
L78854 73380
L78742 73380
L78686 73352
L78658 73323
L78629 73267
L78629 73099
L78658 73042
L78686 73014
L78742 72986
L78854 72986
L78911 73014
" />
<path d="M79417 73380
L79417 73070
L79389 73014
L79332 72986
L79220 72986
L79164 73014
" />
<path d="M79417 73352
L79361 73380
L79220 73380
L79164 73352
L79136 73295
L79136 73239
L79164 73183
L79220 73155
L79361 73155
L79417 73127
" />
<path d="M79951 73380
L79951 72789
" />
<path d="M79951 73352
L79895 73380
L79782 73380
L79726 73352
L79698 73323
L79670 73267
L79670 73099
L79698 73042
L79726 73014
L79782 72986
L79895 72986
L79951 73014
" />
<path d="M80092 73436
L80542 73436
" />
<path d="M80682 72986
L80682 73577
" />
<path d="M80682 73014
L80739 72986
L80851 72986
L80907 73014
L80935 73042
L80964 73099
L80964 73267
L80935 73323
L80907 73352
L80851 73380
L80739 73380
L80682 73352
" />
<path d="M81470 73352
L81413 73380
L81301 73380
L81245 73352
L81217 73323
L81188 73267
L81188 73099
L81217 73042
L81245 73014
L81301 72986
L81413 72986
L81470 73014
" />
<path d="M81723 73380
L81723 72789
" />
<path d="M81723 73014
L81779 72986
L81892 72986
L81948 73014
L81976 73042
L82004 73099
L82004 73267
L81976 73323
L81948 73352
L81892 73380
L81779 73380
L81723 73352
" />
</g>
<g style="fill:#000000; fill-opacity:0.0; 
stroke:#000000; stroke-width:39.3701; stroke-opacity:1; 
stroke-linecap:round; stroke-linejoin:round;">
</g>
<g style="fill:#000000; fill-opacity:0.0; 
stroke:#000000; stroke-width:59.0551; stroke-opacity:1; 
stroke-linecap:round; stroke-linejoin:round;">
<path d="M69685 71459
L112205 71459
" />
</g>
<g style="fill:#000000; fill-opacity:0.0; 
stroke:#000000; stroke-width:39.3701; stroke-opacity:1; 
stroke-linecap:round; stroke-linejoin:round;">
</g>
<g style="fill:#000000; fill-opacity:0.0; 
stroke:#000000; stroke-width:59.0551; stroke-opacity:1; 
stroke-linecap:round; stroke-linejoin:round;">
<path d="M70221 72289
L70305 72317
L70446 72317
L70502 72289
L70530 72260
L70559 72204
L70559 72148
L70530 72092
L70502 72064
L70446 72036
L70334 72007
L70277 71979
L70249 71951
L70221 71895
L70221 71839
L70249 71782
L70277 71754
L70334 71726
L70474 71726
L70559 71754
" />
<path d="M70812 72317
L70812 71726
" />
<path d="M71065 72317
L71065 72007
L71037 71951
L70980 71923
L70896 71923
L70840 71951
L70812 71979
" />
<path d="M71571 72289
L71515 72317
L71402 72317
L71346 72289
L71318 72232
L71318 72007
L71346 71951
L71402 71923
L71515 71923
L71571 71951
L71599 72007
L71599 72064
L71318 72120
" />
<path d="M72077 72289
L72021 72317
L71908 72317
L71852 72289
L71824 72232
L71824 72007
L71852 71951
L71908 71923
L72021 71923
L72077 71951
L72105 72007
L72105 72064
L71824 72120
" />
<path d="M72274 71923
L72499 71923
" />
<path d="M72358 71726
L72358 72232
L72386 72289
L72443 72317
L72499 72317
" />
<path d="M72696 72260
L72724 72289
L72696 72317
L72668 72289
L72696 72260
L72696 72317
" />
<path d="M72696 71951
L72724 71979
L72696 72007
L72668 71979
L72696 71951
L72696 72007
" />
</g>
<g style="fill:#000000; fill-opacity:0.0; 
stroke:#000000; stroke-width:39.3701; stroke-opacity:1; 
stroke-linecap:round; stroke-linejoin:round;">
</g>
<g style="fill:#000000; fill-opacity:0.0; 
stroke:#000000; stroke-width:59.0551; stroke-opacity:1; 
stroke-linecap:round; stroke-linejoin:round;">
<path d="M77559 75396
L77559 76577
" />
</g>
<g style="fill:#000000; fill-opacity:0.0; 
stroke:#000000; stroke-width:39.3701; stroke-opacity:1; 
stroke-linecap:round; stroke-linejoin:round;">
</g>
<g style="fill:#000000; fill-opacity:0.0; 
stroke:#000000; stroke-width:59.0551; stroke-opacity:1; 
stroke-linecap:round; stroke-linejoin:round;">
<path d="M102756 75396
L102756 77955
" />
</g>
<g style="fill:#848400; fill-opacity:0.0; 
stroke:#848400; stroke-width:59.0551; stroke-opacity:1; 
stroke-linecap:round; stroke-linejoin:round;">
</g>
<g style="fill:#848400; fill-opacity:1.0; 
stroke:#848400; stroke-width:0; stroke-opacity:1; 
stroke-linecap:round; stroke-linejoin:round;">
<circle cx="56120" cy="44380" r="196.85" /> 
</g>
<g style="fill:#848400; fill-opacity:1.0; 
stroke:#848400; stroke-width:39.3701; stroke-opacity:1; 
stroke-linecap:round; stroke-linejoin:round;">
</g>
<g style="fill:#848400; fill-opacity:1.0; 
stroke:#848400; stroke-width:0; stroke-opacity:1; 
stroke-linecap:round; stroke-linejoin:round;">
<circle cx="55620" cy="44380" r="196.85" /> 
</g>
<g style="fill:#848400; fill-opacity:1.0; 
stroke:#848400; stroke-width:39.3701; stroke-opacity:1; 
stroke-linecap:round; stroke-linejoin:round;">
</g>
<g style="fill:#848400; fill-opacity:1.0; 
stroke:#848400; stroke-width:0; stroke-opacity:1; 
stroke-linecap:round; stroke-linejoin:round;">
<circle cx="54620" cy="44380" r="196.85" /> 
</g>
<g style="fill:#848400; fill-opacity:1.0; 
stroke:#848400; stroke-width:39.3701; stroke-opacity:1; 
stroke-linecap:round; stroke-linejoin:round;">
</g>
<g style="fill:#848400; fill-opacity:1.0; 
stroke:#848400; stroke-width:0; stroke-opacity:1; 
stroke-linecap:round; stroke-linejoin:round;">
<circle cx="55120" cy="44380" r="196.85" /> 
</g>
<g style="fill:#848400; fill-opacity:1.0; 
stroke:#848400; stroke-width:39.3701; stroke-opacity:1; 
stroke-linecap:round; stroke-linejoin:round;">
</g>
<g style="fill:#848400; fill-opacity:1.0; 
stroke:#848400; stroke-width:0; stroke-opacity:1; 
stroke-linecap:round; stroke-linejoin:round;">
<circle cx="56370" cy="40380" r="629.921" /> 
</g>
<g style="fill:#848400; fill-opacity:1.0; 
stroke:#848400; stroke-width:39.3701; stroke-opacity:1; 
stroke-linecap:round; stroke-linejoin:round;">
</g>
<g style="fill:#848400; fill-opacity:1.0; 
stroke:#848400; stroke-width:0; stroke-opacity:1; 
stroke-linecap:round; stroke-linejoin:round;">
<circle cx="53870" cy="41380" r="629.921" /> 
</g>
<g style="fill:#848400; fill-opacity:1.0; 
stroke:#848400; stroke-width:39.3701; stroke-opacity:1; 
stroke-linecap:round; stroke-linejoin:round;">
</g>
<g style="fill:#008400; fill-opacity:1.0; 
stroke:#008400; stroke-width:39.3701; stroke-opacity:1; 
stroke-linecap:round; stroke-linejoin:round;">
</g>
<g style="fill:#008400; fill-opacity:1.0; 
stroke:#008400; stroke-width:0; stroke-opacity:1; 
stroke-linecap:round; stroke-linejoin:round;">
<polyline style="fill-rule:evenodd;"
points="58032,45020
58042,45021
58051,45024
58060,45027
58069,45031
58077,45036
58085,45042
58092,45048
58099,45056
58105,45063
58110,45072
58114,45080
58117,45089
58119,45099
58121,45108
58121,45118
58121,45522
58121,45531
58119,45541
58117,45550
58114,45559
58110,45568
58105,45576
58099,45584
58092,45591
58085,45598
58077,45603
58069,45608
58060,45612
58051,45616
58042,45618
58032,45619
58023,45620
57176,45620
57167,45619
57157,45618
57148,45616
57139,45612
57130,45608
57122,45603
57114,45598
57107,45591
57100,45584
57094,45576
57089,45568
57085,45559
57082,45550
57080,45541
57078,45531
57078,45522
57078,45118
57078,45108
57080,45099
57082,45089
57085,45080
57089,45072
57094,45063
57100,45056
57107,45048
57114,45042
57122,45036
57130,45031
57139,45027
57148,45024
57157,45021
57167,45020
57176,45020
58023,45020
58032,45020
" /> 
<polyline style="fill-rule:evenodd;"
points="58032,43180
58042,43181
58051,43183
58060,43187
58069,43191
58077,43196
58085,43201
58092,43208
58099,43215
58105,43223
58110,43231
58114,43240
58117,43249
58119,43258
58121,43268
58121,43277
58121,43681
58121,43691
58119,43700
58117,43710
58114,43719
58110,43727
58105,43736
58099,43743
58092,43751
58085,43757
58077,43763
58069,43768
58060,43772
58051,43775
58042,43778
58032,43779
58023,43779
57176,43779
57167,43779
57157,43778
57148,43775
57139,43772
57130,43768
57122,43763
57114,43757
57107,43751
57100,43743
57094,43736
57089,43727
57085,43719
57082,43710
57080,43700
57078,43691
57078,43681
57078,43277
57078,43268
57080,43258
57082,43249
57085,43240
57089,43231
57094,43223
57100,43215
57107,43208
57114,43201
57122,43196
57130,43191
57139,43187
57148,43183
57157,43181
57167,43180
57176,43179
58023,43179
58032,43180
" /> 
</g>
<g style="fill:#848400; fill-opacity:1.0; 
stroke:#848400; stroke-width:0; stroke-opacity:1; 
stroke-linecap:round; stroke-linejoin:round;">
<circle cx="56550" cy="45700" r="236.22" /> 
</g>
<g style="fill:#848400; fill-opacity:1.0; 
stroke:#848400; stroke-width:39.3701; stroke-opacity:1; 
stroke-linecap:round; stroke-linejoin:round;">
</g>
<g style="fill:#848400; fill-opacity:1.0; 
stroke:#848400; stroke-width:0; stroke-opacity:1; 
stroke-linecap:round; stroke-linejoin:round;">
<circle cx="58700" cy="44400" r="236.22" /> 
</g>
<g style="fill:#848400; fill-opacity:1.0; 
stroke:#848400; stroke-width:39.3701; stroke-opacity:1; 
stroke-linecap:round; stroke-linejoin:round;">
</g>
<g style="fill:#848400; fill-opacity:1.0; 
stroke:#848400; stroke-width:0; stroke-opacity:1; 
stroke-linecap:round; stroke-linejoin:round;">
<circle cx="52050" cy="42400" r="236.22" /> 
</g>
<g style="fill:#848400; fill-opacity:1.0; 
stroke:#848400; stroke-width:39.3701; stroke-opacity:1; 
stroke-linecap:round; stroke-linejoin:round;">
</g>
<g style="fill:#848400; fill-opacity:1.0; 
stroke:#848400; stroke-width:0; stroke-opacity:1; 
stroke-linecap:round; stroke-linejoin:round;">
<circle cx="58700" cy="40350" r="236.22" /> 
</g>
<g style="fill:#848400; fill-opacity:1.0; 
stroke:#848400; stroke-width:39.3701; stroke-opacity:1; 
stroke-linecap:round; stroke-linejoin:round;">
</g>
<g style="fill:#008400; fill-opacity:1.0; 
stroke:#008400; stroke-width:39.3701; stroke-opacity:1; 
stroke-linecap:round; stroke-linejoin:round;">
</g>
<g style="fill:#008400; fill-opacity:1.0; 
stroke:#008400; stroke-width:0; stroke-opacity:1; 
stroke-linecap:round; stroke-linejoin:round;">
<polyline style="fill-rule:evenodd;"
points="53872,44969
53872,45756
53478,45756
53478,44969
53872,44969
" /> 
<polyline style="fill-rule:evenodd;"
points="53321,44969
53321,45756
52927,45756
52927,44969
53321,44969
" /> 
<polyline style="fill-rule:evenodd;"
points="52770,44969
52770,45756
52376,45756
52376,44969
52770,44969
" /> 
<polyline style="fill-rule:evenodd;"
points="54423,44969
54423,45756
54029,45756
54029,44969
54423,44969
" /> 
<polyline style="fill-rule:evenodd;"
points="53872,42843
53872,43630
53478,43630
53478,42843
53872,42843
" /> 
<polyline style="fill-rule:evenodd;"
points="53321,42843
53321,43630
52927,43630
52927,42843
53321,42843
" /> 
<polyline style="fill-rule:evenodd;"
points="52770,42843
52770,43630
52376,43630
52376,42843
52770,42843
" /> 
<polyline style="fill-rule:evenodd;"
points="54423,42843
54423,43630
54029,43630
54029,42843
54423,42843
" /> 
<polyline style="fill-rule:evenodd;"
points="57088,40871
57088,39887
58270,39887
58270,40871
57088,40871
" /> 
<polyline style="fill-rule:evenodd;"
points="51988,41871
51988,40887
53170,40887
53170,41871
51988,41871
" /> 
</g>
<g style="fill:#848400; fill-opacity:1.0; 
stroke:#848400; stroke-width:0; stroke-opacity:1; 
stroke-linecap:round; stroke-linejoin:round;">
<circle cx="54750" cy="39050" r="236.22" /> 
</g>
<g style="fill:#848400; fill-opacity:1.0; 
stroke:#848400; stroke-width:39.3701; stroke-opacity:1; 
stroke-linecap:round; stroke-linejoin:round;">
</g>
<g style="fill:#848400; fill-opacity:1.0; 
stroke:#848400; stroke-width:0; stroke-opacity:1; 
stroke-linecap:round; stroke-linejoin:round;">
<circle cx="54750" cy="45700" r="236.22" /> 
</g>
<g style="fill:#848400; fill-opacity:1.0; 
stroke:#848400; stroke-width:39.3701; stroke-opacity:1; 
stroke-linecap:round; stroke-linejoin:round;">
</g>
<g style="fill:#848400; fill-opacity:1.0; 
stroke:#848400; stroke-width:0; stroke-opacity:1; 
stroke-linecap:round; stroke-linejoin:round;">
<circle cx="52050" cy="44400" r="236.22" /> 
</g>
<g style="fill:#848400; fill-opacity:1.0; 
stroke:#848400; stroke-width:39.3701; stroke-opacity:1; 
stroke-linecap:round; stroke-linejoin:round;">
</g>
<g style="fill:#848400; fill-opacity:1.0; 
stroke:#848400; stroke-width:0; stroke-opacity:1; 
stroke-linecap:round; stroke-linejoin:round;">
<circle cx="52050" cy="40350" r="236.22" /> 
</g>
<g style="fill:#848400; fill-opacity:1.0; 
stroke:#848400; stroke-width:39.3701; stroke-opacity:1; 
stroke-linecap:round; stroke-linejoin:round;">
</g>
<g style="fill:#848400; fill-opacity:1.0; 
stroke:#848400; stroke-width:0; stroke-opacity:1; 
stroke-linecap:round; stroke-linejoin:round;">
<circle cx="56550" cy="39050" r="236.22" /> 
</g>
<g style="fill:#848400; fill-opacity:1.0; 
stroke:#848400; stroke-width:39.3701; stroke-opacity:1; 
stroke-linecap:round; stroke-linejoin:round;">
</g>
<g style="fill:#848400; fill-opacity:1.0; 
stroke:#848400; stroke-width:0; stroke-opacity:1; 
stroke-linecap:round; stroke-linejoin:round;">
<circle cx="58700" cy="42400" r="236.22" /> 
</g>
<g style="fill:#848400; fill-opacity:1.0; 
stroke:#848400; stroke-width:39.3701; stroke-opacity:1; 
stroke-linecap:round; stroke-linejoin:round;">
</g>
<g style="fill:#C2C2C2; fill-opacity:1.0; 
stroke:#C2C2C2; stroke-width:39.3701; stroke-opacity:1; 
stroke-linecap:round; stroke-linejoin:round;">
</g>
<g style="fill:#C2C2C2; fill-opacity:1.0; 
stroke:#C2C2C2; stroke-width:0; stroke-opacity:1; 
stroke-linecap:round; stroke-linejoin:round;">
<circle cx="52650" cy="42400" r="157.48" /> 
</g>
<g style="fill:#C2C2C2; fill-opacity:1.0; 
stroke:#C2C2C2; stroke-width:39.3701; stroke-opacity:1; 
stroke-linecap:round; stroke-linejoin:round;">
</g>
<g style="fill:#C2C2C2; fill-opacity:1.0; 
stroke:#C2C2C2; stroke-width:0; stroke-opacity:1; 
stroke-linecap:round; stroke-linejoin:round;">
<circle cx="52900" cy="44000" r="157.48" /> 
</g>
<g style="fill:#C2C2C2; fill-opacity:1.0; 
stroke:#C2C2C2; stroke-width:39.3701; stroke-opacity:1; 
stroke-linecap:round; stroke-linejoin:round;">
</g>
<g style="fill:#008400; fill-opacity:1.0; 
stroke:#008400; stroke-width:39.3701; stroke-opacity:1; 
stroke-linecap:round; stroke-linejoin:round;">
</g>
<g style="fill:#008400; fill-opacity:1.0; 
stroke:#008400; stroke-width:60; stroke-opacity:1; 
stroke-linecap:round; stroke-linejoin:round;">
</g>
<g style="fill:#008400; fill-opacity:0.0; 
stroke:#008400; stroke-width:60; stroke-opacity:1; 
stroke-linecap:round; stroke-linejoin:round;">
<path d="M54923 44576
L55120 44380
" />
<path d="M54814 44685
L54923 44576
" />
<path d="M53899 44685
L54814 44685
" />
<path d="M53675 44909
L53899 44685
" />
<path d="M53675 45362
L53675 44909
" />
<path d="M54341 44380
L54620 44380
" />
<path d="M53653 44380
L54341 44380
" />
<path d="M53124 44909
L53653 44380
" />
<path d="M53124 45362
L53124 44909
" />
<path d="M55923 44576
L56120 44380
" />
<path d="M55675 44824
L55923 44576
" />
<path d="M54311 44824
L55675 44824
" />
<path d="M54226 44909
L54311 44824
" />
<path d="M54226 45362
L54226 44909
" />
</g>
<g style="fill:#008400; fill-opacity:0.0; 
stroke:#008400; stroke-width:98.4252; stroke-opacity:1; 
stroke-linecap:round; stroke-linejoin:round;">
<path d="M56990 40379
L56379 40379
" />
<path d="M57679 40379
L56990 40379
" />
</g>
<g style="fill:#008400; fill-opacity:0.0; 
stroke:#008400; stroke-width:60; stroke-opacity:1; 
stroke-linecap:round; stroke-linejoin:round;">
<path d="M57679 40931
L57679 40379
" />
<path d="M57813 41065
L57679 40931
" />
<path d="M57813 42926
L57813 41065
" />
<path d="M57600 43140
L57813 42926
" />
<path d="M57600 43479
L57600 43140
" />
<path d="M52286 44636
L52050 44400
" />
<path d="M52573 44923
L52286 44636
" />
<path d="M52573 45362
L52573 44923
" />
</g>
<g style="fill:#008400; fill-opacity:0.0; 
stroke:#008400; stroke-width:98.4252; stroke-opacity:1; 
stroke-linecap:round; stroke-linejoin:round;">
<path d="M53074 43287
L53074 43574
" />
<path d="M52679 42400
L52650 42400
" />
</g>
<g style="fill:#008400; fill-opacity:0.0; 
stroke:#008400; stroke-width:60; stroke-opacity:1; 
stroke-linecap:round; stroke-linejoin:round;">
<path d="M52807 42557
L52650 42400
" />
<path d="M53124 42874
L52807 42557
" />
<path d="M53124 43237
L53124 42874
" />
<path d="M52573 43823
L52573 43237
" />
<path d="M52900 44000
L52750 44000
" />
<path d="M52750 44000
L52573 43823
" />
<path d="M56929 45320
L57600 45320
" />
<path d="M56550 45700
L56929 45320
" />
<path d="M56550 45365
L56750 45165
" />
<path d="M56550 45700
L56550 45365
" />
<path d="M56313 39286
L56550 39050
" />
<path d="M55631 39968
L56313 39286
" />
<path d="M55631 40734
L55631 39968
" />
<path d="M56750 41853
L55631 40734
" />
<path d="M56750 45165
L56750 41853
" />
</g>
<g style="fill:#008400; fill-opacity:0.0; 
stroke:#008400; stroke-width:98.4252; stroke-opacity:1; 
stroke-linecap:round; stroke-linejoin:round;">
<path d="M53267 41379
L52579 41379
" />
<path d="M53879 41379
L53267 41379
" />
</g>
<g style="fill:#008400; fill-opacity:0.0; 
stroke:#008400; stroke-width:60; stroke-opacity:1; 
stroke-linecap:round; stroke-linejoin:round;">
<path d="M52102 40350
L52050 40350
" />
<path d="M52579 40827
L52102 40350
" />
<path d="M52579 41379
L52579 40827
" />
</g>
<g style="fill:#008400; fill-opacity:1.0; 
stroke:#008400; stroke-width:60; stroke-opacity:1; 
stroke-linecap:round; stroke-linejoin:round;">
<polyline style="fill-rule:evenodd;"
points="57898,38666
57896,38671
57894,38676
57894,38677
57876,38748
57875,38754
57874,38759
57874,38760
57870,38833
57871,38839
57871,38844
57871,38845
57882,38918
57883,38923
57884,38928
57884,38929
57909,38998
57911,39003
57914,39008
57914,39009
57952,39072
57955,39077
57958,39081
57958,39082
58008,39136
58012,39140
58016,39144
58016,39144
58075,39188
58080,39191
58084,39194
58085,39194
58151,39226
58156,39228
58161,39230
58162,39230
58233,39249
58239,39249
58244,39250
58245,39250
58318,39255
58324,39254
58329,39254
58330,39254
58403,39244
58408,39243
58413,39242
58414,39241
58484,39217
58489,39215
58494,39213
58494,39212
58558,39175
58562,39172
58567,39169
58567,39168
58622,39120
58626,39116
58630,39112
58630,39111
58675,39053
58678,39048
58681,39043
58681,39043
58713,38977
58715,38971
58717,38966
58717,38966
58736,38895
58737,38889
58738,38884
58738,38883
58743,38810
58743,38804
58743,38799
58743,38798
58733,38725
58732,38720
58731,38714
58730,38714
58717,38675
58798,38701
58881,38748
58954,38811
59013,38886
59056,38971
59082,39063
59090,39152
59090,45345
58992,45356
58987,45357
58982,45358
58981,45358
58841,45401
58836,45403
58831,45405
58831,45406
58702,45475
58697,45478
58693,45481
58692,45482
58579,45575
58576,45579
58572,45583
58571,45583
58479,45697
58476,45701
58473,45706
58472,45707
58404,45836
58401,45841
58399,45846
58399,45846
58357,45987
58356,45992
58355,45997
58355,45998
58346,46090
52404,46090
52393,45992
52392,45987
52391,45982
52391,45981
52355,45863
52376,45865
52770,45865
52791,45863
52811,45857
52830,45847
52847,45833
52848,45832
52850,45833
52866,45847
52885,45857
52906,45863
52927,45865
53321,45865
53342,45863
53363,45857
53381,45847
53398,45833
53400,45832
53401,45833
53418,45847
53436,45857
53457,45863
53478,45865
53872,45865
53893,45863
53914,45857
53933,45847
53949,45833
53951,45832
53952,45833
53969,45847
53988,45857
54008,45863
54029,45865
54423,45865
54444,45863
54482,45919
54530,45967
54586,46005
54649,46031
54716,46044
54783,46044
54850,46031
54913,46005
54969,45967
55017,45919
55055,45863
55081,45800
55094,45733
55094,45666
55081,45599
55055,45536
55017,45480
54969,45432
54913,45394
54850,45368
54783,45355
54716,45355
54649,45368
54586,45394
54532,45430
54532,44969
54532,44963
55668,44963
55675,44963
55682,44963
55682,44963
55702,44961
55729,44953
55753,44940
55774,44922
55778,44917
56024,44671
56030,44673
56089,44685
56150,44685
56209,44673
56264,44650
56314,44617
56357,44574
56390,44524
56413,44469
56425,44410
56425,44349
56413,44290
56390,44235
56357,44185
56314,44142
56264,44109
56209,44086
56150,44074
56089,44074
56030,44086
55975,44109
55925,44142
55882,44185
55863,44214
55824,44175
55823,44174
55822,44173
55776,44127
55769,44133
55731,44113
55688,44122
55688,44214
55625,44277
55722,44374
55785,44311
55822,44311
55814,44349
55814,44410
55822,44448
55785,44448
55722,44385
55625,44482
55688,44545
55688,44615
55618,44685
55010,44685
55024,44671
55030,44673
55089,44685
55150,44685
55209,44673
55264,44650
55314,44617
55357,44574
55376,44545
55415,44584
55416,44585
55417,44586
55463,44632
55470,44626
55508,44646
55551,44637
55551,44545
55614,44482
55517,44385
55454,44448
55417,44448
55425,44410
55425,44349
55417,44311
55454,44311
55517,44374
55614,44277
55551,44214
55551,44122
55508,44113
55470,44133
55463,44127
55415,44175
55414,44176
55413,44177
55376,44214
55357,44185
55314,44142
55264,44109
55209,44086
55150,44074
55089,44074
55030,44086
54975,44109
54925,44142
54882,44185
54870,44204
54857,44185
54814,44142
54764,44109
54709,44086
54650,44074
54589,44074
54530,44086
54475,44109
54425,44142
54382,44185
54349,44235
54346,44241
53660,44241
53653,44240
53626,44243
53600,44251
53576,44264
53555,44281
53550,44286
53031,44806
53025,44810
53021,44816
53021,44816
53008,44831
52995,44855
52994,44860
52927,44860
52906,44862
52885,44868
52866,44878
52850,44892
52848,44893
52847,44892
52830,44878
52811,44868
52791,44862
52770,44860
52696,44860
52689,44845
52671,44824
52666,44820
52389,44542
52389,44542
52371,44525
52381,44500
52394,44433
52394,44366
52381,44299
52355,44236
52317,44180
52269,44132
52213,44094
52150,44068
52083,44055
52016,44055
51949,44068
51886,44094
51830,44132
51782,44180
51744,44236
51718,44299
51705,44366
51705,44433
51718,44500
51744,44563
51782,44619
51830,44667
51886,44705
51949,44731
52016,44744
52083,44744
52150,44731
52175,44721
52192,44739
52192,44739
52326,44872
52315,44878
52299,44892
52285,44908
52275,44927
52269,44947
52267,44969
52267,45692
52174,45579
52170,45576
52166,45572
52166,45571
52052,45479
52048,45476
52043,45473
52042,45472
51913,45404
51908,45401
51903,45399
51903,45399
51762,45357
51757,45356
51752,45355
51751,45355
51751,45355
51659,45346
51659,42517
51743,42517
51771,42575
51811,42626
51860,42668
51916,42700
51932,42706
51981,42698
51981,42468
52118,42468
52118,42698
52167,42706
52225,42678
52276,42638
52318,42589
52350,42533
52356,42517
52348,42468
52118,42468
51981,42468
51751,42468
51743,42517
51659,42517
51659,42282
51743,42282
51751,42331
51981,42331
51981,42101
52118,42101
52118,42331
52348,42331
52356,42282
52328,42224
52288,42173
52239,42131
52183,42099
52167,42093
52118,42101
51981,42101
51932,42093
51874,42121
51823,42161
51781,42210
51749,42266
51743,42282
51659,42282
51659,40316
51705,40316
51705,40383
51718,40450
51744,40513
51782,40569
51830,40617
51886,40655
51949,40681
52016,40694
52083,40694
52150,40681
52212,40656
52334,40778
51988,40778
51967,40780
51947,40786
51928,40796
51911,40810
51898,40826
51888,40845
51881,40866
51879,40887
51879,41871
51881,41892
51888,41913
51898,41932
51911,41948
51928,41962
51947,41972
51967,41978
51988,41980
53170,41980
53176,41980
53159,41987
53087,42035
53025,42097
52977,42169
52943,42250
52926,42336
52926,42423
52940,42494
52910,42464
52910,42464
52908,42462
52916,42426
52916,42373
52905,42322
52885,42273
52856,42230
52819,42193
52776,42164
52727,42144
52676,42133
52623,42133
52572,42144
52523,42164
52480,42193
52443,42230
52414,42273
52394,42322
52383,42373
52383,42426
52394,42477
52414,42526
52443,42569
52480,42606
52523,42635
52572,42655
52623,42666
52676,42666
52712,42658
52714,42660
52714,42660
52789,42735
52770,42734
52376,42734
52355,42736
52334,42742
52315,42752
52299,42766
52285,42782
52275,42801
52269,42821
52267,42843
52267,43630
52269,43652
52275,43672
52285,43691
52299,43707
52315,43721
52334,43731
52355,43737
52376,43739
52434,43739
52434,43816
52433,43823
52434,43830
52434,43830
52434,43830
52436,43850
52443,43873
52444,43876
52457,43900
52474,43921
52479,43926
52647,44093
52651,44098
52653,44100
52664,44126
52693,44169
52730,44206
52773,44235
52822,44255
52873,44266
52926,44266
52977,44255
53026,44235
53069,44206
53106,44169
53135,44126
53155,44077
53166,44026
53166,43973
53155,43922
53135,43873
53106,43830
53069,43793
53026,43764
52977,43744
52957,43739
53321,43739
53342,43737
53363,43731
53381,43721
53398,43707
53400,43706
53401,43707
53418,43721
53436,43731
53457,43737
53478,43739
53872,43739
53893,43737
53914,43731
53933,43721
53949,43707
53962,43692
53971,43701
53986,43711
54003,43718
54020,43721
54135,43721
54158,43698
54158,43305
54295,43305
54295,43698
54317,43721
54432,43721
54450,43718
54466,43711
54481,43701
54494,43688
54504,43673
54511,43657
54514,43639
54514,43328
54491,43305
54295,43305
54158,43305
54150,43305
54150,43168
54158,43168
54158,42775
54295,42775
54295,43168
54491,43168
54514,43145
54514,42834
54511,42816
54504,42800
54494,42785
54481,42772
54466,42762
54450,42755
54432,42752
54317,42752
54295,42775
54158,42775
54135,42752
54020,42752
54003,42755
53986,42762
53971,42772
53962,42781
53949,42766
53933,42752
53914,42742
53893,42736
53872,42734
53638,42734
53652,42724
53714,42662
53762,42590
53796,42509
53813,42423
53813,42336
53804,42291
54473,42291
54473,42468
54508,42641
54575,42804
54673,42951
54798,43076
54945,43174
55108,43241
55281,43276
55458,43276
55631,43241
55794,43174
55941,43076
56066,42951
56164,42804
56231,42641
56266,42468
56266,42291
56231,42118
56164,41955
56066,41808
55941,41683
55794,41585
55631,41518
55458,41483
55281,41483
55108,41518
54945,41585
54798,41683
54673,41808
54575,41955
54508,42118
54473,42291
53804,42291
53796,42250
53762,42169
53718,42102
53797,42118
53942,42118
54085,42090
54219,42034
54340,41953
54443,41850
54524,41729
54580,41595
54608,41452
54608,41307
54580,41164
54524,41030
54443,40909
54340,40806
54219,40725
54085,40669
53942,40641
53797,40641
53654,40669
53520,40725
53399,40806
53296,40909
53279,40934
53279,40887
53277,40866
53271,40845
53260,40826
53247,40810
53230,40796
53211,40786
53191,40780
53170,40778
52709,40778
52708,40774
52695,40749
52678,40728
52672,40724
52384,40436
52394,40383
52394,40316
52381,40249
52355,40186
52317,40130
52269,40082
52213,40044
52150,40018
52083,40005
52016,40005
51949,40018
51886,40044
51830,40082
51782,40130
51744,40186
51718,40249
51705,40316
51659,40316
51659,39968
55491,39968
55492,39975
55492,40727
55491,40734
55492,40741
55492,40741
55493,40749
55494,40761
55500,40780
55502,40787
55515,40812
55532,40833
55538,40837
56611,41910
56611,45108
56456,45263
56451,45267
56447,45272
56447,45272
56434,45288
56421,45312
56413,45338
56410,45365
56411,45372
56411,45384
56386,45394
56330,45432
56282,45480
56244,45536
56218,45599
56205,45666
56205,45733
56218,45800
56244,45863
56282,45919
56330,45967
56386,46005
56449,46031
56516,46044
56583,46044
56650,46031
56713,46005
56769,45967
56817,45919
56855,45863
56881,45800
56894,45733
56894,45666
56881,45599
56871,45574
56969,45477
56969,45522
56973,45562
56984,45601
57004,45637
57029,45668
57061,45694
57097,45713
57136,45725
57176,45729
58023,45729
58063,45725
58102,45713
58138,45694
58170,45668
58195,45637
58215,45601
58226,45562
58230,45522
58230,45118
58226,45077
58215,45039
58195,45003
58170,44971
58138,44945
58102,44926
58063,44914
58023,44910
57176,44910
57136,44914
57097,44926
57061,44945
57029,44971
57004,45003
56984,45039
56973,45077
56969,45118
56969,45181
56936,45181
56929,45180
56922,45181
56922,45181
56904,45183
56902,45183
56887,45188
56888,45172
56888,45172
56889,45165
56888,45159
56888,44366
58355,44366
58355,44433
58368,44500
58394,44563
58432,44619
58480,44667
58536,44705
58599,44731
58666,44744
58733,44744
58800,44731
58863,44705
58919,44667
58967,44619
59005,44563
59031,44500
59044,44433
59044,44366
59031,44299
59005,44236
58967,44180
58919,44132
58863,44094
58800,44068
58733,44055
58666,44055
58599,44068
58536,44094
58480,44132
58432,44180
58394,44236
58368,44299
58355,44366
56888,44366
56888,41860
56889,41853
56886,41826
56878,41799
56865,41775
56852,41759
56848,41754
56843,41750
56190,41097
56297,41118
56442,41118
56585,41090
56719,41034
56840,40953
56943,40850
56979,40797
56979,40871
56981,40892
56988,40913
56998,40932
57011,40948
57028,40962
57047,40972
57067,40978
57088,40980
57549,40980
57550,40985
57563,41009
57580,41030
57586,41034
57674,41122
57674,42057
57652,42035
57580,41987
57499,41953
57413,41936
57326,41936
57240,41953
57159,41987
57087,42035
57025,42097
56977,42169
56943,42250
56926,42336
56926,42423
56943,42509
56977,42590
57025,42662
57087,42724
57159,42772
57240,42806
57326,42823
57413,42823
57499,42806
57580,42772
57652,42724
57674,42702
57674,42869
57506,43037
57501,43041
57497,43046
57497,43046
57484,43062
57480,43070
57176,43070
57136,43074
57097,43086
57061,43105
57029,43131
57004,43162
56984,43198
56973,43237
56969,43277
56969,43681
56973,43722
56984,43760
57004,43796
57029,43828
57061,43854
57097,43873
57136,43885
57176,43889
58023,43889
58063,43885
58102,43873
58138,43854
58170,43828
58195,43796
58215,43760
58226,43722
58230,43681
58230,43277
58226,43237
58215,43198
58195,43162
58170,43131
58138,43105
58102,43086
58063,43074
58023,43070
57866,43070
57906,43029
57911,43025
57916,43020
57916,43020
57929,43004
57929,43004
57942,42980
57946,42966
57950,42953
57950,42949
57952,42933
57952,42933
57952,42926
57952,42919
57952,42659
58537,42659
58566,42700
58627,42720
58691,42728
58755,42724
58817,42706
58833,42700
58862,42659
58700,42496
58537,42659
57952,42659
57952,42391
58371,42391
58375,42455
58393,42517
58399,42533
58440,42562
58603,42400
58796,42400
58959,42562
59000,42533
59020,42472
59028,42408
59024,42344
59006,42282
59000,42266
58959,42237
58796,42400
58603,42400
58440,42237
58399,42266
58379,42327
58371,42391
57952,42391
57952,42140
58537,42140
58700,42303
58862,42140
58833,42099
58772,42079
58708,42071
58644,42075
58582,42093
58566,42099
58537,42140
57952,42140
57952,41072
57952,41065
57950,41038
57942,41012
57929,40988
57923,40980
58270,40980
58291,40978
58311,40972
58330,40962
58347,40948
58360,40932
58371,40913
58377,40892
58379,40871
58379,40477
58394,40513
58432,40569
58480,40617
58536,40655
58599,40681
58666,40694
58733,40694
58800,40681
58863,40655
58919,40617
58967,40569
59005,40513
59031,40450
59044,40383
59044,40316
59031,40249
59005,40186
58967,40130
58919,40082
58863,40044
58800,40018
58733,40005
58666,40005
58599,40018
58536,40044
58480,40082
58432,40130
58394,40186
58379,40222
58379,39887
58377,39866
58371,39845
58360,39826
58347,39810
58330,39796
58311,39786
58291,39780
58270,39778
57088,39778
57067,39780
57047,39786
57028,39796
57011,39810
56998,39826
56988,39845
56981,39866
56979,39887
56979,39962
56943,39909
56840,39806
56719,39725
56585,39669
56442,39641
56297,39641
56154,39669
56106,39689
56416,39379
56416,39379
56424,39371
56449,39381
56516,39394
56583,39394
56650,39381
56713,39355
56769,39317
56817,39269
56855,39213
56881,39150
56894,39083
56894,39016
56881,38949
56855,38886
56817,38830
56769,38782
56713,38744
56650,38718
56583,38705
56516,38705
56449,38718
56386,38744
56330,38782
56282,38830
56244,38886
56218,38949
56205,39016
56205,39083
56218,39150
56228,39175
56220,39183
56220,39183
55538,39865
55532,39870
55528,39875
55528,39875
55515,39891
55502,39915
55494,39941
55491,39968
51659,39968
51659,39152
51669,39054
51696,38963
51741,38878
51802,38804
51875,38743
51960,38698
52046,38671
52046,38671
52044,38676
52044,38677
52026,38748
52025,38754
52024,38759
52024,38760
52020,38833
52021,38839
52021,38844
52021,38845
52032,38918
52033,38923
52034,38928
52034,38929
52059,38998
52061,39003
52064,39008
52064,39009
52102,39072
52105,39077
52108,39081
52108,39082
52158,39136
52162,39140
52166,39144
52166,39144
52225,39188
52230,39191
52234,39194
52235,39194
52301,39226
52306,39228
52311,39230
52312,39230
52383,39249
52389,39249
52394,39250
52395,39250
52468,39255
52474,39254
52479,39254
52480,39254
52553,39244
52558,39243
52563,39242
52564,39241
52634,39217
52639,39215
52644,39213
52644,39212
52708,39175
52712,39172
52717,39169
52717,39168
52772,39120
52776,39116
52780,39112
52780,39111
52825,39053
52828,39048
52831,39043
52831,39043
52844,39016
54405,39016
54405,39083
54418,39150
54444,39213
54482,39269
54530,39317
54586,39355
54649,39381
54716,39394
54783,39394
54850,39381
54913,39355
54969,39317
55017,39269
55055,39213
55081,39150
55094,39083
55094,39016
55081,38949
55055,38886
55017,38830
54969,38782
54913,38744
54850,38718
54783,38705
54716,38705
54649,38718
54586,38744
54530,38782
54482,38830
54444,38886
54418,38949
54405,39016
52844,39016
52863,38977
52865,38971
52867,38966
52867,38966
52886,38895
52887,38889
52888,38884
52888,38883
52893,38810
52893,38804
52893,38799
52893,38798
52883,38725
52882,38720
52881,38714
52880,38714
52862,38659
57901,38659
57898,38666
" /> 
</g>
<g style="fill:#FFFFFF; fill-opacity:1.0; 
stroke:#FFFFFF; stroke-width:60; stroke-opacity:1; 
stroke-linecap:round; stroke-linejoin:round;">
</g>
<g style="fill:#FFFFFF; fill-opacity:1.0; 
stroke:#FFFFFF; stroke-width:0; stroke-opacity:1; 
stroke-linecap:round; stroke-linejoin:round;">
<circle cx="52650" cy="42400" r="78.7402" /> 
</g>
<g style="fill:#FFFFFF; fill-opacity:1.0; 
stroke:#FFFFFF; stroke-width:39.3701; stroke-opacity:1; 
stroke-linecap:round; stroke-linejoin:round;">
</g>
<g style="fill:#FFFFFF; fill-opacity:1.0; 
stroke:#FFFFFF; stroke-width:0; stroke-opacity:1; 
stroke-linecap:round; stroke-linejoin:round;">
<circle cx="52900" cy="44000" r="78.7402" /> 
</g>
<g style="fill:#FFFFFF; fill-opacity:1.0; 
stroke:#FFFFFF; stroke-width:39.3701; stroke-opacity:1; 
stroke-linecap:round; stroke-linejoin:round;">
</g>
<g style="fill:#FFFFFF; fill-opacity:1.0; 
stroke:#FFFFFF; stroke-width:0; stroke-opacity:1; 
stroke-linecap:round; stroke-linejoin:round;">
<circle cx="56120" cy="44380" r="118.11" /> 
</g>
<g style="fill:#FFFFFF; fill-opacity:1.0; 
stroke:#FFFFFF; stroke-width:39.3701; stroke-opacity:1; 
stroke-linecap:round; stroke-linejoin:round;">
</g>
<g style="fill:#FFFFFF; fill-opacity:1.0; 
stroke:#FFFFFF; stroke-width:0; stroke-opacity:1; 
stroke-linecap:round; stroke-linejoin:round;">
<circle cx="55620" cy="44380" r="118.11" /> 
</g>
<g style="fill:#FFFFFF; fill-opacity:1.0; 
stroke:#FFFFFF; stroke-width:39.3701; stroke-opacity:1; 
stroke-linecap:round; stroke-linejoin:round;">
</g>
<g style="fill:#FFFFFF; fill-opacity:1.0; 
stroke:#FFFFFF; stroke-width:0; stroke-opacity:1; 
stroke-linecap:round; stroke-linejoin:round;">
<circle cx="54620" cy="44380" r="118.11" /> 
</g>
<g style="fill:#FFFFFF; fill-opacity:1.0; 
stroke:#FFFFFF; stroke-width:39.3701; stroke-opacity:1; 
stroke-linecap:round; stroke-linejoin:round;">
</g>
<g style="fill:#FFFFFF; fill-opacity:1.0; 
stroke:#FFFFFF; stroke-width:0; stroke-opacity:1; 
stroke-linecap:round; stroke-linejoin:round;">
<circle cx="55120" cy="44380" r="118.11" /> 
</g>
<g style="fill:#FFFFFF; fill-opacity:1.0; 
stroke:#FFFFFF; stroke-width:39.3701; stroke-opacity:1; 
stroke-linecap:round; stroke-linejoin:round;">
</g>
<g style="fill:#FFFFFF; fill-opacity:1.0; 
stroke:#FFFFFF; stroke-width:0; stroke-opacity:1; 
stroke-linecap:round; stroke-linejoin:round;">
<circle cx="56370" cy="40380" r="590.551" /> 
</g>
<g style="fill:#FFFFFF; fill-opacity:1.0; 
stroke:#FFFFFF; stroke-width:39.3701; stroke-opacity:1; 
stroke-linecap:round; stroke-linejoin:round;">
</g>
<g style="fill:#FFFFFF; fill-opacity:1.0; 
stroke:#FFFFFF; stroke-width:0; stroke-opacity:1; 
stroke-linecap:round; stroke-linejoin:round;">
<circle cx="53870" cy="41380" r="590.551" /> 
</g>
<g style="fill:#FFFFFF; fill-opacity:1.0; 
stroke:#FFFFFF; stroke-width:39.3701; stroke-opacity:1; 
stroke-linecap:round; stroke-linejoin:round;">
</g>
<g style="fill:#FFFFFF; fill-opacity:1.0; 
stroke:#FFFFFF; stroke-width:0; stroke-opacity:1; 
stroke-linecap:round; stroke-linejoin:round;">
<circle cx="55370" cy="42380" r="787.401" /> 
</g>
<g style="fill:#FFFFFF; fill-opacity:1.0; 
stroke:#FFFFFF; stroke-width:39.3701; stroke-opacity:1; 
stroke-linecap:round; stroke-linejoin:round;">
</g>
<g style="fill:#FFFFFF; fill-opacity:1.0; 
stroke:#FFFFFF; stroke-width:0; stroke-opacity:1; 
stroke-linecap:round; stroke-linejoin:round;">
<circle cx="53370" cy="42380" r="334.645" /> 
</g>
<g style="fill:#FFFFFF; fill-opacity:1.0; 
stroke:#FFFFFF; stroke-width:39.3701; stroke-opacity:1; 
stroke-linecap:round; stroke-linejoin:round;">
</g>
<g style="fill:#FFFFFF; fill-opacity:1.0; 
stroke:#FFFFFF; stroke-width:0; stroke-opacity:1; 
stroke-linecap:round; stroke-linejoin:round;">
<circle cx="57370" cy="42380" r="334.645" /> 
</g>
<g style="fill:#FFFFFF; fill-opacity:1.0; 
stroke:#FFFFFF; stroke-width:39.3701; stroke-opacity:1; 
stroke-linecap:round; stroke-linejoin:round;">
</g>
<g style="fill:#FFFFFF; fill-opacity:1.0; 
stroke:#FFFFFF; stroke-width:0; stroke-opacity:1; 
stroke-linecap:round; stroke-linejoin:round;">
<circle cx="56550" cy="45700" r="196.85" /> 
</g>
<g style="fill:#FFFFFF; fill-opacity:1.0; 
stroke:#FFFFFF; stroke-width:39.3701; stroke-opacity:1; 
stroke-linecap:round; stroke-linejoin:round;">
</g>
<g style="fill:#FFFFFF; fill-opacity:1.0; 
stroke:#FFFFFF; stroke-width:0; stroke-opacity:1; 
stroke-linecap:round; stroke-linejoin:round;">
<circle cx="58700" cy="44400" r="196.85" /> 
</g>
<g style="fill:#FFFFFF; fill-opacity:1.0; 
stroke:#FFFFFF; stroke-width:39.3701; stroke-opacity:1; 
stroke-linecap:round; stroke-linejoin:round;">
</g>
<g style="fill:#FFFFFF; fill-opacity:1.0; 
stroke:#FFFFFF; stroke-width:0; stroke-opacity:1; 
stroke-linecap:round; stroke-linejoin:round;">
<circle cx="52050" cy="42400" r="196.85" /> 
</g>
<g style="fill:#FFFFFF; fill-opacity:1.0; 
stroke:#FFFFFF; stroke-width:39.3701; stroke-opacity:1; 
stroke-linecap:round; stroke-linejoin:round;">
</g>
<g style="fill:#FFFFFF; fill-opacity:1.0; 
stroke:#FFFFFF; stroke-width:0; stroke-opacity:1; 
stroke-linecap:round; stroke-linejoin:round;">
<circle cx="58700" cy="40350" r="196.85" /> 
</g>
<g style="fill:#FFFFFF; fill-opacity:1.0; 
stroke:#FFFFFF; stroke-width:39.3701; stroke-opacity:1; 
stroke-linecap:round; stroke-linejoin:round;">
</g>
<g style="fill:#FFFFFF; fill-opacity:1.0; 
stroke:#FFFFFF; stroke-width:0; stroke-opacity:1; 
stroke-linecap:round; stroke-linejoin:round;">
<circle cx="54750" cy="39050" r="196.85" /> 
</g>
<g style="fill:#FFFFFF; fill-opacity:1.0; 
stroke:#FFFFFF; stroke-width:39.3701; stroke-opacity:1; 
stroke-linecap:round; stroke-linejoin:round;">
</g>
<g style="fill:#FFFFFF; fill-opacity:1.0; 
stroke:#FFFFFF; stroke-width:0; stroke-opacity:1; 
stroke-linecap:round; stroke-linejoin:round;">
<circle cx="54750" cy="45700" r="196.85" /> 
</g>
<g style="fill:#FFFFFF; fill-opacity:1.0; 
stroke:#FFFFFF; stroke-width:39.3701; stroke-opacity:1; 
stroke-linecap:round; stroke-linejoin:round;">
</g>
<g style="fill:#FFFFFF; fill-opacity:1.0; 
stroke:#FFFFFF; stroke-width:0; stroke-opacity:1; 
stroke-linecap:round; stroke-linejoin:round;">
<circle cx="52050" cy="44400" r="196.85" /> 
</g>
<g style="fill:#FFFFFF; fill-opacity:1.0; 
stroke:#FFFFFF; stroke-width:39.3701; stroke-opacity:1; 
stroke-linecap:round; stroke-linejoin:round;">
</g>
<g style="fill:#FFFFFF; fill-opacity:1.0; 
stroke:#FFFFFF; stroke-width:0; stroke-opacity:1; 
stroke-linecap:round; stroke-linejoin:round;">
<circle cx="52050" cy="40350" r="196.85" /> 
</g>
<g style="fill:#FFFFFF; fill-opacity:1.0; 
stroke:#FFFFFF; stroke-width:39.3701; stroke-opacity:1; 
stroke-linecap:round; stroke-linejoin:round;">
</g>
<g style="fill:#FFFFFF; fill-opacity:1.0; 
stroke:#FFFFFF; stroke-width:0; stroke-opacity:1; 
stroke-linecap:round; stroke-linejoin:round;">
<circle cx="56550" cy="39050" r="196.85" /> 
</g>
<g style="fill:#FFFFFF; fill-opacity:1.0; 
stroke:#FFFFFF; stroke-width:39.3701; stroke-opacity:1; 
stroke-linecap:round; stroke-linejoin:round;">
</g>
<g style="fill:#FFFFFF; fill-opacity:1.0; 
stroke:#FFFFFF; stroke-width:0; stroke-opacity:1; 
stroke-linecap:round; stroke-linejoin:round;">
<circle cx="58700" cy="42400" r="196.85" /> 
</g>
<g style="fill:#FFFFFF; fill-opacity:1.0; 
stroke:#FFFFFF; stroke-width:39.3701; stroke-opacity:1; 
stroke-linecap:round; stroke-linejoin:round;">
</g>
<g style="fill:#000000; fill-opacity:1.0; 
stroke:#000000; stroke-width:39.3701; stroke-opacity:1; 
stroke-linecap:round; stroke-linejoin:round;">
</g>
<g style="fill:#C2C200; fill-opacity:1.0; 
stroke:#C2C200; stroke-width:39.3701; stroke-opacity:1; 
stroke-linecap:round; stroke-linejoin:round;">
</g>
<g style="fill:#C2C200; fill-opacity:0.0; 
stroke:#C2C200; stroke-width:59.0551; stroke-opacity:1; 
stroke-linecap:round; stroke-linejoin:round;">
<path d="M52150 38600 A377.119 377.119 0.0 1 0 52764 38599.8 " />
<path d="M58000 38600 A377.119 377.119 0.0 1 0 58614 38599.8 " />
<path d="M52764 38600
L58000 38600
" />
<path d="M51600 45400
L51600 39150
" />
<path d="M58400 46150
L52350 46150
" />
<path d="M59150 39150
L59150 45400
" />
<path d="M59150 39150 A550 550 0.0 0 0 58614 38600.2 " />
<path d="M59150 45400 A750 750 0.0 0 0 58400 46150 " />
<path d="M52350 46150 A750 750 0.0 0 0 51600 45400 " />
<path d="M52150 38600 A550 550 0.0 0 0 51600 39150 " />
</g> 
</svg>
