<?xml version="1.0" standalone="no"?>
 <!DOCTYPE svg PUBLIC "-//W3C//DTD SVG 1.1//EN" 
 "http://www.w3.org/Graphics/SVG/1.1/DTD/svg11.dtd"> 
<svg xmlns="http://www.w3.org/2000/svg" version="1.1" 
    width="2.0447cm" height="2.0447cm" viewBox="0 0 8050 8050 ">
<title>SVG Picture created as WoodElf_02-F.SilkS.svg date 2019/05/12 14:16:08 </title>
  <desc>Picture generated by PCBNEW </desc>
<g style="fill:#000000; fill-opacity:1;stroke:#000000; stroke-opacity:1;
stroke-linecap:round; stroke-linejoin:round; "
 transform="translate(0 0) scale(1 1)">
</g>
<g style="fill:#000000; fill-opacity:0.0; 
stroke:#000000; stroke-width:-0.000393701; stroke-opacity:1; 
stroke-linecap:round; stroke-linejoin:round;">
</g>
<g style="fill:#008484; fill-opacity:0.0; 
stroke:#008484; stroke-width:-0.000393701; stroke-opacity:1; 
stroke-linecap:round; stroke-linejoin:round;">
</g>
<g style="fill:#008484; fill-opacity:0.0; 
stroke:#008484; stroke-width:59.0551; stroke-opacity:1; 
stroke-linecap:round; stroke-linejoin:round;">
<path d="M798 7697
L2500 7698
" />
<path d="M588.937 358.937 A230 230 0.0 0 0 358.937 588.937 " />
<path d="M7428.94 5403.94 A725 725 0.0 0 0 6928.94 5603.94 " />
<path d="M6916.28 6641.59 A725 725 0.0 0 0 7428.94 6853.94 " />
<path d="M4328.94 7428.94 A725 725 0.0 0 0 4128.94 6928.94 " />
<path d="M3078.94 6928.94 A725 725 0.0 0 0 2878.94 7428.94 " />
<path d="M628.937 2003.94 A725 725 0.0 0 0 1141.59 1791.59 " />
<path d="M1352.22 1229.06 A725 725 0.0 0 0 628.937 553.937 " />
<path d="M5403.94 628.937 A725 725 0.0 0 0 5603.94 1128.94 " />
<path d="M6641.59 1141.59 A725 725 0.0 0 0 6853.94 628.937 " />
<path d="M7253.94 7697.94 A444 444 0.0 0 0 7697.94 7253.94 " />
<path d="M7697 7255
L7698 7227
" />
<path d="M7253 7697
L4698 7698
" />
<path d="M359.937 7253.94 A444 444 0.0 0 0 803.937 7697.94 " />
<path d="M359 7253
L358 3027
" />
<path d="M588 358
L5029 358
" />
<path d="M7255 359
L7227 358
" />
<path d="M7697 803
L7698 5029
" />
<path d="M7697.94 803.937 A444 444 0.0 0 0 7253.94 359.937 " />
</g>
<g style="fill:#008484; fill-opacity:0.0; 
stroke:#008484; stroke-width:49.2126; stroke-opacity:1; 
stroke-linecap:round; stroke-linejoin:round;">
<path d="M1729 1573
L1842 1573
" />
<path d="M1785 1770
L1785 1573
" />
<path d="M1907 1770
L1907 1639
" />
<path d="M1907 1573
L1898 1583
L1907 1592
L1917 1583
L1907 1573
L1907 1592
" />
<path d="M2076 1761
L2057 1770
L2020 1770
L2001 1761
L1992 1742
L1992 1667
L2001 1648
L2020 1639
L2057 1639
L2076 1648
L2085 1667
L2085 1686
L1992 1705
" />
<path d="M2142 1639
L2217 1639
" />
<path d="M2170 1770
L2170 1602
L2179 1583
L2198 1573
L2217 1573
" />
<path d="M2310 1770
L2292 1761
L2282 1742
L2282 1573
" />
<path d="M2385 1770
L2385 1639
" />
<path d="M2385 1573
L2376 1583
L2385 1592
L2395 1583
L2385 1573
L2385 1592
" />
<path d="M2479 1639
L2479 1770
" />
<path d="M2479 1658
L2488 1648
L2507 1639
L2535 1639
L2554 1648
L2563 1667
L2563 1770
" />
<path d="M2742 1639
L2742 1798
L2732 1817
L2723 1826
L2704 1836
L2676 1836
L2657 1826
" />
<path d="M2742 1761
L2723 1770
L2685 1770
L2667 1761
L2657 1751
L2648 1733
L2648 1677
L2657 1658
L2667 1648
L2685 1639
L2723 1639
L2742 1648
" />
<path d="M3088 1770
L2976 1770
" />
<path d="M3032 1770
L3032 1573
L3013 1602
L2995 1620
L2976 1630
" />
<path d="M3173 1751
L3182 1761
L3173 1770
L3163 1761
L3173 1751
L3173 1770
" />
<path d="M3360 1573
L3266 1573
L3257 1667
L3266 1658
L3285 1648
L3332 1648
L3351 1658
L3360 1667
L3370 1686
L3370 1733
L3360 1751
L3351 1761
L3332 1770
L3285 1770
L3266 1761
L3257 1751
" />
<path d="M3613 1573
L3595 1611
" />
<path d="M3801 1770
L3688 1770
" />
<path d="M3745 1770
L3745 1573
L3726 1602
L3707 1620
L3688 1630
" />
<path d="M3895 1770
L3932 1770
L3951 1761
L3960 1751
L3979 1723
L3988 1686
L3988 1611
L3979 1592
L3970 1583
L3951 1573
L3913 1573
L3895 1583
L3885 1592
L3876 1611
L3876 1658
L3885 1677
L3895 1686
L3913 1695
L3951 1695
L3970 1686
L3979 1677
L3988 1658
" />
<path d="M1757 2115
L1757 1918
" />
<path d="M1757 2012
L1870 2012
" />
<path d="M1870 2115
L1870 1918
" />
<path d="M2048 2115
L2048 2012
L2039 1993
L2020 1983
L1982 1983
L1964 1993
" />
<path d="M2048 2105
L2029 2115
L1982 2115
L1964 2105
L1954 2087
L1954 2068
L1964 2049
L1982 2040
L2029 2040
L2048 2030
" />
<path d="M2142 1983
L2142 2115
" />
<path d="M2142 2002
L2151 1993
L2170 1983
L2198 1983
L2217 1993
L2226 2012
L2226 2115
" />
<path d="M2320 1983
L2320 2115
" />
<path d="M2320 2002
L2329 1993
L2348 1983
L2376 1983
L2395 1993
L2404 2012
L2404 2115
" />
<path d="M2582 2115
L2582 2012
L2573 1993
L2554 1983
L2517 1983
L2498 1993
" />
<path d="M2582 2105
L2563 2115
L2517 2115
L2498 2105
L2488 2087
L2488 2068
L2498 2049
L2517 2040
L2563 2040
L2582 2030
" />
<path d="M2676 2115
L2676 1918
" />
<path d="M2760 2115
L2760 2012
L2751 1993
L2732 1983
L2704 1983
L2685 1993
L2676 2002
" />
<path d="M3107 1927
L3088 1918
L3060 1918
L3032 1927
L3013 1946
L3004 1965
L2995 2002
L2995 2030
L3004 2068
L3013 2087
L3032 2105
L3060 2115
L3079 2115
L3107 2105
L3116 2096
L3116 2030
L3079 2030
" />
<path d="M3201 2115
L3201 1983
" />
<path d="M3201 2021
L3210 2002
L3220 1993
L3238 1983
L3257 1983
" />
<path d="M3407 2115
L3407 2012
L3398 1993
L3379 1983
L3341 1983
L3323 1993
" />
<path d="M3407 2105
L3388 2115
L3341 2115
L3323 2105
L3313 2087
L3313 2068
L3323 2049
L3341 2040
L3388 2040
L3407 2030
" />
<path d="M3585 2105
L3566 2115
L3529 2115
L3510 2105
L3501 2096
L3491 2077
L3491 2021
L3501 2002
L3510 1993
L3529 1983
L3566 1983
L3585 1993
" />
<path d="M3745 2105
L3726 2115
L3688 2115
L3670 2105
L3660 2087
L3660 2012
L3670 1993
L3688 1983
L3726 1983
L3745 1993
L3754 2012
L3754 2030
L3660 2049
" />
</g>
<g style="fill:#008484; fill-opacity:0.0; 
stroke:#008484; stroke-width:59.0551; stroke-opacity:1; 
stroke-linecap:round; stroke-linejoin:round;">
<path d="M1528 1278
L6528 1278
" />
<path d="M6778 1528
L6778 6528
" />
<path d="M6528 6778
L1528 6778
" />
<path d="M1278 6528
L1278 1528
" />
<path d="M6528.94 1278.94 A763.217 763.217 0.0 0 0 6778.94 1528.94 " />
<path d="M6778.94 6528.94 A763.217 763.217 0.0 0 0 6528.94 6778.94 " />
<path d="M1528.94 6778.94 A763.217 763.217 0.0 0 0 1278.94 6528.94 " />
<path d="M1278.94 1528.94 A763.217 763.217 0.0 0 0 1528.94 1278.94 " />
<path d="M358 2378
L358 1968
" />
<path d="M358.937 588.937 A270 270 0.0 0 0 628.937 858.937 " />
<path d="M628.937 1698.94 A270 270 0.0 0 0 358.937 1968.94 " />
<path d="M628.937 1698.94 A420 420 0.0 0 0 628.937 858.937 " />
</g>
<g style="fill:#008484; fill-opacity:1.0; 
stroke:#008484; stroke-width:3.93701; stroke-opacity:1; 
stroke-linecap:round; stroke-linejoin:round;">
<polyline style="fill-rule:evenodd;"
points="2827,4515
2838,4523
2842,4527
2845,4531
2846,4537
2848,4545
2849,4557
2850,4575
2850,4578
2851,4602
2851,4630
2850,4658
2849,4684
2847,4708
2845,4725
2844,4735
2843,4741
2843,4743
2847,4742
2855,4739
2865,4735
2866,4735
2884,4725
2900,4713
2903,4711
2914,4699
2929,4683
2945,4663
2964,4641
2982,4617
2999,4594
3012,4578
3022,4566
3031,4558
3037,4553
3044,4551
3050,4550
3064,4553
3075,4562
3083,4576
3087,4595
3088,4614
3085,4668
3076,4722
3062,4774
3042,4824
3042,4825
3018,4869
2988,4910
2952,4949
2910,4986
2861,5021
2833,5039
2812,5050
2786,5064
2755,5080
2718,5098
2678,5118
2633,5138
2591,5158
2554,5176
2522,5193
2493,5208
2467,5223
2444,5237
2422,5252
2400,5267
2397,5270
2373,5289
2353,5306
2337,5323
2323,5340
2310,5359
2297,5382
2297,5383
2281,5412
2265,5435
2251,5453
2235,5465
2219,5474
2202,5478
2197,5479
2186,5480
2179,5479
2173,5475
2169,5471
2161,5459
2159,5447
2163,5436
2172,5426
2186,5418
2190,5417
2198,5414
2205,5410
2212,5403
2219,5393
2228,5379
2238,5361
2246,5345
2254,5329
2262,5316
2269,5305
2278,5295
2289,5283
2302,5270
2322,5250
2344,5232
2366,5214
2391,5197
2417,5179
2447,5162
2481,5143
2519,5124
2561,5103
2610,5080
2617,5077
2667,5053
2712,5031
2751,5011
2785,4993
2816,4975
2843,4958
2866,4941
2887,4924
2906,4907
2923,4889
2937,4873
2957,4846
2974,4820
2988,4792
2994,4779
2998,4766
3003,4750
3009,4732
3014,4714
3018,4698
3021,4684
3022,4675
3022,4674
3020,4675
3014,4680
3006,4689
2996,4701
2989,4709
2976,4724
2963,4739
2952,4752
2942,4761
2940,4763
2930,4771
2919,4779
2906,4786
2891,4793
2873,4799
2852,4806
2827,4814
2798,4821
2764,4829
2725,4838
2681,4847
2631,4858
2618,4860
2561,4872
2509,4884
2463,4894
2422,4904
2384,4914
2351,4925
2320,4935
2291,4945
2264,4956
2238,4968
2237,4968
2194,4990
2158,5013
2128,5037
2104,5063
2085,5091
2071,5121
2070,5124
2067,5134
2065,5148
2062,5164
2062,5168
2060,5183
2059,5192
2056,5199
2053,5204
2049,5207
2036,5215
2024,5216
2011,5211
2010,5210
2003,5203
1999,5195
1997,5184
1998,5170
1999,5159
2005,5123
2015,5091
2019,5080
2036,5050
2058,5021
2085,4993
2115,4967
2137,4952
2166,4933
2150,4926
2125,4918
2095,4913
2061,4910
2026,4909
1990,4911
1972,4913
1921,4923
1871,4937
1822,4955
1776,4977
1733,5002
1695,5030
1665,5057
1640,5085
1620,5114
1607,5143
1599,5174
1597,5188
1595,5202
1592,5211
1588,5218
1585,5221
1573,5228
1560,5230
1547,5225
1543,5222
1538,5217
1535,5212
1534,5205
1534,5194
1534,5190
1537,5163
1543,5136
1554,5107
1560,5095
1582,5059
1610,5024
1643,4991
1682,4961
1725,4933
1772,4909
1823,4887
1878,4870
1935,4856
1940,4854
1953,4852
1967,4851
1984,4849
2004,4849
2029,4849
2040,4849
2065,4849
2085,4849
2102,4850
2118,4852
2133,4855
2150,4860
2169,4866
2193,4874
2209,4880
2249,4894
2291,4878
2308,4872
2322,4866
2332,4860
2337,4857
2338,4857
2345,4849
2355,4840
2370,4830
2390,4819
2413,4807
2566,4807
2566,4807
2570,4806
2579,4804
2593,4801
2610,4798
2631,4794
2639,4792
2670,4785
2696,4780
2716,4776
2731,4772
2743,4769
2751,4767
2757,4765
2761,4763
2764,4760
2767,4758
2768,4756
2775,4743
2781,4725
2785,4701
2786,4690
2788,4669
2778,4679
2761,4694
2742,4708
2720,4723
2694,4738
2664,4755
2629,4774
2622,4777
2605,4786
2589,4794
2577,4800
2569,4805
2566,4807
2413,4807
2414,4806
2444,4791
2480,4775
2493,4768
2526,4753
2558,4738
2589,4723
2617,4708
2643,4695
2664,4683
2681,4673
2684,4671
2713,4651
2737,4630
2757,4609
2772,4589
2781,4570
2785,4552
2785,4551
2788,4536
2794,4524
2804,4516
2815,4513
2827,4515
" /> 
<polyline style="fill-rule:evenodd;"
points="1610,5365
1619,5371
1621,5372
1625,5377
1627,5381
1628,5388
1628,5398
1628,5408
1625,5427
1621,5447
1613,5469
1603,5495
1589,5524
1579,5544
1569,5563
1563,5577
1558,5588
1555,5596
1554,5604
1553,5611
1553,5613
1554,5625
1556,5634
1561,5642
1566,5648
1575,5661
1578,5672
1577,5683
1574,5690
1565,5700
1553,5705
1540,5705
1531,5702
1523,5695
1514,5684
1505,5670
1497,5656
1493,5645
1490,5629
1488,5614
1490,5598
1495,5580
1502,5559
1514,5534
1522,5518
1536,5489
1548,5465
1556,5444
1562,5426
1566,5409
1567,5400
1570,5383
1576,5372
1586,5365
1598,5363
1610,5365
" /> 
<polyline style="fill-rule:evenodd;"
points="2197,5726
2207,5734
2213,5746
2215,5755
2213,5766
2206,5776
2198,5784
2189,5787
2189,5787
2183,5788
2173,5792
2160,5798
2143,5807
2122,5819
2095,5834
2064,5853
2061,5855
2016,5882
1976,5905
1940,5925
1908,5942
1879,5957
1854,5969
1830,5979
1808,5987
1787,5993
1767,5998
1748,6001
1727,6003
1707,6003
1689,6001
1680,5999
1656,5988
1635,5972
1619,5950
1607,5925
1600,5895
1597,5869
1597,5856
1599,5848
1602,5842
1605,5839
1616,5830
1629,5828
1640,5831
1648,5836
1653,5841
1656,5849
1659,5862
1660,5872
1664,5894
1670,5913
1679,5927
1689,5935
1706,5939
1728,5940
1753,5936
1782,5929
1813,5918
1829,5912
1845,5904
1867,5893
1891,5880
1918,5866
1945,5850
1972,5834
1998,5819
2002,5817
2039,5794
2072,5775
2100,5759
2123,5746
2143,5737
2159,5730
2172,5725
2182,5724
2185,5723
2197,5726
" /> 
</g>
<g style="fill:#008484; fill-opacity:1.0; 
stroke:#008484; stroke-width:59.0551; stroke-opacity:1; 
stroke-linecap:round; stroke-linejoin:round;">
</g>
<g style="fill:#008484; fill-opacity:0.0; 
stroke:#008484; stroke-width:59.0551; stroke-opacity:1; 
stroke-linecap:round; stroke-linejoin:round;">
<path d="M5028 358
L5438 358
" />
<path d="M6818 358
L7228 358
" />
<path d="M6818.94 358.937 A270 270 0.0 0 0 6548.94 628.937 " />
<path d="M5708.94 628.937 A270 270 0.0 0 0 5438.94 358.937 " />
<path d="M5708.94 628.937 A420 420 0.0 0 0 6548.94 628.937 " />
<path d="M7698 5028
L7698 5438
" />
<path d="M7698 6818
L7698 7228
" />
<path d="M7698.94 6818.94 A270 270 0.0 0 0 7428.94 6548.94 " />
<path d="M7428.94 5708.94 A270 270 0.0 0 0 7698.94 5438.94 " />
<path d="M7428.94 5708.94 A420 420 0.0 0 0 7428.94 6548.94 " />
<path d="M4703 7698
L4293 7698
" />
<path d="M2913 7698
L2503 7698
" />
<path d="M2913.94 7698.94 A270 270 0.0 0 0 3183.94 7428.94 " />
<path d="M4023.94 7428.94 A270 270 0.0 0 0 4293.94 7698.94 " />
<path d="M4023.94 7428.94 A420 420 0.0 0 0 3183.94 7428.94 " />
</g>
<g style="fill:#000000; fill-opacity:0.0; 
stroke:#000000; stroke-width:59.0551; stroke-opacity:1; 
stroke-linecap:round; stroke-linejoin:round;">
</g>
<g style="fill:#C2C200; fill-opacity:0.0; 
stroke:#C2C200; stroke-width:59.0551; stroke-opacity:1; 
stroke-linecap:round; stroke-linejoin:round;">
<path d="M253.937 588.937 A375 375 0.0 0 0 628.937 963.937 " />
<path d="M628.937 1593.94 A315 315 0.0 0 0 628.937 963.937 " />
<path d="M628.937 1593.94 A375 375 0.0 0 0 254.071 1978.93 " />
<path d="M2913.94 7803.94 A375 375 0.0 0 0 3288.94 7428.94 " />
<path d="M3918.94 7428.94 A375 375 0.0 0 0 4293.94 7803.94 " />
<path d="M3918.94 7428.94 A315 315 0.0 0 0 3288.94 7428.94 " />
<path d="M7803.94 6818.94 A375 375 0.0 0 0 7428.94 6443.94 " />
<path d="M7428.94 5813.94 A315 315 0.0 0 0 7428.94 6443.94 " />
<path d="M7428.94 5813.94 A375 375 0.0 0 0 7803.94 5438.94 " />
<path d="M7803 803
L7803 5438
" />
<path d="M2913 7803
L803 7803
" />
<path d="M5438 253
L578 253
" />
<path d="M5813.94 628.937 A375 375 0.0 0 0 5438.94 253.937 " />
<path d="M6818.94 253.937 A375 375 0.0 0 0 6443.94 628.937 " />
<path d="M5813.94 628.937 A315 315 0.0 0 0 6443.94 628.937 " />
<path d="M253.937 7253.94 A550 550 0.0 0 0 803.937 7803.94 " />
<path d="M7253.94 7803.94 A550 550 0.0 0 0 7803.94 7253.94 " />
<path d="M6818 253
L7253 253
" />
<path d="M253 7253
L253 1978
" />
<path d="M7253 7803
L4293 7803
" />
<path d="M7803 6818
L7803 7253
" />
<path d="M7803.94 803.937 A550 550 0.0 0 0 7253.94 253.937 " />
<path d="M578.937 253.937 A325 325 0.0 0 0 253.937 578.937 " />
</g> 
</svg>
