<?xml version="1.0" standalone="no"?>
 <!DOCTYPE svg PUBLIC "-//W3C//DTD SVG 1.1//EN" 
 "http://www.w3.org/Graphics/SVG/1.1/DTD/svg11.dtd"> 
<svg xmlns="http://www.w3.org/2000/svg" version="1.1" 
    width="29.7002cm" height="21.0007cm" viewBox="0 0 116930 82680 ">
<title>SVG Picture created as WoodElf_02-B.SilkS.svg date 2019/04/20 17:28:01 </title>
  <desc>Picture generated by PCBNEW </desc>
<g style="fill:#000000; fill-opacity:1;stroke:#000000; stroke-opacity:1;
stroke-linecap:round; stroke-linejoin:round; "
 transform="translate(0 0) scale(1 1)">
</g>
<g style="fill:#000000; fill-opacity:0.0; 
stroke:#000000; stroke-width:-0.000393701; stroke-opacity:1; 
stroke-linecap:round; stroke-linejoin:round;">
</g>
<g style="fill:#000000; fill-opacity:0.0; 
stroke:#000000; stroke-width:39.3701; stroke-opacity:1; 
stroke-linecap:round; stroke-linejoin:round;">
</g>
<g style="fill:#000000; fill-opacity:0.0; 
stroke:#000000; stroke-width:59.0551; stroke-opacity:1; 
stroke-linecap:round; stroke-linejoin:round;">
<rect x="69685.9" y="65357.2" width="42519.7" height="12598.4" rx="0" />
</g>
<g style="fill:#000000; fill-opacity:0.0; 
stroke:#000000; stroke-width:39.3701; stroke-opacity:1; 
stroke-linecap:round; stroke-linejoin:round;">
</g>
<g style="fill:#000000; fill-opacity:0.0; 
stroke:#000000; stroke-width:59.0551; stroke-opacity:1; 
stroke-linecap:round; stroke-linejoin:round;">
<rect x="3937.01" y="3937.01" width="109056" height="74806" rx="0" />
</g>
<g style="fill:#000000; fill-opacity:0.0; 
stroke:#000000; stroke-width:39.3701; stroke-opacity:1; 
stroke-linecap:round; stroke-linejoin:round;">
</g>
<g style="fill:#000000; fill-opacity:0.0; 
stroke:#000000; stroke-width:59.0551; stroke-opacity:1; 
stroke-linecap:round; stroke-linejoin:round;">
<rect x="4724.41" y="4724.41" width="107481" height="73231.2" rx="0" />
</g>
<g style="fill:#000000; fill-opacity:0.0; 
stroke:#000000; stroke-width:39.3701; stroke-opacity:1; 
stroke-linecap:round; stroke-linejoin:round;">
</g>
<g style="fill:#000000; fill-opacity:0.0; 
stroke:#000000; stroke-width:59.0551; stroke-opacity:1; 
stroke-linecap:round; stroke-linejoin:round;">
<path d="M23622 4724
L23622 3937
" />
</g>
<g style="fill:#000000; fill-opacity:0.0; 
stroke:#000000; stroke-width:39.3701; stroke-opacity:1; 
stroke-linecap:round; stroke-linejoin:round;">
</g>
<g style="fill:#000000; fill-opacity:0.0; 
stroke:#000000; stroke-width:59.0551; stroke-opacity:1; 
stroke-linecap:round; stroke-linejoin:round;">
<path d="M43307 4724
L43307 3937
" />
</g>
<g style="fill:#000000; fill-opacity:0.0; 
stroke:#000000; stroke-width:39.3701; stroke-opacity:1; 
stroke-linecap:round; stroke-linejoin:round;">
</g>
<g style="fill:#000000; fill-opacity:0.0; 
stroke:#000000; stroke-width:59.0551; stroke-opacity:1; 
stroke-linecap:round; stroke-linejoin:round;">
<path d="M62992 4724
L62992 3937
" />
</g>
<g style="fill:#000000; fill-opacity:0.0; 
stroke:#000000; stroke-width:39.3701; stroke-opacity:1; 
stroke-linecap:round; stroke-linejoin:round;">
</g>
<g style="fill:#000000; fill-opacity:0.0; 
stroke:#000000; stroke-width:59.0551; stroke-opacity:1; 
stroke-linecap:round; stroke-linejoin:round;">
<path d="M82677 4724
L82677 3937
" />
</g>
<g style="fill:#000000; fill-opacity:0.0; 
stroke:#000000; stroke-width:39.3701; stroke-opacity:1; 
stroke-linecap:round; stroke-linejoin:round;">
</g>
<g style="fill:#000000; fill-opacity:0.0; 
stroke:#000000; stroke-width:59.0551; stroke-opacity:1; 
stroke-linecap:round; stroke-linejoin:round;">
<path d="M102362 4724
L102362 3937
" />
</g>
<g style="fill:#000000; fill-opacity:0.0; 
stroke:#000000; stroke-width:39.3701; stroke-opacity:1; 
stroke-linecap:round; stroke-linejoin:round;">
</g>
<g style="fill:#000000; fill-opacity:0.0; 
stroke:#000000; stroke-width:59.0551; stroke-opacity:1; 
stroke-linecap:round; stroke-linejoin:round;">
<path d="M14199 4562
L13906 4562
" />
<path d="M14052 4562
L14052 4050
L14004 4123
L13955 4172
L13906 4196
" />
</g>
<g style="fill:#000000; fill-opacity:0.0; 
stroke:#000000; stroke-width:39.3701; stroke-opacity:1; 
stroke-linecap:round; stroke-linejoin:round;">
</g>
<g style="fill:#000000; fill-opacity:0.0; 
stroke:#000000; stroke-width:59.0551; stroke-opacity:1; 
stroke-linecap:round; stroke-linejoin:round;">
<path d="M33591 4099
L33615 4074
L33664 4050
L33786 4050
L33835 4074
L33859 4099
L33884 4147
L33884 4196
L33859 4269
L33567 4562
L33884 4562
" />
</g>
<g style="fill:#000000; fill-opacity:0.0; 
stroke:#000000; stroke-width:39.3701; stroke-opacity:1; 
stroke-linecap:round; stroke-linejoin:round;">
</g>
<g style="fill:#000000; fill-opacity:0.0; 
stroke:#000000; stroke-width:59.0551; stroke-opacity:1; 
stroke-linecap:round; stroke-linejoin:round;">
<path d="M53252 4050
L53569 4050
L53398 4245
L53471 4245
L53520 4269
L53544 4294
L53569 4342
L53569 4464
L53544 4513
L53520 4537
L53471 4562
L53325 4562
L53276 4537
L53252 4513
" />
</g>
<g style="fill:#000000; fill-opacity:0.0; 
stroke:#000000; stroke-width:39.3701; stroke-opacity:1; 
stroke-linecap:round; stroke-linejoin:round;">
</g>
<g style="fill:#000000; fill-opacity:0.0; 
stroke:#000000; stroke-width:59.0551; stroke-opacity:1; 
stroke-linecap:round; stroke-linejoin:round;">
<path d="M73205 4221
L73205 4562
" />
<path d="M73083 4026
L72961 4391
L73278 4391
" />
</g>
<g style="fill:#000000; fill-opacity:0.0; 
stroke:#000000; stroke-width:39.3701; stroke-opacity:1; 
stroke-linecap:round; stroke-linejoin:round;">
</g>
<g style="fill:#000000; fill-opacity:0.0; 
stroke:#000000; stroke-width:59.0551; stroke-opacity:1; 
stroke-linecap:round; stroke-linejoin:round;">
<path d="M92914 4050
L92671 4050
L92646 4294
L92671 4269
L92719 4245
L92841 4245
L92890 4269
L92914 4294
L92939 4342
L92939 4464
L92914 4513
L92890 4537
L92841 4562
L92719 4562
L92671 4537
L92646 4513
" />
</g>
<g style="fill:#000000; fill-opacity:0.0; 
stroke:#000000; stroke-width:39.3701; stroke-opacity:1; 
stroke-linecap:round; stroke-linejoin:round;">
</g>
<g style="fill:#000000; fill-opacity:0.0; 
stroke:#000000; stroke-width:59.0551; stroke-opacity:1; 
stroke-linecap:round; stroke-linejoin:round;">
<path d="M112575 4050
L112477 4050
L112429 4074
L112404 4099
L112356 4172
L112331 4269
L112331 4464
L112356 4513
L112380 4537
L112429 4562
L112526 4562
L112575 4537
L112599 4513
L112624 4464
L112624 4342
L112599 4294
L112575 4269
L112526 4245
L112429 4245
L112380 4269
L112356 4294
L112331 4342
" />
</g>
<g style="fill:#000000; fill-opacity:0.0; 
stroke:#000000; stroke-width:39.3701; stroke-opacity:1; 
stroke-linecap:round; stroke-linejoin:round;">
</g>
<g style="fill:#000000; fill-opacity:0.0; 
stroke:#000000; stroke-width:59.0551; stroke-opacity:1; 
stroke-linecap:round; stroke-linejoin:round;">
<path d="M23622 77955
L23622 78742
" />
</g>
<g style="fill:#000000; fill-opacity:0.0; 
stroke:#000000; stroke-width:39.3701; stroke-opacity:1; 
stroke-linecap:round; stroke-linejoin:round;">
</g>
<g style="fill:#000000; fill-opacity:0.0; 
stroke:#000000; stroke-width:59.0551; stroke-opacity:1; 
stroke-linecap:round; stroke-linejoin:round;">
<path d="M43307 77955
L43307 78742
" />
</g>
<g style="fill:#000000; fill-opacity:0.0; 
stroke:#000000; stroke-width:39.3701; stroke-opacity:1; 
stroke-linecap:round; stroke-linejoin:round;">
</g>
<g style="fill:#000000; fill-opacity:0.0; 
stroke:#000000; stroke-width:59.0551; stroke-opacity:1; 
stroke-linecap:round; stroke-linejoin:round;">
<path d="M62992 77955
L62992 78742
" />
</g>
<g style="fill:#000000; fill-opacity:0.0; 
stroke:#000000; stroke-width:39.3701; stroke-opacity:1; 
stroke-linecap:round; stroke-linejoin:round;">
</g>
<g style="fill:#000000; fill-opacity:0.0; 
stroke:#000000; stroke-width:59.0551; stroke-opacity:1; 
stroke-linecap:round; stroke-linejoin:round;">
<path d="M82677 77955
L82677 78742
" />
</g>
<g style="fill:#000000; fill-opacity:0.0; 
stroke:#000000; stroke-width:39.3701; stroke-opacity:1; 
stroke-linecap:round; stroke-linejoin:round;">
</g>
<g style="fill:#000000; fill-opacity:0.0; 
stroke:#000000; stroke-width:59.0551; stroke-opacity:1; 
stroke-linecap:round; stroke-linejoin:round;">
<path d="M102362 77955
L102362 78742
" />
</g>
<g style="fill:#000000; fill-opacity:0.0; 
stroke:#000000; stroke-width:39.3701; stroke-opacity:1; 
stroke-linecap:round; stroke-linejoin:round;">
</g>
<g style="fill:#000000; fill-opacity:0.0; 
stroke:#000000; stroke-width:59.0551; stroke-opacity:1; 
stroke-linecap:round; stroke-linejoin:round;">
<path d="M14199 78580
L13906 78580
" />
<path d="M14052 78580
L14052 78069
L14004 78142
L13955 78190
L13906 78215
" />
</g>
<g style="fill:#000000; fill-opacity:0.0; 
stroke:#000000; stroke-width:39.3701; stroke-opacity:1; 
stroke-linecap:round; stroke-linejoin:round;">
</g>
<g style="fill:#000000; fill-opacity:0.0; 
stroke:#000000; stroke-width:59.0551; stroke-opacity:1; 
stroke-linecap:round; stroke-linejoin:round;">
<path d="M33591 78117
L33615 78093
L33664 78069
L33786 78069
L33835 78093
L33859 78117
L33884 78166
L33884 78215
L33859 78288
L33567 78580
L33884 78580
" />
</g>
<g style="fill:#000000; fill-opacity:0.0; 
stroke:#000000; stroke-width:39.3701; stroke-opacity:1; 
stroke-linecap:round; stroke-linejoin:round;">
</g>
<g style="fill:#000000; fill-opacity:0.0; 
stroke:#000000; stroke-width:59.0551; stroke-opacity:1; 
stroke-linecap:round; stroke-linejoin:round;">
<path d="M53252 78069
L53569 78069
L53398 78263
L53471 78263
L53520 78288
L53544 78312
L53569 78361
L53569 78483
L53544 78532
L53520 78556
L53471 78580
L53325 78580
L53276 78556
L53252 78532
" />
</g>
<g style="fill:#000000; fill-opacity:0.0; 
stroke:#000000; stroke-width:39.3701; stroke-opacity:1; 
stroke-linecap:round; stroke-linejoin:round;">
</g>
<g style="fill:#000000; fill-opacity:0.0; 
stroke:#000000; stroke-width:59.0551; stroke-opacity:1; 
stroke-linecap:round; stroke-linejoin:round;">
<path d="M73205 78239
L73205 78580
" />
<path d="M73083 78044
L72961 78410
L73278 78410
" />
</g>
<g style="fill:#000000; fill-opacity:0.0; 
stroke:#000000; stroke-width:39.3701; stroke-opacity:1; 
stroke-linecap:round; stroke-linejoin:round;">
</g>
<g style="fill:#000000; fill-opacity:0.0; 
stroke:#000000; stroke-width:59.0551; stroke-opacity:1; 
stroke-linecap:round; stroke-linejoin:round;">
<path d="M92914 78069
L92671 78069
L92646 78312
L92671 78288
L92719 78263
L92841 78263
L92890 78288
L92914 78312
L92939 78361
L92939 78483
L92914 78532
L92890 78556
L92841 78580
L92719 78580
L92671 78556
L92646 78532
" />
</g>
<g style="fill:#000000; fill-opacity:0.0; 
stroke:#000000; stroke-width:39.3701; stroke-opacity:1; 
stroke-linecap:round; stroke-linejoin:round;">
</g>
<g style="fill:#000000; fill-opacity:0.0; 
stroke:#000000; stroke-width:59.0551; stroke-opacity:1; 
stroke-linecap:round; stroke-linejoin:round;">
<path d="M112575 78069
L112477 78069
L112429 78093
L112404 78117
L112356 78190
L112331 78288
L112331 78483
L112356 78532
L112380 78556
L112429 78580
L112526 78580
L112575 78556
L112599 78532
L112624 78483
L112624 78361
L112599 78312
L112575 78288
L112526 78263
L112429 78263
L112380 78288
L112356 78312
L112331 78361
" />
</g>
<g style="fill:#000000; fill-opacity:0.0; 
stroke:#000000; stroke-width:39.3701; stroke-opacity:1; 
stroke-linecap:round; stroke-linejoin:round;">
</g>
<g style="fill:#000000; fill-opacity:0.0; 
stroke:#000000; stroke-width:59.0551; stroke-opacity:1; 
stroke-linecap:round; stroke-linejoin:round;">
<path d="M3937 23622
L4724 23622
" />
</g>
<g style="fill:#000000; fill-opacity:0.0; 
stroke:#000000; stroke-width:39.3701; stroke-opacity:1; 
stroke-linecap:round; stroke-linejoin:round;">
</g>
<g style="fill:#000000; fill-opacity:0.0; 
stroke:#000000; stroke-width:59.0551; stroke-opacity:1; 
stroke-linecap:round; stroke-linejoin:round;">
<path d="M3937 43307
L4724 43307
" />
</g>
<g style="fill:#000000; fill-opacity:0.0; 
stroke:#000000; stroke-width:39.3701; stroke-opacity:1; 
stroke-linecap:round; stroke-linejoin:round;">
</g>
<g style="fill:#000000; fill-opacity:0.0; 
stroke:#000000; stroke-width:59.0551; stroke-opacity:1; 
stroke-linecap:round; stroke-linejoin:round;">
<path d="M3937 62992
L4724 62992
" />
</g>
<g style="fill:#000000; fill-opacity:0.0; 
stroke:#000000; stroke-width:39.3701; stroke-opacity:1; 
stroke-linecap:round; stroke-linejoin:round;">
</g>
<g style="fill:#000000; fill-opacity:0.0; 
stroke:#000000; stroke-width:59.0551; stroke-opacity:1; 
stroke-linecap:round; stroke-linejoin:round;">
<path d="M4208 13864
L4452 13864
" />
<path d="M4160 14011
L4330 13499
L4501 14011
" />
</g>
<g style="fill:#000000; fill-opacity:0.0; 
stroke:#000000; stroke-width:39.3701; stroke-opacity:1; 
stroke-linecap:round; stroke-linejoin:round;">
</g>
<g style="fill:#000000; fill-opacity:0.0; 
stroke:#000000; stroke-width:59.0551; stroke-opacity:1; 
stroke-linecap:round; stroke-linejoin:round;">
<path d="M4367 33428
L4440 33452
L4464 33476
L4489 33525
L4489 33598
L4464 33647
L4440 33671
L4391 33696
L4196 33696
L4196 33184
L4367 33184
L4416 33208
L4440 33233
L4464 33281
L4464 33330
L4440 33379
L4416 33403
L4367 33428
L4196 33428
" />
</g>
<g style="fill:#000000; fill-opacity:0.0; 
stroke:#000000; stroke-width:39.3701; stroke-opacity:1; 
stroke-linecap:round; stroke-linejoin:round;">
</g>
<g style="fill:#000000; fill-opacity:0.0; 
stroke:#000000; stroke-width:59.0551; stroke-opacity:1; 
stroke-linecap:round; stroke-linejoin:round;">
<path d="M4489 53332
L4464 53356
L4391 53381
L4342 53381
L4269 53356
L4221 53308
L4196 53259
L4172 53161
L4172 53088
L4196 52991
L4221 52942
L4269 52893
L4342 52869
L4391 52869
L4464 52893
L4489 52918
" />
</g>
<g style="fill:#000000; fill-opacity:0.0; 
stroke:#000000; stroke-width:39.3701; stroke-opacity:1; 
stroke-linecap:round; stroke-linejoin:round;">
</g>
<g style="fill:#000000; fill-opacity:0.0; 
stroke:#000000; stroke-width:59.0551; stroke-opacity:1; 
stroke-linecap:round; stroke-linejoin:round;">
<path d="M4196 73066
L4196 72554
L4318 72554
L4391 72578
L4440 72627
L4464 72676
L4489 72773
L4489 72846
L4464 72944
L4440 72993
L4391 73041
L4318 73066
L4196 73066
" />
</g>
<g style="fill:#000000; fill-opacity:0.0; 
stroke:#000000; stroke-width:39.3701; stroke-opacity:1; 
stroke-linecap:round; stroke-linejoin:round;">
</g>
<g style="fill:#000000; fill-opacity:0.0; 
stroke:#000000; stroke-width:59.0551; stroke-opacity:1; 
stroke-linecap:round; stroke-linejoin:round;">
<path d="M112992 23622
L112205 23622
" />
</g>
<g style="fill:#000000; fill-opacity:0.0; 
stroke:#000000; stroke-width:39.3701; stroke-opacity:1; 
stroke-linecap:round; stroke-linejoin:round;">
</g>
<g style="fill:#000000; fill-opacity:0.0; 
stroke:#000000; stroke-width:59.0551; stroke-opacity:1; 
stroke-linecap:round; stroke-linejoin:round;">
<path d="M112992 43307
L112205 43307
" />
</g>
<g style="fill:#000000; fill-opacity:0.0; 
stroke:#000000; stroke-width:39.3701; stroke-opacity:1; 
stroke-linecap:round; stroke-linejoin:round;">
</g>
<g style="fill:#000000; fill-opacity:0.0; 
stroke:#000000; stroke-width:59.0551; stroke-opacity:1; 
stroke-linecap:round; stroke-linejoin:round;">
<path d="M112992 62992
L112205 62992
" />
</g>
<g style="fill:#000000; fill-opacity:0.0; 
stroke:#000000; stroke-width:39.3701; stroke-opacity:1; 
stroke-linecap:round; stroke-linejoin:round;">
</g>
<g style="fill:#000000; fill-opacity:0.0; 
stroke:#000000; stroke-width:59.0551; stroke-opacity:1; 
stroke-linecap:round; stroke-linejoin:round;">
<path d="M112477 13864
L112721 13864
" />
<path d="M112428 14011
L112599 13499
L112769 14011
" />
</g>
<g style="fill:#000000; fill-opacity:0.0; 
stroke:#000000; stroke-width:39.3701; stroke-opacity:1; 
stroke-linecap:round; stroke-linejoin:round;">
</g>
<g style="fill:#000000; fill-opacity:0.0; 
stroke:#000000; stroke-width:59.0551; stroke-opacity:1; 
stroke-linecap:round; stroke-linejoin:round;">
<path d="M112635 33428
L112708 33452
L112733 33476
L112757 33525
L112757 33598
L112733 33647
L112708 33671
L112660 33696
L112465 33696
L112465 33184
L112635 33184
L112684 33208
L112708 33233
L112733 33281
L112733 33330
L112708 33379
L112684 33403
L112635 33428
L112465 33428
" />
</g>
<g style="fill:#000000; fill-opacity:0.0; 
stroke:#000000; stroke-width:39.3701; stroke-opacity:1; 
stroke-linecap:round; stroke-linejoin:round;">
</g>
<g style="fill:#000000; fill-opacity:0.0; 
stroke:#000000; stroke-width:59.0551; stroke-opacity:1; 
stroke-linecap:round; stroke-linejoin:round;">
<path d="M112757 53332
L112733 53356
L112660 53381
L112611 53381
L112538 53356
L112489 53308
L112465 53259
L112440 53161
L112440 53088
L112465 52991
L112489 52942
L112538 52893
L112611 52869
L112660 52869
L112733 52893
L112757 52918
" />
</g>
<g style="fill:#000000; fill-opacity:0.0; 
stroke:#000000; stroke-width:39.3701; stroke-opacity:1; 
stroke-linecap:round; stroke-linejoin:round;">
</g>
<g style="fill:#000000; fill-opacity:0.0; 
stroke:#000000; stroke-width:59.0551; stroke-opacity:1; 
stroke-linecap:round; stroke-linejoin:round;">
<path d="M112465 73066
L112465 72554
L112587 72554
L112660 72578
L112708 72627
L112733 72676
L112757 72773
L112757 72846
L112733 72944
L112708 72993
L112660 73041
L112587 73066
L112465 73066
" />
</g>
<g style="fill:#000000; fill-opacity:0.0; 
stroke:#000000; stroke-width:39.3701; stroke-opacity:1; 
stroke-linecap:round; stroke-linejoin:round;">
</g>
<g style="fill:#000000; fill-opacity:0.0; 
stroke:#000000; stroke-width:59.0551; stroke-opacity:1; 
stroke-linecap:round; stroke-linejoin:round;">
<path d="M78911 76293
L78911 75703
L79051 75703
L79136 75731
L79192 75787
L79220 75843
L79248 75956
L79248 76040
L79220 76153
L79192 76209
L79136 76265
L79051 76293
L78911 76293
" />
<path d="M79754 76293
L79754 75984
L79726 75928
L79670 75899
L79557 75899
L79501 75928
" />
<path d="M79754 76265
L79698 76293
L79557 76293
L79501 76265
L79473 76209
L79473 76153
L79501 76096
L79557 76068
L79698 76068
L79754 76040
" />
<path d="M79951 75899
L80176 75899
" />
<path d="M80036 75703
L80036 76209
L80064 76265
L80120 76293
L80176 76293
" />
<path d="M80598 76265
L80542 76293
L80429 76293
L80373 76265
L80345 76209
L80345 75984
L80373 75928
L80429 75899
L80542 75899
L80598 75928
L80626 75984
L80626 76040
L80345 76096
" />
<path d="M80879 76237
L80907 76265
L80879 76293
L80851 76265
L80879 76237
L80879 76293
" />
<path d="M80879 75928
L80907 75956
L80879 75984
L80851 75956
L80879 75928
L80879 75984
" />
</g>
<g style="fill:#000000; fill-opacity:0.0; 
stroke:#000000; stroke-width:39.3701; stroke-opacity:1; 
stroke-linecap:round; stroke-linejoin:round;">
</g>
<g style="fill:#000000; fill-opacity:0.0; 
stroke:#000000; stroke-width:59.0551; stroke-opacity:1; 
stroke-linecap:round; stroke-linejoin:round;">
<path d="M69685 76577
L112205 76577
" />
</g>
<g style="fill:#000000; fill-opacity:0.0; 
stroke:#000000; stroke-width:39.3701; stroke-opacity:1; 
stroke-linecap:round; stroke-linejoin:round;">
</g>
<g style="fill:#000000; fill-opacity:0.0; 
stroke:#000000; stroke-width:59.0551; stroke-opacity:1; 
stroke-linecap:round; stroke-linejoin:round;">
<path d="M70249 77395
L70249 76805
" />
<path d="M70587 77395
L70334 77058
" />
<path d="M70587 76805
L70249 77142
" />
<path d="M70840 77395
L70840 77002
" />
<path d="M70840 76805
L70812 76833
L70840 76861
L70868 76833
L70840 76805
L70840 76861
" />
<path d="M71458 77339
L71430 77367
L71346 77395
L71290 77395
L71205 77367
L71149 77311
L71121 77255
L71093 77142
L71093 77058
L71121 76946
L71149 76889
L71205 76833
L71290 76805
L71346 76805
L71430 76833
L71458 76861
" />
<path d="M71965 77395
L71965 77086
L71937 77030
L71880 77002
L71768 77002
L71712 77030
" />
<path d="M71965 77367
L71908 77395
L71768 77395
L71712 77367
L71683 77311
L71683 77255
L71712 77199
L71768 77171
L71908 77171
L71965 77142
" />
<path d="M72499 77395
L72499 76805
" />
<path d="M72499 77367
L72443 77395
L72330 77395
L72274 77367
L72246 77339
L72218 77283
L72218 77114
L72246 77058
L72274 77030
L72330 77002
L72443 77002
L72499 77030
" />
<path d="M73230 77086
L73427 77086
" />
<path d="M73511 77395
L73230 77395
L73230 76805
L73511 76805
" />
<path d="M73764 77339
L73793 77367
L73764 77395
L73736 77367
L73764 77339
L73764 77395
" />
<path d="M74046 77395
L74046 76805
L74186 76805
L74271 76833
L74327 76889
L74355 76946
L74383 77058
L74383 77142
L74355 77255
L74327 77311
L74271 77367
L74186 77395
L74046 77395
" />
<path d="M74636 77339
L74664 77367
L74636 77395
L74608 77367
L74636 77339
L74636 77395
" />
<path d="M74889 77227
L75171 77227
" />
<path d="M74833 77395
L75030 76805
L75227 77395
" />
<path d="M75424 77339
L75452 77367
L75424 77395
L75395 77367
L75424 77339
L75424 77395
" />
<path d="M76605 77395
L76605 76805
" />
<path d="M76661 77171
L76830 77395
" />
<path d="M76830 77002
L76605 77227
" />
<path d="M77083 77395
L77083 77002
" />
<path d="M77083 76805
L77055 76833
L77083 76861
L77111 76833
L77083 76805
L77083 76861
" />
<path d="M77617 77367
L77561 77395
L77448 77395
L77392 77367
L77364 77339
L77336 77283
L77336 77114
L77364 77058
L77392 77030
L77448 77002
L77561 77002
L77617 77030
" />
<path d="M78123 77395
L78123 77086
L78095 77030
L78039 77002
L77926 77002
L77870 77030
" />
<path d="M78123 77367
L78067 77395
L77926 77395
L77870 77367
L77842 77311
L77842 77255
L77870 77199
L77926 77171
L78067 77171
L78123 77142
" />
<path d="M78658 77395
L78658 76805
" />
<path d="M78658 77367
L78601 77395
L78489 77395
L78433 77367
L78404 77339
L78376 77283
L78376 77114
L78404 77058
L78433 77030
L78489 77002
L78601 77002
L78658 77030
" />
<path d="M79557 77620
L79529 77592
L79473 77508
L79445 77452
L79417 77367
L79389 77227
L79389 77114
L79417 76974
L79445 76889
L79473 76833
L79529 76749
L79557 76721
" />
<path d="M80064 76805
L79782 76805
L79754 77086
L79782 77058
L79839 77030
L79979 77030
L80036 77058
L80064 77086
L80092 77142
L80092 77283
L80064 77339
L80036 77367
L79979 77395
L79839 77395
L79782 77367
L79754 77339
" />
<path d="M80345 77339
L80373 77367
L80345 77395
L80317 77367
L80345 77339
L80345 77395
" />
<path d="M80739 76805
L80795 76805
L80851 76833
L80879 76861
L80907 76917
L80935 77030
L80935 77171
L80907 77283
L80879 77339
L80851 77367
L80795 77395
L80739 77395
L80682 77367
L80654 77339
L80626 77283
L80598 77171
L80598 77030
L80626 76917
L80654 76861
L80682 76833
L80739 76805
" />
<path d="M81188 77339
L81217 77367
L81188 77395
L81160 77367
L81188 77339
L81188 77395
" />
<path d="M81779 77395
L81442 77395
" />
<path d="M81610 77395
L81610 76805
L81554 76889
L81498 76946
L81442 76974
" />
<path d="M81976 77620
L82004 77592
L82060 77508
L82088 77452
L82117 77367
L82145 77227
L82145 77114
L82117 76974
L82088 76889
L82060 76833
L82004 76749
L81976 76721
" />
<path d="M82426 77171
L82876 77171
" />
<path d="M83101 76805
L83466 76805
L83269 77030
L83354 77030
L83410 77058
L83438 77086
L83466 77142
L83466 77283
L83438 77339
L83410 77367
L83354 77395
L83185 77395
L83129 77367
L83101 77339
" />
</g>
<g style="fill:#000000; fill-opacity:0.0; 
stroke:#000000; stroke-width:39.3701; stroke-opacity:1; 
stroke-linecap:round; stroke-linejoin:round;">
</g>
<g style="fill:#000000; fill-opacity:0.0; 
stroke:#000000; stroke-width:59.0551; stroke-opacity:1; 
stroke-linecap:round; stroke-linejoin:round;">
<path d="M69685 75396
L112205 75396
" />
</g>
<g style="fill:#000000; fill-opacity:0.0; 
stroke:#000000; stroke-width:39.3701; stroke-opacity:1; 
stroke-linecap:round; stroke-linejoin:round;">
</g>
<g style="fill:#000000; fill-opacity:0.0; 
stroke:#000000; stroke-width:118.11; stroke-opacity:1; 
stroke-linecap:round; stroke-linejoin:round;">
<path d="M104099 76293
L103902 76012
" />
<path d="M103761 76293
L103761 75703
L103986 75703
L104042 75731
L104070 75759
L104099 75815
L104099 75899
L104070 75956
L104042 75984
L103986 76012
L103761 76012
" />
<path d="M104577 76265
L104520 76293
L104408 76293
L104352 76265
L104323 76209
L104323 75984
L104352 75928
L104408 75899
L104520 75899
L104577 75928
L104605 75984
L104605 76040
L104323 76096
" />
<path d="M104802 75899
L104942 76293
L105083 75899
" />
<path d="M105308 76237
L105336 76265
L105308 76293
L105280 76265
L105308 76237
L105308 76293
" />
<path d="M105308 75928
L105336 75956
L105308 75984
L105280 75956
L105308 75928
L105308 75984
" />
</g>
<g style="fill:#000000; fill-opacity:0.0; 
stroke:#000000; stroke-width:39.3701; stroke-opacity:1; 
stroke-linecap:round; stroke-linejoin:round;">
</g>
<g style="fill:#000000; fill-opacity:0.0; 
stroke:#000000; stroke-width:59.0551; stroke-opacity:1; 
stroke-linecap:round; stroke-linejoin:round;">
<path d="M70221 76265
L70305 76293
L70446 76293
L70502 76265
L70530 76237
L70559 76181
L70559 76124
L70530 76068
L70502 76040
L70446 76012
L70334 75984
L70277 75956
L70249 75928
L70221 75871
L70221 75815
L70249 75759
L70277 75731
L70334 75703
L70474 75703
L70559 75731
" />
<path d="M70812 76293
L70812 75899
" />
<path d="M70812 75703
L70784 75731
L70812 75759
L70840 75731
L70812 75703
L70812 75759
" />
<path d="M71037 75899
L71346 75899
L71037 76293
L71346 76293
" />
<path d="M71796 76265
L71740 76293
L71627 76293
L71571 76265
L71543 76209
L71543 75984
L71571 75928
L71627 75899
L71740 75899
L71796 75928
L71824 75984
L71824 76040
L71543 76096
" />
<path d="M72077 76237
L72105 76265
L72077 76293
L72049 76265
L72077 76237
L72077 76293
" />
<path d="M72077 75928
L72105 75956
L72077 75984
L72049 75956
L72077 75928
L72077 75984
" />
<path d="M72780 76124
L73061 76124
" />
<path d="M72724 76293
L72921 75703
L73118 76293
" />
<path d="M73568 75899
L73568 76293
" />
<path d="M73427 75674
L73286 76096
L73652 76096
" />
</g>
<g style="fill:#000000; fill-opacity:0.0; 
stroke:#000000; stroke-width:39.3701; stroke-opacity:1; 
stroke-linecap:round; stroke-linejoin:round;">
</g>
<g style="fill:#000000; fill-opacity:0.0; 
stroke:#000000; stroke-width:59.0551; stroke-opacity:1; 
stroke-linecap:round; stroke-linejoin:round;">
<path d="M103714 77395
L103714 76805
" />
<path d="M104248 77395
L104248 76805
" />
<path d="M104248 77367
L104192 77395
L104079 77395
L104023 77367
L103995 77339
L103967 77283
L103967 77114
L103995 77058
L104023 77030
L104079 77002
L104192 77002
L104248 77030
" />
<path d="M104529 77339
L104557 77367
L104529 77395
L104501 77367
L104529 77339
L104529 77395
" />
<path d="M104529 77030
L104557 77058
L104529 77086
L104501 77058
L104529 77030
L104529 77086
" />
<path d="M105570 77395
L105232 77395
" />
<path d="M105401 77395
L105401 76805
L105345 76889
L105289 76946
L105232 76974
" />
<path d="M106245 76777
L105739 77536
" />
<path d="M106751 77395
L106413 77395
" />
<path d="M106582 77395
L106582 76805
L106526 76889
L106470 76946
L106413 76974
" />
</g>
<g style="fill:#000000; fill-opacity:0.0; 
stroke:#000000; stroke-width:39.3701; stroke-opacity:1; 
stroke-linecap:round; stroke-linejoin:round;">
</g>
<g style="fill:#000000; fill-opacity:0.0; 
stroke:#000000; stroke-width:59.0551; stroke-opacity:1; 
stroke-linecap:round; stroke-linejoin:round;">
<path d="M69685 73821
L112205 73821
" />
</g>
<g style="fill:#000000; fill-opacity:0.0; 
stroke:#000000; stroke-width:39.3701; stroke-opacity:1; 
stroke-linecap:round; stroke-linejoin:round;">
</g>
<g style="fill:#000000; fill-opacity:0.0; 
stroke:#000000; stroke-width:157.48; stroke-opacity:1; 
stroke-linecap:round; stroke-linejoin:round;">
<path d="M70360 74099
L70810 74099
" />
<path d="M70486 74886
L70585 74099
" />
<path d="M70974 74886
L71039 74361
" />
<path d="M71072 74099
L71030 74136
L71063 74174
L71105 74136
L71072 74099
L71063 74174
" />
<path d="M71302 74361
L71602 74361
" />
<path d="M71447 74099
L71363 74774
L71391 74849
L71461 74886
L71536 74886
" />
<path d="M71911 74886
L71841 74849
L71813 74774
L71897 74099
" />
<path d="M72516 74849
L72436 74886
L72286 74886
L72216 74849
L72187 74774
L72225 74474
L72272 74399
L72352 74361
L72501 74361
L72572 74399
L72600 74474
L72591 74549
L72206 74624
" />
<path d="M72895 74811
L72928 74849
L72886 74886
L72853 74849
L72895 74811
L72886 74886
" />
<path d="M72947 74399
L72980 74436
L72937 74474
L72905 74436
L72947 74399
L72937 74474
" />
</g>
<g style="fill:#000000; fill-opacity:0.0; 
stroke:#000000; stroke-width:39.3701; stroke-opacity:1; 
stroke-linecap:round; stroke-linejoin:round;">
</g>
<g style="fill:#000000; fill-opacity:0.0; 
stroke:#000000; stroke-width:59.0551; stroke-opacity:1; 
stroke-linecap:round; stroke-linejoin:round;">
<path d="M70446 73070
L70249 73070
" />
<path d="M70249 73380
L70249 72789
L70530 72789
" />
<path d="M70755 73380
L70755 72986
" />
<path d="M70755 72789
L70727 72817
L70755 72845
L70784 72817
L70755 72789
L70755 72845
" />
<path d="M71121 73380
L71065 73352
L71037 73295
L71037 72789
" />
<path d="M71571 73352
L71515 73380
L71402 73380
L71346 73352
L71318 73295
L71318 73070
L71346 73014
L71402 72986
L71515 72986
L71571 73014
L71599 73070
L71599 73127
L71318 73183
" />
<path d="M71852 73323
L71880 73352
L71852 73380
L71824 73352
L71852 73323
L71852 73380
" />
<path d="M71852 73014
L71880 73042
L71852 73070
L71824 73042
L71852 73014
L71852 73070
" />
<path d="M72527 72789
L72668 73380
L72780 72958
L72893 73380
L73033 72789
" />
<path d="M73343 73380
L73286 73352
L73258 73323
L73230 73267
L73230 73099
L73258 73042
L73286 73014
L73343 72986
L73427 72986
L73483 73014
L73511 73042
L73539 73099
L73539 73267
L73511 73323
L73483 73352
L73427 73380
L73343 73380
" />
<path d="M73877 73380
L73821 73352
L73793 73323
L73764 73267
L73764 73099
L73793 73042
L73821 73014
L73877 72986
L73961 72986
L74018 73014
L74046 73042
L74074 73099
L74074 73267
L74046 73323
L74018 73352
L73961 73380
L73877 73380
" />
<path d="M74580 73380
L74580 72789
" />
<path d="M74580 73352
L74524 73380
L74411 73380
L74355 73352
L74327 73323
L74299 73267
L74299 73099
L74327 73042
L74355 73014
L74411 72986
L74524 72986
L74580 73014
" />
<path d="M74861 73070
L75058 73070
" />
<path d="M75142 73380
L74861 73380
L74861 72789
L75142 72789
" />
<path d="M75480 73380
L75424 73352
L75395 73295
L75395 72789
" />
<path d="M75620 72986
L75845 72986
" />
<path d="M75705 73380
L75705 72874
L75733 72817
L75789 72789
L75845 72789
" />
<path d="M75902 73436
L76352 73436
" />
<path d="M76605 72789
L76661 72789
L76717 72817
L76745 72845
L76773 72902
L76802 73014
L76802 73155
L76773 73267
L76745 73323
L76717 73352
L76661 73380
L76605 73380
L76548 73352
L76520 73323
L76492 73267
L76464 73155
L76464 73014
L76492 72902
L76520 72845
L76548 72817
L76605 72789
" />
<path d="M77027 72845
L77055 72817
L77111 72789
L77251 72789
L77308 72817
L77336 72845
L77364 72902
L77364 72958
L77336 73042
L76998 73380
L77364 73380
" />
<path d="M77617 73323
L77645 73352
L77617 73380
L77589 73352
L77617 73323
L77617 73380
" />
<path d="M77898 73380
L77898 72789
" />
<path d="M77955 73155
L78123 73380
" />
<path d="M78123 72986
L77898 73211
" />
<path d="M78376 73380
L78376 72986
" />
<path d="M78376 72789
L78348 72817
L78376 72845
L78404 72817
L78376 72789
L78376 72845
" />
<path d="M78911 73352
L78854 73380
L78742 73380
L78686 73352
L78658 73323
L78629 73267
L78629 73099
L78658 73042
L78686 73014
L78742 72986
L78854 72986
L78911 73014
" />
<path d="M79417 73380
L79417 73070
L79389 73014
L79332 72986
L79220 72986
L79164 73014
" />
<path d="M79417 73352
L79361 73380
L79220 73380
L79164 73352
L79136 73295
L79136 73239
L79164 73183
L79220 73155
L79361 73155
L79417 73127
" />
<path d="M79951 73380
L79951 72789
" />
<path d="M79951 73352
L79895 73380
L79782 73380
L79726 73352
L79698 73323
L79670 73267
L79670 73099
L79698 73042
L79726 73014
L79782 72986
L79895 72986
L79951 73014
" />
<path d="M80092 73436
L80542 73436
" />
<path d="M80682 72986
L80682 73577
" />
<path d="M80682 73014
L80739 72986
L80851 72986
L80907 73014
L80935 73042
L80964 73099
L80964 73267
L80935 73323
L80907 73352
L80851 73380
L80739 73380
L80682 73352
" />
<path d="M81470 73352
L81413 73380
L81301 73380
L81245 73352
L81217 73323
L81188 73267
L81188 73099
L81217 73042
L81245 73014
L81301 72986
L81413 72986
L81470 73014
" />
<path d="M81723 73380
L81723 72789
" />
<path d="M81723 73014
L81779 72986
L81892 72986
L81948 73014
L81976 73042
L82004 73099
L82004 73267
L81976 73323
L81948 73352
L81892 73380
L81779 73380
L81723 73352
" />
</g>
<g style="fill:#000000; fill-opacity:0.0; 
stroke:#000000; stroke-width:39.3701; stroke-opacity:1; 
stroke-linecap:round; stroke-linejoin:round;">
</g>
<g style="fill:#000000; fill-opacity:0.0; 
stroke:#000000; stroke-width:59.0551; stroke-opacity:1; 
stroke-linecap:round; stroke-linejoin:round;">
<path d="M69685 71459
L112205 71459
" />
</g>
<g style="fill:#000000; fill-opacity:0.0; 
stroke:#000000; stroke-width:39.3701; stroke-opacity:1; 
stroke-linecap:round; stroke-linejoin:round;">
</g>
<g style="fill:#000000; fill-opacity:0.0; 
stroke:#000000; stroke-width:59.0551; stroke-opacity:1; 
stroke-linecap:round; stroke-linejoin:round;">
<path d="M70221 72289
L70305 72317
L70446 72317
L70502 72289
L70530 72260
L70559 72204
L70559 72148
L70530 72092
L70502 72064
L70446 72036
L70334 72007
L70277 71979
L70249 71951
L70221 71895
L70221 71839
L70249 71782
L70277 71754
L70334 71726
L70474 71726
L70559 71754
" />
<path d="M70812 72317
L70812 71726
" />
<path d="M71065 72317
L71065 72007
L71037 71951
L70980 71923
L70896 71923
L70840 71951
L70812 71979
" />
<path d="M71571 72289
L71515 72317
L71402 72317
L71346 72289
L71318 72232
L71318 72007
L71346 71951
L71402 71923
L71515 71923
L71571 71951
L71599 72007
L71599 72064
L71318 72120
" />
<path d="M72077 72289
L72021 72317
L71908 72317
L71852 72289
L71824 72232
L71824 72007
L71852 71951
L71908 71923
L72021 71923
L72077 71951
L72105 72007
L72105 72064
L71824 72120
" />
<path d="M72274 71923
L72499 71923
" />
<path d="M72358 71726
L72358 72232
L72386 72289
L72443 72317
L72499 72317
" />
<path d="M72696 72260
L72724 72289
L72696 72317
L72668 72289
L72696 72260
L72696 72317
" />
<path d="M72696 71951
L72724 71979
L72696 72007
L72668 71979
L72696 71951
L72696 72007
" />
</g>
<g style="fill:#000000; fill-opacity:0.0; 
stroke:#000000; stroke-width:39.3701; stroke-opacity:1; 
stroke-linecap:round; stroke-linejoin:round;">
</g>
<g style="fill:#000000; fill-opacity:0.0; 
stroke:#000000; stroke-width:59.0551; stroke-opacity:1; 
stroke-linecap:round; stroke-linejoin:round;">
<path d="M77559 75396
L77559 76577
" />
</g>
<g style="fill:#000000; fill-opacity:0.0; 
stroke:#000000; stroke-width:39.3701; stroke-opacity:1; 
stroke-linecap:round; stroke-linejoin:round;">
</g>
<g style="fill:#000000; fill-opacity:0.0; 
stroke:#000000; stroke-width:59.0551; stroke-opacity:1; 
stroke-linecap:round; stroke-linejoin:round;">
<path d="M102756 75396
L102756 77955
" />
</g>
<g style="fill:#840084; fill-opacity:0.0; 
stroke:#840084; stroke-width:59.0551; stroke-opacity:1; 
stroke-linecap:round; stroke-linejoin:round;">
</g>
<g style="fill:#840084; fill-opacity:0.0; 
stroke:#840084; stroke-width:49.2126; stroke-opacity:1; 
stroke-linecap:round; stroke-linejoin:round;">
<path d="M58399 44844
L58286 44844
" />
<path d="M58343 45041
L58343 44844
" />
<path d="M58221 45041
L58221 44910
" />
<path d="M58221 44844
L58230 44854
L58221 44863
L58211 44854
L58221 44844
L58221 44863
" />
<path d="M58052 45032
L58071 45041
L58108 45041
L58127 45032
L58136 45013
L58136 44938
L58127 44919
L58108 44910
L58071 44910
L58052 44919
L58043 44938
L58043 44957
L58136 44976
" />
<path d="M57986 44910
L57911 44910
" />
<path d="M57958 45041
L57958 44873
L57949 44854
L57930 44844
L57911 44844
" />
<path d="M57818 45041
L57836 45032
L57846 45013
L57846 44844
" />
<path d="M57743 45041
L57743 44910
" />
<path d="M57743 44844
L57752 44854
L57743 44863
L57733 44854
L57743 44844
L57743 44863
" />
<path d="M57649 44910
L57649 45041
" />
<path d="M57649 44929
L57639 44919
L57621 44910
L57593 44910
L57574 44919
L57564 44938
L57564 45041
" />
<path d="M57386 44910
L57386 45069
L57396 45088
L57405 45098
L57424 45107
L57452 45107
L57471 45098
" />
<path d="M57386 45032
L57405 45041
L57443 45041
L57461 45032
L57471 45023
L57480 45004
L57480 44948
L57471 44929
L57461 44919
L57443 44910
L57405 44910
L57386 44919
" />
<path d="M57040 45041
L57152 45041
" />
<path d="M57096 45041
L57096 44844
L57115 44873
L57133 44891
L57152 44901
" />
<path d="M56955 45023
L56946 45032
L56955 45041
L56965 45032
L56955 45023
L56955 45041
" />
<path d="M56777 44910
L56777 45041
" />
<path d="M56824 44835
L56871 44976
L56749 44976
" />
<path d="M56515 44844
L56533 44882
" />
<path d="M56327 45041
L56440 45041
" />
<path d="M56383 45041
L56383 44844
L56402 44873
L56421 44891
L56440 44901
" />
<path d="M56233 45041
L56196 45041
L56177 45032
L56168 45023
L56149 44994
L56140 44957
L56140 44882
L56149 44863
L56158 44854
L56177 44844
L56215 44844
L56233 44854
L56243 44863
L56252 44882
L56252 44929
L56243 44948
L56233 44957
L56215 44966
L56177 44966
L56158 44957
L56149 44948
L56140 44929
" />
<path d="M58371 45386
L58371 45189
" />
<path d="M58371 45283
L58258 45283
" />
<path d="M58258 45386
L58258 45189
" />
<path d="M58080 45386
L58080 45283
L58089 45264
L58108 45255
L58146 45255
L58164 45264
" />
<path d="M58080 45376
L58099 45386
L58146 45386
L58164 45376
L58174 45358
L58174 45339
L58164 45320
L58146 45311
L58099 45311
L58080 45301
" />
<path d="M57986 45255
L57986 45386
" />
<path d="M57986 45273
L57977 45264
L57958 45255
L57930 45255
L57911 45264
L57902 45283
L57902 45386
" />
<path d="M57808 45255
L57808 45386
" />
<path d="M57808 45273
L57799 45264
L57780 45255
L57752 45255
L57733 45264
L57724 45283
L57724 45386
" />
<path d="M57546 45386
L57546 45283
L57555 45264
L57574 45255
L57611 45255
L57630 45264
" />
<path d="M57546 45376
L57564 45386
L57611 45386
L57630 45376
L57639 45358
L57639 45339
L57630 45320
L57611 45311
L57564 45311
L57546 45301
" />
<path d="M57452 45386
L57452 45189
" />
<path d="M57368 45386
L57368 45283
L57377 45264
L57396 45255
L57424 45255
L57443 45264
L57452 45273
" />
<path d="M57021 45198
L57040 45189
L57068 45189
L57096 45198
L57115 45217
L57124 45236
L57133 45273
L57133 45301
L57124 45339
L57115 45358
L57096 45376
L57068 45386
L57049 45386
L57021 45376
L57011 45367
L57011 45301
L57049 45301
" />
<path d="M56927 45386
L56927 45255
" />
<path d="M56927 45292
L56918 45273
L56908 45264
L56890 45255
L56871 45255
" />
<path d="M56721 45386
L56721 45283
L56730 45264
L56749 45255
L56786 45255
L56805 45264
" />
<path d="M56721 45376
L56740 45386
L56786 45386
L56805 45376
L56815 45358
L56815 45339
L56805 45320
L56786 45311
L56740 45311
L56721 45301
" />
<path d="M56543 45376
L56561 45386
L56599 45386
L56618 45376
L56627 45367
L56636 45348
L56636 45292
L56627 45273
L56618 45264
L56599 45255
L56561 45255
L56543 45264
" />
<path d="M56383 45376
L56402 45386
L56440 45386
L56458 45376
L56468 45358
L56468 45283
L56458 45264
L56440 45255
L56402 45255
L56383 45264
L56374 45283
L56374 45301
L56468 45320
" />
<path d="M58071 45829
L58043 45839
L57996 45839
L57978 45829
L57968 45820
L57959 45801
L57959 45782
L57968 45764
L57978 45754
L57996 45745
L58034 45735
L58053 45726
L58062 45717
L58071 45698
L58071 45679
L58062 45660
L58053 45651
L58034 45642
L57987 45642
L57959 45651
" />
<path d="M57893 45642
L57846 45839
L57809 45698
L57771 45839
L57725 45642
" />
<path d="M57612 45642
L57575 45642
L57556 45651
L57537 45670
L57528 45707
L57528 45773
L57537 45810
L57556 45829
L57575 45839
L57612 45839
L57631 45829
L57650 45810
L57659 45773
L57659 45707
L57650 45670
L57631 45651
L57612 45642
" />
<path d="M55887 45642
L55821 45839
L55756 45642
" />
<path d="M55690 45839
L55690 45642
L55643 45642
L55615 45651
L55596 45670
L55587 45689
L55578 45726
L55578 45754
L55587 45792
L55596 45810
L55615 45829
L55643 45839
L55690 45839
" />
<path d="M55493 45839
L55493 45642
L55446 45642
L55418 45651
L55400 45670
L55390 45689
L55381 45726
L55381 45754
L55390 45792
L55400 45810
L55418 45829
L55446 45839
L55493 45839
" />
<path d="M52351 44200
L52342 44181
L52342 44153
L52351 44125
L52370 44106
L52389 44096
L52426 44087
L52454 44087
L52492 44096
L52510 44106
L52529 44125
L52539 44153
L52539 44171
L52529 44200
L52520 44209
L52454 44209
L52454 44171
" />
<path d="M52539 44293
L52342 44293
L52539 44406
L52342 44406
" />
<path d="M52539 44499
L52342 44499
L52342 44546
L52351 44574
L52370 44593
L52389 44603
L52426 44612
L52454 44612
L52492 44603
L52510 44593
L52529 44574
L52539 44546
L52539 44499
" />
<path d="M52539 43148
L52342 43148
L52342 43195
L52351 43223
L52370 43242
L52389 43251
L52426 43260
L52454 43260
L52492 43251
L52510 43242
L52529 43223
L52539 43195
L52539 43148
" />
<path d="M52539 43345
L52342 43345
" />
<path d="M52539 43439
L52342 43439
L52539 43551
L52342 43551
" />
<path d="M52529 42031
L52539 42059
L52539 42106
L52529 42125
L52520 42134
L52501 42143
L52482 42143
L52464 42134
L52454 42125
L52445 42106
L52435 42068
L52426 42050
L52417 42040
L52398 42031
L52379 42031
L52360 42040
L52351 42050
L52342 42068
L52342 42115
L52351 42143
" />
<path d="M52342 42209
L52539 42256
L52398 42293
L52539 42331
L52342 42378
" />
<path d="M52539 42453
L52342 42453
" />
<path d="M52539 42546
L52342 42546
L52539 42659
L52342 42659
" />
<path d="M53562 39342
L53496 39539
L53431 39342
" />
<path d="M53365 39539
L53365 39342
L53318 39342
L53290 39351
L53271 39370
L53262 39389
L53253 39426
L53253 39454
L53262 39492
L53271 39510
L53290 39529
L53318 39539
L53365 39539
" />
<path d="M53168 39539
L53168 39342
L53121 39342
L53093 39351
L53075 39370
L53065 39389
L53056 39426
L53056 39454
L53065 39492
L53075 39510
L53093 39529
L53121 39539
L53168 39539
" />
<path d="M55396 39154
L55368 39164
L55321 39164
L55303 39154
L55293 39145
L55284 39126
L55284 39107
L55293 39089
L55303 39079
L55321 39070
L55359 39060
L55378 39051
L55387 39042
L55396 39023
L55396 39004
L55387 38985
L55378 38976
L55359 38967
L55312 38967
L55284 38976
" />
<path d="M55218 38967
L55171 39164
L55134 39023
L55096 39164
L55050 38967
" />
<path d="M54937 38967
L54900 38967
L54881 38976
L54862 38995
L54853 39032
L54853 39098
L54862 39135
L54881 39154
L54900 39164
L54937 39164
L54956 39154
L54975 39135
L54984 39098
L54984 39032
L54975 38995
L54956 38976
L54937 38967
" />
<path d="M58681 40905
L58668 40932
L58635 40965
L58615 40972
L58602 40972
L58582 40965
L58569 40952
L58562 40932
L58562 40919
L58569 40899
L58588 40866
L58595 40846
L58595 40833
L58588 40813
L58575 40799
L58555 40793
L58542 40793
L58522 40799
L58489 40833
L58476 40859
" />
<path d="M58423 40899
L58529 41071
L58403 40998
L58476 41124
L58303 41018
" />
<path d="M58390 41210
L58250 41071
" />
<path d="M58323 41277
L58184 41137
L58244 41356
L58105 41217
" />
<path d="M58414 41495
L58217 41495
L58217 41542
L58226 41570
L58245 41589
L58264 41598
L58301 41607
L58329 41607
L58367 41598
L58385 41589
L58404 41570
L58414 41542
L58414 41495
" />
<path d="M58217 41729
L58217 41767
L58226 41785
L58245 41804
L58282 41814
L58348 41814
L58385 41804
L58404 41785
L58414 41767
L58414 41729
L58404 41710
L58385 41692
L58348 41682
L58282 41682
L58245 41692
L58226 41710
L58217 41729
" />
<path d="M58226 42350
L58217 42331
L58217 42303
L58226 42275
L58245 42256
L58264 42246
L58301 42237
L58329 42237
L58367 42246
L58385 42256
L58404 42275
L58414 42303
L58414 42321
L58404 42350
L58395 42359
L58329 42359
L58329 42321
" />
<path d="M58414 42443
L58217 42443
L58414 42556
L58217 42556
" />
<path d="M58414 42649
L58217 42649
L58217 42696
L58226 42724
L58245 42743
L58264 42753
L58301 42762
L58329 42762
L58367 42753
L58385 42743
L58404 42724
L58414 42696
L58414 42649
" />
</g>
<g style="fill:#840084; fill-opacity:0.0; 
stroke:#840084; stroke-width:59.0551; stroke-opacity:1; 
stroke-linecap:round; stroke-linejoin:round;">
<path d="M58165 38705
L58575 38705
" />
<path d="M58165 38705 A270 270 0.0 0 0 57895 38975 " />
<path d="M57055 38975 A420 420 0.0 0 0 57895 38975 " />
<path d="M57055 38975 A270 270 0.0 0 0 56785 38705 " />
<path d="M56375 38705
L56785 38705
" />
<path d="M51705 39585
L51705 39175
" />
<path d="M51705 39585 A270 270 0.0 0 0 51975 39855 " />
<path d="M51975 40695 A420 420 0.0 0 0 51975 39855 " />
<path d="M51975 40695 A270 270 0.0 0 0 51705 40965 " />
<path d="M51705 41375
L51705 40965
" />
<path d="M59045 45165
L59045 45575
" />
<path d="M59045 45165 A270 270 0.0 0 0 58775 44895 " />
<path d="M58775 44055 A420 420 0.0 0 0 58775 44895 " />
<path d="M58775 44055 A270 270 0.0 0 0 59045 43785 " />
<path d="M59045 43375
L59045 43785
" />
<path d="M52585 46045
L52175 46045
" />
<path d="M52585 46045 A270 270 0.0 0 0 52855 45775 " />
<path d="M53695 45775 A420 420 0.0 0 0 52855 45775 " />
<path d="M53695 45775 A270 270 0.0 0 0 53965 46045 " />
<path d="M54375 46045
L53965 46045
" />
<path d="M57220 41230
L57220 39480
" />
<path d="M57220 39480
L54070 39480
" />
<path d="M52970 40580
L52970 42330
" />
<path d="M52970 42330
L54420 42330
" />
<path d="M55520 41230
L57220 41230
" />
<path d="M55520 41230 A1100 1100 0.0 0 0 54420 42330 " />
<path d="M54070 39480 A1100 1100 0.0 0 0 52970 40580 " />
</g>
<g style="fill:#840084; fill-opacity:0.0; 
stroke:#840084; stroke-width:78.7402; stroke-opacity:1; 
stroke-linecap:round; stroke-linejoin:round;">
<path d="M53984 43405
L53984 45294
" />
<path d="M53984 43405
L55165 43405
" />
<path d="M55165 43405
L55165 45294
" />
<path d="M53984 45294
L55165 45294
" />
<circle cx="54968.7" cy="43602" r="88.0343" /> 
</g>
<g style="fill:#840084; fill-opacity:0.0; 
stroke:#840084; stroke-width:47.2441; stroke-opacity:1; 
stroke-linecap:round; stroke-linejoin:round;">
<path d="M56490 42815
L58797 42815
" />
<path d="M58797 42815
L58797 44064
" />
<path d="M58797 44064
L56490 44064
" />
</g>
<g style="fill:#840084; fill-opacity:0.0; 
stroke:#840084; stroke-width:49.2126; stroke-opacity:1; 
stroke-linecap:round; stroke-linejoin:round;">
<path d="M56524 41514
L56524 41317
" />
<path d="M56524 41410
L56412 41410
" />
<path d="M56412 41514
L56412 41317
" />
<path d="M56215 41514
L56328 41514
" />
<path d="M56271 41514
L56271 41317
L56290 41345
L56309 41364
L56328 41373
" />
<path d="M54646 45523
L54655 45514
L54664 45486
L54664 45467
L54655 45439
L54636 45420
L54618 45411
L54580 45402
L54552 45402
L54514 45411
L54496 45420
L54477 45439
L54468 45467
L54468 45486
L54477 45514
L54486 45523
" />
<path d="M54664 45711
L54664 45598
" />
<path d="M54664 45655
L54468 45655
L54496 45636
L54514 45617
L54524 45598
" />
<path d="M56720 42729
L56720 42532
L56673 42532
L56645 42541
L56626 42560
L56617 42579
L56607 42616
L56607 42644
L56617 42682
L56626 42700
L56645 42719
L56673 42729
L56720 42729
" />
<path d="M56420 42729
L56532 42729
" />
<path d="M56476 42729
L56476 42532
L56495 42560
L56514 42579
L56532 42588
" />
</g>
<g style="fill:#000000; fill-opacity:0.0; 
stroke:#000000; stroke-width:49.2126; stroke-opacity:1; 
stroke-linecap:round; stroke-linejoin:round;">
</g>
<g style="fill:#C2C200; fill-opacity:0.0; 
stroke:#C2C200; stroke-width:49.2126; stroke-opacity:1; 
stroke-linecap:round; stroke-linejoin:round;">
</g>
<g style="fill:#C2C200; fill-opacity:0.0; 
stroke:#C2C200; stroke-width:59.0551; stroke-opacity:1; 
stroke-linecap:round; stroke-linejoin:round;">
<path d="M51600 39585 A375 375 0.0 0 0 51975 39960 " />
<path d="M51975 40590 A315 315 0.0 0 0 51975 39960 " />
<path d="M51975 40590 A375 375 0.0 0 0 51600 40965 " />
<path d="M52585 46150 A375 375 0.0 0 0 52960 45775 " />
<path d="M53590 45775 A375 375 0.0 0 0 53965 46150 " />
<path d="M53590 45775 A315 315 0.0 0 0 52960 45775 " />
<path d="M59150 45165 A375 375 0.0 0 0 58775 44790 " />
<path d="M58775 44160 A315 315 0.0 0 0 58775 44790 " />
<path d="M58775 44160 A375 375 0.0 0 0 59150 43785 " />
<path d="M59150 39150
L59150 43785
" />
<path d="M52585 46150
L52150 46150
" />
<path d="M51600 39585
L51600 39150
" />
<path d="M56785 38600
L52150 38600
" />
<path d="M57160 38975 A375 375 0.0 0 0 56785 38600 " />
<path d="M58165 38600 A375 375 0.0 0 0 57790 38975 " />
<path d="M57160 38975 A315 315 0.0 0 0 57790 38975 " />
<path d="M51600 45600 A550 550 0.0 0 0 52150 46150 " />
<path d="M58600 46150 A550 550 0.0 0 0 59150 45600 " />
<path d="M58165 38600
L58600 38600
" />
<path d="M51600 45600
L51600 40965
" />
<path d="M58600 46150
L53965 46150
" />
<path d="M59150 45165
L59150 45600
" />
<path d="M59150 39150 A550 550 0.0 0 0 58600 38600 " />
<path d="M52150 38600 A550 550 0.0 0 0 51600 39150 " />
</g> 
</svg>
