<?xml version="1.0" standalone="no"?>
 <!DOCTYPE svg PUBLIC "-//W3C//DTD SVG 1.1//EN" 
 "http://www.w3.org/Graphics/SVG/1.1/DTD/svg11.dtd"> 
<svg
  xmlns:svg="http://www.w3.org/2000/svg"
  xmlns="http://www.w3.org/2000/svg"
  xmlns:xlink="http://www.w3.org/1999/xlink"
  version="1.1"
  width="1.932940cm" height="1.932940cm" viewBox="0 0 7610 7610">
<title>SVG Picture created as WoodElf_02-Edge_Cuts.svg date 2020/11/22 09:57:37 </title>
  <desc>Picture generated by PCBNEW </desc>
<g style="fill:#000000; fill-opacity:1;stroke:#000000; stroke-opacity:1;
stroke-linecap:round; stroke-linejoin:round;"
 transform="translate(0 0) scale(1 1)">
</g>
<g style="fill:#000000; fill-opacity:0.0; 
stroke:#000000; stroke-width:-0.000393701; stroke-opacity:1; 
stroke-linecap:round; stroke-linejoin:round;">
</g>
<g style="fill:#C2C200; fill-opacity:0.0; 
stroke:#C2C200; stroke-width:-0.000393701; stroke-opacity:1; 
stroke-linecap:round; stroke-linejoin:round;">
</g>
<g style="fill:#C2C200; fill-opacity:0.0; 
stroke:#C2C200; stroke-width:59.0551; stroke-opacity:1; 
stroke-linecap:round; stroke-linejoin:round;">
<path d="M5705.01 155.01 A68.1984 68.1984 0.0 0 0 5668 29.528" />
<path d="M6142.02 29.528 A68.1984 68.1984 0.0 0 0 6105.01 155.01" />
<path d="M155.01 1255.01 A68.1984 68.1984 0.0 0 0 29.528 1292.02" />
<path d="M29.528 818.002 A68.1984 68.1984 0.0 0 0 155.01 855.01" />
<path d="M7580.49 6142.02 A68.1984 68.1984 0.0 0 0 7455.01 6105.01" />
<path d="M3143 7580.49 A68.1984 68.1984 0.0 0 0 3180.01 7455.01" />
<path d="M7455.01 5705.01 A68.1984 68.1984 0.0 0 0 7580.49 5668" />
<path d="M3580.01 7455.01 A68.1984 68.1984 0.0 0 0 3617.02 7580.49" />
<path d="M3580.01 7455.01 A320.156 320.156 0.0 1 0 3180.01 7455.01" />
<path d="M30 355
L29 818
" />
<path d="M155.01 1255.01 A320.156 320.156 0.0 1 0 155.01 855.01" />
<path d="M5705.01 155.01 A320.156 320.156 0.0 1 0 6105.01 155.01" />
<path d="M7455.01 5705.01 A320.156 320.156 0.0 1 0 7455.01 6105.01" />
<path d="M7580 580
L7580 5668
" />
<path d="M3143 7580
L580 7580
" />
<path d="M5668 29
L355 30
" />
<path d="M30.0102 7030.01 A550 550 0.0 0 0 580.01 7580.01" />
<path d="M7030.01 7580.01 A550 550 0.0 0 0 7580.01 7030.01" />
<path d="M6142 29
L7030 30
" />
<path d="M30 7030
L29 1292
" />
<path d="M7030 7580
L3617 7580
" />
<path d="M7580 6142
L7580 7030
" />
<path d="M7580.01 580.01 A550 550 0.0 0 0 7030.01 30.0102" />
<path d="M355.01 30.0102 A325 325 0.0 0 0 30.0102 355.01" />
<g >
</g>
<g >
</g>
<g >
</g>
<g >
</g>
<g >
</g>
<g >
</g>
<g >
</g>
<g >
</g>
<g >
</g>
<g >
</g>
<g >
</g>
<g >
</g>
<g >
</g>
<g >
</g>
<g >
</g>
<g >
</g>
<g >
</g>
<g >
</g>
<g >
</g>
<g >
</g>
<g >
</g>
<g >
</g>
</g> 
</svg>
