<?xml version="1.0" standalone="no"?>
 <!DOCTYPE svg PUBLIC "-//W3C//DTD SVG 1.1//EN" 
 "http://www.w3.org/Graphics/SVG/1.1/DTD/svg11.dtd"> 
<svg
  xmlns:svg="http://www.w3.org/2000/svg"
  xmlns="http://www.w3.org/2000/svg"
  xmlns:xlink="http://www.w3.org/1999/xlink"
  version="1.1"
  width="1.932940cm" height="1.932940cm" viewBox="0 0 7610 7610">
<title>SVG Picture created as WoodElf_02-Dwgs_User.svg date 2020/11/22 09:57:37 </title>
  <desc>Picture generated by PCBNEW </desc>
<g style="fill:#000000; fill-opacity:1;stroke:#000000; stroke-opacity:1;
stroke-linecap:round; stroke-linejoin:round;"
 transform="translate(0 0) scale(1 1)">
</g>
<g style="fill:#000000; fill-opacity:0.0; 
stroke:#000000; stroke-width:-0.000393701; stroke-opacity:1; 
stroke-linecap:round; stroke-linejoin:round;">
</g>
<g style="fill:#C2C2C2; fill-opacity:0.0; 
stroke:#C2C2C2; stroke-width:-0.000393701; stroke-opacity:1; 
stroke-linecap:round; stroke-linejoin:round;">
</g>
<g style="fill:#C2C2C2; fill-opacity:0.0; 
stroke:#C2C2C2; stroke-width:59.0551; stroke-opacity:1; 
stroke-linecap:round; stroke-linejoin:round;">
<path d="M2300.01 906.861 A1100 1100 0.0 0 0 1200.01 2006.86" />
<path d="M3750.01 2656.47 A800 800 0.0 0 0 2950.01 3456.47" />
<path d="M5850 910
L2300 910
" />
<path d="M5850 1258
L5850 908
" />
<path d="M5850 2660
L5850 2360
" />
<path d="M3750 2656
L5850 2656
" />
<path d="M1200 3460
L2950 3460
" />
<path d="M1200 3360
L1200 3460
" />
<path d="M1200 2006
L1200 2256
" />
</g>
<g style="fill:#C2C2C2; fill-opacity:0.0; 
stroke:#C2C2C2; stroke-width:19.685; stroke-opacity:1; 
stroke-linecap:round; stroke-linejoin:round;">
<path d="M6555 6555
L7555 6555
" />
<path d="M6555 6555
L6555 7555
" />
<path d="M1055 6553
L55 6553
" />
<path d="M1055 6553
L1055 7553
" />
<path d="M1055 1055
L1055 55
" />
<path d="M1055 1055
L55 1055
" />
<path d="M6555 1055
L6555 55
" />
<path d="M6555 1055
L7555 1055
" />
</g>
<g style="fill:#C2C2C2; fill-opacity:0.0; 
stroke:#C2C2C2; stroke-width:59.0551; stroke-opacity:1; 
stroke-linecap:round; stroke-linejoin:round;">
<path d="M6555 6555
L6555 1055
" />
<path d="M6555 6555
L1055 6555
" />
<path d="M1055 1055
L1055 6555
" />
<path d="M1055 1055
L6555 1055
" />
<path d="M55 7555
L55 55
" />
<path d="M7555 7555
L55 7555
" />
<path d="M7555 55
L7555 7555
" />
<path d="M55 55
L7555 55
" />
</g>
<g style="fill:#C2C2C2; fill-opacity:0.0; 
stroke:#C2C2C2; stroke-width:47.2441; stroke-opacity:1; 
stroke-linecap:round; stroke-linejoin:round;">
<circle cx="5805.01" cy="3805.01" r="334.646" /> 
<circle cx="1805.01" cy="3805.01" r="334.646" /> 
<circle cx="2305.01" cy="2805.01" r="590.551" /> 
<circle cx="4805.01" cy="1805.01" r="590.551" /> 
<circle cx="3805.01" cy="3805.01" r="787.402" /> 
<circle cx="5630.01" cy="7005.01" r="255.906" /> 
<circle cx="4630.01" cy="7005.01" r="255.906" /> 
<circle cx="7005.01" cy="3930.01" r="255.906" /> 
<circle cx="7005.01" cy="1930.01" r="255.906" /> 
<circle cx="605.01" cy="4780.01" r="255.906" /> 
<circle cx="7005.01" cy="2930.01" r="255.906" /> 
<circle cx="605.01" cy="5780.01" r="255.906" /> 
<circle cx="605.01" cy="3780.01" r="255.906" /> 
<circle cx="2955.01" cy="605.01" r="255.906" /> 
<circle cx="1955.01" cy="605.01" r="255.906" /> 
</g>
<g style="fill:#C2C2C2; fill-opacity:0.0; 
stroke:#C2C2C2; stroke-width:21.6535; stroke-opacity:1; 
stroke-linecap:round; stroke-linejoin:round;">
<circle cx="405.01" cy="1055.01" r="618.11" /> 
</g>
<g style="fill:#C2C2C2; fill-opacity:0.0; 
stroke:#C2C2C2; stroke-width:19.685; stroke-opacity:1; 
stroke-linecap:round; stroke-linejoin:round;">
<circle cx="405.01" cy="1055.01" r="314.961" /> 
</g>
<g style="fill:#C2C2C2; fill-opacity:0.0; 
stroke:#C2C2C2; stroke-width:21.6535; stroke-opacity:1; 
stroke-linecap:round; stroke-linejoin:round;">
<circle cx="5905.01" cy="405.01" r="618.11" /> 
</g>
<g style="fill:#C2C2C2; fill-opacity:0.0; 
stroke:#C2C2C2; stroke-width:19.685; stroke-opacity:1; 
stroke-linecap:round; stroke-linejoin:round;">
<circle cx="5905.01" cy="405.01" r="314.961" /> 
</g>
<g style="fill:#C2C2C2; fill-opacity:0.0; 
stroke:#C2C2C2; stroke-width:21.6535; stroke-opacity:1; 
stroke-linecap:round; stroke-linejoin:round;">
<circle cx="7205.01" cy="5905.01" r="618.11" /> 
</g>
<g style="fill:#C2C2C2; fill-opacity:0.0; 
stroke:#C2C2C2; stroke-width:19.685; stroke-opacity:1; 
stroke-linecap:round; stroke-linejoin:round;">
<circle cx="7205.01" cy="5905.01" r="314.961" /> 
</g>
<g style="fill:#C2C2C2; fill-opacity:0.0; 
stroke:#C2C2C2; stroke-width:21.6535; stroke-opacity:1; 
stroke-linecap:round; stroke-linejoin:round;">
<circle cx="3380.01" cy="7205.01" r="618.11" /> 
</g>
<g style="fill:#C2C2C2; fill-opacity:0.0; 
stroke:#C2C2C2; stroke-width:19.685; stroke-opacity:1; 
stroke-linecap:round; stroke-linejoin:round;">
<circle cx="3380.01" cy="7205.01" r="314.961" /> 
<g >
</g>
<g >
</g>
<g >
</g>
<g >
</g>
<g >
</g>
<g >
</g>
<g >
</g>
<g >
</g>
<g >
</g>
<g >
</g>
<g >
</g>
<g >
</g>
<g >
</g>
<g >
</g>
<g >
</g>
<g >
</g>
<g >
</g>
<g >
</g>
<g >
</g>
<g >
</g>
<g >
</g>
<g >
</g>
</g>
<g style="fill:#000000; fill-opacity:0.0; 
stroke:#000000; stroke-width:19.685; stroke-opacity:1; 
stroke-linecap:round; stroke-linejoin:round;">
</g>
<g style="fill:#C2C200; fill-opacity:0.0; 
stroke:#C2C200; stroke-width:19.685; stroke-opacity:1; 
stroke-linecap:round; stroke-linejoin:round;">
</g>
<g style="fill:#C2C200; fill-opacity:0.0; 
stroke:#C2C200; stroke-width:59.0551; stroke-opacity:1; 
stroke-linecap:round; stroke-linejoin:round;">
<path d="M5705.01 155.01 A68.1984 68.1984 0.0 0 0 5668 29.528" />
<path d="M6142.02 29.528 A68.1984 68.1984 0.0 0 0 6105.01 155.01" />
<path d="M155.01 1255.01 A68.1984 68.1984 0.0 0 0 29.528 1292.02" />
<path d="M29.528 818.002 A68.1984 68.1984 0.0 0 0 155.01 855.01" />
<path d="M7580.49 6142.02 A68.1984 68.1984 0.0 0 0 7455.01 6105.01" />
<path d="M3143 7580.49 A68.1984 68.1984 0.0 0 0 3180.01 7455.01" />
<path d="M7455.01 5705.01 A68.1984 68.1984 0.0 0 0 7580.49 5668" />
<path d="M3580.01 7455.01 A68.1984 68.1984 0.0 0 0 3617.02 7580.49" />
<path d="M3580.01 7455.01 A320.156 320.156 0.0 1 0 3180.01 7455.01" />
<path d="M30 355
L29 818
" />
<path d="M155.01 1255.01 A320.156 320.156 0.0 1 0 155.01 855.01" />
<path d="M5705.01 155.01 A320.156 320.156 0.0 1 0 6105.01 155.01" />
<path d="M7455.01 5705.01 A320.156 320.156 0.0 1 0 7455.01 6105.01" />
<path d="M7580 580
L7580 5668
" />
<path d="M3143 7580
L580 7580
" />
<path d="M5668 29
L355 30
" />
<path d="M30.0102 7030.01 A550 550 0.0 0 0 580.01 7580.01" />
<path d="M7030.01 7580.01 A550 550 0.0 0 0 7580.01 7030.01" />
<path d="M6142 29
L7030 30
" />
<path d="M30 7030
L29 1292
" />
<path d="M7030 7580
L3617 7580
" />
<path d="M7580 6142
L7580 7030
" />
<path d="M7580.01 580.01 A550 550 0.0 0 0 7030.01 30.0102" />
<path d="M355.01 30.0102 A325 325 0.0 0 0 30.0102 355.01" />
<g >
</g>
<g >
</g>
<g >
</g>
<g >
</g>
<g >
</g>
<g >
</g>
<g >
</g>
<g >
</g>
<g >
</g>
<g >
</g>
<g >
</g>
<g >
</g>
<g >
</g>
<g >
</g>
<g >
</g>
<g >
</g>
<g >
</g>
<g >
</g>
<g >
</g>
<g >
</g>
<g >
</g>
<g >
</g>
</g> 
</svg>
