<?xml version="1.0" standalone="no"?>
 <!DOCTYPE svg PUBLIC "-//W3C//DTD SVG 1.1//EN" 
 "http://www.w3.org/Graphics/SVG/1.1/DTD/svg11.dtd"> 
<svg xmlns="http://www.w3.org/2000/svg" version="1.1" 
    width="2.0447cm" height="2.0447cm" viewBox="0 0 8050 8050 ">
<title>SVG Picture created as WoodElf_02-B.Fab.svg date 2019/05/12 14:16:08 </title>
  <desc>Picture generated by PCBNEW </desc>
<g style="fill:#000000; fill-opacity:1;stroke:#000000; stroke-opacity:1;
stroke-linecap:round; stroke-linejoin:round; "
 transform="translate(0 0) scale(1 1)">
</g>
<g style="fill:#000000; fill-opacity:0.0; 
stroke:#000000; stroke-width:-0.000393701; stroke-opacity:1; 
stroke-linecap:round; stroke-linejoin:round;">
</g>
<g style="fill:#000084; fill-opacity:0.0; 
stroke:#000084; stroke-width:-0.000393701; stroke-opacity:1; 
stroke-linecap:round; stroke-linejoin:round;">
</g>
<g style="fill:#000084; fill-opacity:0.0; 
stroke:#000084; stroke-width:59.0551; stroke-opacity:1; 
stroke-linecap:round; stroke-linejoin:round;">
<circle cx="5023.94" cy="2033.94" r="424.264" /> 
<circle cx="2528.96" cy="3033.94" r="494.975" /> 
</g>
<g style="fill:#000084; fill-opacity:0.0; 
stroke:#000084; stroke-width:39.3701; stroke-opacity:1; 
stroke-linecap:round; stroke-linejoin:round;">
<path d="M1586 6817
L1586 5095
" />
<path d="M1586 5095
L1832 4849
" />
<path d="M1832 4849
L2571 4849
" />
<path d="M2571 4849
L2571 6817
" />
<path d="M2571 6817
L1586 6817
" />
</g>
<g style="fill:#000084; fill-opacity:0.0; 
stroke:#000084; stroke-width:59.0551; stroke-opacity:1; 
stroke-linecap:round; stroke-linejoin:round;">
<path d="M9075 32
L9075 -361
" />
<path d="M8850 32
L9019 -192
" />
<path d="M8850 -361
L9075 -136
" />
<path d="M8512 32
L8512 -174
L8531 -211
L8569 -230
L8644 -230
L8681 -211
" />
<path d="M8512 13
L8550 32
L8644 32
L8681 13
L8700 -24
L8700 -61
L8681 -99
L8644 -117
L8550 -117
L8512 -136
" />
<path d="M8325 32
L8325 -230
" />
<path d="M8325 -361
L8344 -342
L8325 -324
L8306 -342
L8325 -361
L8325 -324
" />
<path d="M8081 32
L8119 13
L8137 -24
L8137 -361
" />
<path d="M7931 32
L7931 -361
" />
<path d="M7762 32
L7762 -174
L7781 -211
L7819 -230
L7875 -230
L7912 -211
L7931 -192
" />
<path d="M7669 69
L7369 69
" />
<path d="M7275 32
L7275 -361
" />
<path d="M7275 -174
L7050 -174
" />
<path d="M7050 32
L7050 -361
" />
<path d="M6806 32
L6844 13
L6863 -5
L6881 -42
L6881 -155
L6863 -192
L6844 -211
L6806 -230
L6750 -230
L6713 -211
L6694 -192
L6675 -155
L6675 -42
L6694 -5
L6713 13
L6750 32
L6806 32
" />
<path d="M6563 -230
L6413 -230
" />
<path d="M6506 -361
L6506 -24
L6488 13
L6450 32
L6413 32
" />
<path d="M6300 13
L6244 32
L6150 32
L6113 13
L6094 -5
L6075 -42
L6075 -80
L6094 -117
L6113 -136
L6150 -155
L6225 -174
L6263 -192
L6281 -211
L6300 -249
L6300 -286
L6281 -324
L6263 -342
L6225 -361
L6131 -361
L6075 -342
" />
<path d="M5944 -230
L5869 32
L5794 -155
L5719 32
L5644 -230
" />
<path d="M5325 32
L5325 -174
L5344 -211
L5382 -230
L5457 -230
L5494 -211
" />
<path d="M5325 13
L5363 32
L5457 32
L5494 13
L5513 -24
L5513 -61
L5494 -99
L5457 -117
L5363 -117
L5325 -136
" />
<path d="M5138 -230
L5138 163
" />
<path d="M5138 -211
L5100 -230
L5025 -230
L4988 -211
L4969 -192
L4950 -155
L4950 -42
L4969 -5
L4988 13
L5025 32
L5100 32
L5138 13
" />
<path d="M4875 69
L4575 69
" />
<path d="M4500 13
L4444 32
L4350 32
L4313 13
L4294 -5
L4275 -42
L4275 -80
L4294 -117
L4313 -136
L4350 -155
L4425 -174
L4463 -192
L4482 -211
L4500 -249
L4500 -286
L4482 -324
L4463 -342
L4425 -361
L4332 -361
L4275 -342
" />
<path d="M4144 -230
L4069 32
L3994 -155
L3919 32
L3844 -230
" />
<path d="M3694 32
L3694 -230
" />
<path d="M3694 -361
L3713 -342
L3694 -324
L3675 -342
L3694 -361
L3694 -324
" />
<path d="M3563 -230
L3413 -230
" />
<path d="M3507 -361
L3507 -24
L3488 13
L3451 32
L3413 32
" />
<path d="M3113 13
L3151 32
L3226 32
L3263 13
L3282 -5
L3301 -42
L3301 -155
L3282 -192
L3263 -211
L3226 -230
L3151 -230
L3113 -211
" />
<path d="M2944 32
L2944 -361
" />
<path d="M2776 32
L2776 -174
L2794 -211
L2832 -230
L2888 -230
L2926 -211
L2944 -192
" />
<path d="M2588 32
L2588 -361
L2457 -80
L2326 -361
L2326 32
" />
<path d="M2082 32
L2119 13
L2138 -5
L2157 -42
L2157 -155
L2138 -192
L2119 -211
L2082 -230
L2026 -230
L1988 -211
L1969 -192
L1951 -155
L1951 -42
L1969 -5
L1988 13
L2026 32
L2082 32
" />
<path d="M1613 -230
L1613 32
" />
<path d="M1782 -230
L1782 -24
L1763 13
L1726 32
L1669 32
L1632 13
L1613 -5
" />
<path d="M1426 -230
L1426 32
" />
<path d="M1426 -192
L1407 -211
L1370 -230
L1313 -230
L1276 -211
L1257 -174
L1257 32
" />
<path d="M1126 -230
L976 -230
" />
<path d="M1070 -361
L1070 -24
L1051 13
L1013 32
L976 32
" />
<path d="M3154 5055
L2760 5055
L2760 5149
L2779 5205
L2817 5243
L2854 5261
L2929 5280
L2985 5280
L3060 5261
L3098 5243
L3135 5205
L3154 5149
L3154 5055
" />
<path d="M3154 5449
L2760 5449
" />
<path d="M2760 5711
L2760 5786
L2779 5824
L2817 5861
L2892 5880
L3023 5880
L3098 5861
L3135 5824
L3154 5786
L3154 5711
L3135 5674
L3098 5636
L3023 5618
L2892 5618
L2817 5636
L2779 5674
L2760 5711
" />
<path d="M3154 6049
L2760 6049
L2760 6142
L2779 6199
L2817 6236
L2854 6255
L2929 6274
L2985 6274
L3060 6255
L3098 6236
L3135 6199
L3154 6142
L3154 6049
" />
<path d="M2948 6442
L2948 6574
" />
<path d="M3154 6630
L3154 6442
L2760 6442
L2760 6630
" />
<path d="M2257 5543
L1863 5543
L1863 5636
L1882 5693
L1919 5730
L1957 5749
L2032 5768
L2088 5768
L2163 5749
L2200 5730
L2238 5693
L2257 5636
L2257 5543
" />
<path d="M2257 6142
L2257 5918
" />
<path d="M2257 6030
L1863 6030
L1919 5993
L1957 5955
L1975 5918
" />
</g>
<g style="fill:#000000; fill-opacity:0.0; 
stroke:#000000; stroke-width:59.0551; stroke-opacity:1; 
stroke-linecap:round; stroke-linejoin:round;">
</g>
<g style="fill:#C2C200; fill-opacity:0.0; 
stroke:#C2C200; stroke-width:59.0551; stroke-opacity:1; 
stroke-linecap:round; stroke-linejoin:round;">
<path d="M253.937 588.937 A375 375 0.0 0 0 628.937 963.937 " />
<path d="M628.937 1593.94 A315 315 0.0 0 0 628.937 963.937 " />
<path d="M628.937 1593.94 A375 375 0.0 0 0 254.071 1978.93 " />
<path d="M2913.94 7803.94 A375 375 0.0 0 0 3288.94 7428.94 " />
<path d="M3918.94 7428.94 A375 375 0.0 0 0 4293.94 7803.94 " />
<path d="M3918.94 7428.94 A315 315 0.0 0 0 3288.94 7428.94 " />
<path d="M7803.94 6818.94 A375 375 0.0 0 0 7428.94 6443.94 " />
<path d="M7428.94 5813.94 A315 315 0.0 0 0 7428.94 6443.94 " />
<path d="M7428.94 5813.94 A375 375 0.0 0 0 7803.94 5438.94 " />
<path d="M7803 803
L7803 5438
" />
<path d="M2913 7803
L803 7803
" />
<path d="M5438 253
L578 253
" />
<path d="M5813.94 628.937 A375 375 0.0 0 0 5438.94 253.937 " />
<path d="M6818.94 253.937 A375 375 0.0 0 0 6443.94 628.937 " />
<path d="M5813.94 628.937 A315 315 0.0 0 0 6443.94 628.937 " />
<path d="M253.937 7253.94 A550 550 0.0 0 0 803.937 7803.94 " />
<path d="M7253.94 7803.94 A550 550 0.0 0 0 7803.94 7253.94 " />
<path d="M6818 253
L7253 253
" />
<path d="M253 7253
L253 1978
" />
<path d="M7253 7803
L4293 7803
" />
<path d="M7803 6818
L7803 7253
" />
<path d="M7803.94 803.937 A550 550 0.0 0 0 7253.94 253.937 " />
<path d="M578.937 253.937 A325 325 0.0 0 0 253.937 578.937 " />
</g> 
</svg>
