<?xml version="1.0" standalone="no"?>
 <!DOCTYPE svg PUBLIC "-//W3C//DTD SVG 1.1//EN" 
 "http://www.w3.org/Graphics/SVG/1.1/DTD/svg11.dtd"> 
<svg xmlns="http://www.w3.org/2000/svg" version="1.1" 
    width="29.7002cm" height="21.0007cm" viewBox="0 0 116930 82680 ">
<title>SVG Picture created as WoodElf_02-F.SilkS.svg date 2019/01/20 14:09:50 </title>
  <desc>Picture generated by PCBNEW </desc>
<g style="fill:#000000; fill-opacity:1;stroke:#000000; stroke-opacity:1;
stroke-linecap:round; stroke-linejoin:round; "
 transform="translate(0 0) scale(1 1)">
</g>
<g style="fill:#000000; fill-opacity:0.0; 
stroke:#000000; stroke-width:-0.000393701; stroke-opacity:1; 
stroke-linecap:round; stroke-linejoin:round;">
</g>
<g style="fill:#000000; fill-opacity:0.0; 
stroke:#000000; stroke-width:39.3701; stroke-opacity:1; 
stroke-linecap:round; stroke-linejoin:round;">
</g>
<g style="fill:#000000; fill-opacity:0.0; 
stroke:#000000; stroke-width:59.0551; stroke-opacity:1; 
stroke-linecap:round; stroke-linejoin:round;">
<rect x="69685.9" y="65357.2" width="42519.7" height="12598.4" rx="0" />
</g>
<g style="fill:#000000; fill-opacity:0.0; 
stroke:#000000; stroke-width:39.3701; stroke-opacity:1; 
stroke-linecap:round; stroke-linejoin:round;">
</g>
<g style="fill:#000000; fill-opacity:0.0; 
stroke:#000000; stroke-width:59.0551; stroke-opacity:1; 
stroke-linecap:round; stroke-linejoin:round;">
<rect x="3937.01" y="3937.01" width="109056" height="74806" rx="0" />
</g>
<g style="fill:#000000; fill-opacity:0.0; 
stroke:#000000; stroke-width:39.3701; stroke-opacity:1; 
stroke-linecap:round; stroke-linejoin:round;">
</g>
<g style="fill:#000000; fill-opacity:0.0; 
stroke:#000000; stroke-width:59.0551; stroke-opacity:1; 
stroke-linecap:round; stroke-linejoin:round;">
<rect x="4724.41" y="4724.41" width="107481" height="73231.2" rx="0" />
</g>
<g style="fill:#000000; fill-opacity:0.0; 
stroke:#000000; stroke-width:39.3701; stroke-opacity:1; 
stroke-linecap:round; stroke-linejoin:round;">
</g>
<g style="fill:#000000; fill-opacity:0.0; 
stroke:#000000; stroke-width:59.0551; stroke-opacity:1; 
stroke-linecap:round; stroke-linejoin:round;">
<path d="M23622 4724
L23622 3937
" />
</g>
<g style="fill:#000000; fill-opacity:0.0; 
stroke:#000000; stroke-width:39.3701; stroke-opacity:1; 
stroke-linecap:round; stroke-linejoin:round;">
</g>
<g style="fill:#000000; fill-opacity:0.0; 
stroke:#000000; stroke-width:59.0551; stroke-opacity:1; 
stroke-linecap:round; stroke-linejoin:round;">
<path d="M43307 4724
L43307 3937
" />
</g>
<g style="fill:#000000; fill-opacity:0.0; 
stroke:#000000; stroke-width:39.3701; stroke-opacity:1; 
stroke-linecap:round; stroke-linejoin:round;">
</g>
<g style="fill:#000000; fill-opacity:0.0; 
stroke:#000000; stroke-width:59.0551; stroke-opacity:1; 
stroke-linecap:round; stroke-linejoin:round;">
<path d="M62992 4724
L62992 3937
" />
</g>
<g style="fill:#000000; fill-opacity:0.0; 
stroke:#000000; stroke-width:39.3701; stroke-opacity:1; 
stroke-linecap:round; stroke-linejoin:round;">
</g>
<g style="fill:#000000; fill-opacity:0.0; 
stroke:#000000; stroke-width:59.0551; stroke-opacity:1; 
stroke-linecap:round; stroke-linejoin:round;">
<path d="M82677 4724
L82677 3937
" />
</g>
<g style="fill:#000000; fill-opacity:0.0; 
stroke:#000000; stroke-width:39.3701; stroke-opacity:1; 
stroke-linecap:round; stroke-linejoin:round;">
</g>
<g style="fill:#000000; fill-opacity:0.0; 
stroke:#000000; stroke-width:59.0551; stroke-opacity:1; 
stroke-linecap:round; stroke-linejoin:round;">
<path d="M102362 4724
L102362 3937
" />
</g>
<g style="fill:#000000; fill-opacity:0.0; 
stroke:#000000; stroke-width:39.3701; stroke-opacity:1; 
stroke-linecap:round; stroke-linejoin:round;">
</g>
<g style="fill:#000000; fill-opacity:0.0; 
stroke:#000000; stroke-width:59.0551; stroke-opacity:1; 
stroke-linecap:round; stroke-linejoin:round;">
<path d="M14199 4562
L13906 4562
" />
<path d="M14052 4562
L14052 4050
L14004 4123
L13955 4172
L13906 4196
" />
</g>
<g style="fill:#000000; fill-opacity:0.0; 
stroke:#000000; stroke-width:39.3701; stroke-opacity:1; 
stroke-linecap:round; stroke-linejoin:round;">
</g>
<g style="fill:#000000; fill-opacity:0.0; 
stroke:#000000; stroke-width:59.0551; stroke-opacity:1; 
stroke-linecap:round; stroke-linejoin:round;">
<path d="M33591 4099
L33615 4074
L33664 4050
L33786 4050
L33835 4074
L33859 4099
L33884 4147
L33884 4196
L33859 4269
L33567 4562
L33884 4562
" />
</g>
<g style="fill:#000000; fill-opacity:0.0; 
stroke:#000000; stroke-width:39.3701; stroke-opacity:1; 
stroke-linecap:round; stroke-linejoin:round;">
</g>
<g style="fill:#000000; fill-opacity:0.0; 
stroke:#000000; stroke-width:59.0551; stroke-opacity:1; 
stroke-linecap:round; stroke-linejoin:round;">
<path d="M53252 4050
L53569 4050
L53398 4245
L53471 4245
L53520 4269
L53544 4294
L53569 4342
L53569 4464
L53544 4513
L53520 4537
L53471 4562
L53325 4562
L53276 4537
L53252 4513
" />
</g>
<g style="fill:#000000; fill-opacity:0.0; 
stroke:#000000; stroke-width:39.3701; stroke-opacity:1; 
stroke-linecap:round; stroke-linejoin:round;">
</g>
<g style="fill:#000000; fill-opacity:0.0; 
stroke:#000000; stroke-width:59.0551; stroke-opacity:1; 
stroke-linecap:round; stroke-linejoin:round;">
<path d="M73205 4221
L73205 4562
" />
<path d="M73083 4026
L72961 4391
L73278 4391
" />
</g>
<g style="fill:#000000; fill-opacity:0.0; 
stroke:#000000; stroke-width:39.3701; stroke-opacity:1; 
stroke-linecap:round; stroke-linejoin:round;">
</g>
<g style="fill:#000000; fill-opacity:0.0; 
stroke:#000000; stroke-width:59.0551; stroke-opacity:1; 
stroke-linecap:round; stroke-linejoin:round;">
<path d="M92914 4050
L92671 4050
L92646 4294
L92671 4269
L92719 4245
L92841 4245
L92890 4269
L92914 4294
L92939 4342
L92939 4464
L92914 4513
L92890 4537
L92841 4562
L92719 4562
L92671 4537
L92646 4513
" />
</g>
<g style="fill:#000000; fill-opacity:0.0; 
stroke:#000000; stroke-width:39.3701; stroke-opacity:1; 
stroke-linecap:round; stroke-linejoin:round;">
</g>
<g style="fill:#000000; fill-opacity:0.0; 
stroke:#000000; stroke-width:59.0551; stroke-opacity:1; 
stroke-linecap:round; stroke-linejoin:round;">
<path d="M112575 4050
L112477 4050
L112429 4074
L112404 4099
L112356 4172
L112331 4269
L112331 4464
L112356 4513
L112380 4537
L112429 4562
L112526 4562
L112575 4537
L112599 4513
L112624 4464
L112624 4342
L112599 4294
L112575 4269
L112526 4245
L112429 4245
L112380 4269
L112356 4294
L112331 4342
" />
</g>
<g style="fill:#000000; fill-opacity:0.0; 
stroke:#000000; stroke-width:39.3701; stroke-opacity:1; 
stroke-linecap:round; stroke-linejoin:round;">
</g>
<g style="fill:#000000; fill-opacity:0.0; 
stroke:#000000; stroke-width:59.0551; stroke-opacity:1; 
stroke-linecap:round; stroke-linejoin:round;">
<path d="M23622 77955
L23622 78742
" />
</g>
<g style="fill:#000000; fill-opacity:0.0; 
stroke:#000000; stroke-width:39.3701; stroke-opacity:1; 
stroke-linecap:round; stroke-linejoin:round;">
</g>
<g style="fill:#000000; fill-opacity:0.0; 
stroke:#000000; stroke-width:59.0551; stroke-opacity:1; 
stroke-linecap:round; stroke-linejoin:round;">
<path d="M43307 77955
L43307 78742
" />
</g>
<g style="fill:#000000; fill-opacity:0.0; 
stroke:#000000; stroke-width:39.3701; stroke-opacity:1; 
stroke-linecap:round; stroke-linejoin:round;">
</g>
<g style="fill:#000000; fill-opacity:0.0; 
stroke:#000000; stroke-width:59.0551; stroke-opacity:1; 
stroke-linecap:round; stroke-linejoin:round;">
<path d="M62992 77955
L62992 78742
" />
</g>
<g style="fill:#000000; fill-opacity:0.0; 
stroke:#000000; stroke-width:39.3701; stroke-opacity:1; 
stroke-linecap:round; stroke-linejoin:round;">
</g>
<g style="fill:#000000; fill-opacity:0.0; 
stroke:#000000; stroke-width:59.0551; stroke-opacity:1; 
stroke-linecap:round; stroke-linejoin:round;">
<path d="M82677 77955
L82677 78742
" />
</g>
<g style="fill:#000000; fill-opacity:0.0; 
stroke:#000000; stroke-width:39.3701; stroke-opacity:1; 
stroke-linecap:round; stroke-linejoin:round;">
</g>
<g style="fill:#000000; fill-opacity:0.0; 
stroke:#000000; stroke-width:59.0551; stroke-opacity:1; 
stroke-linecap:round; stroke-linejoin:round;">
<path d="M102362 77955
L102362 78742
" />
</g>
<g style="fill:#000000; fill-opacity:0.0; 
stroke:#000000; stroke-width:39.3701; stroke-opacity:1; 
stroke-linecap:round; stroke-linejoin:round;">
</g>
<g style="fill:#000000; fill-opacity:0.0; 
stroke:#000000; stroke-width:59.0551; stroke-opacity:1; 
stroke-linecap:round; stroke-linejoin:round;">
<path d="M14199 78580
L13906 78580
" />
<path d="M14052 78580
L14052 78069
L14004 78142
L13955 78190
L13906 78215
" />
</g>
<g style="fill:#000000; fill-opacity:0.0; 
stroke:#000000; stroke-width:39.3701; stroke-opacity:1; 
stroke-linecap:round; stroke-linejoin:round;">
</g>
<g style="fill:#000000; fill-opacity:0.0; 
stroke:#000000; stroke-width:59.0551; stroke-opacity:1; 
stroke-linecap:round; stroke-linejoin:round;">
<path d="M33591 78117
L33615 78093
L33664 78069
L33786 78069
L33835 78093
L33859 78117
L33884 78166
L33884 78215
L33859 78288
L33567 78580
L33884 78580
" />
</g>
<g style="fill:#000000; fill-opacity:0.0; 
stroke:#000000; stroke-width:39.3701; stroke-opacity:1; 
stroke-linecap:round; stroke-linejoin:round;">
</g>
<g style="fill:#000000; fill-opacity:0.0; 
stroke:#000000; stroke-width:59.0551; stroke-opacity:1; 
stroke-linecap:round; stroke-linejoin:round;">
<path d="M53252 78069
L53569 78069
L53398 78263
L53471 78263
L53520 78288
L53544 78312
L53569 78361
L53569 78483
L53544 78532
L53520 78556
L53471 78580
L53325 78580
L53276 78556
L53252 78532
" />
</g>
<g style="fill:#000000; fill-opacity:0.0; 
stroke:#000000; stroke-width:39.3701; stroke-opacity:1; 
stroke-linecap:round; stroke-linejoin:round;">
</g>
<g style="fill:#000000; fill-opacity:0.0; 
stroke:#000000; stroke-width:59.0551; stroke-opacity:1; 
stroke-linecap:round; stroke-linejoin:round;">
<path d="M73205 78239
L73205 78580
" />
<path d="M73083 78044
L72961 78410
L73278 78410
" />
</g>
<g style="fill:#000000; fill-opacity:0.0; 
stroke:#000000; stroke-width:39.3701; stroke-opacity:1; 
stroke-linecap:round; stroke-linejoin:round;">
</g>
<g style="fill:#000000; fill-opacity:0.0; 
stroke:#000000; stroke-width:59.0551; stroke-opacity:1; 
stroke-linecap:round; stroke-linejoin:round;">
<path d="M92914 78069
L92671 78069
L92646 78312
L92671 78288
L92719 78263
L92841 78263
L92890 78288
L92914 78312
L92939 78361
L92939 78483
L92914 78532
L92890 78556
L92841 78580
L92719 78580
L92671 78556
L92646 78532
" />
</g>
<g style="fill:#000000; fill-opacity:0.0; 
stroke:#000000; stroke-width:39.3701; stroke-opacity:1; 
stroke-linecap:round; stroke-linejoin:round;">
</g>
<g style="fill:#000000; fill-opacity:0.0; 
stroke:#000000; stroke-width:59.0551; stroke-opacity:1; 
stroke-linecap:round; stroke-linejoin:round;">
<path d="M112575 78069
L112477 78069
L112429 78093
L112404 78117
L112356 78190
L112331 78288
L112331 78483
L112356 78532
L112380 78556
L112429 78580
L112526 78580
L112575 78556
L112599 78532
L112624 78483
L112624 78361
L112599 78312
L112575 78288
L112526 78263
L112429 78263
L112380 78288
L112356 78312
L112331 78361
" />
</g>
<g style="fill:#000000; fill-opacity:0.0; 
stroke:#000000; stroke-width:39.3701; stroke-opacity:1; 
stroke-linecap:round; stroke-linejoin:round;">
</g>
<g style="fill:#000000; fill-opacity:0.0; 
stroke:#000000; stroke-width:59.0551; stroke-opacity:1; 
stroke-linecap:round; stroke-linejoin:round;">
<path d="M3937 23622
L4724 23622
" />
</g>
<g style="fill:#000000; fill-opacity:0.0; 
stroke:#000000; stroke-width:39.3701; stroke-opacity:1; 
stroke-linecap:round; stroke-linejoin:round;">
</g>
<g style="fill:#000000; fill-opacity:0.0; 
stroke:#000000; stroke-width:59.0551; stroke-opacity:1; 
stroke-linecap:round; stroke-linejoin:round;">
<path d="M3937 43307
L4724 43307
" />
</g>
<g style="fill:#000000; fill-opacity:0.0; 
stroke:#000000; stroke-width:39.3701; stroke-opacity:1; 
stroke-linecap:round; stroke-linejoin:round;">
</g>
<g style="fill:#000000; fill-opacity:0.0; 
stroke:#000000; stroke-width:59.0551; stroke-opacity:1; 
stroke-linecap:round; stroke-linejoin:round;">
<path d="M3937 62992
L4724 62992
" />
</g>
<g style="fill:#000000; fill-opacity:0.0; 
stroke:#000000; stroke-width:39.3701; stroke-opacity:1; 
stroke-linecap:round; stroke-linejoin:round;">
</g>
<g style="fill:#000000; fill-opacity:0.0; 
stroke:#000000; stroke-width:59.0551; stroke-opacity:1; 
stroke-linecap:round; stroke-linejoin:round;">
<path d="M4208 13864
L4452 13864
" />
<path d="M4160 14011
L4330 13499
L4501 14011
" />
</g>
<g style="fill:#000000; fill-opacity:0.0; 
stroke:#000000; stroke-width:39.3701; stroke-opacity:1; 
stroke-linecap:round; stroke-linejoin:round;">
</g>
<g style="fill:#000000; fill-opacity:0.0; 
stroke:#000000; stroke-width:59.0551; stroke-opacity:1; 
stroke-linecap:round; stroke-linejoin:round;">
<path d="M4367 33428
L4440 33452
L4464 33476
L4489 33525
L4489 33598
L4464 33647
L4440 33671
L4391 33696
L4196 33696
L4196 33184
L4367 33184
L4416 33208
L4440 33233
L4464 33281
L4464 33330
L4440 33379
L4416 33403
L4367 33428
L4196 33428
" />
</g>
<g style="fill:#000000; fill-opacity:0.0; 
stroke:#000000; stroke-width:39.3701; stroke-opacity:1; 
stroke-linecap:round; stroke-linejoin:round;">
</g>
<g style="fill:#000000; fill-opacity:0.0; 
stroke:#000000; stroke-width:59.0551; stroke-opacity:1; 
stroke-linecap:round; stroke-linejoin:round;">
<path d="M4489 53332
L4464 53356
L4391 53381
L4342 53381
L4269 53356
L4221 53308
L4196 53259
L4172 53161
L4172 53088
L4196 52991
L4221 52942
L4269 52893
L4342 52869
L4391 52869
L4464 52893
L4489 52918
" />
</g>
<g style="fill:#000000; fill-opacity:0.0; 
stroke:#000000; stroke-width:39.3701; stroke-opacity:1; 
stroke-linecap:round; stroke-linejoin:round;">
</g>
<g style="fill:#000000; fill-opacity:0.0; 
stroke:#000000; stroke-width:59.0551; stroke-opacity:1; 
stroke-linecap:round; stroke-linejoin:round;">
<path d="M4196 73066
L4196 72554
L4318 72554
L4391 72578
L4440 72627
L4464 72676
L4489 72773
L4489 72846
L4464 72944
L4440 72993
L4391 73041
L4318 73066
L4196 73066
" />
</g>
<g style="fill:#000000; fill-opacity:0.0; 
stroke:#000000; stroke-width:39.3701; stroke-opacity:1; 
stroke-linecap:round; stroke-linejoin:round;">
</g>
<g style="fill:#000000; fill-opacity:0.0; 
stroke:#000000; stroke-width:59.0551; stroke-opacity:1; 
stroke-linecap:round; stroke-linejoin:round;">
<path d="M112992 23622
L112205 23622
" />
</g>
<g style="fill:#000000; fill-opacity:0.0; 
stroke:#000000; stroke-width:39.3701; stroke-opacity:1; 
stroke-linecap:round; stroke-linejoin:round;">
</g>
<g style="fill:#000000; fill-opacity:0.0; 
stroke:#000000; stroke-width:59.0551; stroke-opacity:1; 
stroke-linecap:round; stroke-linejoin:round;">
<path d="M112992 43307
L112205 43307
" />
</g>
<g style="fill:#000000; fill-opacity:0.0; 
stroke:#000000; stroke-width:39.3701; stroke-opacity:1; 
stroke-linecap:round; stroke-linejoin:round;">
</g>
<g style="fill:#000000; fill-opacity:0.0; 
stroke:#000000; stroke-width:59.0551; stroke-opacity:1; 
stroke-linecap:round; stroke-linejoin:round;">
<path d="M112992 62992
L112205 62992
" />
</g>
<g style="fill:#000000; fill-opacity:0.0; 
stroke:#000000; stroke-width:39.3701; stroke-opacity:1; 
stroke-linecap:round; stroke-linejoin:round;">
</g>
<g style="fill:#000000; fill-opacity:0.0; 
stroke:#000000; stroke-width:59.0551; stroke-opacity:1; 
stroke-linecap:round; stroke-linejoin:round;">
<path d="M112477 13864
L112721 13864
" />
<path d="M112428 14011
L112599 13499
L112769 14011
" />
</g>
<g style="fill:#000000; fill-opacity:0.0; 
stroke:#000000; stroke-width:39.3701; stroke-opacity:1; 
stroke-linecap:round; stroke-linejoin:round;">
</g>
<g style="fill:#000000; fill-opacity:0.0; 
stroke:#000000; stroke-width:59.0551; stroke-opacity:1; 
stroke-linecap:round; stroke-linejoin:round;">
<path d="M112635 33428
L112708 33452
L112733 33476
L112757 33525
L112757 33598
L112733 33647
L112708 33671
L112660 33696
L112465 33696
L112465 33184
L112635 33184
L112684 33208
L112708 33233
L112733 33281
L112733 33330
L112708 33379
L112684 33403
L112635 33428
L112465 33428
" />
</g>
<g style="fill:#000000; fill-opacity:0.0; 
stroke:#000000; stroke-width:39.3701; stroke-opacity:1; 
stroke-linecap:round; stroke-linejoin:round;">
</g>
<g style="fill:#000000; fill-opacity:0.0; 
stroke:#000000; stroke-width:59.0551; stroke-opacity:1; 
stroke-linecap:round; stroke-linejoin:round;">
<path d="M112757 53332
L112733 53356
L112660 53381
L112611 53381
L112538 53356
L112489 53308
L112465 53259
L112440 53161
L112440 53088
L112465 52991
L112489 52942
L112538 52893
L112611 52869
L112660 52869
L112733 52893
L112757 52918
" />
</g>
<g style="fill:#000000; fill-opacity:0.0; 
stroke:#000000; stroke-width:39.3701; stroke-opacity:1; 
stroke-linecap:round; stroke-linejoin:round;">
</g>
<g style="fill:#000000; fill-opacity:0.0; 
stroke:#000000; stroke-width:59.0551; stroke-opacity:1; 
stroke-linecap:round; stroke-linejoin:round;">
<path d="M112465 73066
L112465 72554
L112587 72554
L112660 72578
L112708 72627
L112733 72676
L112757 72773
L112757 72846
L112733 72944
L112708 72993
L112660 73041
L112587 73066
L112465 73066
" />
</g>
<g style="fill:#000000; fill-opacity:0.0; 
stroke:#000000; stroke-width:39.3701; stroke-opacity:1; 
stroke-linecap:round; stroke-linejoin:round;">
</g>
<g style="fill:#000000; fill-opacity:0.0; 
stroke:#000000; stroke-width:59.0551; stroke-opacity:1; 
stroke-linecap:round; stroke-linejoin:round;">
<path d="M78911 76293
L78911 75703
L79051 75703
L79136 75731
L79192 75787
L79220 75843
L79248 75956
L79248 76040
L79220 76153
L79192 76209
L79136 76265
L79051 76293
L78911 76293
" />
<path d="M79754 76293
L79754 75984
L79726 75928
L79670 75899
L79557 75899
L79501 75928
" />
<path d="M79754 76265
L79698 76293
L79557 76293
L79501 76265
L79473 76209
L79473 76153
L79501 76096
L79557 76068
L79698 76068
L79754 76040
" />
<path d="M79951 75899
L80176 75899
" />
<path d="M80036 75703
L80036 76209
L80064 76265
L80120 76293
L80176 76293
" />
<path d="M80598 76265
L80542 76293
L80429 76293
L80373 76265
L80345 76209
L80345 75984
L80373 75928
L80429 75899
L80542 75899
L80598 75928
L80626 75984
L80626 76040
L80345 76096
" />
<path d="M80879 76237
L80907 76265
L80879 76293
L80851 76265
L80879 76237
L80879 76293
" />
<path d="M80879 75928
L80907 75956
L80879 75984
L80851 75956
L80879 75928
L80879 75984
" />
</g>
<g style="fill:#000000; fill-opacity:0.0; 
stroke:#000000; stroke-width:39.3701; stroke-opacity:1; 
stroke-linecap:round; stroke-linejoin:round;">
</g>
<g style="fill:#000000; fill-opacity:0.0; 
stroke:#000000; stroke-width:59.0551; stroke-opacity:1; 
stroke-linecap:round; stroke-linejoin:round;">
<path d="M69685 76577
L112205 76577
" />
</g>
<g style="fill:#000000; fill-opacity:0.0; 
stroke:#000000; stroke-width:39.3701; stroke-opacity:1; 
stroke-linecap:round; stroke-linejoin:round;">
</g>
<g style="fill:#000000; fill-opacity:0.0; 
stroke:#000000; stroke-width:59.0551; stroke-opacity:1; 
stroke-linecap:round; stroke-linejoin:round;">
<path d="M70249 77395
L70249 76805
" />
<path d="M70587 77395
L70334 77058
" />
<path d="M70587 76805
L70249 77142
" />
<path d="M70840 77395
L70840 77002
" />
<path d="M70840 76805
L70812 76833
L70840 76861
L70868 76833
L70840 76805
L70840 76861
" />
<path d="M71458 77339
L71430 77367
L71346 77395
L71290 77395
L71205 77367
L71149 77311
L71121 77255
L71093 77142
L71093 77058
L71121 76946
L71149 76889
L71205 76833
L71290 76805
L71346 76805
L71430 76833
L71458 76861
" />
<path d="M71965 77395
L71965 77086
L71937 77030
L71880 77002
L71768 77002
L71712 77030
" />
<path d="M71965 77367
L71908 77395
L71768 77395
L71712 77367
L71683 77311
L71683 77255
L71712 77199
L71768 77171
L71908 77171
L71965 77142
" />
<path d="M72499 77395
L72499 76805
" />
<path d="M72499 77367
L72443 77395
L72330 77395
L72274 77367
L72246 77339
L72218 77283
L72218 77114
L72246 77058
L72274 77030
L72330 77002
L72443 77002
L72499 77030
" />
<path d="M73230 77086
L73427 77086
" />
<path d="M73511 77395
L73230 77395
L73230 76805
L73511 76805
" />
<path d="M73764 77339
L73793 77367
L73764 77395
L73736 77367
L73764 77339
L73764 77395
" />
<path d="M74046 77395
L74046 76805
L74186 76805
L74271 76833
L74327 76889
L74355 76946
L74383 77058
L74383 77142
L74355 77255
L74327 77311
L74271 77367
L74186 77395
L74046 77395
" />
<path d="M74636 77339
L74664 77367
L74636 77395
L74608 77367
L74636 77339
L74636 77395
" />
<path d="M74889 77227
L75171 77227
" />
<path d="M74833 77395
L75030 76805
L75227 77395
" />
<path d="M75424 77339
L75452 77367
L75424 77395
L75395 77367
L75424 77339
L75424 77395
" />
<path d="M76605 77395
L76605 76805
" />
<path d="M76661 77171
L76830 77395
" />
<path d="M76830 77002
L76605 77227
" />
<path d="M77083 77395
L77083 77002
" />
<path d="M77083 76805
L77055 76833
L77083 76861
L77111 76833
L77083 76805
L77083 76861
" />
<path d="M77617 77367
L77561 77395
L77448 77395
L77392 77367
L77364 77339
L77336 77283
L77336 77114
L77364 77058
L77392 77030
L77448 77002
L77561 77002
L77617 77030
" />
<path d="M78123 77395
L78123 77086
L78095 77030
L78039 77002
L77926 77002
L77870 77030
" />
<path d="M78123 77367
L78067 77395
L77926 77395
L77870 77367
L77842 77311
L77842 77255
L77870 77199
L77926 77171
L78067 77171
L78123 77142
" />
<path d="M78658 77395
L78658 76805
" />
<path d="M78658 77367
L78601 77395
L78489 77395
L78433 77367
L78404 77339
L78376 77283
L78376 77114
L78404 77058
L78433 77030
L78489 77002
L78601 77002
L78658 77030
" />
<path d="M79557 77620
L79529 77592
L79473 77508
L79445 77452
L79417 77367
L79389 77227
L79389 77114
L79417 76974
L79445 76889
L79473 76833
L79529 76749
L79557 76721
" />
<path d="M80064 76805
L79782 76805
L79754 77086
L79782 77058
L79839 77030
L79979 77030
L80036 77058
L80064 77086
L80092 77142
L80092 77283
L80064 77339
L80036 77367
L79979 77395
L79839 77395
L79782 77367
L79754 77339
" />
<path d="M80345 77339
L80373 77367
L80345 77395
L80317 77367
L80345 77339
L80345 77395
" />
<path d="M80739 76805
L80795 76805
L80851 76833
L80879 76861
L80907 76917
L80935 77030
L80935 77171
L80907 77283
L80879 77339
L80851 77367
L80795 77395
L80739 77395
L80682 77367
L80654 77339
L80626 77283
L80598 77171
L80598 77030
L80626 76917
L80654 76861
L80682 76833
L80739 76805
" />
<path d="M81188 77339
L81217 77367
L81188 77395
L81160 77367
L81188 77339
L81188 77395
" />
<path d="M81779 77395
L81442 77395
" />
<path d="M81610 77395
L81610 76805
L81554 76889
L81498 76946
L81442 76974
" />
<path d="M81976 77620
L82004 77592
L82060 77508
L82088 77452
L82117 77367
L82145 77227
L82145 77114
L82117 76974
L82088 76889
L82060 76833
L82004 76749
L81976 76721
" />
<path d="M82426 77171
L82876 77171
" />
<path d="M83101 76805
L83466 76805
L83269 77030
L83354 77030
L83410 77058
L83438 77086
L83466 77142
L83466 77283
L83438 77339
L83410 77367
L83354 77395
L83185 77395
L83129 77367
L83101 77339
" />
</g>
<g style="fill:#000000; fill-opacity:0.0; 
stroke:#000000; stroke-width:39.3701; stroke-opacity:1; 
stroke-linecap:round; stroke-linejoin:round;">
</g>
<g style="fill:#000000; fill-opacity:0.0; 
stroke:#000000; stroke-width:59.0551; stroke-opacity:1; 
stroke-linecap:round; stroke-linejoin:round;">
<path d="M69685 75396
L112205 75396
" />
</g>
<g style="fill:#000000; fill-opacity:0.0; 
stroke:#000000; stroke-width:39.3701; stroke-opacity:1; 
stroke-linecap:round; stroke-linejoin:round;">
</g>
<g style="fill:#000000; fill-opacity:0.0; 
stroke:#000000; stroke-width:118.11; stroke-opacity:1; 
stroke-linecap:round; stroke-linejoin:round;">
<path d="M104099 76293
L103902 76012
" />
<path d="M103761 76293
L103761 75703
L103986 75703
L104042 75731
L104070 75759
L104099 75815
L104099 75899
L104070 75956
L104042 75984
L103986 76012
L103761 76012
" />
<path d="M104577 76265
L104520 76293
L104408 76293
L104352 76265
L104323 76209
L104323 75984
L104352 75928
L104408 75899
L104520 75899
L104577 75928
L104605 75984
L104605 76040
L104323 76096
" />
<path d="M104802 75899
L104942 76293
L105083 75899
" />
<path d="M105308 76237
L105336 76265
L105308 76293
L105280 76265
L105308 76237
L105308 76293
" />
<path d="M105308 75928
L105336 75956
L105308 75984
L105280 75956
L105308 75928
L105308 75984
" />
</g>
<g style="fill:#000000; fill-opacity:0.0; 
stroke:#000000; stroke-width:39.3701; stroke-opacity:1; 
stroke-linecap:round; stroke-linejoin:round;">
</g>
<g style="fill:#000000; fill-opacity:0.0; 
stroke:#000000; stroke-width:59.0551; stroke-opacity:1; 
stroke-linecap:round; stroke-linejoin:round;">
<path d="M70221 76265
L70305 76293
L70446 76293
L70502 76265
L70530 76237
L70559 76181
L70559 76124
L70530 76068
L70502 76040
L70446 76012
L70334 75984
L70277 75956
L70249 75928
L70221 75871
L70221 75815
L70249 75759
L70277 75731
L70334 75703
L70474 75703
L70559 75731
" />
<path d="M70812 76293
L70812 75899
" />
<path d="M70812 75703
L70784 75731
L70812 75759
L70840 75731
L70812 75703
L70812 75759
" />
<path d="M71037 75899
L71346 75899
L71037 76293
L71346 76293
" />
<path d="M71796 76265
L71740 76293
L71627 76293
L71571 76265
L71543 76209
L71543 75984
L71571 75928
L71627 75899
L71740 75899
L71796 75928
L71824 75984
L71824 76040
L71543 76096
" />
<path d="M72077 76237
L72105 76265
L72077 76293
L72049 76265
L72077 76237
L72077 76293
" />
<path d="M72077 75928
L72105 75956
L72077 75984
L72049 75956
L72077 75928
L72077 75984
" />
<path d="M72780 76124
L73061 76124
" />
<path d="M72724 76293
L72921 75703
L73118 76293
" />
<path d="M73568 75899
L73568 76293
" />
<path d="M73427 75674
L73286 76096
L73652 76096
" />
</g>
<g style="fill:#000000; fill-opacity:0.0; 
stroke:#000000; stroke-width:39.3701; stroke-opacity:1; 
stroke-linecap:round; stroke-linejoin:round;">
</g>
<g style="fill:#000000; fill-opacity:0.0; 
stroke:#000000; stroke-width:59.0551; stroke-opacity:1; 
stroke-linecap:round; stroke-linejoin:round;">
<path d="M103714 77395
L103714 76805
" />
<path d="M104248 77395
L104248 76805
" />
<path d="M104248 77367
L104192 77395
L104079 77395
L104023 77367
L103995 77339
L103967 77283
L103967 77114
L103995 77058
L104023 77030
L104079 77002
L104192 77002
L104248 77030
" />
<path d="M104529 77339
L104557 77367
L104529 77395
L104501 77367
L104529 77339
L104529 77395
" />
<path d="M104529 77030
L104557 77058
L104529 77086
L104501 77058
L104529 77030
L104529 77086
" />
<path d="M105570 77395
L105232 77395
" />
<path d="M105401 77395
L105401 76805
L105345 76889
L105289 76946
L105232 76974
" />
<path d="M106245 76777
L105739 77536
" />
<path d="M106751 77395
L106413 77395
" />
<path d="M106582 77395
L106582 76805
L106526 76889
L106470 76946
L106413 76974
" />
</g>
<g style="fill:#000000; fill-opacity:0.0; 
stroke:#000000; stroke-width:39.3701; stroke-opacity:1; 
stroke-linecap:round; stroke-linejoin:round;">
</g>
<g style="fill:#000000; fill-opacity:0.0; 
stroke:#000000; stroke-width:59.0551; stroke-opacity:1; 
stroke-linecap:round; stroke-linejoin:round;">
<path d="M69685 73821
L112205 73821
" />
</g>
<g style="fill:#000000; fill-opacity:0.0; 
stroke:#000000; stroke-width:39.3701; stroke-opacity:1; 
stroke-linecap:round; stroke-linejoin:round;">
</g>
<g style="fill:#000000; fill-opacity:0.0; 
stroke:#000000; stroke-width:157.48; stroke-opacity:1; 
stroke-linecap:round; stroke-linejoin:round;">
<path d="M70360 74099
L70810 74099
" />
<path d="M70486 74886
L70585 74099
" />
<path d="M70974 74886
L71039 74361
" />
<path d="M71072 74099
L71030 74136
L71063 74174
L71105 74136
L71072 74099
L71063 74174
" />
<path d="M71302 74361
L71602 74361
" />
<path d="M71447 74099
L71363 74774
L71391 74849
L71461 74886
L71536 74886
" />
<path d="M71911 74886
L71841 74849
L71813 74774
L71897 74099
" />
<path d="M72516 74849
L72436 74886
L72286 74886
L72216 74849
L72187 74774
L72225 74474
L72272 74399
L72352 74361
L72501 74361
L72572 74399
L72600 74474
L72591 74549
L72206 74624
" />
<path d="M72895 74811
L72928 74849
L72886 74886
L72853 74849
L72895 74811
L72886 74886
" />
<path d="M72947 74399
L72980 74436
L72937 74474
L72905 74436
L72947 74399
L72937 74474
" />
</g>
<g style="fill:#000000; fill-opacity:0.0; 
stroke:#000000; stroke-width:39.3701; stroke-opacity:1; 
stroke-linecap:round; stroke-linejoin:round;">
</g>
<g style="fill:#000000; fill-opacity:0.0; 
stroke:#000000; stroke-width:59.0551; stroke-opacity:1; 
stroke-linecap:round; stroke-linejoin:round;">
<path d="M70446 73070
L70249 73070
" />
<path d="M70249 73380
L70249 72789
L70530 72789
" />
<path d="M70755 73380
L70755 72986
" />
<path d="M70755 72789
L70727 72817
L70755 72845
L70784 72817
L70755 72789
L70755 72845
" />
<path d="M71121 73380
L71065 73352
L71037 73295
L71037 72789
" />
<path d="M71571 73352
L71515 73380
L71402 73380
L71346 73352
L71318 73295
L71318 73070
L71346 73014
L71402 72986
L71515 72986
L71571 73014
L71599 73070
L71599 73127
L71318 73183
" />
<path d="M71852 73323
L71880 73352
L71852 73380
L71824 73352
L71852 73323
L71852 73380
" />
<path d="M71852 73014
L71880 73042
L71852 73070
L71824 73042
L71852 73014
L71852 73070
" />
<path d="M72527 72789
L72668 73380
L72780 72958
L72893 73380
L73033 72789
" />
<path d="M73343 73380
L73286 73352
L73258 73323
L73230 73267
L73230 73099
L73258 73042
L73286 73014
L73343 72986
L73427 72986
L73483 73014
L73511 73042
L73539 73099
L73539 73267
L73511 73323
L73483 73352
L73427 73380
L73343 73380
" />
<path d="M73877 73380
L73821 73352
L73793 73323
L73764 73267
L73764 73099
L73793 73042
L73821 73014
L73877 72986
L73961 72986
L74018 73014
L74046 73042
L74074 73099
L74074 73267
L74046 73323
L74018 73352
L73961 73380
L73877 73380
" />
<path d="M74580 73380
L74580 72789
" />
<path d="M74580 73352
L74524 73380
L74411 73380
L74355 73352
L74327 73323
L74299 73267
L74299 73099
L74327 73042
L74355 73014
L74411 72986
L74524 72986
L74580 73014
" />
<path d="M74861 73070
L75058 73070
" />
<path d="M75142 73380
L74861 73380
L74861 72789
L75142 72789
" />
<path d="M75480 73380
L75424 73352
L75395 73295
L75395 72789
" />
<path d="M75620 72986
L75845 72986
" />
<path d="M75705 73380
L75705 72874
L75733 72817
L75789 72789
L75845 72789
" />
<path d="M75902 73436
L76352 73436
" />
<path d="M76605 72789
L76661 72789
L76717 72817
L76745 72845
L76773 72902
L76802 73014
L76802 73155
L76773 73267
L76745 73323
L76717 73352
L76661 73380
L76605 73380
L76548 73352
L76520 73323
L76492 73267
L76464 73155
L76464 73014
L76492 72902
L76520 72845
L76548 72817
L76605 72789
" />
<path d="M77027 72845
L77055 72817
L77111 72789
L77251 72789
L77308 72817
L77336 72845
L77364 72902
L77364 72958
L77336 73042
L76998 73380
L77364 73380
" />
<path d="M77617 73323
L77645 73352
L77617 73380
L77589 73352
L77617 73323
L77617 73380
" />
<path d="M77898 73380
L77898 72789
" />
<path d="M77955 73155
L78123 73380
" />
<path d="M78123 72986
L77898 73211
" />
<path d="M78376 73380
L78376 72986
" />
<path d="M78376 72789
L78348 72817
L78376 72845
L78404 72817
L78376 72789
L78376 72845
" />
<path d="M78911 73352
L78854 73380
L78742 73380
L78686 73352
L78658 73323
L78629 73267
L78629 73099
L78658 73042
L78686 73014
L78742 72986
L78854 72986
L78911 73014
" />
<path d="M79417 73380
L79417 73070
L79389 73014
L79332 72986
L79220 72986
L79164 73014
" />
<path d="M79417 73352
L79361 73380
L79220 73380
L79164 73352
L79136 73295
L79136 73239
L79164 73183
L79220 73155
L79361 73155
L79417 73127
" />
<path d="M79951 73380
L79951 72789
" />
<path d="M79951 73352
L79895 73380
L79782 73380
L79726 73352
L79698 73323
L79670 73267
L79670 73099
L79698 73042
L79726 73014
L79782 72986
L79895 72986
L79951 73014
" />
<path d="M80092 73436
L80542 73436
" />
<path d="M80682 72986
L80682 73577
" />
<path d="M80682 73014
L80739 72986
L80851 72986
L80907 73014
L80935 73042
L80964 73099
L80964 73267
L80935 73323
L80907 73352
L80851 73380
L80739 73380
L80682 73352
" />
<path d="M81470 73352
L81413 73380
L81301 73380
L81245 73352
L81217 73323
L81188 73267
L81188 73099
L81217 73042
L81245 73014
L81301 72986
L81413 72986
L81470 73014
" />
<path d="M81723 73380
L81723 72789
" />
<path d="M81723 73014
L81779 72986
L81892 72986
L81948 73014
L81976 73042
L82004 73099
L82004 73267
L81976 73323
L81948 73352
L81892 73380
L81779 73380
L81723 73352
" />
</g>
<g style="fill:#000000; fill-opacity:0.0; 
stroke:#000000; stroke-width:39.3701; stroke-opacity:1; 
stroke-linecap:round; stroke-linejoin:round;">
</g>
<g style="fill:#000000; fill-opacity:0.0; 
stroke:#000000; stroke-width:59.0551; stroke-opacity:1; 
stroke-linecap:round; stroke-linejoin:round;">
<path d="M69685 71459
L112205 71459
" />
</g>
<g style="fill:#000000; fill-opacity:0.0; 
stroke:#000000; stroke-width:39.3701; stroke-opacity:1; 
stroke-linecap:round; stroke-linejoin:round;">
</g>
<g style="fill:#000000; fill-opacity:0.0; 
stroke:#000000; stroke-width:59.0551; stroke-opacity:1; 
stroke-linecap:round; stroke-linejoin:round;">
<path d="M70221 72289
L70305 72317
L70446 72317
L70502 72289
L70530 72260
L70559 72204
L70559 72148
L70530 72092
L70502 72064
L70446 72036
L70334 72007
L70277 71979
L70249 71951
L70221 71895
L70221 71839
L70249 71782
L70277 71754
L70334 71726
L70474 71726
L70559 71754
" />
<path d="M70812 72317
L70812 71726
" />
<path d="M71065 72317
L71065 72007
L71037 71951
L70980 71923
L70896 71923
L70840 71951
L70812 71979
" />
<path d="M71571 72289
L71515 72317
L71402 72317
L71346 72289
L71318 72232
L71318 72007
L71346 71951
L71402 71923
L71515 71923
L71571 71951
L71599 72007
L71599 72064
L71318 72120
" />
<path d="M72077 72289
L72021 72317
L71908 72317
L71852 72289
L71824 72232
L71824 72007
L71852 71951
L71908 71923
L72021 71923
L72077 71951
L72105 72007
L72105 72064
L71824 72120
" />
<path d="M72274 71923
L72499 71923
" />
<path d="M72358 71726
L72358 72232
L72386 72289
L72443 72317
L72499 72317
" />
<path d="M72696 72260
L72724 72289
L72696 72317
L72668 72289
L72696 72260
L72696 72317
" />
<path d="M72696 71951
L72724 71979
L72696 72007
L72668 71979
L72696 71951
L72696 72007
" />
</g>
<g style="fill:#000000; fill-opacity:0.0; 
stroke:#000000; stroke-width:39.3701; stroke-opacity:1; 
stroke-linecap:round; stroke-linejoin:round;">
</g>
<g style="fill:#000000; fill-opacity:0.0; 
stroke:#000000; stroke-width:59.0551; stroke-opacity:1; 
stroke-linecap:round; stroke-linejoin:round;">
<path d="M77559 75396
L77559 76577
" />
</g>
<g style="fill:#000000; fill-opacity:0.0; 
stroke:#000000; stroke-width:39.3701; stroke-opacity:1; 
stroke-linecap:round; stroke-linejoin:round;">
</g>
<g style="fill:#000000; fill-opacity:0.0; 
stroke:#000000; stroke-width:59.0551; stroke-opacity:1; 
stroke-linecap:round; stroke-linejoin:round;">
<path d="M102756 75396
L102756 77955
" />
</g>
<g style="fill:#008484; fill-opacity:0.0; 
stroke:#008484; stroke-width:59.0551; stroke-opacity:1; 
stroke-linecap:round; stroke-linejoin:round;">
</g>
<g style="fill:#008484; fill-opacity:0.0; 
stroke:#008484; stroke-width:78.7402; stroke-opacity:1; 
stroke-linecap:round; stroke-linejoin:round;">
<path d="M59000 39500
L59000 40100
" />
<path d="M58250 38750
L57650 38750
" />
<path d="M58250 38750 A531.507 531.507 0.0 1 0 59000 39500 " />
<path d="M59000 45250 A912.415 912.415 0.0 0 0 58250 46000 " />
<path d="M59000 45250
L59000 44650
" />
<path d="M58250 46000
L57650 46000
" />
<path d="M52500 46000 A912.415 912.415 0.0 0 0 51750 45250 " />
<path d="M51750 45250
L51750 44650
" />
<path d="M52500 46000
L53100 46000
" />
<path d="M52500 38750
L53100 38750
" />
<path d="M51750 39500
L51750 40100
" />
<path d="M51750 39500 A531.507 531.507 0.0 1 0 52500 38750 " />
</g>
<g style="fill:#008484; fill-opacity:0.0; 
stroke:#008484; stroke-width:49.2126; stroke-opacity:1; 
stroke-linecap:round; stroke-linejoin:round;">
<path d="M53050 43119
L53163 43119
" />
<path d="M53106 43316
L53106 43119
" />
<path d="M53228 43316
L53228 43185
" />
<path d="M53228 43119
L53219 43129
L53228 43138
L53238 43129
L53228 43119
L53228 43138
" />
<path d="M53397 43307
L53378 43316
L53341 43316
L53322 43307
L53313 43288
L53313 43213
L53322 43194
L53341 43185
L53378 43185
L53397 43194
L53406 43213
L53406 43232
L53313 43251
" />
<path d="M53463 43185
L53538 43185
" />
<path d="M53491 43316
L53491 43148
L53500 43129
L53519 43119
L53538 43119
" />
<path d="M53631 43316
L53613 43307
L53603 43288
L53603 43119
" />
<path d="M53706 43316
L53706 43185
" />
<path d="M53706 43119
L53697 43129
L53706 43138
L53716 43129
L53706 43119
L53706 43138
" />
<path d="M53800 43185
L53800 43316
" />
<path d="M53800 43204
L53810 43194
L53828 43185
L53856 43185
L53875 43194
L53885 43213
L53885 43316
" />
<path d="M54063 43185
L54063 43344
L54053 43363
L54044 43373
L54025 43382
L53997 43382
L53978 43373
" />
<path d="M54063 43307
L54044 43316
L54006 43316
L53988 43307
L53978 43298
L53969 43279
L53969 43223
L53978 43204
L53988 43194
L54006 43185
L54044 43185
L54063 43194
" />
<path d="M54409 43316
L54297 43316
" />
<path d="M54353 43316
L54353 43119
L54334 43148
L54316 43166
L54297 43176
" />
<path d="M54494 43298
L54503 43307
L54494 43316
L54484 43307
L54494 43298
L54494 43316
" />
<path d="M54578 43138
L54588 43129
L54606 43119
L54653 43119
L54672 43129
L54681 43138
L54691 43157
L54691 43176
L54681 43204
L54569 43316
L54691 43316
" />
<path d="M53135 43464
L53135 43605
L53125 43633
L53106 43651
L53078 43661
L53060 43661
" />
<path d="M53228 43642
L53238 43651
L53228 43661
L53219 43651
L53228 43642
L53228 43661
" />
<path d="M53322 43661
L53322 43464
" />
<path d="M53322 43558
L53435 43558
" />
<path d="M53435 43661
L53435 43464
" />
<path d="M53528 43642
L53538 43651
L53528 43661
L53519 43651
L53528 43642
L53528 43661
" />
<path d="M53875 43473
L53856 43464
L53828 43464
L53800 43473
L53781 43492
L53772 43511
L53763 43548
L53763 43576
L53772 43614
L53781 43633
L53800 43651
L53828 43661
L53847 43661
L53875 43651
L53885 43642
L53885 43576
L53847 43576
" />
<path d="M53969 43661
L53969 43530
" />
<path d="M53969 43567
L53978 43548
L53988 43539
L54006 43530
L54025 43530
" />
<path d="M54175 43661
L54175 43558
L54166 43539
L54147 43530
L54109 43530
L54091 43539
" />
<path d="M54175 43651
L54156 43661
L54109 43661
L54091 43651
L54081 43633
L54081 43614
L54091 43595
L54109 43586
L54156 43586
L54175 43576
" />
<path d="M54353 43651
L54334 43661
L54297 43661
L54278 43651
L54269 43642
L54259 43623
L54259 43567
L54269 43548
L54278 43539
L54297 43530
L54334 43530
L54353 43539
" />
<path d="M54513 43651
L54494 43661
L54456 43661
L54438 43651
L54428 43633
L54428 43558
L54438 43539
L54456 43530
L54494 43530
L54513 43539
L54522 43558
L54522 43576
L54428 43595
" />
<path d="M54747 43483
L54756 43473
L54775 43464
L54822 43464
L54841 43473
L54850 43483
L54859 43501
L54859 43520
L54850 43548
L54738 43661
L54859 43661
" />
<path d="M54981 43464
L55000 43464
L55019 43473
L55028 43483
L55037 43501
L55047 43539
L55047 43586
L55037 43623
L55028 43642
L55019 43651
L55000 43661
L54981 43661
L54962 43651
L54953 43642
L54944 43623
L54934 43586
L54934 43539
L54944 43501
L54953 43483
L54962 43473
L54981 43464
" />
<path d="M55234 43661
L55122 43661
" />
<path d="M55178 43661
L55178 43464
L55159 43492
L55141 43511
L55122 43520
" />
<path d="M55328 43661
L55366 43661
L55384 43651
L55394 43642
L55412 43614
L55422 43576
L55422 43501
L55412 43483
L55403 43473
L55384 43464
L55347 43464
L55328 43473
L55319 43483
L55309 43501
L55309 43548
L55319 43567
L55328 43576
L55347 43586
L55384 43586
L55403 43576
L55412 43567
L55422 43548
" />
</g>
<g style="fill:#008484; fill-opacity:0.0; 
stroke:#008484; stroke-width:78.7402; stroke-opacity:1; 
stroke-linecap:round; stroke-linejoin:round;">
<path d="M55385 44710
L55779 44710
" />
</g>
<g style="fill:#008484; fill-opacity:0.0; 
stroke:#008484; stroke-width:47.2441; stroke-opacity:1; 
stroke-linecap:round; stroke-linejoin:round;">
<path d="M53795 44872
L56944 44872
" />
<path d="M56944 43887
L56944 44872
" />
<path d="M53795 43887
L56944 43887
" />
<path d="M53795 43887
L53795 44872
" />
<path d="M52620 39630
L58120 39630
" />
<path d="M58120 39630
L58120 45130
" />
<path d="M58120 45130
L52620 45130
" />
<path d="M52620 45130
L52620 39630
" />
</g>
<g style="fill:#008484; fill-opacity:0.0; 
stroke:#008484; stroke-width:49.2126; stroke-opacity:1; 
stroke-linecap:round; stroke-linejoin:round;">
<path d="M55250 45379
L55278 45389
L55325 45389
L55343 45379
L55353 45370
L55362 45351
L55362 45332
L55353 45314
L55343 45304
L55325 45295
L55287 45285
L55268 45276
L55259 45267
L55250 45248
L55250 45229
L55259 45210
L55268 45201
L55287 45192
L55334 45192
L55362 45201
" />
<path d="M55549 45389
L55437 45389
" />
<path d="M55493 45389
L55493 45192
L55474 45220
L55456 45239
L55437 45248
" />
<path d="M55692 45779
L55720 45789
L55767 45789
L55785 45779
L55795 45770
L55804 45751
L55804 45732
L55795 45714
L55785 45704
L55767 45695
L55729 45685
L55710 45676
L55701 45667
L55692 45648
L55692 45629
L55701 45610
L55710 45601
L55729 45592
L55776 45592
L55804 45601
" />
<path d="M55870 45592
L55917 45789
L55954 45648
L55992 45789
L56039 45592
" />
<path d="M56142 45789
L56123 45779
L56114 45770
L56104 45751
L56104 45695
L56114 45676
L56123 45667
L56142 45657
L56170 45657
L56189 45667
L56198 45676
L56207 45695
L56207 45751
L56198 45770
L56189 45779
L56170 45789
L56142 45789
" />
<path d="M58601 45149
L58592 45168
L58592 45196
L58601 45224
L58620 45243
L58639 45253
L58676 45262
L58704 45262
L58742 45253
L58760 45243
L58779 45224
L58789 45196
L58789 45178
L58779 45149
L58770 45140
L58704 45140
L58704 45178
" />
<path d="M58789 45056
L58592 45056
L58789 44943
L58592 44943
" />
<path d="M58789 44850
L58592 44850
L58592 44803
L58601 44775
L58620 44756
L58639 44746
L58676 44737
L58704 44737
L58742 44746
L58760 44756
L58779 44775
L58789 44803
L58789 44850
" />
<path d="M51942 43248
L52101 43248
L52120 43239
L52129 43229
L52139 43210
L52139 43173
L52129 43154
L52120 43145
L52101 43135
L51942 43135
" />
<path d="M52129 43051
L52139 43023
L52139 42976
L52129 42957
L52120 42948
L52101 42939
L52082 42939
L52064 42948
L52054 42957
L52045 42976
L52035 43014
L52026 43032
L52017 43042
L51998 43051
L51979 43051
L51960 43042
L51951 43032
L51942 43014
L51942 42967
L51951 42939
" />
<path d="M52035 42789
L52045 42760
L52054 42751
L52073 42742
L52101 42742
L52120 42751
L52129 42760
L52139 42779
L52139 42854
L51942 42854
L51942 42789
L51951 42770
L51960 42760
L51979 42751
L51998 42751
L52017 42760
L52026 42770
L52035 42789
L52035 42854
" />
<path d="M58779 41304
L58789 41276
L58789 41229
L58779 41210
L58770 41201
L58751 41192
L58732 41192
L58714 41201
L58704 41210
L58695 41229
L58685 41267
L58676 41285
L58667 41295
L58648 41304
L58629 41304
L58610 41295
L58601 41285
L58592 41267
L58592 41220
L58601 41192
" />
<path d="M58592 41126
L58789 41079
L58648 41042
L58789 41004
L58592 40957
" />
<path d="M58789 40882
L58657 40882
" />
<path d="M58592 40882
L58601 40892
L58610 40882
L58601 40873
L58592 40882
L58610 40882
" />
<path d="M58657 40789
L58789 40789
" />
<path d="M58676 40789
L58667 40779
L58657 40760
L58657 40732
L58667 40714
L58685 40704
L58789 40704
" />
<path d="M54012 39139
L54012 38942
L54059 38942
L54087 38951
L54106 38970
L54115 38989
L54125 39026
L54125 39054
L54115 39092
L54106 39110
L54087 39129
L54059 39139
L54012 39139
" />
<path d="M54209 39139
L54209 39007
" />
<path d="M54209 38942
L54200 38951
L54209 38960
L54218 38951
L54209 38942
L54209 38960
" />
<path d="M54303 39007
L54303 39139
" />
<path d="M54303 39026
L54312 39017
L54331 39007
L54359 39007
L54378 39017
L54387 39035
L54387 39139
" />
<path d="M54109 45789
L54109 45592
L54156 45592
L54184 45601
L54203 45620
L54212 45639
L54221 45676
L54221 45704
L54212 45742
L54203 45760
L54184 45779
L54156 45789
L54109 45789
" />
<path d="M54334 45789
L54315 45779
L54306 45770
L54296 45751
L54296 45695
L54306 45676
L54315 45667
L54334 45657
L54362 45657
L54381 45667
L54390 45676
L54399 45695
L54399 45751
L54390 45770
L54381 45779
L54362 45789
L54334 45789
" />
<path d="M51951 45149
L51942 45168
L51942 45196
L51951 45224
L51970 45243
L51989 45253
L52026 45262
L52054 45262
L52092 45253
L52110 45243
L52129 45224
L52139 45196
L52139 45178
L52129 45149
L52120 45140
L52054 45140
L52054 45178
" />
<path d="M52139 45056
L51942 45056
L52139 44943
L51942 44943
" />
<path d="M52139 44850
L51942 44850
L51942 44803
L51951 44775
L51970 44756
L51989 44746
L52026 44737
L52054 44737
L52092 44746
L52110 44756
L52129 44775
L52139 44803
L52139 44850
" />
<path d="M52129 41304
L52139 41276
L52139 41229
L52129 41210
L52120 41201
L52101 41192
L52082 41192
L52064 41201
L52054 41210
L52045 41229
L52035 41267
L52026 41285
L52017 41295
L51998 41304
L51979 41304
L51960 41295
L51951 41285
L51942 41267
L51942 41220
L51951 41192
" />
<path d="M51942 41126
L52139 41079
L51998 41042
L52139 41004
L51942 40957
" />
<path d="M52139 40882
L52007 40882
" />
<path d="M51942 40882
L51951 40892
L51960 40882
L51951 40873
L51942 40882
L51960 40882
" />
<path d="M52007 40789
L52139 40789
" />
<path d="M52026 40789
L52017 40779
L52007 40760
L52007 40732
L52017 40714
L52035 40704
L52139 40704
" />
<path d="M55692 39129
L55720 39139
L55767 39139
L55785 39129
L55795 39120
L55804 39101
L55804 39082
L55795 39064
L55785 39054
L55767 39045
L55729 39035
L55710 39026
L55701 39017
L55692 38998
L55692 38979
L55701 38960
L55710 38951
L55729 38942
L55776 38942
L55804 38951
" />
<path d="M55870 38942
L55917 39139
L55954 38998
L55992 39139
L56039 38942
" />
<path d="M56142 39139
L56123 39129
L56114 39120
L56104 39101
L56104 39045
L56114 39026
L56123 39017
L56142 39007
L56170 39007
L56189 39017
L56198 39026
L56207 39045
L56207 39101
L56198 39120
L56189 39129
L56170 39139
L56142 39139
" />
<path d="M58592 43248
L58751 43248
L58770 43239
L58779 43229
L58789 43210
L58789 43173
L58779 43154
L58770 43145
L58751 43135
L58592 43135
" />
<path d="M58779 43051
L58789 43023
L58789 42976
L58779 42957
L58770 42948
L58751 42939
L58732 42939
L58714 42948
L58704 42957
L58695 42976
L58685 43014
L58676 43032
L58667 43042
L58648 43051
L58629 43051
L58610 43042
L58601 43032
L58592 43014
L58592 42967
L58601 42939
" />
<path d="M58685 42789
L58695 42760
L58704 42751
L58723 42742
L58751 42742
L58770 42751
L58779 42760
L58789 42779
L58789 42854
L58592 42854
L58592 42789
L58601 42770
L58610 42760
L58629 42751
L58648 42751
L58667 42760
L58676 42770
L58685 42789
L58685 42854
" />
</g>
<g style="fill:#000000; fill-opacity:0.0; 
stroke:#000000; stroke-width:49.2126; stroke-opacity:1; 
stroke-linecap:round; stroke-linejoin:round;">
</g>
<g style="fill:#C2C200; fill-opacity:0.0; 
stroke:#C2C200; stroke-width:49.2126; stroke-opacity:1; 
stroke-linecap:round; stroke-linejoin:round;">
</g>
<g style="fill:#C2C200; fill-opacity:0.0; 
stroke:#C2C200; stroke-width:39.3701; stroke-opacity:1; 
stroke-linecap:round; stroke-linejoin:round;">
<circle cx="52150" cy="39150" r="374.016" /> 
<circle cx="58600" cy="39150" r="374.016" /> 
</g>
<g style="fill:#C2C200; fill-opacity:0.0; 
stroke:#C2C200; stroke-width:59.0551; stroke-opacity:1; 
stroke-linecap:round; stroke-linejoin:round;">
<path d="M52150 38600
L58600 38600
" />
<path d="M51600 45400
L51600 39150
" />
<path d="M58400 46150
L52350 46150
" />
<path d="M59150 39150
L59150 45400
" />
<path d="M59150 39150 A550 550 0.0 0 0 58600 38600 " />
<path d="M59150 45400 A750 750 0.0 0 0 58400 46150 " />
<path d="M52350 46150 A750 750 0.0 0 0 51600 45400 " />
<path d="M52150 38600 A550 550 0.0 0 0 51600 39150 " />
</g> 
</svg>
