<?xml version="1.0" standalone="no"?>
 <!DOCTYPE svg PUBLIC "-//W3C//DTD SVG 1.1//EN" 
 "http://www.w3.org/Graphics/SVG/1.1/DTD/svg11.dtd"> 
<svg xmlns="http://www.w3.org/2000/svg" version="1.1" 
    width="11.5087cm" height="8.14832cm" viewBox="0 0 45310 32080 ">
<title>SVG Picture created as WoodElf_01-Dwgs.User.svg date 2019/08/03 12:58:44 </title>
  <desc>Picture generated by PCBNEW </desc>
<g style="fill:#000000; fill-opacity:1;stroke:#000000; stroke-opacity:1;
stroke-linecap:round; stroke-linejoin:round; "
 transform="translate(0 0) scale(1 1)">
</g>
<g style="fill:#000000; fill-opacity:0.0; 
stroke:#000000; stroke-width:-0.000393701; stroke-opacity:1; 
stroke-linecap:round; stroke-linejoin:round;">
</g>
<g style="fill:#C2C2C2; fill-opacity:0.0; 
stroke:#C2C2C2; stroke-width:-0.000393701; stroke-opacity:1; 
stroke-linecap:round; stroke-linejoin:round;">
</g>
<g style="fill:#C2C2C2; fill-opacity:0.0; 
stroke:#C2C2C2; stroke-width:21.6535; stroke-opacity:1; 
stroke-linecap:round; stroke-linejoin:round;">
<circle cx="688.977" cy="688.977" r="618.11" /> 
</g>
<g style="fill:#C2C2C2; fill-opacity:0.0; 
stroke:#C2C2C2; stroke-width:19.685; stroke-opacity:1; 
stroke-linecap:round; stroke-linejoin:round;">
<circle cx="688.977" cy="688.977" r="314.96" /> 
<circle cx="688.977" cy="31417.3" r="314.96" /> 
</g>
<g style="fill:#C2C2C2; fill-opacity:0.0; 
stroke:#C2C2C2; stroke-width:21.6535; stroke-opacity:1; 
stroke-linecap:round; stroke-linejoin:round;">
<circle cx="688.977" cy="31417.3" r="618.11" /> 
<circle cx="44626" cy="31397.6" r="618.11" /> 
</g>
<g style="fill:#C2C2C2; fill-opacity:0.0; 
stroke:#C2C2C2; stroke-width:19.685; stroke-opacity:1; 
stroke-linecap:round; stroke-linejoin:round;">
<circle cx="44626" cy="31397.6" r="314.96" /> 
</g>
<g style="fill:#C2C2C2; fill-opacity:0.0; 
stroke:#C2C2C2; stroke-width:59.0551; stroke-opacity:1; 
stroke-linecap:round; stroke-linejoin:round;">
<path d="M7663 9439
L163 9439
" />
<path d="M163 9439
L163 1939
" />
<path d="M163 1939
L7663 1939
" />
<path d="M7663 1939
L7663 9439
" />
<path d="M6663 8439
L1163 8439
" />
<path d="M6663 8439
L6663 2939
" />
<path d="M1163 2939
L6663 2939
" />
<path d="M1163 2939
L1163 8439
" />
</g>
<g style="fill:#C2C2C2; fill-opacity:0.0; 
stroke:#C2C2C2; stroke-width:19.685; stroke-opacity:1; 
stroke-linecap:round; stroke-linejoin:round;">
<path d="M1163 8439
L163 8439
" />
<path d="M1163 8439
L1163 9439
" />
<path d="M6663 8439
L7663 8439
" />
<path d="M6663 8439
L6663 9439
" />
<path d="M6663 2941
L6663 1941
" />
<path d="M6663 2941
L7663 2941
" />
<path d="M1163 2939
L1163 1939
" />
<path d="M1163 2939
L163 2939
" />
<path d="M8663 2001
L7663 2001
" />
<path d="M8663 2001
L8663 1001
" />
<path d="M14163 2003
L15163 2003
" />
<path d="M14163 2003
L14163 1003
" />
<path d="M14163 7501
L14163 8501
" />
<path d="M14163 7501
L15163 7501
" />
<path d="M8663 7501
L8663 8501
" />
<path d="M8663 7501
L7663 7501
" />
</g>
<g style="fill:#C2C2C2; fill-opacity:0.0; 
stroke:#C2C2C2; stroke-width:59.0551; stroke-opacity:1; 
stroke-linecap:round; stroke-linejoin:round;">
<path d="M8663 2001
L8663 7501
" />
<path d="M8663 2001
L14163 2001
" />
<path d="M14163 7501
L14163 2001
" />
<path d="M14163 7501
L8663 7501
" />
<path d="M15163 1001
L15163 8501
" />
<path d="M7663 1001
L15163 1001
" />
<path d="M7663 8501
L7663 1001
" />
<path d="M15163 8501
L7663 8501
" />
<path d="M22663 7564
L15163 7564
" />
<path d="M15163 7564
L15163 64
" />
<path d="M15163 64
L22663 64
" />
<path d="M22663 64
L22663 7564
" />
<path d="M21663 6564
L16163 6564
" />
<path d="M21663 6564
L21663 1064
" />
<path d="M16163 1064
L21663 1064
" />
<path d="M16163 1064
L16163 6564
" />
</g>
<g style="fill:#C2C2C2; fill-opacity:0.0; 
stroke:#C2C2C2; stroke-width:19.685; stroke-opacity:1; 
stroke-linecap:round; stroke-linejoin:round;">
<path d="M16163 6564
L15163 6564
" />
<path d="M16163 6564
L16163 7564
" />
<path d="M21663 6564
L22663 6564
" />
<path d="M21663 6564
L21663 7564
" />
<path d="M21663 1066
L21663 66
" />
<path d="M21663 1066
L22663 1066
" />
<path d="M16163 1064
L16163 64
" />
<path d="M16163 1064
L15163 1064
" />
<path d="M23663 2001
L22663 2001
" />
<path d="M23663 2001
L23663 1001
" />
<path d="M29163 2003
L30163 2003
" />
<path d="M29163 2003
L29163 1003
" />
<path d="M29163 7501
L29163 8501
" />
<path d="M29163 7501
L30163 7501
" />
<path d="M23663 7501
L23663 8501
" />
<path d="M23663 7501
L22663 7501
" />
</g>
<g style="fill:#C2C2C2; fill-opacity:0.0; 
stroke:#C2C2C2; stroke-width:59.0551; stroke-opacity:1; 
stroke-linecap:round; stroke-linejoin:round;">
<path d="M23663 2001
L23663 7501
" />
<path d="M23663 2001
L29163 2001
" />
<path d="M29163 7501
L29163 2001
" />
<path d="M29163 7501
L23663 7501
" />
<path d="M30163 1001
L30163 8501
" />
<path d="M22663 1001
L30163 1001
" />
<path d="M22663 8501
L22663 1001
" />
<path d="M30163 8501
L22663 8501
" />
<path d="M37663 9439
L30163 9439
" />
<path d="M30163 9439
L30163 1939
" />
<path d="M30163 1939
L37663 1939
" />
<path d="M37663 1939
L37663 9439
" />
<path d="M36663 8439
L31163 8439
" />
<path d="M36663 8439
L36663 2939
" />
<path d="M31163 2939
L36663 2939
" />
<path d="M31163 2939
L31163 8439
" />
</g>
<g style="fill:#C2C2C2; fill-opacity:0.0; 
stroke:#C2C2C2; stroke-width:19.685; stroke-opacity:1; 
stroke-linecap:round; stroke-linejoin:round;">
<path d="M31163 8439
L30163 8439
" />
<path d="M31163 8439
L31163 9439
" />
<path d="M36663 8439
L37663 8439
" />
<path d="M36663 8439
L36663 9439
" />
<path d="M36663 2941
L36663 1941
" />
<path d="M36663 2941
L37663 2941
" />
<path d="M31163 2939
L31163 1939
" />
<path d="M31163 2939
L30163 2939
" />
<path d="M31163 10439
L30163 10439
" />
<path d="M31163 10439
L31163 9439
" />
<path d="M36663 10441
L37663 10441
" />
<path d="M36663 10441
L36663 9441
" />
<path d="M36663 15939
L36663 16939
" />
<path d="M36663 15939
L37663 15939
" />
<path d="M31163 15939
L31163 16939
" />
<path d="M31163 15939
L30163 15939
" />
</g>
<g style="fill:#C2C2C2; fill-opacity:0.0; 
stroke:#C2C2C2; stroke-width:59.0551; stroke-opacity:1; 
stroke-linecap:round; stroke-linejoin:round;">
<path d="M31163 10439
L31163 15939
" />
<path d="M31163 10439
L36663 10439
" />
<path d="M36663 15939
L36663 10439
" />
<path d="M36663 15939
L31163 15939
" />
<path d="M37663 9439
L37663 16939
" />
<path d="M30163 9439
L37663 9439
" />
<path d="M30163 16939
L30163 9439
" />
<path d="M37663 16939
L30163 16939
" />
</g>
<g style="fill:#C2C2C2; fill-opacity:0.0; 
stroke:#C2C2C2; stroke-width:19.685; stroke-opacity:1; 
stroke-linecap:round; stroke-linejoin:round;">
<path d="M23663 9501
L22663 9501
" />
<path d="M23663 9501
L23663 8501
" />
<path d="M29163 9503
L30163 9503
" />
<path d="M29163 9503
L29163 8503
" />
<path d="M29163 15001
L29163 16001
" />
<path d="M29163 15001
L30163 15001
" />
<path d="M23663 15001
L23663 16001
" />
<path d="M23663 15001
L22663 15001
" />
</g>
<g style="fill:#C2C2C2; fill-opacity:0.0; 
stroke:#C2C2C2; stroke-width:59.0551; stroke-opacity:1; 
stroke-linecap:round; stroke-linejoin:round;">
<path d="M23663 9501
L23663 15001
" />
<path d="M23663 9501
L29163 9501
" />
<path d="M29163 15001
L29163 9501
" />
<path d="M29163 15001
L23663 15001
" />
<path d="M30163 8501
L30163 16001
" />
<path d="M22663 8501
L30163 8501
" />
<path d="M22663 16001
L22663 8501
" />
<path d="M30163 16001
L22663 16001
" />
</g>
<g style="fill:#C2C2C2; fill-opacity:0.0; 
stroke:#C2C2C2; stroke-width:19.685; stroke-opacity:1; 
stroke-linecap:round; stroke-linejoin:round;">
<path d="M16163 8564
L15163 8564
" />
<path d="M16163 8564
L16163 7564
" />
<path d="M21663 8566
L22663 8566
" />
<path d="M21663 8566
L21663 7566
" />
<path d="M21663 14064
L21663 15064
" />
<path d="M21663 14064
L22663 14064
" />
<path d="M16163 14064
L16163 15064
" />
<path d="M16163 14064
L15163 14064
" />
</g>
<g style="fill:#C2C2C2; fill-opacity:0.0; 
stroke:#C2C2C2; stroke-width:59.0551; stroke-opacity:1; 
stroke-linecap:round; stroke-linejoin:round;">
<path d="M16163 8564
L16163 14064
" />
<path d="M16163 8564
L21663 8564
" />
<path d="M21663 14064
L21663 8564
" />
<path d="M21663 14064
L16163 14064
" />
<path d="M22663 7564
L22663 15064
" />
<path d="M15163 7564
L22663 7564
" />
<path d="M15163 15064
L15163 7564
" />
<path d="M22663 15064
L15163 15064
" />
<path d="M15163 16001
L7663 16001
" />
<path d="M7663 16001
L7663 8501
" />
<path d="M7663 8501
L15163 8501
" />
<path d="M15163 8501
L15163 16001
" />
<path d="M14163 15001
L8663 15001
" />
<path d="M14163 15001
L14163 9501
" />
<path d="M8663 9501
L14163 9501
" />
<path d="M8663 9501
L8663 15001
" />
</g>
<g style="fill:#C2C2C2; fill-opacity:0.0; 
stroke:#C2C2C2; stroke-width:19.685; stroke-opacity:1; 
stroke-linecap:round; stroke-linejoin:round;">
<path d="M8663 15001
L7663 15001
" />
<path d="M8663 15001
L8663 16001
" />
<path d="M14163 15001
L15163 15001
" />
<path d="M14163 15001
L14163 16001
" />
<path d="M14163 9503
L14163 8503
" />
<path d="M14163 9503
L15163 9503
" />
<path d="M8663 9501
L8663 8501
" />
<path d="M8663 9501
L7663 9501
" />
</g>
<g style="fill:#C2C2C2; fill-opacity:0.0; 
stroke:#C2C2C2; stroke-width:59.0551; stroke-opacity:1; 
stroke-linecap:round; stroke-linejoin:round;">
<path d="M7663 16939
L163 16939
" />
<path d="M163 16939
L163 9439
" />
<path d="M163 9439
L7663 9439
" />
<path d="M7663 9439
L7663 16939
" />
<path d="M6663 15939
L1163 15939
" />
<path d="M6663 15939
L6663 10439
" />
<path d="M1163 10439
L6663 10439
" />
<path d="M1163 10439
L1163 15939
" />
</g>
<g style="fill:#C2C2C2; fill-opacity:0.0; 
stroke:#C2C2C2; stroke-width:19.685; stroke-opacity:1; 
stroke-linecap:round; stroke-linejoin:round;">
<path d="M1163 15939
L163 15939
" />
<path d="M1163 15939
L1163 16939
" />
<path d="M6663 15939
L7663 15939
" />
<path d="M6663 15939
L6663 16939
" />
<path d="M6663 10441
L6663 9441
" />
<path d="M6663 10441
L7663 10441
" />
<path d="M1163 10439
L1163 9439
" />
<path d="M1163 10439
L163 10439
" />
</g>
<g style="fill:#C2C2C2; fill-opacity:0.0; 
stroke:#C2C2C2; stroke-width:59.0551; stroke-opacity:1; 
stroke-linecap:round; stroke-linejoin:round;">
<path d="M7663 24439
L163 24439
" />
<path d="M163 24439
L163 16939
" />
<path d="M163 16939
L7663 16939
" />
<path d="M7663 16939
L7663 24439
" />
<path d="M6663 23439
L1163 23439
" />
<path d="M6663 23439
L6663 17939
" />
<path d="M1163 17939
L6663 17939
" />
<path d="M1163 17939
L1163 23439
" />
</g>
<g style="fill:#C2C2C2; fill-opacity:0.0; 
stroke:#C2C2C2; stroke-width:19.685; stroke-opacity:1; 
stroke-linecap:round; stroke-linejoin:round;">
<path d="M1163 23439
L163 23439
" />
<path d="M1163 23439
L1163 24439
" />
<path d="M6663 23439
L7663 23439
" />
<path d="M6663 23439
L6663 24439
" />
<path d="M6663 17941
L6663 16941
" />
<path d="M6663 17941
L7663 17941
" />
<path d="M1163 17939
L1163 16939
" />
<path d="M1163 17939
L163 17939
" />
<path d="M8663 17001
L7663 17001
" />
<path d="M8663 17001
L8663 16001
" />
<path d="M14163 17003
L15163 17003
" />
<path d="M14163 17003
L14163 16003
" />
<path d="M14163 22501
L14163 23501
" />
<path d="M14163 22501
L15163 22501
" />
<path d="M8663 22501
L8663 23501
" />
<path d="M8663 22501
L7663 22501
" />
</g>
<g style="fill:#C2C2C2; fill-opacity:0.0; 
stroke:#C2C2C2; stroke-width:59.0551; stroke-opacity:1; 
stroke-linecap:round; stroke-linejoin:round;">
<path d="M8663 17001
L8663 22501
" />
<path d="M8663 17001
L14163 17001
" />
<path d="M14163 22501
L14163 17001
" />
<path d="M14163 22501
L8663 22501
" />
<path d="M15163 16001
L15163 23501
" />
<path d="M7663 16001
L15163 16001
" />
<path d="M7663 23501
L7663 16001
" />
<path d="M15163 23501
L7663 23501
" />
</g>
<g style="fill:#C2C2C2; fill-opacity:0.0; 
stroke:#C2C2C2; stroke-width:19.685; stroke-opacity:1; 
stroke-linecap:round; stroke-linejoin:round;">
<path d="M16163 16064
L15163 16064
" />
<path d="M16163 16064
L16163 15064
" />
<path d="M21663 16066
L22663 16066
" />
<path d="M21663 16066
L21663 15066
" />
<path d="M21663 21564
L21663 22564
" />
<path d="M21663 21564
L22663 21564
" />
<path d="M16163 21564
L16163 22564
" />
<path d="M16163 21564
L15163 21564
" />
</g>
<g style="fill:#C2C2C2; fill-opacity:0.0; 
stroke:#C2C2C2; stroke-width:59.0551; stroke-opacity:1; 
stroke-linecap:round; stroke-linejoin:round;">
<path d="M16163 16064
L16163 21564
" />
<path d="M16163 16064
L21663 16064
" />
<path d="M21663 21564
L21663 16064
" />
<path d="M21663 21564
L16163 21564
" />
<path d="M22663 15064
L22663 22564
" />
<path d="M15163 15064
L22663 15064
" />
<path d="M15163 22564
L15163 15064
" />
<path d="M22663 22564
L15163 22564
" />
<path d="M30163 23501
L22663 23501
" />
<path d="M22663 23501
L22663 16001
" />
<path d="M22663 16001
L30163 16001
" />
<path d="M30163 16001
L30163 23501
" />
<path d="M29163 22501
L23663 22501
" />
<path d="M29163 22501
L29163 17001
" />
<path d="M23663 17001
L29163 17001
" />
<path d="M23663 17001
L23663 22501
" />
</g>
<g style="fill:#C2C2C2; fill-opacity:0.0; 
stroke:#C2C2C2; stroke-width:19.685; stroke-opacity:1; 
stroke-linecap:round; stroke-linejoin:round;">
<path d="M23663 22501
L22663 22501
" />
<path d="M23663 22501
L23663 23501
" />
<path d="M29163 22501
L30163 22501
" />
<path d="M29163 22501
L29163 23501
" />
<path d="M29163 17003
L29163 16003
" />
<path d="M29163 17003
L30163 17003
" />
<path d="M23663 17001
L23663 16001
" />
<path d="M23663 17001
L22663 17001
" />
</g>
<g style="fill:#C2C2C2; fill-opacity:0.0; 
stroke:#C2C2C2; stroke-width:59.0551; stroke-opacity:1; 
stroke-linecap:round; stroke-linejoin:round;">
<path d="M37663 24439
L30163 24439
" />
<path d="M30163 24439
L30163 16939
" />
<path d="M30163 16939
L37663 16939
" />
<path d="M37663 16939
L37663 24439
" />
<path d="M36663 23439
L31163 23439
" />
<path d="M36663 23439
L36663 17939
" />
<path d="M31163 17939
L36663 17939
" />
<path d="M31163 17939
L31163 23439
" />
</g>
<g style="fill:#C2C2C2; fill-opacity:0.0; 
stroke:#C2C2C2; stroke-width:19.685; stroke-opacity:1; 
stroke-linecap:round; stroke-linejoin:round;">
<path d="M31163 23439
L30163 23439
" />
<path d="M31163 23439
L31163 24439
" />
<path d="M36663 23439
L37663 23439
" />
<path d="M36663 23439
L36663 24439
" />
<path d="M36663 17941
L36663 16941
" />
<path d="M36663 17941
L37663 17941
" />
<path d="M31163 17939
L31163 16939
" />
<path d="M31163 17939
L30163 17939
" />
</g>
<g style="fill:#C2C2C2; fill-opacity:0.0; 
stroke:#C2C2C2; stroke-width:59.0551; stroke-opacity:1; 
stroke-linecap:round; stroke-linejoin:round;">
<path d="M37663 31939
L30163 31939
" />
<path d="M30163 31939
L30163 24439
" />
<path d="M30163 24439
L37663 24439
" />
<path d="M37663 24439
L37663 31939
" />
<path d="M36663 30939
L31163 30939
" />
<path d="M36663 30939
L36663 25439
" />
<path d="M31163 25439
L36663 25439
" />
<path d="M31163 25439
L31163 30939
" />
</g>
<g style="fill:#C2C2C2; fill-opacity:0.0; 
stroke:#C2C2C2; stroke-width:19.685; stroke-opacity:1; 
stroke-linecap:round; stroke-linejoin:round;">
<path d="M31163 30939
L30163 30939
" />
<path d="M31163 30939
L31163 31939
" />
<path d="M36663 30939
L37663 30939
" />
<path d="M36663 30939
L36663 31939
" />
<path d="M36663 25441
L36663 24441
" />
<path d="M36663 25441
L37663 25441
" />
<path d="M31163 25439
L31163 24439
" />
<path d="M31163 25439
L30163 25439
" />
<path d="M23663 24501
L22663 24501
" />
<path d="M23663 24501
L23663 23501
" />
<path d="M29163 24503
L30163 24503
" />
<path d="M29163 24503
L29163 23503
" />
<path d="M29163 30001
L29163 31001
" />
<path d="M29163 30001
L30163 30001
" />
<path d="M23663 30001
L23663 31001
" />
<path d="M23663 30001
L22663 30001
" />
</g>
<g style="fill:#C2C2C2; fill-opacity:0.0; 
stroke:#C2C2C2; stroke-width:59.0551; stroke-opacity:1; 
stroke-linecap:round; stroke-linejoin:round;">
<path d="M23663 24501
L23663 30001
" />
<path d="M23663 24501
L29163 24501
" />
<path d="M29163 30001
L29163 24501
" />
<path d="M29163 30001
L23663 30001
" />
<path d="M30163 23501
L30163 31001
" />
<path d="M22663 23501
L30163 23501
" />
<path d="M22663 31001
L22663 23501
" />
<path d="M30163 31001
L22663 31001
" />
</g>
<g style="fill:#C2C2C2; fill-opacity:0.0; 
stroke:#C2C2C2; stroke-width:19.685; stroke-opacity:1; 
stroke-linecap:round; stroke-linejoin:round;">
<path d="M16163 23564
L15163 23564
" />
<path d="M16163 23564
L16163 22564
" />
<path d="M21663 23566
L22663 23566
" />
<path d="M21663 23566
L21663 22566
" />
<path d="M21663 29064
L21663 30064
" />
<path d="M21663 29064
L22663 29064
" />
<path d="M16163 29064
L16163 30064
" />
<path d="M16163 29064
L15163 29064
" />
</g>
<g style="fill:#C2C2C2; fill-opacity:0.0; 
stroke:#C2C2C2; stroke-width:59.0551; stroke-opacity:1; 
stroke-linecap:round; stroke-linejoin:round;">
<path d="M16163 23564
L16163 29064
" />
<path d="M16163 23564
L21663 23564
" />
<path d="M21663 29064
L21663 23564
" />
<path d="M21663 29064
L16163 29064
" />
<path d="M22663 22564
L22663 30064
" />
<path d="M15163 22564
L22663 22564
" />
<path d="M15163 30064
L15163 22564
" />
<path d="M22663 30064
L15163 30064
" />
<path d="M15163 31001
L7663 31001
" />
<path d="M7663 31001
L7663 23501
" />
<path d="M7663 23501
L15163 23501
" />
<path d="M15163 23501
L15163 31001
" />
<path d="M14163 30001
L8663 30001
" />
<path d="M14163 30001
L14163 24501
" />
<path d="M8663 24501
L14163 24501
" />
<path d="M8663 24501
L8663 30001
" />
</g>
<g style="fill:#C2C2C2; fill-opacity:0.0; 
stroke:#C2C2C2; stroke-width:19.685; stroke-opacity:1; 
stroke-linecap:round; stroke-linejoin:round;">
<path d="M8663 30001
L7663 30001
" />
<path d="M8663 30001
L8663 31001
" />
<path d="M14163 30001
L15163 30001
" />
<path d="M14163 30001
L14163 31001
" />
<path d="M14163 24503
L14163 23503
" />
<path d="M14163 24503
L15163 24503
" />
<path d="M8663 24501
L8663 23501
" />
<path d="M8663 24501
L7663 24501
" />
<path d="M1163 25439
L163 25439
" />
<path d="M1163 25439
L1163 24439
" />
<path d="M6663 25441
L7663 25441
" />
<path d="M6663 25441
L6663 24441
" />
<path d="M6663 30939
L6663 31939
" />
<path d="M6663 30939
L7663 30939
" />
<path d="M1163 30939
L1163 31939
" />
<path d="M1163 30939
L163 30939
" />
</g>
<g style="fill:#C2C2C2; fill-opacity:0.0; 
stroke:#C2C2C2; stroke-width:59.0551; stroke-opacity:1; 
stroke-linecap:round; stroke-linejoin:round;">
<path d="M1163 25439
L1163 30939
" />
<path d="M1163 25439
L6663 25439
" />
<path d="M6663 30939
L6663 25439
" />
<path d="M6663 30939
L1163 30939
" />
<path d="M7663 24439
L7663 31939
" />
<path d="M163 24439
L7663 24439
" />
<path d="M163 31939
L163 24439
" />
<path d="M7663 31939
L163 31939
" />
</g>
<g style="fill:#C2C2C2; fill-opacity:0.0; 
stroke:#C2C2C2; stroke-width:19.685; stroke-opacity:1; 
stroke-linecap:round; stroke-linejoin:round;">
<path d="M38663 25439
L37663 25439
" />
<path d="M38663 25439
L38663 24439
" />
<path d="M44163 25441
L45163 25441
" />
<path d="M44163 25441
L44163 24441
" />
<path d="M44163 30939
L44163 31939
" />
<path d="M44163 30939
L45163 30939
" />
<path d="M38663 30939
L38663 31939
" />
<path d="M38663 30939
L37663 30939
" />
</g>
<g style="fill:#C2C2C2; fill-opacity:0.0; 
stroke:#C2C2C2; stroke-width:59.0551; stroke-opacity:1; 
stroke-linecap:round; stroke-linejoin:round;">
<path d="M38663 25439
L38663 30939
" />
<path d="M38663 25439
L44163 25439
" />
<path d="M44163 30939
L44163 25439
" />
<path d="M44163 30939
L38663 30939
" />
<path d="M45163 24439
L45163 31939
" />
<path d="M37663 24439
L45163 24439
" />
<path d="M37663 31939
L37663 24439
" />
<path d="M45163 31939
L37663 31939
" />
<path d="M45163 24439
L37663 24439
" />
<path d="M37663 24439
L37663 16939
" />
<path d="M37663 16939
L45163 16939
" />
<path d="M45163 16939
L45163 24439
" />
<path d="M44163 23439
L38663 23439
" />
<path d="M44163 23439
L44163 17939
" />
<path d="M38663 17939
L44163 17939
" />
<path d="M38663 17939
L38663 23439
" />
</g>
<g style="fill:#C2C2C2; fill-opacity:0.0; 
stroke:#C2C2C2; stroke-width:19.685; stroke-opacity:1; 
stroke-linecap:round; stroke-linejoin:round;">
<path d="M38663 23439
L37663 23439
" />
<path d="M38663 23439
L38663 24439
" />
<path d="M44163 23439
L45163 23439
" />
<path d="M44163 23439
L44163 24439
" />
<path d="M44163 17941
L44163 16941
" />
<path d="M44163 17941
L45163 17941
" />
<path d="M38663 17939
L38663 16939
" />
<path d="M38663 17939
L37663 17939
" />
</g>
<g style="fill:#C2C2C2; fill-opacity:0.0; 
stroke:#C2C2C2; stroke-width:59.0551; stroke-opacity:1; 
stroke-linecap:round; stroke-linejoin:round;">
<path d="M45163 16939
L37663 16939
" />
<path d="M37663 16939
L37663 9439
" />
<path d="M37663 9439
L45163 9439
" />
<path d="M45163 9439
L45163 16939
" />
<path d="M44163 15939
L38663 15939
" />
<path d="M44163 15939
L44163 10439
" />
<path d="M38663 10439
L44163 10439
" />
<path d="M38663 10439
L38663 15939
" />
</g>
<g style="fill:#C2C2C2; fill-opacity:0.0; 
stroke:#C2C2C2; stroke-width:19.685; stroke-opacity:1; 
stroke-linecap:round; stroke-linejoin:round;">
<path d="M38663 15939
L37663 15939
" />
<path d="M38663 15939
L38663 16939
" />
<path d="M44163 15939
L45163 15939
" />
<path d="M44163 15939
L44163 16939
" />
<path d="M44163 10441
L44163 9441
" />
<path d="M44163 10441
L45163 10441
" />
<path d="M38663 10439
L38663 9439
" />
<path d="M38663 10439
L37663 10439
" />
<path d="M38663 2939
L37663 2939
" />
<path d="M38663 2939
L38663 1939
" />
<path d="M44163 2941
L45163 2941
" />
<path d="M44163 2941
L44163 1941
" />
<path d="M44163 8439
L44163 9439
" />
<path d="M44163 8439
L45163 8439
" />
<path d="M38663 8439
L38663 9439
" />
<path d="M38663 8439
L37663 8439
" />
</g>
<g style="fill:#C2C2C2; fill-opacity:0.0; 
stroke:#C2C2C2; stroke-width:59.0551; stroke-opacity:1; 
stroke-linecap:round; stroke-linejoin:round;">
<path d="M38663 2939
L38663 8439
" />
<path d="M38663 2939
L44163 2939
" />
<path d="M44163 8439
L44163 2939
" />
<path d="M44163 8439
L38663 8439
" />
<path d="M45163 1939
L45163 9439
" />
<path d="M37663 1939
L45163 1939
" />
<path d="M37663 9439
L37663 1939
" />
<path d="M45163 9439
L37663 9439
" />
</g>
<g style="fill:#C2C2C2; fill-opacity:0.0; 
stroke:#C2C2C2; stroke-width:19.685; stroke-opacity:1; 
stroke-linecap:round; stroke-linejoin:round;">
<circle cx="44626" cy="688.977" r="314.96" /> 
</g>
<g style="fill:#C2C2C2; fill-opacity:0.0; 
stroke:#C2C2C2; stroke-width:21.6535; stroke-opacity:1; 
stroke-linecap:round; stroke-linejoin:round;">
<circle cx="44626" cy="688.977" r="618.11" /> 
</g>
<g style="fill:#000000; fill-opacity:0.0; 
stroke:#000000; stroke-width:21.6535; stroke-opacity:1; 
stroke-linecap:round; stroke-linejoin:round;">
</g>
<g style="fill:#C2C200; fill-opacity:0.0; 
stroke:#C2C200; stroke-width:21.6535; stroke-opacity:1; 
stroke-linecap:round; stroke-linejoin:round;">
</g>
<g style="fill:#C2C200; fill-opacity:0.0; 
stroke:#C2C200; stroke-width:78.7402; stroke-opacity:1; 
stroke-linecap:round; stroke-linejoin:round;">
<path d="M44626 32047.2 A649.606 649.606 0.0 0 0 45275.6 31397.6 " />
<path d="M39.3705 31397.6 A649.606 649.606 0.0 0 0 688.977 32047.2 " />
<path d="M688.977 39.3705 A649.606 649.606 0.0 0 0 39.3705 688.977 " />
<path d="M45275.6 688.977 A649.606 649.606 0.0 0 0 44626 39.3705 " />
<path d="M44625 39
L688 39
" />
<path d="M39 31397
L39 688
" />
<path d="M688 32047
L44625 32047
" />
<path d="M45275 688
L45275 31397
" />
</g> 
</svg>
