<?xml version="1.0" standalone="no"?>
 <!DOCTYPE svg PUBLIC "-//W3C//DTD SVG 1.1//EN" 
 "http://www.w3.org/Graphics/SVG/1.1/DTD/svg11.dtd"> 
<svg xmlns="http://www.w3.org/2000/svg" version="1.1" 
    width="9.79932cm" height="10.2591cm" viewBox="0 0 38580 40390 ">
<title>SVG Picture created as WoodElf_01-B.SilkS.svg date 2019/06/03 14:32:57 </title>
  <desc>Picture generated by PCBNEW </desc>
<g style="fill:#000000; fill-opacity:1;stroke:#000000; stroke-opacity:1;
stroke-linecap:round; stroke-linejoin:round; "
 transform="translate(0 0) scale(1 1)">
</g>
<g style="fill:#000000; fill-opacity:0.0; 
stroke:#000000; stroke-width:-0.000393701; stroke-opacity:1; 
stroke-linecap:round; stroke-linejoin:round;">
</g>
<g style="fill:#840084; fill-opacity:0.0; 
stroke:#840084; stroke-width:-0.000393701; stroke-opacity:1; 
stroke-linecap:round; stroke-linejoin:round;">
</g>
<g style="fill:#840084; fill-opacity:0.0; 
stroke:#840084; stroke-width:49.2126; stroke-opacity:1; 
stroke-linecap:round; stroke-linejoin:round;">
<path d="M17141 1960
L17151 1969
L17179 1978
L17198 1978
L17226 1969
L17245 1950
L17254 1931
L17263 1894
L17263 1866
L17254 1828
L17245 1810
L17226 1791
L17198 1781
L17179 1781
L17151 1791
L17141 1800
" />
<path d="M17029 1978
L17048 1969
L17057 1960
L17066 1941
L17066 1885
L17057 1866
L17048 1856
L17029 1847
L17001 1847
L16982 1856
L16973 1866
L16963 1885
L16963 1941
L16973 1960
L16982 1969
L17001 1978
L17029 1978
" />
<path d="M16851 1978
L16870 1969
L16879 1950
L16879 1781
" />
<path d="M16673 1978
L16785 1978
" />
<path d="M16729 1978
L16729 1781
L16748 1810
L16766 1828
L16785 1838
" />
<path d="M17929 2826
L17938 2835
L17966 2844
L17985 2844
L18013 2835
L18032 2816
L18041 2798
L18051 2760
L18051 2732
L18041 2694
L18032 2676
L18013 2657
L17985 2648
L17966 2648
L17938 2657
L17929 2666
" />
<path d="M17816 2844
L17835 2835
L17844 2826
L17854 2807
L17854 2751
L17844 2732
L17835 2723
L17816 2713
L17788 2713
L17769 2723
L17760 2732
L17751 2751
L17751 2807
L17760 2826
L17769 2835
L17788 2844
L17816 2844
" />
<path d="M17638 2844
L17657 2835
L17666 2816
L17666 2648
" />
<path d="M17573 2666
L17563 2657
L17544 2648
L17498 2648
L17479 2657
L17470 2666
L17460 2685
L17460 2704
L17470 2732
L17582 2844
L17460 2844
" />
<path d="M18716 1960
L18726 1969
L18754 1978
L18772 1978
L18801 1969
L18819 1950
L18829 1931
L18838 1894
L18838 1866
L18829 1828
L18819 1810
L18801 1791
L18772 1781
L18754 1781
L18726 1791
L18716 1800
" />
<path d="M18604 1978
L18622 1969
L18632 1960
L18641 1941
L18641 1885
L18632 1866
L18622 1856
L18604 1847
L18576 1847
L18557 1856
L18547 1866
L18538 1885
L18538 1941
L18547 1960
L18557 1969
L18576 1978
L18604 1978
" />
<path d="M18426 1978
L18444 1969
L18454 1950
L18454 1781
" />
<path d="M18369 1781
L18248 1781
L18313 1856
L18285 1856
L18266 1866
L18257 1875
L18248 1894
L18248 1941
L18257 1960
L18266 1969
L18285 1978
L18341 1978
L18360 1969
L18369 1960
" />
<path d="M19504 2826
L19513 2835
L19541 2844
L19560 2844
L19588 2835
L19607 2816
L19616 2798
L19625 2760
L19625 2732
L19616 2694
L19607 2676
L19588 2657
L19560 2648
L19541 2648
L19513 2657
L19504 2666
" />
<path d="M19391 2844
L19410 2835
L19419 2826
L19429 2807
L19429 2751
L19419 2732
L19410 2723
L19391 2713
L19363 2713
L19344 2723
L19335 2732
L19326 2751
L19326 2807
L19335 2826
L19344 2835
L19363 2844
L19391 2844
" />
<path d="M19213 2844
L19232 2835
L19241 2816
L19241 2648
" />
<path d="M19054 2713
L19054 2844
" />
<path d="M19101 2638
L19147 2779
L19026 2779
" />
<path d="M20291 1960
L20300 1969
L20329 1978
L20347 1978
L20375 1969
L20394 1950
L20404 1931
L20413 1894
L20413 1866
L20404 1828
L20394 1810
L20375 1791
L20347 1781
L20329 1781
L20300 1791
L20291 1800
" />
<path d="M20179 1978
L20197 1969
L20207 1960
L20216 1941
L20216 1885
L20207 1866
L20197 1856
L20179 1847
L20150 1847
L20132 1856
L20122 1866
L20113 1885
L20113 1941
L20122 1960
L20132 1969
L20150 1978
L20179 1978
" />
<path d="M20000 1978
L20019 1969
L20029 1950
L20029 1781
" />
<path d="M19832 1781
L19925 1781
L19935 1875
L19925 1866
L19907 1856
L19860 1856
L19841 1866
L19832 1875
L19822 1894
L19822 1941
L19832 1960
L19841 1969
L19860 1978
L19907 1978
L19925 1969
L19935 1960
" />
<path d="M21158 2648
L21092 2844
L21027 2648
" />
<path d="M20971 2835
L20943 2844
L20896 2844
L20877 2835
L20868 2826
L20858 2807
L20858 2788
L20868 2769
L20877 2760
L20896 2751
L20933 2741
L20952 2732
L20961 2723
L20971 2704
L20971 2685
L20961 2666
L20952 2657
L20933 2648
L20886 2648
L20858 2657
" />
<path d="M20783 2835
L20755 2844
L20708 2844
L20689 2835
L20680 2826
L20671 2807
L20671 2788
L20680 2769
L20689 2760
L20708 2751
L20746 2741
L20764 2732
L20774 2723
L20783 2704
L20783 2685
L20774 2666
L20764 2657
L20746 2648
L20699 2648
L20671 2657
" />
<path d="M21880 1978
L21880 1781
L21833 1781
L21805 1791
L21786 1810
L21777 1828
L21767 1866
L21767 1894
L21777 1931
L21786 1950
L21805 1969
L21833 1978
L21880 1978
" />
<path d="M21683 1978
L21683 1847
" />
<path d="M21683 1781
L21692 1791
L21683 1800
L21674 1791
L21683 1781
L21683 1800
" />
<path d="M21589 1847
L21589 1978
" />
<path d="M21589 1866
L21580 1856
L21561 1847
L21533 1847
L21514 1856
L21505 1875
L21505 1978
" />
<path d="M21167 1427
L21102 1624
L21036 1427
" />
<path d="M20971 1624
L20971 1427
L20924 1427
L20896 1437
L20877 1455
L20868 1474
L20858 1511
L20858 1540
L20868 1577
L20877 1596
L20896 1615
L20924 1624
L20971 1624
" />
<path d="M20774 1624
L20774 1427
L20727 1427
L20699 1437
L20680 1455
L20671 1474
L20661 1511
L20661 1540
L20671 1577
L20680 1596
L20699 1615
L20727 1624
L20774 1624
" />
<path d="M20343 797
L20408 703
" />
<path d="M20455 797
L20455 600
L20380 600
L20361 610
L20352 619
L20343 638
L20343 666
L20352 685
L20361 694
L20380 703
L20455 703
" />
<path d="M20230 797
L20249 788
L20258 778
L20268 760
L20268 703
L20258 685
L20249 675
L20230 666
L20202 666
L20183 675
L20174 685
L20164 703
L20164 760
L20174 778
L20183 788
L20202 797
L20230 797
" />
<path d="M20099 666
L20061 797
L20024 703
L19986 797
L19949 666
" />
<path d="M19771 797
L19883 797
" />
<path d="M19827 797
L19827 600
L19846 628
L19865 647
L19883 657
" />
<path d="M19555 1624
L19621 1530
" />
<path d="M19668 1624
L19668 1427
L19593 1427
L19574 1437
L19565 1446
L19555 1465
L19555 1493
L19565 1511
L19574 1521
L19593 1530
L19668 1530
" />
<path d="M19443 1624
L19461 1615
L19471 1605
L19480 1586
L19480 1530
L19471 1511
L19461 1502
L19443 1493
L19415 1493
L19396 1502
L19386 1511
L19377 1530
L19377 1586
L19386 1605
L19396 1615
L19415 1624
L19443 1624
" />
<path d="M19311 1493
L19274 1624
L19236 1530
L19199 1624
L19161 1493
" />
<path d="M19096 1446
L19086 1437
L19068 1427
L19021 1427
L19002 1437
L18993 1446
L18983 1465
L18983 1483
L18993 1511
L19105 1624
L18983 1624
" />
<path d="M18768 797
L18833 703
" />
<path d="M18880 797
L18880 600
L18805 600
L18787 610
L18777 619
L18768 638
L18768 666
L18777 685
L18787 694
L18805 703
L18880 703
" />
<path d="M18655 797
L18674 788
L18683 778
L18693 760
L18693 703
L18683 685
L18674 675
L18655 666
L18627 666
L18608 675
L18599 685
L18590 703
L18590 760
L18599 778
L18608 788
L18627 797
L18655 797
" />
<path d="M18524 666
L18487 797
L18449 703
L18412 797
L18374 666
" />
<path d="M18318 600
L18196 600
L18262 675
L18233 675
L18215 685
L18205 694
L18196 713
L18196 760
L18205 778
L18215 788
L18233 797
L18290 797
L18308 788
L18318 778
" />
<path d="M17980 1624
L18046 1530
" />
<path d="M18093 1624
L18093 1427
L18018 1427
L17999 1437
L17990 1446
L17980 1465
L17980 1493
L17990 1511
L17999 1521
L18018 1530
L18093 1530
" />
<path d="M17868 1624
L17887 1615
L17896 1605
L17905 1586
L17905 1530
L17896 1511
L17887 1502
L17868 1493
L17840 1493
L17821 1502
L17812 1511
L17802 1530
L17802 1586
L17812 1605
L17821 1615
L17840 1624
L17868 1624
" />
<path d="M17737 1493
L17699 1624
L17662 1530
L17624 1624
L17587 1493
" />
<path d="M17427 1493
L17427 1624
" />
<path d="M17474 1418
L17521 1558
L17399 1558
" />
<path d="M17154 797
L17219 703
" />
<path d="M17266 797
L17266 600
L17191 600
L17172 610
L17163 619
L17154 638
L17154 666
L17163 685
L17172 694
L17191 703
L17266 703
" />
<path d="M17041 797
L17060 788
L17069 778
L17079 760
L17079 703
L17069 685
L17060 675
L17041 666
L17013 666
L16994 675
L16985 685
L16976 703
L16976 760
L16985 778
L16994 788
L17013 797
L17041 797
" />
<path d="M16910 666
L16872 797
L16835 703
L16797 797
L16760 666
" />
<path d="M16591 600
L16685 600
L16694 694
L16685 685
L16666 675
L16619 675
L16601 685
L16591 694
L16582 713
L16582 760
L16591 778
L16601 788
L16619 797
L16666 797
L16685 788
L16694 778
" />
</g>
<g style="fill:#840084; fill-opacity:0.0; 
stroke:#840084; stroke-width:98.4252; stroke-opacity:1; 
stroke-linecap:round; stroke-linejoin:round;">
<path d="M13619 38573
L13526 38967
L13451 38686
L13376 38967
L13282 38573
" />
<path d="M13076 38967
L13113 38948
L13132 38929
L13151 38892
L13151 38779
L13132 38742
L13113 38723
L13076 38705
L13020 38705
L12982 38723
L12963 38742
L12945 38779
L12945 38892
L12963 38929
L12982 38948
L13020 38967
L13076 38967
" />
<path d="M12720 38967
L12757 38948
L12776 38929
L12795 38892
L12795 38779
L12776 38742
L12757 38723
L12720 38705
L12663 38705
L12626 38723
L12607 38742
L12588 38779
L12588 38892
L12607 38929
L12626 38948
L12663 38967
L12720 38967
" />
<path d="M12251 38967
L12251 38573
" />
<path d="M12251 38948
L12288 38967
L12363 38967
L12401 38948
L12420 38929
L12438 38892
L12438 38779
L12420 38742
L12401 38723
L12363 38705
L12288 38705
L12251 38723
" />
<path d="M12063 38761
L11932 38761
" />
<path d="M11876 38967
L12063 38967
L12063 38573
L11876 38573
" />
<path d="M11651 38967
L11688 38948
L11707 38911
L11707 38573
" />
<path d="M11557 38705
L11407 38705
" />
<path d="M11501 38967
L11501 38630
L11482 38592
L11445 38573
L11407 38573
" />
<path d="M10901 38573
L10864 38573
L10826 38592
L10807 38611
L10789 38648
L10770 38723
L10770 38817
L10789 38892
L10807 38929
L10826 38948
L10864 38967
L10901 38967
L10939 38948
L10957 38929
L10976 38892
L10995 38817
L10995 38723
L10976 38648
L10957 38611
L10939 38592
L10901 38573
" />
<path d="M10395 38967
L10620 38967
" />
<path d="M10507 38967
L10507 38573
L10545 38630
L10582 38667
L10620 38686
" />
<path d="M13582 39656
L13582 39262
" />
<path d="M13582 39450
L13357 39450
" />
<path d="M13357 39656
L13357 39262
" />
<path d="M13001 39656
L13001 39450
L13020 39412
L13057 39393
L13132 39393
L13169 39412
" />
<path d="M13001 39637
L13038 39656
L13132 39656
L13169 39637
L13188 39600
L13188 39562
L13169 39525
L13132 39506
L13038 39506
L13001 39487
" />
<path d="M12813 39393
L12813 39656
" />
<path d="M12813 39431
L12795 39412
L12757 39393
L12701 39393
L12663 39412
L12645 39450
L12645 39656
" />
<path d="M12457 39393
L12457 39656
" />
<path d="M12457 39431
L12438 39412
L12401 39393
L12345 39393
L12307 39412
L12288 39450
L12288 39656
" />
<path d="M11932 39656
L11932 39450
L11951 39412
L11988 39393
L12063 39393
L12101 39412
" />
<path d="M11932 39637
L11970 39656
L12063 39656
L12101 39637
L12120 39600
L12120 39562
L12101 39525
L12063 39506
L11970 39506
L11932 39487
" />
<path d="M11745 39656
L11745 39262
" />
<path d="M11576 39656
L11576 39450
L11595 39412
L11632 39393
L11688 39393
L11726 39412
L11745 39431
" />
<path d="M10882 39281
L10920 39262
L10976 39262
L11032 39281
L11070 39318
L11089 39356
L11107 39431
L11107 39487
L11089 39562
L11070 39600
L11032 39637
L10976 39656
L10939 39656
L10882 39637
L10864 39618
L10864 39487
L10939 39487
" />
<path d="M10695 39656
L10695 39393
" />
<path d="M10695 39468
L10676 39431
L10657 39412
L10620 39393
L10582 39393
" />
<path d="M10282 39656
L10282 39450
L10301 39412
L10339 39393
L10414 39393
L10451 39412
" />
<path d="M10282 39637
L10320 39656
L10414 39656
L10451 39637
L10470 39600
L10470 39562
L10451 39525
L10414 39506
L10320 39506
L10282 39487
" />
<path d="M9926 39637
L9964 39656
L10039 39656
L10076 39637
L10095 39618
L10114 39581
L10114 39468
L10095 39431
L10076 39412
L10039 39393
L9964 39393
L9926 39412
" />
<path d="M9607 39637
L9645 39656
L9720 39656
L9757 39637
L9776 39600
L9776 39450
L9757 39412
L9720 39393
L9645 39393
L9607 39412
L9589 39450
L9589 39487
L9776 39525
" />
<path d="M9101 39262
L9139 39337
" />
<path d="M8726 39656
L8951 39656
" />
<path d="M8839 39656
L8839 39262
L8876 39318
L8914 39356
L8951 39375
" />
<path d="M8539 39656
L8464 39656
L8426 39637
L8408 39618
L8370 39562
L8351 39487
L8351 39337
L8370 39300
L8389 39281
L8426 39262
L8501 39262
L8539 39281
L8558 39300
L8576 39337
L8576 39431
L8558 39468
L8539 39487
L8501 39506
L8426 39506
L8389 39487
L8370 39468
L8351 39431
" />
</g>
<g style="fill:#840084; fill-opacity:1.0; 
stroke:#840084; stroke-width:3.93701; stroke-opacity:1; 
stroke-linecap:round; stroke-linejoin:round;">
<polyline style="fill-rule:evenodd;"
points="14687,39506
14677,39514
14671,39526
14669,39535
14672,39546
14678,39556
14686,39564
14696,39567
14696,39567
14702,39568
14711,39571
14724,39578
14741,39587
14762,39599
14789,39614
14820,39633
14823,39635
14868,39662
14909,39685
14944,39705
14976,39722
15005,39737
15031,39749
15054,39759
15076,39767
15097,39773
15117,39778
15136,39781
15157,39783
15177,39783
15195,39781
15204,39779
15229,39768
15249,39751
15266,39730
15277,39705
15285,39675
15287,39649
15287,39636
15286,39628
15282,39622
15280,39619
15268,39610
15256,39608
15244,39611
15237,39615
15231,39621
15228,39629
15226,39642
15224,39652
15221,39674
15214,39693
15205,39707
15195,39714
15178,39719
15157,39720
15131,39716
15103,39709
15071,39698
15056,39691
15039,39684
15018,39673
14993,39660
14966,39645
14939,39630
14912,39614
14886,39599
14882,39597
14845,39574
14812,39555
14784,39539
14761,39526
14741,39517
14725,39510
14712,39505
14702,39503
14699,39503
14687,39506
" /> 
<polyline style="fill-rule:evenodd;"
points="15274,39145
15265,39151
15264,39152
15259,39157
15257,39161
15256,39168
15256,39178
15257,39188
15259,39207
15264,39227
15271,39249
15281,39275
15295,39304
15305,39324
15315,39343
15322,39357
15326,39368
15329,39376
15330,39384
15331,39391
15331,39393
15330,39405
15328,39414
15323,39422
15318,39428
15310,39441
15306,39452
15308,39463
15311,39470
15319,39480
15331,39485
15345,39485
15353,39482
15361,39475
15370,39464
15379,39450
15387,39436
15391,39425
15395,39409
15396,39394
15394,39378
15390,39360
15382,39339
15370,39314
15362,39298
15348,39269
15337,39245
15328,39224
15322,39206
15319,39189
15317,39180
15314,39163
15308,39152
15299,39145
15286,39143
15274,39145
" /> 
<polyline style="fill-rule:evenodd;"
points="14057,38295
14046,38303
14042,38307
14040,38311
14038,38316
14036,38325
14035,38337
14034,38354
14034,38357
14033,38382
14033,38410
14034,38438
14035,38464
14037,38488
14039,38505
14040,38515
14041,38521
14041,38523
14038,38522
14030,38519
14019,38515
14019,38515
14000,38505
13984,38493
13981,38491
13970,38479
13956,38463
13939,38443
13921,38421
13902,38397
13885,38374
13872,38358
13862,38346
13854,38337
13847,38333
13840,38331
13834,38330
13820,38333
13809,38342
13801,38356
13797,38375
13796,38394
13799,38448
13808,38502
13822,38554
13842,38604
13842,38605
13866,38649
13896,38690
13932,38729
13975,38766
14023,38801
14051,38819
14072,38830
14098,38844
14129,38860
14166,38878
14207,38897
14251,38918
14293,38938
14330,38956
14363,38972
14391,38988
14417,39003
14440,39017
14462,39032
14484,39047
14487,39050
14512,39069
14531,39086
14548,39103
14561,39120
14574,39139
14587,39162
14587,39163
14604,39192
14619,39215
14634,39233
14649,39245
14665,39254
14682,39258
14688,39259
14698,39260
14705,39259
14711,39255
14716,39251
14723,39239
14725,39227
14721,39215
14712,39206
14699,39198
14694,39197
14686,39194
14679,39190
14672,39183
14665,39173
14656,39159
14646,39141
14638,39125
14630,39109
14622,39096
14615,39085
14607,39075
14595,39063
14583,39050
14562,39030
14541,39012
14518,38994
14494,38977
14467,38959
14437,38942
14403,38923
14366,38904
14323,38883
14275,38860
14267,38857
14217,38833
14173,38811
14133,38791
14099,38773
14068,38755
14042,38738
14018,38721
13997,38704
13978,38687
13961,38669
13948,38653
13927,38626
13910,38600
13896,38572
13891,38559
13886,38546
13881,38530
13876,38512
13871,38494
13867,38477
13864,38464
13863,38455
13862,38454
13864,38455
13870,38460
13878,38469
13888,38481
13895,38489
13908,38504
13921,38519
13933,38531
13942,38541
13944,38543
13954,38551
13965,38558
13978,38566
13993,38572
14011,38579
14033,38586
14058,38594
14087,38601
14120,38609
14159,38618
14203,38627
14254,38638
14266,38640
14323,38652
14375,38663
14421,38674
14462,38684
14500,38694
14534,38704
14565,38715
14593,38725
14620,38736
14646,38748
14647,38748
14690,38770
14726,38793
14756,38817
14780,38843
14799,38871
14813,38901
14814,38904
14817,38914
14820,38928
14822,38944
14822,38948
14824,38963
14825,38972
14828,38979
14832,38984
14835,38987
14848,38995
14860,38996
14873,38990
14874,38990
14881,38983
14885,38975
14887,38964
14887,38950
14886,38939
14879,38903
14870,38871
14865,38860
14848,38830
14826,38801
14800,38773
14769,38747
14748,38732
14718,38712
14734,38706
14759,38698
14789,38693
14823,38690
14858,38689
14894,38691
14913,38693
14963,38703
15013,38717
15062,38735
15108,38757
15151,38782
15190,38810
15219,38837
15245,38865
15264,38894
15277,38923
15285,38954
15287,38968
15289,38982
15292,38991
15296,38997
15299,39001
15311,39008
15324,39010
15337,39005
15341,39002
15346,38997
15349,38992
15350,38985
15350,38974
15350,38970
15348,38943
15341,38916
15330,38887
15324,38875
15302,38838
15275,38804
15241,38771
15203,38741
15159,38713
15112,38689
15061,38667
15007,38649
14950,38635
14944,38634
14931,38632
14917,38630
14900,38629
14880,38629
14855,38629
14844,38629
14820,38629
14799,38629
14782,38630
14767,38632
14751,38635
14734,38640
14715,38646
14692,38654
14675,38660
14636,38673
14593,38658
14576,38652
14562,38646
14552,38640
14547,38637
14547,38636
14540,38629
14529,38620
14514,38610
14494,38599
14471,38587
14318,38587
14318,38587
14315,38586
14305,38584
14291,38581
14274,38578
14254,38574
14245,38572
14214,38565
14189,38560
14169,38556
14153,38552
14141,38549
14133,38547
14127,38545
14123,38542
14120,38540
14117,38538
14116,38536
14109,38523
14103,38505
14099,38481
14098,38470
14096,38449
14107,38459
14123,38474
14142,38488
14164,38503
14190,38518
14220,38535
14255,38553
14262,38557
14280,38566
14295,38574
14307,38580
14315,38585
14318,38587
14471,38587
14470,38586
14440,38571
14404,38555
14391,38548
14358,38533
14326,38518
14295,38503
14267,38488
14241,38475
14220,38463
14204,38453
14200,38451
14172,38431
14147,38410
14128,38389
14113,38369
14103,38350
14099,38332
14099,38331
14097,38316
14090,38304
14080,38296
14069,38293
14057,38295
" /> 
</g>
<g style="fill:#840084; fill-opacity:1.0; 
stroke:#840084; stroke-width:47.2441; stroke-opacity:1; 
stroke-linecap:round; stroke-linejoin:round;">
</g>
<g style="fill:#840084; fill-opacity:0.0; 
stroke:#840084; stroke-width:47.2441; stroke-opacity:1; 
stroke-linecap:round; stroke-linejoin:round;">
<path d="M14771 4868
L14771 7175
" />
<path d="M13523 4868
L14771 4868
" />
<path d="M13523 7175
L13523 4868
" />
<path d="M6042 9050
L6042 6743
" />
<path d="M6042 6743
L7290 6743
" />
<path d="M7290 6743
L7290 9050
" />
<path d="M21003 9050
L21003 6743
" />
<path d="M21003 6743
L22251 6743
" />
<path d="M22251 6743
L22251 9050
" />
<path d="M29731 4868
L29731 7175
" />
<path d="M28483 4868
L29731 4868
" />
<path d="M28483 7175
L28483 4868
" />
<path d="M35964 7175
L35964 4868
" />
<path d="M35964 4868
L37212 4868
" />
<path d="M37212 4868
L37212 7175
" />
<path d="M37212 12348
L37212 14655
" />
<path d="M35964 12348
L37212 12348
" />
<path d="M35964 14655
L35964 12348
" />
<path d="M28483 14655
L28483 12348
" />
<path d="M28483 12348
L29731 12348
" />
<path d="M29731 12348
L29731 14655
" />
<path d="M22251 14223
L22251 16530
" />
<path d="M21003 14223
L22251 14223
" />
<path d="M21003 16530
L21003 14223
" />
<path d="M13523 14655
L13523 12348
" />
<path d="M13523 12348
L14771 12348
" />
<path d="M14771 12348
L14771 14655
" />
<path d="M7290 14223
L7290 16530
" />
<path d="M6042 14223
L7290 14223
" />
<path d="M6042 16530
L6042 14223
" />
<path d="M6042 24011
L6042 21704
" />
<path d="M6042 21704
L7290 21704
" />
<path d="M7290 21704
L7290 24011
" />
<path d="M14771 19829
L14771 22136
" />
<path d="M13523 19829
L14771 19829
" />
<path d="M13523 22136
L13523 19829
" />
<path d="M21003 24011
L21003 21704
" />
<path d="M21003 21704
L22251 21704
" />
<path d="M22251 21704
L22251 24011
" />
<path d="M29731 19829
L29731 22136
" />
<path d="M28483 19829
L29731 19829
" />
<path d="M28483 22136
L28483 19829
" />
<path d="M35964 22136
L35964 19829
" />
<path d="M35964 19829
L37212 19829
" />
<path d="M37212 19829
L37212 22136
" />
<path d="M37212 27309
L37212 29616
" />
<path d="M35964 27309
L37212 27309
" />
<path d="M35964 29616
L35964 27309
" />
<path d="M28483 29616
L28483 27309
" />
<path d="M28483 27309
L29731 27309
" />
<path d="M29731 27309
L29731 29616
" />
<path d="M22251 29184
L22251 31491
" />
<path d="M21003 29184
L22251 29184
" />
<path d="M21003 31491
L21003 29184
" />
<path d="M13523 29616
L13523 27309
" />
<path d="M13523 27309
L14771 27309
" />
<path d="M14771 27309
L14771 29616
" />
<path d="M7290 29184
L7290 31491
" />
<path d="M6042 29184
L7290 29184
" />
<path d="M6042 31491
L6042 29184
" />
<path d="M6042 38971
L6042 36664
" />
<path d="M6042 36664
L7290 36664
" />
<path d="M7290 36664
L7290 38971
" />
<path d="M14771 34789
L14771 37096
" />
<path d="M13523 34789
L14771 34789
" />
<path d="M13523 37096
L13523 34789
" />
<path d="M21003 38971
L21003 36664
" />
<path d="M21003 36664
L22251 36664
" />
<path d="M22251 36664
L22251 38971
" />
<path d="M29731 34789
L29731 37096
" />
<path d="M28483 34789
L29731 34789
" />
<path d="M28483 37096
L28483 34789
" />
<path d="M35911 37096
L35911 34789
" />
<path d="M35911 34789
L37159 34789
" />
<path d="M37159 34789
L37159 37096
" />
</g>
<g style="fill:#840084; fill-opacity:0.0; 
stroke:#840084; stroke-width:59.0551; stroke-opacity:1; 
stroke-linecap:round; stroke-linejoin:round;">
<path d="M1754 5747
L1754 5847
" />
<path d="M6404 5047
L6404 4747
" />
<path d="M2854.33 3297.84 A1100 1100 0.0 0 0 1754.33 4397.84 " />
<path d="M4304.33 5047.84 A800 800 0.0 0 0 3504.33 5847.84 " />
<path d="M4304 5047
L6404 5047
" />
<path d="M1754 5847
L3504 5847
" />
<path d="M1754 4397
L1754 4647
" />
<path d="M6404 3297
L2854 3297
" />
<path d="M6404 3647
L6404 3297
" />
<path d="M13884 1772
L13884 1422
" />
<path d="M13884 1422
L10334 1422
" />
<path d="M9234 2522
L9234 2772
" />
<path d="M9234 3972
L10984 3972
" />
<path d="M11784 3172
L13884 3172
" />
<path d="M11784.6 3172.84 A800 800 0.0 0 0 10984.6 3972.84 " />
<path d="M10334.6 1422.84 A1100 1100 0.0 0 0 9234.65 2522.84 " />
<path d="M13884 3172
L13884 2872
" />
<path d="M9234 3872
L9234 3972
" />
<path d="M16714 5747
L16714 5847
" />
<path d="M21364 5047
L21364 4747
" />
<path d="M17815 3297.84 A1100 1100 0.0 0 0 16715 4397.84 " />
<path d="M19265 5047.84 A800 800 0.0 0 0 18465 5847.84 " />
<path d="M19264 5047
L21364 5047
" />
<path d="M16714 5847
L18464 5847
" />
<path d="M16714 4397
L16714 4647
" />
<path d="M21364 3297
L17814 3297
" />
<path d="M21364 3647
L21364 3297
" />
<path d="M28845 1772
L28845 1422
" />
<path d="M28845 1422
L25295 1422
" />
<path d="M24195 2522
L24195 2772
" />
<path d="M24195 3972
L25945 3972
" />
<path d="M26745 3172
L28845 3172
" />
<path d="M26745.3 3172.84 A800 800 0.0 0 0 25945.3 3972.84 " />
<path d="M25295.3 1422.84 A1100 1100 0.0 0 0 24195.3 2522.84 " />
<path d="M28845 3172
L28845 2872
" />
<path d="M24195 3872
L24195 3972
" />
<path d="M36325 1772
L36325 1422
" />
<path d="M36325 1422
L32775 1422
" />
<path d="M31675 2522
L31675 2772
" />
<path d="M31675 3972
L33425 3972
" />
<path d="M34225 3172
L36325 3172
" />
<path d="M34225.6 3172.84 A800 800 0.0 0 0 33425.6 3972.84 " />
<path d="M32775.6 1422.84 A1100 1100 0.0 0 0 31675.6 2522.84 " />
<path d="M36325 3172
L36325 2872
" />
<path d="M31675 3872
L31675 3972
" />
<path d="M31675 11353
L31675 11453
" />
<path d="M36325 10653
L36325 10353
" />
<path d="M32775.6 8903.15 A1100 1100 0.0 0 0 31675.6 10003.1 " />
<path d="M34225.6 10653.1 A800 800 0.0 0 0 33425.6 11453.1 " />
<path d="M34225 10653
L36325 10653
" />
<path d="M31675 11453
L33425 11453
" />
<path d="M31675 10003
L31675 10253
" />
<path d="M36325 8903
L32775 8903
" />
<path d="M36325 9253
L36325 8903
" />
<path d="M28845 9253
L28845 8903
" />
<path d="M28845 8903
L25295 8903
" />
<path d="M24195 10003
L24195 10253
" />
<path d="M24195 11453
L25945 11453
" />
<path d="M26745 10653
L28845 10653
" />
<path d="M26745.3 10653.1 A800 800 0.0 0 0 25945.3 11453.1 " />
<path d="M25295.3 8903.15 A1100 1100 0.0 0 0 24195.3 10003.1 " />
<path d="M28845 10653
L28845 10353
" />
<path d="M24195 11353
L24195 11453
" />
<path d="M21364 11128
L21364 10778
" />
<path d="M21364 10778
L17814 10778
" />
<path d="M16714 11878
L16714 12128
" />
<path d="M16714 13328
L18464 13328
" />
<path d="M19264 12528
L21364 12528
" />
<path d="M19265 12528.1 A800 800 0.0 0 0 18465 13328.1 " />
<path d="M17815 10778.1 A1100 1100 0.0 0 0 16715 11878.1 " />
<path d="M21364 12528
L21364 12228
" />
<path d="M16714 13228
L16714 13328
" />
<path d="M13884 9253
L13884 8903
" />
<path d="M13884 8903
L10334 8903
" />
<path d="M9234 10003
L9234 10253
" />
<path d="M9234 11453
L10984 11453
" />
<path d="M11784 10653
L13884 10653
" />
<path d="M11784.6 10653.1 A800 800 0.0 0 0 10984.6 11453.1 " />
<path d="M10334.6 8903.15 A1100 1100 0.0 0 0 9234.65 10003.1 " />
<path d="M13884 10653
L13884 10353
" />
<path d="M9234 11353
L9234 11453
" />
<path d="M1754 13228
L1754 13328
" />
<path d="M6404 12528
L6404 12228
" />
<path d="M2854.33 10778.1 A1100 1100 0.0 0 0 1754.33 11878.1 " />
<path d="M4304.33 12528.1 A800 800 0.0 0 0 3504.33 13328.1 " />
<path d="M4304 12528
L6404 12528
" />
<path d="M1754 13328
L3504 13328
" />
<path d="M1754 11878
L1754 12128
" />
<path d="M6404 10778
L2854 10778
" />
<path d="M6404 11128
L6404 10778
" />
<path d="M6404 18608
L6404 18258
" />
<path d="M6404 18258
L2854 18258
" />
<path d="M1754 19358
L1754 19608
" />
<path d="M1754 20808
L3504 20808
" />
<path d="M4304 20008
L6404 20008
" />
<path d="M4304.33 20008.5 A800 800 0.0 0 0 3504.33 20808.5 " />
<path d="M2854.33 18258.5 A1100 1100 0.0 0 0 1754.33 19358.5 " />
<path d="M6404 20008
L6404 19708
" />
<path d="M1754 20708
L1754 20808
" />
<path d="M13884 16733
L13884 16383
" />
<path d="M13884 16383
L10334 16383
" />
<path d="M9234 17483
L9234 17733
" />
<path d="M9234 18933
L10984 18933
" />
<path d="M11784 18133
L13884 18133
" />
<path d="M11784.6 18133.5 A800 800 0.0 0 0 10984.6 18933.5 " />
<path d="M10334.6 16383.5 A1100 1100 0.0 0 0 9234.65 17483.5 " />
<path d="M13884 18133
L13884 17833
" />
<path d="M9234 18833
L9234 18933
" />
<path d="M21364 18608
L21364 18258
" />
<path d="M21364 18258
L17814 18258
" />
<path d="M16714 19358
L16714 19608
" />
<path d="M16714 20808
L18464 20808
" />
<path d="M19264 20008
L21364 20008
" />
<path d="M19265 20008.5 A800 800 0.0 0 0 18465 20808.5 " />
<path d="M17815 18258.5 A1100 1100 0.0 0 0 16715 19358.5 " />
<path d="M21364 20008
L21364 19708
" />
<path d="M16714 20708
L16714 20808
" />
<path d="M28845 16733
L28845 16383
" />
<path d="M28845 16383
L25295 16383
" />
<path d="M24195 17483
L24195 17733
" />
<path d="M24195 18933
L25945 18933
" />
<path d="M26745 18133
L28845 18133
" />
<path d="M26745.3 18133.5 A800 800 0.0 0 0 25945.3 18933.5 " />
<path d="M25295.3 16383.5 A1100 1100 0.0 0 0 24195.3 17483.5 " />
<path d="M28845 18133
L28845 17833
" />
<path d="M24195 18833
L24195 18933
" />
<path d="M31675 18833
L31675 18933
" />
<path d="M36325 18133
L36325 17833
" />
<path d="M32775.6 16383.5 A1100 1100 0.0 0 0 31675.6 17483.5 " />
<path d="M34225.6 18133.5 A800 800 0.0 0 0 33425.6 18933.5 " />
<path d="M34225 18133
L36325 18133
" />
<path d="M31675 18933
L33425 18933
" />
<path d="M31675 17483
L31675 17733
" />
<path d="M36325 16383
L32775 16383
" />
<path d="M36325 16733
L36325 16383
" />
<path d="M31675 26313
L31675 26413
" />
<path d="M36325 25613
L36325 25313
" />
<path d="M32775.6 23863.8 A1100 1100 0.0 0 0 31675.6 24963.8 " />
<path d="M34225.6 25613.8 A800 800 0.0 0 0 33425.6 26413.8 " />
<path d="M34225 25613
L36325 25613
" />
<path d="M31675 26413
L33425 26413
" />
<path d="M31675 24963
L31675 25213
" />
<path d="M36325 23863
L32775 23863
" />
<path d="M36325 24213
L36325 23863
" />
<path d="M24195 26313
L24195 26413
" />
<path d="M28845 25613
L28845 25313
" />
<path d="M25295.3 23863.8 A1100 1100 0.0 0 0 24195.3 24963.8 " />
<path d="M26745.3 25613.8 A800 800 0.0 0 0 25945.3 26413.8 " />
<path d="M26745 25613
L28845 25613
" />
<path d="M24195 26413
L25945 26413
" />
<path d="M24195 24963
L24195 25213
" />
<path d="M28845 23863
L25295 23863
" />
<path d="M28845 24213
L28845 23863
" />
<path d="M21364 26088
L21364 25738
" />
<path d="M21364 25738
L17814 25738
" />
<path d="M16714 26838
L16714 27088
" />
<path d="M16714 28288
L18464 28288
" />
<path d="M19264 27488
L21364 27488
" />
<path d="M19265 27488.8 A800 800 0.0 0 0 18465 28288.8 " />
<path d="M17815 25738.8 A1100 1100 0.0 0 0 16715 26838.8 " />
<path d="M21364 27488
L21364 27188
" />
<path d="M16714 28188
L16714 28288
" />
<path d="M9234 26313
L9234 26413
" />
<path d="M13884 25613
L13884 25313
" />
<path d="M10334.6 23863.8 A1100 1100 0.0 0 0 9234.65 24963.8 " />
<path d="M11784.6 25613.8 A800 800 0.0 0 0 10984.6 26413.8 " />
<path d="M11784 25613
L13884 25613
" />
<path d="M9234 26413
L10984 26413
" />
<path d="M9234 24963
L9234 25213
" />
<path d="M13884 23863
L10334 23863
" />
<path d="M13884 24213
L13884 23863
" />
<path d="M6404 26088
L6404 25738
" />
<path d="M6404 25738
L2854 25738
" />
<path d="M1754 26838
L1754 27088
" />
<path d="M1754 28288
L3504 28288
" />
<path d="M4304 27488
L6404 27488
" />
<path d="M4304.33 27488.8 A800 800 0.0 0 0 3504.33 28288.8 " />
<path d="M2854.33 25738.8 A1100 1100 0.0 0 0 1754.33 26838.8 " />
<path d="M6404 27488
L6404 27188
" />
<path d="M1754 28188
L1754 28288
" />
<path d="M6404 33569
L6404 33219
" />
<path d="M6404 33219
L2854 33219
" />
<path d="M1754 34319
L1754 34569
" />
<path d="M1754 35769
L3504 35769
" />
<path d="M4304 34969
L6404 34969
" />
<path d="M4304.33 34969.1 A800 800 0.0 0 0 3504.33 35769.1 " />
<path d="M2854.33 33219.1 A1100 1100 0.0 0 0 1754.33 34319.1 " />
<path d="M6404 34969
L6404 34669
" />
<path d="M1754 35669
L1754 35769
" />
<path d="M9234 33794
L9234 33894
" />
<path d="M13884 33094
L13884 32794
" />
<path d="M10334.6 31344.1 A1100 1100 0.0 0 0 9234.65 32444.1 " />
<path d="M11784.6 33094.1 A800 800 0.0 0 0 10984.6 33894.1 " />
<path d="M11784 33094
L13884 33094
" />
<path d="M9234 33894
L10984 33894
" />
<path d="M9234 32444
L9234 32694
" />
<path d="M13884 31344
L10334 31344
" />
<path d="M13884 31694
L13884 31344
" />
<path d="M16714 35669
L16714 35769
" />
<path d="M21364 34969
L21364 34669
" />
<path d="M17815 33219.1 A1100 1100 0.0 0 0 16715 34319.1 " />
<path d="M19265 34969.1 A800 800 0.0 0 0 18465 35769.1 " />
<path d="M19264 34969
L21364 34969
" />
<path d="M16714 35769
L18464 35769
" />
<path d="M16714 34319
L16714 34569
" />
<path d="M21364 33219
L17814 33219
" />
<path d="M21364 33569
L21364 33219
" />
<path d="M24195 33794
L24195 33894
" />
<path d="M28845 33094
L28845 32794
" />
<path d="M25295.3 31344.1 A1100 1100 0.0 0 0 24195.3 32444.1 " />
<path d="M26745.3 33094.1 A800 800 0.0 0 0 25945.3 33894.1 " />
<path d="M26745 33094
L28845 33094
" />
<path d="M24195 33894
L25945 33894
" />
<path d="M24195 32444
L24195 32694
" />
<path d="M28845 31344
L25295 31344
" />
<path d="M28845 31694
L28845 31344
" />
<path d="M31675 33794
L31675 33894
" />
<path d="M36325 33094
L36325 32794
" />
<path d="M32775.6 31344.1 A1100 1100 0.0 0 0 31675.6 32444.1 " />
<path d="M34225.6 33094.1 A800 800 0.0 0 0 33425.6 33894.1 " />
<path d="M34225 33094
L36325 33094
" />
<path d="M31675 33894
L33425 33894
" />
<path d="M31675 32444
L31675 32694
" />
<path d="M36325 31344
L32775 31344
" />
<path d="M36325 31694
L36325 31344
" />
<path d="M3616 7546
L3856 7306
" />
<path d="M5491 8726
L5491 8946
" />
<path d="M3856 7306
L5491 7306
" />
<path d="M5491 8946
L3616 8946
" />
<path d="M5491 8026
L5491 8306
" />
<path d="M5491 7306
L5491 7606
" />
<path d="M3616 8726
L3616 8946
" />
<path d="M3616 8026
L3616 8306
" />
<path d="M3616 7546
L3616 7606
" />
<path d="M11097 5671
L11097 5731
" />
<path d="M11097 6151
L11097 6431
" />
<path d="M11097 6851
L11097 7071
" />
<path d="M12972 5431
L12972 5731
" />
<path d="M12972 6151
L12972 6431
" />
<path d="M12972 7071
L11097 7071
" />
<path d="M11337 5431
L12972 5431
" />
<path d="M12972 6851
L12972 7071
" />
<path d="M11097 5671
L11337 5431
" />
<path d="M18577 7546
L18817 7306
" />
<path d="M20452 8726
L20452 8946
" />
<path d="M18817 7306
L20452 7306
" />
<path d="M20452 8946
L18577 8946
" />
<path d="M20452 8026
L20452 8306
" />
<path d="M20452 7306
L20452 7606
" />
<path d="M18577 8726
L18577 8946
" />
<path d="M18577 8026
L18577 8306
" />
<path d="M18577 7546
L18577 7606
" />
<path d="M26057 5671
L26297 5431
" />
<path d="M27932 6851
L27932 7071
" />
<path d="M26297 5431
L27932 5431
" />
<path d="M27932 7071
L26057 7071
" />
<path d="M27932 6151
L27932 6431
" />
<path d="M27932 5431
L27932 5731
" />
<path d="M26057 6851
L26057 7071
" />
<path d="M26057 6151
L26057 6431
" />
<path d="M26057 5671
L26057 5731
" />
<path d="M33538 5671
L33538 5731
" />
<path d="M33538 6151
L33538 6431
" />
<path d="M33538 6851
L33538 7071
" />
<path d="M35413 5431
L35413 5731
" />
<path d="M35413 6151
L35413 6431
" />
<path d="M35413 7071
L33538 7071
" />
<path d="M33778 5431
L35413 5431
" />
<path d="M35413 6851
L35413 7071
" />
<path d="M33538 5671
L33778 5431
" />
<path d="M33538 13151
L33538 13211
" />
<path d="M33538 13631
L33538 13911
" />
<path d="M33538 14331
L33538 14551
" />
<path d="M35413 12911
L35413 13211
" />
<path d="M35413 13631
L35413 13911
" />
<path d="M35413 14551
L33538 14551
" />
<path d="M33778 12911
L35413 12911
" />
<path d="M35413 14331
L35413 14551
" />
<path d="M33538 13151
L33778 12911
" />
<path d="M26057 13151
L26297 12911
" />
<path d="M27932 14331
L27932 14551
" />
<path d="M26297 12911
L27932 12911
" />
<path d="M27932 14551
L26057 14551
" />
<path d="M27932 13631
L27932 13911
" />
<path d="M27932 12911
L27932 13211
" />
<path d="M26057 14331
L26057 14551
" />
<path d="M26057 13631
L26057 13911
" />
<path d="M26057 13151
L26057 13211
" />
<path d="M18577 15026
L18577 15086
" />
<path d="M18577 15506
L18577 15786
" />
<path d="M18577 16206
L18577 16426
" />
<path d="M20452 14786
L20452 15086
" />
<path d="M20452 15506
L20452 15786
" />
<path d="M20452 16426
L18577 16426
" />
<path d="M18817 14786
L20452 14786
" />
<path d="M20452 16206
L20452 16426
" />
<path d="M18577 15026
L18817 14786
" />
<path d="M11097 13151
L11337 12911
" />
<path d="M12972 14331
L12972 14551
" />
<path d="M11337 12911
L12972 12911
" />
<path d="M12972 14551
L11097 14551
" />
<path d="M12972 13631
L12972 13911
" />
<path d="M12972 12911
L12972 13211
" />
<path d="M11097 14331
L11097 14551
" />
<path d="M11097 13631
L11097 13911
" />
<path d="M11097 13151
L11097 13211
" />
<path d="M3616 15026
L3616 15086
" />
<path d="M3616 15506
L3616 15786
" />
<path d="M3616 16206
L3616 16426
" />
<path d="M5491 14786
L5491 15086
" />
<path d="M5491 15506
L5491 15786
" />
<path d="M5491 16426
L3616 16426
" />
<path d="M3856 14786
L5491 14786
" />
<path d="M5491 16206
L5491 16426
" />
<path d="M3616 15026
L3856 14786
" />
<path d="M3616 22506
L3856 22266
" />
<path d="M5491 23686
L5491 23906
" />
<path d="M3856 22266
L5491 22266
" />
<path d="M5491 23906
L3616 23906
" />
<path d="M5491 22986
L5491 23266
" />
<path d="M5491 22266
L5491 22566
" />
<path d="M3616 23686
L3616 23906
" />
<path d="M3616 22986
L3616 23266
" />
<path d="M3616 22506
L3616 22566
" />
<path d="M11097 20631
L11337 20391
" />
<path d="M12972 21811
L12972 22031
" />
<path d="M11337 20391
L12972 20391
" />
<path d="M12972 22031
L11097 22031
" />
<path d="M12972 21111
L12972 21391
" />
<path d="M12972 20391
L12972 20691
" />
<path d="M11097 21811
L11097 22031
" />
<path d="M11097 21111
L11097 21391
" />
<path d="M11097 20631
L11097 20691
" />
<path d="M18577 22506
L18817 22266
" />
<path d="M20452 23686
L20452 23906
" />
<path d="M18817 22266
L20452 22266
" />
<path d="M20452 23906
L18577 23906
" />
<path d="M20452 22986
L20452 23266
" />
<path d="M20452 22266
L20452 22566
" />
<path d="M18577 23686
L18577 23906
" />
<path d="M18577 22986
L18577 23266
" />
<path d="M18577 22506
L18577 22566
" />
<path d="M26057 20631
L26057 20691
" />
<path d="M26057 21111
L26057 21391
" />
<path d="M26057 21811
L26057 22031
" />
<path d="M27932 20391
L27932 20691
" />
<path d="M27932 21111
L27932 21391
" />
<path d="M27932 22031
L26057 22031
" />
<path d="M26297 20391
L27932 20391
" />
<path d="M27932 21811
L27932 22031
" />
<path d="M26057 20631
L26297 20391
" />
<path d="M33538 20631
L33778 20391
" />
<path d="M35413 21811
L35413 22031
" />
<path d="M33778 20391
L35413 20391
" />
<path d="M35413 22031
L33538 22031
" />
<path d="M35413 21111
L35413 21391
" />
<path d="M35413 20391
L35413 20691
" />
<path d="M33538 21811
L33538 22031
" />
<path d="M33538 21111
L33538 21391
" />
<path d="M33538 20631
L33538 20691
" />
<path d="M33538 28112
L33778 27872
" />
<path d="M35413 29292
L35413 29512
" />
<path d="M33778 27872
L35413 27872
" />
<path d="M35413 29512
L33538 29512
" />
<path d="M35413 28592
L35413 28872
" />
<path d="M35413 27872
L35413 28172
" />
<path d="M33538 29292
L33538 29512
" />
<path d="M33538 28592
L33538 28872
" />
<path d="M33538 28112
L33538 28172
" />
<path d="M26057 28112
L26057 28172
" />
<path d="M26057 28592
L26057 28872
" />
<path d="M26057 29292
L26057 29512
" />
<path d="M27932 27872
L27932 28172
" />
<path d="M27932 28592
L27932 28872
" />
<path d="M27932 29512
L26057 29512
" />
<path d="M26297 27872
L27932 27872
" />
<path d="M27932 29292
L27932 29512
" />
<path d="M26057 28112
L26297 27872
" />
<path d="M18577 29987
L18577 30047
" />
<path d="M18577 30467
L18577 30747
" />
<path d="M18577 31167
L18577 31387
" />
<path d="M20452 29747
L20452 30047
" />
<path d="M20452 30467
L20452 30747
" />
<path d="M20452 31387
L18577 31387
" />
<path d="M18817 29747
L20452 29747
" />
<path d="M20452 31167
L20452 31387
" />
<path d="M18577 29987
L18817 29747
" />
<path d="M11097 28112
L11097 28172
" />
<path d="M11097 28592
L11097 28872
" />
<path d="M11097 29292
L11097 29512
" />
<path d="M12972 27872
L12972 28172
" />
<path d="M12972 28592
L12972 28872
" />
<path d="M12972 29512
L11097 29512
" />
<path d="M11337 27872
L12972 27872
" />
<path d="M12972 29292
L12972 29512
" />
<path d="M11097 28112
L11337 27872
" />
<path d="M3616 29987
L3856 29747
" />
<path d="M5491 31167
L5491 31387
" />
<path d="M3856 29747
L5491 29747
" />
<path d="M5491 31387
L3616 31387
" />
<path d="M5491 30467
L5491 30747
" />
<path d="M5491 29747
L5491 30047
" />
<path d="M3616 31167
L3616 31387
" />
<path d="M3616 30467
L3616 30747
" />
<path d="M3616 29987
L3616 30047
" />
<path d="M3616 37467
L3616 37527
" />
<path d="M3616 37947
L3616 38227
" />
<path d="M3616 38647
L3616 38867
" />
<path d="M5491 37227
L5491 37527
" />
<path d="M5491 37947
L5491 38227
" />
<path d="M5491 38867
L3616 38867
" />
<path d="M3856 37227
L5491 37227
" />
<path d="M5491 38647
L5491 38867
" />
<path d="M3616 37467
L3856 37227
" />
<path d="M11097 35592
L11097 35652
" />
<path d="M11097 36072
L11097 36352
" />
<path d="M11097 36772
L11097 36992
" />
<path d="M12972 35352
L12972 35652
" />
<path d="M12972 36072
L12972 36352
" />
<path d="M12972 36992
L11097 36992
" />
<path d="M11337 35352
L12972 35352
" />
<path d="M12972 36772
L12972 36992
" />
<path d="M11097 35592
L11337 35352
" />
<path d="M18577 37467
L18817 37227
" />
<path d="M20452 38647
L20452 38867
" />
<path d="M18817 37227
L20452 37227
" />
<path d="M20452 38867
L18577 38867
" />
<path d="M20452 37947
L20452 38227
" />
<path d="M20452 37227
L20452 37527
" />
<path d="M18577 38647
L18577 38867
" />
<path d="M18577 37947
L18577 38227
" />
<path d="M18577 37467
L18577 37527
" />
<path d="M26057 35592
L26297 35352
" />
<path d="M27932 36772
L27932 36992
" />
<path d="M26297 35352
L27932 35352
" />
<path d="M27932 36992
L26057 36992
" />
<path d="M27932 36072
L27932 36352
" />
<path d="M27932 35352
L27932 35652
" />
<path d="M26057 36772
L26057 36992
" />
<path d="M26057 36072
L26057 36352
" />
<path d="M26057 35592
L26057 35652
" />
<path d="M33538 35592
L33538 35652
" />
<path d="M33538 36072
L33538 36352
" />
<path d="M33538 36772
L33538 36992
" />
<path d="M35413 35352
L35413 35652
" />
<path d="M35413 36072
L35413 36352
" />
<path d="M35413 36992
L33538 36992
" />
<path d="M33778 35352
L35413 35352
" />
<path d="M35413 36772
L35413 36992
" />
<path d="M33538 35592
L33778 35352
" />
<path d="M13427 5900
L13034 5900
L13034 5994
L13052 6050
L13090 6088
L13127 6106
L13202 6125
L13258 6125
L13333 6106
L13371 6088
L13408 6050
L13427 5994
L13427 5900
" />
<path d="M13427 6500
L13427 6275
" />
<path d="M13427 6388
L13034 6388
L13090 6350
L13127 6313
L13146 6275
" />
<path d="M5947 7775
L5553 7775
L5553 7869
L5572 7925
L5609 7963
L5647 7981
L5722 8000
L5778 8000
L5853 7981
L5891 7963
L5928 7925
L5947 7869
L5947 7775
" />
<path d="M5591 8150
L5572 8169
L5553 8206
L5553 8300
L5572 8338
L5591 8356
L5628 8375
L5666 8375
L5722 8356
L5947 8131
L5947 8375
" />
<path d="M20908 7775
L20514 7775
L20514 7869
L20533 7925
L20570 7963
L20608 7981
L20683 8000
L20739 8000
L20814 7981
L20851 7963
L20889 7925
L20908 7869
L20908 7775
" />
<path d="M20514 8131
L20514 8375
L20664 8244
L20664 8300
L20683 8338
L20701 8356
L20739 8375
L20833 8375
L20870 8356
L20889 8338
L20908 8300
L20908 8188
L20889 8150
L20870 8131
" />
<path d="M28388 5900
L27994 5900
L27994 5994
L28013 6050
L28050 6088
L28088 6106
L28163 6125
L28219 6125
L28294 6106
L28332 6088
L28369 6050
L28388 5994
L28388 5900
" />
<path d="M28125 6463
L28388 6463
" />
<path d="M27975 6369
L28257 6275
L28257 6519
" />
<path d="M35868 5900
L35474 5900
L35474 5994
L35493 6050
L35531 6088
L35568 6106
L35643 6125
L35699 6125
L35774 6106
L35812 6088
L35849 6050
L35868 5994
L35868 5900
" />
<path d="M35474 6481
L35474 6294
L35662 6275
L35643 6294
L35624 6331
L35624 6425
L35643 6463
L35662 6481
L35699 6500
L35793 6500
L35831 6481
L35849 6463
L35868 6425
L35868 6331
L35849 6294
L35831 6275
" />
<path d="M35868 13381
L35474 13381
L35474 13474
L35493 13531
L35531 13568
L35568 13587
L35643 13606
L35699 13606
L35774 13587
L35812 13568
L35849 13531
L35868 13474
L35868 13381
" />
<path d="M35474 13943
L35474 13868
L35493 13831
L35512 13812
L35568 13774
L35643 13756
L35793 13756
L35831 13774
L35849 13793
L35868 13831
L35868 13905
L35849 13943
L35831 13962
L35793 13980
L35699 13980
L35662 13962
L35643 13943
L35624 13905
L35624 13831
L35643 13793
L35662 13774
L35699 13756
" />
<path d="M28388 13381
L27994 13381
L27994 13474
L28013 13531
L28050 13568
L28088 13587
L28163 13606
L28219 13606
L28294 13587
L28332 13568
L28369 13531
L28388 13474
L28388 13381
" />
<path d="M27994 13737
L27994 13999
L28388 13831
" />
<path d="M20908 15256
L20514 15256
L20514 15349
L20533 15406
L20570 15443
L20608 15462
L20683 15481
L20739 15481
L20814 15462
L20851 15443
L20889 15406
L20908 15349
L20908 15256
" />
<path d="M20683 15706
L20664 15668
L20645 15649
L20608 15631
L20589 15631
L20551 15649
L20533 15668
L20514 15706
L20514 15780
L20533 15818
L20551 15837
L20589 15855
L20608 15855
L20645 15837
L20664 15818
L20683 15780
L20683 15706
L20701 15668
L20720 15649
L20758 15631
L20833 15631
L20870 15649
L20889 15668
L20908 15706
L20908 15780
L20889 15818
L20870 15837
L20833 15855
L20758 15855
L20720 15837
L20701 15818
L20683 15780
" />
<path d="M13427 13381
L13034 13381
L13034 13474
L13052 13531
L13090 13568
L13127 13587
L13202 13606
L13258 13606
L13333 13587
L13371 13568
L13408 13531
L13427 13474
L13427 13381
" />
<path d="M13427 13793
L13427 13868
L13408 13905
L13390 13924
L13333 13962
L13258 13980
L13108 13980
L13071 13962
L13052 13943
L13034 13905
L13034 13831
L13052 13793
L13071 13774
L13108 13756
L13202 13756
L13240 13774
L13258 13793
L13277 13831
L13277 13905
L13258 13943
L13240 13962
L13202 13980
" />
<path d="M5947 15068
L5553 15068
L5553 15162
L5572 15218
L5609 15256
L5647 15274
L5722 15293
L5778 15293
L5853 15274
L5891 15256
L5928 15218
L5947 15162
L5947 15068
" />
<path d="M5947 15668
L5947 15443
" />
<path d="M5947 15556
L5553 15556
L5609 15518
L5647 15481
L5666 15443
" />
<path d="M5553 15912
L5553 15949
L5572 15987
L5591 16005
L5628 16024
L5703 16043
L5797 16043
L5872 16024
L5909 16005
L5928 15987
L5947 15949
L5947 15912
L5928 15874
L5909 15855
L5872 15837
L5797 15818
L5703 15818
L5628 15837
L5591 15855
L5572 15874
L5553 15912
" />
<path d="M5947 22548
L5553 22548
L5553 22642
L5572 22698
L5609 22736
L5647 22755
L5722 22773
L5778 22773
L5853 22755
L5891 22736
L5928 22698
L5947 22642
L5947 22548
" />
<path d="M5947 23148
L5947 22923
" />
<path d="M5947 23036
L5553 23036
L5609 22998
L5647 22961
L5666 22923
" />
<path d="M5947 23523
L5947 23298
" />
<path d="M5947 23411
L5553 23411
L5609 23373
L5647 23336
L5666 23298
" />
<path d="M13427 20673
L13034 20673
L13034 20767
L13052 20823
L13090 20861
L13127 20880
L13202 20898
L13258 20898
L13333 20880
L13371 20861
L13408 20823
L13427 20767
L13427 20673
" />
<path d="M13427 21273
L13427 21048
" />
<path d="M13427 21161
L13034 21161
L13090 21123
L13127 21086
L13146 21048
" />
<path d="M13071 21423
L13052 21442
L13034 21480
L13034 21573
L13052 21611
L13071 21630
L13108 21648
L13146 21648
L13202 21630
L13427 21405
L13427 21648
" />
<path d="M20908 22548
L20514 22548
L20514 22642
L20533 22698
L20570 22736
L20608 22755
L20683 22773
L20739 22773
L20814 22755
L20851 22736
L20889 22698
L20908 22642
L20908 22548
" />
<path d="M20908 23148
L20908 22923
" />
<path d="M20908 23036
L20514 23036
L20570 22998
L20608 22961
L20626 22923
" />
<path d="M20514 23280
L20514 23523
L20664 23392
L20664 23448
L20683 23486
L20701 23505
L20739 23523
L20833 23523
L20870 23505
L20889 23486
L20908 23448
L20908 23336
L20889 23298
L20870 23280
" />
<path d="M28388 20673
L27994 20673
L27994 20767
L28013 20823
L28050 20861
L28088 20880
L28163 20898
L28219 20898
L28294 20880
L28332 20861
L28369 20823
L28388 20767
L28388 20673
" />
<path d="M28388 21273
L28388 21048
" />
<path d="M28388 21161
L27994 21161
L28050 21123
L28088 21086
L28107 21048
" />
<path d="M28125 21611
L28388 21611
" />
<path d="M27975 21517
L28257 21423
L28257 21667
" />
<path d="M35868 20673
L35474 20673
L35474 20767
L35493 20823
L35531 20861
L35568 20880
L35643 20898
L35699 20898
L35774 20880
L35812 20861
L35849 20823
L35868 20767
L35868 20673
" />
<path d="M35868 21273
L35868 21048
" />
<path d="M35868 21161
L35474 21161
L35531 21123
L35568 21086
L35587 21048
" />
<path d="M35474 21630
L35474 21442
L35662 21423
L35643 21442
L35624 21480
L35624 21573
L35643 21611
L35662 21630
L35699 21648
L35793 21648
L35831 21630
L35849 21611
L35868 21573
L35868 21480
L35849 21442
L35831 21423
" />
<path d="M35868 28154
L35474 28154
L35474 28247
L35493 28304
L35531 28341
L35568 28360
L35643 28379
L35699 28379
L35774 28360
L35812 28341
L35849 28304
L35868 28247
L35868 28154
" />
<path d="M35868 28754
L35868 28529
" />
<path d="M35868 28641
L35474 28641
L35531 28604
L35568 28566
L35587 28529
" />
<path d="M35474 29091
L35474 29016
L35493 28979
L35512 28960
L35568 28922
L35643 28904
L35793 28904
L35831 28922
L35849 28941
L35868 28979
L35868 29054
L35849 29091
L35831 29110
L35793 29129
L35699 29129
L35662 29110
L35643 29091
L35624 29054
L35624 28979
L35643 28941
L35662 28922
L35699 28904
" />
<path d="M28388 28154
L27994 28154
L27994 28247
L28013 28304
L28050 28341
L28088 28360
L28163 28379
L28219 28379
L28294 28360
L28332 28341
L28369 28304
L28388 28247
L28388 28154
" />
<path d="M28388 28754
L28388 28529
" />
<path d="M28388 28641
L27994 28641
L28050 28604
L28088 28566
L28107 28529
" />
<path d="M27994 28885
L27994 29147
L28388 28979
" />
<path d="M20908 30029
L20514 30029
L20514 30122
L20533 30179
L20570 30216
L20608 30235
L20683 30254
L20739 30254
L20814 30235
L20851 30216
L20889 30179
L20908 30122
L20908 30029
" />
<path d="M20908 30629
L20908 30404
" />
<path d="M20908 30516
L20514 30516
L20570 30479
L20608 30441
L20626 30404
" />
<path d="M20683 30854
L20664 30816
L20645 30797
L20608 30779
L20589 30779
L20551 30797
L20533 30816
L20514 30854
L20514 30929
L20533 30966
L20551 30985
L20589 31004
L20608 31004
L20645 30985
L20664 30966
L20683 30929
L20683 30854
L20701 30816
L20720 30797
L20758 30779
L20833 30779
L20870 30797
L20889 30816
L20908 30854
L20908 30929
L20889 30966
L20870 30985
L20833 31004
L20758 31004
L20720 30985
L20701 30966
L20683 30929
" />
<path d="M13427 28154
L13034 28154
L13034 28247
L13052 28304
L13090 28341
L13127 28360
L13202 28379
L13258 28379
L13333 28360
L13371 28341
L13408 28304
L13427 28247
L13427 28154
" />
<path d="M13427 28754
L13427 28529
" />
<path d="M13427 28641
L13034 28641
L13090 28604
L13127 28566
L13146 28529
" />
<path d="M13427 28941
L13427 29016
L13408 29054
L13390 29072
L13333 29110
L13258 29129
L13108 29129
L13071 29110
L13052 29091
L13034 29054
L13034 28979
L13052 28941
L13071 28922
L13108 28904
L13202 28904
L13240 28922
L13258 28941
L13277 28979
L13277 29054
L13258 29091
L13240 29110
L13202 29129
" />
<path d="M5947 30029
L5553 30029
L5553 30122
L5572 30179
L5609 30216
L5647 30235
L5722 30254
L5778 30254
L5853 30235
L5891 30216
L5928 30179
L5947 30122
L5947 30029
" />
<path d="M5591 30404
L5572 30422
L5553 30460
L5553 30554
L5572 30591
L5591 30610
L5628 30629
L5666 30629
L5722 30610
L5947 30385
L5947 30629
" />
<path d="M5553 30872
L5553 30910
L5572 30947
L5591 30966
L5628 30985
L5703 31004
L5797 31004
L5872 30985
L5909 30966
L5928 30947
L5947 30910
L5947 30872
L5928 30835
L5909 30816
L5872 30797
L5797 30779
L5703 30779
L5628 30797
L5591 30816
L5572 30835
L5553 30872
" />
<path d="M5947 37509
L5553 37509
L5553 37603
L5572 37659
L5609 37697
L5647 37715
L5722 37734
L5778 37734
L5853 37715
L5891 37697
L5928 37659
L5947 37603
L5947 37509
" />
<path d="M5591 37884
L5572 37903
L5553 37940
L5553 38034
L5572 38071
L5591 38090
L5628 38109
L5666 38109
L5722 38090
L5947 37865
L5947 38109
" />
<path d="M5947 38484
L5947 38259
" />
<path d="M5947 38371
L5553 38371
L5609 38334
L5647 38296
L5666 38259
" />
<path d="M13427 35634
L13034 35634
L13034 35728
L13052 35784
L13090 35822
L13127 35840
L13202 35859
L13258 35859
L13333 35840
L13371 35822
L13408 35784
L13427 35728
L13427 35634
" />
<path d="M13071 36009
L13052 36028
L13034 36065
L13034 36159
L13052 36196
L13071 36215
L13108 36234
L13146 36234
L13202 36215
L13427 35990
L13427 36234
" />
<path d="M13071 36384
L13052 36403
L13034 36440
L13034 36534
L13052 36571
L13071 36590
L13108 36609
L13146 36609
L13202 36590
L13427 36365
L13427 36609
" />
<path d="M20908 37509
L20514 37509
L20514 37603
L20533 37659
L20570 37697
L20608 37715
L20683 37734
L20739 37734
L20814 37715
L20851 37697
L20889 37659
L20908 37603
L20908 37509
" />
<path d="M20551 37884
L20533 37903
L20514 37940
L20514 38034
L20533 38071
L20551 38090
L20589 38109
L20626 38109
L20683 38090
L20908 37865
L20908 38109
" />
<path d="M20514 38240
L20514 38484
L20664 38353
L20664 38409
L20683 38446
L20701 38465
L20739 38484
L20833 38484
L20870 38465
L20889 38446
L20908 38409
L20908 38296
L20889 38259
L20870 38240
" />
<path d="M28388 35634
L27994 35634
L27994 35728
L28013 35784
L28050 35822
L28088 35840
L28163 35859
L28219 35859
L28294 35840
L28332 35822
L28369 35784
L28388 35728
L28388 35634
" />
<path d="M28032 36009
L28013 36028
L27994 36065
L27994 36159
L28013 36196
L28032 36215
L28069 36234
L28107 36234
L28163 36215
L28388 35990
L28388 36234
" />
<path d="M28125 36571
L28388 36571
" />
<path d="M27975 36478
L28257 36384
L28257 36628
" />
<path d="M35815 35634
L35422 35634
L35422 35728
L35440 35784
L35478 35822
L35515 35840
L35590 35859
L35647 35859
L35722 35840
L35759 35822
L35797 35784
L35815 35728
L35815 35634
" />
<path d="M35459 36009
L35440 36028
L35422 36065
L35422 36159
L35440 36196
L35459 36215
L35497 36234
L35534 36234
L35590 36215
L35815 35990
L35815 36234
" />
<path d="M35422 36590
L35422 36403
L35609 36384
L35590 36403
L35572 36440
L35572 36534
L35590 36571
L35609 36590
L35647 36609
L35740 36609
L35778 36590
L35797 36571
L35815 36534
L35815 36440
L35797 36403
L35778 36384
" />
</g>
<g style="fill:#840084; fill-opacity:0.0; 
stroke:#840084; stroke-width:49.2126; stroke-opacity:1; 
stroke-linecap:round; stroke-linejoin:round;">
<path d="M6329 5331
L6329 5135
" />
<path d="M6329 5228
L6216 5228
" />
<path d="M6216 5331
L6216 5135
" />
<path d="M6019 5331
L6132 5331
" />
<path d="M6076 5331
L6076 5135
L6094 5163
L6113 5181
L6132 5191
" />
<path d="M13809 3456
L13809 3260
" />
<path d="M13809 3353
L13697 3353
" />
<path d="M13697 3456
L13697 3260
" />
<path d="M13612 3278
L13603 3269
L13584 3260
L13537 3260
L13519 3269
L13509 3278
L13500 3297
L13500 3316
L13509 3344
L13622 3456
L13500 3456
" />
<path d="M21289 5331
L21289 5135
" />
<path d="M21289 5228
L21177 5228
" />
<path d="M21177 5331
L21177 5135
" />
<path d="M21102 5135
L20980 5135
L21046 5210
L21018 5210
L20999 5219
L20989 5228
L20980 5247
L20980 5294
L20989 5313
L20999 5322
L21018 5331
L21074 5331
L21093 5322
L21102 5313
" />
<path d="M28770 3456
L28770 3260
" />
<path d="M28770 3353
L28657 3353
" />
<path d="M28657 3456
L28657 3260
" />
<path d="M28479 3325
L28479 3456
" />
<path d="M28526 3250
L28573 3391
L28451 3391
" />
<path d="M36250 3456
L36250 3260
" />
<path d="M36250 3353
L36138 3353
" />
<path d="M36138 3456
L36138 3260
" />
<path d="M35950 3260
L36044 3260
L36053 3353
L36044 3344
L36025 3335
L35978 3335
L35959 3344
L35950 3353
L35941 3372
L35941 3419
L35950 3438
L35959 3447
L35978 3456
L36025 3456
L36044 3447
L36053 3438
" />
<path d="M36250 10937
L36250 10740
" />
<path d="M36250 10834
L36138 10834
" />
<path d="M36138 10937
L36138 10740
" />
<path d="M35959 10740
L35997 10740
L36016 10749
L36025 10759
L36044 10787
L36053 10824
L36053 10899
L36044 10918
L36034 10927
L36016 10937
L35978 10937
L35959 10927
L35950 10918
L35941 10899
L35941 10852
L35950 10834
L35959 10824
L35978 10815
L36016 10815
L36034 10824
L36044 10834
L36053 10852
" />
<path d="M28770 10937
L28770 10740
" />
<path d="M28770 10834
L28657 10834
" />
<path d="M28657 10937
L28657 10740
" />
<path d="M28582 10740
L28451 10740
L28535 10937
" />
<path d="M21289 12812
L21289 12615
" />
<path d="M21289 12709
L21177 12709
" />
<path d="M21177 12812
L21177 12615
" />
<path d="M21055 12699
L21074 12690
L21083 12680
L21093 12662
L21093 12652
L21083 12634
L21074 12624
L21055 12615
L21018 12615
L20999 12624
L20989 12634
L20980 12652
L20980 12662
L20989 12680
L20999 12690
L21018 12699
L21055 12699
L21074 12709
L21083 12718
L21093 12737
L21093 12774
L21083 12793
L21074 12802
L21055 12812
L21018 12812
L20999 12802
L20989 12793
L20980 12774
L20980 12737
L20989 12718
L20999 12709
L21018 12699
" />
<path d="M13809 10937
L13809 10740
" />
<path d="M13809 10834
L13697 10834
" />
<path d="M13697 10937
L13697 10740
" />
<path d="M13594 10937
L13556 10937
L13537 10927
L13528 10918
L13509 10890
L13500 10852
L13500 10777
L13509 10759
L13519 10749
L13537 10740
L13575 10740
L13594 10749
L13603 10759
L13612 10777
L13612 10824
L13603 10843
L13594 10852
L13575 10862
L13537 10862
L13519 10852
L13509 10843
L13500 10824
" />
<path d="M6423 12812
L6423 12615
" />
<path d="M6423 12709
L6310 12709
" />
<path d="M6310 12812
L6310 12615
" />
<path d="M6113 12812
L6226 12812
" />
<path d="M6169 12812
L6169 12615
L6188 12643
L6207 12662
L6226 12671
" />
<path d="M5991 12615
L5973 12615
L5954 12624
L5944 12634
L5935 12652
L5926 12690
L5926 12737
L5935 12774
L5944 12793
L5954 12802
L5973 12812
L5991 12812
L6010 12802
L6019 12793
L6029 12774
L6038 12737
L6038 12690
L6029 12652
L6019 12634
L6010 12624
L5991 12615
" />
<path d="M6423 20292
L6423 20095
" />
<path d="M6423 20189
L6310 20189
" />
<path d="M6310 20292
L6310 20095
" />
<path d="M6113 20292
L6226 20292
" />
<path d="M6169 20292
L6169 20095
L6188 20123
L6207 20142
L6226 20151
" />
<path d="M5926 20292
L6038 20292
" />
<path d="M5982 20292
L5982 20095
L6001 20123
L6019 20142
L6038 20151
" />
<path d="M13903 18417
L13903 18220
" />
<path d="M13903 18314
L13790 18314
" />
<path d="M13790 18417
L13790 18220
" />
<path d="M13594 18417
L13706 18417
" />
<path d="M13650 18417
L13650 18220
L13669 18248
L13687 18267
L13706 18276
" />
<path d="M13519 18239
L13509 18230
L13490 18220
L13444 18220
L13425 18230
L13415 18239
L13406 18258
L13406 18276
L13415 18305
L13528 18417
L13406 18417
" />
<path d="M21383 20292
L21383 20095
" />
<path d="M21383 20189
L21271 20189
" />
<path d="M21271 20292
L21271 20095
" />
<path d="M21074 20292
L21186 20292
" />
<path d="M21130 20292
L21130 20095
L21149 20123
L21168 20142
L21186 20151
" />
<path d="M21008 20095
L20886 20095
L20952 20170
L20924 20170
L20905 20180
L20896 20189
L20886 20208
L20886 20255
L20896 20273
L20905 20283
L20924 20292
L20980 20292
L20999 20283
L21008 20273
" />
<path d="M28863 18417
L28863 18220
" />
<path d="M28863 18314
L28751 18314
" />
<path d="M28751 18417
L28751 18220
" />
<path d="M28554 18417
L28667 18417
" />
<path d="M28610 18417
L28610 18220
L28629 18248
L28648 18267
L28667 18276
" />
<path d="M28385 18286
L28385 18417
" />
<path d="M28432 18211
L28479 18351
L28357 18351
" />
<path d="M36344 18417
L36344 18220
" />
<path d="M36344 18314
L36231 18314
" />
<path d="M36231 18417
L36231 18220
" />
<path d="M36034 18417
L36147 18417
" />
<path d="M36091 18417
L36091 18220
L36109 18248
L36128 18267
L36147 18276
" />
<path d="M35856 18220
L35950 18220
L35959 18314
L35950 18305
L35931 18295
L35884 18295
L35866 18305
L35856 18314
L35847 18333
L35847 18380
L35856 18398
L35866 18408
L35884 18417
L35931 18417
L35950 18408
L35959 18398
" />
<path d="M36344 25897
L36344 25700
" />
<path d="M36344 25794
L36231 25794
" />
<path d="M36231 25897
L36231 25700
" />
<path d="M36034 25897
L36147 25897
" />
<path d="M36091 25897
L36091 25700
L36109 25729
L36128 25747
L36147 25757
" />
<path d="M35866 25700
L35903 25700
L35922 25710
L35931 25719
L35950 25747
L35959 25785
L35959 25860
L35950 25879
L35941 25888
L35922 25897
L35884 25897
L35866 25888
L35856 25879
L35847 25860
L35847 25813
L35856 25794
L35866 25785
L35884 25775
L35922 25775
L35941 25785
L35950 25794
L35959 25813
" />
<path d="M28863 25897
L28863 25700
" />
<path d="M28863 25794
L28751 25794
" />
<path d="M28751 25897
L28751 25700
" />
<path d="M28554 25897
L28667 25897
" />
<path d="M28610 25897
L28610 25700
L28629 25729
L28648 25747
L28667 25757
" />
<path d="M28489 25700
L28357 25700
L28442 25897
" />
<path d="M21383 27772
L21383 27575
" />
<path d="M21383 27669
L21271 27669
" />
<path d="M21271 27772
L21271 27575
" />
<path d="M21074 27772
L21186 27772
" />
<path d="M21130 27772
L21130 27575
L21149 27604
L21168 27622
L21186 27632
" />
<path d="M20961 27660
L20980 27650
L20989 27641
L20999 27622
L20999 27613
L20989 27594
L20980 27585
L20961 27575
L20924 27575
L20905 27585
L20896 27594
L20886 27613
L20886 27622
L20896 27641
L20905 27650
L20924 27660
L20961 27660
L20980 27669
L20989 27679
L20999 27697
L20999 27735
L20989 27754
L20980 27763
L20961 27772
L20924 27772
L20905 27763
L20896 27754
L20886 27735
L20886 27697
L20896 27679
L20905 27669
L20924 27660
" />
<path d="M13903 25897
L13903 25700
" />
<path d="M13903 25794
L13790 25794
" />
<path d="M13790 25897
L13790 25700
" />
<path d="M13594 25897
L13706 25897
" />
<path d="M13650 25897
L13650 25700
L13669 25729
L13687 25747
L13706 25757
" />
<path d="M13500 25897
L13462 25897
L13444 25888
L13434 25879
L13415 25850
L13406 25813
L13406 25738
L13415 25719
L13425 25710
L13444 25700
L13481 25700
L13500 25710
L13509 25719
L13519 25738
L13519 25785
L13509 25804
L13500 25813
L13481 25822
L13444 25822
L13425 25813
L13415 25804
L13406 25785
" />
<path d="M6423 27772
L6423 27575
" />
<path d="M6423 27669
L6310 27669
" />
<path d="M6310 27772
L6310 27575
" />
<path d="M6226 27594
L6216 27585
L6198 27575
L6151 27575
L6132 27585
L6123 27594
L6113 27613
L6113 27632
L6123 27660
L6235 27772
L6113 27772
" />
<path d="M5991 27575
L5973 27575
L5954 27585
L5944 27594
L5935 27613
L5926 27650
L5926 27697
L5935 27735
L5944 27754
L5954 27763
L5973 27772
L5991 27772
L6010 27763
L6019 27754
L6029 27735
L6038 27697
L6038 27650
L6029 27613
L6019 27594
L6010 27585
L5991 27575
" />
<path d="M6423 35253
L6423 35056
" />
<path d="M6423 35150
L6310 35150
" />
<path d="M6310 35253
L6310 35056
" />
<path d="M6226 35075
L6216 35065
L6198 35056
L6151 35056
L6132 35065
L6123 35075
L6113 35093
L6113 35112
L6123 35140
L6235 35253
L6113 35253
" />
<path d="M5926 35253
L6038 35253
" />
<path d="M5982 35253
L5982 35056
L6001 35084
L6019 35103
L6038 35112
" />
<path d="M13903 33378
L13903 33181
" />
<path d="M13903 33275
L13790 33275
" />
<path d="M13790 33378
L13790 33181
" />
<path d="M13706 33200
L13697 33190
L13678 33181
L13631 33181
L13612 33190
L13603 33200
L13594 33218
L13594 33237
L13603 33265
L13715 33378
L13594 33378
" />
<path d="M13519 33200
L13509 33190
L13490 33181
L13444 33181
L13425 33190
L13415 33200
L13406 33218
L13406 33237
L13415 33265
L13528 33378
L13406 33378
" />
<path d="M21383 35253
L21383 35056
" />
<path d="M21383 35150
L21271 35150
" />
<path d="M21271 35253
L21271 35056
" />
<path d="M21186 35075
L21177 35065
L21158 35056
L21111 35056
L21093 35065
L21083 35075
L21074 35093
L21074 35112
L21083 35140
L21196 35253
L21074 35253
" />
<path d="M21008 35056
L20886 35056
L20952 35131
L20924 35131
L20905 35140
L20896 35150
L20886 35168
L20886 35215
L20896 35234
L20905 35243
L20924 35253
L20980 35253
L20999 35243
L21008 35234
" />
<path d="M28863 33378
L28863 33181
" />
<path d="M28863 33275
L28751 33275
" />
<path d="M28751 33378
L28751 33181
" />
<path d="M28667 33200
L28657 33190
L28639 33181
L28592 33181
L28573 33190
L28564 33200
L28554 33218
L28554 33237
L28564 33265
L28676 33378
L28554 33378
" />
<path d="M28385 33246
L28385 33378
" />
<path d="M28432 33171
L28479 33312
L28357 33312
" />
<path d="M36344 33378
L36344 33181
" />
<path d="M36344 33275
L36231 33275
" />
<path d="M36231 33378
L36231 33181
" />
<path d="M36147 33200
L36138 33190
L36119 33181
L36072 33181
L36053 33190
L36044 33200
L36034 33218
L36034 33237
L36044 33265
L36156 33378
L36034 33378
" />
<path d="M35856 33181
L35950 33181
L35959 33275
L35950 33265
L35931 33256
L35884 33256
L35866 33265
L35856 33275
L35847 33293
L35847 33340
L35856 33359
L35866 33368
L35884 33378
L35931 33378
L35950 33368
L35959 33359
" />
<path d="M3684 9205
L3590 9205
L3590 9008
" />
<path d="M3852 9205
L3740 9205
" />
<path d="M3796 9205
L3796 9008
L3777 9036
L3759 9055
L3740 9064
" />
<path d="M11164 7330
L11070 7330
L11070 7133
" />
<path d="M11220 7152
L11230 7142
L11248 7133
L11295 7133
L11314 7142
L11323 7152
L11333 7171
L11333 7189
L11323 7217
L11211 7330
L11333 7330
" />
<path d="M18644 9205
L18551 9205
L18551 9008
" />
<path d="M18691 9008
L18813 9008
L18747 9083
L18775 9083
L18794 9092
L18804 9102
L18813 9121
L18813 9167
L18804 9186
L18794 9196
L18775 9205
L18719 9205
L18700 9196
L18691 9186
" />
<path d="M26125 7330
L26031 7330
L26031 7133
" />
<path d="M26275 7199
L26275 7330
" />
<path d="M26228 7124
L26181 7264
L26303 7264
" />
<path d="M33605 7330
L33511 7330
L33511 7133
" />
<path d="M33764 7133
L33670 7133
L33661 7227
L33670 7217
L33689 7208
L33736 7208
L33755 7217
L33764 7227
L33774 7246
L33774 7292
L33764 7311
L33755 7321
L33736 7330
L33689 7330
L33670 7321
L33661 7311
" />
<path d="M33605 14810
L33511 14810
L33511 14613
" />
<path d="M33755 14613
L33717 14613
L33699 14623
L33689 14632
L33670 14660
L33661 14698
L33661 14773
L33670 14791
L33680 14801
L33699 14810
L33736 14810
L33755 14801
L33764 14791
L33774 14773
L33774 14726
L33764 14707
L33755 14698
L33736 14688
L33699 14688
L33680 14698
L33670 14707
L33661 14726
" />
<path d="M26125 14810
L26031 14810
L26031 14613
" />
<path d="M26171 14613
L26303 14613
L26218 14810
" />
<path d="M18644 16685
L18551 16685
L18551 16488
" />
<path d="M18738 16573
L18719 16563
L18710 16554
L18700 16535
L18700 16526
L18710 16507
L18719 16498
L18738 16488
L18775 16488
L18794 16498
L18804 16507
L18813 16526
L18813 16535
L18804 16554
L18794 16563
L18775 16573
L18738 16573
L18719 16582
L18710 16591
L18700 16610
L18700 16648
L18710 16666
L18719 16676
L18738 16685
L18775 16685
L18794 16676
L18804 16666
L18813 16648
L18813 16610
L18804 16591
L18794 16582
L18775 16573
" />
<path d="M11164 14810
L11070 14810
L11070 14613
" />
<path d="M11239 14810
L11276 14810
L11295 14801
L11305 14791
L11323 14763
L11333 14726
L11333 14651
L11323 14632
L11314 14623
L11295 14613
L11258 14613
L11239 14623
L11230 14632
L11220 14651
L11220 14698
L11230 14716
L11239 14726
L11258 14735
L11295 14735
L11314 14726
L11323 14716
L11333 14698
" />
<path d="M3590 16685
L3496 16685
L3496 16488
" />
<path d="M3759 16685
L3646 16685
" />
<path d="M3702 16685
L3702 16488
L3684 16516
L3665 16535
L3646 16545
" />
<path d="M3880 16488
L3899 16488
L3918 16498
L3927 16507
L3937 16526
L3946 16563
L3946 16610
L3937 16648
L3927 16666
L3918 16676
L3899 16685
L3880 16685
L3862 16676
L3852 16666
L3843 16648
L3834 16610
L3834 16563
L3843 16526
L3852 16507
L3862 16498
L3880 16488
" />
<path d="M3590 24166
L3496 24166
L3496 23969
" />
<path d="M3759 24166
L3646 24166
" />
<path d="M3702 24166
L3702 23969
L3684 23997
L3665 24016
L3646 24025
" />
<path d="M3946 24166
L3834 24166
" />
<path d="M3890 24166
L3890 23969
L3871 23997
L3852 24016
L3834 24025
" />
<path d="M11070 22291
L10976 22291
L10976 22094
" />
<path d="M11239 22291
L11126 22291
" />
<path d="M11183 22291
L11183 22094
L11164 22122
L11145 22141
L11126 22150
" />
<path d="M11314 22112
L11323 22103
L11342 22094
L11389 22094
L11408 22103
L11417 22112
L11426 22131
L11426 22150
L11417 22178
L11305 22291
L11426 22291
" />
<path d="M18551 24166
L18457 24166
L18457 23969
" />
<path d="M18719 24166
L18607 24166
" />
<path d="M18663 24166
L18663 23969
L18644 23997
L18626 24016
L18607 24025
" />
<path d="M18785 23969
L18907 23969
L18841 24044
L18869 24044
L18888 24053
L18897 24062
L18907 24081
L18907 24128
L18897 24147
L18888 24156
L18869 24166
L18813 24166
L18794 24156
L18785 24147
" />
<path d="M26031 22291
L25937 22291
L25937 22094
" />
<path d="M26200 22291
L26087 22291
" />
<path d="M26143 22291
L26143 22094
L26125 22122
L26106 22141
L26087 22150
" />
<path d="M26368 22159
L26368 22291
" />
<path d="M26321 22084
L26275 22225
L26396 22225
" />
<path d="M33511 22291
L33417 22291
L33417 22094
" />
<path d="M33680 22291
L33567 22291
" />
<path d="M33624 22291
L33624 22094
L33605 22122
L33586 22141
L33567 22150
" />
<path d="M33858 22094
L33764 22094
L33755 22187
L33764 22178
L33783 22169
L33830 22169
L33849 22178
L33858 22187
L33867 22206
L33867 22253
L33858 22272
L33849 22281
L33830 22291
L33783 22291
L33764 22281
L33755 22272
" />
<path d="M33511 29771
L33417 29771
L33417 29574
" />
<path d="M33680 29771
L33567 29771
" />
<path d="M33624 29771
L33624 29574
L33605 29602
L33586 29621
L33567 29630
" />
<path d="M33849 29574
L33811 29574
L33792 29583
L33783 29593
L33764 29621
L33755 29658
L33755 29733
L33764 29752
L33774 29761
L33792 29771
L33830 29771
L33849 29761
L33858 29752
L33867 29733
L33867 29686
L33858 29668
L33849 29658
L33830 29649
L33792 29649
L33774 29658
L33764 29668
L33755 29686
" />
<path d="M26031 29771
L25937 29771
L25937 29574
" />
<path d="M26200 29771
L26087 29771
" />
<path d="M26143 29771
L26143 29574
L26125 29602
L26106 29621
L26087 29630
" />
<path d="M26265 29574
L26396 29574
L26312 29771
" />
<path d="M18551 31646
L18457 31646
L18457 31449
" />
<path d="M18719 31646
L18607 31646
" />
<path d="M18663 31646
L18663 31449
L18644 31477
L18626 31496
L18607 31505
" />
<path d="M18832 31533
L18813 31524
L18804 31515
L18794 31496
L18794 31486
L18804 31468
L18813 31458
L18832 31449
L18869 31449
L18888 31458
L18897 31468
L18907 31486
L18907 31496
L18897 31515
L18888 31524
L18869 31533
L18832 31533
L18813 31543
L18804 31552
L18794 31571
L18794 31608
L18804 31627
L18813 31636
L18832 31646
L18869 31646
L18888 31636
L18897 31627
L18907 31608
L18907 31571
L18897 31552
L18888 31543
L18869 31533
" />
<path d="M11070 29771
L10976 29771
L10976 29574
" />
<path d="M11239 29771
L11126 29771
" />
<path d="M11183 29771
L11183 29574
L11164 29602
L11145 29621
L11126 29630
" />
<path d="M11333 29771
L11370 29771
L11389 29761
L11398 29752
L11417 29724
L11426 29686
L11426 29611
L11417 29593
L11408 29583
L11389 29574
L11351 29574
L11333 29583
L11323 29593
L11314 29611
L11314 29658
L11323 29677
L11333 29686
L11351 29696
L11389 29696
L11408 29686
L11417 29677
L11426 29658
" />
<path d="M3590 31646
L3496 31646
L3496 31449
" />
<path d="M3646 31468
L3655 31458
L3674 31449
L3721 31449
L3740 31458
L3749 31468
L3759 31486
L3759 31505
L3749 31533
L3637 31646
L3759 31646
" />
<path d="M3880 31449
L3899 31449
L3918 31458
L3927 31468
L3937 31486
L3946 31524
L3946 31571
L3937 31608
L3927 31627
L3918 31636
L3899 31646
L3880 31646
L3862 31636
L3852 31627
L3843 31608
L3834 31571
L3834 31524
L3843 31486
L3852 31468
L3862 31458
L3880 31449
" />
<path d="M3590 39126
L3496 39126
L3496 38929
" />
<path d="M3646 38948
L3655 38939
L3674 38929
L3721 38929
L3740 38939
L3749 38948
L3759 38967
L3759 38986
L3749 39014
L3637 39126
L3759 39126
" />
<path d="M3946 39126
L3834 39126
" />
<path d="M3890 39126
L3890 38929
L3871 38957
L3852 38976
L3834 38986
" />
<path d="M11070 37251
L10976 37251
L10976 37054
" />
<path d="M11126 37073
L11136 37064
L11155 37054
L11201 37054
L11220 37064
L11230 37073
L11239 37092
L11239 37111
L11230 37139
L11117 37251
L11239 37251
" />
<path d="M11314 37073
L11323 37064
L11342 37054
L11389 37054
L11408 37064
L11417 37073
L11426 37092
L11426 37111
L11417 37139
L11305 37251
L11426 37251
" />
<path d="M18551 39126
L18457 39126
L18457 38929
" />
<path d="M18607 38948
L18616 38939
L18635 38929
L18682 38929
L18700 38939
L18710 38948
L18719 38967
L18719 38986
L18710 39014
L18597 39126
L18719 39126
" />
<path d="M18785 38929
L18907 38929
L18841 39004
L18869 39004
L18888 39014
L18897 39023
L18907 39042
L18907 39089
L18897 39107
L18888 39117
L18869 39126
L18813 39126
L18794 39117
L18785 39107
" />
<path d="M26031 37251
L25937 37251
L25937 37054
" />
<path d="M26087 37073
L26096 37064
L26115 37054
L26162 37054
L26181 37064
L26190 37073
L26200 37092
L26200 37111
L26190 37139
L26078 37251
L26200 37251
" />
<path d="M26368 37120
L26368 37251
" />
<path d="M26321 37045
L26275 37186
L26396 37186
" />
<path d="M33511 37251
L33417 37251
L33417 37054
" />
<path d="M33567 37073
L33577 37064
L33596 37054
L33642 37054
L33661 37064
L33670 37073
L33680 37092
L33680 37111
L33670 37139
L33558 37251
L33680 37251
" />
<path d="M33858 37054
L33764 37054
L33755 37148
L33764 37139
L33783 37129
L33830 37129
L33849 37139
L33858 37148
L33867 37167
L33867 37214
L33858 37232
L33849 37242
L33830 37251
L33783 37251
L33764 37242
L33755 37232
" />
</g>
<g style="fill:#000000; fill-opacity:0.0; 
stroke:#000000; stroke-width:49.2126; stroke-opacity:1; 
stroke-linecap:round; stroke-linejoin:round;">
</g>
<g style="fill:#C2C200; fill-opacity:0.0; 
stroke:#C2C200; stroke-width:49.2126; stroke-opacity:1; 
stroke-linecap:round; stroke-linejoin:round;">
</g>
<g style="fill:#C2C200; fill-opacity:0.0; 
stroke:#C2C200; stroke-width:78.7402; stroke-opacity:1; 
stroke-linecap:round; stroke-linejoin:round;">
<path d="M36811 39488
L36811 38897
" />
<path d="M36811 38897.6 A866.142 866.142 0.0 0 0 35944.9 38031.5 " />
<path d="M36811 39488.2 A866.142 866.142 0.0 0 0 37677.2 40354.3 " />
<path d="M78 905
L78 39488
" />
<path d="M23543 38897
L23543 39488
" />
<path d="M24409 38031
L35944 38031
" />
<path d="M37677.2 40354.3 A866.142 866.142 0.0 0 0 38543.3 39488.2 " />
<path d="M24409.4 38031.5 A866.142 866.142 0.0 0 0 23543.3 38897.6 " />
<path d="M22677.2 40354.3 A866.142 866.142 0.0 0 0 23543.3 39488.2 " />
<path d="M78.7402 39488.2 A866.142 866.142 0.0 0 0 944.882 40354.3 " />
<path d="M944 40354
L22677 40354
" />
<path d="M38543 905
L38543 39488
" />
<path d="M38543.3 905.512 A866.142 866.142 0.0 0 0 37677.2 39.3705 " />
<path d="M7874 1535
L7874 905
" />
<path d="M8740.16 39.3705 A866.142 866.142 0.0 0 0 7874.02 905.512 " />
<path d="M7007.87 2401.58 A866.142 866.142 0.0 0 0 7874.02 1535.43 " />
<path d="M37677 39
L8740 39
" />
<path d="M2598 39
L944 39
" />
<path d="M944.882 39.3705 A866.142 866.142 0.0 0 0 78.7402 905.512 " />
<path d="M3464.57 905.512 A866.142 866.142 0.0 0 0 2598.43 39.3705 " />
<path d="M3464 1535
L3464 905
" />
<path d="M3464.57 1535.43 A866.142 866.142 0.0 0 0 4330.71 2401.58 " />
<path d="M4330 2401
L7007 2401
" />
</g> 
</svg>
