<?xml version="1.0" standalone="no"?>
 <!DOCTYPE svg PUBLIC "-//W3C//DTD SVG 1.1//EN" 
 "http://www.w3.org/Graphics/SVG/1.1/DTD/svg11.dtd"> 
<svg xmlns="http://www.w3.org/2000/svg" version="1.1" 
    width="11.5087cm" height="8.14832cm" viewBox="0 0 45310 32080 ">
<title>SVG Picture created as WoodElf_01-B.SilkS.svg date 2019/08/03 12:58:44 </title>
  <desc>Picture generated by PCBNEW </desc>
<g style="fill:#000000; fill-opacity:1;stroke:#000000; stroke-opacity:1;
stroke-linecap:round; stroke-linejoin:round; "
 transform="translate(0 0) scale(1 1)">
</g>
<g style="fill:#000000; fill-opacity:0.0; 
stroke:#000000; stroke-width:-0.000393701; stroke-opacity:1; 
stroke-linecap:round; stroke-linejoin:round;">
</g>
<g style="fill:#840084; fill-opacity:0.0; 
stroke:#840084; stroke-width:-0.000393701; stroke-opacity:1; 
stroke-linecap:round; stroke-linejoin:round;">
</g>
<g style="fill:#840084; fill-opacity:0.0; 
stroke:#840084; stroke-width:98.4252; stroke-opacity:1; 
stroke-linecap:round; stroke-linejoin:round;">
<path d="M35726 542
L35632 935
L35557 654
L35482 935
L35388 542
" />
<path d="M35182 935
L35220 917
L35238 898
L35257 860
L35257 748
L35238 711
L35220 692
L35182 673
L35126 673
L35088 692
L35070 711
L35051 748
L35051 860
L35070 898
L35088 917
L35126 935
L35182 935
" />
<path d="M34826 935
L34863 917
L34882 898
L34901 860
L34901 748
L34882 711
L34863 692
L34826 673
L34770 673
L34732 692
L34713 711
L34695 748
L34695 860
L34713 898
L34732 917
L34770 935
L34826 935
" />
<path d="M34357 935
L34357 542
" />
<path d="M34357 917
L34395 935
L34470 935
L34507 917
L34526 898
L34545 860
L34545 748
L34526 711
L34507 692
L34470 673
L34395 673
L34357 692
" />
<path d="M34170 729
L34038 729
" />
<path d="M33982 935
L34170 935
L34170 542
L33982 542
" />
<path d="M33757 935
L33795 917
L33813 879
L33813 542
" />
<path d="M33663 673
L33514 673
" />
<path d="M33607 935
L33607 598
L33589 561
L33551 542
L33514 542
" />
<path d="M33007 542
L32970 542
L32932 561
L32914 579
L32895 617
L32876 692
L32876 785
L32895 860
L32914 898
L32932 917
L32970 935
L33007 935
L33045 917
L33064 898
L33082 860
L33101 785
L33101 692
L33082 617
L33064 579
L33045 561
L33007 542
" />
<path d="M32501 935
L32726 935
" />
<path d="M32614 935
L32614 542
L32651 598
L32689 636
L32726 654
" />
<path d="M35688 1624
L35688 1231
" />
<path d="M35688 1418
L35463 1418
" />
<path d="M35463 1624
L35463 1231
" />
<path d="M35107 1624
L35107 1418
L35126 1381
L35163 1362
L35238 1362
L35276 1381
" />
<path d="M35107 1606
L35145 1624
L35238 1624
L35276 1606
L35295 1568
L35295 1531
L35276 1493
L35238 1474
L35145 1474
L35107 1456
" />
<path d="M34920 1362
L34920 1624
" />
<path d="M34920 1399
L34901 1381
L34863 1362
L34807 1362
L34770 1381
L34751 1418
L34751 1624
" />
<path d="M34563 1362
L34563 1624
" />
<path d="M34563 1399
L34545 1381
L34507 1362
L34451 1362
L34413 1381
L34395 1418
L34395 1624
" />
<path d="M34038 1624
L34038 1418
L34057 1381
L34095 1362
L34170 1362
L34207 1381
" />
<path d="M34038 1606
L34076 1624
L34170 1624
L34207 1606
L34226 1568
L34226 1531
L34207 1493
L34170 1474
L34076 1474
L34038 1456
" />
<path d="M33851 1624
L33851 1231
" />
<path d="M33682 1624
L33682 1418
L33701 1381
L33738 1362
L33795 1362
L33832 1381
L33851 1399
" />
<path d="M32989 1250
L33026 1231
L33082 1231
L33139 1250
L33176 1287
L33195 1324
L33214 1399
L33214 1456
L33195 1531
L33176 1568
L33139 1606
L33082 1624
L33045 1624
L32989 1606
L32970 1587
L32970 1456
L33045 1456
" />
<path d="M32801 1624
L32801 1362
" />
<path d="M32801 1437
L32782 1399
L32764 1381
L32726 1362
L32689 1362
" />
<path d="M32389 1624
L32389 1418
L32407 1381
L32445 1362
L32520 1362
L32557 1381
" />
<path d="M32389 1606
L32426 1624
L32520 1624
L32557 1606
L32576 1568
L32576 1531
L32557 1493
L32520 1474
L32426 1474
L32389 1456
" />
<path d="M32032 1606
L32070 1624
L32145 1624
L32182 1606
L32201 1587
L32220 1549
L32220 1437
L32201 1399
L32182 1381
L32145 1362
L32070 1362
L32032 1381
" />
<path d="M31714 1606
L31751 1624
L31826 1624
L31864 1606
L31882 1568
L31882 1418
L31864 1381
L31826 1362
L31751 1362
L31714 1381
L31695 1418
L31695 1456
L31882 1493
" />
<path d="M31208 1231
L31245 1306
" />
<path d="M30833 1624
L31058 1624
" />
<path d="M30945 1624
L30945 1231
L30983 1287
L31020 1324
L31058 1343
" />
<path d="M30645 1624
L30570 1624
L30533 1606
L30514 1587
L30476 1531
L30458 1456
L30458 1306
L30476 1268
L30495 1250
L30533 1231
L30608 1231
L30645 1250
L30664 1268
L30683 1306
L30683 1399
L30664 1437
L30645 1456
L30608 1474
L30533 1474
L30495 1456
L30476 1437
L30458 1399
" />
</g>
<g style="fill:#840084; fill-opacity:1.0; 
stroke:#840084; stroke-width:3.93701; stroke-opacity:1; 
stroke-linecap:round; stroke-linejoin:round;">
<polyline style="fill-rule:evenodd;"
points="36990,1534
36980,1542
36974,1553
36972,1563
36975,1573
36981,1584
36990,1591
36999,1594
36999,1594
37005,1595
37014,1599
37027,1605
37044,1614
37066,1626
37092,1642
37123,1660
37127,1662
37172,1689
37212,1713
37247,1733
37279,1750
37308,1764
37334,1776
37358,1786
37380,1794
37401,1801
37420,1806
37439,1809
37460,1810
37481,1810
37498,1808
37507,1806
37532,1795
37552,1779
37569,1758
37581,1732
37588,1703
37590,1676
37590,1664
37589,1656
37586,1650
37583,1646
37571,1638
37559,1636
37548,1639
37540,1643
37534,1649
37531,1657
37529,1669
37528,1679
37524,1702
37517,1721
37508,1734
37498,1742
37481,1747
37460,1747
37434,1744
37406,1737
37374,1725
37359,1719
37342,1711
37321,1700
37296,1688
37270,1673
37242,1658
37215,1642
37189,1627
37186,1624
37148,1602
37115,1582
37087,1566
37064,1554
37044,1544
37028,1537
37015,1533
37005,1531
37002,1531
36990,1534
" /> 
<polyline style="fill-rule:evenodd;"
points="37577,1173
37568,1178
37567,1180
37562,1184
37560,1189
37559,1195
37559,1205
37560,1215
37562,1234
37567,1255
37574,1277
37584,1302
37598,1331
37608,1352
37618,1371
37625,1385
37629,1395
37632,1404
37633,1411
37634,1419
37634,1421
37633,1432
37631,1441
37626,1450
37621,1456
37613,1469
37609,1480
37611,1491
37614,1497
37622,1508
37634,1513
37648,1513
37656,1509
37664,1503
37673,1491
37682,1478
37690,1463
37694,1453
37698,1437
37699,1421
37697,1405
37693,1387
37685,1366
37674,1342
37666,1326
37651,1297
37640,1272
37631,1251
37625,1233
37622,1217
37620,1207
37617,1190
37611,1179
37602,1173
37589,1171
37577,1173
" /> 
<polyline style="fill-rule:evenodd;"
points="36360,323
36349,330
36345,334
36343,338
36341,344
36340,352
36339,365
36338,382
36337,385
36337,410
36336,437
36337,465
36338,492
36340,516
36342,533
36344,542
36344,549
36344,550
36341,550
36333,547
36322,543
36322,542
36304,533
36287,520
36284,518
36273,506
36259,490
36242,470
36224,448
36205,424
36188,402
36175,385
36165,373
36157,365
36150,360
36143,358
36137,358
36123,361
36112,369
36105,384
36100,403
36099,422
36102,475
36111,529
36125,582
36145,631
36145,633
36169,676
36199,718
36235,757
36278,794
36326,829
36355,846
36375,858
36401,872
36433,888
36469,905
36510,925
36554,946
36596,966
36633,984
36666,1000
36694,1015
36720,1030
36743,1045
36765,1059
36787,1075
36790,1077
36815,1096
36835,1114
36851,1130
36865,1147
36877,1167
36890,1189
36891,1191
36907,1220
36922,1243
36937,1260
36952,1273
36968,1281
36985,1286
36991,1287
37002,1287
37009,1286
37014,1282
37019,1278
37027,1267
37028,1255
37025,1243
37016,1233
37002,1226
36997,1225
36990,1222
36982,1218
36976,1211
36968,1201
36960,1187
36949,1168
36941,1153
36933,1136
36926,1123
36918,1113
36910,1102
36899,1090
36886,1078
36865,1058
36844,1039
36821,1022
36797,1004
36770,987
36740,969
36707,951
36669,931
36626,910
36578,888
36570,884
36520,861
36476,839
36436,819
36402,800
36372,782
36345,765
36321,748
36300,731
36281,714
36264,696
36251,681
36230,654
36213,627
36199,599
36194,587
36189,574
36184,558
36179,540
36174,522
36170,505
36167,491
36166,482
36166,481
36168,482
36173,488
36181,497
36192,508
36198,516
36211,532
36224,546
36236,559
36245,568
36247,571
36257,579
36268,586
36281,593
36297,600
36315,607
36336,614
36361,621
36390,629
36423,637
36462,645
36506,655
36557,665
36569,668
36626,680
36678,691
36724,702
36766,712
36803,722
36837,732
36868,742
36896,753
36923,764
36950,775
36951,776
36993,798
37029,821
37059,845
37084,871
37103,899
37117,929
37118,931
37120,942
37123,956
37125,971
37125,976
37127,990
37129,1000
37131,1006
37135,1011
37139,1015
37151,1023
37164,1024
37176,1018
37177,1017
37184,1010
37189,1002
37190,992
37190,977
37189,967
37182,930
37173,899
37168,888
37152,858
37129,828
37103,800
37073,775
37051,759
37021,740
37037,734
37062,726
37093,721
37126,717
37161,717
37197,719
37216,721
37266,730
37316,744
37365,763
37411,785
37454,810
37493,838
37522,864
37548,893
37567,921
37580,951
37589,981
37591,996
37592,1009
37595,1018
37599,1025
37602,1028
37614,1036
37627,1038
37640,1033
37645,1030
37650,1025
37652,1020
37653,1013
37653,1002
37653,998
37651,970
37644,943
37633,915
37627,902
37605,866
37578,831
37544,799
37506,768
37463,741
37415,716
37364,695
37310,677
37253,663
37247,662
37234,660
37220,658
37204,657
37183,656
37159,656
37147,656
37123,656
37103,657
37085,658
37070,660
37054,663
37038,667
37018,673
36995,681
36978,687
36939,701
36896,686
36880,679
36865,673
36855,668
36850,664
36850,664
36843,656
36832,647
36817,638
36797,626
36774,614
36622,614
36622,614
36618,614
36608,612
36594,609
36577,605
36557,601
36548,599
36517,593
36492,588
36472,583
36456,580
36445,577
36436,574
36430,572
36426,570
36423,568
36421,565
36419,564
36412,551
36406,532
36402,508
36401,498
36399,476
36410,486
36427,501
36446,516
36467,530
36493,546
36523,563
36558,581
36565,584
36583,593
36598,601
36610,608
36618,612
36622,614
36774,614
36773,613
36743,599
36707,582
36694,576
36661,561
36629,546
36599,530
36570,516
36545,503
36523,491
36507,481
36503,478
36475,458
36450,437
36431,417
36416,396
36406,377
36402,360
36402,358
36400,343
36393,331
36383,324
36372,321
36360,323
" /> 
</g>
<g style="fill:#840084; fill-opacity:1.0; 
stroke:#840084; stroke-width:59.0551; stroke-opacity:1; 
stroke-linecap:round; stroke-linejoin:round;">
</g>
<g style="fill:#840084; fill-opacity:0.0; 
stroke:#840084; stroke-width:59.0551; stroke-opacity:1; 
stroke-linecap:round; stroke-linejoin:round;">
<path d="M2947 3408
L2947 3468
" />
<path d="M2947 3888
L2947 4168
" />
<path d="M2947 4588
L2947 4808
" />
<path d="M4822 3168
L4822 3468
" />
<path d="M4822 3888
L4822 4168
" />
<path d="M4822 4808
L2947 4808
" />
<path d="M3187 3168
L4822 3168
" />
<path d="M4822 4588
L4822 4808
" />
<path d="M2947 3408
L3187 3168
" />
<path d="M10447 2470
L10447 2530
" />
<path d="M10447 2950
L10447 3230
" />
<path d="M10447 3650
L10447 3870
" />
<path d="M12322 2230
L12322 2530
" />
<path d="M12322 2950
L12322 3230
" />
<path d="M12322 3870
L10447 3870
" />
<path d="M10687 2230
L12322 2230
" />
<path d="M12322 3650
L12322 3870
" />
<path d="M10447 2470
L10687 2230
" />
<path d="M17947 1533
L17947 1593
" />
<path d="M17947 2013
L17947 2293
" />
<path d="M17947 2713
L17947 2933
" />
<path d="M19822 1293
L19822 1593
" />
<path d="M19822 2013
L19822 2293
" />
<path d="M19822 2933
L17947 2933
" />
<path d="M18187 1293
L19822 1293
" />
<path d="M19822 2713
L19822 2933
" />
<path d="M17947 1533
L18187 1293
" />
<path d="M25447 2470
L25447 2530
" />
<path d="M25447 2950
L25447 3230
" />
<path d="M25447 3650
L25447 3870
" />
<path d="M27322 2230
L27322 2530
" />
<path d="M27322 2950
L27322 3230
" />
<path d="M27322 3870
L25447 3870
" />
<path d="M25687 2230
L27322 2230
" />
<path d="M27322 3650
L27322 3870
" />
<path d="M25447 2470
L25687 2230
" />
<path d="M32947 3408
L32947 3468
" />
<path d="M32947 3888
L32947 4168
" />
<path d="M32947 4588
L32947 4808
" />
<path d="M34822 3168
L34822 3468
" />
<path d="M34822 3888
L34822 4168
" />
<path d="M34822 4808
L32947 4808
" />
<path d="M33187 3168
L34822 3168
" />
<path d="M34822 4588
L34822 4808
" />
<path d="M32947 3408
L33187 3168
" />
<path d="M32947 10908
L32947 10968
" />
<path d="M32947 11388
L32947 11668
" />
<path d="M32947 12088
L32947 12308
" />
<path d="M34822 10668
L34822 10968
" />
<path d="M34822 11388
L34822 11668
" />
<path d="M34822 12308
L32947 12308
" />
<path d="M33187 10668
L34822 10668
" />
<path d="M34822 12088
L34822 12308
" />
<path d="M32947 10908
L33187 10668
" />
<path d="M25447 9970
L25447 10030
" />
<path d="M25447 10450
L25447 10730
" />
<path d="M25447 11150
L25447 11370
" />
<path d="M27322 9730
L27322 10030
" />
<path d="M27322 10450
L27322 10730
" />
<path d="M27322 11370
L25447 11370
" />
<path d="M25687 9730
L27322 9730
" />
<path d="M27322 11150
L27322 11370
" />
<path d="M25447 9970
L25687 9730
" />
<path d="M17947 9033
L17947 9093
" />
<path d="M17947 9513
L17947 9793
" />
<path d="M17947 10213
L17947 10433
" />
<path d="M19822 8793
L19822 9093
" />
<path d="M19822 9513
L19822 9793
" />
<path d="M19822 10433
L17947 10433
" />
<path d="M18187 8793
L19822 8793
" />
<path d="M19822 10213
L19822 10433
" />
<path d="M17947 9033
L18187 8793
" />
<path d="M10447 9970
L10447 10030
" />
<path d="M10447 10450
L10447 10730
" />
<path d="M10447 11150
L10447 11370
" />
<path d="M12322 9730
L12322 10030
" />
<path d="M12322 10450
L12322 10730
" />
<path d="M12322 11370
L10447 11370
" />
<path d="M10687 9730
L12322 9730
" />
<path d="M12322 11150
L12322 11370
" />
<path d="M10447 9970
L10687 9730
" />
<path d="M2947 10908
L2947 10968
" />
<path d="M2947 11388
L2947 11668
" />
<path d="M2947 12088
L2947 12308
" />
<path d="M4822 10668
L4822 10968
" />
<path d="M4822 11388
L4822 11668
" />
<path d="M4822 12308
L2947 12308
" />
<path d="M3187 10668
L4822 10668
" />
<path d="M4822 12088
L4822 12308
" />
<path d="M2947 10908
L3187 10668
" />
<path d="M2947 18408
L2947 18468
" />
<path d="M2947 18888
L2947 19168
" />
<path d="M2947 19588
L2947 19808
" />
<path d="M4822 18168
L4822 18468
" />
<path d="M4822 18888
L4822 19168
" />
<path d="M4822 19808
L2947 19808
" />
<path d="M3187 18168
L4822 18168
" />
<path d="M4822 19588
L4822 19808
" />
<path d="M2947 18408
L3187 18168
" />
<path d="M10447 17470
L10447 17530
" />
<path d="M10447 17950
L10447 18230
" />
<path d="M10447 18650
L10447 18870
" />
<path d="M12322 17230
L12322 17530
" />
<path d="M12322 17950
L12322 18230
" />
<path d="M12322 18870
L10447 18870
" />
<path d="M10687 17230
L12322 17230
" />
<path d="M12322 18650
L12322 18870
" />
<path d="M10447 17470
L10687 17230
" />
<path d="M17947 16533
L17947 16593
" />
<path d="M17947 17013
L17947 17293
" />
<path d="M17947 17713
L17947 17933
" />
<path d="M19822 16293
L19822 16593
" />
<path d="M19822 17013
L19822 17293
" />
<path d="M19822 17933
L17947 17933
" />
<path d="M18187 16293
L19822 16293
" />
<path d="M19822 17713
L19822 17933
" />
<path d="M17947 16533
L18187 16293
" />
<path d="M25447 17470
L25447 17530
" />
<path d="M25447 17950
L25447 18230
" />
<path d="M25447 18650
L25447 18870
" />
<path d="M27322 17230
L27322 17530
" />
<path d="M27322 17950
L27322 18230
" />
<path d="M27322 18870
L25447 18870
" />
<path d="M25687 17230
L27322 17230
" />
<path d="M27322 18650
L27322 18870
" />
<path d="M25447 17470
L25687 17230
" />
<path d="M32947 18408
L32947 18468
" />
<path d="M32947 18888
L32947 19168
" />
<path d="M32947 19588
L32947 19808
" />
<path d="M34822 18168
L34822 18468
" />
<path d="M34822 18888
L34822 19168
" />
<path d="M34822 19808
L32947 19808
" />
<path d="M33187 18168
L34822 18168
" />
<path d="M34822 19588
L34822 19808
" />
<path d="M32947 18408
L33187 18168
" />
<path d="M32947 25908
L32947 25968
" />
<path d="M32947 26388
L32947 26668
" />
<path d="M32947 27088
L32947 27308
" />
<path d="M34822 25668
L34822 25968
" />
<path d="M34822 26388
L34822 26668
" />
<path d="M34822 27308
L32947 27308
" />
<path d="M33187 25668
L34822 25668
" />
<path d="M34822 27088
L34822 27308
" />
<path d="M32947 25908
L33187 25668
" />
<path d="M25447 24970
L25447 25030
" />
<path d="M25447 25450
L25447 25730
" />
<path d="M25447 26150
L25447 26370
" />
<path d="M27322 24730
L27322 25030
" />
<path d="M27322 25450
L27322 25730
" />
<path d="M27322 26370
L25447 26370
" />
<path d="M25687 24730
L27322 24730
" />
<path d="M27322 26150
L27322 26370
" />
<path d="M25447 24970
L25687 24730
" />
<path d="M17947 24033
L17947 24093
" />
<path d="M17947 24513
L17947 24793
" />
<path d="M17947 25213
L17947 25433
" />
<path d="M19822 23793
L19822 24093
" />
<path d="M19822 24513
L19822 24793
" />
<path d="M19822 25433
L17947 25433
" />
<path d="M18187 23793
L19822 23793
" />
<path d="M19822 25213
L19822 25433
" />
<path d="M17947 24033
L18187 23793
" />
<path d="M10447 24970
L10447 25030
" />
<path d="M10447 25450
L10447 25730
" />
<path d="M10447 26150
L10447 26370
" />
<path d="M12322 24730
L12322 25030
" />
<path d="M12322 25450
L12322 25730
" />
<path d="M12322 26370
L10447 26370
" />
<path d="M10687 24730
L12322 24730
" />
<path d="M12322 26150
L12322 26370
" />
<path d="M10447 24970
L10687 24730
" />
<path d="M2947 25908
L2947 25968
" />
<path d="M2947 26388
L2947 26668
" />
<path d="M2947 27088
L2947 27308
" />
<path d="M4822 25668
L4822 25968
" />
<path d="M4822 26388
L4822 26668
" />
<path d="M4822 27308
L2947 27308
" />
<path d="M3187 25668
L4822 25668
" />
<path d="M4822 27088
L4822 27308
" />
<path d="M2947 25908
L3187 25668
" />
<path d="M40447 25908
L40447 25968
" />
<path d="M40447 26388
L40447 26668
" />
<path d="M40447 27088
L40447 27308
" />
<path d="M42322 25668
L42322 25968
" />
<path d="M42322 26388
L42322 26668
" />
<path d="M42322 27308
L40447 27308
" />
<path d="M40687 25668
L42322 25668
" />
<path d="M42322 27088
L42322 27308
" />
<path d="M40447 25908
L40687 25668
" />
<path d="M40447 18408
L40447 18468
" />
<path d="M40447 18888
L40447 19168
" />
<path d="M40447 19588
L40447 19808
" />
<path d="M42322 18168
L42322 18468
" />
<path d="M42322 18888
L42322 19168
" />
<path d="M42322 19808
L40447 19808
" />
<path d="M40687 18168
L42322 18168
" />
<path d="M42322 19588
L42322 19808
" />
<path d="M40447 18408
L40687 18168
" />
<path d="M40447 10908
L40447 10968
" />
<path d="M40447 11388
L40447 11668
" />
<path d="M40447 12088
L40447 12308
" />
<path d="M42322 10668
L42322 10968
" />
<path d="M42322 11388
L42322 11668
" />
<path d="M42322 12308
L40447 12308
" />
<path d="M40687 10668
L42322 10668
" />
<path d="M42322 12088
L42322 12308
" />
<path d="M40447 10908
L40687 10668
" />
<path d="M40447 3408
L40447 3468
" />
<path d="M40447 3888
L40447 4168
" />
<path d="M40447 4588
L40447 4808
" />
<path d="M42322 3168
L42322 3468
" />
<path d="M42322 3888
L42322 4168
" />
<path d="M42322 4808
L40447 4808
" />
<path d="M40687 3168
L42322 3168
" />
<path d="M42322 4588
L42322 4808
" />
<path d="M40447 3408
L40687 3168
" />
</g>
<g style="fill:#840084; fill-opacity:0.0; 
stroke:#840084; stroke-width:47.2441; stroke-opacity:1; 
stroke-linecap:round; stroke-linejoin:round;">
<path d="M9704 2244
L8917 2244
" />
<path d="M9035 3877
L8917 3877
" />
<path d="M9704 4015
L8917 4015
" />
<path d="M8917 4015
L8917 2244
" />
<path d="M9704 4015
L9704 2244
" />
<path d="M9704 3877
L9586 3877
" />
<path d="M2204 3181
L1417 3181
" />
<path d="M1535 4815
L1417 4815
" />
<path d="M2204 4953
L1417 4953
" />
<path d="M1417 4953
L1417 3181
" />
<path d="M2204 4953
L2204 3181
" />
<path d="M2204 4815
L2086 4815
" />
<path d="M17204 1306
L16417 1306
" />
<path d="M16535 2940
L16417 2940
" />
<path d="M17204 3078
L16417 3078
" />
<path d="M16417 3078
L16417 1306
" />
<path d="M17204 3078
L17204 1306
" />
<path d="M17204 2940
L17086 2940
" />
<path d="M24704 2244
L23917 2244
" />
<path d="M24035 3877
L23917 3877
" />
<path d="M24704 4015
L23917 4015
" />
<path d="M23917 4015
L23917 2244
" />
<path d="M24704 4015
L24704 2244
" />
<path d="M24704 3877
L24586 3877
" />
<path d="M32204 3181
L31417 3181
" />
<path d="M31535 4815
L31417 4815
" />
<path d="M32204 4953
L31417 4953
" />
<path d="M31417 4953
L31417 3181
" />
<path d="M32204 4953
L32204 3181
" />
<path d="M32204 4815
L32086 4815
" />
<path d="M32204 10681
L31417 10681
" />
<path d="M31535 12315
L31417 12315
" />
<path d="M32204 12453
L31417 12453
" />
<path d="M31417 12453
L31417 10681
" />
<path d="M32204 12453
L32204 10681
" />
<path d="M32204 12315
L32086 12315
" />
<path d="M24704 9744
L23917 9744
" />
<path d="M24035 11377
L23917 11377
" />
<path d="M24704 11515
L23917 11515
" />
<path d="M23917 11515
L23917 9744
" />
<path d="M24704 11515
L24704 9744
" />
<path d="M24704 11377
L24586 11377
" />
<path d="M17204 8806
L16417 8806
" />
<path d="M16535 10440
L16417 10440
" />
<path d="M17204 10578
L16417 10578
" />
<path d="M16417 10578
L16417 8806
" />
<path d="M17204 10578
L17204 8806
" />
<path d="M17204 10440
L17086 10440
" />
<path d="M9704 9744
L8917 9744
" />
<path d="M9035 11377
L8917 11377
" />
<path d="M9704 11515
L8917 11515
" />
<path d="M8917 11515
L8917 9744
" />
<path d="M9704 11515
L9704 9744
" />
<path d="M9704 11377
L9586 11377
" />
<path d="M2204 10681
L1417 10681
" />
<path d="M1535 12315
L1417 12315
" />
<path d="M2204 12453
L1417 12453
" />
<path d="M1417 12453
L1417 10681
" />
<path d="M2204 12453
L2204 10681
" />
<path d="M2204 12315
L2086 12315
" />
<path d="M2204 18181
L1417 18181
" />
<path d="M1535 19815
L1417 19815
" />
<path d="M2204 19953
L1417 19953
" />
<path d="M1417 19953
L1417 18181
" />
<path d="M2204 19953
L2204 18181
" />
<path d="M2204 19815
L2086 19815
" />
<path d="M9704 17244
L8917 17244
" />
<path d="M9035 18877
L8917 18877
" />
<path d="M9704 19015
L8917 19015
" />
<path d="M8917 19015
L8917 17244
" />
<path d="M9704 19015
L9704 17244
" />
<path d="M9704 18877
L9586 18877
" />
<path d="M17204 16306
L16417 16306
" />
<path d="M16535 17940
L16417 17940
" />
<path d="M17204 18078
L16417 18078
" />
<path d="M16417 18078
L16417 16306
" />
<path d="M17204 18078
L17204 16306
" />
<path d="M17204 17940
L17086 17940
" />
<path d="M24704 17244
L23917 17244
" />
<path d="M24035 18877
L23917 18877
" />
<path d="M24704 19015
L23917 19015
" />
<path d="M23917 19015
L23917 17244
" />
<path d="M24704 19015
L24704 17244
" />
<path d="M24704 18877
L24586 18877
" />
<path d="M32204 18181
L31417 18181
" />
<path d="M31535 19815
L31417 19815
" />
<path d="M32204 19953
L31417 19953
" />
<path d="M31417 19953
L31417 18181
" />
<path d="M32204 19953
L32204 18181
" />
<path d="M32204 19815
L32086 19815
" />
<path d="M32204 25681
L31417 25681
" />
<path d="M31535 27315
L31417 27315
" />
<path d="M32204 27453
L31417 27453
" />
<path d="M31417 27453
L31417 25681
" />
<path d="M32204 27453
L32204 25681
" />
<path d="M32204 27315
L32086 27315
" />
<path d="M24704 24744
L23917 24744
" />
<path d="M24035 26377
L23917 26377
" />
<path d="M24704 26515
L23917 26515
" />
<path d="M23917 26515
L23917 24744
" />
<path d="M24704 26515
L24704 24744
" />
<path d="M24704 26377
L24586 26377
" />
<path d="M17204 23806
L16417 23806
" />
<path d="M16535 25440
L16417 25440
" />
<path d="M17204 25578
L16417 25578
" />
<path d="M16417 25578
L16417 23806
" />
<path d="M17204 25578
L17204 23806
" />
<path d="M17204 25440
L17086 25440
" />
<path d="M9704 24744
L8917 24744
" />
<path d="M9035 26377
L8917 26377
" />
<path d="M9704 26515
L8917 26515
" />
<path d="M8917 26515
L8917 24744
" />
<path d="M9704 26515
L9704 24744
" />
<path d="M9704 26377
L9586 26377
" />
<path d="M2204 25681
L1417 25681
" />
<path d="M1535 27315
L1417 27315
" />
<path d="M2204 27453
L1417 27453
" />
<path d="M1417 27453
L1417 25681
" />
<path d="M2204 27453
L2204 25681
" />
<path d="M2204 27315
L2086 27315
" />
<path d="M39704 25681
L38917 25681
" />
<path d="M39035 27315
L38917 27315
" />
<path d="M39704 27453
L38917 27453
" />
<path d="M38917 27453
L38917 25681
" />
<path d="M39704 27453
L39704 25681
" />
<path d="M39704 27315
L39586 27315
" />
<path d="M39704 18181
L38917 18181
" />
<path d="M39035 19815
L38917 19815
" />
<path d="M39704 19953
L38917 19953
" />
<path d="M38917 19953
L38917 18181
" />
<path d="M39704 19953
L39704 18181
" />
<path d="M39704 19815
L39586 19815
" />
<path d="M39704 10681
L38917 10681
" />
<path d="M39035 12315
L38917 12315
" />
<path d="M39704 12453
L38917 12453
" />
<path d="M38917 12453
L38917 10681
" />
<path d="M39704 12453
L39704 10681
" />
<path d="M39704 12315
L39586 12315
" />
<path d="M39704 3181
L38917 3181
" />
<path d="M39035 4815
L38917 4815
" />
<path d="M39704 4953
L38917 4953
" />
<path d="M38917 4953
L38917 3181
" />
<path d="M39704 4953
L39704 3181
" />
<path d="M39704 4815
L39586 4815
" />
</g>
<g style="fill:#840084; fill-opacity:0.0; 
stroke:#840084; stroke-width:59.0551; stroke-opacity:1; 
stroke-linecap:round; stroke-linejoin:round;">
<path d="M6513 6139
L6513 6039
" />
<path d="M1863 6839
L1863 7139
" />
<path d="M5413.39 8589.47 A1100 1100 0.0 0 0 6513.39 7489.47 " />
<path d="M3963.39 6839.47 A800 800 0.0 0 0 4763.39 6039.47 " />
<path d="M3963 6839
L1863 6839
" />
<path d="M6513 6039
L4763 6039
" />
<path d="M6513 7489
L6513 7239
" />
<path d="M1863 8589
L5413 8589
" />
<path d="M1863 8239
L1863 8589
" />
<path d="M9363 7301
L9363 7651
" />
<path d="M9363 7651
L12913 7651
" />
<path d="M14013 6551
L14013 6301
" />
<path d="M14013 5101
L12263 5101
" />
<path d="M11463 5901
L9363 5901
" />
<path d="M11463.4 5901.97 A800 800 0.0 0 0 12263.4 5101.97 " />
<path d="M12913.4 7651.97 A1100 1100 0.0 0 0 14013.4 6551.97 " />
<path d="M9363 5901
L9363 6201
" />
<path d="M14013 5201
L14013 5101
" />
<path d="M16863 6364
L16863 6714
" />
<path d="M16863 6714
L20413 6714
" />
<path d="M21513 5614
L21513 5364
" />
<path d="M21513 4164
L19763 4164
" />
<path d="M18963 4964
L16863 4964
" />
<path d="M18963.4 4964.47 A800 800 0.0 0 0 19763.4 4164.47 " />
<path d="M20413.4 6714.47 A1100 1100 0.0 0 0 21513.4 5614.47 " />
<path d="M16863 4964
L16863 5264
" />
<path d="M21513 4264
L21513 4164
" />
<path d="M24363 7301
L24363 7651
" />
<path d="M24363 7651
L27913 7651
" />
<path d="M29013 6551
L29013 6301
" />
<path d="M29013 5101
L27263 5101
" />
<path d="M26463 5901
L24363 5901
" />
<path d="M26463.4 5901.97 A800 800 0.0 0 0 27263.4 5101.97 " />
<path d="M27913.4 7651.97 A1100 1100 0.0 0 0 29013.4 6551.97 " />
<path d="M24363 5901
L24363 6201
" />
<path d="M29013 5201
L29013 5101
" />
<path d="M36513 6139
L36513 6039
" />
<path d="M31863 6839
L31863 7139
" />
<path d="M35413.4 8589.47 A1100 1100 0.0 0 0 36513.4 7489.47 " />
<path d="M33963.4 6839.47 A800 800 0.0 0 0 34763.4 6039.47 " />
<path d="M33963 6839
L31863 6839
" />
<path d="M36513 6039
L34763 6039
" />
<path d="M36513 7489
L36513 7239
" />
<path d="M31863 8589
L35413 8589
" />
<path d="M31863 8239
L31863 8589
" />
<path d="M36513 13639
L36513 13539
" />
<path d="M31863 14339
L31863 14639
" />
<path d="M35413.4 16089.5 A1100 1100 0.0 0 0 36513.4 14989.5 " />
<path d="M33963.4 14339.5 A800 800 0.0 0 0 34763.4 13539.5 " />
<path d="M33963 14339
L31863 14339
" />
<path d="M36513 13539
L34763 13539
" />
<path d="M36513 14989
L36513 14739
" />
<path d="M31863 16089
L35413 16089
" />
<path d="M31863 15739
L31863 16089
" />
<path d="M29013 12701
L29013 12601
" />
<path d="M24363 13401
L24363 13701
" />
<path d="M27913.4 15152 A1100 1100 0.0 0 0 29013.4 14052 " />
<path d="M26463.4 13402 A800 800 0.0 0 0 27263.4 12602 " />
<path d="M26463 13401
L24363 13401
" />
<path d="M29013 12601
L27263 12601
" />
<path d="M29013 14051
L29013 13801
" />
<path d="M24363 15151
L27913 15151
" />
<path d="M24363 14801
L24363 15151
" />
<path d="M16863 13864
L16863 14214
" />
<path d="M16863 14214
L20413 14214
" />
<path d="M21513 13114
L21513 12864
" />
<path d="M21513 11664
L19763 11664
" />
<path d="M18963 12464
L16863 12464
" />
<path d="M18963.4 12464.5 A800 800 0.0 0 0 19763.4 11664.5 " />
<path d="M20413.4 14214.5 A1100 1100 0.0 0 0 21513.4 13114.5 " />
<path d="M16863 12464
L16863 12764
" />
<path d="M21513 11764
L21513 11664
" />
<path d="M9363 14801
L9363 15151
" />
<path d="M9363 15151
L12913 15151
" />
<path d="M14013 14051
L14013 13801
" />
<path d="M14013 12601
L12263 12601
" />
<path d="M11463 13401
L9363 13401
" />
<path d="M11463.4 13402 A800 800 0.0 0 0 12263.4 12602 " />
<path d="M12913.4 15152 A1100 1100 0.0 0 0 14013.4 14052 " />
<path d="M9363 13401
L9363 13701
" />
<path d="M14013 12701
L14013 12601
" />
<path d="M1863 15739
L1863 16089
" />
<path d="M1863 16089
L5413 16089
" />
<path d="M6513 14989
L6513 14739
" />
<path d="M6513 13539
L4763 13539
" />
<path d="M3963 14339
L1863 14339
" />
<path d="M3963.39 14339.5 A800 800 0.0 0 0 4763.39 13539.5 " />
<path d="M5413.39 16089.5 A1100 1100 0.0 0 0 6513.39 14989.5 " />
<path d="M1863 14339
L1863 14639
" />
<path d="M6513 13639
L6513 13539
" />
<path d="M6513 21139
L6513 21039
" />
<path d="M1863 21839
L1863 22139
" />
<path d="M5413.39 23589.5 A1100 1100 0.0 0 0 6513.39 22489.5 " />
<path d="M3963.39 21839.5 A800 800 0.0 0 0 4763.39 21039.5 " />
<path d="M3963 21839
L1863 21839
" />
<path d="M6513 21039
L4763 21039
" />
<path d="M6513 22489
L6513 22239
" />
<path d="M1863 23589
L5413 23589
" />
<path d="M1863 23239
L1863 23589
" />
<path d="M9363 22301
L9363 22651
" />
<path d="M9363 22651
L12913 22651
" />
<path d="M14013 21551
L14013 21301
" />
<path d="M14013 20101
L12263 20101
" />
<path d="M11463 20901
L9363 20901
" />
<path d="M11463.4 20902 A800 800 0.0 0 0 12263.4 20102 " />
<path d="M12913.4 22652 A1100 1100 0.0 0 0 14013.4 21552 " />
<path d="M9363 20901
L9363 21201
" />
<path d="M14013 20201
L14013 20101
" />
<path d="M21513 19264
L21513 19164
" />
<path d="M16863 19964
L16863 20264
" />
<path d="M20413.4 21714.5 A1100 1100 0.0 0 0 21513.4 20614.5 " />
<path d="M18963.4 19964.5 A800 800 0.0 0 0 19763.4 19164.5 " />
<path d="M18963 19964
L16863 19964
" />
<path d="M21513 19164
L19763 19164
" />
<path d="M21513 20614
L21513 20364
" />
<path d="M16863 21714
L20413 21714
" />
<path d="M16863 21364
L16863 21714
" />
<path d="M24363 22301
L24363 22651
" />
<path d="M24363 22651
L27913 22651
" />
<path d="M29013 21551
L29013 21301
" />
<path d="M29013 20101
L27263 20101
" />
<path d="M26463 20901
L24363 20901
" />
<path d="M26463.4 20902 A800 800 0.0 0 0 27263.4 20102 " />
<path d="M27913.4 22652 A1100 1100 0.0 0 0 29013.4 21552 " />
<path d="M24363 20901
L24363 21201
" />
<path d="M29013 20201
L29013 20101
" />
<path d="M36513 21139
L36513 21039
" />
<path d="M31863 21839
L31863 22139
" />
<path d="M35413.4 23589.5 A1100 1100 0.0 0 0 36513.4 22489.5 " />
<path d="M33963.4 21839.5 A800 800 0.0 0 0 34763.4 21039.5 " />
<path d="M33963 21839
L31863 21839
" />
<path d="M36513 21039
L34763 21039
" />
<path d="M36513 22489
L36513 22239
" />
<path d="M31863 23589
L35413 23589
" />
<path d="M31863 23239
L31863 23589
" />
<path d="M36513 28639
L36513 28539
" />
<path d="M31863 29339
L31863 29639
" />
<path d="M35413.4 31089.5 A1100 1100 0.0 0 0 36513.4 29989.5 " />
<path d="M33963.4 29339.5 A800 800 0.0 0 0 34763.4 28539.5 " />
<path d="M33963 29339
L31863 29339
" />
<path d="M36513 28539
L34763 28539
" />
<path d="M36513 29989
L36513 29739
" />
<path d="M31863 31089
L35413 31089
" />
<path d="M31863 30739
L31863 31089
" />
<path d="M24363 29801
L24363 30151
" />
<path d="M24363 30151
L27913 30151
" />
<path d="M29013 29051
L29013 28801
" />
<path d="M29013 27601
L27263 27601
" />
<path d="M26463 28401
L24363 28401
" />
<path d="M26463.4 28402 A800 800 0.0 0 0 27263.4 27602 " />
<path d="M27913.4 30152 A1100 1100 0.0 0 0 29013.4 29052 " />
<path d="M24363 28401
L24363 28701
" />
<path d="M29013 27701
L29013 27601
" />
<path d="M21513 26764
L21513 26664
" />
<path d="M16863 27464
L16863 27764
" />
<path d="M20413.4 29214.5 A1100 1100 0.0 0 0 21513.4 28114.5 " />
<path d="M18963.4 27464.5 A800 800 0.0 0 0 19763.4 26664.5 " />
<path d="M18963 27464
L16863 27464
" />
<path d="M21513 26664
L19763 26664
" />
<path d="M21513 28114
L21513 27864
" />
<path d="M16863 29214
L20413 29214
" />
<path d="M16863 28864
L16863 29214
" />
<path d="M14013 27701
L14013 27601
" />
<path d="M9363 28401
L9363 28701
" />
<path d="M12913.4 30152 A1100 1100 0.0 0 0 14013.4 29052 " />
<path d="M11463.4 28402 A800 800 0.0 0 0 12263.4 27602 " />
<path d="M11463 28401
L9363 28401
" />
<path d="M14013 27601
L12263 27601
" />
<path d="M14013 29051
L14013 28801
" />
<path d="M9363 30151
L12913 30151
" />
<path d="M9363 29801
L9363 30151
" />
<path d="M1863 30739
L1863 31089
" />
<path d="M1863 31089
L5413 31089
" />
<path d="M6513 29989
L6513 29739
" />
<path d="M6513 28539
L4763 28539
" />
<path d="M3963 29339
L1863 29339
" />
<path d="M3963.39 29339.5 A800 800 0.0 0 0 4763.39 28539.5 " />
<path d="M5413.39 31089.5 A1100 1100 0.0 0 0 6513.39 29989.5 " />
<path d="M1863 29339
L1863 29639
" />
<path d="M6513 28639
L6513 28539
" />
<path d="M39363 30739
L39363 31089
" />
<path d="M39363 31089
L42913 31089
" />
<path d="M44013 29989
L44013 29739
" />
<path d="M44013 28539
L42263 28539
" />
<path d="M41463 29339
L39363 29339
" />
<path d="M41463.4 29339.5 A800 800 0.0 0 0 42263.4 28539.5 " />
<path d="M42913.4 31089.5 A1100 1100 0.0 0 0 44013.4 29989.5 " />
<path d="M39363 29339
L39363 29639
" />
<path d="M44013 28639
L44013 28539
" />
<path d="M44013 21139
L44013 21039
" />
<path d="M39363 21839
L39363 22139
" />
<path d="M42913.4 23589.5 A1100 1100 0.0 0 0 44013.4 22489.5 " />
<path d="M41463.4 21839.5 A800 800 0.0 0 0 42263.4 21039.5 " />
<path d="M41463 21839
L39363 21839
" />
<path d="M44013 21039
L42263 21039
" />
<path d="M44013 22489
L44013 22239
" />
<path d="M39363 23589
L42913 23589
" />
<path d="M39363 23239
L39363 23589
" />
<path d="M39363 15739
L39363 16089
" />
<path d="M39363 16089
L42913 16089
" />
<path d="M44013 14989
L44013 14739
" />
<path d="M44013 13539
L42263 13539
" />
<path d="M41463 14339
L39363 14339
" />
<path d="M41463.4 14339.5 A800 800 0.0 0 0 42263.4 13539.5 " />
<path d="M42913.4 16089.5 A1100 1100 0.0 0 0 44013.4 14989.5 " />
<path d="M39363 14339
L39363 14639
" />
<path d="M44013 13639
L44013 13539
" />
<path d="M44013 6139
L44013 6039
" />
<path d="M39363 6839
L39363 7139
" />
<path d="M42913.4 8589.47 A1100 1100 0.0 0 0 44013.4 7489.47 " />
<path d="M41463.4 6839.47 A800 800 0.0 0 0 42263.4 6039.47 " />
<path d="M41463 6839
L39363 6839
" />
<path d="M44013 6039
L42263 6039
" />
<path d="M44013 7489
L44013 7239
" />
<path d="M39363 8589
L42913 8589
" />
<path d="M39363 8239
L39363 8589
" />
</g>
<g style="fill:#840084; fill-opacity:0.0; 
stroke:#840084; stroke-width:49.2126; stroke-opacity:1; 
stroke-linecap:round; stroke-linejoin:round;">
<path d="M3014 5067
L2921 5067
L2921 4870
" />
<path d="M3183 5067
L3071 5067
" />
<path d="M3127 5067
L3127 4870
L3108 4898
L3089 4917
L3071 4926
" />
<path d="M10514 4129
L10421 4129
L10421 3932
" />
<path d="M10571 3951
L10580 3942
L10599 3932
L10646 3932
L10664 3942
L10674 3951
L10683 3970
L10683 3988
L10674 4017
L10561 4129
L10683 4129
" />
<path d="M18014 3192
L17921 3192
L17921 2995
" />
<path d="M18061 2995
L18183 2995
L18117 3070
L18146 3070
L18164 3079
L18174 3088
L18183 3107
L18183 3154
L18174 3173
L18164 3182
L18146 3192
L18089 3192
L18071 3182
L18061 3173
" />
<path d="M25514 4129
L25421 4129
L25421 3932
" />
<path d="M25664 3998
L25664 4129
" />
<path d="M25617 3923
L25571 4063
L25692 4063
" />
<path d="M33014 5067
L32921 5067
L32921 4870
" />
<path d="M33174 4870
L33080 4870
L33071 4963
L33080 4954
L33099 4945
L33146 4945
L33164 4954
L33174 4963
L33183 4982
L33183 5029
L33174 5048
L33164 5057
L33146 5067
L33099 5067
L33080 5057
L33071 5048
" />
<path d="M33014 12567
L32921 12567
L32921 12370
" />
<path d="M33164 12370
L33127 12370
L33108 12379
L33099 12389
L33080 12417
L33071 12454
L33071 12529
L33080 12548
L33089 12557
L33108 12567
L33146 12567
L33164 12557
L33174 12548
L33183 12529
L33183 12482
L33174 12463
L33164 12454
L33146 12445
L33108 12445
L33089 12454
L33080 12463
L33071 12482
" />
<path d="M25514 11629
L25421 11629
L25421 11432
" />
<path d="M25561 11432
L25692 11432
L25608 11629
" />
<path d="M18014 10692
L17921 10692
L17921 10495
" />
<path d="M18108 10579
L18089 10570
L18080 10560
L18071 10542
L18071 10532
L18080 10514
L18089 10504
L18108 10495
L18146 10495
L18164 10504
L18174 10514
L18183 10532
L18183 10542
L18174 10560
L18164 10570
L18146 10579
L18108 10579
L18089 10588
L18080 10598
L18071 10617
L18071 10654
L18080 10673
L18089 10682
L18108 10692
L18146 10692
L18164 10682
L18174 10673
L18183 10654
L18183 10617
L18174 10598
L18164 10588
L18146 10579
" />
<path d="M10514 11629
L10421 11629
L10421 11432
" />
<path d="M10589 11629
L10627 11629
L10646 11620
L10655 11610
L10674 11582
L10683 11545
L10683 11470
L10674 11451
L10664 11442
L10646 11432
L10608 11432
L10589 11442
L10580 11451
L10571 11470
L10571 11517
L10580 11535
L10589 11545
L10608 11554
L10646 11554
L10664 11545
L10674 11535
L10683 11517
" />
<path d="M2921 12567
L2827 12567
L2827 12370
" />
<path d="M3089 12567
L2977 12567
" />
<path d="M3033 12567
L3033 12370
L3014 12398
L2996 12417
L2977 12426
" />
<path d="M3211 12370
L3230 12370
L3249 12379
L3258 12389
L3267 12407
L3277 12445
L3277 12492
L3267 12529
L3258 12548
L3249 12557
L3230 12567
L3211 12567
L3192 12557
L3183 12548
L3174 12529
L3164 12492
L3164 12445
L3174 12407
L3183 12389
L3192 12379
L3211 12370
" />
<path d="M2921 20067
L2827 20067
L2827 19870
" />
<path d="M3089 20067
L2977 20067
" />
<path d="M3033 20067
L3033 19870
L3014 19898
L2996 19917
L2977 19926
" />
<path d="M3277 20067
L3164 20067
" />
<path d="M3221 20067
L3221 19870
L3202 19898
L3183 19917
L3164 19926
" />
<path d="M10421 19129
L10327 19129
L10327 18932
" />
<path d="M10589 19129
L10477 19129
" />
<path d="M10533 19129
L10533 18932
L10514 18960
L10496 18979
L10477 18988
" />
<path d="M10664 18951
L10674 18942
L10692 18932
L10739 18932
L10758 18942
L10767 18951
L10777 18970
L10777 18988
L10767 19017
L10655 19129
L10777 19129
" />
<path d="M17921 18192
L17827 18192
L17827 17995
" />
<path d="M18089 18192
L17977 18192
" />
<path d="M18033 18192
L18033 17995
L18014 18023
L17996 18042
L17977 18051
" />
<path d="M18155 17995
L18277 17995
L18211 18070
L18239 18070
L18258 18079
L18267 18088
L18277 18107
L18277 18154
L18267 18173
L18258 18182
L18239 18192
L18183 18192
L18164 18182
L18155 18173
" />
<path d="M25421 19129
L25327 19129
L25327 18932
" />
<path d="M25589 19129
L25477 19129
" />
<path d="M25533 19129
L25533 18932
L25514 18960
L25496 18979
L25477 18988
" />
<path d="M25758 18998
L25758 19129
" />
<path d="M25711 18923
L25664 19063
L25786 19063
" />
<path d="M32921 20067
L32827 20067
L32827 19870
" />
<path d="M33089 20067
L32977 20067
" />
<path d="M33033 20067
L33033 19870
L33014 19898
L32996 19917
L32977 19926
" />
<path d="M33267 19870
L33174 19870
L33164 19963
L33174 19954
L33192 19945
L33239 19945
L33258 19954
L33267 19963
L33277 19982
L33277 20029
L33267 20048
L33258 20057
L33239 20067
L33192 20067
L33174 20057
L33164 20048
" />
<path d="M32921 27567
L32827 27567
L32827 27370
" />
<path d="M33089 27567
L32977 27567
" />
<path d="M33033 27567
L33033 27370
L33014 27398
L32996 27417
L32977 27426
" />
<path d="M33258 27370
L33221 27370
L33202 27379
L33192 27389
L33174 27417
L33164 27454
L33164 27529
L33174 27548
L33183 27557
L33202 27567
L33239 27567
L33258 27557
L33267 27548
L33277 27529
L33277 27482
L33267 27463
L33258 27454
L33239 27445
L33202 27445
L33183 27454
L33174 27463
L33164 27482
" />
<path d="M25421 26629
L25327 26629
L25327 26432
" />
<path d="M25589 26629
L25477 26629
" />
<path d="M25533 26629
L25533 26432
L25514 26460
L25496 26479
L25477 26488
" />
<path d="M25655 26432
L25786 26432
L25702 26629
" />
<path d="M17921 25692
L17827 25692
L17827 25495
" />
<path d="M18089 25692
L17977 25692
" />
<path d="M18033 25692
L18033 25495
L18014 25523
L17996 25542
L17977 25551
" />
<path d="M18202 25579
L18183 25570
L18174 25560
L18164 25542
L18164 25532
L18174 25514
L18183 25504
L18202 25495
L18239 25495
L18258 25504
L18267 25514
L18277 25532
L18277 25542
L18267 25560
L18258 25570
L18239 25579
L18202 25579
L18183 25588
L18174 25598
L18164 25617
L18164 25654
L18174 25673
L18183 25682
L18202 25692
L18239 25692
L18258 25682
L18267 25673
L18277 25654
L18277 25617
L18267 25598
L18258 25588
L18239 25579
" />
<path d="M10421 26629
L10327 26629
L10327 26432
" />
<path d="M10589 26629
L10477 26629
" />
<path d="M10533 26629
L10533 26432
L10514 26460
L10496 26479
L10477 26488
" />
<path d="M10683 26629
L10721 26629
L10739 26620
L10749 26610
L10767 26582
L10777 26545
L10777 26470
L10767 26451
L10758 26442
L10739 26432
L10702 26432
L10683 26442
L10674 26451
L10664 26470
L10664 26517
L10674 26535
L10683 26545
L10702 26554
L10739 26554
L10758 26545
L10767 26535
L10777 26517
" />
<path d="M2921 27567
L2827 27567
L2827 27370
" />
<path d="M2977 27389
L2986 27379
L3005 27370
L3052 27370
L3071 27379
L3080 27389
L3089 27407
L3089 27426
L3080 27454
L2967 27567
L3089 27567
" />
<path d="M3211 27370
L3230 27370
L3249 27379
L3258 27389
L3267 27407
L3277 27445
L3277 27492
L3267 27529
L3258 27548
L3249 27557
L3230 27567
L3211 27567
L3192 27557
L3183 27548
L3174 27529
L3164 27492
L3164 27445
L3174 27407
L3183 27389
L3192 27379
L3211 27370
" />
<path d="M40421 27567
L40327 27567
L40327 27370
" />
<path d="M40477 27389
L40486 27379
L40505 27370
L40552 27370
L40571 27379
L40580 27389
L40589 27407
L40589 27426
L40580 27454
L40467 27567
L40589 27567
" />
<path d="M40655 27370
L40786 27370
L40702 27567
" />
<path d="M40421 20067
L40327 20067
L40327 19870
" />
<path d="M40477 19889
L40486 19879
L40505 19870
L40552 19870
L40571 19879
L40580 19889
L40589 19907
L40589 19926
L40580 19954
L40467 20067
L40589 20067
" />
<path d="M40702 19954
L40683 19945
L40674 19935
L40664 19917
L40664 19907
L40674 19889
L40683 19879
L40702 19870
L40739 19870
L40758 19879
L40767 19889
L40777 19907
L40777 19917
L40767 19935
L40758 19945
L40739 19954
L40702 19954
L40683 19963
L40674 19973
L40664 19992
L40664 20029
L40674 20048
L40683 20057
L40702 20067
L40739 20067
L40758 20057
L40767 20048
L40777 20029
L40777 19992
L40767 19973
L40758 19963
L40739 19954
" />
<path d="M40421 12567
L40327 12567
L40327 12370
" />
<path d="M40477 12389
L40486 12379
L40505 12370
L40552 12370
L40571 12379
L40580 12389
L40589 12407
L40589 12426
L40580 12454
L40467 12567
L40589 12567
" />
<path d="M40683 12567
L40721 12567
L40739 12557
L40749 12548
L40767 12520
L40777 12482
L40777 12407
L40767 12389
L40758 12379
L40739 12370
L40702 12370
L40683 12379
L40674 12389
L40664 12407
L40664 12454
L40674 12473
L40683 12482
L40702 12492
L40739 12492
L40758 12482
L40767 12473
L40777 12454
" />
<path d="M40421 5067
L40327 5067
L40327 4870
" />
<path d="M40467 4870
L40589 4870
L40524 4945
L40552 4945
L40571 4954
L40580 4963
L40589 4982
L40589 5029
L40580 5048
L40571 5057
L40552 5067
L40496 5067
L40477 5057
L40467 5048
" />
<path d="M40711 4870
L40730 4870
L40749 4879
L40758 4889
L40767 4907
L40777 4945
L40777 4992
L40767 5029
L40758 5048
L40749 5057
L40730 5067
L40711 5067
L40692 5057
L40683 5048
L40674 5029
L40664 4992
L40664 4945
L40674 4907
L40683 4889
L40692 4879
L40711 4870
" />
<path d="M9990 3752
L9793 3752
L9793 3799
L9803 3827
L9821 3846
L9840 3855
L9878 3864
L9906 3864
L9943 3855
L9962 3846
L9981 3827
L9990 3799
L9990 3752
" />
<path d="M9990 4052
L9990 3939
" />
<path d="M9990 3996
L9793 3996
L9821 3977
L9840 3958
L9850 3939
" />
<path d="M2510 4638
L2313 4638
L2313 4685
L2322 4713
L2341 4731
L2360 4741
L2397 4750
L2425 4750
L2463 4741
L2482 4731
L2500 4713
L2510 4685
L2510 4638
" />
<path d="M2332 4825
L2322 4835
L2313 4853
L2313 4900
L2322 4919
L2332 4928
L2350 4938
L2369 4938
L2397 4928
L2510 4816
L2510 4938
" />
<path d="M17569 2768
L17372 2768
L17372 2814
L17381 2843
L17400 2861
L17419 2871
L17456 2880
L17485 2880
L17522 2871
L17541 2861
L17559 2843
L17569 2814
L17569 2768
" />
<path d="M17372 2946
L17372 3068
L17447 3002
L17447 3030
L17456 3049
L17466 3058
L17485 3068
L17531 3068
L17550 3058
L17559 3049
L17569 3030
L17569 2974
L17559 2955
L17550 2946
" />
<path d="M25049 3653
L24852 3653
L24852 3700
L24862 3728
L24880 3747
L24899 3757
L24937 3766
L24965 3766
L25002 3757
L25021 3747
L25040 3728
L25049 3700
L25049 3653
" />
<path d="M24918 3935
L25049 3935
" />
<path d="M24843 3888
L24984 3841
L24984 3963
" />
<path d="M32529 4638
L32333 4638
L32333 4685
L32342 4713
L32361 4731
L32380 4741
L32417 4750
L32445 4750
L32483 4741
L32501 4731
L32520 4713
L32529 4685
L32529 4638
" />
<path d="M32333 4928
L32333 4835
L32426 4825
L32417 4835
L32408 4853
L32408 4900
L32417 4919
L32426 4928
L32445 4938
L32492 4938
L32511 4928
L32520 4919
L32529 4900
L32529 4853
L32520 4835
L32511 4825
" />
<path d="M32529 12118
L32333 12118
L32333 12165
L32342 12193
L32361 12212
L32380 12221
L32417 12230
L32445 12230
L32483 12221
L32501 12212
L32520 12193
L32529 12165
L32529 12118
" />
<path d="M32333 12399
L32333 12362
L32342 12343
L32351 12334
L32380 12315
L32417 12305
L32492 12305
L32511 12315
L32520 12324
L32529 12343
L32529 12380
L32520 12399
L32511 12409
L32492 12418
L32445 12418
L32426 12409
L32417 12399
L32408 12380
L32408 12343
L32417 12324
L32426 12315
L32445 12305
" />
<path d="M25049 11134
L24852 11134
L24852 11181
L24862 11209
L24880 11227
L24899 11237
L24937 11246
L24965 11246
L25002 11237
L25021 11227
L25040 11209
L25049 11181
L25049 11134
" />
<path d="M24852 11312
L24852 11443
L25049 11359
" />
<path d="M17470 10248
L17274 10248
L17274 10295
L17283 10323
L17302 10342
L17320 10351
L17358 10360
L17386 10360
L17424 10351
L17442 10342
L17461 10323
L17470 10295
L17470 10248
" />
<path d="M17358 10473
L17349 10454
L17339 10445
L17320 10435
L17311 10435
L17292 10445
L17283 10454
L17274 10473
L17274 10510
L17283 10529
L17292 10538
L17311 10548
L17320 10548
L17339 10538
L17349 10529
L17358 10510
L17358 10473
L17367 10454
L17377 10445
L17395 10435
L17433 10435
L17452 10445
L17461 10454
L17470 10473
L17470 10510
L17461 10529
L17452 10538
L17433 10548
L17395 10548
L17377 10538
L17367 10529
L17358 10510
" />
<path d="M9990 11232
L9793 11232
L9793 11279
L9803 11307
L9821 11326
L9840 11335
L9878 11345
L9906 11345
L9943 11335
L9962 11326
L9981 11307
L9990 11279
L9990 11232
" />
<path d="M9990 11438
L9990 11476
L9981 11495
L9971 11504
L9943 11523
L9906 11532
L9831 11532
L9812 11523
L9803 11513
L9793 11495
L9793 11457
L9803 11438
L9812 11429
L9831 11420
L9878 11420
L9896 11429
L9906 11438
L9915 11457
L9915 11495
L9906 11513
L9896 11523
L9878 11532
" />
<path d="M2510 11926
L2313 11926
L2313 11973
L2322 12001
L2341 12020
L2360 12029
L2397 12038
L2425 12038
L2463 12029
L2482 12020
L2500 12001
L2510 11973
L2510 11926
" />
<path d="M2510 12226
L2510 12113
" />
<path d="M2510 12170
L2313 12170
L2341 12151
L2360 12132
L2369 12113
" />
<path d="M2313 12348
L2313 12366
L2322 12385
L2332 12395
L2350 12404
L2388 12413
L2435 12413
L2472 12404
L2491 12395
L2500 12385
L2510 12366
L2510 12348
L2500 12329
L2491 12320
L2472 12310
L2435 12301
L2388 12301
L2350 12310
L2332 12320
L2322 12329
L2313 12348
" />
<path d="M2510 19505
L2313 19505
L2313 19551
L2322 19580
L2341 19598
L2360 19608
L2397 19617
L2425 19617
L2463 19608
L2482 19598
L2500 19580
L2510 19551
L2510 19505
" />
<path d="M2510 19805
L2510 19692
" />
<path d="M2510 19748
L2313 19748
L2341 19730
L2360 19711
L2369 19692
" />
<path d="M2510 19992
L2510 19880
" />
<path d="M2510 19936
L2313 19936
L2341 19917
L2360 19898
L2369 19880
" />
<path d="M9990 18422
L9793 18422
L9793 18469
L9803 18497
L9821 18516
L9840 18525
L9878 18534
L9906 18534
L9943 18525
L9962 18516
L9981 18497
L9990 18469
L9990 18422
" />
<path d="M9990 18722
L9990 18609
" />
<path d="M9990 18666
L9793 18666
L9821 18647
L9840 18628
L9850 18609
" />
<path d="M9812 18797
L9803 18806
L9793 18825
L9793 18872
L9803 18891
L9812 18900
L9831 18909
L9850 18909
L9878 18900
L9990 18787
L9990 18909
" />
<path d="M17470 17536
L17274 17536
L17274 17583
L17283 17611
L17302 17630
L17320 17639
L17358 17649
L17386 17649
L17424 17639
L17442 17630
L17461 17611
L17470 17583
L17470 17536
" />
<path d="M17470 17836
L17470 17724
" />
<path d="M17470 17780
L17274 17780
L17302 17761
L17320 17742
L17330 17724
" />
<path d="M17274 17902
L17274 18023
L17349 17958
L17349 17986
L17358 18005
L17367 18014
L17386 18023
L17433 18023
L17452 18014
L17461 18005
L17470 17986
L17470 17930
L17461 17911
L17452 17902
" />
<path d="M25049 18520
L24852 18520
L24852 18567
L24862 18595
L24880 18614
L24899 18623
L24937 18633
L24965 18633
L25002 18623
L25021 18614
L25040 18595
L25049 18567
L25049 18520
" />
<path d="M25049 18820
L25049 18708
" />
<path d="M25049 18764
L24852 18764
L24880 18745
L24899 18727
L24909 18708
" />
<path d="M24918 18989
L25049 18989
" />
<path d="M24843 18942
L24984 18895
L24984 19017
" />
<path d="M32529 19406
L32333 19406
L32333 19453
L32342 19481
L32361 19500
L32380 19509
L32417 19519
L32445 19519
L32483 19509
L32501 19500
L32520 19481
L32529 19453
L32529 19406
" />
<path d="M32529 19706
L32529 19594
" />
<path d="M32529 19650
L32333 19650
L32361 19631
L32380 19612
L32389 19594
" />
<path d="M32333 19884
L32333 19790
L32426 19781
L32417 19790
L32408 19809
L32408 19856
L32417 19875
L32426 19884
L32445 19894
L32492 19894
L32511 19884
L32520 19875
L32529 19856
L32529 19809
L32520 19790
L32511 19781
" />
<path d="M32529 26886
L32333 26886
L32333 26933
L32342 26961
L32361 26980
L32380 26990
L32417 26999
L32445 26999
L32483 26990
L32501 26980
L32520 26961
L32529 26933
L32529 26886
" />
<path d="M32529 27186
L32529 27074
" />
<path d="M32529 27130
L32333 27130
L32361 27111
L32380 27093
L32389 27074
" />
<path d="M32333 27355
L32333 27318
L32342 27299
L32351 27290
L32380 27271
L32417 27261
L32492 27261
L32511 27271
L32520 27280
L32529 27299
L32529 27336
L32520 27355
L32511 27365
L32492 27374
L32445 27374
L32426 27365
L32417 27355
L32408 27336
L32408 27299
L32417 27280
L32426 27271
L32445 27261
" />
<path d="M25049 25902
L24852 25902
L24852 25949
L24862 25977
L24880 25996
L24899 26005
L24937 26015
L24965 26015
L25002 26005
L25021 25996
L25040 25977
L25049 25949
L25049 25902
" />
<path d="M25049 26202
L25049 26090
" />
<path d="M25049 26146
L24852 26146
L24880 26127
L24899 26108
L24909 26090
" />
<path d="M24852 26268
L24852 26399
L25049 26315
" />
<path d="M17470 24918
L17274 24918
L17274 24965
L17283 24993
L17302 25012
L17320 25021
L17358 25030
L17386 25030
L17424 25021
L17442 25012
L17461 24993
L17470 24965
L17470 24918
" />
<path d="M17470 25218
L17470 25105
" />
<path d="M17470 25162
L17274 25162
L17302 25143
L17320 25124
L17330 25105
" />
<path d="M17358 25330
L17349 25312
L17339 25302
L17320 25293
L17311 25293
L17292 25302
L17283 25312
L17274 25330
L17274 25368
L17283 25387
L17292 25396
L17311 25405
L17320 25405
L17339 25396
L17349 25387
L17358 25368
L17358 25330
L17367 25312
L17377 25302
L17395 25293
L17433 25293
L17452 25302
L17461 25312
L17470 25330
L17470 25368
L17461 25387
L17452 25396
L17433 25405
L17395 25405
L17377 25396
L17367 25387
L17358 25368
" />
<path d="M9990 25902
L9793 25902
L9793 25949
L9803 25977
L9821 25996
L9840 26005
L9878 26015
L9906 26015
L9943 26005
L9962 25996
L9981 25977
L9990 25949
L9990 25902
" />
<path d="M9990 26202
L9990 26090
" />
<path d="M9990 26146
L9793 26146
L9821 26127
L9840 26108
L9850 26090
" />
<path d="M9990 26296
L9990 26333
L9981 26352
L9971 26362
L9943 26380
L9906 26390
L9831 26390
L9812 26380
L9803 26371
L9793 26352
L9793 26315
L9803 26296
L9812 26287
L9831 26277
L9878 26277
L9896 26287
L9906 26296
L9915 26315
L9915 26352
L9906 26371
L9896 26380
L9878 26390
" />
<path d="M2510 26886
L2313 26886
L2313 26933
L2322 26961
L2341 26980
L2360 26990
L2397 26999
L2425 26999
L2463 26990
L2482 26980
L2500 26961
L2510 26933
L2510 26886
" />
<path d="M2332 27074
L2322 27083
L2313 27102
L2313 27149
L2322 27168
L2332 27177
L2350 27186
L2369 27186
L2397 27177
L2510 27065
L2510 27186
" />
<path d="M2313 27308
L2313 27327
L2322 27346
L2332 27355
L2350 27365
L2388 27374
L2435 27374
L2472 27365
L2491 27355
L2500 27346
L2510 27327
L2510 27308
L2500 27290
L2491 27280
L2472 27271
L2435 27261
L2388 27261
L2350 27271
L2332 27280
L2322 27290
L2313 27308
" />
<path d="M40010 26886
L39813 26886
L39813 26933
L39822 26961
L39841 26980
L39860 26990
L39897 26999
L39925 26999
L39963 26990
L39982 26980
L40000 26961
L40010 26933
L40010 26886
" />
<path d="M39832 27074
L39822 27083
L39813 27102
L39813 27149
L39822 27168
L39832 27177
L39850 27186
L39869 27186
L39897 27177
L40010 27065
L40010 27186
" />
<path d="M39813 27252
L39813 27383
L40010 27299
" />
<path d="M40010 19406
L39813 19406
L39813 19453
L39822 19481
L39841 19500
L39860 19509
L39897 19519
L39925 19519
L39963 19509
L39982 19500
L40000 19481
L40010 19453
L40010 19406
" />
<path d="M39832 19594
L39822 19603
L39813 19622
L39813 19669
L39822 19687
L39832 19697
L39850 19706
L39869 19706
L39897 19697
L40010 19584
L40010 19706
" />
<path d="M39897 19819
L39888 19800
L39879 19790
L39860 19781
L39850 19781
L39832 19790
L39822 19800
L39813 19819
L39813 19856
L39822 19875
L39832 19884
L39850 19894
L39860 19894
L39879 19884
L39888 19875
L39897 19856
L39897 19819
L39907 19800
L39916 19790
L39935 19781
L39972 19781
L39991 19790
L40000 19800
L40010 19819
L40010 19856
L40000 19875
L39991 19884
L39972 19894
L39935 19894
L39916 19884
L39907 19875
L39897 19856
" />
<path d="M40010 11926
L39813 11926
L39813 11973
L39822 12001
L39841 12020
L39860 12029
L39897 12038
L39925 12038
L39963 12029
L39982 12020
L40000 12001
L40010 11973
L40010 11926
" />
<path d="M39832 12113
L39822 12123
L39813 12141
L39813 12188
L39822 12207
L39832 12216
L39850 12226
L39869 12226
L39897 12216
L40010 12104
L40010 12226
" />
<path d="M40010 12320
L40010 12357
L40000 12376
L39991 12385
L39963 12404
L39925 12413
L39850 12413
L39832 12404
L39822 12395
L39813 12376
L39813 12338
L39822 12320
L39832 12310
L39850 12301
L39897 12301
L39916 12310
L39925 12320
L39935 12338
L39935 12376
L39925 12395
L39916 12404
L39897 12413
" />
<path d="M40010 4446
L39813 4446
L39813 4492
L39822 4520
L39841 4539
L39860 4549
L39897 4558
L39925 4558
L39963 4549
L39982 4539
L40000 4520
L40010 4492
L40010 4446
" />
<path d="M39813 4624
L39813 4745
L39888 4680
L39888 4708
L39897 4727
L39907 4736
L39925 4745
L39972 4745
L39991 4736
L40000 4727
L40010 4708
L40010 4652
L40000 4633
L39991 4624
" />
<path d="M39813 4867
L39813 4886
L39822 4905
L39832 4914
L39850 4924
L39888 4933
L39935 4933
L39972 4924
L39991 4914
L40000 4905
L40010 4886
L40010 4867
L40000 4849
L39991 4839
L39972 4830
L39935 4820
L39888 4820
L39850 4830
L39832 4839
L39822 4849
L39813 4867
" />
<path d="M2238 6733
L2238 6536
" />
<path d="M2238 6630
L2125 6630
" />
<path d="M2125 6733
L2125 6536
" />
<path d="M1929 6733
L2041 6733
" />
<path d="M1985 6733
L1985 6536
L2004 6564
L2022 6583
L2041 6592
" />
<path d="M9738 5796
L9738 5599
" />
<path d="M9738 5692
L9625 5692
" />
<path d="M9625 5796
L9625 5599
" />
<path d="M9541 5617
L9532 5608
L9513 5599
L9466 5599
L9447 5608
L9438 5617
L9429 5636
L9429 5655
L9438 5683
L9550 5796
L9429 5796
" />
<path d="M17238 4858
L17238 4661
" />
<path d="M17238 4755
L17125 4755
" />
<path d="M17125 4858
L17125 4661
" />
<path d="M17050 4661
L16929 4661
L16994 4736
L16966 4736
L16947 4746
L16938 4755
L16929 4774
L16929 4821
L16938 4839
L16947 4849
L16966 4858
L17022 4858
L17041 4849
L17050 4839
" />
<path d="M24738 5796
L24738 5599
" />
<path d="M24738 5692
L24625 5692
" />
<path d="M24625 5796
L24625 5599
" />
<path d="M24447 5664
L24447 5796
" />
<path d="M24494 5589
L24541 5730
L24419 5730
" />
<path d="M32238 6733
L32238 6536
" />
<path d="M32238 6630
L32125 6630
" />
<path d="M32125 6733
L32125 6536
" />
<path d="M31938 6536
L32032 6536
L32041 6630
L32032 6621
L32013 6611
L31966 6611
L31947 6621
L31938 6630
L31929 6649
L31929 6696
L31938 6714
L31947 6724
L31966 6733
L32013 6733
L32032 6724
L32041 6714
" />
<path d="M32238 14233
L32238 14036
" />
<path d="M32238 14130
L32125 14130
" />
<path d="M32125 14233
L32125 14036
" />
<path d="M31947 14036
L31985 14036
L32004 14046
L32013 14055
L32032 14083
L32041 14121
L32041 14196
L32032 14214
L32022 14224
L32004 14233
L31966 14233
L31947 14224
L31938 14214
L31929 14196
L31929 14149
L31938 14130
L31947 14121
L31966 14111
L32004 14111
L32022 14121
L32032 14130
L32041 14149
" />
<path d="M24738 13296
L24738 13099
" />
<path d="M24738 13192
L24625 13192
" />
<path d="M24625 13296
L24625 13099
" />
<path d="M24550 13099
L24419 13099
L24504 13296
" />
<path d="M17238 12358
L17238 12161
" />
<path d="M17238 12255
L17125 12255
" />
<path d="M17125 12358
L17125 12161
" />
<path d="M17004 12246
L17022 12236
L17032 12227
L17041 12208
L17041 12199
L17032 12180
L17022 12171
L17004 12161
L16966 12161
L16947 12171
L16938 12180
L16929 12199
L16929 12208
L16938 12227
L16947 12236
L16966 12246
L17004 12246
L17022 12255
L17032 12264
L17041 12283
L17041 12321
L17032 12339
L17022 12349
L17004 12358
L16966 12358
L16947 12349
L16938 12339
L16929 12321
L16929 12283
L16938 12264
L16947 12255
L16966 12246
" />
<path d="M9738 13296
L9738 13099
" />
<path d="M9738 13192
L9625 13192
" />
<path d="M9625 13296
L9625 13099
" />
<path d="M9522 13296
L9485 13296
L9466 13286
L9457 13277
L9438 13249
L9429 13211
L9429 13136
L9438 13117
L9447 13108
L9466 13099
L9504 13099
L9522 13108
L9532 13117
L9541 13136
L9541 13183
L9532 13202
L9522 13211
L9504 13221
L9466 13221
L9447 13211
L9438 13202
L9429 13183
" />
<path d="M2332 14233
L2332 14036
" />
<path d="M2332 14130
L2219 14130
" />
<path d="M2219 14233
L2219 14036
" />
<path d="M2022 14233
L2135 14233
" />
<path d="M2079 14233
L2079 14036
L2097 14064
L2116 14083
L2135 14092
" />
<path d="M1900 14036
L1882 14036
L1863 14046
L1854 14055
L1844 14074
L1835 14111
L1835 14158
L1844 14196
L1854 14214
L1863 14224
L1882 14233
L1900 14233
L1919 14224
L1929 14214
L1938 14196
L1947 14158
L1947 14111
L1938 14074
L1929 14055
L1919 14046
L1900 14036
" />
<path d="M2332 21733
L2332 21536
" />
<path d="M2332 21630
L2219 21630
" />
<path d="M2219 21733
L2219 21536
" />
<path d="M2022 21733
L2135 21733
" />
<path d="M2079 21733
L2079 21536
L2097 21564
L2116 21583
L2135 21592
" />
<path d="M1835 21733
L1947 21733
" />
<path d="M1891 21733
L1891 21536
L1910 21564
L1929 21583
L1947 21592
" />
<path d="M9832 20796
L9832 20599
" />
<path d="M9832 20692
L9719 20692
" />
<path d="M9719 20796
L9719 20599
" />
<path d="M9522 20796
L9635 20796
" />
<path d="M9579 20796
L9579 20599
L9597 20627
L9616 20646
L9635 20655
" />
<path d="M9447 20617
L9438 20608
L9419 20599
L9372 20599
L9354 20608
L9344 20617
L9335 20636
L9335 20655
L9344 20683
L9457 20796
L9335 20796
" />
<path d="M17332 19858
L17332 19661
" />
<path d="M17332 19755
L17219 19755
" />
<path d="M17219 19858
L17219 19661
" />
<path d="M17022 19858
L17135 19858
" />
<path d="M17079 19858
L17079 19661
L17097 19689
L17116 19708
L17135 19717
" />
<path d="M16957 19661
L16835 19661
L16900 19736
L16872 19736
L16854 19746
L16844 19755
L16835 19774
L16835 19821
L16844 19839
L16854 19849
L16872 19858
L16929 19858
L16947 19849
L16957 19839
" />
<path d="M24832 20796
L24832 20599
" />
<path d="M24832 20692
L24719 20692
" />
<path d="M24719 20796
L24719 20599
" />
<path d="M24522 20796
L24635 20796
" />
<path d="M24579 20796
L24579 20599
L24597 20627
L24616 20646
L24635 20655
" />
<path d="M24354 20664
L24354 20796
" />
<path d="M24400 20589
L24447 20730
L24325 20730
" />
<path d="M32332 21733
L32332 21536
" />
<path d="M32332 21630
L32219 21630
" />
<path d="M32219 21733
L32219 21536
" />
<path d="M32022 21733
L32135 21733
" />
<path d="M32079 21733
L32079 21536
L32097 21564
L32116 21583
L32135 21592
" />
<path d="M31844 21536
L31938 21536
L31947 21630
L31938 21621
L31919 21611
L31872 21611
L31854 21621
L31844 21630
L31835 21649
L31835 21696
L31844 21714
L31854 21724
L31872 21733
L31919 21733
L31938 21724
L31947 21714
" />
<path d="M32332 29233
L32332 29036
" />
<path d="M32332 29130
L32219 29130
" />
<path d="M32219 29233
L32219 29036
" />
<path d="M32022 29233
L32135 29233
" />
<path d="M32079 29233
L32079 29036
L32097 29064
L32116 29083
L32135 29092
" />
<path d="M31854 29036
L31891 29036
L31910 29046
L31919 29055
L31938 29083
L31947 29121
L31947 29196
L31938 29214
L31929 29224
L31910 29233
L31872 29233
L31854 29224
L31844 29214
L31835 29196
L31835 29149
L31844 29130
L31854 29121
L31872 29111
L31910 29111
L31929 29121
L31938 29130
L31947 29149
" />
<path d="M24832 28296
L24832 28099
" />
<path d="M24832 28192
L24719 28192
" />
<path d="M24719 28296
L24719 28099
" />
<path d="M24522 28296
L24635 28296
" />
<path d="M24579 28296
L24579 28099
L24597 28127
L24616 28146
L24635 28155
" />
<path d="M24457 28099
L24325 28099
L24410 28296
" />
<path d="M17332 27358
L17332 27161
" />
<path d="M17332 27255
L17219 27255
" />
<path d="M17219 27358
L17219 27161
" />
<path d="M17022 27358
L17135 27358
" />
<path d="M17079 27358
L17079 27161
L17097 27189
L17116 27208
L17135 27217
" />
<path d="M16910 27246
L16929 27236
L16938 27227
L16947 27208
L16947 27199
L16938 27180
L16929 27171
L16910 27161
L16872 27161
L16854 27171
L16844 27180
L16835 27199
L16835 27208
L16844 27227
L16854 27236
L16872 27246
L16910 27246
L16929 27255
L16938 27264
L16947 27283
L16947 27321
L16938 27339
L16929 27349
L16910 27358
L16872 27358
L16854 27349
L16844 27339
L16835 27321
L16835 27283
L16844 27264
L16854 27255
L16872 27246
" />
<path d="M9832 28296
L9832 28099
" />
<path d="M9832 28192
L9719 28192
" />
<path d="M9719 28296
L9719 28099
" />
<path d="M9522 28296
L9635 28296
" />
<path d="M9579 28296
L9579 28099
L9597 28127
L9616 28146
L9635 28155
" />
<path d="M9429 28296
L9391 28296
L9372 28286
L9363 28277
L9344 28249
L9335 28211
L9335 28136
L9344 28117
L9354 28108
L9372 28099
L9410 28099
L9429 28108
L9438 28117
L9447 28136
L9447 28183
L9438 28202
L9429 28211
L9410 28221
L9372 28221
L9354 28211
L9344 28202
L9335 28183
" />
<path d="M2332 29233
L2332 29036
" />
<path d="M2332 29130
L2219 29130
" />
<path d="M2219 29233
L2219 29036
" />
<path d="M2135 29055
L2125 29046
L2107 29036
L2060 29036
L2041 29046
L2032 29055
L2022 29074
L2022 29092
L2032 29121
L2144 29233
L2022 29233
" />
<path d="M1900 29036
L1882 29036
L1863 29046
L1854 29055
L1844 29074
L1835 29111
L1835 29158
L1844 29196
L1854 29214
L1863 29224
L1882 29233
L1900 29233
L1919 29224
L1929 29214
L1938 29196
L1947 29158
L1947 29111
L1938 29074
L1929 29055
L1919 29046
L1900 29036
" />
<path d="M39832 29233
L39832 29036
" />
<path d="M39832 29130
L39719 29130
" />
<path d="M39719 29233
L39719 29036
" />
<path d="M39635 29055
L39625 29046
L39607 29036
L39560 29036
L39541 29046
L39532 29055
L39522 29074
L39522 29092
L39532 29121
L39644 29233
L39522 29233
" />
<path d="M39457 29036
L39325 29036
L39410 29233
" />
<path d="M39832 21733
L39832 21536
" />
<path d="M39832 21630
L39719 21630
" />
<path d="M39719 21733
L39719 21536
" />
<path d="M39635 21555
L39625 21546
L39607 21536
L39560 21536
L39541 21546
L39532 21555
L39522 21574
L39522 21592
L39532 21621
L39644 21733
L39522 21733
" />
<path d="M39410 21621
L39429 21611
L39438 21602
L39447 21583
L39447 21574
L39438 21555
L39429 21546
L39410 21536
L39372 21536
L39354 21546
L39344 21555
L39335 21574
L39335 21583
L39344 21602
L39354 21611
L39372 21621
L39410 21621
L39429 21630
L39438 21639
L39447 21658
L39447 21696
L39438 21714
L39429 21724
L39410 21733
L39372 21733
L39354 21724
L39344 21714
L39335 21696
L39335 21658
L39344 21639
L39354 21630
L39372 21621
" />
<path d="M39832 14233
L39832 14036
" />
<path d="M39832 14130
L39719 14130
" />
<path d="M39719 14233
L39719 14036
" />
<path d="M39635 14055
L39625 14046
L39607 14036
L39560 14036
L39541 14046
L39532 14055
L39522 14074
L39522 14092
L39532 14121
L39644 14233
L39522 14233
" />
<path d="M39429 14233
L39391 14233
L39372 14224
L39363 14214
L39344 14186
L39335 14149
L39335 14074
L39344 14055
L39354 14046
L39372 14036
L39410 14036
L39429 14046
L39438 14055
L39447 14074
L39447 14121
L39438 14139
L39429 14149
L39410 14158
L39372 14158
L39354 14149
L39344 14139
L39335 14121
" />
<path d="M39832 6733
L39832 6536
" />
<path d="M39832 6630
L39719 6630
" />
<path d="M39719 6733
L39719 6536
" />
<path d="M39644 6536
L39522 6536
L39588 6611
L39560 6611
L39541 6621
L39532 6630
L39522 6649
L39522 6696
L39532 6714
L39541 6724
L39560 6733
L39616 6733
L39635 6724
L39644 6714
" />
<path d="M39400 6536
L39382 6536
L39363 6546
L39354 6555
L39344 6574
L39335 6611
L39335 6658
L39344 6696
L39354 6714
L39363 6724
L39382 6733
L39400 6733
L39419 6724
L39429 6714
L39438 6696
L39447 6658
L39447 6611
L39438 6574
L39429 6555
L39419 6546
L39400 6536
" />
</g>
<g style="fill:#000000; fill-opacity:0.0; 
stroke:#000000; stroke-width:49.2126; stroke-opacity:1; 
stroke-linecap:round; stroke-linejoin:round;">
</g>
<g style="fill:#C2C200; fill-opacity:0.0; 
stroke:#C2C200; stroke-width:49.2126; stroke-opacity:1; 
stroke-linecap:round; stroke-linejoin:round;">
</g>
<g style="fill:#C2C200; fill-opacity:0.0; 
stroke:#C2C200; stroke-width:78.7402; stroke-opacity:1; 
stroke-linecap:round; stroke-linejoin:round;">
<path d="M44626 32047.2 A649.606 649.606 0.0 0 0 45275.6 31397.6 " />
<path d="M39.3705 31397.6 A649.606 649.606 0.0 0 0 688.977 32047.2 " />
<path d="M688.977 39.3705 A649.606 649.606 0.0 0 0 39.3705 688.977 " />
<path d="M45275.6 688.977 A649.606 649.606 0.0 0 0 44626 39.3705 " />
<path d="M44625 39
L688 39
" />
<path d="M39 31397
L39 688
" />
<path d="M688 32047
L44625 32047
" />
<path d="M45275 688
L45275 31397
" />
</g> 
</svg>
