<?xml version="1.0" standalone="no"?>
 <!DOCTYPE svg PUBLIC "-//W3C//DTD SVG 1.1//EN" 
 "http://www.w3.org/Graphics/SVG/1.1/DTD/svg11.dtd"> 
<svg xmlns="http://www.w3.org/2000/svg" version="1.1" 
    width="9.79932cm" height="10.2591cm" viewBox="0 0 38580 40390 ">
<title>SVG Picture created as WoodElf_01-Dwgs.User.svg date 2019/06/03 14:32:57 </title>
  <desc>Picture generated by PCBNEW </desc>
<g style="fill:#000000; fill-opacity:1;stroke:#000000; stroke-opacity:1;
stroke-linecap:round; stroke-linejoin:round; "
 transform="translate(0 0) scale(1 1)">
</g>
<g style="fill:#000000; fill-opacity:0.0; 
stroke:#000000; stroke-width:-0.000393701; stroke-opacity:1; 
stroke-linecap:round; stroke-linejoin:round;">
</g>
<g style="fill:#C2C2C2; fill-opacity:0.0; 
stroke:#C2C2C2; stroke-width:-0.000393701; stroke-opacity:1; 
stroke-linecap:round; stroke-linejoin:round;">
</g>
<g style="fill:#C2C2C2; fill-opacity:0.0; 
stroke:#C2C2C2; stroke-width:78.7402; stroke-opacity:1; 
stroke-linecap:round; stroke-linejoin:round;">
<circle cx="37677.2" cy="39488.2" r="314.961" /> 
<circle cx="944.882" cy="39488.2" r="314.961" /> 
<circle cx="944.882" cy="905.512" r="314.961" /> 
<circle cx="37677.2" cy="905.512" r="314.961" /> 
</g>
<g style="fill:#C2C2C2; fill-opacity:0.0; 
stroke:#C2C2C2; stroke-width:19.685; stroke-opacity:1; 
stroke-linecap:round; stroke-linejoin:round;">
<circle cx="37677.2" cy="39488.2" r="314.96" /> 
</g>
<g style="fill:#C2C2C2; fill-opacity:0.0; 
stroke:#C2C2C2; stroke-width:21.6535; stroke-opacity:1; 
stroke-linecap:round; stroke-linejoin:round;">
<circle cx="37677.2" cy="39488.2" r="618.11" /> 
<circle cx="944.882" cy="39488.2" r="618.11" /> 
</g>
<g style="fill:#C2C2C2; fill-opacity:0.0; 
stroke:#C2C2C2; stroke-width:19.685; stroke-opacity:1; 
stroke-linecap:round; stroke-linejoin:round;">
<circle cx="944.882" cy="39488.2" r="314.96" /> 
<circle cx="944.882" cy="905.512" r="314.96" /> 
</g>
<g style="fill:#C2C2C2; fill-opacity:0.0; 
stroke:#C2C2C2; stroke-width:21.6535; stroke-opacity:1; 
stroke-linecap:round; stroke-linejoin:round;">
<circle cx="944.882" cy="905.512" r="618.11" /> 
<circle cx="37677.2" cy="905.512" r="618.11" /> 
</g>
<g style="fill:#C2C2C2; fill-opacity:0.0; 
stroke:#C2C2C2; stroke-width:19.685; stroke-opacity:1; 
stroke-linecap:round; stroke-linejoin:round;">
<circle cx="37677.2" cy="905.512" r="314.96" /> 
</g>
<g style="fill:#C2C2C2; fill-opacity:0.0; 
stroke:#C2C2C2; stroke-width:59.0551; stroke-opacity:1; 
stroke-linecap:round; stroke-linejoin:round;">
<path d="M604 2447
L8104 2447
" />
<path d="M8104 2447
L8104 9947
" />
<path d="M8104 9947
L604 9947
" />
<path d="M604 9947
L604 2447
" />
<path d="M1604 3447
L7104 3447
" />
<path d="M1604 3447
L1604 8947
" />
<path d="M7104 8947
L1604 8947
" />
<path d="M7104 8947
L7104 3447
" />
</g>
<g style="fill:#C2C2C2; fill-opacity:0.0; 
stroke:#C2C2C2; stroke-width:19.685; stroke-opacity:1; 
stroke-linecap:round; stroke-linejoin:round;">
<path d="M7104 3447
L8104 3447
" />
<path d="M7104 3447
L7104 2447
" />
<path d="M1604 3447
L604 3447
" />
<path d="M1604 3447
L1604 2447
" />
<path d="M1604 8946
L1604 9946
" />
<path d="M1604 8946
L604 8946
" />
<path d="M7104 8947
L7104 9947
" />
<path d="M7104 8947
L8104 8947
" />
<path d="M14584 7072
L15584 7072
" />
<path d="M14584 7072
L14584 8072
" />
<path d="M9084 7071
L8084 7071
" />
<path d="M9084 7071
L9084 8071
" />
<path d="M9084 1572
L9084 572
" />
<path d="M9084 1572
L8084 1572
" />
<path d="M14584 1572
L14584 572
" />
<path d="M14584 1572
L15584 1572
" />
</g>
<g style="fill:#C2C2C2; fill-opacity:0.0; 
stroke:#C2C2C2; stroke-width:59.0551; stroke-opacity:1; 
stroke-linecap:round; stroke-linejoin:round;">
<path d="M14584 7072
L14584 1572
" />
<path d="M14584 7072
L9084 7072
" />
<path d="M9084 1572
L9084 7072
" />
<path d="M9084 1572
L14584 1572
" />
<path d="M8084 8072
L8084 572
" />
<path d="M15584 8072
L8084 8072
" />
<path d="M15584 572
L15584 8072
" />
<path d="M8084 572
L15584 572
" />
</g>
<g style="fill:#C2C2C2; fill-opacity:0.0; 
stroke:#C2C2C2; stroke-width:19.685; stroke-opacity:1; 
stroke-linecap:round; stroke-linejoin:round;">
<path d="M22064 8947
L23064 8947
" />
<path d="M22064 8947
L22064 9947
" />
<path d="M16564 8946
L15564 8946
" />
<path d="M16564 8946
L16564 9946
" />
<path d="M16565 3447
L16565 2447
" />
<path d="M16564 3447
L15564 3447
" />
<path d="M22064 3447
L22064 2447
" />
<path d="M22064 3447
L23064 3447
" />
</g>
<g style="fill:#C2C2C2; fill-opacity:0.0; 
stroke:#C2C2C2; stroke-width:59.0551; stroke-opacity:1; 
stroke-linecap:round; stroke-linejoin:round;">
<path d="M22064 8947
L22064 3447
" />
<path d="M22064 8947
L16564 8947
" />
<path d="M16564 3447
L16564 8947
" />
<path d="M16564 3447
L22064 3447
" />
<path d="M15564 9947
L15564 2447
" />
<path d="M23064 9947
L15564 9947
" />
<path d="M23064 2447
L23064 9947
" />
<path d="M15564 2447
L23064 2447
" />
<path d="M23045 572
L30545 572
" />
<path d="M30545 572
L30545 8072
" />
<path d="M30545 8072
L23045 8072
" />
<path d="M23045 8072
L23045 572
" />
<path d="M24045 1572
L29545 1572
" />
<path d="M24045 1572
L24045 7072
" />
<path d="M29545 7072
L24045 7072
" />
<path d="M29545 7072
L29545 1572
" />
</g>
<g style="fill:#C2C2C2; fill-opacity:0.0; 
stroke:#C2C2C2; stroke-width:19.685; stroke-opacity:1; 
stroke-linecap:round; stroke-linejoin:round;">
<path d="M29545 1572
L30545 1572
" />
<path d="M29545 1572
L29545 572
" />
<path d="M24045 1572
L23045 1572
" />
<path d="M24045 1572
L24045 572
" />
<path d="M24045 7071
L24045 8071
" />
<path d="M24045 7071
L23045 7071
" />
<path d="M29545 7072
L29545 8072
" />
<path d="M29545 7072
L30545 7072
" />
<path d="M37025 7072
L38025 7072
" />
<path d="M37025 7072
L37025 8072
" />
<path d="M31525 7071
L30525 7071
" />
<path d="M31525 7071
L31525 8071
" />
<path d="M31525 1572
L31525 572
" />
<path d="M31525 1572
L30525 1572
" />
<path d="M37025 1572
L37025 572
" />
<path d="M37025 1572
L38025 1572
" />
</g>
<g style="fill:#C2C2C2; fill-opacity:0.0; 
stroke:#C2C2C2; stroke-width:59.0551; stroke-opacity:1; 
stroke-linecap:round; stroke-linejoin:round;">
<path d="M37025 7072
L37025 1572
" />
<path d="M37025 7072
L31525 7072
" />
<path d="M31525 1572
L31525 7072
" />
<path d="M31525 1572
L37025 1572
" />
<path d="M30525 8072
L30525 572
" />
<path d="M38025 8072
L30525 8072
" />
<path d="M38025 572
L38025 8072
" />
<path d="M30525 572
L38025 572
" />
</g>
<g style="fill:#C2C2C2; fill-opacity:0.0; 
stroke:#C2C2C2; stroke-width:19.685; stroke-opacity:1; 
stroke-linecap:round; stroke-linejoin:round;">
<path d="M37025 14553
L38025 14553
" />
<path d="M37025 14553
L37025 15553
" />
<path d="M31525 14551
L30525 14551
" />
<path d="M31525 14551
L31525 15551
" />
<path d="M31525 9053
L31525 8053
" />
<path d="M31525 9053
L30525 9053
" />
<path d="M37025 9053
L37025 8053
" />
<path d="M37025 9053
L38025 9053
" />
</g>
<g style="fill:#C2C2C2; fill-opacity:0.0; 
stroke:#C2C2C2; stroke-width:59.0551; stroke-opacity:1; 
stroke-linecap:round; stroke-linejoin:round;">
<path d="M37025 14553
L37025 9053
" />
<path d="M37025 14553
L31525 14553
" />
<path d="M31525 9053
L31525 14553
" />
<path d="M31525 9053
L37025 9053
" />
<path d="M30525 15553
L30525 8053
" />
<path d="M38025 15553
L30525 15553
" />
<path d="M38025 8053
L38025 15553
" />
<path d="M30525 8053
L38025 8053
" />
</g>
<g style="fill:#C2C2C2; fill-opacity:0.0; 
stroke:#C2C2C2; stroke-width:19.685; stroke-opacity:1; 
stroke-linecap:round; stroke-linejoin:round;">
<path d="M29545 14553
L30545 14553
" />
<path d="M29545 14553
L29545 15553
" />
<path d="M24045 14551
L23045 14551
" />
<path d="M24045 14551
L24045 15551
" />
<path d="M24045 9053
L24045 8053
" />
<path d="M24045 9053
L23045 9053
" />
<path d="M29545 9053
L29545 8053
" />
<path d="M29545 9053
L30545 9053
" />
</g>
<g style="fill:#C2C2C2; fill-opacity:0.0; 
stroke:#C2C2C2; stroke-width:59.0551; stroke-opacity:1; 
stroke-linecap:round; stroke-linejoin:round;">
<path d="M29545 14553
L29545 9053
" />
<path d="M29545 14553
L24045 14553
" />
<path d="M24045 9053
L24045 14553
" />
<path d="M24045 9053
L29545 9053
" />
<path d="M23045 15553
L23045 8053
" />
<path d="M30545 15553
L23045 15553
" />
<path d="M30545 8053
L30545 15553
" />
<path d="M23045 8053
L30545 8053
" />
</g>
<g style="fill:#C2C2C2; fill-opacity:0.0; 
stroke:#C2C2C2; stroke-width:19.685; stroke-opacity:1; 
stroke-linecap:round; stroke-linejoin:round;">
<path d="M22064 16428
L23064 16428
" />
<path d="M22064 16428
L22064 17428
" />
<path d="M16564 16426
L15564 16426
" />
<path d="M16564 16426
L16564 17426
" />
<path d="M16565 10928
L16565 9928
" />
<path d="M16564 10928
L15564 10928
" />
<path d="M22064 10928
L22064 9928
" />
<path d="M22064 10928
L23064 10928
" />
</g>
<g style="fill:#C2C2C2; fill-opacity:0.0; 
stroke:#C2C2C2; stroke-width:59.0551; stroke-opacity:1; 
stroke-linecap:round; stroke-linejoin:round;">
<path d="M22064 16428
L22064 10928
" />
<path d="M22064 16428
L16564 16428
" />
<path d="M16564 10928
L16564 16428
" />
<path d="M16564 10928
L22064 10928
" />
<path d="M15564 17428
L15564 9928
" />
<path d="M23064 17428
L15564 17428
" />
<path d="M23064 9928
L23064 17428
" />
<path d="M15564 9928
L23064 9928
" />
</g>
<g style="fill:#C2C2C2; fill-opacity:0.0; 
stroke:#C2C2C2; stroke-width:19.685; stroke-opacity:1; 
stroke-linecap:round; stroke-linejoin:round;">
<path d="M14584 14553
L15584 14553
" />
<path d="M14584 14553
L14584 15553
" />
<path d="M9084 14551
L8084 14551
" />
<path d="M9084 14551
L9084 15551
" />
<path d="M9084 9053
L9084 8053
" />
<path d="M9084 9053
L8084 9053
" />
<path d="M14584 9053
L14584 8053
" />
<path d="M14584 9053
L15584 9053
" />
</g>
<g style="fill:#C2C2C2; fill-opacity:0.0; 
stroke:#C2C2C2; stroke-width:59.0551; stroke-opacity:1; 
stroke-linecap:round; stroke-linejoin:round;">
<path d="M14584 14553
L14584 9053
" />
<path d="M14584 14553
L9084 14553
" />
<path d="M9084 9053
L9084 14553
" />
<path d="M9084 9053
L14584 9053
" />
<path d="M8084 15553
L8084 8053
" />
<path d="M15584 15553
L8084 15553
" />
<path d="M15584 8053
L15584 15553
" />
<path d="M8084 8053
L15584 8053
" />
</g>
<g style="fill:#C2C2C2; fill-opacity:0.0; 
stroke:#C2C2C2; stroke-width:19.685; stroke-opacity:1; 
stroke-linecap:round; stroke-linejoin:round;">
<path d="M7104 16428
L8104 16428
" />
<path d="M7104 16428
L7104 17428
" />
<path d="M1604 16426
L604 16426
" />
<path d="M1604 16426
L1604 17426
" />
<path d="M1604 10928
L1604 9928
" />
<path d="M1604 10928
L604 10928
" />
<path d="M7104 10928
L7104 9928
" />
<path d="M7104 10928
L8104 10928
" />
</g>
<g style="fill:#C2C2C2; fill-opacity:0.0; 
stroke:#C2C2C2; stroke-width:59.0551; stroke-opacity:1; 
stroke-linecap:round; stroke-linejoin:round;">
<path d="M7104 16428
L7104 10928
" />
<path d="M7104 16428
L1604 16428
" />
<path d="M1604 10928
L1604 16428
" />
<path d="M1604 10928
L7104 10928
" />
<path d="M604 17428
L604 9928
" />
<path d="M8104 17428
L604 17428
" />
<path d="M8104 9928
L8104 17428
" />
<path d="M604 9928
L8104 9928
" />
</g>
<g style="fill:#C2C2C2; fill-opacity:0.0; 
stroke:#C2C2C2; stroke-width:19.685; stroke-opacity:1; 
stroke-linecap:round; stroke-linejoin:round;">
<path d="M7104 23908
L8104 23908
" />
<path d="M7104 23908
L7104 24908
" />
<path d="M1604 23906
L604 23906
" />
<path d="M1604 23906
L1604 24906
" />
<path d="M1604 18408
L1604 17408
" />
<path d="M1604 18408
L604 18408
" />
<path d="M7104 18408
L7104 17408
" />
<path d="M7104 18408
L8104 18408
" />
</g>
<g style="fill:#C2C2C2; fill-opacity:0.0; 
stroke:#C2C2C2; stroke-width:59.0551; stroke-opacity:1; 
stroke-linecap:round; stroke-linejoin:round;">
<path d="M7104 23908
L7104 18408
" />
<path d="M7104 23908
L1604 23908
" />
<path d="M1604 18408
L1604 23908
" />
<path d="M1604 18408
L7104 18408
" />
<path d="M604 24908
L604 17408
" />
<path d="M8104 24908
L604 24908
" />
<path d="M8104 17408
L8104 24908
" />
<path d="M604 17408
L8104 17408
" />
<path d="M8084 15533
L15584 15533
" />
<path d="M15584 15533
L15584 23033
" />
<path d="M15584 23033
L8084 23033
" />
<path d="M8084 23033
L8084 15533
" />
<path d="M9084 16533
L14584 16533
" />
<path d="M9084 16533
L9084 22033
" />
<path d="M14584 22033
L9084 22033
" />
<path d="M14584 22033
L14584 16533
" />
</g>
<g style="fill:#C2C2C2; fill-opacity:0.0; 
stroke:#C2C2C2; stroke-width:19.685; stroke-opacity:1; 
stroke-linecap:round; stroke-linejoin:round;">
<path d="M14584 16533
L15584 16533
" />
<path d="M14584 16533
L14584 15533
" />
<path d="M9084 16533
L8084 16533
" />
<path d="M9084 16533
L9084 15533
" />
<path d="M9084 22031
L9084 23031
" />
<path d="M9084 22031
L8084 22031
" />
<path d="M14584 22033
L14584 23033
" />
<path d="M14584 22033
L15584 22033
" />
</g>
<g style="fill:#C2C2C2; fill-opacity:0.0; 
stroke:#C2C2C2; stroke-width:59.0551; stroke-opacity:1; 
stroke-linecap:round; stroke-linejoin:round;">
<path d="M15564 17408
L23064 17408
" />
<path d="M23064 17408
L23064 24908
" />
<path d="M23064 24908
L15564 24908
" />
<path d="M15564 24908
L15564 17408
" />
<path d="M16564 18408
L22064 18408
" />
<path d="M16564 18408
L16564 23908
" />
<path d="M22064 23908
L16564 23908
" />
<path d="M22064 23908
L22064 18408
" />
</g>
<g style="fill:#C2C2C2; fill-opacity:0.0; 
stroke:#C2C2C2; stroke-width:19.685; stroke-opacity:1; 
stroke-linecap:round; stroke-linejoin:round;">
<path d="M22064 18408
L23064 18408
" />
<path d="M22064 18408
L22064 17408
" />
<path d="M16564 18408
L15564 18408
" />
<path d="M16565 18408
L16565 17408
" />
<path d="M16564 23906
L16564 24906
" />
<path d="M16564 23906
L15564 23906
" />
<path d="M22064 23908
L22064 24908
" />
<path d="M22064 23908
L23064 23908
" />
</g>
<g style="fill:#C2C2C2; fill-opacity:0.0; 
stroke:#C2C2C2; stroke-width:59.0551; stroke-opacity:1; 
stroke-linecap:round; stroke-linejoin:round;">
<path d="M23045 15533
L30545 15533
" />
<path d="M30545 15533
L30545 23033
" />
<path d="M30545 23033
L23045 23033
" />
<path d="M23045 23033
L23045 15533
" />
<path d="M24045 16533
L29545 16533
" />
<path d="M24045 16533
L24045 22033
" />
<path d="M29545 22033
L24045 22033
" />
<path d="M29545 22033
L29545 16533
" />
</g>
<g style="fill:#C2C2C2; fill-opacity:0.0; 
stroke:#C2C2C2; stroke-width:19.685; stroke-opacity:1; 
stroke-linecap:round; stroke-linejoin:round;">
<path d="M29545 16533
L30545 16533
" />
<path d="M29545 16533
L29545 15533
" />
<path d="M24045 16533
L23045 16533
" />
<path d="M24045 16533
L24045 15533
" />
<path d="M24045 22031
L24045 23031
" />
<path d="M24045 22031
L23045 22031
" />
<path d="M29545 22033
L29545 23033
" />
<path d="M29545 22033
L30545 22033
" />
</g>
<g style="fill:#C2C2C2; fill-opacity:0.0; 
stroke:#C2C2C2; stroke-width:59.0551; stroke-opacity:1; 
stroke-linecap:round; stroke-linejoin:round;">
<path d="M30525 15533
L38025 15533
" />
<path d="M38025 15533
L38025 23033
" />
<path d="M38025 23033
L30525 23033
" />
<path d="M30525 23033
L30525 15533
" />
<path d="M31525 16533
L37025 16533
" />
<path d="M31525 16533
L31525 22033
" />
<path d="M37025 22033
L31525 22033
" />
<path d="M37025 22033
L37025 16533
" />
</g>
<g style="fill:#C2C2C2; fill-opacity:0.0; 
stroke:#C2C2C2; stroke-width:19.685; stroke-opacity:1; 
stroke-linecap:round; stroke-linejoin:round;">
<path d="M37025 16533
L38025 16533
" />
<path d="M37025 16533
L37025 15533
" />
<path d="M31525 16533
L30525 16533
" />
<path d="M31525 16533
L31525 15533
" />
<path d="M31525 22031
L31525 23031
" />
<path d="M31525 22031
L30525 22031
" />
<path d="M37025 22033
L37025 23033
" />
<path d="M37025 22033
L38025 22033
" />
</g>
<g style="fill:#C2C2C2; fill-opacity:0.0; 
stroke:#C2C2C2; stroke-width:59.0551; stroke-opacity:1; 
stroke-linecap:round; stroke-linejoin:round;">
<path d="M30525 23013
L38025 23013
" />
<path d="M38025 23013
L38025 30513
" />
<path d="M38025 30513
L30525 30513
" />
<path d="M30525 30513
L30525 23013
" />
<path d="M31525 24013
L37025 24013
" />
<path d="M31525 24013
L31525 29513
" />
<path d="M37025 29513
L31525 29513
" />
<path d="M37025 29513
L37025 24013
" />
</g>
<g style="fill:#C2C2C2; fill-opacity:0.0; 
stroke:#C2C2C2; stroke-width:19.685; stroke-opacity:1; 
stroke-linecap:round; stroke-linejoin:round;">
<path d="M37025 24013
L38025 24013
" />
<path d="M37025 24013
L37025 23013
" />
<path d="M31525 24013
L30525 24013
" />
<path d="M31525 24013
L31525 23013
" />
<path d="M31525 29511
L31525 30511
" />
<path d="M31525 29511
L30525 29511
" />
<path d="M37025 29513
L37025 30513
" />
<path d="M37025 29513
L38025 29513
" />
<path d="M29545 29513
L30545 29513
" />
<path d="M29545 29513
L29545 30513
" />
<path d="M24045 29511
L23045 29511
" />
<path d="M24045 29511
L24045 30511
" />
<path d="M24045 24013
L24045 23013
" />
<path d="M24045 24013
L23045 24013
" />
<path d="M29545 24013
L29545 23013
" />
<path d="M29545 24013
L30545 24013
" />
</g>
<g style="fill:#C2C2C2; fill-opacity:0.0; 
stroke:#C2C2C2; stroke-width:59.0551; stroke-opacity:1; 
stroke-linecap:round; stroke-linejoin:round;">
<path d="M29545 29513
L29545 24013
" />
<path d="M29545 29513
L24045 29513
" />
<path d="M24045 24013
L24045 29513
" />
<path d="M24045 24013
L29545 24013
" />
<path d="M23045 30513
L23045 23013
" />
<path d="M30545 30513
L23045 30513
" />
<path d="M30545 23013
L30545 30513
" />
<path d="M23045 23013
L30545 23013
" />
<path d="M15564 24888
L23064 24888
" />
<path d="M23064 24888
L23064 32388
" />
<path d="M23064 32388
L15564 32388
" />
<path d="M15564 32388
L15564 24888
" />
<path d="M16564 25888
L22064 25888
" />
<path d="M16564 25888
L16564 31388
" />
<path d="M22064 31388
L16564 31388
" />
<path d="M22064 31388
L22064 25888
" />
</g>
<g style="fill:#C2C2C2; fill-opacity:0.0; 
stroke:#C2C2C2; stroke-width:19.685; stroke-opacity:1; 
stroke-linecap:round; stroke-linejoin:round;">
<path d="M22064 25888
L23064 25888
" />
<path d="M22064 25888
L22064 24888
" />
<path d="M16564 25888
L15564 25888
" />
<path d="M16565 25888
L16565 24888
" />
<path d="M16564 31386
L16564 32386
" />
<path d="M16564 31386
L15564 31386
" />
<path d="M22064 31388
L22064 32388
" />
<path d="M22064 31388
L23064 31388
" />
<path d="M14584 29513
L15584 29513
" />
<path d="M14584 29513
L14584 30513
" />
<path d="M9084 29511
L8084 29511
" />
<path d="M9084 29511
L9084 30511
" />
<path d="M9084 24013
L9084 23013
" />
<path d="M9084 24013
L8084 24013
" />
<path d="M14584 24013
L14584 23013
" />
<path d="M14584 24013
L15584 24013
" />
</g>
<g style="fill:#C2C2C2; fill-opacity:0.0; 
stroke:#C2C2C2; stroke-width:59.0551; stroke-opacity:1; 
stroke-linecap:round; stroke-linejoin:round;">
<path d="M14584 29513
L14584 24013
" />
<path d="M14584 29513
L9084 29513
" />
<path d="M9084 24013
L9084 29513
" />
<path d="M9084 24013
L14584 24013
" />
<path d="M8084 30513
L8084 23013
" />
<path d="M15584 30513
L8084 30513
" />
<path d="M15584 23013
L15584 30513
" />
<path d="M8084 23013
L15584 23013
" />
<path d="M604 24888
L8104 24888
" />
<path d="M8104 24888
L8104 32388
" />
<path d="M8104 32388
L604 32388
" />
<path d="M604 32388
L604 24888
" />
<path d="M1604 25888
L7104 25888
" />
<path d="M1604 25888
L1604 31388
" />
<path d="M7104 31388
L1604 31388
" />
<path d="M7104 31388
L7104 25888
" />
</g>
<g style="fill:#C2C2C2; fill-opacity:0.0; 
stroke:#C2C2C2; stroke-width:19.685; stroke-opacity:1; 
stroke-linecap:round; stroke-linejoin:round;">
<path d="M7104 25888
L8104 25888
" />
<path d="M7104 25888
L7104 24888
" />
<path d="M1604 25888
L604 25888
" />
<path d="M1604 25888
L1604 24888
" />
<path d="M1604 31386
L1604 32386
" />
<path d="M1604 31386
L604 31386
" />
<path d="M7104 31388
L7104 32388
" />
<path d="M7104 31388
L8104 31388
" />
</g>
<g style="fill:#C2C2C2; fill-opacity:0.0; 
stroke:#C2C2C2; stroke-width:59.0551; stroke-opacity:1; 
stroke-linecap:round; stroke-linejoin:round;">
<path d="M604 32369
L8104 32369
" />
<path d="M8104 32369
L8104 39869
" />
<path d="M8104 39869
L604 39869
" />
<path d="M604 39869
L604 32369
" />
<path d="M1604 33369
L7104 33369
" />
<path d="M1604 33369
L1604 38869
" />
<path d="M7104 38869
L1604 38869
" />
<path d="M7104 38869
L7104 33369
" />
</g>
<g style="fill:#C2C2C2; fill-opacity:0.0; 
stroke:#C2C2C2; stroke-width:19.685; stroke-opacity:1; 
stroke-linecap:round; stroke-linejoin:round;">
<path d="M7104 33369
L8104 33369
" />
<path d="M7104 33369
L7104 32369
" />
<path d="M1604 33369
L604 33369
" />
<path d="M1604 33369
L1604 32369
" />
<path d="M1604 38867
L1604 39867
" />
<path d="M1604 38867
L604 38867
" />
<path d="M7104 38869
L7104 39869
" />
<path d="M7104 38869
L8104 38869
" />
</g>
<g style="fill:#C2C2C2; fill-opacity:0.0; 
stroke:#C2C2C2; stroke-width:59.0551; stroke-opacity:1; 
stroke-linecap:round; stroke-linejoin:round;">
<path d="M8084 30494
L15584 30494
" />
<path d="M15584 30494
L15584 37994
" />
<path d="M15584 37994
L8084 37994
" />
<path d="M8084 37994
L8084 30494
" />
<path d="M9084 31494
L14584 31494
" />
<path d="M9084 31494
L9084 36994
" />
<path d="M14584 36994
L9084 36994
" />
<path d="M14584 36994
L14584 31494
" />
</g>
<g style="fill:#C2C2C2; fill-opacity:0.0; 
stroke:#C2C2C2; stroke-width:19.685; stroke-opacity:1; 
stroke-linecap:round; stroke-linejoin:round;">
<path d="M14584 31494
L15584 31494
" />
<path d="M14584 31494
L14584 30494
" />
<path d="M9084 31494
L8084 31494
" />
<path d="M9084 31494
L9084 30494
" />
<path d="M9084 36992
L9084 37992
" />
<path d="M9084 36992
L8084 36992
" />
<path d="M14584 36994
L14584 37994
" />
<path d="M14584 36994
L15584 36994
" />
</g>
<g style="fill:#C2C2C2; fill-opacity:0.0; 
stroke:#C2C2C2; stroke-width:59.0551; stroke-opacity:1; 
stroke-linecap:round; stroke-linejoin:round;">
<path d="M15564 32369
L23064 32369
" />
<path d="M23064 32369
L23064 39869
" />
<path d="M23064 39869
L15564 39869
" />
<path d="M15564 39869
L15564 32369
" />
<path d="M16564 33369
L22064 33369
" />
<path d="M16564 33369
L16564 38869
" />
<path d="M22064 38869
L16564 38869
" />
<path d="M22064 38869
L22064 33369
" />
</g>
<g style="fill:#C2C2C2; fill-opacity:0.0; 
stroke:#C2C2C2; stroke-width:19.685; stroke-opacity:1; 
stroke-linecap:round; stroke-linejoin:round;">
<path d="M22064 33369
L23064 33369
" />
<path d="M22064 33369
L22064 32369
" />
<path d="M16564 33369
L15564 33369
" />
<path d="M16565 33369
L16565 32369
" />
<path d="M16564 38867
L16564 39867
" />
<path d="M16564 38867
L15564 38867
" />
<path d="M22064 38869
L22064 39869
" />
<path d="M22064 38869
L23064 38869
" />
</g>
<g style="fill:#C2C2C2; fill-opacity:0.0; 
stroke:#C2C2C2; stroke-width:59.0551; stroke-opacity:1; 
stroke-linecap:round; stroke-linejoin:round;">
<path d="M23045 30494
L30545 30494
" />
<path d="M30545 30494
L30545 37994
" />
<path d="M30545 37994
L23045 37994
" />
<path d="M23045 37994
L23045 30494
" />
<path d="M24045 31494
L29545 31494
" />
<path d="M24045 31494
L24045 36994
" />
<path d="M29545 36994
L24045 36994
" />
<path d="M29545 36994
L29545 31494
" />
</g>
<g style="fill:#C2C2C2; fill-opacity:0.0; 
stroke:#C2C2C2; stroke-width:19.685; stroke-opacity:1; 
stroke-linecap:round; stroke-linejoin:round;">
<path d="M29545 31494
L30545 31494
" />
<path d="M29545 31494
L29545 30494
" />
<path d="M24045 31494
L23045 31494
" />
<path d="M24045 31494
L24045 30494
" />
<path d="M24045 36992
L24045 37992
" />
<path d="M24045 36992
L23045 36992
" />
<path d="M29545 36994
L29545 37994
" />
<path d="M29545 36994
L30545 36994
" />
<path d="M37025 36994
L38025 36994
" />
<path d="M37025 36994
L37025 37994
" />
<path d="M31525 36992
L30525 36992
" />
<path d="M31525 36992
L31525 37992
" />
<path d="M31525 31494
L31525 30494
" />
<path d="M31525 31494
L30525 31494
" />
<path d="M37025 31494
L37025 30494
" />
<path d="M37025 31494
L38025 31494
" />
</g>
<g style="fill:#C2C2C2; fill-opacity:0.0; 
stroke:#C2C2C2; stroke-width:59.0551; stroke-opacity:1; 
stroke-linecap:round; stroke-linejoin:round;">
<path d="M37025 36994
L37025 31494
" />
<path d="M37025 36994
L31525 36994
" />
<path d="M31525 31494
L31525 36994
" />
<path d="M31525 31494
L37025 31494
" />
<path d="M30525 37994
L30525 30494
" />
<path d="M38025 37994
L30525 37994
" />
<path d="M38025 30494
L38025 37994
" />
<path d="M30525 30494
L38025 30494
" />
</g>
<g style="fill:#C2C2C2; fill-opacity:0.0; 
stroke:#C2C2C2; stroke-width:49.2126; stroke-opacity:1; 
stroke-linecap:round; stroke-linejoin:round;">
<path d="M16724 2753
L16762 2884
L16799 2790
L16837 2884
L16874 2753
" />
<path d="M16921 2687
L17034 2687
" />
<path d="M16977 2884
L16977 2687
" />
<path d="M17202 2884
L17090 2884
" />
<path d="M17146 2884
L17146 2687
L17127 2715
L17109 2734
L17090 2743
" />
<path d="M17605 2687
L17718 2687
" />
<path d="M17662 2884
L17662 2687
" />
<path d="M17774 2706
L17784 2696
L17802 2687
L17849 2687
L17868 2696
L17877 2706
L17887 2724
L17887 2743
L17877 2771
L17765 2884
L17887 2884
" />
<path d="M18393 2687
L18505 2687
" />
<path d="M18449 2884
L18449 2687
" />
<path d="M18552 2687
L18674 2687
L18608 2762
L18637 2762
L18655 2771
L18665 2781
L18674 2799
L18674 2846
L18665 2865
L18655 2874
L18637 2884
L18580 2884
L18562 2874
L18552 2865
" />
<path d="M19180 2687
L19293 2687
" />
<path d="M19236 2884
L19236 2687
" />
<path d="M19443 2753
L19443 2884
" />
<path d="M19396 2678
L19349 2818
L19471 2818
" />
<path d="M19968 2687
L20080 2687
" />
<path d="M20024 2884
L20024 2687
" />
<path d="M20239 2687
L20146 2687
L20136 2781
L20146 2771
L20164 2762
L20211 2762
L20230 2771
L20239 2781
L20249 2799
L20249 2846
L20239 2865
L20230 2874
L20211 2884
L20164 2884
L20146 2874
L20136 2865
" />
<path d="M19968 1467
L20080 1467
" />
<path d="M20024 1663
L20024 1467
" />
<path d="M20230 1467
L20193 1467
L20174 1476
L20164 1485
L20146 1513
L20136 1551
L20136 1626
L20146 1645
L20155 1654
L20174 1663
L20211 1663
L20230 1654
L20239 1645
L20249 1626
L20249 1579
L20239 1560
L20230 1551
L20211 1541
L20174 1541
L20155 1551
L20146 1560
L20136 1579
" />
<path d="M19180 1467
L19293 1467
" />
<path d="M19236 1663
L19236 1467
" />
<path d="M19340 1467
L19471 1467
L19386 1663
" />
<path d="M18393 1467
L18505 1467
" />
<path d="M18449 1663
L18449 1467
" />
<path d="M18599 1551
L18580 1541
L18571 1532
L18562 1513
L18562 1504
L18571 1485
L18580 1476
L18599 1467
L18637 1467
L18655 1476
L18665 1485
L18674 1504
L18674 1513
L18665 1532
L18655 1541
L18637 1551
L18599 1551
L18580 1560
L18571 1570
L18562 1588
L18562 1626
L18571 1645
L18580 1654
L18599 1663
L18637 1663
L18655 1654
L18665 1645
L18674 1626
L18674 1588
L18665 1570
L18655 1560
L18637 1551
" />
<path d="M17605 1467
L17718 1467
" />
<path d="M17662 1663
L17662 1467
" />
<path d="M17793 1663
L17830 1663
L17849 1654
L17859 1645
L17877 1616
L17887 1579
L17887 1504
L17877 1485
L17868 1476
L17849 1467
L17812 1467
L17793 1476
L17784 1485
L17774 1504
L17774 1551
L17784 1570
L17793 1579
L17812 1588
L17849 1588
L17868 1579
L17877 1570
L17887 1551
" />
<path d="M16724 1467
L16837 1467
" />
<path d="M16781 1663
L16781 1467
" />
<path d="M17005 1663
L16893 1663
" />
<path d="M16949 1663
L16949 1467
L16931 1495
L16912 1513
L16893 1523
" />
<path d="M17127 1467
L17146 1467
L17165 1476
L17174 1485
L17184 1504
L17193 1541
L17193 1588
L17184 1626
L17174 1645
L17165 1654
L17146 1663
L17127 1663
L17109 1654
L17099 1645
L17090 1626
L17080 1588
L17080 1541
L17090 1504
L17099 1485
L17109 1476
L17127 1467
" />
<path d="M21449 2687
L21561 2687
" />
<path d="M21505 2884
L21505 2687
" />
<path d="M21730 2884
L21617 2884
" />
<path d="M21674 2884
L21674 2687
L21655 2715
L21636 2734
L21617 2743
" />
<path d="M21917 2884
L21805 2884
" />
<path d="M21861 2884
L21861 2687
L21842 2715
L21824 2734
L21805 2743
" />
<path d="M20661 1467
L20774 1467
" />
<path d="M20718 1663
L20718 1467
" />
<path d="M20943 1663
L20830 1663
" />
<path d="M20886 1663
L20886 1467
L20868 1495
L20849 1513
L20830 1523
" />
<path d="M21017 1485
L21027 1476
L21046 1467
L21092 1467
L21111 1476
L21121 1485
L21130 1504
L21130 1523
L21121 1551
L21008 1663
L21130 1663
" />
<path d="M20661 2687
L20774 2687
" />
<path d="M20718 2884
L20718 2687
" />
<path d="M20943 2884
L20830 2884
" />
<path d="M20886 2884
L20886 2687
L20868 2715
L20849 2734
L20830 2743
" />
<path d="M21008 2687
L21130 2687
L21064 2762
L21092 2762
L21111 2771
L21121 2781
L21130 2799
L21130 2846
L21121 2865
L21111 2874
L21092 2884
L21036 2884
L21017 2874
L21008 2865
" />
</g>
<g style="fill:#000000; fill-opacity:0.0; 
stroke:#000000; stroke-width:49.2126; stroke-opacity:1; 
stroke-linecap:round; stroke-linejoin:round;">
</g>
<g style="fill:#C2C200; fill-opacity:0.0; 
stroke:#C2C200; stroke-width:49.2126; stroke-opacity:1; 
stroke-linecap:round; stroke-linejoin:round;">
</g>
<g style="fill:#C2C200; fill-opacity:0.0; 
stroke:#C2C200; stroke-width:78.7402; stroke-opacity:1; 
stroke-linecap:round; stroke-linejoin:round;">
<path d="M36811 39488
L36811 38897
" />
<path d="M36811 38897.6 A866.142 866.142 0.0 0 0 35944.9 38031.5 " />
<path d="M36811 39488.2 A866.142 866.142 0.0 0 0 37677.2 40354.3 " />
<path d="M78 905
L78 39488
" />
<path d="M23543 38897
L23543 39488
" />
<path d="M24409 38031
L35944 38031
" />
<path d="M37677.2 40354.3 A866.142 866.142 0.0 0 0 38543.3 39488.2 " />
<path d="M24409.4 38031.5 A866.142 866.142 0.0 0 0 23543.3 38897.6 " />
<path d="M22677.2 40354.3 A866.142 866.142 0.0 0 0 23543.3 39488.2 " />
<path d="M78.7402 39488.2 A866.142 866.142 0.0 0 0 944.882 40354.3 " />
<path d="M944 40354
L22677 40354
" />
<path d="M38543 905
L38543 39488
" />
<path d="M38543.3 905.512 A866.142 866.142 0.0 0 0 37677.2 39.3705 " />
<path d="M7874 1535
L7874 905
" />
<path d="M8740.16 39.3705 A866.142 866.142 0.0 0 0 7874.02 905.512 " />
<path d="M7007.87 2401.58 A866.142 866.142 0.0 0 0 7874.02 1535.43 " />
<path d="M37677 39
L8740 39
" />
<path d="M2598 39
L944 39
" />
<path d="M944.882 39.3705 A866.142 866.142 0.0 0 0 78.7402 905.512 " />
<path d="M3464.57 905.512 A866.142 866.142 0.0 0 0 2598.43 39.3705 " />
<path d="M3464 1535
L3464 905
" />
<path d="M3464.57 1535.43 A866.142 866.142 0.0 0 0 4330.71 2401.58 " />
<path d="M4330 2401
L7007 2401
" />
</g> 
</svg>
