<?xml version="1.0" standalone="no"?>
 <!DOCTYPE svg PUBLIC "-//W3C//DTD SVG 1.1//EN" 
 "http://www.w3.org/Graphics/SVG/1.1/DTD/svg11.dtd"> 
<svg xmlns="http://www.w3.org/2000/svg" version="1.1" 
    width="9.79932cm" height="10.2591cm" viewBox="0 0 38580 40390 ">
<title>SVG Picture created as WoodElf_01-F.SilkS.svg date 2019/06/03 14:32:57 </title>
  <desc>Picture generated by PCBNEW </desc>
<g style="fill:#000000; fill-opacity:1;stroke:#000000; stroke-opacity:1;
stroke-linecap:round; stroke-linejoin:round; "
 transform="translate(0 0) scale(1 1)">
</g>
<g style="fill:#000000; fill-opacity:0.0; 
stroke:#000000; stroke-width:-0.000393701; stroke-opacity:1; 
stroke-linecap:round; stroke-linejoin:round;">
</g>
<g style="fill:#008484; fill-opacity:0.0; 
stroke:#008484; stroke-width:-0.000393701; stroke-opacity:1; 
stroke-linecap:round; stroke-linejoin:round;">
</g>
<g style="fill:#008484; fill-opacity:0.0; 
stroke:#008484; stroke-width:78.7402; stroke-opacity:1; 
stroke-linecap:round; stroke-linejoin:round;">
<path d="M236 39488
L236 905
" />
<path d="M944.882 196.851 A708.661 708.661 0.0 0 0 236.22 905.512 " />
<path d="M2598 196
L944 196
" />
<path d="M3307.09 905.512 A708.661 708.661 0.0 0 0 2598.43 196.851 " />
<path d="M3307 905
L3307 1535
" />
<path d="M3307.09 1535.43 A1023.62 1023.62 0.0 0 0 4330.71 2559.06 " />
<path d="M7007 2559
L4330 2559
" />
<path d="M8031 1535
L8031 905
" />
<path d="M7007.87 2559.06 A1023.62 1023.62 0.0 0 0 8031.5 1535.43 " />
<path d="M8740.16 196.851 A708.661 708.661 0.0 0 0 8031.5 905.512 " />
<path d="M8740 196
L37677 196
" />
<path d="M38385.8 905.512 A708.661 708.661 0.0 0 0 37677.2 196.851 " />
<path d="M38385 39488
L38385 905
" />
<path d="M36968 39488
L36968 38897
" />
<path d="M944 40196
L22677 40196
" />
<path d="M36968.5 39488.2 A708.661 708.661 0.0 0 0 38385.8 39488.2 " />
<path d="M36968.5 38897.6 A1023.62 1023.62 0.0 0 0 35944.9 37874 " />
<path d="M24409 37874
L35944 37874
" />
<path d="M24409.4 37874 A1023.62 1023.62 0.0 0 0 23385.8 38897.6 " />
<path d="M23385 38897
L23385 39488
" />
<path d="M22677.2 40196.9 A708.661 708.661 0.0 0 0 23385.8 39488.2 " />
<path d="M236.22 39488.2 A708.661 708.661 0.0 0 0 944.882 40196.9 " />
</g>
<g style="fill:#008484; fill-opacity:0.0; 
stroke:#008484; stroke-width:98.4252; stroke-opacity:1; 
stroke-linecap:round; stroke-linejoin:round;">
<path d="M10080 38573
L10174 38967
L10249 38686
L10324 38967
L10418 38573
" />
<path d="M10624 38967
L10587 38948
L10568 38929
L10549 38892
L10549 38779
L10568 38742
L10587 38723
L10624 38705
L10680 38705
L10718 38723
L10737 38742
L10755 38779
L10755 38892
L10737 38929
L10718 38948
L10680 38967
L10624 38967
" />
<path d="M10980 38967
L10943 38948
L10924 38929
L10905 38892
L10905 38779
L10924 38742
L10943 38723
L10980 38705
L11036 38705
L11074 38723
L11093 38742
L11111 38779
L11111 38892
L11093 38929
L11074 38948
L11036 38967
L10980 38967
" />
<path d="M11449 38967
L11449 38573
" />
<path d="M11449 38948
L11411 38967
L11336 38967
L11299 38948
L11280 38929
L11261 38892
L11261 38779
L11280 38742
L11299 38723
L11336 38705
L11411 38705
L11449 38723
" />
<path d="M11636 38761
L11768 38761
" />
<path d="M11824 38967
L11636 38967
L11636 38573
L11824 38573
" />
<path d="M12049 38967
L12011 38948
L11993 38911
L11993 38573
" />
<path d="M12143 38705
L12293 38705
" />
<path d="M12199 38967
L12199 38630
L12218 38592
L12255 38573
L12293 38573
" />
<path d="M12799 38573
L12836 38573
L12874 38592
L12892 38611
L12911 38648
L12930 38723
L12930 38817
L12911 38892
L12892 38929
L12874 38948
L12836 38967
L12799 38967
L12761 38948
L12743 38929
L12724 38892
L12705 38817
L12705 38723
L12724 38648
L12743 38611
L12761 38592
L12799 38573
" />
<path d="M13305 38967
L13080 38967
" />
<path d="M13192 38967
L13192 38573
L13155 38630
L13117 38667
L13080 38686
" />
<path d="M10118 39656
L10118 39262
" />
<path d="M10118 39450
L10343 39450
" />
<path d="M10343 39656
L10343 39262
" />
<path d="M10699 39656
L10699 39450
L10680 39412
L10643 39393
L10568 39393
L10530 39412
" />
<path d="M10699 39637
L10662 39656
L10568 39656
L10530 39637
L10512 39600
L10512 39562
L10530 39525
L10568 39506
L10662 39506
L10699 39487
" />
<path d="M10886 39393
L10886 39656
" />
<path d="M10886 39431
L10905 39412
L10943 39393
L10999 39393
L11036 39412
L11055 39450
L11055 39656
" />
<path d="M11243 39393
L11243 39656
" />
<path d="M11243 39431
L11261 39412
L11299 39393
L11355 39393
L11393 39412
L11411 39450
L11411 39656
" />
<path d="M11768 39656
L11768 39450
L11749 39412
L11711 39393
L11636 39393
L11599 39412
" />
<path d="M11768 39637
L11730 39656
L11636 39656
L11599 39637
L11580 39600
L11580 39562
L11599 39525
L11636 39506
L11730 39506
L11768 39487
" />
<path d="M11955 39656
L11955 39262
" />
<path d="M12124 39656
L12124 39450
L12105 39412
L12068 39393
L12011 39393
L11974 39412
L11955 39431
" />
<path d="M12818 39281
L12780 39262
L12724 39262
L12668 39281
L12630 39318
L12611 39356
L12593 39431
L12593 39487
L12611 39562
L12630 39600
L12668 39637
L12724 39656
L12761 39656
L12818 39637
L12836 39618
L12836 39487
L12761 39487
" />
<path d="M13005 39656
L13005 39393
" />
<path d="M13005 39468
L13024 39431
L13042 39412
L13080 39393
L13117 39393
" />
<path d="M13417 39656
L13417 39450
L13399 39412
L13361 39393
L13286 39393
L13249 39412
" />
<path d="M13417 39637
L13380 39656
L13286 39656
L13249 39637
L13230 39600
L13230 39562
L13249 39525
L13286 39506
L13380 39506
L13417 39487
" />
<path d="M13774 39637
L13736 39656
L13661 39656
L13624 39637
L13605 39618
L13586 39581
L13586 39468
L13605 39431
L13624 39412
L13661 39393
L13736 39393
L13774 39412
" />
<path d="M14092 39637
L14055 39656
L13980 39656
L13942 39637
L13924 39600
L13924 39450
L13942 39412
L13980 39393
L14055 39393
L14092 39412
L14111 39450
L14111 39487
L13924 39525
" />
<path d="M14599 39262
L14561 39337
" />
<path d="M14973 39656
L14749 39656
" />
<path d="M14861 39656
L14861 39262
L14824 39318
L14786 39356
L14749 39375
" />
<path d="M15161 39656
L15236 39656
L15273 39637
L15292 39618
L15330 39562
L15348 39487
L15348 39337
L15330 39300
L15311 39281
L15273 39262
L15198 39262
L15161 39281
L15142 39300
L15123 39337
L15123 39431
L15142 39468
L15161 39487
L15198 39506
L15273 39506
L15311 39487
L15330 39468
L15348 39431
" />
</g>
<g style="fill:#008484; fill-opacity:0.0; 
stroke:#008484; stroke-width:59.0551; stroke-opacity:1; 
stroke-linecap:round; stroke-linejoin:round;">
<path d="M1854 3447
L6854 3447
" />
<path d="M7104 3697
L7104 8697
" />
<path d="M6854 8947
L1854 8947
" />
<path d="M1604 8697
L1604 3697
" />
<path d="M6854.33 3447.84 A763.217 763.217 0.0 0 0 7104.33 3697.84 " />
<path d="M7104.33 8697.83 A763.217 763.217 0.0 0 0 6854.33 8947.84 " />
<path d="M1854.33 8947.84 A763.217 763.217 0.0 0 0 1604.33 8697.83 " />
<path d="M1604.33 3697.84 A763.217 763.217 0.0 0 0 1854.33 3447.84 " />
<path d="M9084.65 1822.84 A763.217 763.217 0.0 0 0 9334.65 1572.84 " />
<path d="M9334.65 7072.84 A763.217 763.217 0.0 0 0 9084.65 6822.83 " />
<path d="M14584.6 6822.83 A763.217 763.217 0.0 0 0 14334.6 7072.84 " />
<path d="M14334.6 1572.84 A763.217 763.217 0.0 0 0 14584.6 1822.84 " />
<path d="M9084 6822
L9084 1822
" />
<path d="M14334 7072
L9334 7072
" />
<path d="M14584 1822
L14584 6822
" />
<path d="M9334 1572
L14334 1572
" />
<path d="M16565 3697.84 A763.217 763.217 0.0 0 0 16815 3447.84 " />
<path d="M16815 8947.84 A763.217 763.217 0.0 0 0 16565 8697.83 " />
<path d="M22065 8697.83 A763.217 763.217 0.0 0 0 21815 8947.84 " />
<path d="M21815 3447.84 A763.217 763.217 0.0 0 0 22065 3697.84 " />
<path d="M16564 8697
L16564 3697
" />
<path d="M21814 8947
L16814 8947
" />
<path d="M22064 3697
L22064 8697
" />
<path d="M16814 3447
L21814 3447
" />
<path d="M24295 1572
L29295 1572
" />
<path d="M29545 1822
L29545 6822
" />
<path d="M29295 7072
L24295 7072
" />
<path d="M24045 6822
L24045 1822
" />
<path d="M29295.3 1572.84 A763.217 763.217 0.0 0 0 29545.3 1822.84 " />
<path d="M29545.3 6822.83 A763.217 763.217 0.0 0 0 29295.3 7072.84 " />
<path d="M24295.3 7072.84 A763.217 763.217 0.0 0 0 24045.3 6822.83 " />
<path d="M24045.3 1822.84 A763.217 763.217 0.0 0 0 24295.3 1572.84 " />
<path d="M31525.6 1822.84 A763.217 763.217 0.0 0 0 31775.6 1572.84 " />
<path d="M31775.6 7072.84 A763.217 763.217 0.0 0 0 31525.6 6822.83 " />
<path d="M37025.6 6822.83 A763.217 763.217 0.0 0 0 36775.6 7072.84 " />
<path d="M36775.6 1572.84 A763.217 763.217 0.0 0 0 37025.6 1822.84 " />
<path d="M31525 6822
L31525 1822
" />
<path d="M36775 7072
L31775 7072
" />
<path d="M37025 1822
L37025 6822
" />
<path d="M31775 1572
L36775 1572
" />
<path d="M31525.6 9303.15 A763.217 763.217 0.0 0 0 31775.6 9053.15 " />
<path d="M31775.6 14553.1 A763.217 763.217 0.0 0 0 31525.6 14303.1 " />
<path d="M37025.6 14303.1 A763.217 763.217 0.0 0 0 36775.6 14553.1 " />
<path d="M36775.6 9053.15 A763.217 763.217 0.0 0 0 37025.6 9303.15 " />
<path d="M31525 14303
L31525 9303
" />
<path d="M36775 14553
L31775 14553
" />
<path d="M37025 9303
L37025 14303
" />
<path d="M31775 9053
L36775 9053
" />
<path d="M24045.3 9303.15 A763.217 763.217 0.0 0 0 24295.3 9053.15 " />
<path d="M24295.3 14553.1 A763.217 763.217 0.0 0 0 24045.3 14303.1 " />
<path d="M29545.3 14303.1 A763.217 763.217 0.0 0 0 29295.3 14553.1 " />
<path d="M29295.3 9053.15 A763.217 763.217 0.0 0 0 29545.3 9303.15 " />
<path d="M24045 14303
L24045 9303
" />
<path d="M29295 14553
L24295 14553
" />
<path d="M29545 9303
L29545 14303
" />
<path d="M24295 9053
L29295 9053
" />
<path d="M16565 11178.2 A763.217 763.217 0.0 0 0 16815 10928.2 " />
<path d="M16815 16428.1 A763.217 763.217 0.0 0 0 16565 16178.1 " />
<path d="M22065 16178.1 A763.217 763.217 0.0 0 0 21815 16428.1 " />
<path d="M21815 10928.2 A763.217 763.217 0.0 0 0 22065 11178.2 " />
<path d="M16564 16178
L16564 11178
" />
<path d="M21814 16428
L16814 16428
" />
<path d="M22064 11178
L22064 16178
" />
<path d="M16814 10928
L21814 10928
" />
<path d="M9084.65 9303.15 A763.217 763.217 0.0 0 0 9334.65 9053.15 " />
<path d="M9334.65 14553.1 A763.217 763.217 0.0 0 0 9084.65 14303.1 " />
<path d="M14584.6 14303.1 A763.217 763.217 0.0 0 0 14334.6 14553.1 " />
<path d="M14334.6 9053.15 A763.217 763.217 0.0 0 0 14584.6 9303.15 " />
<path d="M9084 14303
L9084 9303
" />
<path d="M14334 14553
L9334 14553
" />
<path d="M14584 9303
L14584 14303
" />
<path d="M9334 9053
L14334 9053
" />
<path d="M1604.33 11178.2 A763.217 763.217 0.0 0 0 1854.33 10928.2 " />
<path d="M1854.33 16428.1 A763.217 763.217 0.0 0 0 1604.33 16178.1 " />
<path d="M7104.33 16178.1 A763.217 763.217 0.0 0 0 6854.33 16428.1 " />
<path d="M6854.33 10928.2 A763.217 763.217 0.0 0 0 7104.33 11178.2 " />
<path d="M1604 16178
L1604 11178
" />
<path d="M6854 16428
L1854 16428
" />
<path d="M7104 11178
L7104 16178
" />
<path d="M1854 10928
L6854 10928
" />
<path d="M1604.33 18658.5 A763.217 763.217 0.0 0 0 1854.33 18408.5 " />
<path d="M1854.33 23908.5 A763.217 763.217 0.0 0 0 1604.33 23658.5 " />
<path d="M7104.33 23658.5 A763.217 763.217 0.0 0 0 6854.33 23908.5 " />
<path d="M6854.33 18408.5 A763.217 763.217 0.0 0 0 7104.33 18658.5 " />
<path d="M1604 23658
L1604 18658
" />
<path d="M6854 23908
L1854 23908
" />
<path d="M7104 18658
L7104 23658
" />
<path d="M1854 18408
L6854 18408
" />
<path d="M9334 16533
L14334 16533
" />
<path d="M14584 16783
L14584 21783
" />
<path d="M14334 22033
L9334 22033
" />
<path d="M9084 21783
L9084 16783
" />
<path d="M14334.6 16533.5 A763.217 763.217 0.0 0 0 14584.6 16783.5 " />
<path d="M14584.6 21783.5 A763.217 763.217 0.0 0 0 14334.6 22033.5 " />
<path d="M9334.65 22033.5 A763.217 763.217 0.0 0 0 9084.65 21783.5 " />
<path d="M9084.65 16783.5 A763.217 763.217 0.0 0 0 9334.65 16533.5 " />
<path d="M16814 18408
L21814 18408
" />
<path d="M22064 18658
L22064 23658
" />
<path d="M21814 23908
L16814 23908
" />
<path d="M16564 23658
L16564 18658
" />
<path d="M21815 18408.5 A763.217 763.217 0.0 0 0 22065 18658.5 " />
<path d="M22065 23658.5 A763.217 763.217 0.0 0 0 21815 23908.5 " />
<path d="M16815 23908.5 A763.217 763.217 0.0 0 0 16565 23658.5 " />
<path d="M16565 18658.5 A763.217 763.217 0.0 0 0 16815 18408.5 " />
<path d="M24295 16533
L29295 16533
" />
<path d="M29545 16783
L29545 21783
" />
<path d="M29295 22033
L24295 22033
" />
<path d="M24045 21783
L24045 16783
" />
<path d="M29295.3 16533.5 A763.217 763.217 0.0 0 0 29545.3 16783.5 " />
<path d="M29545.3 21783.5 A763.217 763.217 0.0 0 0 29295.3 22033.5 " />
<path d="M24295.3 22033.5 A763.217 763.217 0.0 0 0 24045.3 21783.5 " />
<path d="M24045.3 16783.5 A763.217 763.217 0.0 0 0 24295.3 16533.5 " />
<path d="M31775 16533
L36775 16533
" />
<path d="M37025 16783
L37025 21783
" />
<path d="M36775 22033
L31775 22033
" />
<path d="M31525 21783
L31525 16783
" />
<path d="M36775.6 16533.5 A763.217 763.217 0.0 0 0 37025.6 16783.5 " />
<path d="M37025.6 21783.5 A763.217 763.217 0.0 0 0 36775.6 22033.5 " />
<path d="M31775.6 22033.5 A763.217 763.217 0.0 0 0 31525.6 21783.5 " />
<path d="M31525.6 16783.5 A763.217 763.217 0.0 0 0 31775.6 16533.5 " />
<path d="M31775 24013
L36775 24013
" />
<path d="M37025 24263
L37025 29263
" />
<path d="M36775 29513
L31775 29513
" />
<path d="M31525 29263
L31525 24263
" />
<path d="M36775.6 24013.8 A763.217 763.217 0.0 0 0 37025.6 24263.8 " />
<path d="M37025.6 29263.8 A763.217 763.217 0.0 0 0 36775.6 29513.8 " />
<path d="M31775.6 29513.8 A763.217 763.217 0.0 0 0 31525.6 29263.8 " />
<path d="M31525.6 24263.8 A763.217 763.217 0.0 0 0 31775.6 24013.8 " />
<path d="M24045.3 24263.8 A763.217 763.217 0.0 0 0 24295.3 24013.8 " />
<path d="M24295.3 29513.8 A763.217 763.217 0.0 0 0 24045.3 29263.8 " />
<path d="M29545.3 29263.8 A763.217 763.217 0.0 0 0 29295.3 29513.8 " />
<path d="M29295.3 24013.8 A763.217 763.217 0.0 0 0 29545.3 24263.8 " />
<path d="M24045 29263
L24045 24263
" />
<path d="M29295 29513
L24295 29513
" />
<path d="M29545 24263
L29545 29263
" />
<path d="M24295 24013
L29295 24013
" />
<path d="M16814 25888
L21814 25888
" />
<path d="M22064 26138
L22064 31138
" />
<path d="M21814 31388
L16814 31388
" />
<path d="M16564 31138
L16564 26138
" />
<path d="M21815 25888.8 A763.217 763.217 0.0 0 0 22065 26138.8 " />
<path d="M22065 31138.8 A763.217 763.217 0.0 0 0 21815 31388.8 " />
<path d="M16815 31388.8 A763.217 763.217 0.0 0 0 16565 31138.8 " />
<path d="M16565 26138.8 A763.217 763.217 0.0 0 0 16815 25888.8 " />
<path d="M9084.65 24263.8 A763.217 763.217 0.0 0 0 9334.65 24013.8 " />
<path d="M9334.65 29513.8 A763.217 763.217 0.0 0 0 9084.65 29263.8 " />
<path d="M14584.6 29263.8 A763.217 763.217 0.0 0 0 14334.6 29513.8 " />
<path d="M14334.6 24013.8 A763.217 763.217 0.0 0 0 14584.6 24263.8 " />
<path d="M9084 29263
L9084 24263
" />
<path d="M14334 29513
L9334 29513
" />
<path d="M14584 24263
L14584 29263
" />
<path d="M9334 24013
L14334 24013
" />
<path d="M1854 25888
L6854 25888
" />
<path d="M7104 26138
L7104 31138
" />
<path d="M6854 31388
L1854 31388
" />
<path d="M1604 31138
L1604 26138
" />
<path d="M6854.33 25888.8 A763.217 763.217 0.0 0 0 7104.33 26138.8 " />
<path d="M7104.33 31138.8 A763.217 763.217 0.0 0 0 6854.33 31388.8 " />
<path d="M1854.33 31388.8 A763.217 763.217 0.0 0 0 1604.33 31138.8 " />
<path d="M1604.33 26138.8 A763.217 763.217 0.0 0 0 1854.33 25888.8 " />
<path d="M1854 33369
L6854 33369
" />
<path d="M7104 33619
L7104 38619
" />
<path d="M6854 38869
L1854 38869
" />
<path d="M1604 38619
L1604 33619
" />
<path d="M6854.33 33369.1 A763.217 763.217 0.0 0 0 7104.33 33619.1 " />
<path d="M7104.33 38619.1 A763.217 763.217 0.0 0 0 6854.33 38869.1 " />
<path d="M1854.33 38869.1 A763.217 763.217 0.0 0 0 1604.33 38619.1 " />
<path d="M1604.33 33619.1 A763.217 763.217 0.0 0 0 1854.33 33369.1 " />
<path d="M9334 31494
L14334 31494
" />
<path d="M14584 31744
L14584 36744
" />
<path d="M14334 36994
L9334 36994
" />
<path d="M9084 36744
L9084 31744
" />
<path d="M14334.6 31494.1 A763.217 763.217 0.0 0 0 14584.6 31744.1 " />
<path d="M14584.6 36744.1 A763.217 763.217 0.0 0 0 14334.6 36994.1 " />
<path d="M9334.65 36994.1 A763.217 763.217 0.0 0 0 9084.65 36744.1 " />
<path d="M9084.65 31744.1 A763.217 763.217 0.0 0 0 9334.65 31494.1 " />
<path d="M16814 33369
L21814 33369
" />
<path d="M22064 33619
L22064 38619
" />
<path d="M21814 38869
L16814 38869
" />
<path d="M16564 38619
L16564 33619
" />
<path d="M21815 33369.1 A763.217 763.217 0.0 0 0 22065 33619.1 " />
<path d="M22065 38619.1 A763.217 763.217 0.0 0 0 21815 38869.1 " />
<path d="M16815 38869.1 A763.217 763.217 0.0 0 0 16565 38619.1 " />
<path d="M16565 33619.1 A763.217 763.217 0.0 0 0 16815 33369.1 " />
<path d="M24295 31494
L29295 31494
" />
<path d="M29545 31744
L29545 36744
" />
<path d="M29295 36994
L24295 36994
" />
<path d="M24045 36744
L24045 31744
" />
<path d="M29295.3 31494.1 A763.217 763.217 0.0 0 0 29545.3 31744.1 " />
<path d="M29545.3 36744.1 A763.217 763.217 0.0 0 0 29295.3 36994.1 " />
<path d="M24295.3 36994.1 A763.217 763.217 0.0 0 0 24045.3 36744.1 " />
<path d="M24045.3 31744.1 A763.217 763.217 0.0 0 0 24295.3 31494.1 " />
<path d="M31525.6 31744.1 A763.217 763.217 0.0 0 0 31775.6 31494.1 " />
<path d="M31775.6 36994.1 A763.217 763.217 0.0 0 0 31525.6 36744.1 " />
<path d="M37025.6 36744.1 A763.217 763.217 0.0 0 0 36775.6 36994.1 " />
<path d="M36775.6 31494.1 A763.217 763.217 0.0 0 0 37025.6 31744.1 " />
<path d="M31525 36744
L31525 31744
" />
<path d="M36775 36994
L31775 36994
" />
<path d="M37025 31744
L37025 36744
" />
<path d="M31775 31494
L36775 31494
" />
</g>
<g style="fill:#008484; fill-opacity:1.0; 
stroke:#008484; stroke-width:3.93701; stroke-opacity:1; 
stroke-linecap:round; stroke-linejoin:round;">
<polyline style="fill-rule:evenodd;"
points="9643,38335
9654,38342
9658,38346
9660,38350
9662,38356
9663,38364
9664,38376
9665,38394
9666,38397
9666,38422
9666,38449
9666,38477
9665,38504
9663,38527
9661,38544
9659,38554
9659,38561
9659,38562
9662,38561
9670,38559
9681,38555
9681,38554
9699,38545
9716,38532
9718,38530
9730,38518
9744,38502
9761,38482
9779,38460
9798,38436
9815,38414
9828,38397
9838,38385
9846,38377
9853,38372
9860,38370
9866,38369
9880,38372
9891,38381
9898,38395
9903,38415
9904,38434
9901,38487
9892,38541
9878,38594
9858,38643
9858,38644
9834,38688
9804,38730
9767,38769
9725,38806
9677,38840
9648,38858
9628,38870
9602,38883
9570,38899
9534,38917
9493,38937
9449,38958
9407,38978
9370,38995
9337,39012
9309,39027
9283,39042
9260,39056
9237,39071
9216,39087
9212,39089
9188,39108
9168,39125
9152,39142
9138,39159
9126,39178
9113,39201
9112,39202
9096,39231
9081,39254
9066,39272
9051,39285
9035,39293
9018,39298
9012,39298
9001,39299
8994,39298
8989,39294
8984,39290
8976,39278
8975,39266
8978,39255
8987,39245
9001,39238
9006,39236
9013,39234
9020,39229
9027,39223
9035,39213
9043,39199
9053,39180
9061,39164
9070,39148
9077,39135
9085,39125
9093,39114
9104,39102
9117,39089
9138,39070
9159,39051
9182,39033
9206,39016
9233,38999
9263,38981
9296,38963
9334,38943
9377,38922
9425,38899
9432,38896
9483,38872
9527,38851
9566,38831
9601,38812
9631,38794
9658,38777
9682,38760
9703,38743
9722,38726
9739,38708
9752,38693
9773,38666
9790,38639
9804,38611
9809,38599
9814,38586
9819,38570
9824,38552
9829,38534
9833,38517
9836,38503
9837,38494
9837,38493
9835,38494
9830,38499
9822,38508
9811,38520
9805,38528
9792,38543
9779,38558
9767,38571
9758,38580
9755,38582
9746,38590
9735,38598
9722,38605
9706,38612
9688,38619
9667,38626
9642,38633
9613,38640
9580,38649
9541,38657
9497,38667
9446,38677
9434,38680
9376,38692
9325,38703
9279,38713
9237,38724
9200,38734
9166,38744
9135,38754
9107,38764
9079,38775
9053,38787
9052,38788
9010,38810
8974,38832
8944,38857
8919,38883
8900,38911
8886,38941
8885,38943
8883,38953
8880,38968
8878,38983
8878,38988
8876,39002
8874,39012
8872,39018
8868,39023
8864,39027
8852,39034
8839,39035
8827,39030
8826,39029
8819,39022
8814,39014
8813,39004
8813,38989
8814,38979
8821,38942
8830,38911
8835,38900
8851,38870
8874,38840
8900,38812
8930,38786
8952,38771
8982,38752
8966,38745
8941,38738
8910,38732
8877,38729
8842,38729
8806,38731
8787,38733
8737,38742
8686,38756
8638,38774
8591,38796
8549,38821
8510,38849
8481,38876
8455,38905
8436,38933
8423,38962
8414,38993
8412,39007
8411,39021
8408,39030
8404,39037
8401,39040
8389,39048
8376,39049
8363,39045
8358,39041
8353,39037
8351,39032
8350,39025
8350,39013
8350,39010
8352,38982
8359,38955
8370,38927
8376,38914
8397,38878
8425,38843
8459,38811
8497,38780
8540,38753
8588,38728
8639,38707
8693,38689
8750,38675
8756,38674
8769,38671
8783,38670
8799,38669
8819,38668
8844,38668
8856,38668
8880,38668
8900,38669
8918,38670
8933,38672
8949,38675
8965,38679
8985,38685
9008,38693
9025,38699
9064,38713
9106,38698
9123,38691
9138,38685
9148,38680
9153,38676
9153,38676
9160,38668
9171,38659
9186,38649
9205,38638
9229,38626
9381,38626
9381,38626
9385,38625
9395,38624
9408,38621
9426,38617
9446,38613
9455,38611
9486,38605
9511,38599
9531,38595
9547,38592
9558,38589
9567,38586
9573,38584
9577,38582
9580,38580
9582,38577
9584,38575
9591,38563
9597,38544
9601,38520
9602,38510
9604,38488
9593,38498
9576,38513
9557,38527
9535,38542
9510,38558
9480,38574
9444,38593
9438,38596
9420,38605
9405,38613
9393,38620
9384,38624
9381,38626
9229,38626
9230,38625
9260,38611
9295,38594
9309,38588
9342,38573
9374,38557
9404,38542
9433,38528
9458,38514
9480,38503
9496,38493
9500,38490
9528,38470
9552,38449
9572,38428
9587,38408
9597,38389
9601,38372
9601,38370
9603,38355
9610,38343
9619,38336
9631,38332
9643,38335
" /> 
<polyline style="fill-rule:evenodd;"
points="8426,39184
8435,39190
8436,39191
8441,39196
8443,39201
8444,39207
8444,39217
8443,39227
8441,39246
8436,39266
8429,39289
8419,39314
8405,39343
8395,39364
8385,39382
8378,39397
8374,39407
8371,39416
8369,39423
8369,39430
8369,39433
8369,39444
8372,39453
8377,39462
8381,39468
8390,39481
8394,39492
8392,39502
8389,39509
8380,39519
8369,39525
8355,39524
8347,39521
8339,39514
8330,39503
8321,39490
8313,39475
8309,39464
8305,39449
8304,39433
8306,39417
8310,39399
8318,39378
8329,39354
8337,39338
8352,39308
8363,39284
8372,39263
8378,39245
8381,39229
8383,39219
8386,39202
8392,39191
8401,39185
8414,39183
8426,39184
" /> 
<polyline style="fill-rule:evenodd;"
points="9012,39546
9022,39554
9029,39565
9031,39574
9028,39585
9022,39595
9013,39603
9004,39606
9004,39606
8998,39607
8989,39611
8976,39617
8959,39626
8937,39638
8911,39653
8880,39672
8876,39674
8831,39701
8791,39724
8755,39744
8724,39762
8695,39776
8669,39788
8645,39798
8623,39806
8602,39813
8583,39818
8564,39821
8543,39822
8522,39822
8505,39820
8496,39818
8471,39807
8451,39791
8434,39770
8422,39744
8415,39715
8413,39688
8413,39676
8414,39667
8417,39662
8420,39658
8432,39650
8444,39648
8455,39651
8463,39655
8469,39660
8472,39669
8474,39681
8475,39691
8479,39714
8486,39732
8495,39746
8505,39754
8522,39759
8543,39759
8568,39756
8597,39748
8629,39737
8644,39731
8661,39723
8682,39712
8707,39699
8733,39685
8761,39669
8788,39654
8814,39638
8817,39636
8855,39613
8888,39594
8915,39578
8939,39566
8959,39556
8975,39549
8988,39545
8998,39543
9001,39543
9012,39546
" /> 
</g>
<g style="fill:#000000; fill-opacity:1.0; 
stroke:#000000; stroke-width:3.93701; stroke-opacity:1; 
stroke-linecap:round; stroke-linejoin:round;">
</g>
<g style="fill:#C2C200; fill-opacity:1.0; 
stroke:#C2C200; stroke-width:3.93701; stroke-opacity:1; 
stroke-linecap:round; stroke-linejoin:round;">
</g>
<g style="fill:#C2C200; fill-opacity:1.0; 
stroke:#C2C200; stroke-width:78.7402; stroke-opacity:1; 
stroke-linecap:round; stroke-linejoin:round;">
</g>
<g style="fill:#C2C200; fill-opacity:0.0; 
stroke:#C2C200; stroke-width:78.7402; stroke-opacity:1; 
stroke-linecap:round; stroke-linejoin:round;">
<path d="M36811 39488
L36811 38897
" />
<path d="M36811 38897.6 A866.142 866.142 0.0 0 0 35944.9 38031.5 " />
<path d="M36811 39488.2 A866.142 866.142 0.0 0 0 37677.2 40354.3 " />
<path d="M78 905
L78 39488
" />
<path d="M23543 38897
L23543 39488
" />
<path d="M24409 38031
L35944 38031
" />
<path d="M37677.2 40354.3 A866.142 866.142 0.0 0 0 38543.3 39488.2 " />
<path d="M24409.4 38031.5 A866.142 866.142 0.0 0 0 23543.3 38897.6 " />
<path d="M22677.2 40354.3 A866.142 866.142 0.0 0 0 23543.3 39488.2 " />
<path d="M78.7402 39488.2 A866.142 866.142 0.0 0 0 944.882 40354.3 " />
<path d="M944 40354
L22677 40354
" />
<path d="M38543 905
L38543 39488
" />
<path d="M38543.3 905.512 A866.142 866.142 0.0 0 0 37677.2 39.3705 " />
<path d="M7874 1535
L7874 905
" />
<path d="M8740.16 39.3705 A866.142 866.142 0.0 0 0 7874.02 905.512 " />
<path d="M7007.87 2401.58 A866.142 866.142 0.0 0 0 7874.02 1535.43 " />
<path d="M37677 39
L8740 39
" />
<path d="M2598 39
L944 39
" />
<path d="M944.882 39.3705 A866.142 866.142 0.0 0 0 78.7402 905.512 " />
<path d="M3464.57 905.512 A866.142 866.142 0.0 0 0 2598.43 39.3705 " />
<path d="M3464 1535
L3464 905
" />
<path d="M3464.57 1535.43 A866.142 866.142 0.0 0 0 4330.71 2401.58 " />
<path d="M4330 2401
L7007 2401
" />
</g> 
</svg>
