<?xml version="1.0" standalone="no"?>
 <!DOCTYPE svg PUBLIC "-//W3C//DTD SVG 1.1//EN" 
 "http://www.w3.org/Graphics/SVG/1.1/DTD/svg11.dtd"> 
<svg xmlns="http://www.w3.org/2000/svg" version="1.1" 
    width="9.79932cm" height="10.2591cm" viewBox="0 0 38580 40390 ">
<title>SVG Picture created as WoodElf_01-B.CrtYd.svg date 2019/06/03 14:32:57 </title>
  <desc>Picture generated by PCBNEW </desc>
<g style="fill:#000000; fill-opacity:1;stroke:#000000; stroke-opacity:1;
stroke-linecap:round; stroke-linejoin:round; "
 transform="translate(0 0) scale(1 1)">
</g>
<g style="fill:#000000; fill-opacity:0.0; 
stroke:#000000; stroke-width:-0.000393701; stroke-opacity:1; 
stroke-linecap:round; stroke-linejoin:round;">
</g>
<g style="fill:#848484; fill-opacity:0.0; 
stroke:#848484; stroke-width:-0.000393701; stroke-opacity:1; 
stroke-linecap:round; stroke-linejoin:round;">
</g>
<g style="fill:#848484; fill-opacity:0.0; 
stroke:#848484; stroke-width:19.685; stroke-opacity:1; 
stroke-linecap:round; stroke-linejoin:round;">
<path d="M14769 7510
L14769 4872
" />
<path d="M13525 7510
L14769 7510
" />
<path d="M13525 4872
L13525 7510
" />
<path d="M14769 4872
L13525 4872
" />
<path d="M7288 6747
L6044 6747
" />
<path d="M6044 6747
L6044 9385
" />
<path d="M6044 9385
L7288 9385
" />
<path d="M7288 9385
L7288 6747
" />
<path d="M22249 6747
L21005 6747
" />
<path d="M21005 6747
L21005 9385
" />
<path d="M21005 9385
L22249 9385
" />
<path d="M22249 9385
L22249 6747
" />
<path d="M29729 7510
L29729 4872
" />
<path d="M28485 7510
L29729 7510
" />
<path d="M28485 4872
L28485 7510
" />
<path d="M29729 4872
L28485 4872
" />
<path d="M37210 4872
L35966 4872
" />
<path d="M35966 4872
L35966 7510
" />
<path d="M35966 7510
L37210 7510
" />
<path d="M37210 7510
L37210 4872
" />
<path d="M37210 14990
L37210 12352
" />
<path d="M35966 14990
L37210 14990
" />
<path d="M35966 12352
L35966 14990
" />
<path d="M37210 12352
L35966 12352
" />
<path d="M29729 12352
L28485 12352
" />
<path d="M28485 12352
L28485 14990
" />
<path d="M28485 14990
L29729 14990
" />
<path d="M29729 14990
L29729 12352
" />
<path d="M22249 16865
L22249 14227
" />
<path d="M21005 16865
L22249 16865
" />
<path d="M21005 14227
L21005 16865
" />
<path d="M22249 14227
L21005 14227
" />
<path d="M14769 12352
L13525 12352
" />
<path d="M13525 12352
L13525 14990
" />
<path d="M13525 14990
L14769 14990
" />
<path d="M14769 14990
L14769 12352
" />
<path d="M7288 16865
L7288 14227
" />
<path d="M6044 16865
L7288 16865
" />
<path d="M6044 14227
L6044 16865
" />
<path d="M7288 14227
L6044 14227
" />
<path d="M7288 21708
L6044 21708
" />
<path d="M6044 21708
L6044 24345
" />
<path d="M6044 24345
L7288 24345
" />
<path d="M7288 24345
L7288 21708
" />
<path d="M14769 22470
L14769 19833
" />
<path d="M13525 22470
L14769 22470
" />
<path d="M13525 19833
L13525 22470
" />
<path d="M14769 19833
L13525 19833
" />
<path d="M22249 21708
L21005 21708
" />
<path d="M21005 21708
L21005 24345
" />
<path d="M21005 24345
L22249 24345
" />
<path d="M22249 24345
L22249 21708
" />
<path d="M29729 22470
L29729 19833
" />
<path d="M28485 22470
L29729 22470
" />
<path d="M28485 19833
L28485 22470
" />
<path d="M29729 19833
L28485 19833
" />
<path d="M37210 19833
L35966 19833
" />
<path d="M35966 19833
L35966 22470
" />
<path d="M35966 22470
L37210 22470
" />
<path d="M37210 22470
L37210 19833
" />
<path d="M37210 29951
L37210 27313
" />
<path d="M35966 29951
L37210 29951
" />
<path d="M35966 27313
L35966 29951
" />
<path d="M37210 27313
L35966 27313
" />
<path d="M29729 27313
L28485 27313
" />
<path d="M28485 27313
L28485 29951
" />
<path d="M28485 29951
L29729 29951
" />
<path d="M29729 29951
L29729 27313
" />
<path d="M22249 31826
L22249 29188
" />
<path d="M21005 31826
L22249 31826
" />
<path d="M21005 29188
L21005 31826
" />
<path d="M22249 29188
L21005 29188
" />
<path d="M14769 27313
L13525 27313
" />
<path d="M13525 27313
L13525 29951
" />
<path d="M13525 29951
L14769 29951
" />
<path d="M14769 29951
L14769 27313
" />
<path d="M7288 31826
L7288 29188
" />
<path d="M6044 31826
L7288 31826
" />
<path d="M6044 29188
L6044 31826
" />
<path d="M7288 29188
L6044 29188
" />
<path d="M7288 36668
L6044 36668
" />
<path d="M6044 36668
L6044 39306
" />
<path d="M6044 39306
L7288 39306
" />
<path d="M7288 39306
L7288 36668
" />
<path d="M14769 37431
L14769 34793
" />
<path d="M13525 37431
L14769 37431
" />
<path d="M13525 34793
L13525 37431
" />
<path d="M14769 34793
L13525 34793
" />
<path d="M22249 36668
L21005 36668
" />
<path d="M21005 36668
L21005 39306
" />
<path d="M21005 39306
L22249 39306
" />
<path d="M22249 39306
L22249 36668
" />
<path d="M29729 37431
L29729 34793
" />
<path d="M28485 37431
L29729 37431
" />
<path d="M28485 34793
L28485 37431
" />
<path d="M29729 34793
L28485 34793
" />
<path d="M37157 34793
L35913 34793
" />
<path d="M35913 34793
L35913 37431
" />
<path d="M35913 37431
L37157 37431
" />
<path d="M37157 37431
L37157 34793
" />
</g>
<g style="fill:#848484; fill-opacity:0.0; 
stroke:#848484; stroke-width:59.0551; stroke-opacity:1; 
stroke-linecap:round; stroke-linejoin:round;">
<path d="M4404.33 4747.84 A1000 1000 0.0 0 0 3404.33 5747.84 " />
<path d="M3204.33 3647.84 A1000 1000 0.0 0 0 2204.33 4647.84 " />
<path d="M4404 4747
L7129 4747
" />
<path d="M979 5747
L3404 5747
" />
<path d="M979 4647
L979 5747
" />
<path d="M2204 4647
L979 4647
" />
<path d="M7129 3647
L3204 3647
" />
<path d="M7129 4747
L7129 3647
" />
<path d="M14609 2872
L14609 1772
" />
<path d="M14609 1772
L10684 1772
" />
<path d="M9684 2772
L8459 2772
" />
<path d="M8459 2772
L8459 3872
" />
<path d="M8459 3872
L10884 3872
" />
<path d="M11884 2872
L14609 2872
" />
<path d="M10684.6 1772.84 A1000 1000 0.0 0 0 9684.65 2772.84 " />
<path d="M11884.6 2872.84 A1000 1000 0.0 0 0 10884.6 3872.84 " />
<path d="M19365 4747.84 A1000 1000 0.0 0 0 18365 5747.84 " />
<path d="M18165 3647.84 A1000 1000 0.0 0 0 17165 4647.84 " />
<path d="M19364 4747
L22089 4747
" />
<path d="M15939 5747
L18364 5747
" />
<path d="M15939 4647
L15939 5747
" />
<path d="M17164 4647
L15939 4647
" />
<path d="M22089 3647
L18164 3647
" />
<path d="M22089 4747
L22089 3647
" />
<path d="M29570 2872
L29570 1772
" />
<path d="M29570 1772
L25645 1772
" />
<path d="M24645 2772
L23420 2772
" />
<path d="M23420 2772
L23420 3872
" />
<path d="M23420 3872
L25845 3872
" />
<path d="M26845 2872
L29570 2872
" />
<path d="M25645.3 1772.84 A1000 1000 0.0 0 0 24645.3 2772.84 " />
<path d="M26845.3 2872.84 A1000 1000 0.0 0 0 25845.3 3872.84 " />
<path d="M37050 2872
L37050 1772
" />
<path d="M37050 1772
L33125 1772
" />
<path d="M32125 2772
L30900 2772
" />
<path d="M30900 2772
L30900 3872
" />
<path d="M30900 3872
L33325 3872
" />
<path d="M34325 2872
L37050 2872
" />
<path d="M33125.6 1772.84 A1000 1000 0.0 0 0 32125.6 2772.84 " />
<path d="M34325.6 2872.84 A1000 1000 0.0 0 0 33325.6 3872.84 " />
<path d="M34325.6 10353.1 A1000 1000 0.0 0 0 33325.6 11353.1 " />
<path d="M33125.6 9253.15 A1000 1000 0.0 0 0 32125.6 10253.1 " />
<path d="M34325 10353
L37050 10353
" />
<path d="M30900 11353
L33325 11353
" />
<path d="M30900 10253
L30900 11353
" />
<path d="M32125 10253
L30900 10253
" />
<path d="M37050 9253
L33125 9253
" />
<path d="M37050 10353
L37050 9253
" />
<path d="M29570 10353
L29570 9253
" />
<path d="M29570 9253
L25645 9253
" />
<path d="M24645 10253
L23420 10253
" />
<path d="M23420 10253
L23420 11353
" />
<path d="M23420 11353
L25845 11353
" />
<path d="M26845 10353
L29570 10353
" />
<path d="M25645.3 9253.15 A1000 1000 0.0 0 0 24645.3 10253.1 " />
<path d="M26845.3 10353.1 A1000 1000 0.0 0 0 25845.3 11353.1 " />
<path d="M22089 12228
L22089 11128
" />
<path d="M22089 11128
L18164 11128
" />
<path d="M17164 12128
L15939 12128
" />
<path d="M15939 12128
L15939 13228
" />
<path d="M15939 13228
L18364 13228
" />
<path d="M19364 12228
L22089 12228
" />
<path d="M18165 11128.1 A1000 1000 0.0 0 0 17165 12128.1 " />
<path d="M19365 12228.1 A1000 1000 0.0 0 0 18365 13228.1 " />
<path d="M14609 10353
L14609 9253
" />
<path d="M14609 9253
L10684 9253
" />
<path d="M9684 10253
L8459 10253
" />
<path d="M8459 10253
L8459 11353
" />
<path d="M8459 11353
L10884 11353
" />
<path d="M11884 10353
L14609 10353
" />
<path d="M10684.6 9253.15 A1000 1000 0.0 0 0 9684.65 10253.1 " />
<path d="M11884.6 10353.1 A1000 1000 0.0 0 0 10884.6 11353.1 " />
<path d="M4404.33 12228.1 A1000 1000 0.0 0 0 3404.33 13228.1 " />
<path d="M3204.33 11128.1 A1000 1000 0.0 0 0 2204.33 12128.1 " />
<path d="M4404 12228
L7129 12228
" />
<path d="M979 13228
L3404 13228
" />
<path d="M979 12128
L979 13228
" />
<path d="M2204 12128
L979 12128
" />
<path d="M7129 11128
L3204 11128
" />
<path d="M7129 12228
L7129 11128
" />
<path d="M7129 19708
L7129 18608
" />
<path d="M7129 18608
L3204 18608
" />
<path d="M2204 19608
L979 19608
" />
<path d="M979 19608
L979 20708
" />
<path d="M979 20708
L3404 20708
" />
<path d="M4404 19708
L7129 19708
" />
<path d="M3204.33 18608.5 A1000 1000 0.0 0 0 2204.33 19608.5 " />
<path d="M4404.33 19708.5 A1000 1000 0.0 0 0 3404.33 20708.5 " />
<path d="M14609 17833
L14609 16733
" />
<path d="M14609 16733
L10684 16733
" />
<path d="M9684 17733
L8459 17733
" />
<path d="M8459 17733
L8459 18833
" />
<path d="M8459 18833
L10884 18833
" />
<path d="M11884 17833
L14609 17833
" />
<path d="M10684.6 16733.5 A1000 1000 0.0 0 0 9684.65 17733.5 " />
<path d="M11884.6 17833.5 A1000 1000 0.0 0 0 10884.6 18833.5 " />
<path d="M22089 19708
L22089 18608
" />
<path d="M22089 18608
L18164 18608
" />
<path d="M17164 19608
L15939 19608
" />
<path d="M15939 19608
L15939 20708
" />
<path d="M15939 20708
L18364 20708
" />
<path d="M19364 19708
L22089 19708
" />
<path d="M18165 18608.5 A1000 1000 0.0 0 0 17165 19608.5 " />
<path d="M19365 19708.5 A1000 1000 0.0 0 0 18365 20708.5 " />
<path d="M29570 17833
L29570 16733
" />
<path d="M29570 16733
L25645 16733
" />
<path d="M24645 17733
L23420 17733
" />
<path d="M23420 17733
L23420 18833
" />
<path d="M23420 18833
L25845 18833
" />
<path d="M26845 17833
L29570 17833
" />
<path d="M25645.3 16733.5 A1000 1000 0.0 0 0 24645.3 17733.5 " />
<path d="M26845.3 17833.5 A1000 1000 0.0 0 0 25845.3 18833.5 " />
<path d="M34325.6 17833.5 A1000 1000 0.0 0 0 33325.6 18833.5 " />
<path d="M33125.6 16733.5 A1000 1000 0.0 0 0 32125.6 17733.5 " />
<path d="M34325 17833
L37050 17833
" />
<path d="M30900 18833
L33325 18833
" />
<path d="M30900 17733
L30900 18833
" />
<path d="M32125 17733
L30900 17733
" />
<path d="M37050 16733
L33125 16733
" />
<path d="M37050 17833
L37050 16733
" />
<path d="M34325.6 25313.8 A1000 1000 0.0 0 0 33325.6 26313.8 " />
<path d="M33125.6 24213.8 A1000 1000 0.0 0 0 32125.6 25213.8 " />
<path d="M34325 25313
L37050 25313
" />
<path d="M30900 26313
L33325 26313
" />
<path d="M30900 25213
L30900 26313
" />
<path d="M32125 25213
L30900 25213
" />
<path d="M37050 24213
L33125 24213
" />
<path d="M37050 25313
L37050 24213
" />
<path d="M26845.3 25313.8 A1000 1000 0.0 0 0 25845.3 26313.8 " />
<path d="M25645.3 24213.8 A1000 1000 0.0 0 0 24645.3 25213.8 " />
<path d="M26845 25313
L29570 25313
" />
<path d="M23420 26313
L25845 26313
" />
<path d="M23420 25213
L23420 26313
" />
<path d="M24645 25213
L23420 25213
" />
<path d="M29570 24213
L25645 24213
" />
<path d="M29570 25313
L29570 24213
" />
<path d="M22089 27188
L22089 26088
" />
<path d="M22089 26088
L18164 26088
" />
<path d="M17164 27088
L15939 27088
" />
<path d="M15939 27088
L15939 28188
" />
<path d="M15939 28188
L18364 28188
" />
<path d="M19364 27188
L22089 27188
" />
<path d="M18165 26088.8 A1000 1000 0.0 0 0 17165 27088.8 " />
<path d="M19365 27188.8 A1000 1000 0.0 0 0 18365 28188.8 " />
<path d="M11884.6 25313.8 A1000 1000 0.0 0 0 10884.6 26313.8 " />
<path d="M10684.6 24213.8 A1000 1000 0.0 0 0 9684.65 25213.8 " />
<path d="M11884 25313
L14609 25313
" />
<path d="M8459 26313
L10884 26313
" />
<path d="M8459 25213
L8459 26313
" />
<path d="M9684 25213
L8459 25213
" />
<path d="M14609 24213
L10684 24213
" />
<path d="M14609 25313
L14609 24213
" />
<path d="M7129 27188
L7129 26088
" />
<path d="M7129 26088
L3204 26088
" />
<path d="M2204 27088
L979 27088
" />
<path d="M979 27088
L979 28188
" />
<path d="M979 28188
L3404 28188
" />
<path d="M4404 27188
L7129 27188
" />
<path d="M3204.33 26088.8 A1000 1000 0.0 0 0 2204.33 27088.8 " />
<path d="M4404.33 27188.8 A1000 1000 0.0 0 0 3404.33 28188.8 " />
<path d="M7129 34669
L7129 33569
" />
<path d="M7129 33569
L3204 33569
" />
<path d="M2204 34569
L979 34569
" />
<path d="M979 34569
L979 35669
" />
<path d="M979 35669
L3404 35669
" />
<path d="M4404 34669
L7129 34669
" />
<path d="M3204.33 33569.1 A1000 1000 0.0 0 0 2204.33 34569.1 " />
<path d="M4404.33 34669.1 A1000 1000 0.0 0 0 3404.33 35669.1 " />
<path d="M11884.6 32794.1 A1000 1000 0.0 0 0 10884.6 33794.1 " />
<path d="M10684.6 31694.1 A1000 1000 0.0 0 0 9684.65 32694.1 " />
<path d="M11884 32794
L14609 32794
" />
<path d="M8459 33794
L10884 33794
" />
<path d="M8459 32694
L8459 33794
" />
<path d="M9684 32694
L8459 32694
" />
<path d="M14609 31694
L10684 31694
" />
<path d="M14609 32794
L14609 31694
" />
<path d="M19365 34669.1 A1000 1000 0.0 0 0 18365 35669.1 " />
<path d="M18165 33569.1 A1000 1000 0.0 0 0 17165 34569.1 " />
<path d="M19364 34669
L22089 34669
" />
<path d="M15939 35669
L18364 35669
" />
<path d="M15939 34569
L15939 35669
" />
<path d="M17164 34569
L15939 34569
" />
<path d="M22089 33569
L18164 33569
" />
<path d="M22089 34669
L22089 33569
" />
<path d="M26845.3 32794.1 A1000 1000 0.0 0 0 25845.3 33794.1 " />
<path d="M25645.3 31694.1 A1000 1000 0.0 0 0 24645.3 32694.1 " />
<path d="M26845 32794
L29570 32794
" />
<path d="M23420 33794
L25845 33794
" />
<path d="M23420 32694
L23420 33794
" />
<path d="M24645 32694
L23420 32694
" />
<path d="M29570 31694
L25645 31694
" />
<path d="M29570 32794
L29570 31694
" />
<path d="M34325.6 32794.1 A1000 1000 0.0 0 0 33325.6 33794.1 " />
<path d="M33125.6 31694.1 A1000 1000 0.0 0 0 32125.6 32694.1 " />
<path d="M34325 32794
L37050 32794
" />
<path d="M30900 33794
L33325 33794
" />
<path d="M30900 32694
L30900 33794
" />
<path d="M32125 32694
L30900 32694
" />
<path d="M37050 31694
L33125 31694
" />
<path d="M37050 32794
L37050 31694
" />
</g>
<g style="fill:#848484; fill-opacity:0.0; 
stroke:#848484; stroke-width:19.685; stroke-opacity:1; 
stroke-linecap:round; stroke-linejoin:round;">
<path d="M5586 8896
L5586 7436
" />
<path d="M5586 7436
L3546 7436
" />
<path d="M3546 7436
L3546 8896
" />
<path d="M3546 8896
L5586 8896
" />
<path d="M11027 7021
L13067 7021
" />
<path d="M11027 5561
L11027 7021
" />
<path d="M13067 5561
L11027 5561
" />
<path d="M13067 7021
L13067 5561
" />
<path d="M20547 8896
L20547 7436
" />
<path d="M20547 7436
L18507 7436
" />
<path d="M18507 7436
L18507 8896
" />
<path d="M18507 8896
L20547 8896
" />
<path d="M28027 7021
L28027 5561
" />
<path d="M28027 5561
L25987 5561
" />
<path d="M25987 5561
L25987 7021
" />
<path d="M25987 7021
L28027 7021
" />
<path d="M33468 7021
L35508 7021
" />
<path d="M33468 5561
L33468 7021
" />
<path d="M35508 5561
L33468 5561
" />
<path d="M35508 7021
L35508 5561
" />
<path d="M33468 14501
L35508 14501
" />
<path d="M33468 13041
L33468 14501
" />
<path d="M35508 13041
L33468 13041
" />
<path d="M35508 14501
L35508 13041
" />
<path d="M28027 14501
L28027 13041
" />
<path d="M28027 13041
L25987 13041
" />
<path d="M25987 13041
L25987 14501
" />
<path d="M25987 14501
L28027 14501
" />
<path d="M18507 16376
L20547 16376
" />
<path d="M18507 14916
L18507 16376
" />
<path d="M20547 14916
L18507 14916
" />
<path d="M20547 16376
L20547 14916
" />
<path d="M13067 14501
L13067 13041
" />
<path d="M13067 13041
L11027 13041
" />
<path d="M11027 13041
L11027 14501
" />
<path d="M11027 14501
L13067 14501
" />
<path d="M3546 16376
L5586 16376
" />
<path d="M3546 14916
L3546 16376
" />
<path d="M5586 14916
L3546 14916
" />
<path d="M5586 16376
L5586 14916
" />
<path d="M5586 23856
L5586 22396
" />
<path d="M5586 22396
L3546 22396
" />
<path d="M3546 22396
L3546 23856
" />
<path d="M3546 23856
L5586 23856
" />
<path d="M13067 21981
L13067 20521
" />
<path d="M13067 20521
L11027 20521
" />
<path d="M11027 20521
L11027 21981
" />
<path d="M11027 21981
L13067 21981
" />
<path d="M20547 23856
L20547 22396
" />
<path d="M20547 22396
L18507 22396
" />
<path d="M18507 22396
L18507 23856
" />
<path d="M18507 23856
L20547 23856
" />
<path d="M25987 21981
L28027 21981
" />
<path d="M25987 20521
L25987 21981
" />
<path d="M28027 20521
L25987 20521
" />
<path d="M28027 21981
L28027 20521
" />
<path d="M35508 21981
L35508 20521
" />
<path d="M35508 20521
L33468 20521
" />
<path d="M33468 20521
L33468 21981
" />
<path d="M33468 21981
L35508 21981
" />
<path d="M35508 29462
L35508 28002
" />
<path d="M35508 28002
L33468 28002
" />
<path d="M33468 28002
L33468 29462
" />
<path d="M33468 29462
L35508 29462
" />
<path d="M25987 29462
L28027 29462
" />
<path d="M25987 28002
L25987 29462
" />
<path d="M28027 28002
L25987 28002
" />
<path d="M28027 29462
L28027 28002
" />
<path d="M18507 31337
L20547 31337
" />
<path d="M18507 29877
L18507 31337
" />
<path d="M20547 29877
L18507 29877
" />
<path d="M20547 31337
L20547 29877
" />
<path d="M11027 29462
L13067 29462
" />
<path d="M11027 28002
L11027 29462
" />
<path d="M13067 28002
L11027 28002
" />
<path d="M13067 29462
L13067 28002
" />
<path d="M5586 31337
L5586 29877
" />
<path d="M5586 29877
L3546 29877
" />
<path d="M3546 29877
L3546 31337
" />
<path d="M3546 31337
L5586 31337
" />
<path d="M3546 38817
L5586 38817
" />
<path d="M3546 37357
L3546 38817
" />
<path d="M5586 37357
L3546 37357
" />
<path d="M5586 38817
L5586 37357
" />
<path d="M11027 36942
L13067 36942
" />
<path d="M11027 35482
L11027 36942
" />
<path d="M13067 35482
L11027 35482
" />
<path d="M13067 36942
L13067 35482
" />
<path d="M20547 38817
L20547 37357
" />
<path d="M20547 37357
L18507 37357
" />
<path d="M18507 37357
L18507 38817
" />
<path d="M18507 38817
L20547 38817
" />
<path d="M28027 36942
L28027 35482
" />
<path d="M28027 35482
L25987 35482
" />
<path d="M25987 35482
L25987 36942
" />
<path d="M25987 36942
L28027 36942
" />
<path d="M33468 36942
L35508 36942
" />
<path d="M33468 35482
L33468 36942
" />
<path d="M35508 35482
L33468 35482
" />
<path d="M35508 36942
L35508 35482
" />
</g>
<g style="fill:#000000; fill-opacity:0.0; 
stroke:#000000; stroke-width:19.685; stroke-opacity:1; 
stroke-linecap:round; stroke-linejoin:round;">
</g>
<g style="fill:#C2C200; fill-opacity:0.0; 
stroke:#C2C200; stroke-width:19.685; stroke-opacity:1; 
stroke-linecap:round; stroke-linejoin:round;">
</g>
<g style="fill:#C2C200; fill-opacity:0.0; 
stroke:#C2C200; stroke-width:78.7402; stroke-opacity:1; 
stroke-linecap:round; stroke-linejoin:round;">
<path d="M36811 39488
L36811 38897
" />
<path d="M36811 38897.6 A866.142 866.142 0.0 0 0 35944.9 38031.5 " />
<path d="M36811 39488.2 A866.142 866.142 0.0 0 0 37677.2 40354.3 " />
<path d="M78 905
L78 39488
" />
<path d="M23543 38897
L23543 39488
" />
<path d="M24409 38031
L35944 38031
" />
<path d="M37677.2 40354.3 A866.142 866.142 0.0 0 0 38543.3 39488.2 " />
<path d="M24409.4 38031.5 A866.142 866.142 0.0 0 0 23543.3 38897.6 " />
<path d="M22677.2 40354.3 A866.142 866.142 0.0 0 0 23543.3 39488.2 " />
<path d="M78.7402 39488.2 A866.142 866.142 0.0 0 0 944.882 40354.3 " />
<path d="M944 40354
L22677 40354
" />
<path d="M38543 905
L38543 39488
" />
<path d="M38543.3 905.512 A866.142 866.142 0.0 0 0 37677.2 39.3705 " />
<path d="M7874 1535
L7874 905
" />
<path d="M8740.16 39.3705 A866.142 866.142 0.0 0 0 7874.02 905.512 " />
<path d="M7007.87 2401.58 A866.142 866.142 0.0 0 0 7874.02 1535.43 " />
<path d="M37677 39
L8740 39
" />
<path d="M2598 39
L944 39
" />
<path d="M944.882 39.3705 A866.142 866.142 0.0 0 0 78.7402 905.512 " />
<path d="M3464.57 905.512 A866.142 866.142 0.0 0 0 2598.43 39.3705 " />
<path d="M3464 1535
L3464 905
" />
<path d="M3464.57 1535.43 A866.142 866.142 0.0 0 0 4330.71 2401.58 " />
<path d="M4330 2401
L7007 2401
" />
</g> 
</svg>
