<?xml version="1.0" standalone="no"?>
 <!DOCTYPE svg PUBLIC "-//W3C//DTD SVG 1.1//EN" 
 "http://www.w3.org/Graphics/SVG/1.1/DTD/svg11.dtd"> 
<svg xmlns="http://www.w3.org/2000/svg" version="1.1" 
    width="11.5087cm" height="8.14832cm" viewBox="0 0 45310 32080 ">
<title>SVG Picture created as WoodElf_01-F.CrtYd.svg date 2019/08/03 12:58:44 </title>
  <desc>Picture generated by PCBNEW </desc>
<g style="fill:#000000; fill-opacity:1;stroke:#000000; stroke-opacity:1;
stroke-linecap:round; stroke-linejoin:round; "
 transform="translate(0 0) scale(1 1)">
</g>
<g style="fill:#000000; fill-opacity:0.0; 
stroke:#000000; stroke-width:-0.000393701; stroke-opacity:1; 
stroke-linecap:round; stroke-linejoin:round;">
</g>
<g style="fill:#C2C2C2; fill-opacity:0.0; 
stroke:#C2C2C2; stroke-width:-0.000393701; stroke-opacity:1; 
stroke-linecap:round; stroke-linejoin:round;">
</g>
<g style="fill:#C2C2C2; fill-opacity:0.0; 
stroke:#C2C2C2; stroke-width:19.685; stroke-opacity:1; 
stroke-linecap:round; stroke-linejoin:round;">
<path d="M6511 3091
L6511 8287
" />
<path d="M1314 3091
L6511 3091
" />
<path d="M1314 8287
L1314 3091
" />
<path d="M6511 8287
L1314 8287
" />
<path d="M14011 7350
L8814 7350
" />
<path d="M8814 7350
L8814 2153
" />
<path d="M8814 2153
L14011 2153
" />
<path d="M14011 2153
L14011 7350
" />
<path d="M21511 1216
L21511 6412
" />
<path d="M16314 1216
L21511 1216
" />
<path d="M16314 6412
L16314 1216
" />
<path d="M21511 6412
L16314 6412
" />
<path d="M29011 7350
L23814 7350
" />
<path d="M23814 7350
L23814 2153
" />
<path d="M23814 2153
L29011 2153
" />
<path d="M29011 2153
L29011 7350
" />
<path d="M36511 3091
L36511 8287
" />
<path d="M31314 3091
L36511 3091
" />
<path d="M31314 8287
L31314 3091
" />
<path d="M36511 8287
L31314 8287
" />
<path d="M36511 15787
L31314 15787
" />
<path d="M31314 15787
L31314 10591
" />
<path d="M31314 10591
L36511 10591
" />
<path d="M36511 10591
L36511 15787
" />
<path d="M29011 14850
L23814 14850
" />
<path d="M23814 14850
L23814 9653
" />
<path d="M23814 9653
L29011 9653
" />
<path d="M29011 9653
L29011 14850
" />
<path d="M21511 13912
L16314 13912
" />
<path d="M16314 13912
L16314 8716
" />
<path d="M16314 8716
L21511 8716
" />
<path d="M21511 8716
L21511 13912
" />
<path d="M14011 9653
L14011 14850
" />
<path d="M8814 9653
L14011 9653
" />
<path d="M8814 14850
L8814 9653
" />
<path d="M14011 14850
L8814 14850
" />
<path d="M6511 10591
L6511 15787
" />
<path d="M1314 10591
L6511 10591
" />
<path d="M1314 15787
L1314 10591
" />
<path d="M6511 15787
L1314 15787
" />
<path d="M6511 18091
L6511 23287
" />
<path d="M1314 18091
L6511 18091
" />
<path d="M1314 23287
L1314 18091
" />
<path d="M6511 23287
L1314 23287
" />
<path d="M14011 22350
L8814 22350
" />
<path d="M8814 22350
L8814 17153
" />
<path d="M8814 17153
L14011 17153
" />
<path d="M14011 17153
L14011 22350
" />
<path d="M21511 21412
L16314 21412
" />
<path d="M16314 21412
L16314 16216
" />
<path d="M16314 16216
L21511 16216
" />
<path d="M21511 16216
L21511 21412
" />
<path d="M29011 17153
L29011 22350
" />
<path d="M23814 17153
L29011 17153
" />
<path d="M23814 22350
L23814 17153
" />
<path d="M29011 22350
L23814 22350
" />
<path d="M36511 18091
L36511 23287
" />
<path d="M31314 18091
L36511 18091
" />
<path d="M31314 23287
L31314 18091
" />
<path d="M36511 23287
L31314 23287
" />
<path d="M36511 25591
L36511 30787
" />
<path d="M31314 25591
L36511 25591
" />
<path d="M31314 30787
L31314 25591
" />
<path d="M36511 30787
L31314 30787
" />
<path d="M29011 29850
L23814 29850
" />
<path d="M23814 29850
L23814 24653
" />
<path d="M23814 24653
L29011 24653
" />
<path d="M29011 24653
L29011 29850
" />
<path d="M21511 28912
L16314 28912
" />
<path d="M16314 28912
L16314 23716
" />
<path d="M16314 23716
L21511 23716
" />
<path d="M21511 23716
L21511 28912
" />
<path d="M14011 24653
L14011 29850
" />
<path d="M8814 24653
L14011 24653
" />
<path d="M8814 29850
L8814 24653
" />
<path d="M14011 29850
L8814 29850
" />
<path d="M6511 30787
L1314 30787
" />
<path d="M1314 30787
L1314 25591
" />
<path d="M1314 25591
L6511 25591
" />
<path d="M6511 25591
L6511 30787
" />
<path d="M44011 30787
L38814 30787
" />
<path d="M38814 30787
L38814 25591
" />
<path d="M38814 25591
L44011 25591
" />
<path d="M44011 25591
L44011 30787
" />
<path d="M44011 18091
L44011 23287
" />
<path d="M38814 18091
L44011 18091
" />
<path d="M38814 23287
L38814 18091
" />
<path d="M44011 23287
L38814 23287
" />
<path d="M44011 10591
L44011 15787
" />
<path d="M38814 10591
L44011 10591
" />
<path d="M38814 15787
L38814 10591
" />
<path d="M44011 15787
L38814 15787
" />
<path d="M44011 8287
L38814 8287
" />
<path d="M38814 8287
L38814 3091
" />
<path d="M38814 3091
L44011 3091
" />
<path d="M44011 3091
L44011 8287
" />
</g>
<g style="fill:#000000; fill-opacity:0.0; 
stroke:#000000; stroke-width:19.685; stroke-opacity:1; 
stroke-linecap:round; stroke-linejoin:round;">
</g>
<g style="fill:#C2C200; fill-opacity:0.0; 
stroke:#C2C200; stroke-width:19.685; stroke-opacity:1; 
stroke-linecap:round; stroke-linejoin:round;">
</g>
<g style="fill:#C2C200; fill-opacity:0.0; 
stroke:#C2C200; stroke-width:78.7402; stroke-opacity:1; 
stroke-linecap:round; stroke-linejoin:round;">
<path d="M44626 32047.2 A649.606 649.606 0.0 0 0 45275.6 31397.6 " />
<path d="M39.3705 31397.6 A649.606 649.606 0.0 0 0 688.977 32047.2 " />
<path d="M688.977 39.3705 A649.606 649.606 0.0 0 0 39.3705 688.977 " />
<path d="M45275.6 688.977 A649.606 649.606 0.0 0 0 44626 39.3705 " />
<path d="M44625 39
L688 39
" />
<path d="M39 31397
L39 688
" />
<path d="M688 32047
L44625 32047
" />
<path d="M45275 688
L45275 31397
" />
</g> 
</svg>
