<?xml version="1.0" standalone="no"?>
 <!DOCTYPE svg PUBLIC "-//W3C//DTD SVG 1.1//EN" 
 "http://www.w3.org/Graphics/SVG/1.1/DTD/svg11.dtd"> 
<svg xmlns="http://www.w3.org/2000/svg" version="1.1" 
    width="9.79932cm" height="10.2591cm" viewBox="0 0 38580 40390 ">
<title>SVG Picture created as WoodElf_01-Cmts.User.svg date 2019/06/03 14:32:57 </title>
  <desc>Picture generated by PCBNEW </desc>
<g style="fill:#000000; fill-opacity:1;stroke:#000000; stroke-opacity:1;
stroke-linecap:round; stroke-linejoin:round; "
 transform="translate(0 0) scale(1 1)">
</g>
<g style="fill:#000000; fill-opacity:0.0; 
stroke:#000000; stroke-width:-0.000393701; stroke-opacity:1; 
stroke-linecap:round; stroke-linejoin:round;">
</g>
<g style="fill:#C2C200; fill-opacity:0.0; 
stroke:#C2C200; stroke-width:-0.000393701; stroke-opacity:1; 
stroke-linecap:round; stroke-linejoin:round;">
</g>
<g style="fill:#C2C200; fill-opacity:0.0; 
stroke:#C2C200; stroke-width:78.7402; stroke-opacity:1; 
stroke-linecap:round; stroke-linejoin:round;">
<path d="M36811 39488
L36811 38897
" />
<path d="M36811 38897.6 A866.142 866.142 0.0 0 0 35944.9 38031.5 " />
<path d="M36811 39488.2 A866.142 866.142 0.0 0 0 37677.2 40354.3 " />
<path d="M78 905
L78 39488
" />
<path d="M23543 38897
L23543 39488
" />
<path d="M24409 38031
L35944 38031
" />
<path d="M37677.2 40354.3 A866.142 866.142 0.0 0 0 38543.3 39488.2 " />
<path d="M24409.4 38031.5 A866.142 866.142 0.0 0 0 23543.3 38897.6 " />
<path d="M22677.2 40354.3 A866.142 866.142 0.0 0 0 23543.3 39488.2 " />
<path d="M78.7402 39488.2 A866.142 866.142 0.0 0 0 944.882 40354.3 " />
<path d="M944 40354
L22677 40354
" />
<path d="M38543 905
L38543 39488
" />
<path d="M38543.3 905.512 A866.142 866.142 0.0 0 0 37677.2 39.3705 " />
<path d="M7874 1535
L7874 905
" />
<path d="M8740.16 39.3705 A866.142 866.142 0.0 0 0 7874.02 905.512 " />
<path d="M7007.87 2401.58 A866.142 866.142 0.0 0 0 7874.02 1535.43 " />
<path d="M37677 39
L8740 39
" />
<path d="M2598 39
L944 39
" />
<path d="M944.882 39.3705 A866.142 866.142 0.0 0 0 78.7402 905.512 " />
<path d="M3464.57 905.512 A866.142 866.142 0.0 0 0 2598.43 39.3705 " />
<path d="M3464 1535
L3464 905
" />
<path d="M3464.57 1535.43 A866.142 866.142 0.0 0 0 4330.71 2401.58 " />
<path d="M4330 2401
L7007 2401
" />
</g> 
</svg>
