<?xml version="1.0" standalone="no"?>
 <!DOCTYPE svg PUBLIC "-//W3C//DTD SVG 1.1//EN" 
 "http://www.w3.org/Graphics/SVG/1.1/DTD/svg11.dtd"> 
<svg xmlns="http://www.w3.org/2000/svg" version="1.1" 
    width="9.79932cm" height="10.2591cm" viewBox="0 0 38580 40390 ">
<title>SVG Picture created as WoodElf_01-F.CrtYd.svg date 2019/06/03 14:32:57 </title>
  <desc>Picture generated by PCBNEW </desc>
<g style="fill:#000000; fill-opacity:1;stroke:#000000; stroke-opacity:1;
stroke-linecap:round; stroke-linejoin:round; "
 transform="translate(0 0) scale(1 1)">
</g>
<g style="fill:#000000; fill-opacity:0.0; 
stroke:#000000; stroke-width:-0.000393701; stroke-opacity:1; 
stroke-linecap:round; stroke-linejoin:round;">
</g>
<g style="fill:#C2C2C2; fill-opacity:0.0; 
stroke:#C2C2C2; stroke-width:-0.000393701; stroke-opacity:1; 
stroke-linecap:round; stroke-linejoin:round;">
</g>
<g style="fill:#C2C2C2; fill-opacity:0.0; 
stroke:#C2C2C2; stroke-width:19.685; stroke-opacity:1; 
stroke-linecap:round; stroke-linejoin:round;">
<path d="M1755 8796
L1755 3599
" />
<path d="M6952 8796
L1755 8796
" />
<path d="M6952 3599
L6952 8796
" />
<path d="M1755 3599
L6952 3599
" />
<path d="M9236 1724
L14433 1724
" />
<path d="M14433 1724
L14433 6921
" />
<path d="M14433 6921
L9236 6921
" />
<path d="M9236 6921
L9236 1724
" />
<path d="M16716 3599
L21913 3599
" />
<path d="M21913 3599
L21913 8796
" />
<path d="M21913 8796
L16716 8796
" />
<path d="M16716 8796
L16716 3599
" />
<path d="M24196 6921
L24196 1724
" />
<path d="M29393 6921
L24196 6921
" />
<path d="M29393 1724
L29393 6921
" />
<path d="M24196 1724
L29393 1724
" />
<path d="M31677 1724
L36874 1724
" />
<path d="M36874 1724
L36874 6921
" />
<path d="M36874 6921
L31677 6921
" />
<path d="M31677 6921
L31677 1724
" />
<path d="M31677 9204
L36874 9204
" />
<path d="M36874 9204
L36874 14401
" />
<path d="M36874 14401
L31677 14401
" />
<path d="M31677 14401
L31677 9204
" />
<path d="M24196 9204
L29393 9204
" />
<path d="M29393 9204
L29393 14401
" />
<path d="M29393 14401
L24196 14401
" />
<path d="M24196 14401
L24196 9204
" />
<path d="M16716 11079
L21913 11079
" />
<path d="M21913 11079
L21913 16276
" />
<path d="M21913 16276
L16716 16276
" />
<path d="M16716 16276
L16716 11079
" />
<path d="M9236 9204
L14433 9204
" />
<path d="M14433 9204
L14433 14401
" />
<path d="M14433 14401
L9236 14401
" />
<path d="M9236 14401
L9236 9204
" />
<path d="M1755 11079
L6952 11079
" />
<path d="M6952 11079
L6952 16276
" />
<path d="M6952 16276
L1755 16276
" />
<path d="M1755 16276
L1755 11079
" />
<path d="M1755 18560
L6952 18560
" />
<path d="M6952 18560
L6952 23756
" />
<path d="M6952 23756
L1755 23756
" />
<path d="M1755 23756
L1755 18560
" />
<path d="M9236 21881
L9236 16685
" />
<path d="M14433 21881
L9236 21881
" />
<path d="M14433 16685
L14433 21881
" />
<path d="M9236 16685
L14433 16685
" />
<path d="M16716 23756
L16716 18560
" />
<path d="M21913 23756
L16716 23756
" />
<path d="M21913 18560
L21913 23756
" />
<path d="M16716 18560
L21913 18560
" />
<path d="M24196 21881
L24196 16685
" />
<path d="M29393 21881
L24196 21881
" />
<path d="M29393 16685
L29393 21881
" />
<path d="M24196 16685
L29393 16685
" />
<path d="M31677 21881
L31677 16685
" />
<path d="M36874 21881
L31677 21881
" />
<path d="M36874 16685
L36874 21881
" />
<path d="M31677 16685
L36874 16685
" />
<path d="M31677 29362
L31677 24165
" />
<path d="M36874 29362
L31677 29362
" />
<path d="M36874 24165
L36874 29362
" />
<path d="M31677 24165
L36874 24165
" />
<path d="M24196 24165
L29393 24165
" />
<path d="M29393 24165
L29393 29362
" />
<path d="M29393 29362
L24196 29362
" />
<path d="M24196 29362
L24196 24165
" />
<path d="M16716 31237
L16716 26040
" />
<path d="M21913 31237
L16716 31237
" />
<path d="M21913 26040
L21913 31237
" />
<path d="M16716 26040
L21913 26040
" />
<path d="M9236 24165
L14433 24165
" />
<path d="M14433 24165
L14433 29362
" />
<path d="M14433 29362
L9236 29362
" />
<path d="M9236 29362
L9236 24165
" />
<path d="M1755 31237
L1755 26040
" />
<path d="M6952 31237
L1755 31237
" />
<path d="M6952 26040
L6952 31237
" />
<path d="M1755 26040
L6952 26040
" />
<path d="M1755 38717
L1755 33520
" />
<path d="M6952 38717
L1755 38717
" />
<path d="M6952 33520
L6952 38717
" />
<path d="M1755 33520
L6952 33520
" />
<path d="M9236 36842
L9236 31645
" />
<path d="M14433 36842
L9236 36842
" />
<path d="M14433 31645
L14433 36842
" />
<path d="M9236 31645
L14433 31645
" />
<path d="M16716 38717
L16716 33520
" />
<path d="M21913 38717
L16716 38717
" />
<path d="M21913 33520
L21913 38717
" />
<path d="M16716 33520
L21913 33520
" />
<path d="M24196 36842
L24196 31645
" />
<path d="M29393 36842
L24196 36842
" />
<path d="M29393 31645
L29393 36842
" />
<path d="M24196 31645
L29393 31645
" />
<path d="M31677 31645
L36874 31645
" />
<path d="M36874 31645
L36874 36842
" />
<path d="M36874 36842
L31677 36842
" />
<path d="M31677 36842
L31677 31645
" />
</g>
<g style="fill:#000000; fill-opacity:0.0; 
stroke:#000000; stroke-width:19.685; stroke-opacity:1; 
stroke-linecap:round; stroke-linejoin:round;">
</g>
<g style="fill:#C2C200; fill-opacity:0.0; 
stroke:#C2C200; stroke-width:19.685; stroke-opacity:1; 
stroke-linecap:round; stroke-linejoin:round;">
</g>
<g style="fill:#C2C200; fill-opacity:0.0; 
stroke:#C2C200; stroke-width:78.7402; stroke-opacity:1; 
stroke-linecap:round; stroke-linejoin:round;">
<path d="M36811 39488
L36811 38897
" />
<path d="M36811 38897.6 A866.142 866.142 0.0 0 0 35944.9 38031.5 " />
<path d="M36811 39488.2 A866.142 866.142 0.0 0 0 37677.2 40354.3 " />
<path d="M78 905
L78 39488
" />
<path d="M23543 38897
L23543 39488
" />
<path d="M24409 38031
L35944 38031
" />
<path d="M37677.2 40354.3 A866.142 866.142 0.0 0 0 38543.3 39488.2 " />
<path d="M24409.4 38031.5 A866.142 866.142 0.0 0 0 23543.3 38897.6 " />
<path d="M22677.2 40354.3 A866.142 866.142 0.0 0 0 23543.3 39488.2 " />
<path d="M78.7402 39488.2 A866.142 866.142 0.0 0 0 944.882 40354.3 " />
<path d="M944 40354
L22677 40354
" />
<path d="M38543 905
L38543 39488
" />
<path d="M38543.3 905.512 A866.142 866.142 0.0 0 0 37677.2 39.3705 " />
<path d="M7874 1535
L7874 905
" />
<path d="M8740.16 39.3705 A866.142 866.142 0.0 0 0 7874.02 905.512 " />
<path d="M7007.87 2401.58 A866.142 866.142 0.0 0 0 7874.02 1535.43 " />
<path d="M37677 39
L8740 39
" />
<path d="M2598 39
L944 39
" />
<path d="M944.882 39.3705 A866.142 866.142 0.0 0 0 78.7402 905.512 " />
<path d="M3464.57 905.512 A866.142 866.142 0.0 0 0 2598.43 39.3705 " />
<path d="M3464 1535
L3464 905
" />
<path d="M3464.57 1535.43 A866.142 866.142 0.0 0 0 4330.71 2401.58 " />
<path d="M4330 2401
L7007 2401
" />
</g> 
</svg>
