<?xml version="1.0" standalone="no"?>
 <!DOCTYPE svg PUBLIC "-//W3C//DTD SVG 1.1//EN" 
 "http://www.w3.org/Graphics/SVG/1.1/DTD/svg11.dtd"> 
<svg xmlns="http://www.w3.org/2000/svg" version="1.1" 
    width="11.5087cm" height="8.14832cm" viewBox="0 0 45310 32080 ">
<title>SVG Picture created as WoodElf_01-F.SilkS.svg date 2019/08/03 12:58:44 </title>
  <desc>Picture generated by PCBNEW </desc>
<g style="fill:#000000; fill-opacity:1;stroke:#000000; stroke-opacity:1;
stroke-linecap:round; stroke-linejoin:round; "
 transform="translate(0 0) scale(1 1)">
</g>
<g style="fill:#000000; fill-opacity:0.0; 
stroke:#000000; stroke-width:-0.000393701; stroke-opacity:1; 
stroke-linecap:round; stroke-linejoin:round;">
</g>
<g style="fill:#008484; fill-opacity:0.0; 
stroke:#008484; stroke-width:-0.000393701; stroke-opacity:1; 
stroke-linecap:round; stroke-linejoin:round;">
</g>
<g style="fill:#008484; fill-opacity:0.0; 
stroke:#008484; stroke-width:98.4252; stroke-opacity:1; 
stroke-linecap:round; stroke-linejoin:round;">
<path d="M32383 542
L32477 935
L32552 654
L32627 935
L32721 542
" />
<path d="M32927 935
L32890 917
L32871 898
L32852 860
L32852 748
L32871 711
L32890 692
L32927 673
L32983 673
L33021 692
L33040 711
L33058 748
L33058 860
L33040 898
L33021 917
L32983 935
L32927 935
" />
<path d="M33283 935
L33246 917
L33227 898
L33208 860
L33208 748
L33227 711
L33246 692
L33283 673
L33340 673
L33377 692
L33396 711
L33415 748
L33415 860
L33396 898
L33377 917
L33340 935
L33283 935
" />
<path d="M33752 935
L33752 542
" />
<path d="M33752 917
L33715 935
L33640 935
L33602 917
L33583 898
L33565 860
L33565 748
L33583 711
L33602 692
L33640 673
L33715 673
L33752 692
" />
<path d="M33940 729
L34071 729
" />
<path d="M34127 935
L33940 935
L33940 542
L34127 542
" />
<path d="M34352 935
L34315 917
L34296 879
L34296 542
" />
<path d="M34446 673
L34596 673
" />
<path d="M34502 935
L34502 598
L34521 561
L34558 542
L34596 542
" />
<path d="M35102 542
L35139 542
L35177 561
L35196 579
L35214 617
L35233 692
L35233 785
L35214 860
L35196 898
L35177 917
L35139 935
L35102 935
L35064 917
L35046 898
L35027 860
L35008 785
L35008 692
L35027 617
L35046 579
L35064 561
L35102 542
" />
<path d="M35608 935
L35383 935
" />
<path d="M35496 935
L35496 542
L35458 598
L35421 636
L35383 654
" />
<path d="M32421 1624
L32421 1231
" />
<path d="M32421 1418
L32646 1418
" />
<path d="M32646 1624
L32646 1231
" />
<path d="M33002 1624
L33002 1418
L32983 1381
L32946 1362
L32871 1362
L32833 1381
" />
<path d="M33002 1606
L32965 1624
L32871 1624
L32833 1606
L32815 1568
L32815 1531
L32833 1493
L32871 1474
L32965 1474
L33002 1456
" />
<path d="M33190 1362
L33190 1624
" />
<path d="M33190 1399
L33208 1381
L33246 1362
L33302 1362
L33340 1381
L33358 1418
L33358 1624
" />
<path d="M33546 1362
L33546 1624
" />
<path d="M33546 1399
L33565 1381
L33602 1362
L33658 1362
L33696 1381
L33715 1418
L33715 1624
" />
<path d="M34071 1624
L34071 1418
L34052 1381
L34015 1362
L33940 1362
L33902 1381
" />
<path d="M34071 1606
L34033 1624
L33940 1624
L33902 1606
L33883 1568
L33883 1531
L33902 1493
L33940 1474
L34033 1474
L34071 1456
" />
<path d="M34258 1624
L34258 1231
" />
<path d="M34427 1624
L34427 1418
L34408 1381
L34371 1362
L34315 1362
L34277 1381
L34258 1399
" />
<path d="M35121 1250
L35083 1231
L35027 1231
L34971 1250
L34933 1287
L34914 1324
L34896 1399
L34896 1456
L34914 1531
L34933 1568
L34971 1606
L35027 1624
L35064 1624
L35121 1606
L35139 1587
L35139 1456
L35064 1456
" />
<path d="M35308 1624
L35308 1362
" />
<path d="M35308 1437
L35327 1399
L35346 1381
L35383 1362
L35421 1362
" />
<path d="M35721 1624
L35721 1418
L35702 1381
L35664 1362
L35589 1362
L35552 1381
" />
<path d="M35721 1606
L35683 1624
L35589 1624
L35552 1606
L35533 1568
L35533 1531
L35552 1493
L35589 1474
L35683 1474
L35721 1456
" />
<path d="M36077 1606
L36039 1624
L35964 1624
L35927 1606
L35908 1587
L35889 1549
L35889 1437
L35908 1399
L35927 1381
L35964 1362
L36039 1362
L36077 1381
" />
<path d="M36395 1606
L36358 1624
L36283 1624
L36246 1606
L36227 1568
L36227 1418
L36246 1381
L36283 1362
L36358 1362
L36395 1381
L36414 1418
L36414 1456
L36227 1493
" />
<path d="M36902 1231
L36864 1306
" />
<path d="M37277 1624
L37052 1624
" />
<path d="M37164 1624
L37164 1231
L37127 1287
L37089 1324
L37052 1343
" />
<path d="M37464 1624
L37539 1624
L37577 1606
L37595 1587
L37633 1531
L37652 1456
L37652 1306
L37633 1268
L37614 1250
L37577 1231
L37502 1231
L37464 1250
L37445 1268
L37427 1306
L37427 1399
L37445 1437
L37464 1456
L37502 1474
L37577 1474
L37614 1456
L37633 1437
L37652 1399
" />
</g>
<g style="fill:#008484; fill-opacity:0.0; 
stroke:#008484; stroke-width:59.0551; stroke-opacity:1; 
stroke-linecap:round; stroke-linejoin:round;">
<path d="M3070 4854
L3070 3358
" />
<path d="M3228 3201
L4704 3201
" />
<path d="M4704 3201
L4704 4854
" />
<path d="M4704 4854
L3070 4854
" />
<path d="M3228 3201
L3070 3358
" />
<path d="M10570 3917
L10570 2421
" />
<path d="M10728 2263
L12204 2263
" />
<path d="M12204 2263
L12204 3917
" />
<path d="M12204 3917
L10570 3917
" />
<path d="M10728 2263
L10570 2421
" />
<path d="M18070 2979
L18070 1483
" />
<path d="M18228 1326
L19704 1326
" />
<path d="M19704 1326
L19704 2979
" />
<path d="M19704 2979
L18070 2979
" />
<path d="M18228 1326
L18070 1483
" />
<path d="M25570 3917
L25570 2421
" />
<path d="M25728 2263
L27204 2263
" />
<path d="M27204 2263
L27204 3917
" />
<path d="M27204 3917
L25570 3917
" />
<path d="M25728 2263
L25570 2421
" />
<path d="M33070 4854
L33070 3358
" />
<path d="M33228 3201
L34704 3201
" />
<path d="M34704 3201
L34704 4854
" />
<path d="M34704 4854
L33070 4854
" />
<path d="M33228 3201
L33070 3358
" />
<path d="M33070 12354
L33070 10858
" />
<path d="M33228 10701
L34704 10701
" />
<path d="M34704 10701
L34704 12354
" />
<path d="M34704 12354
L33070 12354
" />
<path d="M33228 10701
L33070 10858
" />
<path d="M25570 11417
L25570 9921
" />
<path d="M25728 9763
L27204 9763
" />
<path d="M27204 9763
L27204 11417
" />
<path d="M27204 11417
L25570 11417
" />
<path d="M25728 9763
L25570 9921
" />
<path d="M18070 10479
L18070 8983
" />
<path d="M18228 8826
L19704 8826
" />
<path d="M19704 8826
L19704 10479
" />
<path d="M19704 10479
L18070 10479
" />
<path d="M18228 8826
L18070 8983
" />
<path d="M10570 11417
L10570 9921
" />
<path d="M10728 9763
L12204 9763
" />
<path d="M12204 9763
L12204 11417
" />
<path d="M12204 11417
L10570 11417
" />
<path d="M10728 9763
L10570 9921
" />
<path d="M3070 12354
L3070 10858
" />
<path d="M3228 10701
L4704 10701
" />
<path d="M4704 10701
L4704 12354
" />
<path d="M4704 12354
L3070 12354
" />
<path d="M3228 10701
L3070 10858
" />
<path d="M3070 19854
L3070 18358
" />
<path d="M3228 18201
L4704 18201
" />
<path d="M4704 18201
L4704 19854
" />
<path d="M4704 19854
L3070 19854
" />
<path d="M3228 18201
L3070 18358
" />
<path d="M10570 18917
L10570 17421
" />
<path d="M10728 17263
L12204 17263
" />
<path d="M12204 17263
L12204 18917
" />
<path d="M12204 18917
L10570 18917
" />
<path d="M10728 17263
L10570 17421
" />
<path d="M18070 17979
L18070 16483
" />
<path d="M18228 16326
L19704 16326
" />
<path d="M19704 16326
L19704 17979
" />
<path d="M19704 17979
L18070 17979
" />
<path d="M18228 16326
L18070 16483
" />
<path d="M25570 18917
L25570 17421
" />
<path d="M25728 17263
L27204 17263
" />
<path d="M27204 17263
L27204 18917
" />
<path d="M27204 18917
L25570 18917
" />
<path d="M25728 17263
L25570 17421
" />
<path d="M33070 19854
L33070 18358
" />
<path d="M33228 18201
L34704 18201
" />
<path d="M34704 18201
L34704 19854
" />
<path d="M34704 19854
L33070 19854
" />
<path d="M33228 18201
L33070 18358
" />
<path d="M33070 27354
L33070 25858
" />
<path d="M33228 25701
L34704 25701
" />
<path d="M34704 25701
L34704 27354
" />
<path d="M34704 27354
L33070 27354
" />
<path d="M33228 25701
L33070 25858
" />
<path d="M25570 26417
L25570 24921
" />
<path d="M25728 24763
L27204 24763
" />
<path d="M27204 24763
L27204 26417
" />
<path d="M27204 26417
L25570 26417
" />
<path d="M25728 24763
L25570 24921
" />
<path d="M18070 25479
L18070 23983
" />
<path d="M18228 23826
L19704 23826
" />
<path d="M19704 23826
L19704 25479
" />
<path d="M19704 25479
L18070 25479
" />
<path d="M18228 23826
L18070 23983
" />
<path d="M10570 26417
L10570 24921
" />
<path d="M10728 24763
L12204 24763
" />
<path d="M12204 24763
L12204 26417
" />
<path d="M12204 26417
L10570 26417
" />
<path d="M10728 24763
L10570 24921
" />
<path d="M3070 27354
L3070 25858
" />
<path d="M3228 25701
L4704 25701
" />
<path d="M4704 25701
L4704 27354
" />
<path d="M4704 27354
L3070 27354
" />
<path d="M3228 25701
L3070 25858
" />
<path d="M40570 27354
L40570 25858
" />
<path d="M40728 25701
L42204 25701
" />
<path d="M42204 25701
L42204 27354
" />
<path d="M42204 27354
L40570 27354
" />
<path d="M40728 25701
L40570 25858
" />
<path d="M40570 19854
L40570 18358
" />
<path d="M40728 18201
L42204 18201
" />
<path d="M42204 18201
L42204 19854
" />
<path d="M42204 19854
L40570 19854
" />
<path d="M40728 18201
L40570 18358
" />
<path d="M40570 12354
L40570 10858
" />
<path d="M40728 10701
L42204 10701
" />
<path d="M42204 10701
L42204 12354
" />
<path d="M42204 12354
L40570 12354
" />
<path d="M40728 10701
L40570 10858
" />
<path d="M40570 4854
L40570 3358
" />
<path d="M40728 3201
L42204 3201
" />
<path d="M42204 3201
L42204 4854
" />
<path d="M42204 4854
L40570 4854
" />
<path d="M40728 3201
L40570 3358
" />
<path d="M6413 8439
L1413 8439
" />
<path d="M1163 8189
L1163 3189
" />
<path d="M1413 2939
L6413 2939
" />
<path d="M6663 3189
L6663 8189
" />
<path d="M1413.39 8439.47 A763.217 763.217 0.0 0 0 1163.39 8189.47 " />
<path d="M1163.39 3189.47 A763.217 763.217 0.0 0 0 1413.39 2939.47 " />
<path d="M6413.39 2939.47 A763.217 763.217 0.0 0 0 6663.39 3189.47 " />
<path d="M6663.39 8189.47 A763.217 763.217 0.0 0 0 6413.39 8439.47 " />
<path d="M14163.4 7251.97 A763.217 763.217 0.0 0 0 13913.4 7501.97 " />
<path d="M13913.4 2001.97 A763.217 763.217 0.0 0 0 14163.4 2251.97 " />
<path d="M8663.39 2251.97 A763.217 763.217 0.0 0 0 8913.39 2001.97 " />
<path d="M8913.39 7501.97 A763.217 763.217 0.0 0 0 8663.39 7251.97 " />
<path d="M14163 2251
L14163 7251
" />
<path d="M8913 2001
L13913 2001
" />
<path d="M8663 7251
L8663 2251
" />
<path d="M13913 7501
L8913 7501
" />
<path d="M21413 6564
L16413 6564
" />
<path d="M16163 6314
L16163 1314
" />
<path d="M16413 1064
L21413 1064
" />
<path d="M21663 1314
L21663 6314
" />
<path d="M16413.4 6564.47 A763.217 763.217 0.0 0 0 16163.4 6314.47 " />
<path d="M16163.4 1314.47 A763.217 763.217 0.0 0 0 16413.4 1064.47 " />
<path d="M21413.4 1064.47 A763.217 763.217 0.0 0 0 21663.4 1314.47 " />
<path d="M21663.4 6314.47 A763.217 763.217 0.0 0 0 21413.4 6564.47 " />
<path d="M29163.4 7251.97 A763.217 763.217 0.0 0 0 28913.4 7501.97 " />
<path d="M28913.4 2001.97 A763.217 763.217 0.0 0 0 29163.4 2251.97 " />
<path d="M23663.4 2251.97 A763.217 763.217 0.0 0 0 23913.4 2001.97 " />
<path d="M23913.4 7501.97 A763.217 763.217 0.0 0 0 23663.4 7251.97 " />
<path d="M29163 2251
L29163 7251
" />
<path d="M23913 2001
L28913 2001
" />
<path d="M23663 7251
L23663 2251
" />
<path d="M28913 7501
L23913 7501
" />
<path d="M36413 8439
L31413 8439
" />
<path d="M31163 8189
L31163 3189
" />
<path d="M31413 2939
L36413 2939
" />
<path d="M36663 3189
L36663 8189
" />
<path d="M31413.4 8439.47 A763.217 763.217 0.0 0 0 31163.4 8189.47 " />
<path d="M31163.4 3189.47 A763.217 763.217 0.0 0 0 31413.4 2939.47 " />
<path d="M36413.4 2939.47 A763.217 763.217 0.0 0 0 36663.4 3189.47 " />
<path d="M36663.4 8189.47 A763.217 763.217 0.0 0 0 36413.4 8439.47 " />
<path d="M36663.4 15689.5 A763.217 763.217 0.0 0 0 36413.4 15939.5 " />
<path d="M36413.4 10439.5 A763.217 763.217 0.0 0 0 36663.4 10689.5 " />
<path d="M31163.4 10689.5 A763.217 763.217 0.0 0 0 31413.4 10439.5 " />
<path d="M31413.4 15939.5 A763.217 763.217 0.0 0 0 31163.4 15689.5 " />
<path d="M36663 10689
L36663 15689
" />
<path d="M31413 10439
L36413 10439
" />
<path d="M31163 15689
L31163 10689
" />
<path d="M36413 15939
L31413 15939
" />
<path d="M29163.4 14752 A763.217 763.217 0.0 0 0 28913.4 15002 " />
<path d="M28913.4 9501.97 A763.217 763.217 0.0 0 0 29163.4 9751.97 " />
<path d="M23663.4 9751.97 A763.217 763.217 0.0 0 0 23913.4 9501.97 " />
<path d="M23913.4 15002 A763.217 763.217 0.0 0 0 23663.4 14752 " />
<path d="M29163 9751
L29163 14751
" />
<path d="M23913 9501
L28913 9501
" />
<path d="M23663 14751
L23663 9751
" />
<path d="M28913 15001
L23913 15001
" />
<path d="M21663.4 13814.5 A763.217 763.217 0.0 0 0 21413.4 14064.5 " />
<path d="M21413.4 8564.47 A763.217 763.217 0.0 0 0 21663.4 8814.47 " />
<path d="M16163.4 8814.47 A763.217 763.217 0.0 0 0 16413.4 8564.47 " />
<path d="M16413.4 14064.5 A763.217 763.217 0.0 0 0 16163.4 13814.5 " />
<path d="M21663 8814
L21663 13814
" />
<path d="M16413 8564
L21413 8564
" />
<path d="M16163 13814
L16163 8814
" />
<path d="M21413 14064
L16413 14064
" />
<path d="M13913 15001
L8913 15001
" />
<path d="M8663 14751
L8663 9751
" />
<path d="M8913 9501
L13913 9501
" />
<path d="M14163 9751
L14163 14751
" />
<path d="M8913.39 15002 A763.217 763.217 0.0 0 0 8663.39 14752 " />
<path d="M8663.39 9751.97 A763.217 763.217 0.0 0 0 8913.39 9501.97 " />
<path d="M13913.4 9501.97 A763.217 763.217 0.0 0 0 14163.4 9751.97 " />
<path d="M14163.4 14752 A763.217 763.217 0.0 0 0 13913.4 15002 " />
<path d="M6413 15939
L1413 15939
" />
<path d="M1163 15689
L1163 10689
" />
<path d="M1413 10439
L6413 10439
" />
<path d="M6663 10689
L6663 15689
" />
<path d="M1413.39 15939.5 A763.217 763.217 0.0 0 0 1163.39 15689.5 " />
<path d="M1163.39 10689.5 A763.217 763.217 0.0 0 0 1413.39 10439.5 " />
<path d="M6413.39 10439.5 A763.217 763.217 0.0 0 0 6663.39 10689.5 " />
<path d="M6663.39 15689.5 A763.217 763.217 0.0 0 0 6413.39 15939.5 " />
<path d="M6413 23439
L1413 23439
" />
<path d="M1163 23189
L1163 18189
" />
<path d="M1413 17939
L6413 17939
" />
<path d="M6663 18189
L6663 23189
" />
<path d="M1413.39 23439.5 A763.217 763.217 0.0 0 0 1163.39 23189.5 " />
<path d="M1163.39 18189.5 A763.217 763.217 0.0 0 0 1413.39 17939.5 " />
<path d="M6413.39 17939.5 A763.217 763.217 0.0 0 0 6663.39 18189.5 " />
<path d="M6663.39 23189.5 A763.217 763.217 0.0 0 0 6413.39 23439.5 " />
<path d="M14163.4 22252 A763.217 763.217 0.0 0 0 13913.4 22502 " />
<path d="M13913.4 17002 A763.217 763.217 0.0 0 0 14163.4 17252 " />
<path d="M8663.39 17252 A763.217 763.217 0.0 0 0 8913.39 17002 " />
<path d="M8913.39 22502 A763.217 763.217 0.0 0 0 8663.39 22252 " />
<path d="M14163 17251
L14163 22251
" />
<path d="M8913 17001
L13913 17001
" />
<path d="M8663 22251
L8663 17251
" />
<path d="M13913 22501
L8913 22501
" />
<path d="M21663.4 21314.5 A763.217 763.217 0.0 0 0 21413.4 21564.5 " />
<path d="M21413.4 16064.5 A763.217 763.217 0.0 0 0 21663.4 16314.5 " />
<path d="M16163.4 16314.5 A763.217 763.217 0.0 0 0 16413.4 16064.5 " />
<path d="M16413.4 21564.5 A763.217 763.217 0.0 0 0 16163.4 21314.5 " />
<path d="M21663 16314
L21663 21314
" />
<path d="M16413 16064
L21413 16064
" />
<path d="M16163 21314
L16163 16314
" />
<path d="M21413 21564
L16413 21564
" />
<path d="M28913 22501
L23913 22501
" />
<path d="M23663 22251
L23663 17251
" />
<path d="M23913 17001
L28913 17001
" />
<path d="M29163 17251
L29163 22251
" />
<path d="M23913.4 22502 A763.217 763.217 0.0 0 0 23663.4 22252 " />
<path d="M23663.4 17252 A763.217 763.217 0.0 0 0 23913.4 17002 " />
<path d="M28913.4 17002 A763.217 763.217 0.0 0 0 29163.4 17252 " />
<path d="M29163.4 22252 A763.217 763.217 0.0 0 0 28913.4 22502 " />
<path d="M36413 23439
L31413 23439
" />
<path d="M31163 23189
L31163 18189
" />
<path d="M31413 17939
L36413 17939
" />
<path d="M36663 18189
L36663 23189
" />
<path d="M31413.4 23439.5 A763.217 763.217 0.0 0 0 31163.4 23189.5 " />
<path d="M31163.4 18189.5 A763.217 763.217 0.0 0 0 31413.4 17939.5 " />
<path d="M36413.4 17939.5 A763.217 763.217 0.0 0 0 36663.4 18189.5 " />
<path d="M36663.4 23189.5 A763.217 763.217 0.0 0 0 36413.4 23439.5 " />
<path d="M36413 30939
L31413 30939
" />
<path d="M31163 30689
L31163 25689
" />
<path d="M31413 25439
L36413 25439
" />
<path d="M36663 25689
L36663 30689
" />
<path d="M31413.4 30939.5 A763.217 763.217 0.0 0 0 31163.4 30689.5 " />
<path d="M31163.4 25689.5 A763.217 763.217 0.0 0 0 31413.4 25439.5 " />
<path d="M36413.4 25439.5 A763.217 763.217 0.0 0 0 36663.4 25689.5 " />
<path d="M36663.4 30689.5 A763.217 763.217 0.0 0 0 36413.4 30939.5 " />
<path d="M29163.4 29752 A763.217 763.217 0.0 0 0 28913.4 30002 " />
<path d="M28913.4 24502 A763.217 763.217 0.0 0 0 29163.4 24752 " />
<path d="M23663.4 24752 A763.217 763.217 0.0 0 0 23913.4 24502 " />
<path d="M23913.4 30002 A763.217 763.217 0.0 0 0 23663.4 29752 " />
<path d="M29163 24751
L29163 29751
" />
<path d="M23913 24501
L28913 24501
" />
<path d="M23663 29751
L23663 24751
" />
<path d="M28913 30001
L23913 30001
" />
<path d="M21663.4 28814.5 A763.217 763.217 0.0 0 0 21413.4 29064.5 " />
<path d="M21413.4 23564.5 A763.217 763.217 0.0 0 0 21663.4 23814.5 " />
<path d="M16163.4 23814.5 A763.217 763.217 0.0 0 0 16413.4 23564.5 " />
<path d="M16413.4 29064.5 A763.217 763.217 0.0 0 0 16163.4 28814.5 " />
<path d="M21663 23814
L21663 28814
" />
<path d="M16413 23564
L21413 23564
" />
<path d="M16163 28814
L16163 23814
" />
<path d="M21413 29064
L16413 29064
" />
<path d="M13913 30001
L8913 30001
" />
<path d="M8663 29751
L8663 24751
" />
<path d="M8913 24501
L13913 24501
" />
<path d="M14163 24751
L14163 29751
" />
<path d="M8913.39 30002 A763.217 763.217 0.0 0 0 8663.39 29752 " />
<path d="M8663.39 24752 A763.217 763.217 0.0 0 0 8913.39 24502 " />
<path d="M13913.4 24502 A763.217 763.217 0.0 0 0 14163.4 24752 " />
<path d="M14163.4 29752 A763.217 763.217 0.0 0 0 13913.4 30002 " />
<path d="M6663.39 30689.5 A763.217 763.217 0.0 0 0 6413.39 30939.5 " />
<path d="M6413.39 25439.5 A763.217 763.217 0.0 0 0 6663.39 25689.5 " />
<path d="M1163.39 25689.5 A763.217 763.217 0.0 0 0 1413.39 25439.5 " />
<path d="M1413.39 30939.5 A763.217 763.217 0.0 0 0 1163.39 30689.5 " />
<path d="M6663 25689
L6663 30689
" />
<path d="M1413 25439
L6413 25439
" />
<path d="M1163 30689
L1163 25689
" />
<path d="M6413 30939
L1413 30939
" />
<path d="M44163.4 30689.5 A763.217 763.217 0.0 0 0 43913.4 30939.5 " />
<path d="M43913.4 25439.5 A763.217 763.217 0.0 0 0 44163.4 25689.5 " />
<path d="M38663.4 25689.5 A763.217 763.217 0.0 0 0 38913.4 25439.5 " />
<path d="M38913.4 30939.5 A763.217 763.217 0.0 0 0 38663.4 30689.5 " />
<path d="M44163 25689
L44163 30689
" />
<path d="M38913 25439
L43913 25439
" />
<path d="M38663 30689
L38663 25689
" />
<path d="M43913 30939
L38913 30939
" />
<path d="M43913 23439
L38913 23439
" />
<path d="M38663 23189
L38663 18189
" />
<path d="M38913 17939
L43913 17939
" />
<path d="M44163 18189
L44163 23189
" />
<path d="M38913.4 23439.5 A763.217 763.217 0.0 0 0 38663.4 23189.5 " />
<path d="M38663.4 18189.5 A763.217 763.217 0.0 0 0 38913.4 17939.5 " />
<path d="M43913.4 17939.5 A763.217 763.217 0.0 0 0 44163.4 18189.5 " />
<path d="M44163.4 23189.5 A763.217 763.217 0.0 0 0 43913.4 23439.5 " />
<path d="M43913 15939
L38913 15939
" />
<path d="M38663 15689
L38663 10689
" />
<path d="M38913 10439
L43913 10439
" />
<path d="M44163 10689
L44163 15689
" />
<path d="M38913.4 15939.5 A763.217 763.217 0.0 0 0 38663.4 15689.5 " />
<path d="M38663.4 10689.5 A763.217 763.217 0.0 0 0 38913.4 10439.5 " />
<path d="M43913.4 10439.5 A763.217 763.217 0.0 0 0 44163.4 10689.5 " />
<path d="M44163.4 15689.5 A763.217 763.217 0.0 0 0 43913.4 15939.5 " />
<path d="M44163.4 8189.47 A763.217 763.217 0.0 0 0 43913.4 8439.47 " />
<path d="M43913.4 2939.47 A763.217 763.217 0.0 0 0 44163.4 3189.47 " />
<path d="M38663.4 3189.47 A763.217 763.217 0.0 0 0 38913.4 2939.47 " />
<path d="M38913.4 8439.47 A763.217 763.217 0.0 0 0 38663.4 8189.47 " />
<path d="M44163 3189
L44163 8189
" />
<path d="M38913 2939
L43913 2939
" />
<path d="M38663 8189
L38663 3189
" />
<path d="M43913 8439
L38913 8439
" />
</g>
<g style="fill:#008484; fill-opacity:1.0; 
stroke:#008484; stroke-width:3.93701; stroke-opacity:1; 
stroke-linecap:round; stroke-linejoin:round;">
<polyline style="fill-rule:evenodd;"
points="31808,303
31819,311
31823,315
31826,319
31827,324
31829,333
31830,345
31831,362
31831,365
31832,390
31832,418
31831,446
31830,472
31828,496
31826,513
31825,523
31824,529
31824,531
31828,530
31835,527
31846,523
31846,523
31865,513
31881,501
31884,498
31895,487
31910,470
31926,451
31944,428
31963,405
31980,382
31993,365
32003,353
32011,345
32018,341
32025,338
32031,338
32045,341
32056,350
32064,364
32068,383
32069,402
32066,456
32057,510
32043,562
32023,612
32023,613
31999,657
31969,698
31933,737
31891,774
31842,809
31814,827
31793,838
31767,852
31736,868
31699,886
31658,905
31614,926
31572,946
31535,964
31503,980
31474,996
31448,1010
31425,1025
31403,1040
31381,1055
31378,1058
31353,1077
31334,1094
31318,1110
31304,1128
31291,1147
31278,1170
31278,1171
31262,1200
31246,1223
31231,1241
31216,1253
31200,1262
31183,1266
31177,1267
31167,1268
31160,1267
31154,1263
31150,1259
31142,1247
31140,1235
31144,1223
31153,1213
31166,1206
31171,1205
31179,1202
31186,1198
31193,1191
31200,1181
31209,1167
31219,1148
31227,1133
31235,1117
31243,1104
31250,1093
31259,1083
31270,1071
31283,1058
31303,1038
31325,1020
31347,1002
31371,985
31398,967
31428,950
31462,931
31500,912
31542,891
31591,868
31598,865
31648,841
31693,819
31732,799
31766,780
31797,763
31823,745
31847,729
31868,712
31887,694
31904,677
31917,661
31938,634
31955,608
31969,579
31974,567
31979,554
31984,538
31990,520
31994,502
31999,485
32001,472
32003,462
32003,462
32001,463
31995,468
31987,477
31977,489
31970,497
31957,512
31944,527
31932,539
31923,549
31921,551
31911,559
31900,566
31887,573
31872,580
31854,587
31832,594
31808,601
31779,609
31745,617
31706,626
31662,635
31612,646
31599,648
31542,660
31490,671
31444,682
31403,692
31365,702
31332,712
31301,722
31272,733
31245,744
31219,756
31218,756
31175,778
31139,801
31109,825
31085,851
31066,879
31052,909
31051,912
31048,922
31045,936
31043,952
31043,956
31041,971
31040,980
31037,987
31034,992
31030,995
31017,1003
31005,1004
30992,998
30991,997
30984,991
30980,983
30978,972
30978,957
30980,947
30986,911
30996,879
31000,868
31017,838
31039,809
31066,780
31096,755
31118,740
31147,720
31131,714
31106,706
31076,701
31042,698
31007,697
30971,699
30953,701
30902,711
30852,725
30803,743
30757,765
30714,790
30676,818
30646,845
30621,873
30601,902
30588,931
30580,962
30578,976
30576,989
30573,999
30569,1005
30566,1008
30554,1016
30541,1018
30528,1013
30524,1010
30519,1005
30516,1000
30515,993
30515,982
30515,978
30518,950
30524,923
30535,895
30541,883
30563,846
30591,812
30624,779
30663,749
30706,721
30753,697
30804,675
30858,657
30916,643
30921,642
30934,640
30948,638
30965,637
30985,637
31010,636
31021,636
31046,637
31066,637
31083,638
31099,640
31114,643
31131,648
31150,654
31173,662
31190,668
31229,681
31272,666
31289,660
31303,653
31313,648
31318,645
31319,644
31326,637
31336,628
31351,618
31371,607
31394,594
31547,594
31547,595
31551,594
31560,592
31574,589
31591,586
31611,582
31620,580
31651,573
31676,568
31697,564
31712,560
31724,557
31732,555
31738,552
31742,550
31745,548
31748,545
31749,544
31756,531
31762,512
31766,489
31767,478
31769,457
31759,467
31742,481
31723,496
31701,511
31675,526
31645,543
31610,561
31603,565
31585,574
31570,582
31558,588
31550,593
31547,594
31394,594
31395,594
31425,579
31461,562
31474,556
31507,541
31539,526
31570,511
31598,496
31624,483
31645,471
31662,461
31665,459
31694,439
31718,418
31738,397
31753,377
31762,358
31766,340
31766,339
31769,323
31775,312
31785,304
31796,301
31808,303
" /> 
<polyline style="fill-rule:evenodd;"
points="30591,1153
30600,1159
30602,1160
30606,1165
30608,1169
30609,1176
30609,1186
30608,1196
30606,1215
30601,1235
30594,1257
30584,1282
30570,1312
30560,1332
30550,1351
30544,1365
30539,1376
30536,1384
30535,1392
30534,1399
30534,1401
30535,1413
30537,1421
30542,1430
30547,1436
30555,1449
30559,1460
30557,1471
30555,1477
30546,1488
30534,1493
30521,1493
30512,1490
30504,1483
30495,1472
30486,1458
30478,1444
30474,1433
30470,1417
30469,1402
30471,1386
30476,1368
30483,1347
30495,1322
30503,1306
30517,1277
30529,1252
30537,1232
30543,1213
30547,1197
30548,1188
30551,1171
30557,1159
30567,1153
30579,1151
30591,1153
" /> 
<polyline style="fill-rule:evenodd;"
points="31178,1514
31188,1522
31194,1533
31196,1543
31194,1554
31187,1564
31179,1572
31170,1575
31170,1575
31164,1576
31154,1579
31141,1586
31124,1595
31103,1607
31076,1622
31045,1641
31042,1643
30997,1669
30957,1693
30921,1713
30889,1730
30860,1745
30834,1757
30811,1767
30789,1775
30768,1781
30748,1786
30729,1789
30708,1791
30688,1791
30670,1789
30661,1787
30636,1776
30616,1759
30600,1738
30588,1713
30580,1683
30578,1657
30578,1644
30580,1636
30583,1630
30585,1627
30597,1618
30609,1616
30621,1619
30629,1623
30634,1629
30637,1637
30640,1650
30641,1660
30645,1682
30651,1701
30660,1715
30670,1722
30687,1727
30708,1728
30734,1724
30763,1717
30794,1706
30810,1699
30826,1691
30848,1681
30872,1668
30899,1653
30926,1638
30953,1622
30979,1607
30983,1605
31020,1582
31053,1563
31081,1547
31104,1534
31124,1524
31140,1518
31153,1513
31163,1511
31166,1511
31178,1514
" /> 
</g>
<g style="fill:#008484; fill-opacity:0.0; 
stroke:#008484; stroke-width:3.93701; stroke-opacity:1; 
stroke-linecap:round; stroke-linejoin:round;">
</g>
<g style="fill:#008484; fill-opacity:0.0; 
stroke:#008484; stroke-width:49.2126; stroke-opacity:1; 
stroke-linecap:round; stroke-linejoin:round;">
<path d="M40226 2018
L40338 2018
" />
<path d="M40282 2215
L40282 2018
" />
<path d="M40507 2215
L40394 2215
" />
<path d="M40450 2215
L40450 2018
L40432 2046
L40413 2065
L40394 2074
" />
<path d="M41013 2018
L41125 2018
" />
<path d="M41069 2215
L41069 2018
" />
<path d="M41182 2036
L41191 2027
L41210 2018
L41257 2018
L41275 2027
L41285 2036
L41294 2055
L41294 2074
L41285 2102
L41172 2215
L41294 2215
" />
<path d="M41800 2018
L41913 2018
" />
<path d="M41857 2215
L41857 2018
" />
<path d="M41960 2018
L42082 2018
L42016 2093
L42044 2093
L42063 2102
L42072 2111
L42082 2130
L42082 2177
L42072 2196
L42063 2205
L42044 2215
L41988 2215
L41969 2205
L41960 2196
" />
<path d="M42588 2018
L42700 2018
" />
<path d="M42644 2215
L42644 2018
" />
<path d="M42850 2083
L42850 2215
" />
<path d="M42803 2008
L42756 2149
L42878 2149
" />
<path d="M43375 2018
L43488 2018
" />
<path d="M43431 2215
L43431 2018
" />
<path d="M43647 2018
L43553 2018
L43544 2111
L43553 2102
L43572 2093
L43619 2093
L43638 2102
L43647 2111
L43656 2130
L43656 2177
L43647 2196
L43638 2205
L43619 2215
L43572 2215
L43553 2205
L43544 2196
" />
<path d="M44163 2018
L44275 2018
" />
<path d="M44219 2215
L44219 2018
" />
<path d="M44425 2018
L44387 2018
L44369 2027
L44359 2036
L44341 2065
L44331 2102
L44331 2177
L44341 2196
L44350 2205
L44369 2215
L44406 2215
L44425 2205
L44434 2196
L44444 2177
L44444 2130
L44434 2111
L44425 2102
L44406 2093
L44369 2093
L44350 2102
L44341 2111
L44331 2130
" />
<path d="M42588 1230
L42700 1230
" />
<path d="M42644 1427
L42644 1230
" />
<path d="M42747 1230
L42878 1230
L42794 1427
" />
<path d="M41820 1230
L41932 1230
" />
<path d="M41876 1427
L41876 1230
" />
<path d="M42026 1315
L42007 1305
L41998 1296
L41989 1277
L41989 1268
L41998 1249
L42007 1240
L42026 1230
L42064 1230
L42082 1240
L42092 1249
L42101 1268
L42101 1277
L42092 1296
L42082 1305
L42064 1315
L42026 1315
L42007 1324
L41998 1333
L41989 1352
L41989 1390
L41998 1408
L42007 1418
L42026 1427
L42064 1427
L42082 1418
L42092 1408
L42101 1390
L42101 1352
L42092 1333
L42082 1324
L42064 1315
" />
<path d="M41013 1230
L41125 1230
" />
<path d="M41069 1427
L41069 1230
" />
<path d="M41200 1427
L41238 1427
L41257 1418
L41266 1408
L41285 1380
L41294 1343
L41294 1268
L41285 1249
L41275 1240
L41257 1230
L41219 1230
L41200 1240
L41191 1249
L41182 1268
L41182 1315
L41191 1333
L41200 1343
L41219 1352
L41257 1352
L41275 1343
L41285 1333
L41294 1315
" />
<path d="M40132 1230
L40244 1230
" />
<path d="M40188 1427
L40188 1230
" />
<path d="M40413 1427
L40300 1427
" />
<path d="M40357 1427
L40357 1230
L40338 1258
L40319 1277
L40300 1287
" />
<path d="M40535 1230
L40554 1230
L40572 1240
L40582 1249
L40591 1268
L40600 1305
L40600 1352
L40591 1390
L40582 1408
L40572 1418
L40554 1427
L40535 1427
L40516 1418
L40507 1408
L40497 1390
L40488 1352
L40488 1305
L40497 1268
L40507 1249
L40516 1240
L40535 1230
" />
<path d="M43281 1230
L43394 1230
" />
<path d="M43338 1427
L43338 1230
" />
<path d="M43563 1427
L43450 1427
" />
<path d="M43506 1427
L43506 1230
L43488 1258
L43469 1277
L43450 1287
" />
<path d="M43638 1249
L43647 1240
L43666 1230
L43713 1230
L43731 1240
L43741 1249
L43750 1268
L43750 1287
L43741 1315
L43628 1427
L43750 1427
" />
<path d="M44856 2018
L44969 2018
" />
<path d="M44912 2215
L44912 2018
" />
<path d="M45137 2215
L45025 2215
" />
<path d="M45081 2215
L45081 2018
L45062 2046
L45044 2065
L45025 2074
" />
<path d="M45203 2018
L45325 2018
L45259 2093
L45287 2093
L45306 2102
L45315 2111
L45325 2130
L45325 2177
L45315 2196
L45306 2205
L45287 2215
L45231 2215
L45212 2205
L45203 2196
" />
<path d="M44069 1230
L44181 1230
" />
<path d="M44125 1427
L44125 1230
" />
<path d="M44350 1427
L44238 1427
" />
<path d="M44294 1427
L44294 1230
L44275 1258
L44256 1277
L44238 1287
" />
<path d="M44519 1296
L44519 1427
" />
<path d="M44472 1221
L44425 1362
L44547 1362
" />
</g>
<g style="fill:#000000; fill-opacity:0.0; 
stroke:#000000; stroke-width:49.2126; stroke-opacity:1; 
stroke-linecap:round; stroke-linejoin:round;">
</g>
<g style="fill:#C2C200; fill-opacity:0.0; 
stroke:#C2C200; stroke-width:49.2126; stroke-opacity:1; 
stroke-linecap:round; stroke-linejoin:round;">
</g>
<g style="fill:#C2C200; fill-opacity:0.0; 
stroke:#C2C200; stroke-width:78.7402; stroke-opacity:1; 
stroke-linecap:round; stroke-linejoin:round;">
<path d="M44626 32047.2 A649.606 649.606 0.0 0 0 45275.6 31397.6 " />
<path d="M39.3705 31397.6 A649.606 649.606 0.0 0 0 688.977 32047.2 " />
<path d="M688.977 39.3705 A649.606 649.606 0.0 0 0 39.3705 688.977 " />
<path d="M45275.6 688.977 A649.606 649.606 0.0 0 0 44626 39.3705 " />
<path d="M44625 39
L688 39
" />
<path d="M39 31397
L39 688
" />
<path d="M688 32047
L44625 32047
" />
<path d="M45275 688
L45275 31397
" />
</g> 
</svg>
