<?xml version="1.0" standalone="no"?>
 <!DOCTYPE svg PUBLIC "-//W3C//DTD SVG 1.1//EN" 
 "http://www.w3.org/Graphics/SVG/1.1/DTD/svg11.dtd"> 
<svg xmlns="http://www.w3.org/2000/svg" version="1.1" 
    width="11.5087cm" height="8.14832cm" viewBox="0 0 45310 32080 ">
<title>SVG Picture created as WoodElf_01-B.CrtYd.svg date 2019/08/03 12:58:44 </title>
  <desc>Picture generated by PCBNEW </desc>
<g style="fill:#000000; fill-opacity:1;stroke:#000000; stroke-opacity:1;
stroke-linecap:round; stroke-linejoin:round; "
 transform="translate(0 0) scale(1 1)">
</g>
<g style="fill:#000000; fill-opacity:0.0; 
stroke:#000000; stroke-width:-0.000393701; stroke-opacity:1; 
stroke-linecap:round; stroke-linejoin:round;">
</g>
<g style="fill:#848484; fill-opacity:0.0; 
stroke:#848484; stroke-width:-0.000393701; stroke-opacity:1; 
stroke-linecap:round; stroke-linejoin:round;">
</g>
<g style="fill:#848484; fill-opacity:0.0; 
stroke:#848484; stroke-width:19.685; stroke-opacity:1; 
stroke-linecap:round; stroke-linejoin:round;">
<path d="M2877 4758
L4917 4758
" />
<path d="M2877 3298
L2877 4758
" />
<path d="M4917 3298
L2877 3298
" />
<path d="M4917 4758
L4917 3298
" />
<path d="M10377 3820
L12417 3820
" />
<path d="M10377 2360
L10377 3820
" />
<path d="M12417 2360
L10377 2360
" />
<path d="M12417 3820
L12417 2360
" />
<path d="M17877 2883
L19917 2883
" />
<path d="M17877 1423
L17877 2883
" />
<path d="M19917 1423
L17877 1423
" />
<path d="M19917 2883
L19917 1423
" />
<path d="M25377 3820
L27417 3820
" />
<path d="M25377 2360
L25377 3820
" />
<path d="M27417 2360
L25377 2360
" />
<path d="M27417 3820
L27417 2360
" />
<path d="M32877 4758
L34917 4758
" />
<path d="M32877 3298
L32877 4758
" />
<path d="M34917 3298
L32877 3298
" />
<path d="M34917 4758
L34917 3298
" />
<path d="M32877 12258
L34917 12258
" />
<path d="M32877 10798
L32877 12258
" />
<path d="M34917 10798
L32877 10798
" />
<path d="M34917 12258
L34917 10798
" />
<path d="M25377 11320
L27417 11320
" />
<path d="M25377 9860
L25377 11320
" />
<path d="M27417 9860
L25377 9860
" />
<path d="M27417 11320
L27417 9860
" />
<path d="M17877 10383
L19917 10383
" />
<path d="M17877 8923
L17877 10383
" />
<path d="M19917 8923
L17877 8923
" />
<path d="M19917 10383
L19917 8923
" />
<path d="M10377 11320
L12417 11320
" />
<path d="M10377 9860
L10377 11320
" />
<path d="M12417 9860
L10377 9860
" />
<path d="M12417 11320
L12417 9860
" />
<path d="M2877 12258
L4917 12258
" />
<path d="M2877 10798
L2877 12258
" />
<path d="M4917 10798
L2877 10798
" />
<path d="M4917 12258
L4917 10798
" />
<path d="M2877 19758
L4917 19758
" />
<path d="M2877 18298
L2877 19758
" />
<path d="M4917 18298
L2877 18298
" />
<path d="M4917 19758
L4917 18298
" />
<path d="M10377 18820
L12417 18820
" />
<path d="M10377 17360
L10377 18820
" />
<path d="M12417 17360
L10377 17360
" />
<path d="M12417 18820
L12417 17360
" />
<path d="M17877 17883
L19917 17883
" />
<path d="M17877 16423
L17877 17883
" />
<path d="M19917 16423
L17877 16423
" />
<path d="M19917 17883
L19917 16423
" />
<path d="M25377 18820
L27417 18820
" />
<path d="M25377 17360
L25377 18820
" />
<path d="M27417 17360
L25377 17360
" />
<path d="M27417 18820
L27417 17360
" />
<path d="M32877 19758
L34917 19758
" />
<path d="M32877 18298
L32877 19758
" />
<path d="M34917 18298
L32877 18298
" />
<path d="M34917 19758
L34917 18298
" />
<path d="M32877 27258
L34917 27258
" />
<path d="M32877 25798
L32877 27258
" />
<path d="M34917 25798
L32877 25798
" />
<path d="M34917 27258
L34917 25798
" />
<path d="M25377 26320
L27417 26320
" />
<path d="M25377 24860
L25377 26320
" />
<path d="M27417 24860
L25377 24860
" />
<path d="M27417 26320
L27417 24860
" />
<path d="M17877 25383
L19917 25383
" />
<path d="M17877 23923
L17877 25383
" />
<path d="M19917 23923
L17877 23923
" />
<path d="M19917 25383
L19917 23923
" />
<path d="M10377 26320
L12417 26320
" />
<path d="M10377 24860
L10377 26320
" />
<path d="M12417 24860
L10377 24860
" />
<path d="M12417 26320
L12417 24860
" />
<path d="M2877 27258
L4917 27258
" />
<path d="M2877 25798
L2877 27258
" />
<path d="M4917 25798
L2877 25798
" />
<path d="M4917 27258
L4917 25798
" />
<path d="M40377 27258
L42417 27258
" />
<path d="M40377 25798
L40377 27258
" />
<path d="M42417 25798
L40377 25798
" />
<path d="M42417 27258
L42417 25798
" />
<path d="M40377 19758
L42417 19758
" />
<path d="M40377 18298
L40377 19758
" />
<path d="M42417 18298
L40377 18298
" />
<path d="M42417 19758
L42417 18298
" />
<path d="M40377 12258
L42417 12258
" />
<path d="M40377 10798
L40377 12258
" />
<path d="M42417 10798
L40377 10798
" />
<path d="M42417 12258
L42417 10798
" />
<path d="M40377 4758
L42417 4758
" />
<path d="M40377 3298
L40377 4758
" />
<path d="M42417 3298
L40377 3298
" />
<path d="M42417 4758
L42417 3298
" />
<path d="M9763 4055
L9763 2204
" />
<path d="M9763 2204
L8858 2204
" />
<path d="M8858 2204
L8858 4055
" />
<path d="M9763 4055
L8858 4055
" />
<path d="M2263 4992
L2263 3142
" />
<path d="M2263 3142
L1358 3142
" />
<path d="M1358 3142
L1358 4992
" />
<path d="M2263 4992
L1358 4992
" />
<path d="M17263 3117
L17263 1267
" />
<path d="M17263 1267
L16358 1267
" />
<path d="M16358 1267
L16358 3117
" />
<path d="M17263 3117
L16358 3117
" />
<path d="M24763 4055
L24763 2204
" />
<path d="M24763 2204
L23858 2204
" />
<path d="M23858 2204
L23858 4055
" />
<path d="M24763 4055
L23858 4055
" />
<path d="M32263 4992
L32263 3142
" />
<path d="M32263 3142
L31358 3142
" />
<path d="M31358 3142
L31358 4992
" />
<path d="M32263 4992
L31358 4992
" />
<path d="M32263 12492
L32263 10642
" />
<path d="M32263 10642
L31358 10642
" />
<path d="M31358 10642
L31358 12492
" />
<path d="M32263 12492
L31358 12492
" />
<path d="M24763 11555
L24763 9704
" />
<path d="M24763 9704
L23858 9704
" />
<path d="M23858 9704
L23858 11555
" />
<path d="M24763 11555
L23858 11555
" />
<path d="M17263 10617
L17263 8767
" />
<path d="M17263 8767
L16358 8767
" />
<path d="M16358 8767
L16358 10617
" />
<path d="M17263 10617
L16358 10617
" />
<path d="M9763 11555
L9763 9704
" />
<path d="M9763 9704
L8858 9704
" />
<path d="M8858 9704
L8858 11555
" />
<path d="M9763 11555
L8858 11555
" />
<path d="M2263 12492
L2263 10642
" />
<path d="M2263 10642
L1358 10642
" />
<path d="M1358 10642
L1358 12492
" />
<path d="M2263 12492
L1358 12492
" />
<path d="M2263 19992
L2263 18142
" />
<path d="M2263 18142
L1358 18142
" />
<path d="M1358 18142
L1358 19992
" />
<path d="M2263 19992
L1358 19992
" />
<path d="M9763 19055
L9763 17204
" />
<path d="M9763 17204
L8858 17204
" />
<path d="M8858 17204
L8858 19055
" />
<path d="M9763 19055
L8858 19055
" />
<path d="M17263 18117
L17263 16267
" />
<path d="M17263 16267
L16358 16267
" />
<path d="M16358 16267
L16358 18117
" />
<path d="M17263 18117
L16358 18117
" />
<path d="M24763 19055
L24763 17204
" />
<path d="M24763 17204
L23858 17204
" />
<path d="M23858 17204
L23858 19055
" />
<path d="M24763 19055
L23858 19055
" />
<path d="M32263 19992
L32263 18142
" />
<path d="M32263 18142
L31358 18142
" />
<path d="M31358 18142
L31358 19992
" />
<path d="M32263 19992
L31358 19992
" />
<path d="M32263 27492
L32263 25642
" />
<path d="M32263 25642
L31358 25642
" />
<path d="M31358 25642
L31358 27492
" />
<path d="M32263 27492
L31358 27492
" />
<path d="M24763 26555
L24763 24704
" />
<path d="M24763 24704
L23858 24704
" />
<path d="M23858 24704
L23858 26555
" />
<path d="M24763 26555
L23858 26555
" />
<path d="M17263 25617
L17263 23767
" />
<path d="M17263 23767
L16358 23767
" />
<path d="M16358 23767
L16358 25617
" />
<path d="M17263 25617
L16358 25617
" />
<path d="M9763 26555
L9763 24704
" />
<path d="M9763 24704
L8858 24704
" />
<path d="M8858 24704
L8858 26555
" />
<path d="M9763 26555
L8858 26555
" />
<path d="M2263 27492
L2263 25642
" />
<path d="M2263 25642
L1358 25642
" />
<path d="M1358 25642
L1358 27492
" />
<path d="M2263 27492
L1358 27492
" />
<path d="M39763 27492
L39763 25642
" />
<path d="M39763 25642
L38858 25642
" />
<path d="M38858 25642
L38858 27492
" />
<path d="M39763 27492
L38858 27492
" />
<path d="M39763 19992
L39763 18142
" />
<path d="M39763 18142
L38858 18142
" />
<path d="M38858 18142
L38858 19992
" />
<path d="M39763 19992
L38858 19992
" />
<path d="M39763 12492
L39763 10642
" />
<path d="M39763 10642
L38858 10642
" />
<path d="M38858 10642
L38858 12492
" />
<path d="M39763 12492
L38858 12492
" />
<path d="M39763 4992
L39763 3142
" />
<path d="M39763 3142
L38858 3142
" />
<path d="M38858 3142
L38858 4992
" />
<path d="M39763 4992
L38858 4992
" />
</g>
<g style="fill:#848484; fill-opacity:0.0; 
stroke:#848484; stroke-width:59.0551; stroke-opacity:1; 
stroke-linecap:round; stroke-linejoin:round;">
<path d="M3863.39 7139.47 A1000 1000 0.0 0 0 4863.39 6139.47 " />
<path d="M5063.39 8239.47 A1000 1000 0.0 0 0 6063.39 7239.47 " />
<path d="M3863 7139
L1138 7139
" />
<path d="M7288 6139
L4863 6139
" />
<path d="M7288 7239
L7288 6139
" />
<path d="M6063 7239
L7288 7239
" />
<path d="M1138 8239
L5063 8239
" />
<path d="M1138 7139
L1138 8239
" />
<path d="M8638 6201
L8638 7301
" />
<path d="M8638 7301
L12563 7301
" />
<path d="M13563 6301
L14788 6301
" />
<path d="M14788 6301
L14788 5201
" />
<path d="M14788 5201
L12363 5201
" />
<path d="M11363 6201
L8638 6201
" />
<path d="M12563.4 7301.97 A1000 1000 0.0 0 0 13563.4 6301.97 " />
<path d="M11363.4 6201.97 A1000 1000 0.0 0 0 12363.4 5201.97 " />
<path d="M16138 5264
L16138 6364
" />
<path d="M16138 6364
L20063 6364
" />
<path d="M21063 5364
L22288 5364
" />
<path d="M22288 5364
L22288 4264
" />
<path d="M22288 4264
L19863 4264
" />
<path d="M18863 5264
L16138 5264
" />
<path d="M20063.4 6364.47 A1000 1000 0.0 0 0 21063.4 5364.47 " />
<path d="M18863.4 5264.47 A1000 1000 0.0 0 0 19863.4 4264.47 " />
<path d="M23638 6201
L23638 7301
" />
<path d="M23638 7301
L27563 7301
" />
<path d="M28563 6301
L29788 6301
" />
<path d="M29788 6301
L29788 5201
" />
<path d="M29788 5201
L27363 5201
" />
<path d="M26363 6201
L23638 6201
" />
<path d="M27563.4 7301.97 A1000 1000 0.0 0 0 28563.4 6301.97 " />
<path d="M26363.4 6201.97 A1000 1000 0.0 0 0 27363.4 5201.97 " />
<path d="M33863.4 7139.47 A1000 1000 0.0 0 0 34863.4 6139.47 " />
<path d="M35063.4 8239.47 A1000 1000 0.0 0 0 36063.4 7239.47 " />
<path d="M33863 7139
L31138 7139
" />
<path d="M37288 6139
L34863 6139
" />
<path d="M37288 7239
L37288 6139
" />
<path d="M36063 7239
L37288 7239
" />
<path d="M31138 8239
L35063 8239
" />
<path d="M31138 7139
L31138 8239
" />
<path d="M33863.4 14639.5 A1000 1000 0.0 0 0 34863.4 13639.5 " />
<path d="M35063.4 15739.5 A1000 1000 0.0 0 0 36063.4 14739.5 " />
<path d="M33863 14639
L31138 14639
" />
<path d="M37288 13639
L34863 13639
" />
<path d="M37288 14739
L37288 13639
" />
<path d="M36063 14739
L37288 14739
" />
<path d="M31138 15739
L35063 15739
" />
<path d="M31138 14639
L31138 15739
" />
<path d="M26363.4 13702 A1000 1000 0.0 0 0 27363.4 12702 " />
<path d="M27563.4 14802 A1000 1000 0.0 0 0 28563.4 13802 " />
<path d="M26363 13701
L23638 13701
" />
<path d="M29788 12701
L27363 12701
" />
<path d="M29788 13801
L29788 12701
" />
<path d="M28563 13801
L29788 13801
" />
<path d="M23638 14801
L27563 14801
" />
<path d="M23638 13701
L23638 14801
" />
<path d="M16138 12764
L16138 13864
" />
<path d="M16138 13864
L20063 13864
" />
<path d="M21063 12864
L22288 12864
" />
<path d="M22288 12864
L22288 11764
" />
<path d="M22288 11764
L19863 11764
" />
<path d="M18863 12764
L16138 12764
" />
<path d="M20063.4 13864.5 A1000 1000 0.0 0 0 21063.4 12864.5 " />
<path d="M18863.4 12764.5 A1000 1000 0.0 0 0 19863.4 11764.5 " />
<path d="M8638 13701
L8638 14801
" />
<path d="M8638 14801
L12563 14801
" />
<path d="M13563 13801
L14788 13801
" />
<path d="M14788 13801
L14788 12701
" />
<path d="M14788 12701
L12363 12701
" />
<path d="M11363 13701
L8638 13701
" />
<path d="M12563.4 14802 A1000 1000 0.0 0 0 13563.4 13802 " />
<path d="M11363.4 13702 A1000 1000 0.0 0 0 12363.4 12702 " />
<path d="M1138 14639
L1138 15739
" />
<path d="M1138 15739
L5063 15739
" />
<path d="M6063 14739
L7288 14739
" />
<path d="M7288 14739
L7288 13639
" />
<path d="M7288 13639
L4863 13639
" />
<path d="M3863 14639
L1138 14639
" />
<path d="M5063.39 15739.5 A1000 1000 0.0 0 0 6063.39 14739.5 " />
<path d="M3863.39 14639.5 A1000 1000 0.0 0 0 4863.39 13639.5 " />
<path d="M3863.39 22139.5 A1000 1000 0.0 0 0 4863.39 21139.5 " />
<path d="M5063.39 23239.5 A1000 1000 0.0 0 0 6063.39 22239.5 " />
<path d="M3863 22139
L1138 22139
" />
<path d="M7288 21139
L4863 21139
" />
<path d="M7288 22239
L7288 21139
" />
<path d="M6063 22239
L7288 22239
" />
<path d="M1138 23239
L5063 23239
" />
<path d="M1138 22139
L1138 23239
" />
<path d="M8638 21201
L8638 22301
" />
<path d="M8638 22301
L12563 22301
" />
<path d="M13563 21301
L14788 21301
" />
<path d="M14788 21301
L14788 20201
" />
<path d="M14788 20201
L12363 20201
" />
<path d="M11363 21201
L8638 21201
" />
<path d="M12563.4 22302 A1000 1000 0.0 0 0 13563.4 21302 " />
<path d="M11363.4 21202 A1000 1000 0.0 0 0 12363.4 20202 " />
<path d="M18863.4 20264.5 A1000 1000 0.0 0 0 19863.4 19264.5 " />
<path d="M20063.4 21364.5 A1000 1000 0.0 0 0 21063.4 20364.5 " />
<path d="M18863 20264
L16138 20264
" />
<path d="M22288 19264
L19863 19264
" />
<path d="M22288 20364
L22288 19264
" />
<path d="M21063 20364
L22288 20364
" />
<path d="M16138 21364
L20063 21364
" />
<path d="M16138 20264
L16138 21364
" />
<path d="M23638 21201
L23638 22301
" />
<path d="M23638 22301
L27563 22301
" />
<path d="M28563 21301
L29788 21301
" />
<path d="M29788 21301
L29788 20201
" />
<path d="M29788 20201
L27363 20201
" />
<path d="M26363 21201
L23638 21201
" />
<path d="M27563.4 22302 A1000 1000 0.0 0 0 28563.4 21302 " />
<path d="M26363.4 21202 A1000 1000 0.0 0 0 27363.4 20202 " />
<path d="M33863.4 22139.5 A1000 1000 0.0 0 0 34863.4 21139.5 " />
<path d="M35063.4 23239.5 A1000 1000 0.0 0 0 36063.4 22239.5 " />
<path d="M33863 22139
L31138 22139
" />
<path d="M37288 21139
L34863 21139
" />
<path d="M37288 22239
L37288 21139
" />
<path d="M36063 22239
L37288 22239
" />
<path d="M31138 23239
L35063 23239
" />
<path d="M31138 22139
L31138 23239
" />
<path d="M33863.4 29639.5 A1000 1000 0.0 0 0 34863.4 28639.5 " />
<path d="M35063.4 30739.5 A1000 1000 0.0 0 0 36063.4 29739.5 " />
<path d="M33863 29639
L31138 29639
" />
<path d="M37288 28639
L34863 28639
" />
<path d="M37288 29739
L37288 28639
" />
<path d="M36063 29739
L37288 29739
" />
<path d="M31138 30739
L35063 30739
" />
<path d="M31138 29639
L31138 30739
" />
<path d="M23638 28701
L23638 29801
" />
<path d="M23638 29801
L27563 29801
" />
<path d="M28563 28801
L29788 28801
" />
<path d="M29788 28801
L29788 27701
" />
<path d="M29788 27701
L27363 27701
" />
<path d="M26363 28701
L23638 28701
" />
<path d="M27563.4 29802 A1000 1000 0.0 0 0 28563.4 28802 " />
<path d="M26363.4 28702 A1000 1000 0.0 0 0 27363.4 27702 " />
<path d="M18863.4 27764.5 A1000 1000 0.0 0 0 19863.4 26764.5 " />
<path d="M20063.4 28864.5 A1000 1000 0.0 0 0 21063.4 27864.5 " />
<path d="M18863 27764
L16138 27764
" />
<path d="M22288 26764
L19863 26764
" />
<path d="M22288 27864
L22288 26764
" />
<path d="M21063 27864
L22288 27864
" />
<path d="M16138 28864
L20063 28864
" />
<path d="M16138 27764
L16138 28864
" />
<path d="M11363.4 28702 A1000 1000 0.0 0 0 12363.4 27702 " />
<path d="M12563.4 29802 A1000 1000 0.0 0 0 13563.4 28802 " />
<path d="M11363 28701
L8638 28701
" />
<path d="M14788 27701
L12363 27701
" />
<path d="M14788 28801
L14788 27701
" />
<path d="M13563 28801
L14788 28801
" />
<path d="M8638 29801
L12563 29801
" />
<path d="M8638 28701
L8638 29801
" />
<path d="M1138 29639
L1138 30739
" />
<path d="M1138 30739
L5063 30739
" />
<path d="M6063 29739
L7288 29739
" />
<path d="M7288 29739
L7288 28639
" />
<path d="M7288 28639
L4863 28639
" />
<path d="M3863 29639
L1138 29639
" />
<path d="M5063.39 30739.5 A1000 1000 0.0 0 0 6063.39 29739.5 " />
<path d="M3863.39 29639.5 A1000 1000 0.0 0 0 4863.39 28639.5 " />
<path d="M38638 29639
L38638 30739
" />
<path d="M38638 30739
L42563 30739
" />
<path d="M43563 29739
L44788 29739
" />
<path d="M44788 29739
L44788 28639
" />
<path d="M44788 28639
L42363 28639
" />
<path d="M41363 29639
L38638 29639
" />
<path d="M42563.4 30739.5 A1000 1000 0.0 0 0 43563.4 29739.5 " />
<path d="M41363.4 29639.5 A1000 1000 0.0 0 0 42363.4 28639.5 " />
<path d="M41363.4 22139.5 A1000 1000 0.0 0 0 42363.4 21139.5 " />
<path d="M42563.4 23239.5 A1000 1000 0.0 0 0 43563.4 22239.5 " />
<path d="M41363 22139
L38638 22139
" />
<path d="M44788 21139
L42363 21139
" />
<path d="M44788 22239
L44788 21139
" />
<path d="M43563 22239
L44788 22239
" />
<path d="M38638 23239
L42563 23239
" />
<path d="M38638 22139
L38638 23239
" />
<path d="M38638 14639
L38638 15739
" />
<path d="M38638 15739
L42563 15739
" />
<path d="M43563 14739
L44788 14739
" />
<path d="M44788 14739
L44788 13639
" />
<path d="M44788 13639
L42363 13639
" />
<path d="M41363 14639
L38638 14639
" />
<path d="M42563.4 15739.5 A1000 1000 0.0 0 0 43563.4 14739.5 " />
<path d="M41363.4 14639.5 A1000 1000 0.0 0 0 42363.4 13639.5 " />
<path d="M41363.4 7139.47 A1000 1000 0.0 0 0 42363.4 6139.47 " />
<path d="M42563.4 8239.47 A1000 1000 0.0 0 0 43563.4 7239.47 " />
<path d="M41363 7139
L38638 7139
" />
<path d="M44788 6139
L42363 6139
" />
<path d="M44788 7239
L44788 6139
" />
<path d="M43563 7239
L44788 7239
" />
<path d="M38638 8239
L42563 8239
" />
<path d="M38638 7139
L38638 8239
" />
</g>
<g style="fill:#000000; fill-opacity:0.0; 
stroke:#000000; stroke-width:59.0551; stroke-opacity:1; 
stroke-linecap:round; stroke-linejoin:round;">
</g>
<g style="fill:#C2C200; fill-opacity:0.0; 
stroke:#C2C200; stroke-width:59.0551; stroke-opacity:1; 
stroke-linecap:round; stroke-linejoin:round;">
</g>
<g style="fill:#C2C200; fill-opacity:0.0; 
stroke:#C2C200; stroke-width:78.7402; stroke-opacity:1; 
stroke-linecap:round; stroke-linejoin:round;">
<path d="M44626 32047.2 A649.606 649.606 0.0 0 0 45275.6 31397.6 " />
<path d="M39.3705 31397.6 A649.606 649.606 0.0 0 0 688.977 32047.2 " />
<path d="M688.977 39.3705 A649.606 649.606 0.0 0 0 39.3705 688.977 " />
<path d="M45275.6 688.977 A649.606 649.606 0.0 0 0 44626 39.3705 " />
<path d="M44625 39
L688 39
" />
<path d="M39 31397
L39 688
" />
<path d="M688 32047
L44625 32047
" />
<path d="M45275 688
L45275 31397
" />
</g> 
</svg>
