<?xml version="1.0" standalone="no"?>
 <!DOCTYPE svg PUBLIC "-//W3C//DTD SVG 1.1//EN" 
 "http://www.w3.org/Graphics/SVG/1.1/DTD/svg11.dtd"> 
<svg
  xmlns:svg="http://www.w3.org/2000/svg"
  xmlns="http://www.w3.org/2000/svg"
  xmlns:xlink="http://www.w3.org/1999/xlink"
  version="1.1"
  width="0.025400cm" height="0.025400cm" viewBox="0 0 100 100">
<title>SVG Picture created as WoodElf_05-F_SilkS.svg date 2020/11/22 13:05:36 </title>
  <desc>Picture generated by PCBNEW </desc>
<g style="fill:#000000; fill-opacity:1;stroke:#000000; stroke-opacity:1;
stroke-linecap:round; stroke-linejoin:round;"
 transform="translate(0 0) scale(1 1)">
</g>
<g style="fill:#000000; fill-opacity:0.0; 
stroke:#000000; stroke-width:-0.000393701; stroke-opacity:1; 
stroke-linecap:round; stroke-linejoin:round;">
</g>
<g style="fill:#008484; fill-opacity:0.0; 
stroke:#008484; stroke-width:-0.000393701; stroke-opacity:1; 
stroke-linecap:round; stroke-linejoin:round;">
</g>
<g style="fill:#008484; fill-opacity:0.0; 
stroke:#008484; stroke-width:47.2441; stroke-opacity:1; 
stroke-linecap:round; stroke-linejoin:round;">
<path d="M29476 19476
L30000 19476
" />
<path d="M29476 20000
L29476 19476
" />
<path d="M29476 20500
L30523 20500
" />
<path d="M30523 20500
L30523 33523
" />
<path d="M29476 20500
L29476 33523
" />
<path d="M29476 33523
L30523 33523
" />
<path d="M29476 39523
L30523 39523
" />
<path d="M29476 35500
L29476 39523
" />
<path d="M30523 35500
L30523 39523
" />
<path d="M29476 35500
L30523 35500
" />
<path d="M29476 35000
L29476 34476
" />
<path d="M29476 34476
L30000 34476
" />
<path d="M36476 34476
L37000 34476
" />
<path d="M36476 35000
L36476 34476
" />
<path d="M36476 35500
L37523 35500
" />
<path d="M37523 35500
L37523 39523
" />
<path d="M36476 35500
L36476 39523
" />
<path d="M36476 39523
L37523 39523
" />
<path d="M38476 34476
L39000 34476
" />
<path d="M38476 35000
L38476 34476
" />
<path d="M38476 35500
L39523 35500
" />
<path d="M39523 35500
L39523 39523
" />
<path d="M38476 35500
L38476 39523
" />
<path d="M38476 39523
L39523 39523
" />
<path d="M45476 39523
L46523 39523
" />
<path d="M45476 35500
L45476 39523
" />
<path d="M46523 35500
L46523 39523
" />
<path d="M45476 35500
L46523 35500
" />
<path d="M45476 35000
L45476 34476
" />
<path d="M45476 34476
L46000 34476
" />
<path d="M36476 19476
L37000 19476
" />
<path d="M36476 20000
L36476 19476
" />
<path d="M36476 20500
L37523 20500
" />
<path d="M37523 20500
L37523 33523
" />
<path d="M36476 20500
L36476 33523
" />
<path d="M36476 33523
L37523 33523
" />
<path d="M29476 45523
L30523 45523
" />
<path d="M29476 41500
L29476 45523
" />
<path d="M30523 41500
L30523 45523
" />
<path d="M29476 41500
L30523 41500
" />
<path d="M29476 41000
L29476 40476
" />
<path d="M29476 40476
L30000 40476
" />
<path d="M36476 40476
L37000 40476
" />
<path d="M36476 41000
L36476 40476
" />
<path d="M36476 41500
L37523 41500
" />
<path d="M37523 41500
L37523 45523
" />
<path d="M36476 41500
L36476 45523
" />
<path d="M36476 45523
L37523 45523
" />
<path d="M38476 19476
L39000 19476
" />
<path d="M38476 20000
L38476 19476
" />
<path d="M38476 20500
L39523 20500
" />
<path d="M39523 20500
L39523 33523
" />
<path d="M38476 20500
L38476 33523
" />
<path d="M38476 33523
L39523 33523
" />
<path d="M45476 33523
L46523 33523
" />
<path d="M45476 20500
L45476 33523
" />
<path d="M46523 20500
L46523 33523
" />
<path d="M45476 20500
L46523 20500
" />
<path d="M45476 20000
L45476 19476
" />
<path d="M45476 19476
L46000 19476
" />
</g>
<g style="fill:#008484; fill-opacity:0.0; 
stroke:#008484; stroke-width:59.0551; stroke-opacity:1; 
stroke-linecap:round; stroke-linejoin:round;">
<text x="30000" y="19279.5"
textLength="751.687" font-size="524.934" lengthAdjust="spacingAndGlyphs"
text-anchor="middle" opacity="0">J1</text>
<path d="M29868 18867
L29868 19148
L29850 19204
L29812 19242
L29756 19260
L29718 19260
" />
<path d="M30262 19260
L30037 19260
" />
<path d="M30149 19260
L30149 18867
L30112 18923
L30074 18960
L30037 18979
" />
<text x="30000" y="34279.5"
textLength="751.687" font-size="524.934" lengthAdjust="spacingAndGlyphs"
text-anchor="middle" opacity="0">J2</text>
<path d="M29868 33867
L29868 34148
L29850 34204
L29812 34242
L29756 34260
L29718 34260
" />
<path d="M30037 33904
L30056 33885
L30093 33867
L30187 33867
L30224 33885
L30243 33904
L30262 33942
L30262 33979
L30243 34035
L30018 34260
L30262 34260
" />
<text x="37000" y="34279.5"
textLength="751.687" font-size="524.934" lengthAdjust="spacingAndGlyphs"
text-anchor="middle" opacity="0">J3</text>
<path d="M36868 33867
L36868 34148
L36850 34204
L36812 34242
L36756 34260
L36718 34260
" />
<path d="M37018 33867
L37262 33867
L37131 34017
L37187 34017
L37224 34035
L37243 34054
L37262 34092
L37262 34185
L37243 34223
L37224 34242
L37187 34260
L37074 34260
L37037 34242
L37018 34223
" />
<text x="39000" y="34279.5"
textLength="751.687" font-size="524.934" lengthAdjust="spacingAndGlyphs"
text-anchor="middle" opacity="0">J4</text>
<path d="M38868 33867
L38868 34148
L38850 34204
L38812 34242
L38756 34260
L38718 34260
" />
<path d="M39224 33998
L39224 34260
" />
<path d="M39131 33848
L39037 34129
L39281 34129
" />
<text x="46000" y="34279.5"
textLength="751.687" font-size="524.934" lengthAdjust="spacingAndGlyphs"
text-anchor="middle" opacity="0">J5</text>
<path d="M45868 33867
L45868 34148
L45850 34204
L45812 34242
L45756 34260
L45718 34260
" />
<path d="M46243 33867
L46056 33867
L46037 34054
L46056 34035
L46093 34017
L46187 34017
L46224 34035
L46243 34054
L46262 34092
L46262 34185
L46243 34223
L46224 34242
L46187 34260
L46093 34260
L46056 34242
L46037 34223
" />
<text x="37000" y="19279.5"
textLength="751.687" font-size="524.934" lengthAdjust="spacingAndGlyphs"
text-anchor="middle" opacity="0">J6</text>
<path d="M36868 18867
L36868 19148
L36850 19204
L36812 19242
L36756 19260
L36718 19260
" />
<path d="M37224 18867
L37149 18867
L37112 18885
L37093 18904
L37056 18960
L37037 19035
L37037 19185
L37056 19223
L37074 19242
L37112 19260
L37187 19260
L37224 19242
L37243 19223
L37262 19185
L37262 19092
L37243 19054
L37224 19035
L37187 19017
L37112 19017
L37074 19035
L37056 19054
L37037 19092
" />
<text x="30000" y="40279.5"
textLength="751.687" font-size="524.934" lengthAdjust="spacingAndGlyphs"
text-anchor="middle" opacity="0">J7</text>
<path d="M29868 39867
L29868 40148
L29850 40204
L29812 40242
L29756 40260
L29718 40260
" />
<path d="M30018 39867
L30281 39867
L30112 40260
" />
<text x="37000" y="40279.5"
textLength="751.687" font-size="524.934" lengthAdjust="spacingAndGlyphs"
text-anchor="middle" opacity="0">J8</text>
<path d="M36868 39867
L36868 40148
L36850 40204
L36812 40242
L36756 40260
L36718 40260
" />
<path d="M37112 40035
L37074 40017
L37056 39998
L37037 39960
L37037 39942
L37056 39904
L37074 39885
L37112 39867
L37187 39867
L37224 39885
L37243 39904
L37262 39942
L37262 39960
L37243 39998
L37224 40017
L37187 40035
L37112 40035
L37074 40054
L37056 40073
L37037 40110
L37037 40185
L37056 40223
L37074 40242
L37112 40260
L37187 40260
L37224 40242
L37243 40223
L37262 40185
L37262 40110
L37243 40073
L37224 40054
L37187 40035
" />
<text x="39000" y="19279.5"
textLength="751.687" font-size="524.934" lengthAdjust="spacingAndGlyphs"
text-anchor="middle" opacity="0">J9</text>
<path d="M38868 18867
L38868 19148
L38850 19204
L38812 19242
L38756 19260
L38718 19260
" />
<path d="M39074 19260
L39149 19260
L39187 19242
L39206 19223
L39243 19167
L39262 19092
L39262 18942
L39243 18904
L39224 18885
L39187 18867
L39112 18867
L39074 18885
L39056 18904
L39037 18942
L39037 19035
L39056 19073
L39074 19092
L39112 19110
L39187 19110
L39224 19092
L39243 19073
L39262 19035
" />
<text x="46000" y="19279.5"
textLength="1126.64" font-size="524.934" lengthAdjust="spacingAndGlyphs"
text-anchor="middle" opacity="0">J10</text>
<path d="M45681 18867
L45681 19148
L45662 19204
L45625 19242
L45568 19260
L45531 19260
" />
<path d="M46074 19260
L45850 19260
" />
<path d="M45962 19260
L45962 18867
L45925 18923
L45887 18960
L45850 18979
" />
<path d="M46318 18867
L46356 18867
L46393 18885
L46412 18904
L46431 18942
L46449 19017
L46449 19110
L46431 19185
L46412 19223
L46393 19242
L46356 19260
L46318 19260
L46281 19242
L46262 19223
L46243 19185
L46224 19110
L46224 19017
L46243 18942
L46262 18904
L46281 18885
L46318 18867
" />
<g >
</g>
</g>
<g style="fill:#000000; fill-opacity:0.0; 
stroke:#000000; stroke-width:59.0551; stroke-opacity:1; 
stroke-linecap:round; stroke-linejoin:round;">
<g >
</g>
<g >
</g>
<g >
</g>
<g >
</g>
<g >
</g>
<g >
</g>
<g >
</g>
<g >
</g>
<g >
</g>
<g >
</g>
<g >
</g>
</g> 
</svg>
