<?xml version="1.0" encoding="UTF-8" standalone="no"?>
<!DOCTYPE svg PUBLIC "-//W3C//DTD SVG 1.1//EN" "http://www.w3.org/Graphics/SVG/1.1/DTD/svg11.dtd">
<svg width="100%" height="100%" viewBox="0 0 827 1182" version="1.1" xmlns="http://www.w3.org/2000/svg" xmlns:xlink="http://www.w3.org/1999/xlink" xml:space="preserve" xmlns:serif="http://www.serif.com/" style="fill-rule:evenodd;clip-rule:evenodd;stroke-linecap:round;stroke-linejoin:round;stroke-miterlimit:1.5;">
    <g id="_1.6mmPlywood_Base" serif:id="1.6mmPlywood_Base" transform="matrix(0.333333,0,0,0.333333,0,0)">
        <g transform="matrix(6.45794e-17,-1.05466,1.75385,1.07392e-16,101.344,2046.22)">
            <path d="M717.251,266.139l1101.97,0" style="fill:none;stroke:rgb(0,0,255);stroke-width:1.22px;"/>
        </g>
        <g transform="matrix(0.0728832,-4.98908e-33,0,1.61905,680.008,-363.569)">
            <path d="M717.251,266.139l1101.97,0" style="fill:none;stroke:rgb(0,0,255);stroke-width:1.55px;"/>
        </g>
        <g transform="matrix(0.731511,-3.08149e-33,0,1,404.26,-198.816)">
            <path d="M717.251,266.139l1101.97,0" style="fill:none;stroke:rgb(0,0,255);stroke-width:2.02px;"/>
        </g>
        <g transform="matrix(6.45794e-17,1.05466,-1,6.12323e-17,2061.41,-628.899)">
            <path d="M717.251,266.139l1101.97,0" style="fill:none;stroke:rgb(0,0,255);stroke-width:1.72px;"/>
        </g>
        <g transform="matrix(1,0,0,1,5.90551,-10.6299)">
            <circle cx="865.748" cy="79.134" r="17.717" style="fill:none;stroke:rgb(0,0,255);stroke-width:1.77px;"/>
        </g>
        <path d="M930.709,67.323c-11.666,0 -21.978,-5.845 -28.164,-14.764l-4.522,-5.905m-26.369,-12.402c10.601,0 20.085,4.827 26.369,12.402" style="fill:none;stroke:rgb(0,0,255);stroke-width:1.77px;"/>
        <g transform="matrix(1,0,0,1,-198.425,0)">
            <path d="M930.709,67.323c-11.666,0 -21.978,-5.845 -28.164,-14.764l-4.522,-5.905m-26.369,-12.402c10.601,0 20.085,4.827 26.369,12.402" style="fill:none;stroke:rgb(0,0,255);stroke-width:1.77px;"/>
        </g>
        <g transform="matrix(6.12323e-17,1,1,-6.12323e-17,500.787,-803.15)">
            <path d="M930.709,67.323c-11.666,0 -21.978,-5.845 -28.164,-14.764l-4.522,-5.905m-26.369,-12.402c10.601,0 20.085,4.827 26.369,12.402" style="fill:none;stroke:rgb(0,0,255);stroke-width:1.77px;"/>
        </g>
        <g transform="matrix(-1,0,0,1,1743.31,-1.56319e-13)">
            <path d="M930.709,67.323c-11.666,0 -21.978,-5.845 -28.164,-14.764l-4.522,-5.905m-26.369,-12.402c10.601,0 20.085,4.827 26.369,12.402" style="fill:none;stroke:rgb(0,0,255);stroke-width:1.77px;"/>
        </g>
        <path d="M646.858,46.654l-4.521,5.905c-12.781,18.428 -28.783,18.428 -41.564,0l-4.521,-5.905m76.976,-12.402c-10.601,0 -20.085,4.827 -26.37,12.402m-76.976,-12.402c10.602,0 20.085,4.827 26.37,12.402" style="fill:none;stroke:rgb(0,0,255);stroke-width:1.77px;"/>
        <g transform="matrix(-1,0,0,1,2665.75,-1.56319e-13)">
            <path d="M930.709,67.323c-11.666,0 -21.978,-5.845 -28.164,-14.764l-4.522,-5.905m-26.369,-12.402c10.601,0 20.085,4.827 26.369,12.402" style="fill:none;stroke:rgb(0,0,255);stroke-width:1.77px;"/>
        </g>
        <g transform="matrix(-6.12323e-17,1,-1,-6.12323e-17,1862.6,-803.15)">
            <path d="M930.709,67.323c-11.666,0 -21.978,-5.845 -28.164,-14.764l-4.522,-5.905m-26.369,-12.402c10.601,0 20.085,4.827 26.369,12.402" style="fill:none;stroke:rgb(0,0,255);stroke-width:1.77px;"/>
        </g>
        <g transform="matrix(-6.12323e-17,-1,-1,6.12323e-17,1862.6,2220.47)">
            <path d="M930.709,67.323c-11.666,0 -21.978,-5.845 -28.164,-14.764l-4.522,-5.905m-26.369,-12.402c10.601,0 20.085,4.827 26.369,12.402" style="fill:none;stroke:rgb(0,0,255);stroke-width:1.77px;"/>
        </g>
        <g transform="matrix(6.12323e-17,-1,1,6.12323e-17,500.787,2220.47)">
            <path d="M930.709,67.323c-11.666,0 -21.978,-5.845 -28.164,-14.764l-4.522,-5.905m-26.369,-12.402c10.601,0 20.085,4.827 26.369,12.402" style="fill:none;stroke:rgb(0,0,255);stroke-width:1.77px;"/>
        </g>
        <g transform="matrix(1,0,0,1,928.346,-10.6299)">
            <circle cx="865.748" cy="79.134" r="17.717" style="fill:none;stroke:rgb(0,0,255);stroke-width:1.77px;"/>
        </g>
        <g transform="matrix(1,0,0,1,928.346,1269.69)">
            <circle cx="865.748" cy="79.134" r="17.717" style="fill:none;stroke:rgb(0,0,255);stroke-width:1.77px;"/>
        </g>
        <g transform="matrix(1,0,0,1,-296.457,1269.69)">
            <circle cx="865.748" cy="79.134" r="17.717" style="fill:none;stroke:rgb(0,0,255);stroke-width:1.77px;"/>
        </g>
        <g transform="matrix(1,0,0,1,409.843,1269.69)">
            <circle cx="865.748" cy="79.134" r="17.717" style="fill:none;stroke:rgb(0,0,255);stroke-width:1.77px;"/>
        </g>
        <g transform="matrix(1,0,0,1,-192.52,-10.6299)">
            <circle cx="865.748" cy="79.134" r="17.717" style="fill:none;stroke:rgb(0,0,255);stroke-width:1.77px;"/>
        </g>
        <g transform="matrix(1,0,0,1,-296.457,-10.6299)">
            <circle cx="865.748" cy="79.134" r="17.717" style="fill:none;stroke:rgb(0,0,255);stroke-width:1.77px;"/>
        </g>
        <g transform="matrix(1.31818,0,0,1.34091,-489.889,-105.118)">
            <path d="M1732.68,103.937c14.341,0 25.984,11.643 25.984,25.984" style="fill:none;stroke:rgb(0,0,255);stroke-width:1.33px;"/>
        </g>
        <g transform="matrix(8.07154e-17,-1.31818,1.34091,8.2107e-17,395.669,2352.49)">
            <path d="M1732.68,103.937c14.341,0 25.984,11.643 25.984,25.984" style="fill:none;stroke:rgb(0,0,255);stroke-width:1.33px;"/>
        </g>
        <g transform="matrix(1,0,0,1,805.512,1217.85)">
            <circle cx="865.748" cy="79.134" r="17.717" style="fill:none;stroke:rgb(0,0,255);stroke-width:1.77px;"/>
        </g>
        <g transform="matrix(1,0,0,1,478.346,1217.85)">
            <circle cx="865.748" cy="79.134" r="17.717" style="fill:none;stroke:rgb(0,0,255);stroke-width:1.77px;"/>
        </g>
        <g transform="matrix(1,0,0,1,49.0157,-3.41061e-13)">
            <circle cx="630.709" cy="129.921" r="9.449" style="fill:none;stroke:rgb(0,0,255);stroke-width:1.77px;"/>
        </g>
        <g transform="matrix(1,0,0,1,233.858,-3.41061e-13)">
            <circle cx="630.709" cy="129.921" r="9.449" style="fill:none;stroke:rgb(0,0,255);stroke-width:1.77px;"/>
        </g>
        <circle cx="630.709" cy="129.921" r="9.449" style="fill:none;stroke:rgb(0,0,255);stroke-width:1.77px;"/>
        <g transform="matrix(1,0,0,1,1101.97,-3.69482e-13)">
            <circle cx="630.709" cy="129.921" r="9.449" style="fill:none;stroke:rgb(0,0,255);stroke-width:1.77px;"/>
        </g>
        <g transform="matrix(1,0,0,1,1101.97,1157.48)">
            <circle cx="630.709" cy="129.921" r="9.449" style="fill:none;stroke:rgb(0,0,255);stroke-width:1.77px;"/>
        </g>
        <g transform="matrix(1,0,0,1,651.969,1157.48)">
            <circle cx="630.709" cy="129.921" r="9.449" style="fill:none;stroke:rgb(0,0,255);stroke-width:1.77px;"/>
        </g>
        <g transform="matrix(1,0,0,1,0,1157.48)">
            <circle cx="630.709" cy="129.921" r="9.449" style="fill:none;stroke:rgb(0,0,255);stroke-width:1.77px;"/>
        </g>
        <g transform="matrix(1.33389,0,0,1.33389,510.555,173.765)">
            <circle cx="865.748" cy="79.134" r="17.717" style="fill:none;stroke:rgb(0,0,255);stroke-width:1.33px;"/>
        </g>
        <g transform="matrix(1.33389,0,0,1.33389,510.555,1025.95)">
            <circle cx="865.748" cy="79.134" r="17.717" style="fill:none;stroke:rgb(0,0,255);stroke-width:1.33px;"/>
        </g>
        <g transform="matrix(1.33389,0,0,1.33389,483.961,1353.12)">
            <circle cx="865.748" cy="79.134" r="17.717" style="fill:none;stroke:rgb(0,0,255);stroke-width:1.33px;"/>
        </g>
        <g transform="matrix(1.33389,0,0,1.33389,-430.212,1353.12)">
            <circle cx="865.748" cy="79.134" r="17.717" style="fill:none;stroke:rgb(0,0,255);stroke-width:1.33px;"/>
        </g>
        <g transform="matrix(1.33389,0,0,1.33389,423.744,2234.2)">
            <circle cx="865.748" cy="79.134" r="17.717" style="fill:none;stroke:rgb(0,0,255);stroke-width:1.33px;"/>
        </g>
        <g transform="matrix(1.33389,0,0,1.33389,-456.768,173.765)">
            <circle cx="865.748" cy="79.134" r="17.717" style="fill:none;stroke:rgb(0,0,255);stroke-width:1.33px;"/>
        </g>
        <g transform="matrix(1.33389,0,0,1.33389,-456.768,1025.95)">
            <circle cx="865.748" cy="79.134" r="17.717" style="fill:none;stroke:rgb(0,0,255);stroke-width:1.33px;"/>
        </g>
        <g transform="matrix(1.33389,0,0,1.33389,-369.976,2234.2)">
            <circle cx="865.748" cy="79.134" r="17.717" style="fill:none;stroke:rgb(0,0,255);stroke-width:1.33px;"/>
        </g>
        <path d="M535.039,1348.82c0,5.285 1.2,10.292 3.342,14.764c2.154,4.498 0.176,0.188 29.729,44.291c80.606,120.291 57.39,811.574 90.034,960.827c13.171,57.797 64.926,100.984 126.689,100.984" style="fill:none;stroke:rgb(0,0,255);stroke-width:1.77px;"/>
        <g transform="matrix(-1,0,0,1,2363.39,-3.41061e-13)">
            <path d="M535.039,1348.82c0,5.285 1.2,10.292 3.342,14.764c2.154,4.498 0.176,0.188 29.729,44.291c80.606,120.291 57.39,811.574 90.034,960.827c13.171,57.797 64.926,100.984 126.689,100.984" style="fill:none;stroke:rgb(0,0,255);stroke-width:1.77px;"/>
        </g>
        <path d="M1578.54,2469.68l-793.7,0" style="fill:none;stroke:rgb(0,0,255);stroke-width:1.77px;"/>
    </g>
    <g id="_2mmTransparentAcrylic_PCB" serif:id="2mmTransparentAcrylic_PCB" transform="matrix(0.333333,0,0,0.333333,0,0)">
        <g transform="matrix(33.8696,0,0,1,-19663.2,-0.590551)">
            <path d="M632.48,104.528l-27.165,0" style="fill:none;stroke:rgb(0,0,255);stroke-width:0.07px;"/>
        </g>
        <g transform="matrix(2.72617e-15,-44.5217,1,6.12323e-17,500.197,28263.1)">
            <path d="M632.48,104.528l-27.165,0" style="fill:none;stroke:rgb(0,0,255);stroke-width:0.06px;"/>
        </g>
        <g transform="matrix(32.1957,1.2326e-32,0,1,-18649.9,45.4724)">
            <path d="M632.48,104.528l-27.165,0" style="fill:none;stroke:rgb(0,0,255);stroke-width:0.08px;"/>
        </g>
        <g transform="matrix(9.1726,1.2326e-32,0,1,-4693.65,45.4724)">
            <path d="M632.48,104.528l-27.165,0" style="fill:none;stroke:rgb(0,0,255);stroke-width:0.27px;"/>
        </g>
        <g transform="matrix(2.06522,1.2326e-32,0,1,-599.91,45.4724)">
            <path d="M632.48,104.528l-27.165,0" style="fill:none;stroke:rgb(0,0,255);stroke-width:1.09px;"/>
        </g>
        <g transform="matrix(3.73913,1.2326e-32,0,1,-1658.63,-0.590551)">
            <path d="M632.48,104.528l-27.165,0" style="fill:none;stroke:rgb(0,0,255);stroke-width:0.65px;"/>
        </g>
        <g transform="matrix(1.03829e-16,1.69565,-1,6.12323e-17,810.827,-922.467)">
            <path d="M632.48,104.528l-27.165,0" style="fill:none;stroke:rgb(0,0,255);stroke-width:1.27px;"/>
        </g>
        <g transform="matrix(1.03829e-16,1.69565,-1,6.12323e-17,943.11,-922.467)">
            <path d="M632.48,104.528l-27.165,0" style="fill:none;stroke:rgb(0,0,255);stroke-width:1.27px;"/>
        </g>
        <g transform="matrix(2.52251e-15,-41.1957,1,6.12323e-17,545.669,26205.4)">
            <path d="M632.48,104.528l-27.165,0" style="fill:none;stroke:rgb(0,0,255);stroke-width:0.06px;"/>
        </g>
        <g transform="matrix(2.52251e-15,41.1957,-1,6.12323e-17,1817.72,-24786.3)">
            <path d="M632.48,104.528l-27.165,0" style="fill:none;stroke:rgb(0,0,255);stroke-width:0.06px;"/>
        </g>
        <g transform="matrix(24.2391,-3.9443e-31,6.53758e-32,1,-14022.1,1164.57)">
            <path d="M632.48,104.528l-27.165,0" style="fill:none;stroke:rgb(0,0,255);stroke-width:0.1px;"/>
        </g>
        <g transform="matrix(9.98353e-17,1.63043,-1,6.12323e-17,1413.19,282.168)">
            <path d="M632.48,104.528l-27.165,0" style="fill:none;stroke:rgb(0,0,255);stroke-width:1.31px;"/>
        </g>
        <g transform="matrix(9.98353e-17,1.63043,-1,6.12323e-17,1811.22,282.168)">
            <path d="M632.48,104.528l-27.165,0" style="fill:none;stroke:rgb(0,0,255);stroke-width:1.31px;"/>
        </g>
        <g transform="matrix(0.23913,-3.69779e-31,0,1,1561.94,1164.57)">
            <path d="M632.48,104.528l-27.165,0" style="fill:none;stroke:rgb(0,0,255);stroke-width:2.44px;"/>
        </g>
        <g transform="matrix(1.91304,-3.69779e-31,0,1,548.699,1208.86)">
            <path d="M632.48,104.528l-27.165,0" style="fill:none;stroke:rgb(0,0,255);stroke-width:1.16px;"/>
        </g>
        <g transform="matrix(25.913,-3.9443e-31,6.98905e-32,1,-15080.8,1208.86)">
            <path d="M632.48,104.528l-27.165,0" style="fill:none;stroke:rgb(0,0,255);stroke-width:0.1px;"/>
        </g>
        <g transform="matrix(2.72617e-15,44.5217,-1,6.12323e-17,1863.19,-26845.7)">
            <path d="M632.48,104.528l-27.165,0" style="fill:none;stroke:rgb(0,0,255);stroke-width:0.06px;"/>
        </g>
        <circle cx="630.709" cy="129.921" r="9.449" style="fill:none;stroke:rgb(0,0,255);stroke-width:1.77px;"/>
        <g transform="matrix(1,0,0,1,49.0157,0)">
            <circle cx="630.709" cy="129.921" r="9.449" style="fill:none;stroke:rgb(0,0,255);stroke-width:1.77px;"/>
        </g>
        <g transform="matrix(1,0,0,1,233.858,0)">
            <circle cx="630.709" cy="129.921" r="9.449" style="fill:none;stroke:rgb(0,0,255);stroke-width:1.77px;"/>
        </g>
        <g transform="matrix(1,0,0,1,1101.97,-2.84217e-14)">
            <circle cx="630.709" cy="129.921" r="9.449" style="fill:none;stroke:rgb(0,0,255);stroke-width:1.77px;"/>
        </g>
        <g transform="matrix(1,0,0,1,1101.97,1157.48)">
            <circle cx="630.709" cy="129.921" r="9.449" style="fill:none;stroke:rgb(0,0,255);stroke-width:1.77px;"/>
        </g>
        <g transform="matrix(1,0,0,1,651.969,1157.48)">
            <circle cx="630.709" cy="129.921" r="9.449" style="fill:none;stroke:rgb(0,0,255);stroke-width:1.77px;"/>
        </g>
        <g transform="matrix(1,0,0,1,0,1157.48)">
            <circle cx="630.709" cy="129.921" r="9.449" style="fill:none;stroke:rgb(0,0,255);stroke-width:1.77px;"/>
        </g>
    </g>
    <g id="_2mmTransparentAcrylic_PCB1" serif:id="2mmTransparentAcrylic_PCB" transform="matrix(0.333333,0,0,0.333333,0,0)">
        <g transform="matrix(33.8696,0,0,1,-19663.2,-0.590551)">
            <path d="M632.48,104.528l-27.165,0" style="fill:none;stroke:rgb(0,0,255);stroke-width:0.07px;"/>
        </g>
        <g transform="matrix(2.72617e-15,-44.5217,1,6.12323e-17,500.197,28263.1)">
            <path d="M632.48,104.528l-27.165,0" style="fill:none;stroke:rgb(0,0,255);stroke-width:0.06px;"/>
        </g>
        <g transform="matrix(32.1957,1.2326e-32,0,1,-18649.9,45.4724)">
            <path d="M632.48,104.528l-27.165,0" style="fill:none;stroke:rgb(0,0,255);stroke-width:0.08px;"/>
        </g>
        <g transform="matrix(9.1726,1.2326e-32,0,1,-4693.65,45.4724)">
            <path d="M632.48,104.528l-27.165,0" style="fill:none;stroke:rgb(0,0,255);stroke-width:0.27px;"/>
        </g>
        <g transform="matrix(2.06522,1.2326e-32,0,1,-599.91,45.4724)">
            <path d="M632.48,104.528l-27.165,0" style="fill:none;stroke:rgb(0,0,255);stroke-width:1.09px;"/>
        </g>
        <g transform="matrix(3.73913,1.2326e-32,0,1,-1658.63,-0.590551)">
            <path d="M632.48,104.528l-27.165,0" style="fill:none;stroke:rgb(0,0,255);stroke-width:0.65px;"/>
        </g>
        <g transform="matrix(1.03829e-16,1.69565,-1,6.12323e-17,810.827,-922.467)">
            <path d="M632.48,104.528l-27.165,0" style="fill:none;stroke:rgb(0,0,255);stroke-width:1.27px;"/>
        </g>
        <g transform="matrix(1.03829e-16,1.69565,-1,6.12323e-17,943.11,-922.467)">
            <path d="M632.48,104.528l-27.165,0" style="fill:none;stroke:rgb(0,0,255);stroke-width:1.27px;"/>
        </g>
        <g transform="matrix(2.52251e-15,-41.1957,1,6.12323e-17,545.669,26205.4)">
            <path d="M632.48,104.528l-27.165,0" style="fill:none;stroke:rgb(0,0,255);stroke-width:0.06px;"/>
        </g>
        <g transform="matrix(2.52251e-15,41.1957,-1,6.12323e-17,1817.72,-24786.3)">
            <path d="M632.48,104.528l-27.165,0" style="fill:none;stroke:rgb(0,0,255);stroke-width:0.06px;"/>
        </g>
        <g transform="matrix(24.2391,-3.9443e-31,6.53758e-32,1,-14022.1,1164.57)">
            <path d="M632.48,104.528l-27.165,0" style="fill:none;stroke:rgb(0,0,255);stroke-width:0.1px;"/>
        </g>
        <g transform="matrix(9.98353e-17,1.63043,-1,6.12323e-17,1413.19,282.168)">
            <path d="M632.48,104.528l-27.165,0" style="fill:none;stroke:rgb(0,0,255);stroke-width:1.31px;"/>
        </g>
        <g transform="matrix(9.98353e-17,1.63043,-1,6.12323e-17,1811.22,282.168)">
            <path d="M632.48,104.528l-27.165,0" style="fill:none;stroke:rgb(0,0,255);stroke-width:1.31px;"/>
        </g>
        <g transform="matrix(0.23913,-3.69779e-31,0,1,1561.94,1164.57)">
            <path d="M632.48,104.528l-27.165,0" style="fill:none;stroke:rgb(0,0,255);stroke-width:2.44px;"/>
        </g>
        <g transform="matrix(1.91304,-3.69779e-31,0,1,548.699,1208.86)">
            <path d="M632.48,104.528l-27.165,0" style="fill:none;stroke:rgb(0,0,255);stroke-width:1.16px;"/>
        </g>
        <g transform="matrix(25.913,-3.9443e-31,6.98905e-32,1,-15080.8,1208.86)">
            <path d="M632.48,104.528l-27.165,0" style="fill:none;stroke:rgb(0,0,255);stroke-width:0.1px;"/>
        </g>
        <g transform="matrix(2.72617e-15,44.5217,-1,6.12323e-17,1863.19,-26845.7)">
            <path d="M632.48,104.528l-27.165,0" style="fill:none;stroke:rgb(0,0,255);stroke-width:0.06px;"/>
        </g>
        <circle cx="630.709" cy="129.921" r="9.449" style="fill:none;stroke:rgb(0,0,255);stroke-width:1.77px;"/>
        <g transform="matrix(1,0,0,1,49.0157,0)">
            <circle cx="630.709" cy="129.921" r="9.449" style="fill:none;stroke:rgb(0,0,255);stroke-width:1.77px;"/>
        </g>
        <g transform="matrix(1,0,0,1,233.858,0)">
            <circle cx="630.709" cy="129.921" r="9.449" style="fill:none;stroke:rgb(0,0,255);stroke-width:1.77px;"/>
        </g>
        <g transform="matrix(1,0,0,1,1101.97,-2.84217e-14)">
            <circle cx="630.709" cy="129.921" r="9.449" style="fill:none;stroke:rgb(0,0,255);stroke-width:1.77px;"/>
        </g>
        <g transform="matrix(1,0,0,1,1101.97,1157.48)">
            <circle cx="630.709" cy="129.921" r="9.449" style="fill:none;stroke:rgb(0,0,255);stroke-width:1.77px;"/>
        </g>
        <g transform="matrix(1,0,0,1,651.969,1157.48)">
            <circle cx="630.709" cy="129.921" r="9.449" style="fill:none;stroke:rgb(0,0,255);stroke-width:1.77px;"/>
        </g>
        <g transform="matrix(1,0,0,1,0,1157.48)">
            <circle cx="630.709" cy="129.921" r="9.449" style="fill:none;stroke:rgb(0,0,255);stroke-width:1.77px;"/>
        </g>
    </g>
    <g id="_1.6mmPlywood_Closed" serif:id="1.6mmPlywood_Closed" transform="matrix(0.333333,0,0,0.333333,0,0)">
        <g transform="matrix(1.0493,0,0,1,-149.071,-163.383)">
            <path d="M717.251,266.139l1101.97,0" style="fill:none;stroke:rgb(0,0,255);stroke-width:1.73px;"/>
        </g>
        <g transform="matrix(6.73359e-17,1.09968,-1,6.12323e-17,2025.98,-685.99)">
            <path d="M717.251,266.139l1101.97,0" style="fill:none;stroke:rgb(0,0,255);stroke-width:1.69px;"/>
        </g>
        <g transform="matrix(6.73359e-17,-1.09968,1.02347,6.26694e-17,331.158,2103.31)">
            <path d="M717.251,266.139l1101.97,0" style="fill:none;stroke:rgb(0,0,255);stroke-width:1.67px;"/>
        </g>
        <g transform="matrix(0.533762,1.2326e-32,0,1.02347,245.505,1078.21)">
            <path d="M717.251,266.139l1101.97,0" style="fill:none;stroke:rgb(0,0,255);stroke-width:2.17px;"/>
        </g>
        <g transform="matrix(0.0262594,1.2326e-32,0,1.02347,1686.68,1077.62)">
            <path d="M717.251,266.139l1101.97,0" style="fill:none;stroke:rgb(0,0,255);stroke-width:2.45px;"/>
        </g>
        <g transform="matrix(0.0493033,1.2326e-32,0,1.02347,1670.15,1042.18)">
            <path d="M717.251,266.139l1101.97,0" style="fill:none;stroke:rgb(0,0,255);stroke-width:2.45px;"/>
        </g>
        <g transform="matrix(6.45794e-17,-1.05466,1.75385,1.07392e-16,101.344,2046.22)">
            <path d="M717.251,266.139l1101.97,0" style="fill:none;stroke:rgb(0,0,255);stroke-width:1.22px;"/>
        </g>
        <g transform="matrix(0.640943,-2.46519e-32,-7.14236e-33,1.75385,143.826,847.8)">
            <path d="M717.251,266.139l1101.97,0" style="fill:none;stroke:rgb(0,0,255);stroke-width:1.34px;"/>
        </g>
        <g transform="matrix(1.96889e-18,0.0321543,-1.75385,1.07392e-16,2172.28,1291.5)">
            <path d="M717.251,266.139l1101.97,0" style="fill:none;stroke:rgb(0,0,255);stroke-width:1.43px;"/>
        </g>
        <g transform="matrix(1.93607e-18,0.0316184,-1.75385,1.07392e-16,1776.61,1291.89)">
            <path d="M717.251,266.139l1101.97,0" style="fill:none;stroke:rgb(0,0,255);stroke-width:1.43px;"/>
        </g>
        <g transform="matrix(0.731511,-3.08149e-33,0,1,404.26,-198.816)">
            <path d="M717.251,266.139l1101.97,0" style="fill:none;stroke:rgb(0,0,255);stroke-width:2.02px;"/>
        </g>
        <g transform="matrix(6.45794e-17,1.05466,-1,6.12323e-17,2061.41,-628.899)">
            <path d="M717.251,266.139l1101.97,0" style="fill:none;stroke:rgb(0,0,255);stroke-width:1.72px;"/>
        </g>
        <g transform="matrix(1,0,0,1,5.90551,-10.6299)">
            <circle cx="865.748" cy="79.134" r="17.717" style="fill:none;stroke:rgb(0,0,255);stroke-width:1.77px;"/>
        </g>
        <path d="M930.709,67.323c-11.666,0 -21.978,-5.845 -28.164,-14.764l-4.522,-5.905m-26.369,-12.402c10.601,0 20.085,4.827 26.369,12.402" style="fill:none;stroke:rgb(0,0,255);stroke-width:1.77px;"/>
        <g transform="matrix(6.12323e-17,1,1,-6.12323e-17,500.787,-803.15)">
            <path d="M930.709,67.323c-11.666,0 -21.978,-5.845 -28.164,-14.764l-4.522,-5.905m-26.369,-12.402c10.601,0 20.085,4.827 26.369,12.402" style="fill:none;stroke:rgb(0,0,255);stroke-width:1.77px;"/>
        </g>
        <path d="M646.858,46.654l-4.521,5.905c-12.781,18.428 -28.783,18.428 -41.564,0l-4.521,-5.905m76.976,-12.402c-10.601,0 -20.085,4.827 -26.37,12.402m-76.976,-12.402c10.602,0 20.085,4.827 26.37,12.402" style="fill:none;stroke:rgb(0,0,255);stroke-width:1.77px;"/>
        <g transform="matrix(-1,0,0,1,2665.75,-1.56319e-13)">
            <path d="M930.709,67.323c-11.666,0 -21.978,-5.845 -28.164,-14.764l-4.522,-5.905m-26.369,-12.402c10.601,0 20.085,4.827 26.369,12.402" style="fill:none;stroke:rgb(0,0,255);stroke-width:1.77px;"/>
        </g>
        <g transform="matrix(-6.12323e-17,1,-1,-6.12323e-17,1862.6,-803.15)">
            <path d="M930.709,67.323c-11.666,0 -21.978,-5.845 -28.164,-14.764l-4.522,-5.905m-26.369,-12.402c10.601,0 20.085,4.827 26.369,12.402" style="fill:none;stroke:rgb(0,0,255);stroke-width:1.77px;"/>
        </g>
        <g transform="matrix(-6.12323e-17,-1,-1,6.12323e-17,1862.6,2220.47)">
            <path d="M930.709,67.323c-11.666,0 -21.978,-5.845 -28.164,-14.764l-4.522,-5.905m-26.369,-12.402c10.601,0 20.085,4.827 26.369,12.402" style="fill:none;stroke:rgb(0,0,255);stroke-width:1.77px;"/>
        </g>
        <g transform="matrix(1,1.22465e-16,-1.22465e-16,1,862.795,1315.75)">
            <path d="M930.709,67.323c-11.666,0 -21.978,-5.845 -28.164,-14.764l-4.522,-5.905m-26.369,-12.402c10.601,0 20.085,4.827 26.369,12.402" style="fill:none;stroke:rgb(0,0,255);stroke-width:1.77px;"/>
        </g>
        <g transform="matrix(1,1.22465e-16,-1.22465e-16,1,344.882,1316.34)">
            <path d="M930.709,67.323c-11.666,0 -21.978,-5.845 -28.164,-14.764l-4.522,-5.905m-26.369,-12.402c10.601,0 20.085,4.827 26.369,12.402" style="fill:none;stroke:rgb(0,0,255);stroke-width:1.77px;"/>
        </g>
        <g transform="matrix(-1,1.22465e-16,1.22465e-16,1,1500,1316.34)">
            <path d="M930.709,67.323c-11.666,0 -21.978,-5.845 -28.164,-14.764l-4.522,-5.905m-26.369,-12.402c10.601,0 20.085,4.827 26.369,12.402" style="fill:none;stroke:rgb(0,0,255);stroke-width:1.77px;"/>
        </g>
        <g transform="matrix(6.12323e-17,-1,1,6.12323e-17,500.787,2220.47)">
            <path d="M930.709,67.323c-11.666,0 -21.978,-5.845 -28.164,-14.764l-4.522,-5.905m-26.369,-12.402c10.601,0 20.085,4.827 26.369,12.402" style="fill:none;stroke:rgb(0,0,255);stroke-width:1.77px;"/>
        </g>
        <g transform="matrix(1,0,0,1,928.346,-10.6299)">
            <circle cx="865.748" cy="79.134" r="17.717" style="fill:none;stroke:rgb(0,0,255);stroke-width:1.77px;"/>
        </g>
        <g transform="matrix(1,0,0,1,928.346,1269.69)">
            <circle cx="865.748" cy="79.134" r="17.717" style="fill:none;stroke:rgb(0,0,255);stroke-width:1.77px;"/>
        </g>
        <g transform="matrix(1,0,0,1,-296.457,1269.69)">
            <circle cx="865.748" cy="79.134" r="17.717" style="fill:none;stroke:rgb(0,0,255);stroke-width:1.77px;"/>
        </g>
        <g transform="matrix(1,0,0,1,409.843,1269.69)">
            <circle cx="865.748" cy="79.134" r="17.717" style="fill:none;stroke:rgb(0,0,255);stroke-width:1.77px;"/>
        </g>
        <g transform="matrix(1.93333,0,0,1.93333,-398.189,1196.42)">
            <path d="M883.465,79.134c0,9.778 -7.939,17.716 -17.717,17.716" style="fill:none;stroke:rgb(0,0,255);stroke-width:0.92px;"/>
        </g>
        <g transform="matrix(1,0,0,1,-192.52,-10.6299)">
            <circle cx="865.748" cy="79.134" r="17.717" style="fill:none;stroke:rgb(0,0,255);stroke-width:1.77px;"/>
        </g>
        <g transform="matrix(1,0,0,1,-296.457,-10.6299)">
            <circle cx="865.748" cy="79.134" r="17.717" style="fill:none;stroke:rgb(0,0,255);stroke-width:1.77px;"/>
        </g>
        <g transform="matrix(1.31818,0,0,1.34091,-489.889,-105.118)">
            <path d="M1732.68,103.937c14.341,0 25.984,11.643 25.984,25.984" style="fill:none;stroke:rgb(0,0,255);stroke-width:1.33px;"/>
        </g>
        <g transform="matrix(8.07154e-17,1.31818,-1.34091,8.2107e-17,1967.72,-935.165)">
            <path d="M1732.68,103.937c14.341,0 25.984,11.643 25.984,25.984" style="fill:none;stroke:rgb(0,0,255);stroke-width:1.33px;"/>
        </g>
        <g transform="matrix(8.07154e-17,-1.31818,1.34091,8.2107e-17,395.669,2352.49)">
            <path d="M1732.68,103.937c14.341,0 25.984,11.643 25.984,25.984" style="fill:none;stroke:rgb(0,0,255);stroke-width:1.33px;"/>
        </g>
        <g transform="matrix(-1.31818,1.61431e-16,-1.64214e-16,-1.34091,2853.27,1523.03)">
            <path d="M1732.68,103.937c14.341,0 25.984,11.643 25.984,25.984" style="fill:none;stroke:rgb(0,0,255);stroke-width:1.33px;"/>
        </g>
        <g transform="matrix(0.0728832,-4.98908e-33,0,1.61905,680.008,-363.569)">
            <path d="M717.251,266.139l1101.97,0" style="fill:none;stroke:rgb(0,0,255);stroke-width:1.55px;"/>
        </g>
        <g transform="matrix(1,0,0,1,-198.425,0)">
            <path d="M930.709,67.323c-11.666,0 -21.978,-5.845 -28.164,-14.764l-4.522,-5.905m-26.369,-12.402c10.601,0 20.085,4.827 26.369,12.402" style="fill:none;stroke:rgb(0,0,255);stroke-width:1.77px;"/>
        </g>
        <g transform="matrix(-1,0,0,1,1743.31,-1.56319e-13)">
            <path d="M930.709,67.323c-11.666,0 -21.978,-5.845 -28.164,-14.764l-4.522,-5.905m-26.369,-12.402c10.601,0 20.085,4.827 26.369,12.402" style="fill:none;stroke:rgb(0,0,255);stroke-width:1.77px;"/>
        </g>
    </g>
    <g id="_3mmTransparentAcrylic_Open" serif:id="3mmTransparentAcrylic_Open" transform="matrix(0.333333,0,0,0.333333,0,0)">
        <g transform="matrix(0.837085,0,0,1,237.002,-163.383)">
            <path d="M717.251,266.139l1101.97,0" style="fill:none;stroke:rgb(0,0,255);stroke-width:1.92px;"/>
        </g>
        <g transform="matrix(0.0943194,0,0,1,535.893,-163.383)">
            <path d="M717.251,266.139l1101.97,0" style="fill:none;stroke:rgb(0,0,255);stroke-width:2.49px;"/>
        </g>
        <g transform="matrix(1.90326e-18,0.0310825,-1,6.12323e-17,973.619,46.21)">
            <path d="M717.251,266.139l1101.97,0" style="fill:none;stroke:rgb(0,0,255);stroke-width:2.5px;"/>
        </g>
        <g transform="matrix(1.90326e-18,0.0310825,-1,6.12323e-17,1103.54,46.21)">
            <path d="M717.251,266.139l1101.97,0" style="fill:none;stroke:rgb(0,0,255);stroke-width:2.5px;"/>
        </g>
        <g transform="matrix(6.73359e-17,1.09968,-1,6.12323e-17,2025.98,-685.99)">
            <path d="M717.251,266.139l1101.97,0" style="fill:none;stroke:rgb(0,0,255);stroke-width:1.69px;"/>
        </g>
        <g transform="matrix(6.73359e-17,-1.09968,1.02347,6.26694e-17,331.158,2103.31)">
            <path d="M717.251,266.139l1101.97,0" style="fill:none;stroke:rgb(0,0,255);stroke-width:1.67px;"/>
        </g>
        <g transform="matrix(0.533762,1.2326e-32,0,1.02347,245.505,1078.21)">
            <path d="M717.251,266.139l1101.97,0" style="fill:none;stroke:rgb(0,0,255);stroke-width:2.17px;"/>
        </g>
        <g transform="matrix(0.0262594,1.2326e-32,0,1.02347,1686.68,1077.62)">
            <path d="M717.251,266.139l1101.97,0" style="fill:none;stroke:rgb(0,0,255);stroke-width:2.45px;"/>
        </g>
        <g transform="matrix(0.0493033,1.2326e-32,0,1.02347,1670.15,1042.18)">
            <path d="M717.251,266.139l1101.97,0" style="fill:none;stroke:rgb(0,0,255);stroke-width:2.45px;"/>
        </g>
        <g transform="matrix(6.45466e-17,-1.05413,1.75385,1.07392e-16,101.344,2045.25)">
            <path d="M717.251,266.139l1101.97,0" style="fill:none;stroke:rgb(0,0,255);stroke-width:1.22px;"/>
        </g>
        <g transform="matrix(0.640943,-2.46519e-32,-7.14236e-33,1.75385,143.826,847.8)">
            <path d="M717.251,266.139l1101.97,0" style="fill:none;stroke:rgb(0,0,255);stroke-width:1.34px;"/>
        </g>
        <g transform="matrix(1.96889e-18,0.0321543,-1.75385,1.07392e-16,2172.28,1291.5)">
            <path d="M717.251,266.139l1101.97,0" style="fill:none;stroke:rgb(0,0,255);stroke-width:1.43px;"/>
        </g>
        <g transform="matrix(1.93607e-18,0.0316184,-1.75385,1.07392e-16,1776.61,1291.89)">
            <path d="M717.251,266.139l1101.97,0" style="fill:none;stroke:rgb(0,0,255);stroke-width:1.43px;"/>
        </g>
        <g transform="matrix(0.731511,-3.08149e-33,0,1,404.26,-198.816)">
            <path d="M717.251,266.139l1101.97,0" style="fill:none;stroke:rgb(0,0,255);stroke-width:2.02px;"/>
        </g>
        <g transform="matrix(6.45794e-17,1.05466,-1,6.12323e-17,2061.41,-628.899)">
            <path d="M717.251,266.139l1101.97,0" style="fill:none;stroke:rgb(0,0,255);stroke-width:1.72px;"/>
        </g>
        <g transform="matrix(1,0,0,1,5.90551,-10.6299)">
            <circle cx="865.748" cy="79.134" r="17.717" style="fill:none;stroke:rgb(0,0,255);stroke-width:1.77px;"/>
        </g>
        <path d="M930.709,67.323c-11.666,0 -21.978,-5.845 -28.164,-14.764l-4.522,-5.905m-26.369,-12.402c10.601,0 20.085,4.827 26.369,12.402" style="fill:none;stroke:rgb(0,0,255);stroke-width:1.77px;"/>
        <g transform="matrix(6.12323e-17,1,1,-6.12323e-17,500.787,-803.15)">
            <path d="M930.709,67.323c-11.666,0 -21.978,-5.845 -28.164,-14.764l-4.522,-5.905m-26.369,-12.402c10.601,0 20.085,4.827 26.369,12.402" style="fill:none;stroke:rgb(0,0,255);stroke-width:1.77px;"/>
        </g>
        <path d="M646.858,46.654l-4.521,5.905c-12.781,18.428 -28.783,18.428 -41.564,0l-4.521,-5.905m76.976,-12.402c-10.601,0 -20.085,4.827 -26.37,12.402m-76.976,-12.402c10.602,0 20.085,4.827 26.37,12.402" style="fill:none;stroke:rgb(0,0,255);stroke-width:1.77px;"/>
        <g transform="matrix(-1,0,0,1,2665.75,-1.56319e-13)">
            <path d="M930.709,67.323c-11.666,0 -21.978,-5.845 -28.164,-14.764l-4.522,-5.905m-26.369,-12.402c10.601,0 20.085,4.827 26.369,12.402" style="fill:none;stroke:rgb(0,0,255);stroke-width:1.77px;"/>
        </g>
        <g transform="matrix(-6.12323e-17,1,-1,-6.12323e-17,1862.6,-803.15)">
            <path d="M930.709,67.323c-11.666,0 -21.978,-5.845 -28.164,-14.764l-4.522,-5.905m-26.369,-12.402c10.601,0 20.085,4.827 26.369,12.402" style="fill:none;stroke:rgb(0,0,255);stroke-width:1.77px;"/>
        </g>
        <g transform="matrix(-6.12323e-17,-1,-1,6.12323e-17,1862.6,2220.47)">
            <path d="M930.709,67.323c-11.666,0 -21.978,-5.845 -28.164,-14.764l-4.522,-5.905m-26.369,-12.402c10.601,0 20.085,4.827 26.369,12.402" style="fill:none;stroke:rgb(0,0,255);stroke-width:1.77px;"/>
        </g>
        <g transform="matrix(1,1.22465e-16,-1.22465e-16,1,862.795,1315.75)">
            <path d="M930.709,67.323c-11.666,0 -21.978,-5.845 -28.164,-14.764l-4.522,-5.905m-26.369,-12.402c10.601,0 20.085,4.827 26.369,12.402" style="fill:none;stroke:rgb(0,0,255);stroke-width:1.77px;"/>
        </g>
        <g transform="matrix(1,1.22465e-16,-1.22465e-16,1,344.882,1316.34)">
            <path d="M930.709,67.323c-11.666,0 -21.978,-5.845 -28.164,-14.764l-4.522,-5.905m-26.369,-12.402c10.601,0 20.085,4.827 26.369,12.402" style="fill:none;stroke:rgb(0,0,255);stroke-width:1.77px;"/>
        </g>
        <g transform="matrix(-1,1.22465e-16,1.22465e-16,1,1500,1316.34)">
            <path d="M930.709,67.323c-11.666,0 -21.978,-5.845 -28.164,-14.764l-4.522,-5.905m-26.369,-12.402c10.601,0 20.085,4.827 26.369,12.402" style="fill:none;stroke:rgb(0,0,255);stroke-width:1.77px;"/>
        </g>
        <g transform="matrix(6.12323e-17,-1,1,6.12323e-17,500.787,2220.47)">
            <path d="M930.709,67.323c-11.666,0 -21.978,-5.845 -28.164,-14.764l-4.522,-5.905m-26.369,-12.402c10.601,0 20.085,4.827 26.369,12.402" style="fill:none;stroke:rgb(0,0,255);stroke-width:1.77px;"/>
        </g>
        <g transform="matrix(1,0,0,1,928.346,-10.6299)">
            <circle cx="865.748" cy="79.134" r="17.717" style="fill:none;stroke:rgb(0,0,255);stroke-width:1.77px;"/>
        </g>
        <g transform="matrix(1,0,0,1,928.346,1269.69)">
            <circle cx="865.748" cy="79.134" r="17.717" style="fill:none;stroke:rgb(0,0,255);stroke-width:1.77px;"/>
        </g>
        <g transform="matrix(1,0,0,1,-296.457,1269.69)">
            <circle cx="865.748" cy="79.134" r="17.717" style="fill:none;stroke:rgb(0,0,255);stroke-width:1.77px;"/>
        </g>
        <g transform="matrix(1,0,0,1,409.843,1269.69)">
            <circle cx="865.748" cy="79.134" r="17.717" style="fill:none;stroke:rgb(0,0,255);stroke-width:1.77px;"/>
        </g>
        <g transform="matrix(1.93333,0,0,1.93333,-398.189,1196.42)">
            <path d="M883.465,79.134c0,9.778 -7.939,17.716 -17.717,17.716" style="fill:none;stroke:rgb(0,0,255);stroke-width:0.92px;"/>
        </g>
        <g transform="matrix(1,0,0,1,-192.52,-10.6299)">
            <circle cx="865.748" cy="79.134" r="17.717" style="fill:none;stroke:rgb(0,0,255);stroke-width:1.77px;"/>
        </g>
        <g transform="matrix(1,0,0,1,-296.457,-10.6299)">
            <circle cx="865.748" cy="79.134" r="17.717" style="fill:none;stroke:rgb(0,0,255);stroke-width:1.77px;"/>
        </g>
        <g transform="matrix(1.31818,0,0,1.34091,-489.889,-105.118)">
            <path d="M1732.68,103.937c14.341,0 25.984,11.643 25.984,25.984" style="fill:none;stroke:rgb(0,0,255);stroke-width:1.33px;"/>
        </g>
        <g transform="matrix(8.07154e-17,1.31818,-1.34091,8.2107e-17,1967.72,-935.165)">
            <path d="M1732.68,103.937c14.341,0 25.984,11.643 25.984,25.984" style="fill:none;stroke:rgb(0,0,255);stroke-width:1.33px;"/>
        </g>
        <g transform="matrix(8.07154e-17,-1.31818,1.34091,8.2107e-17,395.669,2352.49)">
            <path d="M1732.68,103.937c14.341,0 25.984,11.643 25.984,25.984" style="fill:none;stroke:rgb(0,0,255);stroke-width:1.33px;"/>
        </g>
        <g transform="matrix(8.07154e-17,-1.31818,1.31818,8.07154e-17,700.394,2352.49)">
            <path d="M1732.68,103.937c14.341,0 25.984,11.643 25.984,25.984" style="fill:none;stroke:rgb(0,0,255);stroke-width:1.34px;"/>
        </g>
        <g transform="matrix(1.31818,0,0,1.31818,-1610.76,-102.756)">
            <path d="M1732.68,103.937c14.341,0 25.984,11.643 25.984,25.984" style="fill:none;stroke:rgb(0,0,255);stroke-width:1.34px;"/>
        </g>
        <g transform="matrix(-1.31818,1.61431e-16,-1.64214e-16,-1.34091,2853.27,1523.03)">
            <path d="M1732.68,103.937c14.341,0 25.984,11.643 25.984,25.984" style="fill:none;stroke:rgb(0,0,255);stroke-width:1.33px;"/>
        </g>
    </g>
    <g id="_4.5mmBlackAcrylic_Closed" serif:id="4.5mmBlackAcrylic_Closed" transform="matrix(0.333333,0,0,0.333333,0,0)">
        <g transform="matrix(1.0493,0,0,1,-149.071,-163.383)">
            <path d="M717.251,266.139l1101.97,0" style="fill:none;stroke:rgb(0,0,255);stroke-width:1.73px;"/>
        </g>
        <g transform="matrix(6.73359e-17,1.09968,-1,6.12323e-17,2025.98,-685.99)">
            <path d="M717.251,266.139l1101.97,0" style="fill:none;stroke:rgb(0,0,255);stroke-width:1.69px;"/>
        </g>
        <g transform="matrix(6.73359e-17,-1.09968,1.02347,6.26694e-17,331.158,2103.31)">
            <path d="M717.251,266.139l1101.97,0" style="fill:none;stroke:rgb(0,0,255);stroke-width:1.67px;"/>
        </g>
        <g transform="matrix(0.533762,1.2326e-32,0,1.02347,245.505,1078.21)">
            <path d="M717.251,266.139l1101.97,0" style="fill:none;stroke:rgb(0,0,255);stroke-width:2.17px;"/>
        </g>
        <g transform="matrix(0.0262594,1.2326e-32,0,1.02347,1686.68,1077.62)">
            <path d="M717.251,266.139l1101.97,0" style="fill:none;stroke:rgb(0,0,255);stroke-width:2.45px;"/>
        </g>
        <g transform="matrix(0.0493033,1.2326e-32,0,1.02347,1670.15,1042.18)">
            <path d="M717.251,266.139l1101.97,0" style="fill:none;stroke:rgb(0,0,255);stroke-width:2.45px;"/>
        </g>
        <g transform="matrix(6.45466e-17,-1.05413,1.75385,1.07392e-16,101.344,2045.25)">
            <path d="M717.251,266.139l1101.97,0" style="fill:none;stroke:rgb(0,0,255);stroke-width:1.22px;"/>
        </g>
        <g transform="matrix(0.640943,-2.46519e-32,-7.14236e-33,1.75385,143.826,847.8)">
            <path d="M717.251,266.139l1101.97,0" style="fill:none;stroke:rgb(0,0,255);stroke-width:1.34px;"/>
        </g>
        <g transform="matrix(1.96889e-18,0.0321543,-1.75385,1.07392e-16,2172.28,1291.5)">
            <path d="M717.251,266.139l1101.97,0" style="fill:none;stroke:rgb(0,0,255);stroke-width:1.43px;"/>
        </g>
        <g transform="matrix(1.93607e-18,0.0316184,-1.75385,1.07392e-16,1776.61,1291.89)">
            <path d="M717.251,266.139l1101.97,0" style="fill:none;stroke:rgb(0,0,255);stroke-width:1.43px;"/>
        </g>
        <g transform="matrix(0.0728832,-4.98908e-33,0,1.61905,680.008,-363.569)">
            <path d="M717.251,266.139l1101.97,0" style="fill:none;stroke:rgb(0,0,255);stroke-width:1.55px;"/>
        </g>
        <g transform="matrix(0.731511,-3.08149e-33,0,1,404.26,-198.816)">
            <path d="M717.251,266.139l1101.97,0" style="fill:none;stroke:rgb(0,0,255);stroke-width:2.02px;"/>
        </g>
        <g transform="matrix(6.45794e-17,1.05466,-1,6.12323e-17,2061.41,-628.899)">
            <path d="M717.251,266.139l1101.97,0" style="fill:none;stroke:rgb(0,0,255);stroke-width:1.72px;"/>
        </g>
        <g transform="matrix(1,0,0,1,5.90551,-10.6299)">
            <circle cx="865.748" cy="79.134" r="17.717" style="fill:none;stroke:rgb(0,0,255);stroke-width:1.77px;"/>
        </g>
        <path d="M930.709,67.323c-11.666,0 -21.978,-5.845 -28.164,-14.764l-4.522,-5.905m-26.369,-12.402c10.601,0 20.085,4.827 26.369,12.402" style="fill:none;stroke:rgb(0,0,255);stroke-width:1.77px;"/>
        <g transform="matrix(1,0,0,1,-198.425,0)">
            <path d="M930.709,67.323c-11.666,0 -21.978,-5.845 -28.164,-14.764l-4.522,-5.905m-26.369,-12.402c10.601,0 20.085,4.827 26.369,12.402" style="fill:none;stroke:rgb(0,0,255);stroke-width:1.77px;"/>
        </g>
        <g transform="matrix(6.12323e-17,1,1,-6.12323e-17,500.787,-803.15)">
            <path d="M930.709,67.323c-11.666,0 -21.978,-5.845 -28.164,-14.764l-4.522,-5.905m-26.369,-12.402c10.601,0 20.085,4.827 26.369,12.402" style="fill:none;stroke:rgb(0,0,255);stroke-width:1.77px;"/>
        </g>
        <g transform="matrix(-1,0,0,1,1743.31,-1.56319e-13)">
            <path d="M930.709,67.323c-11.666,0 -21.978,-5.845 -28.164,-14.764l-4.522,-5.905m-26.369,-12.402c10.601,0 20.085,4.827 26.369,12.402" style="fill:none;stroke:rgb(0,0,255);stroke-width:1.77px;"/>
        </g>
        <path d="M646.858,46.654l-4.521,5.905c-12.781,18.428 -28.783,18.428 -41.564,0l-4.521,-5.905m76.976,-12.402c-10.601,0 -20.085,4.827 -26.37,12.402m-76.976,-12.402c10.602,0 20.085,4.827 26.37,12.402" style="fill:none;stroke:rgb(0,0,255);stroke-width:1.77px;"/>
        <g transform="matrix(-1,0,0,1,2665.75,-1.56319e-13)">
            <path d="M930.709,67.323c-11.666,0 -21.978,-5.845 -28.164,-14.764l-4.522,-5.905m-26.369,-12.402c10.601,0 20.085,4.827 26.369,12.402" style="fill:none;stroke:rgb(0,0,255);stroke-width:1.77px;"/>
        </g>
        <g transform="matrix(-6.12323e-17,1,-1,-6.12323e-17,1862.6,-803.15)">
            <path d="M930.709,67.323c-11.666,0 -21.978,-5.845 -28.164,-14.764l-4.522,-5.905m-26.369,-12.402c10.601,0 20.085,4.827 26.369,12.402" style="fill:none;stroke:rgb(0,0,255);stroke-width:1.77px;"/>
        </g>
        <g transform="matrix(-6.12323e-17,-1,-1,6.12323e-17,1862.6,2220.47)">
            <path d="M930.709,67.323c-11.666,0 -21.978,-5.845 -28.164,-14.764l-4.522,-5.905m-26.369,-12.402c10.601,0 20.085,4.827 26.369,12.402" style="fill:none;stroke:rgb(0,0,255);stroke-width:1.77px;"/>
        </g>
        <g transform="matrix(1,1.22465e-16,-1.22465e-16,1,862.795,1315.75)">
            <path d="M930.709,67.323c-11.666,0 -21.978,-5.845 -28.164,-14.764l-4.522,-5.905m-26.369,-12.402c10.601,0 20.085,4.827 26.369,12.402" style="fill:none;stroke:rgb(0,0,255);stroke-width:1.77px;"/>
        </g>
        <g transform="matrix(1,1.22465e-16,-1.22465e-16,1,344.882,1316.34)">
            <path d="M930.709,67.323c-11.666,0 -21.978,-5.845 -28.164,-14.764l-4.522,-5.905m-26.369,-12.402c10.601,0 20.085,4.827 26.369,12.402" style="fill:none;stroke:rgb(0,0,255);stroke-width:1.77px;"/>
        </g>
        <g transform="matrix(-1,1.22465e-16,1.22465e-16,1,1500,1316.34)">
            <path d="M930.709,67.323c-11.666,0 -21.978,-5.845 -28.164,-14.764l-4.522,-5.905m-26.369,-12.402c10.601,0 20.085,4.827 26.369,12.402" style="fill:none;stroke:rgb(0,0,255);stroke-width:1.77px;"/>
        </g>
        <g transform="matrix(6.12323e-17,-1,1,6.12323e-17,500.787,2220.47)">
            <path d="M930.709,67.323c-11.666,0 -21.978,-5.845 -28.164,-14.764l-4.522,-5.905m-26.369,-12.402c10.601,0 20.085,4.827 26.369,12.402" style="fill:none;stroke:rgb(0,0,255);stroke-width:1.77px;"/>
        </g>
        <g transform="matrix(1,0,0,1,928.346,-10.6299)">
            <circle cx="865.748" cy="79.134" r="17.717" style="fill:none;stroke:rgb(0,0,255);stroke-width:1.77px;"/>
        </g>
        <g transform="matrix(1,0,0,1,928.346,1269.69)">
            <circle cx="865.748" cy="79.134" r="17.717" style="fill:none;stroke:rgb(0,0,255);stroke-width:1.77px;"/>
        </g>
        <g transform="matrix(1,0,0,1,-296.457,1269.69)">
            <circle cx="865.748" cy="79.134" r="17.717" style="fill:none;stroke:rgb(0,0,255);stroke-width:1.77px;"/>
        </g>
        <g transform="matrix(1,0,0,1,409.843,1269.69)">
            <circle cx="865.748" cy="79.134" r="17.717" style="fill:none;stroke:rgb(0,0,255);stroke-width:1.77px;"/>
        </g>
        <g transform="matrix(1.93333,0,0,1.93333,-398.189,1196.42)">
            <path d="M883.465,79.134c0,9.778 -7.939,17.716 -17.717,17.716" style="fill:none;stroke:rgb(0,0,255);stroke-width:0.92px;"/>
        </g>
        <g transform="matrix(1,0,0,1,-192.52,-10.6299)">
            <circle cx="865.748" cy="79.134" r="17.717" style="fill:none;stroke:rgb(0,0,255);stroke-width:1.77px;"/>
        </g>
        <g transform="matrix(1,0,0,1,-296.457,-10.6299)">
            <circle cx="865.748" cy="79.134" r="17.717" style="fill:none;stroke:rgb(0,0,255);stroke-width:1.77px;"/>
        </g>
        <g transform="matrix(1.31818,0,0,1.34091,-489.889,-105.118)">
            <path d="M1732.68,103.937c14.341,0 25.984,11.643 25.984,25.984" style="fill:none;stroke:rgb(0,0,255);stroke-width:1.33px;"/>
        </g>
        <g transform="matrix(8.07154e-17,1.31818,-1.34091,8.2107e-17,1967.72,-935.165)">
            <path d="M1732.68,103.937c14.341,0 25.984,11.643 25.984,25.984" style="fill:none;stroke:rgb(0,0,255);stroke-width:1.33px;"/>
        </g>
        <g transform="matrix(8.07154e-17,-1.31818,1.34091,8.2107e-17,395.669,2352.49)">
            <path d="M1732.68,103.937c14.341,0 25.984,11.643 25.984,25.984" style="fill:none;stroke:rgb(0,0,255);stroke-width:1.33px;"/>
        </g>
        <g transform="matrix(-1.31818,1.61431e-16,-1.64214e-16,-1.34091,2853.27,1523.03)">
            <path d="M1732.68,103.937c14.341,0 25.984,11.643 25.984,25.984" style="fill:none;stroke:rgb(0,0,255);stroke-width:1.33px;"/>
        </g>
    </g>
    <g id="_1.5mmStainlessSteel_Plate" serif:id="1.5mmStainlessSteel_Plate" transform="matrix(0.333333,0,0,0.333333,0,0)">
        <g transform="matrix(1,0,0,1,0.590551,1.77165)">
            <path d="M1098.42,204.331l0,11.811l-9.449,0l0,36.614l9.449,0l0,68.504l-8.858,0l0,36.614l8.858,0l0,11.811l165.355,0l0,-11.811l9.448,0l0,-36.614l-9.448,0l0,-68.504l9.448,0l0,-36.614l-9.448,0l0,-11.811l-165.355,0Z" style="fill:none;stroke:rgb(0,0,255);stroke-width:1.77px;"/>
        </g>
        <g transform="matrix(1,0,0,1,0.590551,226.181)">
            <path d="M1098.42,204.331l0,11.811l-9.449,0l0,36.614l9.449,0l0,68.504l-8.858,0l0,36.614l8.858,0l0,11.811l165.355,0l0,-11.811l9.448,0l0,-36.614l-9.448,0l0,-68.504l9.448,0l0,-36.614l-9.448,0l0,-11.811l-165.355,0Z" style="fill:none;stroke:rgb(0,0,255);stroke-width:1.77px;"/>
        </g>
        <g transform="matrix(1,0,0,1,0.590551,450.591)">
            <path d="M1098.42,204.331l0,11.811l-9.449,0l0,36.614l9.449,0l0,68.504l-8.858,0l0,36.614l8.858,0l0,11.811l165.355,0l0,-11.811l9.448,0l0,-36.614l-9.448,0l0,-68.504l9.448,0l0,-36.614l-9.448,0l0,-11.811l-165.355,0Z" style="fill:none;stroke:rgb(0,0,255);stroke-width:1.77px;"/>
        </g>
        <g transform="matrix(1,0,0,1,0.590551,675)">
            <path d="M1098.42,204.331l0,11.811l-9.449,0l0,36.614l9.449,0l0,68.504l-8.858,0l0,36.614l8.858,0l0,11.811l165.355,0l0,-11.811l9.448,0l0,-36.614l-9.448,0l0,-68.504l9.448,0l0,-36.614l-9.448,0l0,-11.811l-165.355,0Z" style="fill:none;stroke:rgb(0,0,255);stroke-width:1.77px;"/>
        </g>
        <g transform="matrix(1,0,0,1,0.590551,899.409)">
            <path d="M1098.42,204.331l0,11.811l-9.449,0l0,36.614l9.449,0l0,68.504l-8.858,0l0,36.614l8.858,0l0,11.811l165.355,0l0,-11.811l9.448,0l0,-36.614l-9.448,0l0,-68.504l9.448,0l0,-36.614l-9.448,0l0,-11.811l-165.355,0Z" style="fill:none;stroke:rgb(0,0,255);stroke-width:1.77px;"/>
        </g>
        <g transform="matrix(1,0,0,1,225.591,-54.9213)">
            <path d="M1098.42,204.331l0,11.811l-9.449,0l0,36.614l9.449,0l0,68.504l-8.858,0l0,36.614l8.858,0l0,11.811l165.355,0l0,-11.811l9.448,0l0,-36.614l-9.448,0l0,-68.504l9.448,0l0,-36.614l-9.448,0l0,-11.811l-165.355,0Z" style="fill:none;stroke:rgb(0,0,255);stroke-width:1.77px;"/>
        </g>
        <g transform="matrix(1,0,0,1,225.591,169.488)">
            <path d="M1098.42,204.331l0,11.811l-9.449,0l0,36.614l9.449,0l0,68.504l-8.858,0l0,36.614l8.858,0l0,11.811l165.355,0l0,-11.811l9.448,0l0,-36.614l-9.448,0l0,-68.504l9.448,0l0,-36.614l-9.448,0l0,-11.811l-165.355,0Z" style="fill:none;stroke:rgb(0,0,255);stroke-width:1.77px;"/>
        </g>
        <g transform="matrix(1,0,0,1,225.591,393.898)">
            <path d="M1098.42,204.331l0,11.811l-9.449,0l0,36.614l9.449,0l0,68.504l-8.858,0l0,36.614l8.858,0l0,11.811l165.355,0l0,-11.811l9.448,0l0,-36.614l-9.448,0l0,-68.504l9.448,0l0,-36.614l-9.448,0l0,-11.811l-165.355,0Z" style="fill:none;stroke:rgb(0,0,255);stroke-width:1.77px;"/>
        </g>
        <g transform="matrix(1,0,0,1,225.591,618.307)">
            <path d="M1098.42,204.331l0,11.811l-9.449,0l0,36.614l9.449,0l0,68.504l-8.858,0l0,36.614l8.858,0l0,11.811l165.355,0l0,-11.811l9.448,0l0,-36.614l-9.448,0l0,-68.504l9.448,0l0,-36.614l-9.448,0l0,-11.811l-165.355,0Z" style="fill:none;stroke:rgb(0,0,255);stroke-width:1.77px;"/>
        </g>
        <g transform="matrix(1,0,0,1,225.591,842.717)">
            <path d="M1098.42,204.331l0,11.811l-9.449,0l0,36.614l9.449,0l0,68.504l-8.858,0l0,36.614l8.858,0l0,11.811l165.355,0l0,-11.811l9.448,0l0,-36.614l-9.448,0l0,-68.504l9.448,0l0,-36.614l-9.448,0l0,-11.811l-165.355,0Z" style="fill:none;stroke:rgb(0,0,255);stroke-width:1.77px;"/>
        </g>
        <g transform="matrix(1,0,0,1,450,-54.9213)">
            <path d="M1098.42,204.331l0,11.811l-9.449,0l0,36.614l9.449,0l0,68.504l-8.858,0l0,36.614l8.858,0l0,11.811l165.355,0l0,-11.811l9.448,0l0,-36.614l-9.448,0l0,-68.504l9.448,0l0,-36.614l-9.448,0l0,-11.811l-165.355,0Z" style="fill:none;stroke:rgb(0,0,255);stroke-width:1.77px;"/>
        </g>
        <g transform="matrix(1,0,0,1,450,169.488)">
            <path d="M1098.42,204.331l0,11.811l-9.449,0l0,36.614l9.449,0l0,68.504l-8.858,0l0,36.614l8.858,0l0,11.811l165.355,0l0,-11.811l9.448,0l0,-36.614l-9.448,0l0,-68.504l9.448,0l0,-36.614l-9.448,0l0,-11.811l-165.355,0Z" style="fill:none;stroke:rgb(0,0,255);stroke-width:1.77px;"/>
        </g>
        <g transform="matrix(1,0,0,1,450,393.898)">
            <path d="M1098.42,204.331l0,11.811l-9.449,0l0,36.614l9.449,0l0,68.504l-8.858,0l0,36.614l8.858,0l0,11.811l165.355,0l0,-11.811l9.448,0l0,-36.614l-9.448,0l0,-68.504l9.448,0l0,-36.614l-9.448,0l0,-11.811l-165.355,0Z" style="fill:none;stroke:rgb(0,0,255);stroke-width:1.77px;"/>
        </g>
        <g transform="matrix(1,0,0,1,450,618.307)">
            <path d="M1098.42,204.331l0,11.811l-9.449,0l0,36.614l9.449,0l0,68.504l-8.858,0l0,36.614l8.858,0l0,11.811l165.355,0l0,-11.811l9.448,0l0,-36.614l-9.448,0l0,-68.504l9.448,0l0,-36.614l-9.448,0l0,-11.811l-165.355,0Z" style="fill:none;stroke:rgb(0,0,255);stroke-width:1.77px;"/>
        </g>
        <g transform="matrix(1,0,0,1,450,842.717)">
            <path d="M1098.42,204.331l0,11.811l-9.449,0l0,36.614l9.449,0l0,68.504l-8.858,0l0,36.614l8.858,0l0,11.811l165.355,0l0,-11.811l9.448,0l0,-36.614l-9.448,0l0,-68.504l9.448,0l0,-36.614l-9.448,0l0,-11.811l-165.355,0Z" style="fill:none;stroke:rgb(0,0,255);stroke-width:1.77px;"/>
        </g>
        <g transform="matrix(1,0,0,1,-223.228,-54.9213)">
            <path d="M1098.42,204.331l0,11.811l-9.449,0l0,36.614l9.449,0l0,68.504l-8.858,0l0,36.614l8.858,0l0,11.811l165.355,0l0,-11.811l9.448,0l0,-36.614l-9.448,0l0,-68.504l9.448,0l0,-36.614l-9.448,0l0,-11.811l-165.355,0Z" style="fill:none;stroke:rgb(0,0,255);stroke-width:1.77px;"/>
        </g>
        <g transform="matrix(1,0,0,1,-223.228,169.488)">
            <path d="M1098.42,204.331l0,11.811l-9.449,0l0,36.614l9.449,0l0,68.504l-8.858,0l0,36.614l8.858,0l0,11.811l165.355,0l0,-11.811l9.448,0l0,-36.614l-9.448,0l0,-68.504l9.448,0l0,-36.614l-9.448,0l0,-11.811l-165.355,0Z" style="fill:none;stroke:rgb(0,0,255);stroke-width:1.77px;"/>
        </g>
        <g transform="matrix(1,0,0,1,-223.228,393.898)">
            <path d="M1098.42,204.331l0,11.811l-9.449,0l0,36.614l9.449,0l0,68.504l-8.858,0l0,36.614l8.858,0l0,11.811l165.355,0l0,-11.811l9.448,0l0,-36.614l-9.448,0l0,-68.504l9.448,0l0,-36.614l-9.448,0l0,-11.811l-165.355,0Z" style="fill:none;stroke:rgb(0,0,255);stroke-width:1.77px;"/>
        </g>
        <g transform="matrix(1,0,0,1,-223.228,618.307)">
            <path d="M1098.42,204.331l0,11.811l-9.449,0l0,36.614l9.449,0l0,68.504l-8.858,0l0,36.614l8.858,0l0,11.811l165.355,0l0,-11.811l9.448,0l0,-36.614l-9.448,0l0,-68.504l9.448,0l0,-36.614l-9.448,0l0,-11.811l-165.355,0Z" style="fill:none;stroke:rgb(0,0,255);stroke-width:1.77px;"/>
        </g>
        <g transform="matrix(1,0,0,1,-223.228,842.717)">
            <path d="M1098.42,204.331l0,11.811l-9.449,0l0,36.614l9.449,0l0,68.504l-8.858,0l0,36.614l8.858,0l0,11.811l165.355,0l0,-11.811l9.448,0l0,-36.614l-9.448,0l0,-68.504l9.448,0l0,-36.614l-9.448,0l0,-11.811l-165.355,0Z" style="fill:none;stroke:rgb(0,0,255);stroke-width:1.77px;"/>
        </g>
        <g transform="matrix(1,0,0,1,-447.638,1.1811)">
            <path d="M1098.42,204.331l0,11.811l-9.449,0l0,36.614l9.449,0l0,68.504l-8.858,0l0,36.614l8.858,0l0,11.811l165.355,0l0,-11.811l9.448,0l0,-36.614l-9.448,0l0,-68.504l9.448,0l0,-36.614l-9.448,0l0,-11.811l-165.355,0Z" style="fill:none;stroke:rgb(0,0,255);stroke-width:1.77px;"/>
        </g>
        <g transform="matrix(1,0,0,1,-447.638,225.591)">
            <path d="M1098.42,204.331l0,11.811l-9.449,0l0,36.614l9.449,0l0,68.504l-8.858,0l0,36.614l8.858,0l0,11.811l165.355,0l0,-11.811l9.448,0l0,-36.614l-9.448,0l0,-68.504l9.448,0l0,-36.614l-9.448,0l0,-11.811l-165.355,0Z" style="fill:none;stroke:rgb(0,0,255);stroke-width:1.77px;"/>
        </g>
        <g transform="matrix(1,0,0,1,-447.638,450)">
            <path d="M1098.42,204.331l0,11.811l-9.449,0l0,36.614l9.449,0l0,68.504l-8.858,0l0,36.614l8.858,0l0,11.811l165.355,0l0,-11.811l9.448,0l0,-36.614l-9.448,0l0,-68.504l9.448,0l0,-36.614l-9.448,0l0,-11.811l-165.355,0Z" style="fill:none;stroke:rgb(0,0,255);stroke-width:1.77px;"/>
        </g>
        <g transform="matrix(1,0,0,1,-447.638,674.409)">
            <path d="M1098.42,204.331l0,11.811l-9.449,0l0,36.614l9.449,0l0,68.504l-8.858,0l0,36.614l8.858,0l0,11.811l165.355,0l0,-11.811l9.448,0l0,-36.614l-9.448,0l0,-68.504l9.448,0l0,-36.614l-9.448,0l0,-11.811l-165.355,0Z" style="fill:none;stroke:rgb(0,0,255);stroke-width:1.77px;"/>
        </g>
        <g transform="matrix(1,0,0,1,-447.638,898.819)">
            <path d="M1098.42,204.331l0,11.811l-9.449,0l0,36.614l9.449,0l0,68.504l-8.858,0l0,36.614l8.858,0l0,11.811l165.355,0l0,-11.811l9.448,0l0,-36.614l-9.448,0l0,-68.504l9.448,0l0,-36.614l-9.448,0l0,-11.811l-165.355,0Z" style="fill:none;stroke:rgb(0,0,255);stroke-width:1.77px;"/>
        </g>
        <g transform="matrix(0.533762,1.2326e-32,0,1.02347,245.505,1078.21)">
            <path d="M717.251,266.139l1101.97,0" style="fill:none;stroke:rgb(0,0,255);stroke-width:2.17px;"/>
        </g>
        <g transform="matrix(6.45794e-17,-1.05466,1.75385,1.07392e-16,101.344,2046.22)">
            <path d="M717.251,266.139l1101.97,0" style="fill:none;stroke:rgb(0,0,255);stroke-width:1.22px;"/>
        </g>
        <g transform="matrix(0.0728832,-4.98908e-33,0,1.61905,680.008,-363.569)">
            <path d="M717.251,266.139l1101.97,0" style="fill:none;stroke:rgb(0,0,255);stroke-width:1.55px;"/>
        </g>
        <g transform="matrix(0.731511,-3.08149e-33,0,1,404.26,-198.816)">
            <path d="M717.251,266.139l1101.97,0" style="fill:none;stroke:rgb(0,0,255);stroke-width:2.02px;"/>
        </g>
        <g transform="matrix(6.45794e-17,1.05466,-1,6.12323e-17,2061.41,-628.899)">
            <path d="M717.251,266.139l1101.97,0" style="fill:none;stroke:rgb(0,0,255);stroke-width:1.72px;"/>
        </g>
        <g transform="matrix(1,0,0,1,5.90551,-10.6299)">
            <circle cx="865.748" cy="79.134" r="17.717" style="fill:none;stroke:rgb(0,0,255);stroke-width:1.77px;"/>
        </g>
        <path d="M930.709,67.323c-11.666,0 -21.978,-5.845 -28.164,-14.764l-4.522,-5.905m-26.369,-12.402c10.601,0 20.085,4.827 26.369,12.402" style="fill:none;stroke:rgb(0,0,255);stroke-width:1.77px;"/>
        <g transform="matrix(1,0,0,1,-198.425,0)">
            <path d="M930.709,67.323c-11.666,0 -21.978,-5.845 -28.164,-14.764l-4.522,-5.905m-26.369,-12.402c10.601,0 20.085,4.827 26.369,12.402" style="fill:none;stroke:rgb(0,0,255);stroke-width:1.77px;"/>
        </g>
        <g transform="matrix(6.12323e-17,1,1,-6.12323e-17,500.787,-803.15)">
            <path d="M930.709,67.323c-11.666,0 -21.978,-5.845 -28.164,-14.764l-4.522,-5.905m-26.369,-12.402c10.601,0 20.085,4.827 26.369,12.402" style="fill:none;stroke:rgb(0,0,255);stroke-width:1.77px;"/>
        </g>
        <g transform="matrix(-1,0,0,1,1743.31,-1.56319e-13)">
            <path d="M930.709,67.323c-11.666,0 -21.978,-5.845 -28.164,-14.764l-4.522,-5.905m-26.369,-12.402c10.601,0 20.085,4.827 26.369,12.402" style="fill:none;stroke:rgb(0,0,255);stroke-width:1.77px;"/>
        </g>
        <path d="M646.858,46.654l-4.521,5.905c-12.781,18.428 -28.783,18.428 -41.564,0l-4.521,-5.905m76.976,-12.402c-10.601,0 -20.085,4.827 -26.37,12.402m-76.976,-12.402c10.602,0 20.085,4.827 26.37,12.402" style="fill:none;stroke:rgb(0,0,255);stroke-width:1.77px;"/>
        <g transform="matrix(-1,0,0,1,2665.75,-1.56319e-13)">
            <path d="M930.709,67.323c-11.666,0 -21.978,-5.845 -28.164,-14.764l-4.522,-5.905m-26.369,-12.402c10.601,0 20.085,4.827 26.369,12.402" style="fill:none;stroke:rgb(0,0,255);stroke-width:1.77px;"/>
        </g>
        <g transform="matrix(-6.12323e-17,1,-1,-6.12323e-17,1862.6,-803.15)">
            <path d="M930.709,67.323c-11.666,0 -21.978,-5.845 -28.164,-14.764l-4.522,-5.905m-26.369,-12.402c10.601,0 20.085,4.827 26.369,12.402" style="fill:none;stroke:rgb(0,0,255);stroke-width:1.77px;"/>
        </g>
        <g transform="matrix(-6.12323e-17,-1,-1,6.12323e-17,1862.6,2220.47)">
            <path d="M930.709,67.323c-11.666,0 -21.978,-5.845 -28.164,-14.764l-4.522,-5.905m-26.369,-12.402c10.601,0 20.085,4.827 26.369,12.402" style="fill:none;stroke:rgb(0,0,255);stroke-width:1.77px;"/>
        </g>
        <g transform="matrix(1,1.22465e-16,-1.22465e-16,1,862.795,1315.75)">
            <path d="M930.709,67.323c-11.666,0 -21.978,-5.845 -28.164,-14.764l-4.522,-5.905m-26.369,-12.402c10.601,0 20.085,4.827 26.369,12.402" style="fill:none;stroke:rgb(0,0,255);stroke-width:1.77px;"/>
        </g>
        <g transform="matrix(-1,1.24652e-16,1.22465e-16,1.01786,2206.3,1315.14)">
            <path d="M930.709,67.323c-11.666,0 -21.978,-5.845 -28.164,-14.764l-4.522,-5.905m-26.369,-12.402c10.601,0 20.085,4.827 26.369,12.402" style="fill:none;stroke:rgb(0,0,255);stroke-width:1.76px;"/>
        </g>
        <g transform="matrix(1,1.22465e-16,-1.22465e-16,1,344.882,1316.34)">
            <path d="M930.709,67.323c-11.666,0 -21.978,-5.845 -28.164,-14.764l-4.522,-5.905m-26.369,-12.402c10.601,0 20.085,4.827 26.369,12.402" style="fill:none;stroke:rgb(0,0,255);stroke-width:1.77px;"/>
        </g>
        <g transform="matrix(-1,1.22465e-16,1.22465e-16,1,1500,1316.34)">
            <path d="M930.709,67.323c-11.666,0 -21.978,-5.845 -28.164,-14.764l-4.522,-5.905m-26.369,-12.402c10.601,0 20.085,4.827 26.369,12.402" style="fill:none;stroke:rgb(0,0,255);stroke-width:1.77px;"/>
        </g>
        <g transform="matrix(6.12323e-17,-1,1,6.12323e-17,500.787,2220.47)">
            <path d="M930.709,67.323c-11.666,0 -21.978,-5.845 -28.164,-14.764l-4.522,-5.905m-26.369,-12.402c10.601,0 20.085,4.827 26.369,12.402" style="fill:none;stroke:rgb(0,0,255);stroke-width:1.77px;"/>
        </g>
        <g transform="matrix(1,0,0,1,928.346,-10.6299)">
            <circle cx="865.748" cy="79.134" r="17.717" style="fill:none;stroke:rgb(0,0,255);stroke-width:1.77px;"/>
        </g>
        <g transform="matrix(1,0,0,1,928.346,1269.69)">
            <circle cx="865.748" cy="79.134" r="17.717" style="fill:none;stroke:rgb(0,0,255);stroke-width:1.77px;"/>
        </g>
        <g transform="matrix(1,0,0,1,805.512,1217.85)">
            <circle cx="865.748" cy="79.134" r="17.717" style="fill:none;stroke:rgb(0,0,255);stroke-width:1.77px;"/>
        </g>
        <g transform="matrix(1,0,0,1,478.346,1217.85)">
            <circle cx="865.748" cy="79.134" r="17.717" style="fill:none;stroke:rgb(0,0,255);stroke-width:1.77px;"/>
        </g>
        <g transform="matrix(1,0,0,1,-296.457,1269.69)">
            <circle cx="865.748" cy="79.134" r="17.717" style="fill:none;stroke:rgb(0,0,255);stroke-width:1.77px;"/>
        </g>
        <g transform="matrix(1,0,0,1,409.843,1269.69)">
            <circle cx="865.748" cy="79.134" r="17.717" style="fill:none;stroke:rgb(0,0,255);stroke-width:1.77px;"/>
        </g>
        <g transform="matrix(1,0,0,1,-192.52,-10.6299)">
            <circle cx="865.748" cy="79.134" r="17.717" style="fill:none;stroke:rgb(0,0,255);stroke-width:1.77px;"/>
        </g>
        <g transform="matrix(1,0,0,1,-296.457,-10.6299)">
            <circle cx="865.748" cy="79.134" r="17.717" style="fill:none;stroke:rgb(0,0,255);stroke-width:1.77px;"/>
        </g>
        <g transform="matrix(1.31818,0,0,1.34091,-489.889,-105.118)">
            <path d="M1732.68,103.937c14.341,0 25.984,11.643 25.984,25.984" style="fill:none;stroke:rgb(0,0,255);stroke-width:1.33px;"/>
        </g>
        <g transform="matrix(8.07154e-17,1.31818,-1.34091,8.2107e-17,1967.72,-935.165)">
            <path d="M1732.68,103.937c14.341,0 25.984,11.643 25.984,25.984" style="fill:none;stroke:rgb(0,0,255);stroke-width:1.33px;"/>
        </g>
        <g transform="matrix(8.07154e-17,-1.31818,1.34091,8.2107e-17,395.669,2352.49)">
            <path d="M1732.68,103.937c14.341,0 25.984,11.643 25.984,25.984" style="fill:none;stroke:rgb(0,0,255);stroke-width:1.33px;"/>
        </g>
        <g transform="matrix(-1.31818,1.61431e-16,-1.64214e-16,-1.34091,2853.27,1523.03)">
            <path d="M1732.68,103.937c14.341,0 25.984,11.643 25.984,25.984" style="fill:none;stroke:rgb(0,0,255);stroke-width:1.33px;"/>
        </g>
        <path d="M1334.65,1350l399.803,0" style="fill:none;stroke:rgb(0,0,255);stroke-width:1.77px;"/>
    </g>
    <g id="_1.5mmStainlessSteel_Plate1" serif:id="1.5mmStainlessSteel_Plate" transform="matrix(0.333333,0,0,0.333333,0,0)">
        <g transform="matrix(0.533762,1.2326e-32,0,1.02347,245.505,1078.21)">
            <path d="M717.251,266.139l1101.97,0" style="fill:none;stroke:rgb(0,0,255);stroke-width:2.17px;"/>
        </g>
        <g transform="matrix(6.45794e-17,-1.05466,1.75385,1.07392e-16,101.344,2046.22)">
            <path d="M717.251,266.139l1101.97,0" style="fill:none;stroke:rgb(0,0,255);stroke-width:1.22px;"/>
        </g>
        <g transform="matrix(0.0728832,-4.98908e-33,0,1.61905,680.008,-363.569)">
            <path d="M717.251,266.139l1101.97,0" style="fill:none;stroke:rgb(0,0,255);stroke-width:1.55px;"/>
        </g>
        <g transform="matrix(0.731511,-3.08149e-33,0,1,404.26,-198.816)">
            <path d="M717.251,266.139l1101.97,0" style="fill:none;stroke:rgb(0,0,255);stroke-width:2.02px;"/>
        </g>
        <g transform="matrix(6.45794e-17,1.05466,-1,6.12323e-17,2061.41,-628.899)">
            <path d="M717.251,266.139l1101.97,0" style="fill:none;stroke:rgb(0,0,255);stroke-width:1.72px;"/>
        </g>
        <g transform="matrix(1,0,0,1,5.90551,-10.6299)">
            <circle cx="865.748" cy="79.134" r="17.717" style="fill:none;stroke:rgb(0,0,255);stroke-width:1.77px;"/>
        </g>
        <path d="M930.709,67.323c-11.666,0 -21.978,-5.845 -28.164,-14.764l-4.522,-5.905m-26.369,-12.402c10.601,0 20.085,4.827 26.369,12.402" style="fill:none;stroke:rgb(0,0,255);stroke-width:1.77px;"/>
        <g transform="matrix(1,0,0,1,-198.425,0)">
            <path d="M930.709,67.323c-11.666,0 -21.978,-5.845 -28.164,-14.764l-4.522,-5.905m-26.369,-12.402c10.601,0 20.085,4.827 26.369,12.402" style="fill:none;stroke:rgb(0,0,255);stroke-width:1.77px;"/>
        </g>
        <g transform="matrix(6.12323e-17,1,1,-6.12323e-17,500.787,-803.15)">
            <path d="M930.709,67.323c-11.666,0 -21.978,-5.845 -28.164,-14.764l-4.522,-5.905m-26.369,-12.402c10.601,0 20.085,4.827 26.369,12.402" style="fill:none;stroke:rgb(0,0,255);stroke-width:1.77px;"/>
        </g>
        <g transform="matrix(-1,0,0,1,1743.31,-1.56319e-13)">
            <path d="M930.709,67.323c-11.666,0 -21.978,-5.845 -28.164,-14.764l-4.522,-5.905m-26.369,-12.402c10.601,0 20.085,4.827 26.369,12.402" style="fill:none;stroke:rgb(0,0,255);stroke-width:1.77px;"/>
        </g>
        <path d="M646.858,46.654l-4.521,5.905c-12.781,18.428 -28.783,18.428 -41.564,0l-4.521,-5.905m76.976,-12.402c-10.601,0 -20.085,4.827 -26.37,12.402m-76.976,-12.402c10.602,0 20.085,4.827 26.37,12.402" style="fill:none;stroke:rgb(0,0,255);stroke-width:1.77px;"/>
        <g transform="matrix(-1,0,0,1,2665.75,-1.56319e-13)">
            <path d="M930.709,67.323c-11.666,0 -21.978,-5.845 -28.164,-14.764l-4.522,-5.905m-26.369,-12.402c10.601,0 20.085,4.827 26.369,12.402" style="fill:none;stroke:rgb(0,0,255);stroke-width:1.77px;"/>
        </g>
        <g transform="matrix(-6.12323e-17,1,-1,-6.12323e-17,1862.6,-803.15)">
            <path d="M930.709,67.323c-11.666,0 -21.978,-5.845 -28.164,-14.764l-4.522,-5.905m-26.369,-12.402c10.601,0 20.085,4.827 26.369,12.402" style="fill:none;stroke:rgb(0,0,255);stroke-width:1.77px;"/>
        </g>
        <g transform="matrix(-6.12323e-17,-1,-1,6.12323e-17,1862.6,2220.47)">
            <path d="M930.709,67.323c-11.666,0 -21.978,-5.845 -28.164,-14.764l-4.522,-5.905m-26.369,-12.402c10.601,0 20.085,4.827 26.369,12.402" style="fill:none;stroke:rgb(0,0,255);stroke-width:1.77px;"/>
        </g>
        <g transform="matrix(1,1.22465e-16,-1.22465e-16,1,862.795,1315.75)">
            <path d="M930.709,67.323c-11.666,0 -21.978,-5.845 -28.164,-14.764l-4.522,-5.905m-26.369,-12.402c10.601,0 20.085,4.827 26.369,12.402" style="fill:none;stroke:rgb(0,0,255);stroke-width:1.77px;"/>
        </g>
        <g transform="matrix(-1,1.24652e-16,1.22465e-16,1.01786,2206.3,1315.14)">
            <path d="M930.709,67.323c-11.666,0 -21.978,-5.845 -28.164,-14.764l-4.522,-5.905m-26.369,-12.402c10.601,0 20.085,4.827 26.369,12.402" style="fill:none;stroke:rgb(0,0,255);stroke-width:1.76px;"/>
        </g>
        <g transform="matrix(1,1.22465e-16,-1.22465e-16,1,344.882,1316.34)">
            <path d="M930.709,67.323c-11.666,0 -21.978,-5.845 -28.164,-14.764l-4.522,-5.905m-26.369,-12.402c10.601,0 20.085,4.827 26.369,12.402" style="fill:none;stroke:rgb(0,0,255);stroke-width:1.77px;"/>
        </g>
        <g transform="matrix(-1,1.22465e-16,1.22465e-16,1,1500,1316.34)">
            <path d="M930.709,67.323c-11.666,0 -21.978,-5.845 -28.164,-14.764l-4.522,-5.905m-26.369,-12.402c10.601,0 20.085,4.827 26.369,12.402" style="fill:none;stroke:rgb(0,0,255);stroke-width:1.77px;"/>
        </g>
        <g transform="matrix(6.12323e-17,-1,1,6.12323e-17,500.787,2220.47)">
            <path d="M930.709,67.323c-11.666,0 -21.978,-5.845 -28.164,-14.764l-4.522,-5.905m-26.369,-12.402c10.601,0 20.085,4.827 26.369,12.402" style="fill:none;stroke:rgb(0,0,255);stroke-width:1.77px;"/>
        </g>
        <g transform="matrix(1,0,0,1,928.346,-10.6299)">
            <circle cx="865.748" cy="79.134" r="17.717" style="fill:none;stroke:rgb(0,0,255);stroke-width:1.77px;"/>
        </g>
        <g transform="matrix(1,0,0,1,928.346,1269.69)">
            <circle cx="865.748" cy="79.134" r="17.717" style="fill:none;stroke:rgb(0,0,255);stroke-width:1.77px;"/>
        </g>
        <g transform="matrix(1,0,0,1,805.512,1217.85)">
            <circle cx="865.748" cy="79.134" r="17.717" style="fill:none;stroke:rgb(0,0,255);stroke-width:1.77px;"/>
        </g>
        <g transform="matrix(1,0,0,1,478.346,1217.85)">
            <circle cx="865.748" cy="79.134" r="17.717" style="fill:none;stroke:rgb(0,0,255);stroke-width:1.77px;"/>
        </g>
        <g transform="matrix(1,0,0,1,-296.457,1269.69)">
            <circle cx="865.748" cy="79.134" r="17.717" style="fill:none;stroke:rgb(0,0,255);stroke-width:1.77px;"/>
        </g>
        <g transform="matrix(1,0,0,1,409.843,1269.69)">
            <circle cx="865.748" cy="79.134" r="17.717" style="fill:none;stroke:rgb(0,0,255);stroke-width:1.77px;"/>
        </g>
        <g transform="matrix(1,0,0,1,-192.52,-10.6299)">
            <circle cx="865.748" cy="79.134" r="17.717" style="fill:none;stroke:rgb(0,0,255);stroke-width:1.77px;"/>
        </g>
        <g transform="matrix(1,0,0,1,-296.457,-10.6299)">
            <circle cx="865.748" cy="79.134" r="17.717" style="fill:none;stroke:rgb(0,0,255);stroke-width:1.77px;"/>
        </g>
        <g transform="matrix(1.31818,0,0,1.34091,-489.889,-105.118)">
            <path d="M1732.68,103.937c14.341,0 25.984,11.643 25.984,25.984" style="fill:none;stroke:rgb(0,0,255);stroke-width:1.33px;"/>
        </g>
        <g transform="matrix(8.07154e-17,1.31818,-1.34091,8.2107e-17,1967.72,-935.165)">
            <path d="M1732.68,103.937c14.341,0 25.984,11.643 25.984,25.984" style="fill:none;stroke:rgb(0,0,255);stroke-width:1.33px;"/>
        </g>
        <g transform="matrix(8.07154e-17,-1.31818,1.34091,8.2107e-17,395.669,2352.49)">
            <path d="M1732.68,103.937c14.341,0 25.984,11.643 25.984,25.984" style="fill:none;stroke:rgb(0,0,255);stroke-width:1.33px;"/>
        </g>
        <g transform="matrix(-1.31818,1.61431e-16,-1.64214e-16,-1.34091,2853.27,1523.03)">
            <path d="M1732.68,103.937c14.341,0 25.984,11.643 25.984,25.984" style="fill:none;stroke:rgb(0,0,255);stroke-width:1.33px;"/>
        </g>
        <path d="M1334.65,1350l399.803,0" style="fill:none;stroke:rgb(0,0,255);stroke-width:1.77px;"/>
        <path d="M620.079,1299.21l225.59,0l0,-56.103l223.229,0l0,56.103l225.59,0l0,-56.103l448.819,0l0,-1123.23l-450,0l0,56.102l-223.228,0l0,-56.102l-225.591,0l0,56.102l-224.409,0l0,1123.23Z" style="fill:none;stroke:rgb(0,0,255);stroke-width:1.77px;"/>
    </g>
    <g id="Drawings" transform="matrix(0.333333,0,0,0.333333,0,0)">
        <g transform="matrix(1,0,0,1,5.90551,-10.6299)">
            <circle cx="865.748" cy="79.134" r="17.717" style="fill:none;stroke:rgb(102,102,102);stroke-width:1.77px;"/>
        </g>
        <g transform="matrix(1,0,0,1,928.346,-10.6299)">
            <circle cx="865.748" cy="79.134" r="17.717" style="fill:none;stroke:rgb(102,102,102);stroke-width:1.77px;"/>
        </g>
        <g transform="matrix(1.33389,0,0,1.33389,510.555,173.765)">
            <circle cx="865.748" cy="79.134" r="17.717" style="fill:none;stroke:rgb(102,102,102);stroke-width:1.33px;"/>
        </g>
        <g transform="matrix(1.33389,0,0,1.33389,510.555,1025.95)">
            <circle cx="865.748" cy="79.134" r="17.717" style="fill:none;stroke:rgb(102,102,102);stroke-width:1.33px;"/>
        </g>
        <g transform="matrix(1.33389,0,0,1.33389,483.961,1353.12)">
            <circle cx="865.748" cy="79.134" r="17.717" style="fill:none;stroke:rgb(102,102,102);stroke-width:1.33px;"/>
        </g>
        <g transform="matrix(1.33389,0,0,1.33389,-430.212,1353.12)">
            <circle cx="865.748" cy="79.134" r="17.717" style="fill:none;stroke:rgb(102,102,102);stroke-width:1.33px;"/>
        </g>
        <g transform="matrix(1.33389,0,0,1.33389,423.744,2234.2)">
            <circle cx="865.748" cy="79.134" r="17.717" style="fill:none;stroke:rgb(102,102,102);stroke-width:1.33px;"/>
        </g>
        <g transform="matrix(2.43278,0,0,2.43278,-467.406,1266.16)">
            <circle cx="865.748" cy="79.134" r="17.717" style="fill:none;stroke:rgb(102,102,102);stroke-width:0.73px;"/>
        </g>
        <g transform="matrix(2.43278,0,0,2.43278,-1381.58,1266.16)">
            <circle cx="865.748" cy="79.134" r="17.717" style="fill:none;stroke:rgb(102,102,102);stroke-width:0.73px;"/>
        </g>
        <g transform="matrix(2.43278,0,0,2.43278,-527.622,2147.24)">
            <circle cx="865.748" cy="79.134" r="17.717" style="fill:none;stroke:rgb(102,102,102);stroke-width:0.73px;"/>
        </g>
        <g transform="matrix(2.43278,0,0,2.43278,-1321.34,2147.24)">
            <circle cx="865.748" cy="79.134" r="17.717" style="fill:none;stroke:rgb(102,102,102);stroke-width:0.73px;"/>
        </g>
        <g transform="matrix(1.33389,0,0,1.33389,-456.768,173.765)">
            <circle cx="865.748" cy="79.134" r="17.717" style="fill:none;stroke:rgb(102,102,102);stroke-width:1.33px;"/>
        </g>
        <g transform="matrix(1.33389,0,0,1.33389,-456.768,1025.95)">
            <circle cx="865.748" cy="79.134" r="17.717" style="fill:none;stroke:rgb(102,102,102);stroke-width:1.33px;"/>
        </g>
        <g transform="matrix(1.33389,0,0,1.33389,-369.976,2234.2)">
            <circle cx="865.748" cy="79.134" r="17.717" style="fill:none;stroke:rgb(102,102,102);stroke-width:1.33px;"/>
        </g>
        <g transform="matrix(1,0,0,1,928.346,1269.69)">
            <circle cx="865.748" cy="79.134" r="17.717" style="fill:none;stroke:rgb(102,102,102);stroke-width:1.77px;"/>
        </g>
        <g transform="matrix(1,0,0,1,805.512,1217.72)">
            <circle cx="865.748" cy="79.134" r="17.717" style="fill:none;stroke:rgb(102,102,102);stroke-width:1.77px;"/>
        </g>
        <g transform="matrix(1.06667,0,0,1.06667,809.213,1202.97)">
            <circle cx="865.748" cy="79.134" r="17.717" style="fill:none;stroke:rgb(102,102,102);stroke-width:1.66px;"/>
        </g>
        <g transform="matrix(1.06667,0,0,1.06667,809.213,45.5118)">
            <circle cx="865.748" cy="79.134" r="17.717" style="fill:none;stroke:rgb(102,102,102);stroke-width:1.66px;"/>
        </g>
        <g transform="matrix(1.06667,0,0,1.06667,359.213,1202.97)">
            <circle cx="865.748" cy="79.134" r="17.717" style="fill:none;stroke:rgb(102,102,102);stroke-width:1.66px;"/>
        </g>
        <g transform="matrix(1.06667,0,0,1.06667,-292.756,1202.97)">
            <circle cx="865.748" cy="79.134" r="17.717" style="fill:none;stroke:rgb(102,102,102);stroke-width:1.66px;"/>
        </g>
        <g transform="matrix(1.06667,0,0,1.06667,-292.756,45.5118)">
            <circle cx="865.748" cy="79.134" r="17.717" style="fill:none;stroke:rgb(102,102,102);stroke-width:1.66px;"/>
        </g>
        <g transform="matrix(1.06667,0,0,1.06667,-243.74,45.5118)">
            <circle cx="865.748" cy="79.134" r="17.717" style="fill:none;stroke:rgb(102,102,102);stroke-width:1.66px;"/>
        </g>
        <g transform="matrix(1.06667,0,0,1.06667,-58.8976,45.5118)">
            <circle cx="865.748" cy="79.134" r="17.717" style="fill:none;stroke:rgb(102,102,102);stroke-width:1.66px;"/>
        </g>
        <g transform="matrix(1,0,0,1,478.346,1217.72)">
            <circle cx="865.748" cy="79.134" r="17.717" style="fill:none;stroke:rgb(102,102,102);stroke-width:1.77px;"/>
        </g>
        <g transform="matrix(1,0,0,1,409.843,1269.69)">
            <circle cx="865.748" cy="79.134" r="17.717" style="fill:none;stroke:rgb(102,102,102);stroke-width:1.77px;"/>
        </g>
        <g transform="matrix(1,0,0,1,-296.457,1269.69)">
            <circle cx="865.748" cy="79.134" r="17.717" style="fill:none;stroke:rgb(102,102,102);stroke-width:1.77px;"/>
        </g>
        <g transform="matrix(1.01786,0,0,1.01786,-9.55427,-12.043)">
            <circle cx="865.748" cy="79.134" r="33.071" style="fill:none;stroke:rgb(102,102,102);stroke-width:1.74px;"/>
        </g>
        <g transform="matrix(1.01786,0,0,1.01786,912.887,-12.043)">
            <circle cx="865.748" cy="79.134" r="33.071" style="fill:none;stroke:rgb(102,102,102);stroke-width:1.74px;"/>
        </g>
        <g transform="matrix(3.92887,0,0,3.92887,-1736.04,-31.5855)">
            <circle cx="865.748" cy="79.134" r="33.071" style="fill:none;stroke:rgb(102,102,102);stroke-width:0.45px;"/>
        </g>
        <g transform="matrix(3.92887,0,0,3.92887,-1736.04,820.599)">
            <circle cx="865.748" cy="79.134" r="33.071" style="fill:none;stroke:rgb(102,102,102);stroke-width:0.45px;"/>
        </g>
        <g transform="matrix(3.92887,0,0,3.92887,-1762.64,1147.76)">
            <circle cx="865.748" cy="79.134" r="33.071" style="fill:none;stroke:rgb(102,102,102);stroke-width:0.45px;"/>
        </g>
        <g transform="matrix(3.92887,0,0,3.92887,-2676.81,1147.76)">
            <circle cx="865.748" cy="79.134" r="33.071" style="fill:none;stroke:rgb(102,102,102);stroke-width:0.45px;"/>
        </g>
        <g transform="matrix(3.92887,0,0,3.92887,-1822.86,2028.85)">
            <circle cx="865.748" cy="79.134" r="33.071" style="fill:none;stroke:rgb(102,102,102);stroke-width:0.45px;"/>
        </g>
        <g transform="matrix(3.92887,0,0,3.92887,-2703.37,-31.5855)">
            <circle cx="865.748" cy="79.134" r="33.071" style="fill:none;stroke:rgb(102,102,102);stroke-width:0.45px;"/>
        </g>
        <g transform="matrix(3.92887,0,0,3.92887,-2703.37,820.599)">
            <circle cx="865.748" cy="79.134" r="33.071" style="fill:none;stroke:rgb(102,102,102);stroke-width:0.45px;"/>
        </g>
        <g transform="matrix(3.92887,0,0,3.92887,-2616.58,2028.85)">
            <circle cx="865.748" cy="79.134" r="33.071" style="fill:none;stroke:rgb(102,102,102);stroke-width:0.45px;"/>
        </g>
        <g transform="matrix(1.01786,0,0,1.01786,912.887,1268.27)">
            <circle cx="865.748" cy="79.134" r="33.071" style="fill:none;stroke:rgb(102,102,102);stroke-width:1.74px;"/>
        </g>
        <g transform="matrix(1.01786,0,0,1.01786,790.052,1216.3)">
            <circle cx="865.748" cy="79.134" r="33.071" style="fill:none;stroke:rgb(102,102,102);stroke-width:1.74px;"/>
        </g>
        <g transform="matrix(1.01786,0,0,1.01786,462.887,1216.3)">
            <circle cx="865.748" cy="79.134" r="33.071" style="fill:none;stroke:rgb(102,102,102);stroke-width:1.74px;"/>
        </g>
        <g transform="matrix(1.01786,0,0,1.01786,394.383,1268.27)">
            <circle cx="865.748" cy="79.134" r="33.071" style="fill:none;stroke:rgb(102,102,102);stroke-width:1.74px;"/>
        </g>
        <g transform="matrix(1.01786,0,0,1.01786,-311.916,1268.27)">
            <circle cx="865.748" cy="79.134" r="33.071" style="fill:none;stroke:rgb(102,102,102);stroke-width:1.74px;"/>
        </g>
        <g transform="matrix(1,0,0,1,-192.52,-10.6299)">
            <circle cx="865.748" cy="79.134" r="17.717" style="fill:none;stroke:rgb(102,102,102);stroke-width:1.77px;"/>
        </g>
        <g transform="matrix(1,0,0,1,-296.457,-10.6299)">
            <circle cx="865.748" cy="79.134" r="17.717" style="fill:none;stroke:rgb(102,102,102);stroke-width:1.77px;"/>
        </g>
        <g transform="matrix(1.01786,0,0,1.01786,-207.979,-12.043)">
            <circle cx="865.748" cy="79.134" r="33.071" style="fill:none;stroke:rgb(102,102,102);stroke-width:1.74px;"/>
        </g>
        <g transform="matrix(1.01786,0,0,1.01786,-311.916,-12.043)">
            <circle cx="865.748" cy="79.134" r="33.071" style="fill:none;stroke:rgb(102,102,102);stroke-width:1.74px;"/>
        </g>
    </g>
</svg>
