<?xml version="1.0" encoding="UTF-8" standalone="no"?>
<!DOCTYPE svg PUBLIC "-//W3C//DTD SVG 1.1//EN" "http://www.w3.org/Graphics/SVG/1.1/DTD/svg11.dtd">
<svg width="142px" height="142px" version="1.1" xmlns="http://www.w3.org/2000/svg" xmlns:xlink="http://www.w3.org/1999/xlink" xml:space="preserve" xmlns:serif="http://www.serif.com/" style="fill-rule:evenodd;clip-rule:evenodd;stroke-linecap:round;stroke-linejoin:round;stroke-miterlimit:1.5;">
    <g transform="matrix(0.532398,0,0,0.990099,50.9703,0.701644)">
        <path d="M109.004,70.866C109.004,82.943 102.253,92.374 97.635,102.756C95.228,108.167 94.606,114.68 94.606,118.346L94.606,124.547" style="fill:none;stroke:black;stroke-width:0.31px;"/>
    </g>
    <g transform="matrix(-0.532398,0,0,0.990099,90.762,0.701644)">
        <path d="M109.004,70.866C109.004,82.943 102.253,92.374 97.635,102.756C95.228,108.167 94.606,114.68 94.606,118.346L94.606,124.547" style="fill:none;stroke:black;stroke-width:0.31px;"/>
    </g>
    <g transform="matrix(0.532398,-5.60521e-17,5.60521e-17,-0.990099,50.9703,141.031)">
        <path d="M109.004,70.866C109.004,82.943 102.253,92.374 97.635,102.756C95.228,108.167 94.606,114.68 94.606,118.346L94.606,124.547" style="fill:none;stroke:black;stroke-width:0.31px;"/>
    </g>
    <g transform="matrix(-0.532398,-5.60521e-17,-5.60521e-17,-0.990099,90.762,141.031)">
        <path d="M109.004,70.866C109.004,82.943 102.253,92.374 97.635,102.756C95.228,108.167 94.606,114.68 94.606,118.346L94.606,124.547" style="fill:none;stroke:black;stroke-width:0.31px;"/>
    </g>
    <g transform="matrix(6.05022e-17,0.988076,-0.988076,6.05022e-17,139.534,0.845005)">
        <path d="M41.151,69.305L41.153,69.113L41.156,68.921L41.16,68.73L41.165,68.539L41.172,68.349L41.18,68.159L41.189,67.969L41.199,67.779L41.211,67.59L41.223,67.401L41.237,67.212L41.252,67.023L41.268,66.835L41.285,66.648L41.304,66.46L41.323,66.273L41.344,66.087L41.366,65.9L41.389,65.714L41.413,65.529L41.439,65.343L41.465,65.158L41.493,64.974L41.522,64.79L41.552,64.606L41.583,64.422L41.615,64.239L41.648,64.057L41.682,63.874L41.718,63.693L41.754,63.511L41.792,63.33L41.831,63.149L41.871,62.969L41.912,62.789L41.954,62.61L41.997,62.431L42.041,62.252L42.087,62.074L42.133,61.896L42.18,61.719L42.229,61.542L42.278,61.366L42.329,61.19L42.381,61.014L42.433,60.839L42.487,60.664L42.542,60.49L42.598,60.316L42.655,60.143L42.713,59.97L42.772,59.798L42.832,59.626L42.893,59.455L42.955,59.284L43.018,59.113L43.082,58.944L43.147,58.774L43.213,58.605L43.28,58.437L43.348,58.269L43.417,58.102L43.487,57.935L43.558,57.768L43.63,57.602L43.703,57.437L43.777,57.272L43.852,57.108L43.928,56.944L44.005,56.781L44.082,56.618L44.161,56.456L44.241,56.295L44.322,56.134L44.403,55.973L44.486,55.814L44.569,55.654L44.654,55.495L44.739,55.337L44.825,55.18L44.913,55.023L45.001,54.866L45.09,54.71L45.18,54.555L45.27,54.4L45.362,54.246L45.455,54.093L45.548,53.94L45.643,53.788L45.738,53.636L45.834,53.485L45.932,53.335L46.03,53.185L46.128,53.036L46.228,52.887L46.329,52.739L46.43,52.592L46.533,52.445L46.636,52.299L46.74,52.154L46.845,52.009L46.95,51.865L47.057,51.722L47.164,51.579L47.273,51.437L47.382,51.296L47.492,51.155L47.602,51.015L47.714,50.876L47.826,50.737L47.939,50.599L48.053,50.462L48.168,50.325L48.284,50.19L48.4,50.054L48.517,49.92L48.635,49.786L48.754,49.653L48.874,49.521L48.994,49.389L49.115,49.258L49.237,49.128L49.36,48.999L49.483,48.87L49.607,48.742L49.732,48.615L49.858,48.489L49.984,48.363L50.112,48.238L50.24,48.114L50.368,47.99L50.498,47.868L50.628,47.746L50.759,47.625L50.89,47.504L51.023,47.385L51.156,47.266L51.289,47.148L51.424,47.031L51.559,46.914L51.695,46.799L51.831,46.684L51.969,46.57L52.107,46.457L52.245,46.345L52.385,46.233L52.525,46.122L52.665,46.012L52.807,45.903L52.949,45.795L53.091,45.688L53.235,45.581L53.379,45.475L53.523,45.37L53.669,45.266L53.815,45.163L53.961,45.061L54.109,44.959L54.257,44.859L54.405,44.759L54.554,44.66L54.704,44.562L54.854,44.465L55.005,44.369L55.157,44.274L55.309,44.179L55.462,44.086L55.616,43.993L55.77,43.901L55.924,43.81L56.08,43.72L56.236,43.631L56.392,43.543L56.549,43.456L56.707,43.37L56.865,43.284L57.024,43.2L57.183,43.116L57.343,43.034L57.503,42.952L57.664,42.872L57.826,42.792L57.988,42.713L58.151,42.635L58.314,42.558L58.477,42.483L58.642,42.408L58.806,42.334L58.972,42.261L59.138,42.189L59.304,42.118L59.471,42.048L59.638,41.979L59.806,41.911L59.975,41.843L60.144,41.777L60.313,41.712L60.483,41.648L60.653,41.585L60.824,41.523L60.995,41.462L61.167,41.402L61.34,41.343L61.512,41.285L61.686,41.228L61.859,41.173L62.034,41.118L62.208,41.064L62.383,41.011L62.559,40.96L62.735,40.909L62.911,40.859L63.088,40.811L63.266,40.763L63.443,40.717L63.622,40.672L63.8,40.628L63.979,40.584L64.159,40.542L64.338,40.501L64.519,40.462L64.699,40.423L64.881,40.385L65.062,40.348L65.244,40.313L65.426,40.279L65.609,40.245L65.792,40.213L65.975,40.182L66.159,40.152L66.343,40.124L66.528,40.096L66.713,40.069L66.898,40.044L67.084,40.02L67.27,39.997L67.456,39.975L67.643,39.954L67.83,39.934L68.017,39.916L68.205,39.899L68.393,39.883L68.581,39.868L68.77,39.854L68.959,39.841L69.148,39.83L69.338,39.82L69.528,39.811L69.718,39.803L69.909,39.796L70.1,39.791L70.291,39.786L70.482,39.783L70.674,39.782L70.866,39.781L71.058,39.782L71.25,39.783L71.441,39.786L71.633,39.791L71.824,39.796L72.014,39.803L72.204,39.811L72.394,39.82L72.584,39.83L72.773,39.841L72.962,39.854L73.151,39.868L73.339,39.883L73.528,39.899L73.715,39.916L73.903,39.934L74.09,39.954L74.276,39.975L74.463,39.997L74.649,40.02L74.834,40.044L75.02,40.069L75.204,40.096L75.389,40.124L75.573,40.152L75.757,40.182L75.94,40.213L76.123,40.245L76.306,40.279L76.488,40.313L76.67,40.348L76.852,40.385L77.033,40.423L77.214,40.462L77.394,40.501L77.574,40.542L77.753,40.584L77.932,40.628L78.111,40.672L78.289,40.717L78.467,40.763L78.644,40.811L78.821,40.859L78.997,40.909L79.173,40.96L79.349,41.011L79.524,41.064L79.699,41.118L79.873,41.173L80.047,41.228L80.22,41.285L80.393,41.343L80.565,41.402L80.737,41.462L80.908,41.523L81.079,41.585L81.249,41.648L81.419,41.712L81.589,41.777L81.758,41.843L81.926,41.911L82.094,41.979L82.261,42.048L82.428,42.118L82.595,42.189L82.76,42.261L82.926,42.334L83.091,42.408L83.255,42.483L83.419,42.558L83.582,42.635L83.744,42.713L83.907,42.792L84.068,42.872L84.229,42.952L84.389,43.034L84.549,43.116L84.709,43.2L84.867,43.284L85.026,43.37L85.183,43.456L85.34,43.543L85.497,43.631L85.653,43.72L85.808,43.81L85.962,43.901L86.117,43.993L86.27,44.086L86.423,44.179L86.575,44.274L86.727,44.369L86.878,44.465L87.028,44.562L87.178,44.66L87.327,44.759L87.476,44.859L87.624,44.959L87.771,45.061L87.918,45.163L88.063,45.266L88.209,45.37L88.354,45.475L88.498,45.581L88.641,45.688L88.784,45.795L88.926,45.903L89.067,46.012L89.208,46.122L89.348,46.233L89.487,46.345L89.626,46.457L89.764,46.57L89.901,46.684L90.037,46.799L90.173,46.914L90.308,47.031L90.443,47.148L90.577,47.266L90.71,47.385L90.842,47.504L90.974,47.625L91.105,47.746L91.235,47.868L91.364,47.99L91.493,48.114L91.621,48.238L91.748,48.363L91.874,48.489L92,48.615L92.125,48.742L92.249,48.87L92.373,48.999L92.495,49.128L92.617,49.258L92.738,49.389L92.859,49.521L92.978,49.653L93.097,49.786L93.215,49.92L93.332,50.054L93.448,50.19L93.564,50.325L93.679,50.462L93.793,50.599L93.906,50.737L94.018,50.876L94.13,51.015L94.241,51.155L94.351,51.296L94.46,51.437L94.568,51.579L94.675,51.722L94.782,51.865L94.888,52.009L94.992,52.154L95.097,52.299L95.2,52.445L95.302,52.592L95.403,52.739L95.504,52.887L95.604,53.036L95.703,53.185L95.801,53.335L95.898,53.485L95.994,53.636L96.089,53.788L96.184,53.94L96.277,54.093L96.37,54.246L96.462,54.4L96.553,54.555L96.643,54.71L96.732,54.866L96.82,55.023L96.907,55.18L96.993,55.337L97.079,55.495L97.163,55.654L97.247,55.814L97.329,55.973L97.411,56.134L97.491,56.295L97.571,56.456L97.65,56.618L97.728,56.781L97.804,56.944L97.88,57.108L97.955,57.272L98.029,57.437L98.102,57.602L98.174,57.768L98.245,57.935L98.315,58.102L98.384,58.269L98.452,58.437L98.519,58.605L98.585,58.774L98.651,58.944L98.715,59.113L98.778,59.284L98.84,59.455L98.901,59.626L98.961,59.798L99.02,59.97L99.078,60.143L99.134,60.316L99.19,60.49L99.245,60.664L99.299,60.839L99.352,61.014L99.403,61.19L99.454,61.366L99.503,61.542L99.552,61.719L99.599,61.896L99.646,62.074L99.691,62.252L99.735,62.431L99.778,62.61L99.82,62.789L99.861,62.969L99.901,63.149L99.94,63.33L99.978,63.511L100.014,63.693L100.05,63.874L100.084,64.057L100.118,64.239L100.15,64.422L100.181,64.606L100.211,64.79L100.239,64.974L100.267,65.158L100.293,65.343L100.319,65.529L100.343,65.714L100.366,65.9L100.388,66.087L100.409,66.273L100.428,66.46L100.447,66.648L100.464,66.835L100.48,67.023L100.495,67.212L100.509,67.401L100.522,67.59L100.533,67.779L100.543,67.969L100.552,68.159L100.56,68.349L100.567,68.539L100.572,68.73L100.577,68.921L100.58,69.113L100.581,69.305L100.582,69.497L100.581,69.689L100.58,69.881L100.577,70.072L100.572,70.263L100.567,70.454L100.56,70.645L100.552,70.835L100.543,71.025L100.533,71.215L100.522,71.404L100.509,71.593L100.495,71.782L100.48,71.97L100.464,72.158L100.447,72.346L100.428,72.533L100.409,72.72L100.388,72.907L100.366,73.093L100.343,73.279L100.319,73.465L100.293,73.65L100.267,73.835L100.239,74.02L100.211,74.204L100.181,74.388L100.15,74.571L100.118,74.754L100.084,74.937L100.05,75.119L100.014,75.301L99.978,75.482L99.94,75.663L99.901,75.844L99.861,76.024L99.82,76.204L99.778,76.384L99.735,76.563L99.691,76.741L99.646,76.92L99.599,77.097L99.552,77.275L99.503,77.451L99.454,77.628L99.403,77.804L99.352,77.979L99.299,78.155L99.245,78.329L99.19,78.503L99.134,78.677L99.078,78.85L99.02,79.023L98.961,79.196L98.901,79.367L98.84,79.539L98.778,79.71L98.715,79.88L98.651,80.05L98.585,80.219L98.519,80.388L98.452,80.557L98.384,80.725L98.315,80.892L98.245,81.059L98.174,81.225L98.102,81.391L98.029,81.556L97.955,81.721L97.88,81.885L97.804,82.049L97.728,82.212L97.65,82.375L97.571,82.537L97.491,82.699L97.411,82.86L97.329,83.02L97.247,83.18L97.163,83.339L97.079,83.498L96.993,83.656L96.907,83.814L96.82,83.971L96.732,84.127L96.643,84.283L96.553,84.438L96.462,84.593L96.37,84.747L96.277,84.901L96.184,85.053L96.089,85.206L95.994,85.357L95.898,85.508L95.801,85.659L95.703,85.809L95.604,85.958L95.504,86.106L95.403,86.254L95.302,86.401L95.2,86.548L95.097,86.694L94.992,86.839L94.888,86.984L94.782,87.128L94.675,87.271L94.568,87.414L94.46,87.556L94.351,87.698L94.241,87.838L94.13,87.978L94.018,88.118L93.906,88.256L93.793,88.394L93.679,88.531L93.564,88.668L93.448,88.804L93.332,88.939L93.215,89.074L93.097,89.207L92.978,89.34L92.859,89.473L92.738,89.604L92.617,89.735L92.495,89.865L92.373,89.995L92.249,90.123L92.125,90.251L92,90.378L91.874,90.505L91.748,90.631L91.621,90.756L91.493,90.88L91.364,91.003L91.235,91.126L91.105,91.248L90.974,91.369L90.842,91.489L90.71,91.609L90.577,91.727L90.443,91.845L90.308,91.963L90.173,92.079L90.037,92.195L89.901,92.309L89.764,92.423L89.626,92.537L89.487,92.649L89.348,92.76L89.208,92.871L89.067,92.981L88.926,93.09L88.784,93.198L88.641,93.306L88.498,93.412L88.354,93.518L88.209,93.623L88.063,93.727L87.918,93.83L87.771,93.933L87.624,94.034L87.476,94.135L87.327,94.234L87.178,94.333L87.028,94.431L86.878,94.528L86.727,94.625L86.575,94.72L86.423,94.814L86.27,94.908L86.117,95.001L85.962,95.092L85.808,95.183L85.653,95.273L85.497,95.362L85.34,95.45L85.183,95.538L85.026,95.624L84.867,95.709L84.709,95.794L84.549,95.877L84.389,95.96L84.229,96.041L84.068,96.122L83.907,96.202L83.744,96.28L83.582,96.358L83.419,96.435L83.255,96.511L83.091,96.586L82.926,96.66L82.76,96.733L82.595,96.805L82.428,96.876L82.261,96.946L82.094,97.015L81.926,97.083L81.758,97.15L81.589,97.216L81.419,97.281L81.249,97.345L81.079,97.408L80.908,97.47L80.737,97.531L80.565,97.591L80.393,97.65L80.22,97.708L80.047,97.765L79.873,97.821L79.699,97.876L79.524,97.929L79.349,97.982L79.173,98.034L78.997,98.085L78.821,98.134L78.644,98.183L78.467,98.23L78.289,98.276L78.111,98.322L77.932,98.366L77.753,98.409L77.574,98.451L77.394,98.492L77.214,98.532L77.033,98.571L76.852,98.608L76.67,98.645L76.488,98.68L76.306,98.715L76.123,98.748L75.94,98.78L75.757,98.811L75.573,98.841L75.389,98.87L75.204,98.898L75.02,98.924L74.834,98.949L74.649,98.974L74.463,98.997L74.276,99.019L74.09,99.039L73.903,99.059L73.715,99.078L73.528,99.095L73.339,99.111L73.151,99.126L72.962,99.14L72.773,99.152L72.584,99.164L72.394,99.174L72.204,99.183L72.014,99.191L71.824,99.197L71.633,99.203L71.441,99.207L71.25,99.21L71.058,99.212L70.866,99.213L70.674,99.212L70.482,99.21L70.291,99.207L70.1,99.203L69.909,99.197L69.718,99.191L69.528,99.183L69.338,99.174L69.148,99.164L68.959,99.152L68.77,99.14L68.581,99.126L68.393,99.111L68.205,99.095L68.017,99.078L67.83,99.059L67.643,99.039L67.456,99.019L67.27,98.997L67.084,98.974L66.898,98.949L66.713,98.924L66.528,98.898L66.343,98.87L66.159,98.841L65.975,98.811L65.792,98.78L65.609,98.748L65.426,98.715L65.244,98.68L65.062,98.645L64.881,98.608L64.699,98.571L64.519,98.532L64.338,98.492L64.159,98.451L63.979,98.409L63.8,98.366L63.622,98.322L63.443,98.276L63.266,98.23L63.088,98.183L62.911,98.134L62.735,98.085L62.559,98.034L62.383,97.982L62.208,97.929L62.034,97.876L61.859,97.821L61.686,97.765L61.512,97.708L61.34,97.65L61.167,97.591L60.995,97.531L60.824,97.47L60.653,97.408L60.483,97.345L60.313,97.281L60.144,97.216L59.975,97.15L59.806,97.083L59.638,97.015L59.471,96.946L59.304,96.876L59.138,96.805L58.972,96.733L58.806,96.66L58.642,96.586L58.477,96.511L58.314,96.435L58.151,96.358L57.988,96.28L57.826,96.202L57.664,96.122L57.503,96.041L57.343,95.96L57.183,95.877L57.024,95.794L56.865,95.709L56.707,95.624L56.549,95.538L56.392,95.45L56.236,95.362L56.08,95.273L55.924,95.183L55.77,95.092L55.616,95.001L55.462,94.908L55.309,94.814L55.157,94.72L55.005,94.625L54.854,94.528L54.704,94.431L54.554,94.333L54.405,94.234L54.257,94.135L54.109,94.034L53.961,93.933L53.815,93.83L53.669,93.727L53.523,93.623L53.379,93.518L53.235,93.412L53.091,93.306L52.949,93.198L52.807,93.09L52.665,92.981L52.525,92.871L52.385,92.76L52.245,92.649L52.107,92.537L51.969,92.423L51.831,92.309L51.695,92.195L51.559,92.079L51.424,91.963L51.289,91.845L51.156,91.727L51.023,91.609L50.89,91.489L50.759,91.369L50.628,91.248L50.498,91.126L50.368,91.003L50.24,90.88L50.112,90.756L49.984,90.631L49.858,90.505L49.732,90.378L49.607,90.251L49.483,90.123L49.36,89.995L49.237,89.865L49.115,89.735L48.994,89.604L48.874,89.473L48.754,89.34L48.635,89.207L48.517,89.074L48.4,88.939L48.284,88.804L48.168,88.668L48.053,88.531L47.939,88.394L47.826,88.256L47.714,88.118L47.602,87.978L47.492,87.838L47.382,87.698L47.273,87.556L47.164,87.414L47.057,87.271L46.95,87.128L46.845,86.984L46.74,86.839L46.636,86.694L46.533,86.548L46.43,86.401L46.329,86.254L46.228,86.106L46.128,85.958L46.03,85.809L45.932,85.659L45.834,85.508L45.738,85.357L45.643,85.206L45.548,85.053L45.455,84.901L45.362,84.747L45.27,84.593L45.18,84.438L45.09,84.283L45.001,84.127L44.913,83.971L44.825,83.814L44.739,83.656L44.654,83.498L44.569,83.339L44.486,83.18L44.403,83.02L44.322,82.86L44.241,82.699L44.161,82.537L44.082,82.375L44.005,82.212L43.928,82.049L43.852,81.885L43.777,81.721L43.703,81.556L43.63,81.391L43.558,81.225L43.487,81.059L43.417,80.892L43.348,80.725L43.28,80.557L43.213,80.388L43.147,80.219L43.082,80.05L43.018,79.88L42.955,79.71L42.893,79.539L42.832,79.367L42.772,79.196L42.713,79.023L42.655,78.85L42.598,78.677L42.542,78.503L42.487,78.329L42.433,78.155L42.381,77.979L42.329,77.804L42.278,77.628L42.229,77.451L42.18,77.275L42.133,77.097L42.087,76.92L42.041,76.741L41.997,76.563L41.954,76.384L41.912,76.204L41.871,76.024L41.831,75.844L41.792,75.663L41.754,75.482L41.718,75.301L41.682,75.119L41.648,74.937L41.615,74.754L41.583,74.571L41.552,74.388L41.522,74.204L41.493,74.02L41.465,73.835L41.439,73.65L41.413,73.465L41.389,73.279L41.366,73.093L41.344,72.907L41.323,72.72L41.304,72.533L41.285,72.346L41.268,72.158L41.252,71.97L41.237,71.782L41.223,71.593L41.211,71.404L41.199,71.215L41.189,71.025L41.18,70.835L41.172,70.645L41.165,70.454L41.16,70.263L41.156,70.072L41.153,69.881L41.151,69.689L41.15,69.497L41.151,69.305ZM41.404,69.687L41.406,69.877L41.409,70.067L41.413,70.257L41.418,70.446L41.425,70.635L41.433,70.824L41.442,71.012L41.452,71.2L41.463,71.388L41.476,71.575L41.489,71.762L41.504,71.949L41.52,72.136L41.537,72.322L41.556,72.508L41.575,72.693L41.596,72.878L41.617,73.063L41.64,73.247L41.664,73.431L41.689,73.615L41.716,73.798L41.743,73.981L41.772,74.164L41.801,74.346L41.832,74.528L41.864,74.71L41.897,74.891L41.931,75.071L41.966,75.252L42.002,75.432L42.04,75.611L42.078,75.79L42.118,75.969L42.158,76.147L42.2,76.325L42.243,76.503L42.287,76.68L42.332,76.856L42.377,77.033L42.425,77.208L42.473,77.384L42.522,77.559L42.572,77.733L42.623,77.907L42.675,78.081L42.729,78.254L42.783,78.427L42.839,78.599L42.895,78.771L42.952,78.942L43.011,79.113L43.07,79.283L43.131,79.453L43.192,79.623L43.255,79.792L43.318,79.96L43.383,80.128L43.448,80.295L43.515,80.462L43.582,80.629L43.651,80.795L43.72,80.96L43.79,81.125L43.862,81.29L43.934,81.454L44.008,81.617L44.082,81.78L44.157,81.942L44.233,82.104L44.31,82.265L44.388,82.426L44.468,82.586L44.547,82.746L44.628,82.905L44.71,83.063L44.793,83.221L44.877,83.379L44.961,83.535L45.047,83.692L45.133,83.847L45.221,84.002L45.309,84.157L45.398,84.311L45.488,84.464L45.579,84.617L45.671,84.769L45.764,84.921L45.858,85.072L45.952,85.222L46.047,85.372L46.144,85.521L46.241,85.669L46.339,85.817L46.438,85.965L46.538,86.111L46.638,86.257L46.74,86.403L46.842,86.547L46.945,86.692L47.049,86.835L47.154,86.978L47.26,87.12L47.366,87.261L47.473,87.402L47.582,87.542L47.691,87.682L47.8,87.821L47.911,87.959L48.022,88.096L48.135,88.233L48.248,88.369L48.361,88.505L48.476,88.639L48.592,88.773L48.708,88.907L48.825,89.039L48.942,89.171L49.061,89.302L49.18,89.433L49.3,89.563L49.421,89.692L49.543,89.82L49.665,89.948L49.788,90.075L49.912,90.201L50.037,90.326L50.162,90.451L50.288,90.575L50.415,90.698L50.543,90.82L50.671,90.942L50.8,91.062L50.93,91.183L51.06,91.302L51.192,91.42L51.324,91.538L51.456,91.655L51.589,91.771L51.723,91.887L51.858,92.001L51.994,92.115L52.13,92.228L52.267,92.34L52.404,92.452L52.542,92.563L52.681,92.672L52.82,92.781L52.961,92.889L53.101,92.997L53.243,93.103L53.385,93.209L53.528,93.314L53.671,93.418L53.815,93.521L53.96,93.623L54.106,93.725L54.252,93.825L54.398,93.925L54.546,94.024L54.693,94.122L54.842,94.219L54.991,94.315L55.141,94.411L55.291,94.505L55.442,94.599L55.594,94.692L55.746,94.784L55.899,94.875L56.052,94.965L56.206,95.054L56.36,95.142L56.516,95.23L56.671,95.316L56.827,95.402L56.984,95.486L57.142,95.57L57.3,95.653L57.458,95.734L57.617,95.815L57.777,95.895L57.937,95.974L58.098,96.053L58.259,96.13L58.421,96.206L58.583,96.281L58.746,96.355L58.909,96.429L59.073,96.501L59.238,96.572L59.403,96.643L59.568,96.712L59.734,96.781L59.901,96.848L60.067,96.915L60.235,96.98L60.403,97.045L60.571,97.108L60.74,97.171L60.91,97.232L61.08,97.293L61.25,97.352L61.421,97.411L61.592,97.468L61.764,97.524L61.936,97.58L62.109,97.634L62.282,97.687L62.456,97.74L62.63,97.791L62.804,97.841L62.979,97.89L63.154,97.938L63.33,97.985L63.506,98.031L63.683,98.076L63.86,98.12L64.038,98.163L64.216,98.205L64.394,98.245L64.573,98.285L64.752,98.323L64.931,98.361L65.111,98.397L65.292,98.432L65.472,98.466L65.653,98.499L65.835,98.531L66.017,98.562L66.199,98.591L66.382,98.62L66.564,98.647L66.748,98.674L66.932,98.699L67.116,98.723L67.3,98.746L67.485,98.767L67.67,98.788L67.855,98.807L68.041,98.826L68.227,98.843L68.414,98.859L68.6,98.874L68.788,98.887L68.975,98.9L69.163,98.911L69.351,98.921L69.539,98.93L69.728,98.938L69.917,98.945L70.106,98.95L70.296,98.954L70.486,98.957L70.676,98.959L70.866,98.96L71.057,98.959L71.247,98.957L71.437,98.954L71.626,98.95L71.815,98.945L72.004,98.938L72.193,98.93L72.382,98.921L72.57,98.911L72.757,98.9L72.945,98.887L73.132,98.874L73.319,98.859L73.505,98.843L73.691,98.826L73.877,98.807L74.062,98.788L74.248,98.767L74.432,98.746L74.617,98.723L74.801,98.699L74.984,98.674L75.168,98.647L75.351,98.62L75.533,98.591L75.716,98.562L75.897,98.531L76.079,98.499L76.26,98.466L76.441,98.432L76.621,98.397L76.801,98.361L76.981,98.323L77.16,98.285L77.338,98.245L77.517,98.205L77.695,98.163L77.872,98.12L78.049,98.076L78.226,98.031L78.402,97.985L78.578,97.938L78.753,97.89L78.928,97.841L79.103,97.791L79.277,97.74L79.45,97.687L79.623,97.634L79.796,97.58L79.968,97.524L80.14,97.468L80.311,97.411L80.482,97.352L80.653,97.293L80.823,97.232L80.992,97.171L81.161,97.108L81.329,97.045L81.497,96.98L81.665,96.915L81.832,96.848L81.998,96.781L82.164,96.712L82.33,96.643L82.495,96.572L82.659,96.501L82.823,96.429L82.986,96.355L83.149,96.281L83.311,96.206L83.473,96.13L83.635,96.053L83.795,95.974L83.955,95.895L84.115,95.815L84.274,95.734L84.433,95.653L84.591,95.57L84.748,95.486L84.905,95.402L85.061,95.316L85.217,95.23L85.372,95.142L85.526,95.054L85.68,94.965L85.834,94.875L85.986,94.784L86.139,94.692L86.29,94.599L86.441,94.505L86.591,94.411L86.741,94.315L86.89,94.219L87.039,94.122L87.187,94.024L87.334,93.925L87.481,93.825L87.627,93.725L87.772,93.623L87.917,93.521L88.061,93.418L88.204,93.314L88.347,93.209L88.489,93.103L88.631,92.997L88.772,92.889L88.912,92.781L89.051,92.672L89.19,92.563L89.328,92.452L89.466,92.34L89.603,92.228L89.739,92.115L89.874,92.001L90.009,91.887L90.143,91.771L90.276,91.655L90.409,91.538L90.541,91.42L90.672,91.302L90.802,91.183L90.932,91.062L91.061,90.942L91.189,90.82L91.317,90.698L91.444,90.575L91.57,90.451L91.695,90.326L91.82,90.201L91.944,90.075L92.067,89.948L92.189,89.82L92.311,89.692L92.432,89.563L92.552,89.433L92.671,89.302L92.79,89.171L92.908,89.039L93.025,88.907L93.141,88.773L93.256,88.639L93.371,88.505L93.485,88.369L93.598,88.233L93.71,88.096L93.821,87.959L93.932,87.821L94.042,87.682L94.151,87.542L94.259,87.402L94.366,87.261L94.473,87.12L94.578,86.978L94.683,86.835L94.787,86.692L94.89,86.547L94.993,86.403L95.094,86.257L95.195,86.111L95.294,85.965L95.393,85.817L95.491,85.669L95.589,85.521L95.685,85.372L95.78,85.222L95.875,85.072L95.968,84.921L96.061,84.769L96.153,84.617L96.244,84.464L96.334,84.311L96.423,84.157L96.512,84.002L96.599,83.847L96.685,83.692L96.771,83.535L96.856,83.379L96.939,83.221L97.022,83.063L97.104,82.905L97.185,82.746L97.265,82.586L97.344,82.426L97.422,82.265L97.499,82.104L97.575,81.942L97.65,81.78L97.725,81.617L97.798,81.454L97.87,81.29L97.942,81.125L98.012,80.96L98.082,80.795L98.15,80.629L98.218,80.462L98.284,80.295L98.35,80.128L98.414,79.96L98.478,79.792L98.54,79.623L98.602,79.453L98.662,79.283L98.721,79.113L98.78,78.942L98.837,78.771L98.894,78.599L98.949,78.427L99.004,78.254L99.057,78.081L99.109,77.907L99.16,77.733L99.211,77.559L99.26,77.384L99.308,77.208L99.355,77.033L99.401,76.856L99.446,76.68L99.49,76.503L99.532,76.325L99.574,76.147L99.615,75.969L99.654,75.79L99.693,75.611L99.73,75.432L99.766,75.252L99.801,75.071L99.835,74.891L99.868,74.71L99.9,74.528L99.931,74.346L99.961,74.164L99.989,73.981L100.017,73.798L100.043,73.615L100.068,73.431L100.092,73.247L100.115,73.063L100.137,72.878L100.157,72.693L100.177,72.508L100.195,72.322L100.212,72.136L100.228,71.949L100.243,71.762L100.257,71.575L100.269,71.388L100.28,71.2L100.291,71.012L100.3,70.824L100.307,70.635L100.314,70.446L100.319,70.257L100.324,70.067L100.327,69.877L100.328,69.687L100.329,69.497L100.328,69.306L100.327,69.116L100.324,68.926L100.319,68.737L100.314,68.547L100.307,68.358L100.3,68.17L100.291,67.981L100.28,67.793L100.269,67.606L100.257,67.418L100.243,67.231L100.228,67.044L100.212,66.858L100.195,66.672L100.177,66.486L100.157,66.3L100.137,66.115L100.115,65.931L100.092,65.746L100.068,65.562L100.043,65.378L100.017,65.195L99.989,65.012L99.961,64.83L99.931,64.647L99.9,64.465L99.868,64.284L99.835,64.103L99.801,63.922L99.766,63.742L99.73,63.562L99.693,63.382L99.654,63.203L99.615,63.025L99.574,62.846L99.532,62.668L99.49,62.491L99.446,62.314L99.401,62.137L99.355,61.961L99.308,61.785L99.26,61.61L99.211,61.435L99.16,61.26L99.109,61.086L99.057,60.913L99.004,60.739L98.949,60.567L98.894,60.395L98.837,60.223L98.78,60.051L98.721,59.881L98.662,59.71L98.602,59.54L98.54,59.371L98.478,59.202L98.414,59.034L98.35,58.866L98.284,58.698L98.218,58.531L98.15,58.365L98.082,58.199L98.012,58.033L97.942,57.868L97.87,57.704L97.798,57.54L97.725,57.377L97.65,57.214L97.575,57.051L97.499,56.89L97.422,56.728L97.344,56.568L97.265,56.407L97.185,56.248L97.104,56.089L97.022,55.93L96.939,55.772L96.856,55.615L96.771,55.458L96.685,55.302L96.599,55.146L96.512,54.991L96.423,54.837L96.334,54.683L96.244,54.529L96.153,54.376L96.061,54.224L95.968,54.073L95.875,53.922L95.78,53.771L95.685,53.622L95.589,53.473L95.491,53.324L95.393,53.176L95.294,53.029L95.195,52.882L95.094,52.736L94.993,52.591L94.89,52.446L94.787,52.302L94.683,52.159L94.578,52.016L94.473,51.874L94.366,51.732L94.259,51.591L94.151,51.451L94.042,51.312L93.932,51.173L93.821,51.035L93.71,50.897L93.598,50.76L93.485,50.624L93.371,50.489L93.256,50.354L93.141,50.22L93.025,50.087L92.908,49.954L92.79,49.822L92.671,49.691L92.552,49.561L92.432,49.431L92.311,49.302L92.189,49.173L92.067,49.046L91.944,48.919L91.82,48.793L91.695,48.668L91.57,48.543L91.444,48.419L91.317,48.296L91.189,48.173L91.061,48.052L90.932,47.931L90.802,47.811L90.672,47.692L90.541,47.573L90.409,47.455L90.276,47.338L90.143,47.222L90.009,47.107L89.874,46.992L89.739,46.878L89.603,46.765L89.466,46.653L89.328,46.542L89.19,46.431L89.051,46.321L88.912,46.212L88.772,46.104L88.631,45.997L88.489,45.89L88.347,45.785L88.204,45.68L88.061,45.576L87.917,45.473L87.772,45.37L87.627,45.269L87.481,45.168L87.334,45.068L87.187,44.97L87.039,44.872L86.89,44.774L86.741,44.678L86.591,44.583L86.441,44.488L86.29,44.394L86.139,44.302L85.986,44.21L85.834,44.119L85.68,44.029L85.526,43.94L85.372,43.851L85.217,43.764L85.061,43.677L84.905,43.592L84.748,43.507L84.591,43.424L84.433,43.341L84.274,43.259L84.115,43.178L83.955,43.098L83.795,43.019L83.635,42.941L83.473,42.864L83.311,42.788L83.149,42.712L82.986,42.638L82.823,42.565L82.659,42.492L82.495,42.421L82.33,42.351L82.164,42.281L81.998,42.213L81.832,42.145L81.665,42.079L81.497,42.013L81.329,41.949L81.161,41.885L80.992,41.823L80.823,41.761L80.653,41.701L80.482,41.641L80.311,41.583L80.14,41.526L79.968,41.469L79.796,41.414L79.623,41.359L79.45,41.306L79.277,41.254L79.103,41.203L78.928,41.152L78.753,41.103L78.578,41.055L78.402,41.008L78.226,40.962L78.049,40.917L77.872,40.873L77.695,40.831L77.517,40.789L77.338,40.748L77.16,40.709L76.981,40.67L76.801,40.633L76.621,40.597L76.441,40.561L76.26,40.527L76.079,40.494L75.897,40.463L75.716,40.432L75.533,40.402L75.351,40.374L75.168,40.346L74.984,40.32L74.801,40.295L74.617,40.271L74.432,40.248L74.248,40.226L74.062,40.206L73.877,40.186L73.691,40.168L73.505,40.151L73.319,40.135L73.132,40.12L72.945,40.106L72.757,40.094L72.57,40.082L72.382,40.072L72.193,40.063L72.004,40.056L71.815,40.049L71.626,40.044L71.437,40.039L71.247,40.036L71.057,40.035L70.866,40.034L70.676,40.035L70.486,40.036L70.296,40.039L70.106,40.044L69.917,40.049L69.728,40.056L69.539,40.063L69.351,40.072L69.163,40.082L68.975,40.094L68.788,40.106L68.6,40.12L68.414,40.135L68.227,40.151L68.041,40.168L67.855,40.186L67.67,40.206L67.485,40.226L67.3,40.248L67.116,40.271L66.932,40.295L66.748,40.32L66.564,40.346L66.382,40.374L66.199,40.402L66.017,40.432L65.835,40.463L65.653,40.494L65.472,40.527L65.292,40.561L65.111,40.597L64.931,40.633L64.752,40.67L64.573,40.709L64.394,40.748L64.216,40.789L64.038,40.831L63.86,40.873L63.683,40.917L63.506,40.962L63.33,41.008L63.154,41.055L62.979,41.103L62.804,41.152L62.63,41.203L62.456,41.254L62.282,41.306L62.109,41.359L61.936,41.414L61.764,41.469L61.592,41.526L61.421,41.583L61.25,41.641L61.08,41.701L60.91,41.761L60.74,41.823L60.571,41.885L60.403,41.949L60.235,42.013L60.067,42.079L59.901,42.145L59.734,42.213L59.568,42.281L59.403,42.351L59.238,42.421L59.073,42.492L58.909,42.565L58.746,42.638L58.583,42.712L58.421,42.788L58.259,42.864L58.098,42.941L57.937,43.019L57.777,43.098L57.617,43.178L57.458,43.259L57.3,43.341L57.142,43.424L56.984,43.507L56.827,43.592L56.671,43.677L56.516,43.764L56.36,43.851L56.206,43.94L56.052,44.029L55.899,44.119L55.746,44.21L55.594,44.302L55.442,44.394L55.291,44.488L55.141,44.583L54.991,44.678L54.842,44.774L54.693,44.872L54.546,44.97L54.398,45.068L54.252,45.168L54.106,45.269L53.96,45.37L53.815,45.473L53.671,45.576L53.528,45.68L53.385,45.785L53.243,45.89L53.101,45.997L52.961,46.104L52.82,46.212L52.681,46.321L52.542,46.431L52.404,46.542L52.267,46.653L52.13,46.765L51.994,46.878L51.858,46.992L51.723,47.107L51.589,47.222L51.456,47.338L51.324,47.455L51.192,47.573L51.06,47.692L50.93,47.811L50.8,47.931L50.671,48.052L50.543,48.173L50.415,48.296L50.288,48.419L50.162,48.543L50.037,48.667L49.912,48.793L49.788,48.919L49.665,49.046L49.543,49.173L49.421,49.302L49.3,49.431L49.18,49.561L49.061,49.691L48.942,49.822L48.825,49.954L48.708,50.087L48.592,50.22L48.476,50.354L48.361,50.489L48.248,50.624L48.135,50.76L48.022,50.897L47.911,51.035L47.8,51.173L47.691,51.312L47.582,51.451L47.473,51.591L47.366,51.732L47.26,51.874L47.154,52.016L47.049,52.159L46.945,52.302L46.842,52.446L46.74,52.591L46.638,52.736L46.538,52.882L46.438,53.029L46.339,53.176L46.241,53.324L46.144,53.473L46.047,53.622L45.952,53.771L45.858,53.922L45.764,54.073L45.671,54.224L45.579,54.376L45.488,54.529L45.398,54.683L45.309,54.837L45.221,54.991L45.133,55.146L45.047,55.302L44.961,55.458L44.877,55.615L44.793,55.772L44.71,55.93L44.628,56.089L44.547,56.248L44.468,56.407L44.388,56.568L44.31,56.728L44.233,56.89L44.157,57.051L44.082,57.214L44.008,57.377L43.934,57.54L43.862,57.704L43.79,57.868L43.72,58.033L43.651,58.199L43.582,58.365L43.515,58.531L43.448,58.698L43.383,58.866L43.318,59.034L43.255,59.202L43.192,59.371L43.131,59.54L43.07,59.71L43.011,59.881L42.952,60.051L42.895,60.223L42.839,60.395L42.783,60.567L42.729,60.739L42.675,60.913L42.623,61.086L42.572,61.26L42.522,61.435L42.473,61.61L42.425,61.785L42.377,61.961L42.332,62.137L42.287,62.314L42.243,62.491L42.2,62.668L42.158,62.846L42.118,63.025L42.078,63.203L42.04,63.382L42.002,63.562L41.966,63.742L41.931,63.922L41.897,64.103L41.864,64.284L41.832,64.465L41.801,64.647L41.772,64.83L41.743,65.012L41.716,65.195L41.689,65.378L41.664,65.562L41.64,65.746L41.617,65.931L41.596,66.115L41.575,66.3L41.556,66.486L41.537,66.672L41.52,66.858L41.504,67.044L41.489,67.231L41.476,67.418L41.463,67.606L41.452,67.793L41.442,67.981L41.433,68.17L41.425,68.358L41.418,68.547L41.413,68.737L41.409,68.926L41.406,69.116L41.404,69.306L41.403,69.497L41.404,69.687Z"/>
    </g>
    <g transform="matrix(6.22855e-17,1.0172,-1.0172,6.22855e-17,131.712,-24.5019)">
        <path d="M38.719,35.361L38.722,35.29L38.726,35.219L38.732,35.148L38.74,35.078L38.75,35.009L38.761,34.94L38.775,34.872L38.789,34.804L38.806,34.737L38.824,34.671L38.843,34.605L38.864,34.54L38.887,34.475L38.911,34.412L38.937,34.349L38.964,34.287L38.993,34.225L39.023,34.165L39.054,34.105L39.087,34.046L39.122,33.989L39.157,33.932L39.194,33.875L39.232,33.82L39.272,33.766L39.313,33.713L39.355,33.661L39.398,33.61L39.442,33.56L39.488,33.511L39.535,33.463L39.582,33.416L39.631,33.371L39.681,33.326L39.732,33.283L39.785,33.241L39.838,33.2L39.892,33.161L39.947,33.123L40.003,33.086L40.06,33.05L40.118,33.016L40.177,32.983L40.236,32.951L40.297,32.921L40.358,32.893L40.42,32.865L40.483,32.84L40.547,32.816L40.611,32.793L40.676,32.772L40.742,32.752L40.809,32.734L40.876,32.718L40.943,32.703L41.012,32.69L41.08,32.678L41.15,32.669L41.22,32.661L41.29,32.654L41.361,32.65L41.433,32.647L41.505,32.646L41.577,32.647L41.648,32.65L41.719,32.654L41.789,32.661L41.859,32.669L41.929,32.678L41.998,32.69L42.066,32.703L42.134,32.718L42.201,32.734L42.267,32.752L42.333,32.772L42.398,32.793L42.462,32.816L42.526,32.84L42.589,32.865L42.651,32.893L42.712,32.921L42.773,32.951L42.832,32.983L42.891,33.016L42.949,33.05L43.006,33.086L43.062,33.123L43.117,33.161L43.172,33.2L43.225,33.241L43.277,33.283L43.328,33.326L43.378,33.371L43.427,33.416L43.475,33.463L43.521,33.511L43.567,33.56L43.611,33.61L43.655,33.661L43.697,33.713L43.737,33.766L43.777,33.82L43.815,33.875L43.852,33.932L43.888,33.989L43.922,34.046L43.955,34.105L43.986,34.165L44.016,34.225L44.045,34.287L44.072,34.349L44.098,34.412L44.122,34.475L44.145,34.54L44.166,34.605L44.186,34.671L44.204,34.737L44.22,34.804L44.235,34.872L44.248,34.94L44.259,35.009L44.269,35.078L44.277,35.148L44.283,35.219L44.288,35.29L44.29,35.361L44.291,35.433L44.29,35.505L44.288,35.576L44.283,35.647L44.277,35.718L44.269,35.788L44.259,35.857L44.248,35.926L44.235,35.994L44.22,36.062L44.204,36.129L44.186,36.196L44.166,36.261L44.145,36.326L44.122,36.391L44.098,36.454L44.072,36.517L44.045,36.579L44.016,36.641L43.986,36.701L43.955,36.761L43.922,36.82L43.888,36.878L43.852,36.935L43.815,36.991L43.777,37.046L43.737,37.1L43.697,37.153L43.655,37.205L43.611,37.256L43.567,37.306L43.521,37.355L43.475,37.403L43.427,37.45L43.378,37.495L43.328,37.54L43.277,37.583L43.225,37.625L43.172,37.666L43.117,37.705L43.062,37.744L43.006,37.781L42.949,37.816L42.891,37.85L42.832,37.883L42.773,37.915L42.712,37.945L42.651,37.973L42.589,38.001L42.526,38.026L42.462,38.051L42.398,38.073L42.333,38.094L42.267,38.114L42.201,38.132L42.134,38.148L42.066,38.163L41.998,38.176L41.929,38.188L41.859,38.197L41.789,38.205L41.719,38.212L41.648,38.216L41.577,38.219L41.505,38.22L41.433,38.219L41.361,38.216L41.29,38.212L41.22,38.205L41.15,38.197L41.08,38.188L41.012,38.176L40.943,38.163L40.876,38.148L40.809,38.132L40.742,38.114L40.676,38.094L40.611,38.073L40.547,38.051L40.483,38.026L40.42,38.001L40.358,37.973L40.297,37.945L40.236,37.915L40.177,37.883L40.118,37.85L40.06,37.816L40.003,37.781L39.947,37.744L39.892,37.705L39.838,37.666L39.785,37.625L39.732,37.583L39.681,37.54L39.631,37.495L39.582,37.45L39.535,37.403L39.488,37.355L39.442,37.306L39.398,37.256L39.355,37.205L39.313,37.153L39.272,37.1L39.232,37.046L39.194,36.991L39.157,36.935L39.122,36.878L39.087,36.82L39.054,36.761L39.023,36.701L38.993,36.641L38.964,36.579L38.937,36.517L38.911,36.454L38.887,36.391L38.864,36.326L38.843,36.261L38.824,36.196L38.806,36.129L38.789,36.062L38.775,35.994L38.761,35.926L38.75,35.857L38.74,35.788L38.732,35.718L38.726,35.647L38.722,35.576L38.719,35.505L38.718,35.433L38.719,35.361ZM38.965,35.499L38.967,35.564L38.971,35.629L38.977,35.693L38.984,35.757L38.993,35.82L39.003,35.883L39.015,35.945L39.029,36.007L39.044,36.068L39.06,36.128L39.078,36.188L39.097,36.248L39.118,36.306L39.14,36.364L39.163,36.422L39.188,36.478L39.214,36.534L39.242,36.589L39.27,36.644L39.3,36.697L39.332,36.75L39.364,36.802L39.398,36.853L39.433,36.903L39.469,36.953L39.506,37.001L39.544,37.049L39.584,37.095L39.624,37.141L39.666,37.186L39.708,37.229L39.752,37.272L39.797,37.314L39.842,37.354L39.889,37.394L39.936,37.432L39.985,37.469L40.034,37.505L40.085,37.54L40.136,37.574L40.188,37.606L40.241,37.637L40.294,37.667L40.349,37.696L40.404,37.723L40.46,37.75L40.516,37.774L40.573,37.798L40.631,37.82L40.69,37.84L40.749,37.86L40.809,37.878L40.87,37.894L40.931,37.909L40.993,37.922L41.055,37.934L41.118,37.945L41.181,37.954L41.245,37.961L41.309,37.967L41.374,37.971L41.439,37.973L41.505,37.974L41.57,37.973L41.635,37.971L41.7,37.967L41.765,37.961L41.828,37.954L41.892,37.945L41.954,37.934L42.017,37.922L42.078,37.909L42.139,37.894L42.2,37.878L42.26,37.86L42.319,37.84L42.378,37.82L42.436,37.798L42.493,37.774L42.55,37.75L42.606,37.723L42.661,37.696L42.715,37.667L42.769,37.637L42.822,37.606L42.873,37.574L42.925,37.54L42.975,37.505L43.024,37.469L43.073,37.432L43.12,37.394L43.167,37.354L43.213,37.314L43.257,37.272L43.301,37.229L43.344,37.186L43.385,37.141L43.426,37.095L43.465,37.049L43.503,37.001L43.541,36.953L43.577,36.903L43.611,36.853L43.645,36.802L43.678,36.75L43.709,36.697L43.739,36.644L43.768,36.589L43.795,36.534L43.821,36.478L43.846,36.422L43.869,36.364L43.891,36.306L43.912,36.248L43.931,36.188L43.949,36.128L43.966,36.068L43.98,36.007L43.994,35.945L44.006,35.883L44.016,35.82L44.025,35.757L44.032,35.693L44.038,35.629L44.042,35.564L44.045,35.499L44.046,35.433L44.045,35.367L44.042,35.302L44.038,35.237L44.032,35.173L44.025,35.109L44.016,35.046L44.006,34.983L43.994,34.921L43.98,34.859L43.966,34.798L43.949,34.738L43.931,34.678L43.912,34.619L43.891,34.56L43.869,34.502L43.846,34.445L43.821,34.388L43.795,34.332L43.768,34.277L43.739,34.223L43.709,34.169L43.678,34.116L43.645,34.064L43.611,34.013L43.577,33.963L43.541,33.913L43.503,33.865L43.465,33.817L43.426,33.771L43.385,33.725L43.344,33.68L43.301,33.637L43.257,33.594L43.213,33.553L43.167,33.512L43.12,33.473L43.073,33.434L43.024,33.397L42.975,33.361L42.925,33.326L42.873,33.293L42.822,33.26L42.769,33.229L42.715,33.199L42.661,33.17L42.606,33.143L42.55,33.117L42.493,33.092L42.436,33.068L42.378,33.046L42.319,33.026L42.26,33.006L42.2,32.989L42.139,32.972L42.078,32.957L42.017,32.944L41.954,32.932L41.892,32.921L41.828,32.913L41.765,32.905L41.7,32.9L41.635,32.895L41.57,32.893L41.505,32.892L41.439,32.893L41.374,32.895L41.309,32.9L41.245,32.905L41.181,32.913L41.118,32.921L41.055,32.932L40.993,32.944L40.931,32.957L40.87,32.972L40.809,32.989L40.749,33.006L40.69,33.026L40.631,33.046L40.573,33.068L40.516,33.092L40.46,33.117L40.404,33.143L40.349,33.17L40.294,33.199L40.241,33.229L40.188,33.26L40.136,33.293L40.085,33.326L40.034,33.361L39.985,33.397L39.936,33.434L39.889,33.473L39.842,33.512L39.797,33.553L39.752,33.594L39.708,33.637L39.666,33.68L39.624,33.725L39.584,33.771L39.544,33.817L39.506,33.865L39.469,33.913L39.433,33.963L39.398,34.013L39.364,34.064L39.332,34.116L39.3,34.169L39.27,34.223L39.242,34.277L39.214,34.332L39.188,34.388L39.163,34.445L39.14,34.502L39.118,34.56L39.097,34.619L39.078,34.678L39.06,34.738L39.044,34.798L39.029,34.859L39.015,34.921L39.003,34.983L38.993,35.046L38.984,35.109L38.977,35.173L38.971,35.237L38.967,35.302L38.965,35.367L38.964,35.433L38.965,35.499Z"/>
    </g>
    <g transform="matrix(6.22855e-17,1.0172,-1.0172,6.22855e-17,131.712,81.7973)">
        <path d="M38.719,35.361L38.722,35.29L38.726,35.219L38.732,35.148L38.74,35.078L38.75,35.009L38.761,34.94L38.775,34.872L38.789,34.804L38.806,34.737L38.824,34.671L38.843,34.605L38.864,34.54L38.887,34.475L38.911,34.412L38.937,34.349L38.964,34.287L38.993,34.225L39.023,34.165L39.054,34.105L39.087,34.046L39.122,33.989L39.157,33.932L39.194,33.875L39.232,33.82L39.272,33.766L39.313,33.713L39.355,33.661L39.398,33.61L39.442,33.56L39.488,33.511L39.535,33.463L39.582,33.416L39.631,33.371L39.681,33.326L39.732,33.283L39.785,33.241L39.838,33.2L39.892,33.161L39.947,33.123L40.003,33.086L40.06,33.05L40.118,33.016L40.177,32.983L40.236,32.951L40.297,32.921L40.358,32.893L40.42,32.865L40.483,32.84L40.547,32.816L40.611,32.793L40.676,32.772L40.742,32.752L40.809,32.734L40.876,32.718L40.943,32.703L41.012,32.69L41.08,32.678L41.15,32.669L41.22,32.661L41.29,32.654L41.361,32.65L41.433,32.647L41.505,32.646L41.577,32.647L41.648,32.65L41.719,32.654L41.789,32.661L41.859,32.669L41.929,32.678L41.998,32.69L42.066,32.703L42.134,32.718L42.201,32.734L42.267,32.752L42.333,32.772L42.398,32.793L42.462,32.816L42.526,32.84L42.589,32.865L42.651,32.893L42.712,32.921L42.773,32.951L42.832,32.983L42.891,33.016L42.949,33.05L43.006,33.086L43.062,33.123L43.117,33.161L43.172,33.2L43.225,33.241L43.277,33.283L43.328,33.326L43.378,33.371L43.427,33.416L43.475,33.463L43.521,33.511L43.567,33.56L43.611,33.61L43.655,33.661L43.697,33.713L43.737,33.766L43.777,33.82L43.815,33.875L43.852,33.932L43.888,33.989L43.922,34.046L43.955,34.105L43.986,34.165L44.016,34.225L44.045,34.287L44.072,34.349L44.098,34.412L44.122,34.475L44.145,34.54L44.166,34.605L44.186,34.671L44.204,34.737L44.22,34.804L44.235,34.872L44.248,34.94L44.259,35.009L44.269,35.078L44.277,35.148L44.283,35.219L44.288,35.29L44.29,35.361L44.291,35.433L44.29,35.505L44.288,35.576L44.283,35.647L44.277,35.718L44.269,35.788L44.259,35.857L44.248,35.926L44.235,35.994L44.22,36.062L44.204,36.129L44.186,36.196L44.166,36.261L44.145,36.326L44.122,36.391L44.098,36.454L44.072,36.517L44.045,36.579L44.016,36.641L43.986,36.701L43.955,36.761L43.922,36.82L43.888,36.878L43.852,36.935L43.815,36.991L43.777,37.046L43.737,37.1L43.697,37.153L43.655,37.205L43.611,37.256L43.567,37.306L43.521,37.355L43.475,37.403L43.427,37.45L43.378,37.495L43.328,37.54L43.277,37.583L43.225,37.625L43.172,37.666L43.117,37.705L43.062,37.744L43.006,37.781L42.949,37.816L42.891,37.85L42.832,37.883L42.773,37.915L42.712,37.945L42.651,37.973L42.589,38.001L42.526,38.026L42.462,38.051L42.398,38.073L42.333,38.094L42.267,38.114L42.201,38.132L42.134,38.148L42.066,38.163L41.998,38.176L41.929,38.188L41.859,38.197L41.789,38.205L41.719,38.212L41.648,38.216L41.577,38.219L41.505,38.22L41.433,38.219L41.361,38.216L41.29,38.212L41.22,38.205L41.15,38.197L41.08,38.188L41.012,38.176L40.943,38.163L40.876,38.148L40.809,38.132L40.742,38.114L40.676,38.094L40.611,38.073L40.547,38.051L40.483,38.026L40.42,38.001L40.358,37.973L40.297,37.945L40.236,37.915L40.177,37.883L40.118,37.85L40.06,37.816L40.003,37.781L39.947,37.744L39.892,37.705L39.838,37.666L39.785,37.625L39.732,37.583L39.681,37.54L39.631,37.495L39.582,37.45L39.535,37.403L39.488,37.355L39.442,37.306L39.398,37.256L39.355,37.205L39.313,37.153L39.272,37.1L39.232,37.046L39.194,36.991L39.157,36.935L39.122,36.878L39.087,36.82L39.054,36.761L39.023,36.701L38.993,36.641L38.964,36.579L38.937,36.517L38.911,36.454L38.887,36.391L38.864,36.326L38.843,36.261L38.824,36.196L38.806,36.129L38.789,36.062L38.775,35.994L38.761,35.926L38.75,35.857L38.74,35.788L38.732,35.718L38.726,35.647L38.722,35.576L38.719,35.505L38.718,35.433L38.719,35.361ZM38.965,35.499L38.967,35.564L38.971,35.629L38.977,35.693L38.984,35.757L38.993,35.82L39.003,35.883L39.015,35.945L39.029,36.007L39.044,36.068L39.06,36.128L39.078,36.188L39.097,36.248L39.118,36.306L39.14,36.364L39.163,36.422L39.188,36.478L39.214,36.534L39.242,36.589L39.27,36.644L39.3,36.697L39.332,36.75L39.364,36.802L39.398,36.853L39.433,36.903L39.469,36.953L39.506,37.001L39.544,37.049L39.584,37.095L39.624,37.141L39.666,37.186L39.708,37.229L39.752,37.272L39.797,37.314L39.842,37.354L39.889,37.394L39.936,37.432L39.985,37.469L40.034,37.505L40.085,37.54L40.136,37.574L40.188,37.606L40.241,37.637L40.294,37.667L40.349,37.696L40.404,37.723L40.46,37.75L40.516,37.774L40.573,37.798L40.631,37.82L40.69,37.84L40.749,37.86L40.809,37.878L40.87,37.894L40.931,37.909L40.993,37.922L41.055,37.934L41.118,37.945L41.181,37.954L41.245,37.961L41.309,37.967L41.374,37.971L41.439,37.973L41.505,37.974L41.57,37.973L41.635,37.971L41.7,37.967L41.765,37.961L41.828,37.954L41.892,37.945L41.954,37.934L42.017,37.922L42.078,37.909L42.139,37.894L42.2,37.878L42.26,37.86L42.319,37.84L42.378,37.82L42.436,37.798L42.493,37.774L42.55,37.75L42.606,37.723L42.661,37.696L42.715,37.667L42.769,37.637L42.821,37.606L42.873,37.574L42.925,37.54L42.975,37.505L43.024,37.469L43.073,37.432L43.12,37.394L43.167,37.354L43.213,37.314L43.257,37.272L43.301,37.229L43.344,37.186L43.385,37.141L43.426,37.095L43.465,37.049L43.503,37.001L43.541,36.953L43.577,36.903L43.611,36.853L43.645,36.802L43.678,36.75L43.709,36.697L43.739,36.644L43.768,36.589L43.795,36.534L43.821,36.478L43.846,36.422L43.869,36.364L43.891,36.306L43.912,36.248L43.931,36.188L43.949,36.128L43.966,36.068L43.98,36.007L43.994,35.945L44.006,35.883L44.016,35.82L44.025,35.757L44.032,35.693L44.038,35.629L44.042,35.564L44.045,35.499L44.046,35.433L44.045,35.367L44.042,35.302L44.038,35.237L44.032,35.173L44.025,35.109L44.016,35.046L44.006,34.983L43.994,34.921L43.98,34.859L43.966,34.798L43.949,34.738L43.931,34.678L43.912,34.619L43.891,34.56L43.869,34.502L43.846,34.445L43.821,34.388L43.795,34.332L43.768,34.277L43.739,34.223L43.709,34.169L43.678,34.116L43.645,34.064L43.611,34.013L43.577,33.963L43.541,33.913L43.503,33.865L43.465,33.817L43.426,33.771L43.385,33.725L43.344,33.68L43.301,33.637L43.257,33.594L43.213,33.553L43.167,33.512L43.12,33.473L43.073,33.434L43.024,33.397L42.975,33.361L42.925,33.326L42.873,33.293L42.821,33.26L42.769,33.229L42.715,33.199L42.661,33.17L42.606,33.143L42.55,33.117L42.493,33.092L42.436,33.068L42.378,33.046L42.319,33.026L42.26,33.006L42.2,32.989L42.139,32.972L42.078,32.957L42.017,32.944L41.954,32.932L41.892,32.921L41.828,32.913L41.765,32.905L41.7,32.9L41.635,32.895L41.57,32.893L41.505,32.892L41.439,32.893L41.374,32.895L41.309,32.9L41.245,32.905L41.181,32.913L41.118,32.921L41.055,32.932L40.993,32.944L40.931,32.957L40.87,32.972L40.809,32.989L40.749,33.006L40.69,33.026L40.631,33.046L40.573,33.068L40.516,33.092L40.46,33.117L40.404,33.143L40.349,33.17L40.294,33.199L40.241,33.229L40.188,33.26L40.136,33.293L40.085,33.326L40.034,33.361L39.985,33.397L39.936,33.434L39.889,33.473L39.842,33.512L39.797,33.553L39.752,33.594L39.708,33.637L39.666,33.68L39.624,33.725L39.584,33.771L39.544,33.817L39.506,33.865L39.469,33.913L39.433,33.963L39.398,34.013L39.364,34.064L39.332,34.116L39.3,34.169L39.27,34.223L39.242,34.277L39.214,34.332L39.188,34.388L39.163,34.445L39.14,34.502L39.118,34.56L39.097,34.619L39.078,34.678L39.06,34.738L39.044,34.798L39.029,34.859L39.015,34.921L39.003,34.983L38.993,35.046L38.984,35.109L38.977,35.173L38.971,35.237L38.967,35.302L38.965,35.367L38.964,35.433L38.965,35.499Z"/>
    </g>
    <g transform="matrix(1.24571e-16,2.0344,-2.0344,1.24571e-16,167.754,-66.7204)">
        <path d="M38.718,35.433C38.718,33.895 39.967,32.646 41.505,32.646" style="fill:none;stroke:black;stroke-width:0.12px;"/>
    </g>
    <g transform="matrix(1.24571e-16,2.0344,-2.0344,1.24571e-16,167.754,39.5788)">
        <path d="M41.505,32.646C43.043,32.646 44.291,33.895 44.291,35.433" style="fill:none;stroke:black;stroke-width:0.12px;"/>
    </g>
    <g transform="matrix(1.24571e-16,2.0344,-2.0344,1.24571e-16,118.148,-66.7204)">
        <path d="M41.505,38.22C39.967,38.22 38.718,36.971 38.718,35.433" style="fill:none;stroke:black;stroke-width:0.12px;"/>
    </g>
    <g transform="matrix(1.24571e-16,2.0344,-2.79231,1.7098e-16,145.003,-66.7204)">
        <path d="M38.718,35.433L38.718,17.668" style="fill:none;stroke:black;stroke-width:0.1px;"/>
    </g>
    <g transform="matrix(1.24571e-16,2.0344,-2.79231,1.7098e-16,145.003,39.5788)">
        <path d="M44.291,17.668L44.291,35.433" style="fill:none;stroke:black;stroke-width:0.1px;"/>
    </g>
    <g transform="matrix(1.24571e-16,2.0344,-2.0344,1.24571e-16,118.148,39.5788)">
        <path d="M44.291,35.433C44.291,36.971 43.043,38.22 41.505,38.22" style="fill:none;stroke:black;stroke-width:0.12px;"/>
    </g>
    <g transform="matrix(6.22855e-17,1.0172,-1.0172,6.22855e-17,82.1055,-24.5019)">
        <path d="M38.719,35.361L38.722,35.29L38.726,35.219L38.732,35.148L38.74,35.078L38.75,35.009L38.761,34.94L38.775,34.872L38.789,34.804L38.806,34.737L38.824,34.671L38.843,34.605L38.864,34.54L38.887,34.475L38.911,34.412L38.937,34.349L38.964,34.287L38.993,34.225L39.023,34.165L39.054,34.105L39.087,34.046L39.122,33.989L39.157,33.932L39.194,33.875L39.232,33.82L39.272,33.766L39.313,33.713L39.355,33.661L39.398,33.61L39.442,33.56L39.488,33.511L39.535,33.463L39.582,33.416L39.631,33.371L39.681,33.326L39.732,33.283L39.785,33.241L39.838,33.2L39.892,33.161L39.947,33.123L40.003,33.086L40.06,33.05L40.118,33.016L40.177,32.983L40.236,32.951L40.297,32.921L40.358,32.893L40.42,32.865L40.483,32.84L40.547,32.816L40.611,32.793L40.676,32.772L40.742,32.752L40.809,32.734L40.876,32.718L40.943,32.703L41.012,32.69L41.08,32.678L41.15,32.669L41.22,32.661L41.29,32.654L41.361,32.65L41.433,32.647L41.505,32.646L41.577,32.647L41.648,32.65L41.719,32.654L41.789,32.661L41.859,32.669L41.929,32.678L41.998,32.69L42.066,32.703L42.134,32.718L42.201,32.734L42.267,32.752L42.333,32.772L42.398,32.793L42.462,32.816L42.526,32.84L42.589,32.865L42.651,32.893L42.712,32.921L42.773,32.951L42.832,32.983L42.891,33.016L42.949,33.05L43.006,33.086L43.062,33.123L43.117,33.161L43.172,33.2L43.225,33.241L43.277,33.283L43.328,33.326L43.378,33.371L43.427,33.416L43.475,33.463L43.521,33.511L43.567,33.56L43.611,33.61L43.655,33.661L43.697,33.713L43.737,33.766L43.777,33.82L43.815,33.875L43.852,33.932L43.888,33.989L43.922,34.046L43.955,34.105L43.986,34.165L44.016,34.225L44.045,34.287L44.072,34.349L44.098,34.412L44.122,34.475L44.145,34.54L44.166,34.605L44.186,34.671L44.204,34.737L44.22,34.804L44.235,34.872L44.248,34.94L44.259,35.009L44.269,35.078L44.277,35.148L44.283,35.219L44.288,35.29L44.29,35.361L44.291,35.433L44.29,35.505L44.288,35.576L44.283,35.647L44.277,35.718L44.269,35.788L44.259,35.857L44.248,35.926L44.235,35.994L44.22,36.062L44.204,36.129L44.186,36.196L44.166,36.261L44.145,36.326L44.122,36.391L44.098,36.454L44.072,36.517L44.045,36.579L44.016,36.641L43.986,36.701L43.955,36.761L43.922,36.82L43.888,36.878L43.852,36.935L43.815,36.991L43.777,37.046L43.737,37.1L43.697,37.153L43.655,37.205L43.611,37.256L43.567,37.306L43.521,37.355L43.475,37.403L43.427,37.45L43.378,37.495L43.328,37.54L43.277,37.583L43.225,37.625L43.172,37.666L43.117,37.705L43.062,37.744L43.006,37.781L42.949,37.816L42.891,37.85L42.832,37.883L42.773,37.915L42.712,37.945L42.651,37.973L42.589,38.001L42.526,38.026L42.462,38.051L42.398,38.073L42.333,38.094L42.267,38.114L42.201,38.132L42.134,38.148L42.066,38.163L41.998,38.176L41.929,38.188L41.859,38.197L41.789,38.205L41.719,38.212L41.648,38.216L41.577,38.219L41.505,38.22L41.433,38.219L41.361,38.216L41.29,38.212L41.22,38.205L41.15,38.197L41.08,38.188L41.012,38.176L40.943,38.163L40.876,38.148L40.809,38.132L40.742,38.114L40.676,38.094L40.611,38.073L40.547,38.051L40.483,38.026L40.42,38.001L40.358,37.973L40.297,37.945L40.236,37.915L40.177,37.883L40.118,37.85L40.06,37.816L40.003,37.781L39.947,37.744L39.892,37.705L39.838,37.666L39.785,37.625L39.732,37.583L39.681,37.54L39.631,37.495L39.582,37.45L39.535,37.403L39.488,37.355L39.442,37.306L39.398,37.256L39.355,37.205L39.313,37.153L39.272,37.1L39.232,37.046L39.194,36.991L39.157,36.935L39.122,36.878L39.087,36.82L39.054,36.761L39.023,36.701L38.993,36.641L38.964,36.579L38.937,36.517L38.911,36.454L38.887,36.391L38.864,36.326L38.843,36.261L38.824,36.196L38.806,36.129L38.789,36.062L38.775,35.994L38.761,35.926L38.75,35.857L38.74,35.788L38.732,35.718L38.726,35.647L38.722,35.576L38.719,35.505L38.718,35.433L38.719,35.361ZM38.965,35.499L38.967,35.564L38.971,35.629L38.977,35.693L38.984,35.757L38.993,35.82L39.003,35.883L39.015,35.945L39.029,36.007L39.044,36.068L39.06,36.128L39.078,36.188L39.097,36.248L39.118,36.306L39.14,36.364L39.163,36.422L39.188,36.478L39.214,36.534L39.242,36.589L39.27,36.644L39.3,36.697L39.332,36.75L39.364,36.802L39.398,36.853L39.433,36.903L39.469,36.953L39.506,37.001L39.544,37.049L39.584,37.095L39.624,37.141L39.666,37.186L39.708,37.229L39.752,37.272L39.797,37.314L39.842,37.354L39.889,37.394L39.936,37.432L39.985,37.469L40.034,37.505L40.085,37.54L40.136,37.574L40.188,37.606L40.241,37.637L40.294,37.667L40.349,37.696L40.404,37.723L40.46,37.75L40.516,37.774L40.573,37.798L40.631,37.82L40.69,37.84L40.749,37.86L40.809,37.878L40.87,37.894L40.931,37.909L40.993,37.922L41.055,37.934L41.118,37.945L41.181,37.954L41.245,37.961L41.309,37.967L41.374,37.971L41.439,37.973L41.505,37.974L41.57,37.973L41.635,37.971L41.7,37.967L41.765,37.961L41.828,37.954L41.892,37.945L41.954,37.934L42.017,37.922L42.078,37.909L42.139,37.894L42.2,37.878L42.26,37.86L42.319,37.84L42.378,37.82L42.436,37.798L42.493,37.774L42.55,37.75L42.606,37.723L42.661,37.696L42.715,37.667L42.769,37.637L42.822,37.606L42.873,37.574L42.925,37.54L42.975,37.505L43.024,37.469L43.073,37.432L43.12,37.394L43.167,37.354L43.213,37.314L43.257,37.272L43.301,37.229L43.344,37.186L43.385,37.141L43.426,37.095L43.465,37.049L43.503,37.001L43.541,36.953L43.577,36.903L43.611,36.853L43.645,36.802L43.678,36.75L43.709,36.697L43.739,36.644L43.768,36.589L43.795,36.534L43.821,36.478L43.846,36.422L43.869,36.364L43.891,36.306L43.912,36.248L43.931,36.188L43.949,36.128L43.966,36.068L43.98,36.007L43.994,35.945L44.006,35.883L44.016,35.82L44.025,35.757L44.032,35.693L44.038,35.629L44.042,35.564L44.045,35.499L44.046,35.433L44.045,35.367L44.042,35.302L44.038,35.237L44.032,35.173L44.025,35.109L44.016,35.046L44.006,34.983L43.994,34.921L43.98,34.859L43.966,34.798L43.949,34.738L43.931,34.678L43.912,34.619L43.891,34.56L43.869,34.502L43.846,34.445L43.821,34.388L43.795,34.332L43.768,34.277L43.739,34.223L43.709,34.169L43.678,34.116L43.645,34.064L43.611,34.013L43.577,33.963L43.541,33.913L43.503,33.865L43.465,33.817L43.426,33.771L43.385,33.725L43.344,33.68L43.301,33.637L43.257,33.594L43.213,33.553L43.167,33.512L43.12,33.473L43.073,33.434L43.024,33.397L42.975,33.361L42.925,33.326L42.873,33.293L42.822,33.26L42.769,33.229L42.715,33.199L42.661,33.17L42.606,33.143L42.55,33.117L42.493,33.092L42.436,33.068L42.378,33.046L42.319,33.026L42.26,33.006L42.2,32.989L42.139,32.972L42.078,32.957L42.017,32.944L41.954,32.932L41.892,32.921L41.828,32.913L41.765,32.905L41.7,32.9L41.635,32.895L41.57,32.893L41.505,32.892L41.439,32.893L41.374,32.895L41.309,32.9L41.245,32.905L41.181,32.913L41.118,32.921L41.055,32.932L40.993,32.944L40.931,32.957L40.87,32.972L40.809,32.989L40.749,33.006L40.69,33.026L40.631,33.046L40.573,33.068L40.516,33.092L40.46,33.117L40.404,33.143L40.349,33.17L40.294,33.199L40.241,33.229L40.188,33.26L40.136,33.293L40.085,33.326L40.034,33.361L39.985,33.397L39.936,33.434L39.889,33.473L39.842,33.512L39.797,33.553L39.752,33.594L39.708,33.637L39.666,33.68L39.624,33.725L39.584,33.771L39.544,33.817L39.506,33.865L39.469,33.913L39.433,33.963L39.398,34.013L39.364,34.064L39.332,34.116L39.3,34.169L39.27,34.223L39.242,34.277L39.214,34.332L39.188,34.388L39.163,34.445L39.14,34.502L39.118,34.56L39.097,34.619L39.078,34.678L39.06,34.738L39.044,34.798L39.029,34.859L39.015,34.921L39.003,34.983L38.993,35.046L38.984,35.109L38.977,35.173L38.971,35.237L38.967,35.302L38.965,35.367L38.964,35.433L38.965,35.499Z"/>
    </g>
    <g transform="matrix(6.22855e-17,1.0172,-1.0172,6.22855e-17,82.1055,81.7973)">
        <path d="M38.719,35.361L38.722,35.29L38.726,35.219L38.732,35.148L38.74,35.078L38.75,35.009L38.761,34.94L38.775,34.872L38.789,34.804L38.806,34.737L38.824,34.671L38.843,34.605L38.864,34.54L38.887,34.475L38.911,34.412L38.937,34.349L38.964,34.287L38.993,34.225L39.023,34.165L39.054,34.105L39.087,34.046L39.122,33.989L39.157,33.932L39.194,33.875L39.232,33.82L39.272,33.766L39.313,33.713L39.355,33.661L39.398,33.61L39.442,33.56L39.488,33.511L39.535,33.463L39.582,33.416L39.631,33.371L39.681,33.326L39.732,33.283L39.785,33.241L39.838,33.2L39.892,33.161L39.947,33.123L40.003,33.086L40.06,33.05L40.118,33.016L40.177,32.983L40.236,32.951L40.297,32.921L40.358,32.893L40.42,32.865L40.483,32.84L40.547,32.816L40.611,32.793L40.676,32.772L40.742,32.752L40.809,32.734L40.876,32.718L40.943,32.703L41.012,32.69L41.08,32.678L41.15,32.669L41.22,32.661L41.29,32.654L41.361,32.65L41.433,32.647L41.505,32.646L41.577,32.647L41.648,32.65L41.719,32.654L41.789,32.661L41.859,32.669L41.929,32.678L41.998,32.69L42.066,32.703L42.134,32.718L42.201,32.734L42.267,32.752L42.333,32.772L42.398,32.793L42.462,32.816L42.526,32.84L42.589,32.865L42.651,32.893L42.712,32.921L42.773,32.951L42.832,32.983L42.891,33.016L42.949,33.05L43.006,33.086L43.062,33.123L43.117,33.161L43.172,33.2L43.225,33.241L43.277,33.283L43.328,33.326L43.378,33.371L43.427,33.416L43.475,33.463L43.521,33.511L43.567,33.56L43.611,33.61L43.655,33.661L43.697,33.713L43.737,33.766L43.777,33.82L43.815,33.875L43.852,33.932L43.888,33.989L43.922,34.046L43.955,34.105L43.986,34.165L44.016,34.225L44.045,34.287L44.072,34.349L44.098,34.412L44.122,34.475L44.145,34.54L44.166,34.605L44.186,34.671L44.204,34.737L44.22,34.804L44.235,34.872L44.248,34.94L44.259,35.009L44.269,35.078L44.277,35.148L44.283,35.219L44.288,35.29L44.29,35.361L44.291,35.433L44.29,35.505L44.288,35.576L44.283,35.647L44.277,35.718L44.269,35.788L44.259,35.857L44.248,35.926L44.235,35.994L44.22,36.062L44.204,36.129L44.186,36.196L44.166,36.261L44.145,36.326L44.122,36.391L44.098,36.454L44.072,36.517L44.045,36.579L44.016,36.641L43.986,36.701L43.955,36.761L43.922,36.82L43.888,36.878L43.852,36.935L43.815,36.991L43.777,37.046L43.737,37.1L43.697,37.153L43.655,37.205L43.611,37.256L43.567,37.306L43.521,37.355L43.475,37.403L43.427,37.45L43.378,37.495L43.328,37.54L43.277,37.583L43.225,37.625L43.172,37.666L43.117,37.705L43.062,37.744L43.006,37.781L42.949,37.816L42.891,37.85L42.832,37.883L42.773,37.915L42.712,37.945L42.651,37.973L42.589,38.001L42.526,38.026L42.462,38.051L42.398,38.073L42.333,38.094L42.267,38.114L42.201,38.132L42.134,38.148L42.066,38.163L41.998,38.176L41.929,38.188L41.859,38.197L41.789,38.205L41.719,38.212L41.648,38.216L41.577,38.219L41.505,38.22L41.433,38.219L41.361,38.216L41.29,38.212L41.22,38.205L41.15,38.197L41.08,38.188L41.012,38.176L40.943,38.163L40.876,38.148L40.809,38.132L40.742,38.114L40.676,38.094L40.611,38.073L40.547,38.051L40.483,38.026L40.42,38.001L40.358,37.973L40.297,37.945L40.236,37.915L40.177,37.883L40.118,37.85L40.06,37.816L40.003,37.781L39.947,37.744L39.892,37.705L39.838,37.666L39.785,37.625L39.732,37.583L39.681,37.54L39.631,37.495L39.582,37.45L39.535,37.403L39.488,37.355L39.442,37.306L39.398,37.256L39.355,37.205L39.313,37.153L39.272,37.1L39.232,37.046L39.194,36.991L39.157,36.935L39.122,36.878L39.087,36.82L39.054,36.761L39.023,36.701L38.993,36.641L38.964,36.579L38.937,36.517L38.911,36.454L38.887,36.391L38.864,36.326L38.843,36.261L38.824,36.196L38.806,36.129L38.789,36.062L38.775,35.994L38.761,35.926L38.75,35.857L38.74,35.788L38.732,35.718L38.726,35.647L38.722,35.576L38.719,35.505L38.718,35.433L38.719,35.361ZM38.965,35.499L38.967,35.564L38.971,35.629L38.977,35.693L38.984,35.757L38.993,35.82L39.003,35.883L39.015,35.945L39.029,36.007L39.044,36.068L39.06,36.128L39.078,36.188L39.097,36.248L39.118,36.306L39.14,36.364L39.163,36.422L39.188,36.478L39.214,36.534L39.242,36.589L39.27,36.644L39.3,36.697L39.332,36.75L39.364,36.802L39.398,36.853L39.433,36.903L39.469,36.953L39.506,37.001L39.544,37.049L39.584,37.095L39.624,37.141L39.666,37.186L39.708,37.229L39.752,37.272L39.797,37.314L39.842,37.354L39.889,37.394L39.936,37.432L39.985,37.469L40.034,37.505L40.085,37.54L40.136,37.574L40.188,37.606L40.241,37.637L40.294,37.667L40.349,37.696L40.404,37.723L40.46,37.75L40.516,37.774L40.573,37.798L40.631,37.82L40.69,37.84L40.749,37.86L40.809,37.878L40.87,37.894L40.931,37.909L40.993,37.922L41.055,37.934L41.118,37.945L41.181,37.954L41.245,37.961L41.309,37.967L41.374,37.971L41.439,37.973L41.505,37.974L41.57,37.973L41.635,37.971L41.7,37.967L41.765,37.961L41.828,37.954L41.892,37.945L41.954,37.934L42.017,37.922L42.078,37.909L42.139,37.894L42.2,37.878L42.26,37.86L42.319,37.84L42.378,37.82L42.436,37.798L42.493,37.774L42.55,37.75L42.606,37.723L42.661,37.696L42.715,37.667L42.769,37.637L42.822,37.606L42.873,37.574L42.925,37.54L42.975,37.505L43.024,37.469L43.073,37.432L43.12,37.394L43.167,37.354L43.213,37.314L43.257,37.272L43.301,37.229L43.344,37.186L43.385,37.141L43.426,37.095L43.465,37.049L43.503,37.001L43.541,36.953L43.577,36.903L43.611,36.853L43.645,36.802L43.678,36.75L43.709,36.697L43.739,36.644L43.768,36.589L43.795,36.534L43.821,36.478L43.846,36.422L43.869,36.364L43.891,36.306L43.912,36.248L43.931,36.188L43.949,36.128L43.966,36.068L43.98,36.007L43.994,35.945L44.006,35.883L44.016,35.82L44.025,35.757L44.032,35.693L44.038,35.629L44.042,35.564L44.045,35.499L44.046,35.433L44.045,35.367L44.042,35.302L44.038,35.237L44.032,35.173L44.025,35.109L44.016,35.046L44.006,34.983L43.994,34.921L43.98,34.859L43.966,34.798L43.949,34.738L43.931,34.678L43.912,34.619L43.891,34.56L43.869,34.502L43.846,34.445L43.821,34.388L43.795,34.332L43.768,34.277L43.739,34.223L43.709,34.169L43.678,34.116L43.645,34.064L43.611,34.013L43.577,33.963L43.541,33.913L43.503,33.865L43.465,33.817L43.426,33.771L43.385,33.725L43.344,33.68L43.301,33.637L43.257,33.594L43.213,33.553L43.167,33.512L43.12,33.473L43.073,33.434L43.024,33.397L42.975,33.361L42.925,33.326L42.873,33.293L42.822,33.26L42.769,33.229L42.715,33.199L42.661,33.17L42.606,33.143L42.55,33.117L42.493,33.092L42.436,33.068L42.378,33.046L42.319,33.026L42.26,33.006L42.2,32.989L42.139,32.972L42.078,32.957L42.017,32.944L41.954,32.932L41.892,32.921L41.828,32.913L41.765,32.905L41.7,32.9L41.635,32.895L41.57,32.893L41.505,32.892L41.439,32.893L41.374,32.895L41.309,32.9L41.245,32.905L41.181,32.913L41.118,32.921L41.055,32.932L40.993,32.944L40.931,32.957L40.87,32.972L40.809,32.989L40.749,33.006L40.69,33.026L40.631,33.046L40.573,33.068L40.516,33.092L40.46,33.117L40.404,33.143L40.349,33.17L40.294,33.199L40.241,33.229L40.188,33.26L40.136,33.293L40.085,33.326L40.034,33.361L39.985,33.397L39.936,33.434L39.889,33.473L39.842,33.512L39.797,33.553L39.752,33.594L39.708,33.637L39.666,33.68L39.624,33.725L39.584,33.771L39.544,33.817L39.506,33.865L39.469,33.913L39.433,33.963L39.398,34.013L39.364,34.064L39.332,34.116L39.3,34.169L39.27,34.223L39.242,34.277L39.214,34.332L39.188,34.388L39.163,34.445L39.14,34.502L39.118,34.56L39.097,34.619L39.078,34.678L39.06,34.738L39.044,34.798L39.029,34.859L39.015,34.921L39.003,34.983L38.993,35.046L38.984,35.109L38.977,35.173L38.971,35.237L38.967,35.302L38.965,35.367L38.964,35.433L38.965,35.499Z"/>
    </g>
</svg>
