<?xml version="1.0" encoding="UTF-8" standalone="no"?>
<!DOCTYPE svg PUBLIC "-//W3C//DTD SVG 1.1//EN" "http://www.w3.org/Graphics/SVG/1.1/DTD/svg11.dtd">
<svg width="745px" height="1063px" version="1.1" xmlns="http://www.w3.org/2000/svg" xmlns:xlink="http://www.w3.org/1999/xlink" xml:space="preserve" xmlns:serif="http://www.serif.com/" style="fill-rule:evenodd;clip-rule:evenodd;stroke-linecap:round;stroke-linejoin:round;stroke-miterlimit:1.5;">
    <g id="_1.6mmPlywood_Base" serif:id="1.6mmPlywood_Base" transform="matrix(0.3,0,0,0.3,0,0)">
        <g transform="matrix(6.45794e-17,-1.05466,1.75385,1.07392e-16,101.344,2046.22)">
            <path d="M717.251,266.139L1819.22,266.139" style="fill:none;stroke:rgb(0,0,255);stroke-width:1.22px;"/>
        </g>
        <g transform="matrix(0.0728832,-4.98908e-33,0,1.61905,680.008,-363.569)">
            <path d="M717.251,266.139L1819.22,266.139" style="fill:none;stroke:rgb(0,0,255);stroke-width:1.55px;"/>
        </g>
        <g transform="matrix(0.731511,-3.08149e-33,0,1,404.26,-198.816)">
            <path d="M717.251,266.139L1819.22,266.139" style="fill:none;stroke:rgb(0,0,255);stroke-width:2.02px;"/>
        </g>
        <g transform="matrix(6.45794e-17,1.05466,-1,6.12323e-17,2061.41,-628.899)">
            <path d="M717.251,266.139L1538.88,266.139" style="fill:none;stroke:rgb(0,0,255);stroke-width:1.72px;"/>
        </g>
        <g transform="matrix(1,0,0,1,5.90551,-10.6299)">
            <circle cx="865.748" cy="79.134" r="17.717" style="fill:none;stroke:rgb(0,0,255);stroke-width:1.77px;"/>
        </g>
        <path d="M930.709,67.323C919.043,67.323 908.731,61.478 902.545,52.559L898.023,46.654M871.654,34.252C882.255,34.252 891.739,39.079 898.023,46.654" style="fill:none;stroke:rgb(0,0,255);stroke-width:1.77px;"/>
        <g transform="matrix(1,0,0,1,-198.425,0)">
            <path d="M930.709,67.323C919.043,67.323 908.731,61.478 902.545,52.559L898.023,46.654M871.654,34.252C882.255,34.252 891.739,39.079 898.023,46.654" style="fill:none;stroke:rgb(0,0,255);stroke-width:1.77px;"/>
        </g>
        <g transform="matrix(6.12323e-17,1,1,-6.12323e-17,500.787,-803.15)">
            <path d="M930.709,67.323C919.043,67.323 908.731,61.478 902.545,52.559L898.023,46.654M871.654,34.252C882.255,34.252 891.739,39.079 898.023,46.654" style="fill:none;stroke:rgb(0,0,255);stroke-width:1.77px;"/>
        </g>
        <g transform="matrix(-1,0,0,1,1743.31,-1.56319e-13)">
            <path d="M930.709,67.323C919.043,67.323 908.731,61.478 902.545,52.559L898.023,46.654M871.654,34.252C882.255,34.252 891.739,39.079 898.023,46.654" style="fill:none;stroke:rgb(0,0,255);stroke-width:1.77px;"/>
        </g>
        <path d="M646.858,46.654L642.337,52.559C629.556,70.987 613.554,70.987 600.773,52.559L596.252,46.654M673.228,34.252C662.627,34.252 653.143,39.079 646.858,46.654M569.882,34.252C580.484,34.252 589.967,39.079 596.252,46.654" style="fill:none;stroke:rgb(0,0,255);stroke-width:1.77px;"/>
        <g transform="matrix(-1,0,0,1,2665.75,-1.56319e-13)">
            <path d="M930.709,67.323C919.043,67.323 908.731,61.478 902.545,52.559L898.023,46.654M871.654,34.252C882.255,34.252 891.739,39.079 898.023,46.654" style="fill:none;stroke:rgb(0,0,255);stroke-width:1.77px;"/>
        </g>
        <g transform="matrix(-6.12323e-17,1,-1,-6.12323e-17,1862.6,-803.15)">
            <path d="M930.709,67.323C919.043,67.323 908.731,61.478 902.545,52.559L898.023,46.654M871.654,34.252C882.255,34.252 891.739,39.079 898.023,46.654" style="fill:none;stroke:rgb(0,0,255);stroke-width:1.77px;"/>
        </g>
        <g transform="matrix(6.12323e-17,-1,1,6.12323e-17,500.787,2220.47)">
            <path d="M930.709,67.323C919.043,67.323 908.731,61.478 902.545,52.559L898.023,46.654M871.654,34.252C882.255,34.252 891.739,39.079 898.023,46.654" style="fill:none;stroke:rgb(0,0,255);stroke-width:1.77px;"/>
        </g>
        <g transform="matrix(1,0,0,1,928.346,-10.6299)">
            <circle cx="865.748" cy="79.134" r="17.717" style="fill:none;stroke:rgb(0,0,255);stroke-width:1.77px;"/>
        </g>
        <g transform="matrix(1,0,0,1,928.346,1269.69)">
            <circle cx="865.748" cy="79.134" r="17.717" style="fill:none;stroke:rgb(0,0,255);stroke-width:1.77px;"/>
        </g>
        <g transform="matrix(1,0,0,1,-296.457,1269.69)">
            <circle cx="865.748" cy="79.134" r="17.717" style="fill:none;stroke:rgb(0,0,255);stroke-width:1.77px;"/>
        </g>
        <g transform="matrix(1,0,0,1,409.843,1269.69)">
            <circle cx="865.748" cy="79.134" r="17.717" style="fill:none;stroke:rgb(0,0,255);stroke-width:1.77px;"/>
        </g>
        <g transform="matrix(1,0,0,1,-192.52,-10.6299)">
            <circle cx="865.748" cy="79.134" r="17.717" style="fill:none;stroke:rgb(0,0,255);stroke-width:1.77px;"/>
        </g>
        <g transform="matrix(1,0,0,1,-296.457,-10.6299)">
            <circle cx="865.748" cy="79.134" r="17.717" style="fill:none;stroke:rgb(0,0,255);stroke-width:1.77px;"/>
        </g>
        <g transform="matrix(1.31818,0,0,1.34091,-489.889,-105.118)">
            <path d="M1732.68,103.937C1747.02,103.937 1758.66,115.58 1758.66,129.921" style="fill:none;stroke:rgb(0,0,255);stroke-width:1.33px;"/>
        </g>
        <g transform="matrix(8.07154e-17,-1.31818,1.34091,8.2107e-17,395.669,2352.49)">
            <path d="M1732.68,103.937C1747.02,103.937 1758.66,115.58 1758.66,129.921" style="fill:none;stroke:rgb(0,0,255);stroke-width:1.33px;"/>
        </g>
        <g transform="matrix(1,0,0,1,805.512,1217.85)">
            <circle cx="865.748" cy="79.134" r="17.717" style="fill:none;stroke:rgb(0,0,255);stroke-width:1.77px;"/>
        </g>
        <g transform="matrix(1,0,0,1,478.346,1217.85)">
            <circle cx="865.748" cy="79.134" r="17.717" style="fill:none;stroke:rgb(0,0,255);stroke-width:1.77px;"/>
        </g>
        <g transform="matrix(1,0,0,1,49.0157,-3.41061e-13)">
            <circle cx="630.709" cy="129.921" r="9.449" style="fill:none;stroke:rgb(0,0,255);stroke-width:1.77px;"/>
        </g>
        <g transform="matrix(1,0,0,1,233.858,-3.41061e-13)">
            <circle cx="630.709" cy="129.921" r="9.449" style="fill:none;stroke:rgb(0,0,255);stroke-width:1.77px;"/>
        </g>
        <circle cx="630.709" cy="129.921" r="9.449" style="fill:none;stroke:rgb(0,0,255);stroke-width:1.77px;"/>
        <g transform="matrix(1,0,0,1,1101.97,-3.69482e-13)">
            <circle cx="630.709" cy="129.921" r="9.449" style="fill:none;stroke:rgb(0,0,255);stroke-width:1.77px;"/>
        </g>
        <g transform="matrix(1,0,0,1,1101.97,1157.48)">
            <circle cx="630.709" cy="129.921" r="9.449" style="fill:none;stroke:rgb(0,0,255);stroke-width:1.77px;"/>
        </g>
        <g transform="matrix(1,0,0,1,1119.69,1683.07)">
            <circle cx="630.709" cy="129.921" r="9.449" style="fill:none;stroke:rgb(0,0,255);stroke-width:1.77px;"/>
        </g>
        <g transform="matrix(1,0,0,1,1378.74,1236.61)">
            <circle cx="630.709" cy="129.921" r="9.449" style="fill:none;stroke:rgb(0,0,255);stroke-width:1.77px;"/>
        </g>
        <g transform="matrix(1,0,0,1,651.969,1157.48)">
            <circle cx="630.709" cy="129.921" r="9.449" style="fill:none;stroke:rgb(0,0,255);stroke-width:1.77px;"/>
        </g>
        <g transform="matrix(1,0,0,1,0,1157.48)">
            <circle cx="630.709" cy="129.921" r="9.449" style="fill:none;stroke:rgb(0,0,255);stroke-width:1.77px;"/>
        </g>
        <g transform="matrix(1.33389,0,0,1.33389,510.555,173.765)">
            <circle cx="865.748" cy="79.134" r="17.717" style="fill:none;stroke:rgb(0,0,255);stroke-width:1.33px;"/>
        </g>
        <g transform="matrix(1.33389,0,0,1.33389,510.555,1025.95)">
            <circle cx="865.748" cy="79.134" r="17.717" style="fill:none;stroke:rgb(0,0,255);stroke-width:1.33px;"/>
        </g>
        <g transform="matrix(1.33389,0,0,1.33389,483.961,1353.12)">
            <circle cx="865.748" cy="79.134" r="17.717" style="fill:none;stroke:rgb(0,0,255);stroke-width:1.33px;"/>
        </g>
        <g transform="matrix(1.33389,0,0,1.33389,-430.212,1353.12)">
            <circle cx="865.748" cy="79.134" r="17.717" style="fill:none;stroke:rgb(0,0,255);stroke-width:1.33px;"/>
        </g>
        <g transform="matrix(1.33389,0,0,1.33389,423.744,2234.2)">
            <circle cx="865.748" cy="79.134" r="17.717" style="fill:none;stroke:rgb(0,0,255);stroke-width:1.33px;"/>
        </g>
        <g transform="matrix(1.33389,0,0,1.33389,-456.768,173.765)">
            <circle cx="865.748" cy="79.134" r="17.717" style="fill:none;stroke:rgb(0,0,255);stroke-width:1.33px;"/>
        </g>
        <g transform="matrix(1.33389,0,0,1.33389,-456.768,1025.95)">
            <circle cx="865.748" cy="79.134" r="17.717" style="fill:none;stroke:rgb(0,0,255);stroke-width:1.33px;"/>
        </g>
        <g transform="matrix(1.33389,0,0,1.33389,-369.976,2234.2)">
            <circle cx="865.748" cy="79.134" r="17.717" style="fill:none;stroke:rgb(0,0,255);stroke-width:1.33px;"/>
        </g>
        <path d="M535.039,1348.82C535.039,1354.1 536.239,1359.11 538.381,1363.58C540.535,1368.08 538.557,1363.77 568.11,1407.87C648.716,1528.16 625.5,2219.45 658.144,2368.7C671.315,2426.5 723.07,2469.68 784.833,2469.68" style="fill:none;stroke:rgb(0,0,255);stroke-width:1.77px;"/>
        <g transform="matrix(-1,0,0,1,2363.39,-3.41061e-13)">
            <path d="M568.11,994.094C564.784,1090.91 526.16,1160.99 481.496,1218.5C438.999,1273.23 314.173,1360.24 314.173,1360.24L611.417,1869.11C611.417,1869.11 620.419,1885.29 625.197,1901.58C628.957,1914.39 631.915,1931.1 632.288,1940.94C639.726,2137.47 642.613,2297.69 658.144,2368.7C671.315,2426.5 723.07,2469.68 784.833,2469.68" style="fill:none;stroke:rgb(0,0,255);stroke-width:1.77px;"/>
        </g>
        <path d="M1578.54,2469.68L784.843,2469.68" style="fill:none;stroke:rgb(0,0,255);stroke-width:1.77px;"/>
    </g>
    <g id="_1.5mmStainlessSteel_Plate" serif:id="1.5mmStainlessSteel_Plate" transform="matrix(0.3,0,0,0.3,0,0)">
        <g transform="matrix(1,0,0,1,0.590551,1.77165)">
            <path d="M1098.42,204.331L1098.42,216.142L1088.98,216.142L1088.98,252.756L1098.42,252.756L1098.42,321.26L1089.57,321.26L1089.57,357.874L1098.42,357.874L1098.42,369.685L1263.78,369.685L1263.78,357.874L1273.23,357.874L1273.23,321.26L1263.78,321.26L1263.78,252.756L1273.23,252.756L1273.23,216.142L1263.78,216.142L1263.78,204.331L1098.42,204.331Z" style="fill:none;stroke:rgb(0,0,255);stroke-width:1.77px;"/>
        </g>
        <g transform="matrix(1,0,0,1,0.590551,226.181)">
            <path d="M1098.42,204.331L1098.42,216.142L1088.98,216.142L1088.98,252.756L1098.42,252.756L1098.42,321.26L1089.57,321.26L1089.57,357.874L1098.42,357.874L1098.42,369.685L1263.78,369.685L1263.78,357.874L1273.23,357.874L1273.23,321.26L1263.78,321.26L1263.78,252.756L1273.23,252.756L1273.23,216.142L1263.78,216.142L1263.78,204.331L1098.42,204.331Z" style="fill:none;stroke:rgb(0,0,255);stroke-width:1.77px;"/>
        </g>
        <g transform="matrix(1,0,0,1,0.590551,450.591)">
            <path d="M1098.42,204.331L1098.42,216.142L1088.98,216.142L1088.98,252.756L1098.42,252.756L1098.42,321.26L1089.57,321.26L1089.57,357.874L1098.42,357.874L1098.42,369.685L1263.78,369.685L1263.78,357.874L1273.23,357.874L1273.23,321.26L1263.78,321.26L1263.78,252.756L1273.23,252.756L1273.23,216.142L1263.78,216.142L1263.78,204.331L1098.42,204.331Z" style="fill:none;stroke:rgb(0,0,255);stroke-width:1.77px;"/>
        </g>
        <g transform="matrix(1,0,0,1,0.590551,675)">
            <path d="M1098.42,204.331L1098.42,216.142L1088.98,216.142L1088.98,252.756L1098.42,252.756L1098.42,321.26L1089.57,321.26L1089.57,357.874L1098.42,357.874L1098.42,369.685L1263.78,369.685L1263.78,357.874L1273.23,357.874L1273.23,321.26L1263.78,321.26L1263.78,252.756L1273.23,252.756L1273.23,216.142L1263.78,216.142L1263.78,204.331L1098.42,204.331Z" style="fill:none;stroke:rgb(0,0,255);stroke-width:1.77px;"/>
        </g>
        <g transform="matrix(1,0,0,1,0.590551,899.409)">
            <path d="M1098.42,204.331L1098.42,216.142L1088.98,216.142L1088.98,252.756L1098.42,252.756L1098.42,321.26L1089.57,321.26L1089.57,357.874L1098.42,357.874L1098.42,369.685L1263.78,369.685L1263.78,357.874L1273.23,357.874L1273.23,321.26L1263.78,321.26L1263.78,252.756L1273.23,252.756L1273.23,216.142L1263.78,216.142L1263.78,204.331L1098.42,204.331Z" style="fill:none;stroke:rgb(0,0,255);stroke-width:1.77px;"/>
        </g>
        <g transform="matrix(1,0,0,1,225.591,-54.9213)">
            <path d="M1098.42,204.331L1098.42,216.142L1088.98,216.142L1088.98,252.756L1098.42,252.756L1098.42,321.26L1089.57,321.26L1089.57,357.874L1098.42,357.874L1098.42,369.685L1263.78,369.685L1263.78,357.874L1273.23,357.874L1273.23,321.26L1263.78,321.26L1263.78,252.756L1273.23,252.756L1273.23,216.142L1263.78,216.142L1263.78,204.331L1098.42,204.331Z" style="fill:none;stroke:rgb(0,0,255);stroke-width:1.77px;"/>
        </g>
        <g transform="matrix(1,0,0,1,225.591,169.488)">
            <path d="M1098.42,204.331L1098.42,216.142L1088.98,216.142L1088.98,252.756L1098.42,252.756L1098.42,321.26L1089.57,321.26L1089.57,357.874L1098.42,357.874L1098.42,369.685L1263.78,369.685L1263.78,357.874L1273.23,357.874L1273.23,321.26L1263.78,321.26L1263.78,252.756L1273.23,252.756L1273.23,216.142L1263.78,216.142L1263.78,204.331L1098.42,204.331Z" style="fill:none;stroke:rgb(0,0,255);stroke-width:1.77px;"/>
        </g>
        <g transform="matrix(1,0,0,1,225.591,393.898)">
            <path d="M1098.42,204.331L1098.42,216.142L1088.98,216.142L1088.98,252.756L1098.42,252.756L1098.42,321.26L1089.57,321.26L1089.57,357.874L1098.42,357.874L1098.42,369.685L1263.78,369.685L1263.78,357.874L1273.23,357.874L1273.23,321.26L1263.78,321.26L1263.78,252.756L1273.23,252.756L1273.23,216.142L1263.78,216.142L1263.78,204.331L1098.42,204.331Z" style="fill:none;stroke:rgb(0,0,255);stroke-width:1.77px;"/>
        </g>
        <g transform="matrix(1,0,0,1,225.591,618.307)">
            <path d="M1098.42,204.331L1098.42,216.142L1088.98,216.142L1088.98,252.756L1098.42,252.756L1098.42,321.26L1089.57,321.26L1089.57,357.874L1098.42,357.874L1098.42,369.685L1263.78,369.685L1263.78,357.874L1273.23,357.874L1273.23,321.26L1263.78,321.26L1263.78,252.756L1273.23,252.756L1273.23,216.142L1263.78,216.142L1263.78,204.331L1098.42,204.331Z" style="fill:none;stroke:rgb(0,0,255);stroke-width:1.77px;"/>
        </g>
        <g transform="matrix(1,0,0,1,225.591,842.717)">
            <path d="M1098.42,204.331L1098.42,216.142L1088.98,216.142L1088.98,252.756L1098.42,252.756L1098.42,321.26L1089.57,321.26L1089.57,357.874L1098.42,357.874L1098.42,369.685L1263.78,369.685L1263.78,357.874L1273.23,357.874L1273.23,321.26L1263.78,321.26L1263.78,252.756L1273.23,252.756L1273.23,216.142L1263.78,216.142L1263.78,204.331L1098.42,204.331Z" style="fill:none;stroke:rgb(0,0,255);stroke-width:1.77px;"/>
        </g>
        <g transform="matrix(1,0,0,1,450,-54.9213)">
            <path d="M1098.42,204.331L1098.42,216.142L1088.98,216.142L1088.98,252.756L1098.42,252.756L1098.42,321.26L1089.57,321.26L1089.57,357.874L1098.42,357.874L1098.42,369.685L1263.78,369.685L1263.78,357.874L1273.23,357.874L1273.23,321.26L1263.78,321.26L1263.78,252.756L1273.23,252.756L1273.23,216.142L1263.78,216.142L1263.78,204.331L1098.42,204.331Z" style="fill:none;stroke:rgb(0,0,255);stroke-width:1.77px;"/>
        </g>
        <g transform="matrix(1,0,0,1,450,169.488)">
            <path d="M1098.42,204.331L1098.42,216.142L1088.98,216.142L1088.98,252.756L1098.42,252.756L1098.42,321.26L1089.57,321.26L1089.57,357.874L1098.42,357.874L1098.42,369.685L1263.78,369.685L1263.78,357.874L1273.23,357.874L1273.23,321.26L1263.78,321.26L1263.78,252.756L1273.23,252.756L1273.23,216.142L1263.78,216.142L1263.78,204.331L1098.42,204.331Z" style="fill:none;stroke:rgb(0,0,255);stroke-width:1.77px;"/>
        </g>
        <g transform="matrix(1,0,0,1,450,393.898)">
            <path d="M1098.42,204.331L1098.42,216.142L1088.98,216.142L1088.98,252.756L1098.42,252.756L1098.42,321.26L1089.57,321.26L1089.57,357.874L1098.42,357.874L1098.42,369.685L1263.78,369.685L1263.78,357.874L1273.23,357.874L1273.23,321.26L1263.78,321.26L1263.78,252.756L1273.23,252.756L1273.23,216.142L1263.78,216.142L1263.78,204.331L1098.42,204.331Z" style="fill:none;stroke:rgb(0,0,255);stroke-width:1.77px;"/>
        </g>
        <g transform="matrix(1,0,0,1,450,618.307)">
            <path d="M1098.42,204.331L1098.42,216.142L1088.98,216.142L1088.98,252.756L1098.42,252.756L1098.42,321.26L1089.57,321.26L1089.57,357.874L1098.42,357.874L1098.42,369.685L1263.78,369.685L1263.78,357.874L1273.23,357.874L1273.23,321.26L1263.78,321.26L1263.78,252.756L1273.23,252.756L1273.23,216.142L1263.78,216.142L1263.78,204.331L1098.42,204.331Z" style="fill:none;stroke:rgb(0,0,255);stroke-width:1.77px;"/>
        </g>
        <g transform="matrix(1,0,0,1,450,842.717)">
            <path d="M1098.42,204.331L1098.42,216.142L1088.98,216.142L1088.98,252.756L1098.42,252.756L1098.42,321.26L1089.57,321.26L1089.57,357.874L1098.42,357.874L1098.42,369.685L1263.78,369.685L1263.78,357.874L1273.23,357.874L1273.23,321.26L1263.78,321.26L1263.78,252.756L1273.23,252.756L1273.23,216.142L1263.78,216.142L1263.78,204.331L1098.42,204.331Z" style="fill:none;stroke:rgb(0,0,255);stroke-width:1.77px;"/>
        </g>
        <g transform="matrix(1,0,0,1,-223.228,-54.9213)">
            <path d="M1098.42,204.331L1098.42,216.142L1088.98,216.142L1088.98,252.756L1098.42,252.756L1098.42,321.26L1089.57,321.26L1089.57,357.874L1098.42,357.874L1098.42,369.685L1263.78,369.685L1263.78,357.874L1273.23,357.874L1273.23,321.26L1263.78,321.26L1263.78,252.756L1273.23,252.756L1273.23,216.142L1263.78,216.142L1263.78,204.331L1098.42,204.331Z" style="fill:none;stroke:rgb(0,0,255);stroke-width:1.77px;"/>
        </g>
        <g transform="matrix(1,0,0,1,-223.228,169.488)">
            <path d="M1098.42,204.331L1098.42,216.142L1088.98,216.142L1088.98,252.756L1098.42,252.756L1098.42,321.26L1089.57,321.26L1089.57,357.874L1098.42,357.874L1098.42,369.685L1263.78,369.685L1263.78,357.874L1273.23,357.874L1273.23,321.26L1263.78,321.26L1263.78,252.756L1273.23,252.756L1273.23,216.142L1263.78,216.142L1263.78,204.331L1098.42,204.331Z" style="fill:none;stroke:rgb(0,0,255);stroke-width:1.77px;"/>
        </g>
        <g transform="matrix(1,0,0,1,-223.228,393.898)">
            <path d="M1098.42,204.331L1098.42,216.142L1088.98,216.142L1088.98,252.756L1098.42,252.756L1098.42,321.26L1089.57,321.26L1089.57,357.874L1098.42,357.874L1098.42,369.685L1263.78,369.685L1263.78,357.874L1273.23,357.874L1273.23,321.26L1263.78,321.26L1263.78,252.756L1273.23,252.756L1273.23,216.142L1263.78,216.142L1263.78,204.331L1098.42,204.331Z" style="fill:none;stroke:rgb(0,0,255);stroke-width:1.77px;"/>
        </g>
        <g transform="matrix(1,0,0,1,-223.228,618.307)">
            <path d="M1098.42,204.331L1098.42,216.142L1088.98,216.142L1088.98,252.756L1098.42,252.756L1098.42,321.26L1089.57,321.26L1089.57,357.874L1098.42,357.874L1098.42,369.685L1263.78,369.685L1263.78,357.874L1273.23,357.874L1273.23,321.26L1263.78,321.26L1263.78,252.756L1273.23,252.756L1273.23,216.142L1263.78,216.142L1263.78,204.331L1098.42,204.331Z" style="fill:none;stroke:rgb(0,0,255);stroke-width:1.77px;"/>
        </g>
        <g transform="matrix(1,0,0,1,-223.228,842.717)">
            <path d="M1098.42,204.331L1098.42,216.142L1088.98,216.142L1088.98,252.756L1098.42,252.756L1098.42,321.26L1089.57,321.26L1089.57,357.874L1098.42,357.874L1098.42,369.685L1263.78,369.685L1263.78,357.874L1273.23,357.874L1273.23,321.26L1263.78,321.26L1263.78,252.756L1273.23,252.756L1273.23,216.142L1263.78,216.142L1263.78,204.331L1098.42,204.331Z" style="fill:none;stroke:rgb(0,0,255);stroke-width:1.77px;"/>
        </g>
        <g transform="matrix(1,0,0,1,-447.638,1.1811)">
            <path d="M1098.42,204.331L1098.42,216.142L1088.98,216.142L1088.98,252.756L1098.42,252.756L1098.42,321.26L1089.57,321.26L1089.57,357.874L1098.42,357.874L1098.42,369.685L1263.78,369.685L1263.78,357.874L1273.23,357.874L1273.23,321.26L1263.78,321.26L1263.78,252.756L1273.23,252.756L1273.23,216.142L1263.78,216.142L1263.78,204.331L1098.42,204.331Z" style="fill:none;stroke:rgb(0,0,255);stroke-width:1.77px;"/>
        </g>
        <g transform="matrix(1,0,0,1,-447.638,225.591)">
            <path d="M1098.42,204.331L1098.42,216.142L1088.98,216.142L1088.98,252.756L1098.42,252.756L1098.42,321.26L1089.57,321.26L1089.57,357.874L1098.42,357.874L1098.42,369.685L1263.78,369.685L1263.78,357.874L1273.23,357.874L1273.23,321.26L1263.78,321.26L1263.78,252.756L1273.23,252.756L1273.23,216.142L1263.78,216.142L1263.78,204.331L1098.42,204.331Z" style="fill:none;stroke:rgb(0,0,255);stroke-width:1.77px;"/>
        </g>
        <g transform="matrix(1,0,0,1,-447.638,450)">
            <path d="M1098.42,204.331L1098.42,216.142L1088.98,216.142L1088.98,252.756L1098.42,252.756L1098.42,321.26L1089.57,321.26L1089.57,357.874L1098.42,357.874L1098.42,369.685L1263.78,369.685L1263.78,357.874L1273.23,357.874L1273.23,321.26L1263.78,321.26L1263.78,252.756L1273.23,252.756L1273.23,216.142L1263.78,216.142L1263.78,204.331L1098.42,204.331Z" style="fill:none;stroke:rgb(0,0,255);stroke-width:1.77px;"/>
        </g>
        <g transform="matrix(1,0,0,1,-447.638,674.409)">
            <path d="M1098.42,204.331L1098.42,216.142L1088.98,216.142L1088.98,252.756L1098.42,252.756L1098.42,321.26L1089.57,321.26L1089.57,357.874L1098.42,357.874L1098.42,369.685L1263.78,369.685L1263.78,357.874L1273.23,357.874L1273.23,321.26L1263.78,321.26L1263.78,252.756L1273.23,252.756L1273.23,216.142L1263.78,216.142L1263.78,204.331L1098.42,204.331Z" style="fill:none;stroke:rgb(0,0,255);stroke-width:1.77px;"/>
        </g>
        <g transform="matrix(1,0,0,1,-447.638,898.819)">
            <path d="M1098.42,204.331L1098.42,216.142L1088.98,216.142L1088.98,252.756L1098.42,252.756L1098.42,321.26L1089.57,321.26L1089.57,357.874L1098.42,357.874L1098.42,369.685L1263.78,369.685L1263.78,357.874L1273.23,357.874L1273.23,321.26L1263.78,321.26L1263.78,252.756L1273.23,252.756L1273.23,216.142L1263.78,216.142L1263.78,204.331L1098.42,204.331Z" style="fill:none;stroke:rgb(0,0,255);stroke-width:1.77px;"/>
        </g>
        <g transform="matrix(0.533762,1.2326e-32,0,1.02347,245.505,1078.21)">
            <path d="M717.251,266.139L1819.22,266.139" style="fill:none;stroke:rgb(0,0,255);stroke-width:2.17px;"/>
        </g>
        <g transform="matrix(6.45794e-17,-1.05466,1.75385,1.07392e-16,101.344,2046.22)">
            <path d="M717.251,266.139L1819.22,266.139" style="fill:none;stroke:rgb(0,0,255);stroke-width:1.22px;"/>
        </g>
        <g transform="matrix(0.0728832,-4.98908e-33,0,1.61905,680.008,-363.569)">
            <path d="M717.251,266.139L1819.22,266.139" style="fill:none;stroke:rgb(0,0,255);stroke-width:1.55px;"/>
        </g>
        <g transform="matrix(0.731511,-3.08149e-33,0,1,404.26,-198.816)">
            <path d="M717.251,266.139L1819.22,266.139" style="fill:none;stroke:rgb(0,0,255);stroke-width:2.02px;"/>
        </g>
        <g transform="matrix(6.45794e-17,1.05466,-1,6.12323e-17,2061.41,-628.899)">
            <path d="M717.251,266.139L1819.22,266.139" style="fill:none;stroke:rgb(0,0,255);stroke-width:1.72px;"/>
        </g>
        <g transform="matrix(1,0,0,1,5.90551,-10.6299)">
            <circle cx="865.748" cy="79.134" r="17.717" style="fill:none;stroke:rgb(0,0,255);stroke-width:1.77px;"/>
        </g>
        <path d="M930.709,67.323C919.043,67.323 908.731,61.478 902.545,52.559L898.023,46.654M871.654,34.252C882.255,34.252 891.739,39.079 898.023,46.654" style="fill:none;stroke:rgb(0,0,255);stroke-width:1.77px;"/>
        <g transform="matrix(1,0,0,1,-198.425,0)">
            <path d="M930.709,67.323C919.043,67.323 908.731,61.478 902.545,52.559L898.023,46.654M871.654,34.252C882.255,34.252 891.739,39.079 898.023,46.654" style="fill:none;stroke:rgb(0,0,255);stroke-width:1.77px;"/>
        </g>
        <g transform="matrix(6.12323e-17,1,1,-6.12323e-17,500.787,-803.15)">
            <path d="M930.709,67.323C919.043,67.323 908.731,61.478 902.545,52.559L898.023,46.654M871.654,34.252C882.255,34.252 891.739,39.079 898.023,46.654" style="fill:none;stroke:rgb(0,0,255);stroke-width:1.77px;"/>
        </g>
        <g transform="matrix(-1,0,0,1,1743.31,-1.56319e-13)">
            <path d="M930.709,67.323C919.043,67.323 908.731,61.478 902.545,52.559L898.023,46.654M871.654,34.252C882.255,34.252 891.739,39.079 898.023,46.654" style="fill:none;stroke:rgb(0,0,255);stroke-width:1.77px;"/>
        </g>
        <path d="M646.858,46.654L642.337,52.559C629.556,70.987 613.554,70.987 600.773,52.559L596.252,46.654M673.228,34.252C662.627,34.252 653.143,39.079 646.858,46.654M569.882,34.252C580.484,34.252 589.967,39.079 596.252,46.654" style="fill:none;stroke:rgb(0,0,255);stroke-width:1.77px;"/>
        <g transform="matrix(-1,0,0,1,2665.75,-1.56319e-13)">
            <path d="M930.709,67.323C919.043,67.323 908.731,61.478 902.545,52.559L898.023,46.654M871.654,34.252C882.255,34.252 891.739,39.079 898.023,46.654" style="fill:none;stroke:rgb(0,0,255);stroke-width:1.77px;"/>
        </g>
        <g transform="matrix(-6.12323e-17,1,-1,-6.12323e-17,1862.6,-803.15)">
            <path d="M930.709,67.323C919.043,67.323 908.731,61.478 902.545,52.559L898.023,46.654M871.654,34.252C882.255,34.252 891.739,39.079 898.023,46.654" style="fill:none;stroke:rgb(0,0,255);stroke-width:1.77px;"/>
        </g>
        <g transform="matrix(-6.12323e-17,-1,-1,6.12323e-17,1862.6,2220.47)">
            <path d="M930.709,67.323C919.043,67.323 908.731,61.478 902.545,52.559L898.023,46.654M871.654,34.252C882.255,34.252 891.739,39.079 898.023,46.654" style="fill:none;stroke:rgb(0,0,255);stroke-width:1.77px;"/>
        </g>
        <g transform="matrix(1,1.22465e-16,-1.22465e-16,1,862.795,1315.75)">
            <path d="M930.709,67.323C919.043,67.323 908.731,61.478 902.545,52.559L898.023,46.654M871.654,34.252C882.255,34.252 891.739,39.079 898.023,46.654" style="fill:none;stroke:rgb(0,0,255);stroke-width:1.77px;"/>
        </g>
        <g transform="matrix(-1,1.24652e-16,1.22465e-16,1.01786,2206.3,1315.14)">
            <path d="M930.709,67.323C919.043,67.323 908.731,61.478 902.545,52.559L898.023,46.654M871.654,34.252C882.255,34.252 891.739,39.079 898.023,46.654" style="fill:none;stroke:rgb(0,0,255);stroke-width:1.76px;"/>
        </g>
        <g transform="matrix(1,1.22465e-16,-1.22465e-16,1,344.882,1316.34)">
            <path d="M930.709,67.323C919.043,67.323 908.731,61.478 902.545,52.559L898.023,46.654M871.654,34.252C882.255,34.252 891.739,39.079 898.023,46.654" style="fill:none;stroke:rgb(0,0,255);stroke-width:1.77px;"/>
        </g>
        <g transform="matrix(-1,1.22465e-16,1.22465e-16,1,1500,1316.34)">
            <path d="M930.709,67.323C919.043,67.323 908.731,61.478 902.545,52.559L898.023,46.654M871.654,34.252C882.255,34.252 891.739,39.079 898.023,46.654" style="fill:none;stroke:rgb(0,0,255);stroke-width:1.77px;"/>
        </g>
        <g transform="matrix(6.12323e-17,-1,1,6.12323e-17,500.787,2220.47)">
            <path d="M930.709,67.323C919.043,67.323 908.731,61.478 902.545,52.559L898.023,46.654M871.654,34.252C882.255,34.252 891.739,39.079 898.023,46.654" style="fill:none;stroke:rgb(0,0,255);stroke-width:1.77px;"/>
        </g>
        <g transform="matrix(1,0,0,1,928.346,-10.6299)">
            <circle cx="865.748" cy="79.134" r="17.717" style="fill:none;stroke:rgb(0,0,255);stroke-width:1.77px;"/>
        </g>
        <g transform="matrix(1,0,0,1,928.346,1269.69)">
            <circle cx="865.748" cy="79.134" r="17.717" style="fill:none;stroke:rgb(0,0,255);stroke-width:1.77px;"/>
        </g>
        <g transform="matrix(1,0,0,1,805.512,1217.85)">
            <circle cx="865.748" cy="79.134" r="17.717" style="fill:none;stroke:rgb(0,0,255);stroke-width:1.77px;"/>
        </g>
        <g transform="matrix(1,0,0,1,478.346,1217.85)">
            <circle cx="865.748" cy="79.134" r="17.717" style="fill:none;stroke:rgb(0,0,255);stroke-width:1.77px;"/>
        </g>
        <g transform="matrix(1,0,0,1,-296.457,1269.69)">
            <circle cx="865.748" cy="79.134" r="17.717" style="fill:none;stroke:rgb(0,0,255);stroke-width:1.77px;"/>
        </g>
        <g transform="matrix(1,0,0,1,409.843,1269.69)">
            <circle cx="865.748" cy="79.134" r="17.717" style="fill:none;stroke:rgb(0,0,255);stroke-width:1.77px;"/>
        </g>
        <g transform="matrix(1,0,0,1,-192.52,-10.6299)">
            <circle cx="865.748" cy="79.134" r="17.717" style="fill:none;stroke:rgb(0,0,255);stroke-width:1.77px;"/>
        </g>
        <g transform="matrix(1,0,0,1,-296.457,-10.6299)">
            <circle cx="865.748" cy="79.134" r="17.717" style="fill:none;stroke:rgb(0,0,255);stroke-width:1.77px;"/>
        </g>
        <g transform="matrix(1.31818,0,0,1.34091,-489.889,-105.118)">
            <path d="M1732.68,103.937C1747.02,103.937 1758.66,115.58 1758.66,129.921" style="fill:none;stroke:rgb(0,0,255);stroke-width:1.33px;"/>
        </g>
        <g transform="matrix(8.07154e-17,1.31818,-1.34091,8.2107e-17,1967.72,-935.165)">
            <path d="M1732.68,103.937C1747.02,103.937 1758.66,115.58 1758.66,129.921" style="fill:none;stroke:rgb(0,0,255);stroke-width:1.33px;"/>
        </g>
        <g transform="matrix(8.07154e-17,-1.31818,1.34091,8.2107e-17,395.669,2352.49)">
            <path d="M1732.68,103.937C1747.02,103.937 1758.66,115.58 1758.66,129.921" style="fill:none;stroke:rgb(0,0,255);stroke-width:1.33px;"/>
        </g>
        <g transform="matrix(-1.31818,1.61431e-16,-1.64214e-16,-1.34091,2853.27,1523.03)">
            <path d="M1732.68,103.937C1747.02,103.937 1758.66,115.58 1758.66,129.921" style="fill:none;stroke:rgb(0,0,255);stroke-width:1.33px;"/>
        </g>
        <path d="M1334.65,1350L1734.45,1350" style="fill:none;stroke:rgb(0,0,255);stroke-width:1.77px;"/>
    </g>
    <g id="Drawings" transform="matrix(0.3,0,0,0.3,0,0)">
        <g transform="matrix(1,0,0,1,5.90551,-10.6299)">
            <circle cx="865.748" cy="79.134" r="17.717" style="fill:none;stroke:rgb(102,102,102);stroke-width:1.77px;"/>
        </g>
        <g transform="matrix(1,0,0,1,928.346,-10.6299)">
            <circle cx="865.748" cy="79.134" r="17.717" style="fill:none;stroke:rgb(102,102,102);stroke-width:1.77px;"/>
        </g>
        <g transform="matrix(1.33389,0,0,1.33389,510.555,173.765)">
            <circle cx="865.748" cy="79.134" r="17.717" style="fill:none;stroke:rgb(102,102,102);stroke-width:1.33px;"/>
        </g>
        <g transform="matrix(1.33389,0,0,1.33389,510.555,1025.95)">
            <circle cx="865.748" cy="79.134" r="17.717" style="fill:none;stroke:rgb(102,102,102);stroke-width:1.33px;"/>
        </g>
        <g transform="matrix(1.33389,0,0,1.33389,483.961,1353.12)">
            <circle cx="865.748" cy="79.134" r="17.717" style="fill:none;stroke:rgb(102,102,102);stroke-width:1.33px;"/>
        </g>
        <g transform="matrix(1.33389,0,0,1.33389,-430.212,1353.12)">
            <circle cx="865.748" cy="79.134" r="17.717" style="fill:none;stroke:rgb(102,102,102);stroke-width:1.33px;"/>
        </g>
        <g transform="matrix(1.33389,0,0,1.33389,423.744,2234.2)">
            <circle cx="865.748" cy="79.134" r="17.717" style="fill:none;stroke:rgb(102,102,102);stroke-width:1.33px;"/>
        </g>
        <g transform="matrix(2.43278,0,0,2.43278,-467.406,1266.16)">
            <circle cx="865.748" cy="79.134" r="17.717" style="fill:none;stroke:rgb(102,102,102);stroke-width:0.73px;"/>
        </g>
        <g transform="matrix(2.43278,0,0,2.43278,-1381.58,1266.16)">
            <circle cx="865.748" cy="79.134" r="17.717" style="fill:none;stroke:rgb(102,102,102);stroke-width:0.73px;"/>
        </g>
        <g transform="matrix(2.43278,0,0,2.43278,-527.622,2147.24)">
            <circle cx="865.748" cy="79.134" r="17.717" style="fill:none;stroke:rgb(102,102,102);stroke-width:0.73px;"/>
        </g>
        <g transform="matrix(2.43278,0,0,2.43278,-1321.34,2147.24)">
            <circle cx="865.748" cy="79.134" r="17.717" style="fill:none;stroke:rgb(102,102,102);stroke-width:0.73px;"/>
        </g>
        <g transform="matrix(1.33389,0,0,1.33389,-456.768,173.765)">
            <circle cx="865.748" cy="79.134" r="17.717" style="fill:none;stroke:rgb(102,102,102);stroke-width:1.33px;"/>
        </g>
        <g transform="matrix(1.33389,0,0,1.33389,-456.768,1025.95)">
            <circle cx="865.748" cy="79.134" r="17.717" style="fill:none;stroke:rgb(102,102,102);stroke-width:1.33px;"/>
        </g>
        <g transform="matrix(1.33389,0,0,1.33389,-369.976,2234.2)">
            <circle cx="865.748" cy="79.134" r="17.717" style="fill:none;stroke:rgb(102,102,102);stroke-width:1.33px;"/>
        </g>
        <g transform="matrix(1,0,0,1,928.346,1269.69)">
            <circle cx="865.748" cy="79.134" r="17.717" style="fill:none;stroke:rgb(102,102,102);stroke-width:1.77px;"/>
        </g>
        <g transform="matrix(1,0,0,1,805.512,1217.72)">
            <circle cx="865.748" cy="79.134" r="17.717" style="fill:none;stroke:rgb(102,102,102);stroke-width:1.77px;"/>
        </g>
        <g transform="matrix(1.06667,0,0,1.06667,809.213,1202.97)">
            <circle cx="865.748" cy="79.134" r="17.717" style="fill:none;stroke:rgb(102,102,102);stroke-width:1.66px;"/>
        </g>
        <g transform="matrix(1.06667,0,0,1.06667,1085.98,1282.14)">
            <circle cx="865.748" cy="79.134" r="17.717" style="fill:none;stroke:rgb(102,102,102);stroke-width:1.66px;"/>
        </g>
        <g transform="matrix(1.06667,0,0,1.06667,826.913,1728.58)">
            <circle cx="865.748" cy="79.134" r="17.717" style="fill:none;stroke:rgb(102,102,102);stroke-width:1.66px;"/>
        </g>
        <g transform="matrix(0.533333,0,0,0.533333,1270.94,1245.17)">
            <circle cx="865.748" cy="79.134" r="17.717" style="fill:none;stroke:rgb(102,102,102);stroke-width:3.32px;"/>
        </g>
        <g transform="matrix(0.533333,0,0,0.533333,1547.71,1324.34)">
            <circle cx="865.748" cy="79.134" r="17.717" style="fill:none;stroke:rgb(102,102,102);stroke-width:3.32px;"/>
        </g>
        <g transform="matrix(0.533333,0,0,0.533333,1288.64,1770.79)">
            <circle cx="865.748" cy="79.134" r="17.717" style="fill:none;stroke:rgb(102,102,102);stroke-width:3.32px;"/>
        </g>
        <g transform="matrix(1.06667,0,0,1.06667,809.213,45.5118)">
            <circle cx="865.748" cy="79.134" r="17.717" style="fill:none;stroke:rgb(102,102,102);stroke-width:1.66px;"/>
        </g>
        <g transform="matrix(1.06667,0,0,1.06667,359.213,1202.97)">
            <circle cx="865.748" cy="79.134" r="17.717" style="fill:none;stroke:rgb(102,102,102);stroke-width:1.66px;"/>
        </g>
        <g transform="matrix(1.06667,0,0,1.06667,-292.756,1202.97)">
            <circle cx="865.748" cy="79.134" r="17.717" style="fill:none;stroke:rgb(102,102,102);stroke-width:1.66px;"/>
        </g>
        <g transform="matrix(1.06667,0,0,1.06667,-292.756,45.5118)">
            <circle cx="865.748" cy="79.134" r="17.717" style="fill:none;stroke:rgb(102,102,102);stroke-width:1.66px;"/>
        </g>
        <g transform="matrix(1.06667,0,0,1.06667,-243.74,45.5118)">
            <circle cx="865.748" cy="79.134" r="17.717" style="fill:none;stroke:rgb(102,102,102);stroke-width:1.66px;"/>
        </g>
        <g transform="matrix(1.06667,0,0,1.06667,-58.8976,45.5118)">
            <circle cx="865.748" cy="79.134" r="17.717" style="fill:none;stroke:rgb(102,102,102);stroke-width:1.66px;"/>
        </g>
        <g transform="matrix(1,0,0,1,478.346,1217.72)">
            <circle cx="865.748" cy="79.134" r="17.717" style="fill:none;stroke:rgb(102,102,102);stroke-width:1.77px;"/>
        </g>
        <g transform="matrix(1,0,0,1,409.843,1269.69)">
            <circle cx="865.748" cy="79.134" r="17.717" style="fill:none;stroke:rgb(102,102,102);stroke-width:1.77px;"/>
        </g>
        <g transform="matrix(1,0,0,1,-296.457,1269.69)">
            <circle cx="865.748" cy="79.134" r="17.717" style="fill:none;stroke:rgb(102,102,102);stroke-width:1.77px;"/>
        </g>
        <g transform="matrix(1.01786,0,0,1.01786,-9.55427,-12.043)">
            <circle cx="865.748" cy="79.134" r="33.071" style="fill:none;stroke:rgb(102,102,102);stroke-width:1.74px;"/>
        </g>
        <g transform="matrix(1.01786,0,0,1.01786,912.887,-12.043)">
            <circle cx="865.748" cy="79.134" r="33.071" style="fill:none;stroke:rgb(102,102,102);stroke-width:1.74px;"/>
        </g>
        <g transform="matrix(3.92887,0,0,3.92887,-1736.04,-31.5855)">
            <circle cx="865.748" cy="79.134" r="33.071" style="fill:none;stroke:rgb(102,102,102);stroke-width:0.45px;"/>
        </g>
        <g transform="matrix(3.92887,0,0,3.92887,-1736.04,820.599)">
            <circle cx="865.748" cy="79.134" r="33.071" style="fill:none;stroke:rgb(102,102,102);stroke-width:0.45px;"/>
        </g>
        <g transform="matrix(3.92887,0,0,3.92887,-1762.64,1147.76)">
            <circle cx="865.748" cy="79.134" r="33.071" style="fill:none;stroke:rgb(102,102,102);stroke-width:0.45px;"/>
        </g>
        <g transform="matrix(3.92887,0,0,3.92887,-2676.81,1147.76)">
            <circle cx="865.748" cy="79.134" r="33.071" style="fill:none;stroke:rgb(102,102,102);stroke-width:0.45px;"/>
        </g>
        <g transform="matrix(3.92887,0,0,3.92887,-1822.86,2028.85)">
            <circle cx="865.748" cy="79.134" r="33.071" style="fill:none;stroke:rgb(102,102,102);stroke-width:0.45px;"/>
        </g>
        <g transform="matrix(3.92887,0,0,3.92887,-2703.37,-31.5855)">
            <circle cx="865.748" cy="79.134" r="33.071" style="fill:none;stroke:rgb(102,102,102);stroke-width:0.45px;"/>
        </g>
        <g transform="matrix(3.92887,0,0,3.92887,-2703.37,820.599)">
            <circle cx="865.748" cy="79.134" r="33.071" style="fill:none;stroke:rgb(102,102,102);stroke-width:0.45px;"/>
        </g>
        <g transform="matrix(3.92887,0,0,3.92887,-2616.58,2028.85)">
            <circle cx="865.748" cy="79.134" r="33.071" style="fill:none;stroke:rgb(102,102,102);stroke-width:0.45px;"/>
        </g>
        <g transform="matrix(1.01786,0,0,1.01786,912.887,1268.27)">
            <circle cx="865.748" cy="79.134" r="33.071" style="fill:none;stroke:rgb(102,102,102);stroke-width:1.74px;"/>
        </g>
        <g transform="matrix(1.01786,0,0,1.01786,790.052,1216.3)">
            <circle cx="865.748" cy="79.134" r="33.071" style="fill:none;stroke:rgb(102,102,102);stroke-width:1.74px;"/>
        </g>
        <g transform="matrix(1.01786,0,0,1.01786,462.887,1216.3)">
            <circle cx="865.748" cy="79.134" r="33.071" style="fill:none;stroke:rgb(102,102,102);stroke-width:1.74px;"/>
        </g>
        <g transform="matrix(1.01786,0,0,1.01786,394.383,1268.27)">
            <circle cx="865.748" cy="79.134" r="33.071" style="fill:none;stroke:rgb(102,102,102);stroke-width:1.74px;"/>
        </g>
        <g transform="matrix(1.01786,0,0,1.01786,-311.916,1268.27)">
            <circle cx="865.748" cy="79.134" r="33.071" style="fill:none;stroke:rgb(102,102,102);stroke-width:1.74px;"/>
        </g>
        <g transform="matrix(1,0,0,1,-192.52,-10.6299)">
            <circle cx="865.748" cy="79.134" r="17.717" style="fill:none;stroke:rgb(102,102,102);stroke-width:1.77px;"/>
        </g>
        <g transform="matrix(1,0,0,1,-296.457,-10.6299)">
            <circle cx="865.748" cy="79.134" r="17.717" style="fill:none;stroke:rgb(102,102,102);stroke-width:1.77px;"/>
        </g>
        <g transform="matrix(1.01786,0,0,1.01786,-207.979,-12.043)">
            <circle cx="865.748" cy="79.134" r="33.071" style="fill:none;stroke:rgb(102,102,102);stroke-width:1.74px;"/>
        </g>
        <g transform="matrix(1.01786,0,0,1.01786,-311.916,-12.043)">
            <circle cx="865.748" cy="79.134" r="33.071" style="fill:none;stroke:rgb(102,102,102);stroke-width:1.74px;"/>
        </g>
    </g>
</svg>
