<?xml version="1.0" encoding="UTF-8" standalone="no"?>
<!DOCTYPE svg PUBLIC "-//W3C//DTD SVG 1.1//EN" "http://www.w3.org/Graphics/SVG/1.1/DTD/svg11.dtd">
<svg width="100%" height="100%" viewBox="0 0 426 319" version="1.1" xmlns="http://www.w3.org/2000/svg" xmlns:xlink="http://www.w3.org/1999/xlink" xml:space="preserve" xmlns:serif="http://www.serif.com/" style="fill-rule:evenodd;clip-rule:evenodd;stroke-linecap:round;stroke-linejoin:round;stroke-miterlimit:1.5;">
    <g id="Layer1">
        <g transform="matrix(1,0,0,1,-16.123,5.84549)">
            <rect x="35.433" y="35.433" width="49.606" height="49.606" style="fill:none;stroke:rgb(0,0,255);stroke-width:0.04px;"/>
        </g>
        <g transform="matrix(1,0,0,1,-16.123,73.3455)">
            <rect x="35.433" y="35.433" width="49.606" height="49.606" style="fill:none;stroke:rgb(0,0,255);stroke-width:0.04px;"/>
        </g>
        <g transform="matrix(1,0,0,1,-16.123,140.845)">
            <rect x="35.433" y="35.433" width="49.606" height="49.606" style="fill:none;stroke:rgb(0,0,255);stroke-width:0.04px;"/>
        </g>
        <g transform="matrix(1,0,0,1,-16.123,208.345)">
            <rect x="35.433" y="35.433" width="49.606" height="49.606" style="fill:none;stroke:rgb(0,0,255);stroke-width:0.04px;"/>
        </g>
        <g transform="matrix(1,0,0,1,51.1998,-2.56986)">
            <rect x="35.433" y="35.433" width="49.606" height="49.606" style="fill:none;stroke:rgb(0,0,255);stroke-width:0.04px;"/>
        </g>
        <g transform="matrix(1,0,0,1,51.1998,64.8416)">
            <rect x="35.433" y="35.433" width="49.606" height="49.606" style="fill:none;stroke:rgb(0,0,255);stroke-width:0.04px;"/>
        </g>
        <g transform="matrix(1,0,0,1,51.1998,132.43)">
            <rect x="35.433" y="35.433" width="49.606" height="49.606" style="fill:none;stroke:rgb(0,0,255);stroke-width:0.04px;"/>
        </g>
        <g transform="matrix(1,0,0,1,51.1998,199.908)">
            <rect x="35.433" y="35.433" width="49.606" height="49.606" style="fill:none;stroke:rgb(0,0,255);stroke-width:0.04px;"/>
        </g>
        <g transform="matrix(1,0,0,1,118.7,-10.9852)">
            <rect x="35.433" y="35.433" width="49.606" height="49.606" style="fill:none;stroke:rgb(0,0,255);stroke-width:0.04px;"/>
        </g>
        <g transform="matrix(1,0,0,1,118.7,56.4705)">
            <rect x="35.433" y="35.433" width="49.606" height="49.606" style="fill:none;stroke:rgb(0,0,255);stroke-width:0.04px;"/>
        </g>
        <g transform="matrix(1,0,0,1,118.7,123.97)">
            <rect x="35.433" y="35.433" width="49.606" height="49.606" style="fill:none;stroke:rgb(0,0,255);stroke-width:0.04px;"/>
        </g>
        <g transform="matrix(1,0,0,1,118.7,191.47)">
            <rect x="35.433" y="35.433" width="49.606" height="49.606" style="fill:none;stroke:rgb(0,0,255);stroke-width:0.04px;"/>
        </g>
        <g transform="matrix(1,0,0,1,186.2,-2.56986)">
            <rect x="35.433" y="35.433" width="49.606" height="49.606" style="fill:none;stroke:rgb(0,0,255);stroke-width:0.04px;"/>
        </g>
        <g transform="matrix(1,0,0,1,186.2,64.908)">
            <rect x="35.433" y="35.433" width="49.606" height="49.606" style="fill:none;stroke:rgb(0,0,255);stroke-width:0.04px;"/>
        </g>
        <g transform="matrix(1,0,0,1,186.2,132.408)">
            <rect x="35.433" y="35.433" width="49.606" height="49.606" style="fill:none;stroke:rgb(0,0,255);stroke-width:0.04px;"/>
        </g>
        <g transform="matrix(1,0,0,1,186.2,199.93)">
            <rect x="35.433" y="35.433" width="49.606" height="49.606" style="fill:none;stroke:rgb(0,0,255);stroke-width:0.04px;"/>
        </g>
        <g transform="matrix(1,0,0,1,253.7,5.84549)">
            <rect x="35.433" y="35.433" width="49.606" height="49.606" style="fill:none;stroke:rgb(0,0,255);stroke-width:0.04px;"/>
        </g>
        <g transform="matrix(1,0,0,1,253.7,73.3455)">
            <rect x="35.433" y="35.433" width="49.606" height="49.606" style="fill:none;stroke:rgb(0,0,255);stroke-width:0.04px;"/>
        </g>
        <g transform="matrix(1,0,0,1,253.7,140.845)">
            <rect x="35.433" y="35.433" width="49.606" height="49.606" style="fill:none;stroke:rgb(0,0,255);stroke-width:0.04px;"/>
        </g>
        <g transform="matrix(1,0,0,1,253.7,208.345)">
            <rect x="35.433" y="35.433" width="49.606" height="49.606" style="fill:none;stroke:rgb(0,0,255);stroke-width:0.04px;"/>
        </g>
        <g transform="matrix(1,0,0,1,321.155,5.84549)">
            <rect x="35.433" y="35.433" width="49.606" height="49.606" style="fill:none;stroke:rgb(0,0,255);stroke-width:0.04px;"/>
        </g>
        <g transform="matrix(1,0,0,1,321.155,73.3455)">
            <rect x="35.433" y="35.433" width="49.606" height="49.606" style="fill:none;stroke:rgb(0,0,255);stroke-width:0.04px;"/>
        </g>
        <g transform="matrix(1,0,0,1,321.155,140.845)">
            <rect x="35.433" y="35.433" width="49.606" height="49.606" style="fill:none;stroke:rgb(0,0,255);stroke-width:0.04px;"/>
        </g>
        <g transform="matrix(1,0,0,1,321.155,208.345)">
            <rect x="35.433" y="35.433" width="49.606" height="49.606" style="fill:none;stroke:rgb(0,0,255);stroke-width:0.04px;"/>
        </g>
        <g transform="matrix(1.25,0,0,1.25,8.68343,15.0609)">
            <path d="M321.306,230.739C323.872,230.739 325.983,228.628 325.983,226.062" style="fill:none;fill-rule:nonzero;stroke:rgb(0,0,255);stroke-width:0.03px;stroke-miterlimit:4;"/>
        </g>
        <g transform="matrix(1.25,0,0,1.25,8.68343,15.0609)">
            <path d="M0.283,226.062C0.283,228.628 2.395,230.739 4.961,230.739" style="fill:none;fill-rule:nonzero;stroke:rgb(0,0,255);stroke-width:0.03px;stroke-miterlimit:4;"/>
        </g>
        <g transform="matrix(1.25,0,0,1.25,8.68343,15.0609)">
            <path d="M4.961,0.284C4.961,0.284 4.961,0.284 4.961,0.284C2.395,0.284 0.283,2.395 0.283,4.961C0.283,4.961 0.283,4.961 0.283,4.961" style="fill:none;fill-rule:nonzero;stroke:rgb(0,0,255);stroke-width:0.03px;stroke-miterlimit:4;"/>
        </g>
        <g transform="matrix(1.25,0,0,1.25,8.68343,15.0609)">
            <path d="M325.983,4.961C325.983,2.395 323.872,0.284 321.306,0.284" style="fill:none;fill-rule:nonzero;stroke:rgb(0,0,255);stroke-width:0.03px;stroke-miterlimit:4;"/>
        </g>
        <g transform="matrix(1.25,0,0,1.25,8.68343,15.0609)">
            <path d="M321.299,0.281L4.954,0.281" style="fill:none;fill-rule:nonzero;stroke:rgb(0,0,255);stroke-width:0.03px;stroke-miterlimit:4;"/>
        </g>
        <g transform="matrix(1.25,0,0,1.25,8.68343,15.0609)">
            <path d="M0.281,226.058L0.281,4.954" style="fill:none;fill-rule:nonzero;stroke:rgb(0,0,255);stroke-width:0.03px;stroke-miterlimit:4;"/>
        </g>
        <g transform="matrix(1.25,0,0,1.25,8.68343,15.0609)">
            <path d="M4.954,230.738L321.299,230.738" style="fill:none;fill-rule:nonzero;stroke:rgb(0,0,255);stroke-width:0.03px;stroke-miterlimit:4;"/>
        </g>
        <g transform="matrix(1.25,0,0,1.25,8.68343,15.0609)">
            <path d="M325.979,4.954L325.979,226.058" style="fill:none;fill-rule:nonzero;stroke:rgb(0,0,255);stroke-width:0.03px;stroke-miterlimit:4;"/>
        </g>
        <g transform="matrix(0.500366,0,0,0.500366,173.804,120.608)">
            <circle cx="472.677" cy="353.445" r="5.669" style="fill:none;stroke:rgb(0,0,255);stroke-width:0.07px;"/>
        </g>
        <g transform="matrix(0.500366,0,0,0.500366,173.804,-155.947)">
            <circle cx="472.677" cy="353.445" r="5.669" style="fill:none;stroke:rgb(0,0,255);stroke-width:0.07px;"/>
        </g>
        <g transform="matrix(0.500366,0,0,0.500366,-221.628,120.785)">
            <circle cx="472.677" cy="353.445" r="5.669" style="fill:none;stroke:rgb(0,0,255);stroke-width:0.07px;"/>
        </g>
        <g transform="matrix(0.500366,0,0,0.500366,-221.628,-155.77)">
            <circle cx="472.677" cy="353.445" r="5.669" style="fill:none;stroke:rgb(0,0,255);stroke-width:0.07px;"/>
        </g>
        <g transform="matrix(1.21837,0,0,1.21837,-83.4686,-42.0821)">
            <g transform="matrix(12.3116,0,0,12.3116,317.126,56.8076)">
                <path d="M0.464,0.009L0.459,0.009C0.454,-0.021 0.449,-0.049 0.445,-0.075C0.44,-0.101 0.435,-0.125 0.431,-0.148C0.426,-0.171 0.422,-0.193 0.417,-0.214C0.413,-0.235 0.408,-0.255 0.404,-0.274C0.398,-0.301 0.393,-0.326 0.388,-0.349C0.383,-0.372 0.378,-0.394 0.373,-0.415L0.371,-0.415C0.365,-0.391 0.358,-0.368 0.352,-0.346C0.345,-0.324 0.338,-0.303 0.331,-0.281C0.324,-0.26 0.317,-0.238 0.309,-0.217C0.301,-0.195 0.293,-0.172 0.285,-0.149C0.276,-0.126 0.267,-0.101 0.258,-0.076C0.248,-0.05 0.238,-0.023 0.228,0.006L0.186,0.009L0.18,0.009C0.155,-0.122 0.133,-0.227 0.114,-0.308C0.096,-0.389 0.081,-0.446 0.07,-0.478C0.067,-0.487 0.064,-0.494 0.061,-0.5C0.058,-0.506 0.054,-0.511 0.049,-0.515C0.045,-0.519 0.04,-0.522 0.034,-0.524C0.028,-0.525 0.021,-0.526 0.012,-0.526C0.007,-0.526 0.001,-0.526 -0.005,-0.525C-0.012,-0.525 -0.019,-0.524 -0.027,-0.522L-0.029,-0.544C-0.004,-0.55 0.017,-0.555 0.034,-0.558C0.05,-0.562 0.064,-0.563 0.075,-0.563C0.084,-0.563 0.091,-0.562 0.096,-0.56C0.102,-0.557 0.107,-0.554 0.111,-0.548C0.115,-0.543 0.118,-0.536 0.121,-0.528C0.124,-0.52 0.127,-0.51 0.13,-0.498C0.135,-0.481 0.141,-0.459 0.147,-0.433C0.154,-0.408 0.161,-0.377 0.169,-0.342C0.177,-0.306 0.186,-0.266 0.195,-0.221C0.204,-0.177 0.214,-0.127 0.224,-0.072L0.226,-0.072C0.234,-0.094 0.242,-0.118 0.251,-0.143C0.26,-0.167 0.268,-0.193 0.277,-0.219C0.286,-0.245 0.295,-0.272 0.304,-0.299C0.313,-0.326 0.322,-0.353 0.331,-0.38C0.339,-0.408 0.348,-0.434 0.356,-0.461C0.364,-0.487 0.371,-0.513 0.378,-0.538C0.379,-0.541 0.381,-0.543 0.384,-0.544C0.387,-0.546 0.391,-0.546 0.394,-0.546C0.398,-0.546 0.401,-0.546 0.404,-0.545C0.408,-0.529 0.413,-0.509 0.418,-0.487C0.424,-0.465 0.429,-0.44 0.435,-0.414C0.441,-0.388 0.447,-0.361 0.453,-0.332C0.46,-0.303 0.466,-0.274 0.472,-0.244C0.478,-0.214 0.484,-0.185 0.49,-0.156C0.495,-0.126 0.501,-0.098 0.506,-0.072L0.507,-0.072C0.519,-0.096 0.53,-0.121 0.542,-0.148C0.554,-0.174 0.565,-0.2 0.575,-0.226C0.586,-0.253 0.596,-0.278 0.605,-0.304C0.614,-0.329 0.622,-0.353 0.629,-0.376C0.636,-0.398 0.641,-0.419 0.645,-0.438C0.649,-0.457 0.651,-0.474 0.651,-0.487C0.651,-0.495 0.65,-0.503 0.649,-0.511C0.647,-0.52 0.645,-0.527 0.642,-0.534C0.64,-0.542 0.636,-0.548 0.632,-0.554C0.627,-0.56 0.622,-0.564 0.616,-0.568L0.617,-0.573C0.621,-0.573 0.624,-0.573 0.627,-0.574C0.63,-0.574 0.634,-0.574 0.637,-0.574C0.646,-0.574 0.655,-0.573 0.663,-0.571C0.671,-0.569 0.679,-0.565 0.685,-0.56C0.691,-0.555 0.696,-0.549 0.7,-0.541C0.704,-0.533 0.706,-0.524 0.706,-0.513C0.706,-0.505 0.704,-0.494 0.701,-0.48C0.698,-0.467 0.694,-0.451 0.689,-0.433C0.683,-0.415 0.677,-0.396 0.669,-0.375C0.662,-0.353 0.653,-0.331 0.644,-0.307C0.634,-0.283 0.624,-0.259 0.613,-0.233C0.603,-0.207 0.591,-0.181 0.579,-0.154C0.568,-0.128 0.556,-0.101 0.543,-0.074C0.531,-0.047 0.518,-0.02 0.505,0.006L0.464,0.009Z" style="fill-rule:nonzero;"/>
            </g>
            <g transform="matrix(12.3116,0,0,12.3116,325.275,56.8076)">
                <path d="M0.028,-0.14C0.028,-0.157 0.03,-0.174 0.033,-0.19C0.036,-0.207 0.041,-0.224 0.048,-0.24C0.055,-0.255 0.063,-0.27 0.073,-0.284C0.083,-0.298 0.094,-0.31 0.107,-0.321C0.12,-0.331 0.134,-0.339 0.15,-0.345C0.166,-0.351 0.183,-0.354 0.201,-0.354C0.222,-0.354 0.241,-0.35 0.257,-0.341C0.273,-0.333 0.286,-0.321 0.297,-0.307C0.308,-0.292 0.316,-0.276 0.322,-0.257C0.328,-0.239 0.33,-0.22 0.33,-0.201C0.33,-0.184 0.329,-0.168 0.325,-0.151C0.322,-0.134 0.317,-0.118 0.31,-0.102C0.303,-0.086 0.295,-0.071 0.285,-0.057C0.275,-0.043 0.264,-0.031 0.251,-0.021C0.238,-0.01 0.224,-0.002 0.208,0.004C0.192,0.01 0.175,0.013 0.156,0.013C0.136,0.013 0.117,0.009 0.101,0C0.085,-0.009 0.072,-0.02 0.061,-0.035C0.05,-0.049 0.042,-0.066 0.036,-0.084C0.031,-0.102 0.028,-0.121 0.028,-0.14ZM0.086,-0.164C0.086,-0.153 0.087,-0.141 0.089,-0.13C0.09,-0.118 0.093,-0.108 0.097,-0.097C0.1,-0.086 0.105,-0.076 0.11,-0.067C0.115,-0.058 0.122,-0.05 0.129,-0.043C0.136,-0.036 0.144,-0.031 0.153,-0.027C0.162,-0.023 0.172,-0.021 0.183,-0.021C0.195,-0.021 0.205,-0.024 0.214,-0.029C0.224,-0.034 0.231,-0.041 0.238,-0.049C0.245,-0.058 0.25,-0.067 0.254,-0.078C0.259,-0.089 0.262,-0.101 0.265,-0.112C0.267,-0.124 0.269,-0.135 0.27,-0.147C0.271,-0.158 0.272,-0.169 0.272,-0.178C0.272,-0.189 0.271,-0.201 0.269,-0.212C0.267,-0.223 0.265,-0.234 0.261,-0.245C0.258,-0.255 0.253,-0.265 0.248,-0.274C0.243,-0.283 0.236,-0.291 0.229,-0.298C0.222,-0.305 0.214,-0.31 0.205,-0.314C0.196,-0.318 0.186,-0.32 0.175,-0.32C0.163,-0.32 0.152,-0.318 0.143,-0.313C0.134,-0.307 0.127,-0.301 0.12,-0.292C0.113,-0.284 0.108,-0.274 0.104,-0.263C0.099,-0.252 0.096,-0.241 0.093,-0.229C0.091,-0.218 0.089,-0.206 0.088,-0.195C0.087,-0.183 0.086,-0.173 0.086,-0.164Z" style="fill-rule:nonzero;"/>
            </g>
            <g transform="matrix(12.3116,0,0,12.3116,329.648,56.8076)">
                <path d="M0.028,-0.14C0.028,-0.157 0.03,-0.174 0.033,-0.19C0.036,-0.207 0.041,-0.224 0.048,-0.24C0.055,-0.255 0.063,-0.27 0.073,-0.284C0.083,-0.298 0.094,-0.31 0.107,-0.321C0.12,-0.331 0.134,-0.339 0.15,-0.345C0.166,-0.351 0.183,-0.354 0.201,-0.354C0.222,-0.354 0.241,-0.35 0.257,-0.341C0.273,-0.333 0.286,-0.321 0.297,-0.307C0.308,-0.292 0.316,-0.276 0.322,-0.257C0.328,-0.239 0.33,-0.22 0.33,-0.201C0.33,-0.184 0.329,-0.168 0.325,-0.151C0.322,-0.134 0.317,-0.118 0.31,-0.102C0.303,-0.086 0.295,-0.071 0.285,-0.057C0.275,-0.043 0.264,-0.031 0.251,-0.021C0.238,-0.01 0.224,-0.002 0.208,0.004C0.192,0.01 0.175,0.013 0.156,0.013C0.136,0.013 0.117,0.009 0.101,0C0.085,-0.009 0.072,-0.02 0.061,-0.035C0.05,-0.049 0.042,-0.066 0.036,-0.084C0.031,-0.102 0.028,-0.121 0.028,-0.14ZM0.086,-0.164C0.086,-0.153 0.087,-0.141 0.089,-0.13C0.09,-0.118 0.093,-0.108 0.097,-0.097C0.1,-0.086 0.105,-0.076 0.11,-0.067C0.115,-0.058 0.122,-0.05 0.129,-0.043C0.136,-0.036 0.144,-0.031 0.153,-0.027C0.162,-0.023 0.172,-0.021 0.183,-0.021C0.195,-0.021 0.205,-0.024 0.214,-0.029C0.224,-0.034 0.231,-0.041 0.238,-0.049C0.245,-0.058 0.25,-0.067 0.254,-0.078C0.259,-0.089 0.262,-0.101 0.265,-0.112C0.267,-0.124 0.269,-0.135 0.27,-0.147C0.271,-0.158 0.272,-0.169 0.272,-0.178C0.272,-0.189 0.271,-0.201 0.269,-0.212C0.267,-0.223 0.265,-0.234 0.261,-0.245C0.258,-0.255 0.253,-0.265 0.248,-0.274C0.243,-0.283 0.236,-0.291 0.229,-0.298C0.222,-0.305 0.214,-0.31 0.205,-0.314C0.196,-0.318 0.186,-0.32 0.175,-0.32C0.163,-0.32 0.152,-0.318 0.143,-0.313C0.134,-0.307 0.127,-0.301 0.12,-0.292C0.113,-0.284 0.108,-0.274 0.104,-0.263C0.099,-0.252 0.096,-0.241 0.093,-0.229C0.091,-0.218 0.089,-0.206 0.088,-0.195C0.087,-0.183 0.086,-0.173 0.086,-0.164Z" style="fill-rule:nonzero;"/>
            </g>
            <g transform="matrix(12.3116,0,0,12.3116,333.961,56.8076)">
                <path d="M0.384,-0.655C0.378,-0.614 0.373,-0.572 0.367,-0.528C0.362,-0.485 0.357,-0.442 0.353,-0.399C0.349,-0.356 0.346,-0.314 0.344,-0.272C0.341,-0.23 0.34,-0.19 0.34,-0.152C0.34,-0.134 0.34,-0.118 0.34,-0.105C0.341,-0.092 0.342,-0.08 0.342,-0.071C0.343,-0.062 0.345,-0.055 0.346,-0.05C0.348,-0.044 0.35,-0.04 0.352,-0.037C0.354,-0.034 0.357,-0.032 0.36,-0.031C0.363,-0.03 0.367,-0.03 0.371,-0.03C0.379,-0.03 0.387,-0.031 0.396,-0.034C0.405,-0.036 0.415,-0.039 0.424,-0.043L0.428,-0.031C0.423,-0.026 0.415,-0.021 0.406,-0.016C0.398,-0.011 0.388,-0.007 0.378,-0.003C0.369,0.001 0.359,0.004 0.35,0.007C0.34,0.009 0.332,0.011 0.325,0.011C0.32,0.011 0.316,0.01 0.312,0.009C0.309,0.008 0.305,0.006 0.303,0.003C0.3,0 0.298,-0.004 0.296,-0.008C0.294,-0.013 0.292,-0.019 0.291,-0.026C0.29,-0.036 0.289,-0.048 0.288,-0.061C0.287,-0.074 0.286,-0.088 0.286,-0.103C0.286,-0.119 0.287,-0.136 0.288,-0.153C0.289,-0.17 0.291,-0.186 0.294,-0.203L0.292,-0.204C0.279,-0.171 0.266,-0.141 0.251,-0.114C0.236,-0.087 0.221,-0.065 0.206,-0.046C0.19,-0.027 0.174,-0.012 0.158,-0.002C0.143,0.008 0.128,0.013 0.113,0.013C0.098,0.013 0.086,0.009 0.075,0.002C0.065,-0.005 0.056,-0.015 0.049,-0.027C0.042,-0.039 0.037,-0.053 0.034,-0.069C0.031,-0.085 0.029,-0.101 0.029,-0.117C0.029,-0.137 0.031,-0.157 0.036,-0.177C0.04,-0.196 0.047,-0.215 0.055,-0.232C0.063,-0.249 0.073,-0.266 0.084,-0.28C0.096,-0.295 0.109,-0.308 0.123,-0.319C0.138,-0.33 0.153,-0.338 0.17,-0.344C0.186,-0.35 0.204,-0.353 0.222,-0.353C0.235,-0.353 0.248,-0.352 0.261,-0.348C0.274,-0.345 0.286,-0.34 0.299,-0.332C0.3,-0.36 0.301,-0.388 0.302,-0.417C0.303,-0.445 0.305,-0.473 0.306,-0.5C0.308,-0.527 0.31,-0.553 0.312,-0.577C0.314,-0.601 0.316,-0.622 0.318,-0.641C0.319,-0.645 0.32,-0.648 0.322,-0.651C0.324,-0.654 0.327,-0.656 0.33,-0.658C0.333,-0.66 0.337,-0.661 0.341,-0.662C0.345,-0.663 0.349,-0.663 0.354,-0.663C0.363,-0.663 0.374,-0.66 0.384,-0.655ZM0.297,-0.311C0.275,-0.322 0.253,-0.327 0.231,-0.327C0.215,-0.327 0.201,-0.324 0.188,-0.319C0.174,-0.314 0.162,-0.307 0.152,-0.298C0.141,-0.29 0.132,-0.279 0.124,-0.267C0.116,-0.255 0.109,-0.242 0.104,-0.229C0.099,-0.215 0.095,-0.201 0.092,-0.186C0.09,-0.171 0.088,-0.156 0.088,-0.142C0.088,-0.136 0.089,-0.13 0.089,-0.124C0.09,-0.117 0.091,-0.11 0.092,-0.103C0.093,-0.095 0.095,-0.088 0.097,-0.081C0.1,-0.075 0.103,-0.068 0.106,-0.063C0.109,-0.057 0.113,-0.053 0.118,-0.049C0.123,-0.046 0.129,-0.044 0.135,-0.044C0.147,-0.044 0.159,-0.049 0.171,-0.058C0.183,-0.066 0.195,-0.078 0.207,-0.093C0.219,-0.107 0.23,-0.124 0.24,-0.142C0.25,-0.161 0.259,-0.18 0.267,-0.2C0.276,-0.22 0.282,-0.239 0.287,-0.259C0.292,-0.278 0.295,-0.295 0.297,-0.311Z" style="fill-rule:nonzero;"/>
            </g>
            <g transform="matrix(12.3116,0,0,12.3116,341.316,56.8076)">
                <path d="M0.091,-0.485C0.091,-0.492 0.09,-0.498 0.089,-0.503C0.088,-0.508 0.086,-0.512 0.083,-0.515C0.081,-0.518 0.077,-0.52 0.072,-0.521C0.066,-0.523 0.06,-0.523 0.052,-0.523C0.047,-0.523 0.041,-0.523 0.034,-0.522C0.028,-0.522 0.021,-0.521 0.012,-0.52L0.01,-0.543C0.025,-0.545 0.04,-0.547 0.054,-0.549C0.068,-0.551 0.08,-0.553 0.092,-0.554C0.104,-0.555 0.116,-0.556 0.126,-0.557C0.136,-0.558 0.146,-0.558 0.156,-0.558C0.181,-0.558 0.206,-0.558 0.229,-0.559C0.252,-0.559 0.272,-0.56 0.29,-0.56C0.308,-0.56 0.322,-0.561 0.334,-0.561C0.345,-0.562 0.352,-0.562 0.355,-0.562C0.362,-0.562 0.368,-0.56 0.372,-0.557C0.376,-0.553 0.378,-0.548 0.378,-0.54C0.378,-0.537 0.378,-0.532 0.377,-0.523C0.377,-0.515 0.376,-0.505 0.375,-0.494C0.374,-0.483 0.373,-0.471 0.372,-0.459C0.371,-0.447 0.37,-0.436 0.368,-0.425L0.345,-0.426C0.345,-0.432 0.346,-0.438 0.346,-0.443C0.346,-0.448 0.346,-0.454 0.346,-0.458C0.346,-0.472 0.345,-0.483 0.344,-0.492C0.342,-0.5 0.339,-0.507 0.335,-0.512C0.33,-0.517 0.324,-0.52 0.317,-0.522C0.309,-0.524 0.3,-0.524 0.288,-0.525C0.272,-0.525 0.258,-0.525 0.246,-0.525C0.234,-0.525 0.222,-0.525 0.211,-0.525L0.198,-0.525C0.192,-0.525 0.185,-0.525 0.179,-0.525C0.172,-0.525 0.165,-0.525 0.156,-0.524L0.153,-0.426C0.153,-0.406 0.152,-0.386 0.151,-0.365C0.151,-0.344 0.15,-0.322 0.15,-0.3C0.171,-0.299 0.189,-0.298 0.206,-0.298C0.222,-0.297 0.237,-0.297 0.251,-0.297C0.267,-0.297 0.282,-0.298 0.295,-0.299C0.308,-0.3 0.32,-0.301 0.332,-0.304C0.335,-0.297 0.336,-0.29 0.336,-0.284C0.336,-0.28 0.334,-0.276 0.332,-0.272C0.329,-0.269 0.324,-0.267 0.319,-0.265C0.314,-0.262 0.307,-0.261 0.3,-0.26C0.292,-0.259 0.283,-0.259 0.274,-0.259C0.257,-0.259 0.238,-0.26 0.217,-0.262C0.196,-0.263 0.173,-0.266 0.149,-0.269C0.148,-0.259 0.148,-0.248 0.147,-0.234C0.147,-0.221 0.146,-0.207 0.146,-0.192C0.145,-0.177 0.144,-0.162 0.143,-0.146C0.143,-0.13 0.142,-0.115 0.141,-0.101C0.14,-0.087 0.139,-0.073 0.138,-0.061C0.137,-0.049 0.136,-0.04 0.135,-0.032C0.15,-0.034 0.166,-0.036 0.181,-0.037C0.196,-0.038 0.209,-0.039 0.221,-0.039C0.239,-0.039 0.255,-0.038 0.269,-0.037C0.284,-0.036 0.299,-0.036 0.314,-0.036C0.323,-0.036 0.332,-0.037 0.339,-0.04C0.347,-0.043 0.353,-0.047 0.359,-0.054C0.364,-0.061 0.369,-0.071 0.373,-0.082C0.376,-0.094 0.379,-0.109 0.381,-0.127L0.403,-0.126C0.403,-0.098 0.401,-0.076 0.397,-0.058C0.394,-0.04 0.389,-0.026 0.383,-0.016C0.377,-0.006 0.37,0.001 0.361,0.005C0.352,0.009 0.342,0.011 0.331,0.011C0.322,0.011 0.313,0.01 0.302,0.009C0.291,0.007 0.28,0.005 0.267,0.003C0.255,0.001 0.241,-0.001 0.227,-0.002C0.212,-0.004 0.196,-0.005 0.18,-0.005C0.165,-0.005 0.149,-0.004 0.131,-0.002C0.113,0 0.095,0.003 0.076,0.008L0.072,0.007C0.074,-0.009 0.076,-0.029 0.078,-0.052C0.08,-0.075 0.082,-0.1 0.083,-0.128C0.084,-0.155 0.086,-0.184 0.087,-0.215C0.088,-0.245 0.088,-0.276 0.089,-0.307C0.09,-0.338 0.09,-0.368 0.09,-0.399C0.091,-0.429 0.091,-0.458 0.091,-0.485Z" style="fill-rule:nonzero;"/>
            </g>
            <g transform="matrix(12.3116,0,0,12.3116,346.489,56.8076)">
                <path d="M0.149,-0.655C0.146,-0.628 0.143,-0.599 0.14,-0.57C0.137,-0.541 0.134,-0.512 0.131,-0.482C0.128,-0.452 0.125,-0.423 0.123,-0.393C0.12,-0.363 0.118,-0.333 0.116,-0.304C0.115,-0.275 0.113,-0.247 0.112,-0.219C0.111,-0.191 0.111,-0.164 0.111,-0.138C0.111,-0.122 0.111,-0.108 0.111,-0.096C0.112,-0.085 0.113,-0.075 0.113,-0.067C0.114,-0.059 0.116,-0.053 0.117,-0.048C0.119,-0.043 0.121,-0.039 0.123,-0.037C0.125,-0.034 0.128,-0.032 0.131,-0.031C0.134,-0.03 0.138,-0.03 0.142,-0.03C0.15,-0.03 0.158,-0.031 0.167,-0.034C0.176,-0.036 0.185,-0.039 0.195,-0.043L0.199,-0.031C0.193,-0.026 0.186,-0.021 0.177,-0.016C0.168,-0.011 0.159,-0.007 0.149,-0.003C0.139,0.001 0.13,0.004 0.12,0.007C0.111,0.009 0.103,0.011 0.096,0.011C0.087,0.011 0.08,0.009 0.075,0.004C0.07,0 0.066,-0.008 0.064,-0.018C0.061,-0.028 0.059,-0.041 0.058,-0.057C0.058,-0.073 0.057,-0.093 0.057,-0.116C0.057,-0.125 0.058,-0.137 0.058,-0.153C0.059,-0.168 0.059,-0.187 0.06,-0.208C0.061,-0.228 0.062,-0.251 0.063,-0.276C0.064,-0.301 0.066,-0.326 0.067,-0.353C0.068,-0.379 0.07,-0.406 0.071,-0.433C0.073,-0.46 0.074,-0.486 0.075,-0.511C0.077,-0.536 0.078,-0.56 0.08,-0.582C0.081,-0.604 0.082,-0.624 0.083,-0.641C0.083,-0.645 0.085,-0.648 0.087,-0.651C0.089,-0.654 0.092,-0.656 0.095,-0.658C0.098,-0.66 0.102,-0.661 0.106,-0.662C0.11,-0.663 0.114,-0.663 0.119,-0.663C0.128,-0.663 0.139,-0.66 0.149,-0.655Z" style="fill-rule:nonzero;"/>
            </g>
            <g transform="matrix(12.3116,0,0,12.3116,348.873,56.8076)">
                <path d="M0.137,-0.335C0.145,-0.335 0.153,-0.334 0.16,-0.334L0.199,-0.334C0.205,-0.334 0.209,-0.333 0.213,-0.333C0.22,-0.333 0.227,-0.334 0.234,-0.334C0.241,-0.335 0.247,-0.335 0.251,-0.336C0.253,-0.33 0.254,-0.325 0.254,-0.321C0.254,-0.314 0.251,-0.309 0.245,-0.307C0.239,-0.305 0.23,-0.303 0.219,-0.303C0.208,-0.303 0.195,-0.304 0.182,-0.305C0.168,-0.307 0.153,-0.308 0.136,-0.309C0.135,-0.289 0.135,-0.268 0.134,-0.246C0.133,-0.223 0.131,-0.199 0.13,-0.175C0.128,-0.15 0.126,-0.126 0.124,-0.1C0.122,-0.075 0.119,-0.051 0.116,-0.027C0.112,-0.003 0.108,0.02 0.104,0.042C0.099,0.063 0.094,0.083 0.088,0.101C0.078,0.129 0.067,0.152 0.055,0.171C0.043,0.189 0.031,0.204 0.017,0.215C0.003,0.227 -0.011,0.235 -0.025,0.24C-0.04,0.244 -0.054,0.247 -0.069,0.247C-0.081,0.247 -0.093,0.245 -0.104,0.243C-0.114,0.24 -0.124,0.236 -0.131,0.231C-0.139,0.227 -0.145,0.221 -0.15,0.215C-0.154,0.209 -0.156,0.202 -0.156,0.195C-0.156,0.191 -0.156,0.187 -0.154,0.183C-0.152,0.18 -0.15,0.176 -0.146,0.173C-0.143,0.17 -0.139,0.168 -0.135,0.166C-0.131,0.164 -0.126,0.163 -0.121,0.163C-0.116,0.172 -0.111,0.179 -0.105,0.185C-0.1,0.191 -0.094,0.196 -0.087,0.2C-0.081,0.203 -0.074,0.206 -0.067,0.208C-0.06,0.21 -0.053,0.211 -0.046,0.211C-0.027,0.211 -0.011,0.205 0.002,0.193C0.015,0.18 0.026,0.163 0.035,0.141C0.044,0.119 0.051,0.092 0.056,0.061C0.061,0.029 0.065,-0.006 0.068,-0.044C0.07,-0.083 0.072,-0.124 0.073,-0.169C0.074,-0.214 0.074,-0.261 0.075,-0.31C0.059,-0.309 0.045,-0.309 0.032,-0.308C0.019,-0.307 0.008,-0.305 0,-0.302C-0.001,-0.303 -0.001,-0.305 -0.001,-0.306C-0.001,-0.31 0,-0.314 0.004,-0.317C0.008,-0.32 0.013,-0.323 0.02,-0.326C0.027,-0.329 0.035,-0.331 0.044,-0.332C0.054,-0.334 0.064,-0.335 0.076,-0.335C0.077,-0.351 0.077,-0.365 0.078,-0.379C0.079,-0.393 0.081,-0.407 0.082,-0.421C0.084,-0.434 0.086,-0.448 0.088,-0.461C0.09,-0.475 0.093,-0.489 0.096,-0.504C0.101,-0.523 0.107,-0.54 0.114,-0.555C0.121,-0.571 0.128,-0.584 0.137,-0.596C0.146,-0.608 0.156,-0.618 0.166,-0.626C0.176,-0.635 0.187,-0.642 0.198,-0.647C0.209,-0.653 0.22,-0.657 0.231,-0.659C0.242,-0.662 0.253,-0.663 0.264,-0.663C0.28,-0.663 0.294,-0.661 0.306,-0.657C0.319,-0.652 0.329,-0.647 0.338,-0.64C0.346,-0.634 0.353,-0.626 0.357,-0.617C0.362,-0.609 0.364,-0.6 0.364,-0.592C0.364,-0.585 0.363,-0.579 0.36,-0.573C0.358,-0.568 0.355,-0.563 0.351,-0.56C0.348,-0.556 0.343,-0.553 0.338,-0.551C0.333,-0.549 0.328,-0.548 0.322,-0.548C0.315,-0.548 0.307,-0.55 0.298,-0.554L0.297,-0.557C0.3,-0.564 0.303,-0.57 0.304,-0.575C0.306,-0.581 0.307,-0.586 0.307,-0.592C0.307,-0.6 0.305,-0.607 0.302,-0.612C0.299,-0.618 0.295,-0.622 0.289,-0.626C0.284,-0.63 0.279,-0.632 0.272,-0.634C0.266,-0.635 0.26,-0.636 0.254,-0.636C0.235,-0.636 0.22,-0.632 0.207,-0.624C0.195,-0.616 0.184,-0.605 0.176,-0.59C0.168,-0.576 0.161,-0.559 0.156,-0.54C0.151,-0.521 0.147,-0.5 0.145,-0.478C0.142,-0.455 0.141,-0.432 0.14,-0.408C0.138,-0.384 0.138,-0.359 0.137,-0.335Z" style="fill-rule:nonzero;"/>
            </g>
        </g>
        <g transform="matrix(1.21837,0,0,1.21837,-28.3857,-47.6897)">
            <g transform="matrix(5.12982,0,0,5.12982,317.126,61.9374)">
                <path d="M0.155,-0.496C0.155,-0.489 0.155,-0.48 0.155,-0.47L0.152,-0.376C0.151,-0.356 0.151,-0.332 0.15,-0.306C0.173,-0.306 0.196,-0.307 0.218,-0.308C0.239,-0.308 0.261,-0.309 0.282,-0.309C0.303,-0.31 0.324,-0.31 0.345,-0.31C0.366,-0.31 0.388,-0.311 0.41,-0.311C0.411,-0.327 0.411,-0.344 0.412,-0.361C0.413,-0.377 0.413,-0.395 0.414,-0.413C0.415,-0.431 0.416,-0.451 0.417,-0.472C0.418,-0.494 0.42,-0.517 0.422,-0.543C0.422,-0.546 0.423,-0.549 0.425,-0.552C0.427,-0.554 0.43,-0.557 0.433,-0.558C0.436,-0.56 0.439,-0.561 0.443,-0.562C0.447,-0.563 0.451,-0.563 0.455,-0.563C0.46,-0.563 0.465,-0.563 0.47,-0.561C0.476,-0.56 0.481,-0.558 0.486,-0.556C0.484,-0.529 0.482,-0.504 0.48,-0.479C0.478,-0.455 0.476,-0.431 0.475,-0.408C0.474,-0.385 0.473,-0.362 0.472,-0.34C0.471,-0.317 0.47,-0.294 0.469,-0.271C0.469,-0.249 0.469,-0.225 0.468,-0.201C0.468,-0.177 0.468,-0.152 0.468,-0.126C0.468,-0.109 0.469,-0.094 0.47,-0.082C0.472,-0.07 0.474,-0.06 0.478,-0.052C0.482,-0.044 0.486,-0.039 0.493,-0.035C0.499,-0.032 0.507,-0.03 0.516,-0.03C0.523,-0.03 0.529,-0.03 0.537,-0.031C0.544,-0.032 0.553,-0.035 0.563,-0.039L0.57,-0.019C0.558,-0.014 0.547,-0.009 0.537,-0.006C0.527,-0.002 0.518,0.001 0.509,0.004C0.5,0.006 0.492,0.008 0.485,0.009C0.477,0.01 0.47,0.011 0.463,0.011C0.454,0.011 0.446,0.009 0.439,0.006C0.432,0.002 0.426,-0.003 0.422,-0.011C0.417,-0.019 0.413,-0.03 0.411,-0.043C0.409,-0.056 0.408,-0.072 0.408,-0.091L0.408,-0.147C0.408,-0.16 0.408,-0.172 0.408,-0.183C0.408,-0.195 0.408,-0.206 0.408,-0.217C0.408,-0.228 0.409,-0.239 0.409,-0.249C0.409,-0.259 0.409,-0.269 0.409,-0.28C0.387,-0.28 0.365,-0.279 0.344,-0.279C0.323,-0.279 0.302,-0.279 0.281,-0.278C0.26,-0.278 0.238,-0.277 0.217,-0.276C0.195,-0.276 0.172,-0.275 0.149,-0.273L0.141,0L0.083,0.007L0.078,0.007C0.08,-0.04 0.082,-0.084 0.084,-0.126C0.085,-0.168 0.087,-0.209 0.088,-0.249C0.089,-0.289 0.09,-0.328 0.09,-0.366C0.091,-0.405 0.091,-0.444 0.091,-0.484C0.091,-0.492 0.091,-0.498 0.089,-0.504C0.088,-0.509 0.086,-0.513 0.083,-0.517C0.081,-0.52 0.077,-0.523 0.071,-0.524C0.066,-0.526 0.06,-0.527 0.052,-0.527C0.041,-0.527 0.027,-0.525 0.01,-0.523L0.008,-0.543C0.032,-0.549 0.052,-0.554 0.068,-0.557C0.085,-0.56 0.098,-0.561 0.109,-0.561C0.12,-0.561 0.129,-0.56 0.135,-0.557C0.141,-0.554 0.146,-0.55 0.149,-0.544C0.152,-0.539 0.154,-0.532 0.154,-0.524C0.155,-0.516 0.155,-0.506 0.155,-0.496Z" style="fill-rule:nonzero;"/>
            </g>
            <g transform="matrix(5.12982,0,0,5.12982,319.965,61.9374)">
                <path d="M0.234,-0.251C0.234,-0.264 0.232,-0.275 0.228,-0.284C0.224,-0.294 0.218,-0.302 0.211,-0.308C0.204,-0.314 0.197,-0.318 0.188,-0.321C0.179,-0.324 0.171,-0.325 0.162,-0.325C0.151,-0.325 0.141,-0.324 0.133,-0.322C0.125,-0.319 0.118,-0.316 0.113,-0.312C0.108,-0.308 0.105,-0.303 0.103,-0.297C0.1,-0.291 0.099,-0.285 0.099,-0.278C0.099,-0.27 0.101,-0.262 0.104,-0.255C0.106,-0.247 0.111,-0.239 0.116,-0.231L0.115,-0.229C0.106,-0.224 0.097,-0.222 0.087,-0.222C0.082,-0.222 0.076,-0.223 0.072,-0.224C0.067,-0.226 0.063,-0.229 0.059,-0.232C0.056,-0.235 0.053,-0.239 0.051,-0.244C0.049,-0.249 0.048,-0.254 0.048,-0.26C0.048,-0.269 0.05,-0.278 0.055,-0.287C0.059,-0.295 0.066,-0.303 0.073,-0.31C0.081,-0.317 0.09,-0.323 0.1,-0.329C0.11,-0.334 0.12,-0.339 0.131,-0.343C0.142,-0.347 0.153,-0.35 0.163,-0.352C0.174,-0.354 0.184,-0.355 0.194,-0.355C0.211,-0.355 0.225,-0.352 0.237,-0.348C0.25,-0.343 0.259,-0.337 0.267,-0.328C0.275,-0.319 0.28,-0.309 0.284,-0.296C0.287,-0.284 0.289,-0.27 0.289,-0.254C0.289,-0.244 0.288,-0.232 0.287,-0.219C0.287,-0.206 0.286,-0.193 0.284,-0.179C0.283,-0.165 0.282,-0.15 0.281,-0.135C0.28,-0.12 0.28,-0.105 0.28,-0.09C0.28,-0.067 0.284,-0.049 0.293,-0.037C0.302,-0.026 0.313,-0.02 0.327,-0.02C0.34,-0.02 0.354,-0.024 0.369,-0.034L0.376,-0.023C0.366,-0.012 0.354,-0.004 0.341,0.002C0.328,0.007 0.314,0.01 0.3,0.01C0.29,0.01 0.28,0.008 0.271,0.005C0.262,0.001 0.254,-0.004 0.248,-0.011C0.241,-0.018 0.236,-0.027 0.233,-0.038C0.229,-0.049 0.227,-0.061 0.227,-0.075C0.227,-0.079 0.227,-0.084 0.228,-0.088C0.228,-0.092 0.228,-0.097 0.229,-0.101L0.228,-0.101C0.221,-0.087 0.213,-0.074 0.203,-0.06C0.194,-0.046 0.184,-0.034 0.173,-0.024C0.162,-0.013 0.151,-0.004 0.138,0.002C0.126,0.009 0.113,0.012 0.099,0.012C0.088,0.012 0.077,0.01 0.068,0.006C0.059,0.002 0.051,-0.003 0.044,-0.01C0.038,-0.017 0.033,-0.025 0.029,-0.034C0.025,-0.043 0.023,-0.054 0.023,-0.065C0.023,-0.079 0.026,-0.092 0.031,-0.104C0.037,-0.115 0.044,-0.126 0.053,-0.135C0.063,-0.145 0.074,-0.153 0.087,-0.159C0.1,-0.166 0.114,-0.172 0.129,-0.176C0.145,-0.181 0.161,-0.184 0.178,-0.186C0.195,-0.188 0.212,-0.189 0.23,-0.189C0.231,-0.2 0.232,-0.21 0.233,-0.219C0.234,-0.229 0.234,-0.239 0.234,-0.251ZM0.084,-0.083C0.084,-0.077 0.085,-0.071 0.086,-0.065C0.088,-0.059 0.09,-0.054 0.093,-0.05C0.096,-0.045 0.1,-0.042 0.104,-0.039C0.109,-0.037 0.115,-0.036 0.121,-0.036C0.128,-0.036 0.136,-0.037 0.144,-0.041C0.152,-0.044 0.159,-0.049 0.167,-0.055C0.174,-0.061 0.182,-0.068 0.189,-0.077C0.196,-0.085 0.202,-0.094 0.207,-0.104C0.213,-0.114 0.217,-0.124 0.221,-0.135C0.225,-0.146 0.227,-0.158 0.228,-0.169C0.216,-0.169 0.204,-0.168 0.192,-0.167C0.181,-0.166 0.169,-0.164 0.159,-0.161C0.148,-0.159 0.138,-0.155 0.129,-0.151C0.12,-0.147 0.112,-0.141 0.105,-0.135C0.099,-0.129 0.094,-0.121 0.09,-0.113C0.086,-0.104 0.084,-0.094 0.084,-0.083Z" style="fill-rule:nonzero;"/>
            </g>
            <g transform="matrix(5.12982,0,0,5.12982,321.8,61.9374)">
                <path d="M0.076,-0.281C0.076,-0.287 0.075,-0.293 0.074,-0.298C0.073,-0.302 0.072,-0.306 0.07,-0.308C0.068,-0.311 0.065,-0.313 0.062,-0.314C0.059,-0.315 0.056,-0.316 0.051,-0.316C0.045,-0.316 0.038,-0.315 0.03,-0.313C0.022,-0.312 0.013,-0.31 0.002,-0.307L-0.001,-0.324C0.01,-0.329 0.021,-0.332 0.032,-0.336C0.043,-0.339 0.053,-0.342 0.062,-0.344C0.07,-0.347 0.078,-0.349 0.085,-0.35C0.092,-0.351 0.097,-0.352 0.101,-0.352C0.111,-0.352 0.118,-0.349 0.123,-0.343C0.129,-0.338 0.131,-0.328 0.131,-0.314C0.131,-0.313 0.131,-0.309 0.131,-0.303C0.131,-0.297 0.13,-0.29 0.13,-0.281C0.129,-0.271 0.128,-0.261 0.127,-0.249C0.127,-0.237 0.126,-0.225 0.125,-0.211C0.124,-0.198 0.122,-0.184 0.121,-0.17C0.12,-0.156 0.118,-0.142 0.117,-0.127L0.118,-0.127C0.131,-0.169 0.144,-0.205 0.158,-0.234C0.172,-0.262 0.187,-0.286 0.201,-0.304C0.216,-0.322 0.231,-0.335 0.245,-0.343C0.26,-0.351 0.273,-0.355 0.287,-0.355C0.296,-0.355 0.305,-0.353 0.313,-0.35C0.321,-0.346 0.329,-0.341 0.336,-0.333C0.342,-0.326 0.347,-0.316 0.351,-0.304C0.355,-0.293 0.357,-0.278 0.357,-0.261C0.357,-0.257 0.357,-0.25 0.356,-0.242C0.356,-0.234 0.355,-0.224 0.354,-0.214C0.353,-0.204 0.352,-0.194 0.351,-0.182C0.35,-0.171 0.349,-0.16 0.349,-0.149C0.348,-0.138 0.347,-0.128 0.347,-0.118C0.346,-0.108 0.346,-0.099 0.346,-0.092C0.346,-0.079 0.346,-0.069 0.347,-0.061C0.348,-0.053 0.35,-0.047 0.353,-0.042C0.355,-0.037 0.358,-0.034 0.362,-0.033C0.366,-0.031 0.371,-0.03 0.377,-0.03C0.386,-0.03 0.394,-0.031 0.404,-0.034C0.413,-0.036 0.422,-0.039 0.431,-0.043L0.436,-0.031C0.43,-0.026 0.423,-0.021 0.414,-0.016C0.405,-0.011 0.395,-0.007 0.385,-0.003C0.376,0.001 0.366,0.004 0.356,0.007C0.346,0.009 0.338,0.011 0.33,0.011C0.321,0.011 0.314,0.008 0.309,0.004C0.304,-0.001 0.3,-0.007 0.298,-0.016C0.295,-0.024 0.294,-0.033 0.293,-0.044C0.292,-0.055 0.292,-0.067 0.292,-0.079C0.292,-0.095 0.293,-0.11 0.294,-0.127C0.295,-0.143 0.296,-0.158 0.297,-0.173C0.298,-0.188 0.3,-0.201 0.301,-0.213C0.302,-0.225 0.302,-0.234 0.302,-0.241C0.302,-0.26 0.299,-0.275 0.292,-0.284C0.284,-0.293 0.275,-0.297 0.263,-0.297C0.253,-0.297 0.244,-0.293 0.233,-0.285C0.223,-0.277 0.212,-0.266 0.202,-0.252C0.192,-0.238 0.182,-0.222 0.172,-0.203C0.163,-0.184 0.154,-0.164 0.146,-0.141C0.139,-0.119 0.132,-0.096 0.127,-0.072C0.122,-0.048 0.119,-0.024 0.118,0L0.067,0.006L0.063,0.006C0.064,-0.009 0.066,-0.026 0.067,-0.044C0.068,-0.063 0.069,-0.081 0.07,-0.1C0.071,-0.119 0.072,-0.137 0.072,-0.156C0.073,-0.174 0.074,-0.192 0.074,-0.208C0.075,-0.224 0.075,-0.238 0.076,-0.251C0.076,-0.263 0.076,-0.273 0.076,-0.281Z" style="fill-rule:nonzero;"/>
            </g>
            <g transform="matrix(5.12982,0,0,5.12982,324,61.9374)">
                <path d="M0.076,-0.281C0.076,-0.287 0.075,-0.293 0.074,-0.298C0.073,-0.302 0.072,-0.306 0.07,-0.308C0.068,-0.311 0.065,-0.313 0.062,-0.314C0.059,-0.315 0.056,-0.316 0.051,-0.316C0.045,-0.316 0.038,-0.315 0.03,-0.313C0.022,-0.312 0.013,-0.31 0.002,-0.307L-0.001,-0.324C0.01,-0.329 0.021,-0.332 0.032,-0.336C0.043,-0.339 0.053,-0.342 0.062,-0.344C0.07,-0.347 0.078,-0.349 0.085,-0.35C0.092,-0.351 0.097,-0.352 0.101,-0.352C0.111,-0.352 0.118,-0.349 0.123,-0.343C0.129,-0.338 0.131,-0.328 0.131,-0.314C0.131,-0.313 0.131,-0.309 0.131,-0.303C0.131,-0.297 0.13,-0.29 0.13,-0.281C0.129,-0.271 0.128,-0.261 0.127,-0.249C0.127,-0.237 0.126,-0.225 0.125,-0.211C0.124,-0.198 0.122,-0.184 0.121,-0.17C0.12,-0.156 0.118,-0.142 0.117,-0.127L0.118,-0.127C0.131,-0.169 0.144,-0.205 0.158,-0.234C0.172,-0.262 0.187,-0.286 0.201,-0.304C0.216,-0.322 0.231,-0.335 0.245,-0.343C0.26,-0.351 0.273,-0.355 0.287,-0.355C0.296,-0.355 0.305,-0.353 0.313,-0.35C0.321,-0.346 0.329,-0.341 0.336,-0.333C0.342,-0.326 0.347,-0.316 0.351,-0.304C0.355,-0.293 0.357,-0.278 0.357,-0.261C0.357,-0.257 0.357,-0.25 0.356,-0.242C0.356,-0.234 0.355,-0.224 0.354,-0.214C0.353,-0.204 0.352,-0.194 0.351,-0.182C0.35,-0.171 0.349,-0.16 0.349,-0.149C0.348,-0.138 0.347,-0.128 0.347,-0.118C0.346,-0.108 0.346,-0.099 0.346,-0.092C0.346,-0.079 0.346,-0.069 0.347,-0.061C0.348,-0.053 0.35,-0.047 0.353,-0.042C0.355,-0.037 0.358,-0.034 0.362,-0.033C0.366,-0.031 0.371,-0.03 0.377,-0.03C0.386,-0.03 0.394,-0.031 0.404,-0.034C0.413,-0.036 0.422,-0.039 0.431,-0.043L0.436,-0.031C0.43,-0.026 0.423,-0.021 0.414,-0.016C0.405,-0.011 0.395,-0.007 0.385,-0.003C0.376,0.001 0.366,0.004 0.356,0.007C0.346,0.009 0.338,0.011 0.33,0.011C0.321,0.011 0.314,0.008 0.309,0.004C0.304,-0.001 0.3,-0.007 0.298,-0.016C0.295,-0.024 0.294,-0.033 0.293,-0.044C0.292,-0.055 0.292,-0.067 0.292,-0.079C0.292,-0.095 0.293,-0.11 0.294,-0.127C0.295,-0.143 0.296,-0.158 0.297,-0.173C0.298,-0.188 0.3,-0.201 0.301,-0.213C0.302,-0.225 0.302,-0.234 0.302,-0.241C0.302,-0.26 0.299,-0.275 0.292,-0.284C0.284,-0.293 0.275,-0.297 0.263,-0.297C0.253,-0.297 0.244,-0.293 0.233,-0.285C0.223,-0.277 0.212,-0.266 0.202,-0.252C0.192,-0.238 0.182,-0.222 0.172,-0.203C0.163,-0.184 0.154,-0.164 0.146,-0.141C0.139,-0.119 0.132,-0.096 0.127,-0.072C0.122,-0.048 0.119,-0.024 0.118,0L0.067,0.006L0.063,0.006C0.064,-0.009 0.066,-0.026 0.067,-0.044C0.068,-0.063 0.069,-0.081 0.07,-0.1C0.071,-0.119 0.072,-0.137 0.072,-0.156C0.073,-0.174 0.074,-0.192 0.074,-0.208C0.075,-0.224 0.075,-0.238 0.076,-0.251C0.076,-0.263 0.076,-0.273 0.076,-0.281Z" style="fill-rule:nonzero;"/>
            </g>
            <g transform="matrix(5.12982,0,0,5.12982,326.201,61.9374)">
                <path d="M0.234,-0.251C0.234,-0.264 0.232,-0.275 0.228,-0.284C0.224,-0.294 0.218,-0.302 0.211,-0.308C0.204,-0.314 0.197,-0.318 0.188,-0.321C0.179,-0.324 0.171,-0.325 0.162,-0.325C0.151,-0.325 0.141,-0.324 0.133,-0.322C0.125,-0.319 0.118,-0.316 0.113,-0.312C0.108,-0.308 0.105,-0.303 0.103,-0.297C0.1,-0.291 0.099,-0.285 0.099,-0.278C0.099,-0.27 0.101,-0.262 0.104,-0.255C0.106,-0.247 0.111,-0.239 0.116,-0.231L0.115,-0.229C0.106,-0.224 0.097,-0.222 0.087,-0.222C0.082,-0.222 0.076,-0.223 0.072,-0.224C0.067,-0.226 0.063,-0.229 0.059,-0.232C0.056,-0.235 0.053,-0.239 0.051,-0.244C0.049,-0.249 0.048,-0.254 0.048,-0.26C0.048,-0.269 0.05,-0.278 0.055,-0.287C0.059,-0.295 0.066,-0.303 0.073,-0.31C0.081,-0.317 0.09,-0.323 0.1,-0.329C0.11,-0.334 0.12,-0.339 0.131,-0.343C0.142,-0.347 0.153,-0.35 0.163,-0.352C0.174,-0.354 0.184,-0.355 0.194,-0.355C0.211,-0.355 0.225,-0.352 0.237,-0.348C0.25,-0.343 0.259,-0.337 0.267,-0.328C0.275,-0.319 0.28,-0.309 0.284,-0.296C0.287,-0.284 0.289,-0.27 0.289,-0.254C0.289,-0.244 0.288,-0.232 0.287,-0.219C0.287,-0.206 0.286,-0.193 0.284,-0.179C0.283,-0.165 0.282,-0.15 0.281,-0.135C0.28,-0.12 0.28,-0.105 0.28,-0.09C0.28,-0.067 0.284,-0.049 0.293,-0.037C0.302,-0.026 0.313,-0.02 0.327,-0.02C0.34,-0.02 0.354,-0.024 0.369,-0.034L0.376,-0.023C0.366,-0.012 0.354,-0.004 0.341,0.002C0.328,0.007 0.314,0.01 0.3,0.01C0.29,0.01 0.28,0.008 0.271,0.005C0.262,0.001 0.254,-0.004 0.248,-0.011C0.241,-0.018 0.236,-0.027 0.233,-0.038C0.229,-0.049 0.227,-0.061 0.227,-0.075C0.227,-0.079 0.227,-0.084 0.228,-0.088C0.228,-0.092 0.228,-0.097 0.229,-0.101L0.228,-0.101C0.221,-0.087 0.213,-0.074 0.203,-0.06C0.194,-0.046 0.184,-0.034 0.173,-0.024C0.162,-0.013 0.151,-0.004 0.138,0.002C0.126,0.009 0.113,0.012 0.099,0.012C0.088,0.012 0.077,0.01 0.068,0.006C0.059,0.002 0.051,-0.003 0.044,-0.01C0.038,-0.017 0.033,-0.025 0.029,-0.034C0.025,-0.043 0.023,-0.054 0.023,-0.065C0.023,-0.079 0.026,-0.092 0.031,-0.104C0.037,-0.115 0.044,-0.126 0.053,-0.135C0.063,-0.145 0.074,-0.153 0.087,-0.159C0.1,-0.166 0.114,-0.172 0.129,-0.176C0.145,-0.181 0.161,-0.184 0.178,-0.186C0.195,-0.188 0.212,-0.189 0.23,-0.189C0.231,-0.2 0.232,-0.21 0.233,-0.219C0.234,-0.229 0.234,-0.239 0.234,-0.251ZM0.084,-0.083C0.084,-0.077 0.085,-0.071 0.086,-0.065C0.088,-0.059 0.09,-0.054 0.093,-0.05C0.096,-0.045 0.1,-0.042 0.104,-0.039C0.109,-0.037 0.115,-0.036 0.121,-0.036C0.128,-0.036 0.136,-0.037 0.144,-0.041C0.152,-0.044 0.159,-0.049 0.167,-0.055C0.174,-0.061 0.182,-0.068 0.189,-0.077C0.196,-0.085 0.202,-0.094 0.207,-0.104C0.213,-0.114 0.217,-0.124 0.221,-0.135C0.225,-0.146 0.227,-0.158 0.228,-0.169C0.216,-0.169 0.204,-0.168 0.192,-0.167C0.181,-0.166 0.169,-0.164 0.159,-0.161C0.148,-0.159 0.138,-0.155 0.129,-0.151C0.12,-0.147 0.112,-0.141 0.105,-0.135C0.099,-0.129 0.094,-0.121 0.09,-0.113C0.086,-0.104 0.084,-0.094 0.084,-0.083Z" style="fill-rule:nonzero;"/>
            </g>
            <g transform="matrix(5.12982,0,0,5.12982,328.036,61.9374)">
                <path d="M0.104,-0.13C0.117,-0.171 0.13,-0.206 0.144,-0.234C0.158,-0.263 0.173,-0.286 0.187,-0.304C0.202,-0.322 0.216,-0.335 0.231,-0.343C0.245,-0.351 0.259,-0.355 0.272,-0.355C0.281,-0.355 0.29,-0.353 0.299,-0.349C0.307,-0.346 0.315,-0.341 0.321,-0.333C0.328,-0.326 0.333,-0.316 0.337,-0.305C0.341,-0.293 0.343,-0.28 0.343,-0.263C0.343,-0.259 0.342,-0.252 0.342,-0.244C0.341,-0.235 0.341,-0.226 0.34,-0.215C0.339,-0.205 0.338,-0.194 0.337,-0.183C0.336,-0.171 0.335,-0.16 0.334,-0.149C0.333,-0.138 0.333,-0.128 0.332,-0.118C0.332,-0.108 0.331,-0.099 0.331,-0.092C0.331,-0.079 0.332,-0.069 0.333,-0.061C0.334,-0.053 0.336,-0.047 0.338,-0.042C0.341,-0.037 0.344,-0.034 0.348,-0.033C0.352,-0.031 0.357,-0.03 0.363,-0.03C0.371,-0.03 0.38,-0.031 0.389,-0.034C0.398,-0.036 0.407,-0.039 0.417,-0.043L0.421,-0.031C0.416,-0.026 0.408,-0.021 0.399,-0.016C0.39,-0.011 0.381,-0.007 0.371,-0.003C0.361,0.001 0.351,0.004 0.342,0.007C0.332,0.009 0.323,0.011 0.316,0.011C0.307,0.011 0.3,0.008 0.295,0.004C0.29,-0.001 0.286,-0.007 0.284,-0.016C0.281,-0.024 0.279,-0.033 0.279,-0.044C0.278,-0.055 0.278,-0.067 0.278,-0.079C0.278,-0.094 0.278,-0.11 0.279,-0.126C0.28,-0.142 0.281,-0.158 0.283,-0.173C0.284,-0.187 0.285,-0.201 0.286,-0.213C0.287,-0.226 0.288,-0.235 0.288,-0.243C0.288,-0.261 0.284,-0.275 0.277,-0.284C0.27,-0.293 0.261,-0.297 0.249,-0.297C0.24,-0.297 0.23,-0.293 0.219,-0.285C0.209,-0.277 0.198,-0.266 0.188,-0.252C0.178,-0.238 0.168,-0.222 0.158,-0.203C0.148,-0.184 0.14,-0.164 0.132,-0.141C0.124,-0.119 0.118,-0.096 0.113,-0.072C0.108,-0.048 0.105,-0.024 0.104,0L0.052,0.006L0.048,0.006C0.049,-0.013 0.05,-0.034 0.051,-0.057C0.052,-0.081 0.053,-0.105 0.055,-0.131L0.064,-0.299L0.073,-0.476C0.075,-0.505 0.076,-0.533 0.078,-0.561C0.079,-0.589 0.081,-0.616 0.082,-0.641C0.082,-0.645 0.083,-0.648 0.085,-0.651C0.088,-0.654 0.09,-0.656 0.094,-0.658C0.097,-0.66 0.101,-0.661 0.105,-0.662C0.109,-0.663 0.114,-0.663 0.118,-0.663C0.128,-0.663 0.138,-0.66 0.149,-0.655C0.145,-0.622 0.142,-0.592 0.139,-0.564C0.136,-0.536 0.133,-0.51 0.131,-0.487C0.129,-0.463 0.127,-0.441 0.125,-0.42C0.123,-0.4 0.121,-0.38 0.12,-0.361C0.118,-0.343 0.117,-0.324 0.115,-0.306C0.114,-0.288 0.113,-0.27 0.111,-0.252L0.103,-0.13L0.104,-0.13Z" style="fill-rule:nonzero;"/>
            </g>
            <g transform="matrix(5.12982,0,0,5.12982,331.058,61.9374)">
                <path d="M0.318,-0.574C0.34,-0.574 0.36,-0.572 0.379,-0.569C0.397,-0.565 0.413,-0.56 0.426,-0.555C0.44,-0.549 0.45,-0.543 0.458,-0.537C0.465,-0.53 0.469,-0.524 0.469,-0.519C0.469,-0.508 0.468,-0.493 0.467,-0.475C0.467,-0.457 0.465,-0.436 0.464,-0.41L0.443,-0.411L0.443,-0.424C0.443,-0.435 0.442,-0.446 0.44,-0.456C0.437,-0.467 0.433,-0.476 0.427,-0.485C0.42,-0.495 0.412,-0.503 0.403,-0.51C0.394,-0.517 0.384,-0.523 0.373,-0.527C0.362,-0.532 0.35,-0.536 0.337,-0.538C0.325,-0.541 0.312,-0.542 0.299,-0.542C0.276,-0.542 0.255,-0.538 0.237,-0.531C0.218,-0.524 0.202,-0.515 0.187,-0.503C0.172,-0.49 0.16,-0.476 0.149,-0.459C0.138,-0.442 0.129,-0.424 0.122,-0.405C0.115,-0.385 0.11,-0.364 0.106,-0.343C0.103,-0.321 0.101,-0.299 0.101,-0.277C0.101,-0.247 0.104,-0.219 0.109,-0.195C0.114,-0.17 0.121,-0.148 0.13,-0.129C0.139,-0.11 0.15,-0.093 0.163,-0.079C0.175,-0.065 0.189,-0.054 0.204,-0.045C0.22,-0.036 0.236,-0.029 0.253,-0.025C0.271,-0.02 0.288,-0.018 0.307,-0.018C0.322,-0.018 0.334,-0.019 0.344,-0.021C0.354,-0.023 0.362,-0.026 0.369,-0.03C0.375,-0.033 0.38,-0.037 0.383,-0.042C0.386,-0.047 0.388,-0.052 0.389,-0.057C0.39,-0.067 0.391,-0.078 0.391,-0.09C0.392,-0.102 0.392,-0.113 0.392,-0.125L0.392,-0.146C0.392,-0.159 0.391,-0.168 0.389,-0.175C0.388,-0.181 0.384,-0.186 0.38,-0.19C0.376,-0.193 0.369,-0.195 0.361,-0.196C0.353,-0.197 0.343,-0.197 0.331,-0.197L0.319,-0.197L0.301,-0.197L0.299,-0.221L0.312,-0.22L0.323,-0.22C0.333,-0.22 0.345,-0.221 0.357,-0.221C0.369,-0.221 0.38,-0.221 0.391,-0.221C0.401,-0.222 0.41,-0.222 0.418,-0.222C0.425,-0.222 0.43,-0.222 0.432,-0.222C0.441,-0.222 0.447,-0.22 0.451,-0.216C0.455,-0.211 0.457,-0.204 0.457,-0.193C0.457,-0.186 0.457,-0.178 0.456,-0.168C0.456,-0.158 0.455,-0.146 0.455,-0.134C0.454,-0.121 0.454,-0.108 0.453,-0.094C0.452,-0.079 0.452,-0.065 0.451,-0.05C0.451,-0.044 0.451,-0.039 0.45,-0.035C0.45,-0.031 0.448,-0.028 0.447,-0.025C0.445,-0.022 0.443,-0.02 0.441,-0.018C0.438,-0.016 0.435,-0.014 0.431,-0.012C0.426,-0.009 0.419,-0.007 0.411,-0.004C0.402,-0.001 0.392,0.002 0.38,0.004C0.369,0.007 0.356,0.009 0.343,0.01C0.329,0.012 0.315,0.013 0.3,0.013C0.28,0.013 0.259,0.011 0.238,0.008C0.217,0.004 0.197,-0.001 0.177,-0.01C0.157,-0.018 0.138,-0.028 0.12,-0.042C0.103,-0.055 0.087,-0.072 0.074,-0.092C0.061,-0.112 0.051,-0.136 0.043,-0.163C0.036,-0.19 0.032,-0.222 0.032,-0.258C0.032,-0.283 0.034,-0.309 0.04,-0.334C0.045,-0.36 0.053,-0.384 0.063,-0.408C0.074,-0.431 0.087,-0.453 0.103,-0.473C0.119,-0.494 0.138,-0.511 0.159,-0.526C0.18,-0.541 0.204,-0.553 0.23,-0.561C0.257,-0.57 0.286,-0.574 0.318,-0.574Z" style="fill-rule:nonzero;"/>
            </g>
            <g transform="matrix(5.12982,0,0,5.12982,333.629,61.9374)">
                <path d="M0.067,0.006L0.063,0.006C0.064,-0.009 0.066,-0.026 0.067,-0.044C0.068,-0.063 0.069,-0.081 0.07,-0.1C0.071,-0.119 0.072,-0.137 0.072,-0.156C0.073,-0.174 0.074,-0.192 0.074,-0.208C0.075,-0.224 0.075,-0.238 0.076,-0.251C0.076,-0.263 0.076,-0.273 0.076,-0.281C0.076,-0.287 0.076,-0.292 0.075,-0.296C0.075,-0.301 0.074,-0.304 0.072,-0.307C0.07,-0.31 0.068,-0.312 0.064,-0.314C0.061,-0.315 0.057,-0.316 0.051,-0.316C0.049,-0.316 0.046,-0.316 0.043,-0.315C0.04,-0.315 0.037,-0.315 0.033,-0.314C0.029,-0.313 0.025,-0.312 0.021,-0.311C0.016,-0.31 0.011,-0.309 0.005,-0.308L0.002,-0.325C0.029,-0.335 0.051,-0.342 0.067,-0.346C0.084,-0.35 0.095,-0.352 0.101,-0.352C0.112,-0.352 0.12,-0.349 0.124,-0.342C0.129,-0.336 0.131,-0.327 0.131,-0.314C0.131,-0.313 0.131,-0.31 0.131,-0.304C0.131,-0.299 0.13,-0.292 0.13,-0.283C0.129,-0.274 0.128,-0.264 0.127,-0.252C0.127,-0.24 0.126,-0.228 0.125,-0.214C0.124,-0.201 0.122,-0.187 0.121,-0.172C0.12,-0.158 0.118,-0.143 0.117,-0.129L0.119,-0.128C0.127,-0.16 0.136,-0.19 0.146,-0.218C0.156,-0.245 0.167,-0.269 0.179,-0.29C0.191,-0.31 0.205,-0.326 0.22,-0.338C0.234,-0.349 0.25,-0.355 0.268,-0.355C0.274,-0.355 0.28,-0.354 0.285,-0.352C0.291,-0.35 0.295,-0.347 0.299,-0.344C0.303,-0.34 0.306,-0.336 0.309,-0.331C0.311,-0.327 0.312,-0.321 0.312,-0.316C0.312,-0.308 0.31,-0.301 0.307,-0.295C0.304,-0.288 0.299,-0.282 0.292,-0.277L0.29,-0.277C0.283,-0.282 0.277,-0.286 0.271,-0.289C0.265,-0.291 0.258,-0.293 0.251,-0.293C0.244,-0.293 0.237,-0.291 0.23,-0.289C0.223,-0.286 0.217,-0.282 0.211,-0.277C0.202,-0.268 0.194,-0.257 0.186,-0.243C0.178,-0.229 0.17,-0.214 0.164,-0.197C0.157,-0.18 0.151,-0.162 0.146,-0.143C0.141,-0.125 0.136,-0.107 0.132,-0.089C0.128,-0.071 0.125,-0.055 0.123,-0.039C0.121,-0.024 0.119,-0.011 0.118,0L0.067,0.006Z" style="fill-rule:nonzero;"/>
            </g>
            <g transform="matrix(5.12982,0,0,5.12982,335.079,61.9374)">
                <path d="M0.234,-0.251C0.234,-0.264 0.232,-0.275 0.228,-0.284C0.224,-0.294 0.218,-0.302 0.211,-0.308C0.204,-0.314 0.197,-0.318 0.188,-0.321C0.179,-0.324 0.171,-0.325 0.162,-0.325C0.151,-0.325 0.141,-0.324 0.133,-0.322C0.125,-0.319 0.118,-0.316 0.113,-0.312C0.108,-0.308 0.105,-0.303 0.103,-0.297C0.1,-0.291 0.099,-0.285 0.099,-0.278C0.099,-0.27 0.101,-0.262 0.104,-0.255C0.106,-0.247 0.111,-0.239 0.116,-0.231L0.115,-0.229C0.106,-0.224 0.097,-0.222 0.087,-0.222C0.082,-0.222 0.076,-0.223 0.072,-0.224C0.067,-0.226 0.063,-0.229 0.059,-0.232C0.056,-0.235 0.053,-0.239 0.051,-0.244C0.049,-0.249 0.048,-0.254 0.048,-0.26C0.048,-0.269 0.05,-0.278 0.055,-0.287C0.059,-0.295 0.066,-0.303 0.073,-0.31C0.081,-0.317 0.09,-0.323 0.1,-0.329C0.11,-0.334 0.12,-0.339 0.131,-0.343C0.142,-0.347 0.153,-0.35 0.163,-0.352C0.174,-0.354 0.184,-0.355 0.194,-0.355C0.211,-0.355 0.225,-0.352 0.237,-0.348C0.25,-0.343 0.259,-0.337 0.267,-0.328C0.275,-0.319 0.28,-0.309 0.284,-0.296C0.287,-0.284 0.289,-0.27 0.289,-0.254C0.289,-0.244 0.288,-0.232 0.287,-0.219C0.287,-0.206 0.286,-0.193 0.284,-0.179C0.283,-0.165 0.282,-0.15 0.281,-0.135C0.28,-0.12 0.28,-0.105 0.28,-0.09C0.28,-0.067 0.284,-0.049 0.293,-0.037C0.302,-0.026 0.313,-0.02 0.327,-0.02C0.34,-0.02 0.354,-0.024 0.369,-0.034L0.376,-0.023C0.366,-0.012 0.354,-0.004 0.341,0.002C0.328,0.007 0.314,0.01 0.3,0.01C0.29,0.01 0.28,0.008 0.271,0.005C0.262,0.001 0.254,-0.004 0.248,-0.011C0.241,-0.018 0.236,-0.027 0.233,-0.038C0.229,-0.049 0.227,-0.061 0.227,-0.075C0.227,-0.079 0.227,-0.084 0.228,-0.088C0.228,-0.092 0.228,-0.097 0.229,-0.101L0.228,-0.101C0.221,-0.087 0.213,-0.074 0.203,-0.06C0.194,-0.046 0.184,-0.034 0.173,-0.024C0.162,-0.013 0.151,-0.004 0.138,0.002C0.126,0.009 0.113,0.012 0.099,0.012C0.088,0.012 0.077,0.01 0.068,0.006C0.059,0.002 0.051,-0.003 0.044,-0.01C0.038,-0.017 0.033,-0.025 0.029,-0.034C0.025,-0.043 0.023,-0.054 0.023,-0.065C0.023,-0.079 0.026,-0.092 0.031,-0.104C0.037,-0.115 0.044,-0.126 0.053,-0.135C0.063,-0.145 0.074,-0.153 0.087,-0.159C0.1,-0.166 0.114,-0.172 0.129,-0.176C0.145,-0.181 0.161,-0.184 0.178,-0.186C0.195,-0.188 0.212,-0.189 0.23,-0.189C0.231,-0.2 0.232,-0.21 0.233,-0.219C0.234,-0.229 0.234,-0.239 0.234,-0.251ZM0.084,-0.083C0.084,-0.077 0.085,-0.071 0.086,-0.065C0.088,-0.059 0.09,-0.054 0.093,-0.05C0.096,-0.045 0.1,-0.042 0.104,-0.039C0.109,-0.037 0.115,-0.036 0.121,-0.036C0.128,-0.036 0.136,-0.037 0.144,-0.041C0.152,-0.044 0.159,-0.049 0.167,-0.055C0.174,-0.061 0.182,-0.068 0.189,-0.077C0.196,-0.085 0.202,-0.094 0.207,-0.104C0.213,-0.114 0.217,-0.124 0.221,-0.135C0.225,-0.146 0.227,-0.158 0.228,-0.169C0.216,-0.169 0.204,-0.168 0.192,-0.167C0.181,-0.166 0.169,-0.164 0.159,-0.161C0.148,-0.159 0.138,-0.155 0.129,-0.151C0.12,-0.147 0.112,-0.141 0.105,-0.135C0.099,-0.129 0.094,-0.121 0.09,-0.113C0.086,-0.104 0.084,-0.094 0.084,-0.083Z" style="fill-rule:nonzero;"/>
            </g>
            <g transform="matrix(5.12982,0,0,5.12982,336.914,61.9374)">
                <path d="M0.233,-0.251C0.237,-0.26 0.24,-0.269 0.24,-0.278C0.24,-0.284 0.239,-0.29 0.236,-0.296C0.234,-0.302 0.231,-0.307 0.227,-0.311C0.222,-0.315 0.217,-0.319 0.21,-0.321C0.203,-0.324 0.196,-0.325 0.187,-0.325C0.174,-0.325 0.163,-0.323 0.153,-0.318C0.143,-0.314 0.134,-0.308 0.126,-0.3C0.118,-0.292 0.112,-0.283 0.106,-0.273C0.101,-0.262 0.096,-0.251 0.093,-0.24C0.089,-0.228 0.087,-0.216 0.085,-0.204C0.084,-0.191 0.083,-0.179 0.083,-0.168C0.083,-0.147 0.085,-0.128 0.091,-0.11C0.096,-0.093 0.104,-0.079 0.113,-0.067C0.122,-0.054 0.133,-0.045 0.146,-0.038C0.158,-0.032 0.171,-0.028 0.185,-0.028C0.2,-0.028 0.215,-0.032 0.23,-0.04C0.245,-0.048 0.26,-0.06 0.274,-0.077C0.275,-0.077 0.277,-0.076 0.278,-0.075C0.28,-0.074 0.281,-0.073 0.282,-0.072C0.284,-0.071 0.285,-0.07 0.286,-0.069C0.287,-0.068 0.287,-0.067 0.287,-0.066C0.287,-0.065 0.287,-0.065 0.287,-0.064L0.287,-0.063C0.271,-0.038 0.252,-0.019 0.23,-0.006C0.208,0.007 0.183,0.013 0.157,0.013C0.143,0.013 0.129,0.011 0.117,0.007C0.105,0.003 0.094,-0.003 0.085,-0.01C0.075,-0.017 0.066,-0.025 0.059,-0.035C0.052,-0.044 0.045,-0.055 0.04,-0.066C0.035,-0.078 0.032,-0.089 0.029,-0.102C0.027,-0.114 0.025,-0.127 0.025,-0.14C0.025,-0.157 0.027,-0.174 0.031,-0.191C0.035,-0.208 0.04,-0.225 0.047,-0.241C0.055,-0.256 0.064,-0.271 0.074,-0.285C0.084,-0.299 0.096,-0.311 0.109,-0.321C0.122,-0.331 0.137,-0.339 0.152,-0.345C0.168,-0.351 0.185,-0.354 0.203,-0.354C0.216,-0.354 0.229,-0.352 0.24,-0.349C0.252,-0.345 0.262,-0.341 0.27,-0.335C0.279,-0.329 0.285,-0.322 0.29,-0.313C0.295,-0.305 0.297,-0.296 0.297,-0.285C0.297,-0.279 0.296,-0.273 0.294,-0.268C0.292,-0.263 0.289,-0.258 0.286,-0.255C0.282,-0.251 0.278,-0.248 0.273,-0.246C0.268,-0.244 0.262,-0.243 0.256,-0.243C0.253,-0.243 0.249,-0.244 0.245,-0.245C0.241,-0.245 0.238,-0.246 0.234,-0.248L0.233,-0.251Z" style="fill-rule:nonzero;"/>
            </g>
            <g transform="matrix(5.12982,0,0,5.12982,338.482,61.9374)">
                <path d="M0.278,-0.076C0.279,-0.075 0.28,-0.075 0.281,-0.074C0.283,-0.073 0.284,-0.072 0.286,-0.071C0.287,-0.07 0.288,-0.068 0.289,-0.067C0.29,-0.066 0.291,-0.065 0.291,-0.064C0.291,-0.063 0.29,-0.062 0.29,-0.062C0.281,-0.049 0.271,-0.038 0.26,-0.029C0.25,-0.019 0.239,-0.012 0.228,-0.005C0.216,0.001 0.205,0.006 0.193,0.009C0.181,0.012 0.17,0.013 0.158,0.013C0.139,0.013 0.121,0.009 0.105,0.001C0.088,-0.007 0.074,-0.018 0.063,-0.031C0.051,-0.045 0.042,-0.062 0.035,-0.08C0.029,-0.099 0.025,-0.119 0.025,-0.14C0.025,-0.158 0.027,-0.175 0.031,-0.192C0.035,-0.21 0.04,-0.226 0.048,-0.242C0.055,-0.258 0.064,-0.273 0.074,-0.286C0.085,-0.3 0.096,-0.312 0.11,-0.322C0.123,-0.332 0.138,-0.34 0.153,-0.345C0.169,-0.351 0.186,-0.354 0.205,-0.354C0.217,-0.354 0.228,-0.352 0.239,-0.349C0.25,-0.346 0.259,-0.341 0.268,-0.335C0.276,-0.329 0.282,-0.321 0.287,-0.312C0.292,-0.303 0.295,-0.293 0.295,-0.282C0.295,-0.265 0.289,-0.251 0.278,-0.238C0.268,-0.226 0.253,-0.215 0.234,-0.207C0.215,-0.198 0.192,-0.191 0.166,-0.186C0.141,-0.181 0.113,-0.177 0.083,-0.174L0.083,-0.17C0.083,-0.149 0.085,-0.13 0.091,-0.113C0.096,-0.096 0.103,-0.081 0.113,-0.068C0.122,-0.056 0.133,-0.047 0.145,-0.04C0.158,-0.033 0.171,-0.03 0.186,-0.03C0.2,-0.03 0.215,-0.033 0.231,-0.04C0.246,-0.048 0.262,-0.059 0.278,-0.076ZM0.232,-0.272C0.232,-0.279 0.23,-0.286 0.228,-0.293C0.225,-0.299 0.222,-0.305 0.217,-0.31C0.213,-0.314 0.208,-0.318 0.201,-0.321C0.195,-0.324 0.189,-0.325 0.181,-0.325C0.171,-0.325 0.161,-0.323 0.153,-0.32C0.144,-0.316 0.136,-0.311 0.129,-0.304C0.123,-0.298 0.117,-0.29 0.111,-0.282C0.106,-0.273 0.102,-0.264 0.098,-0.255C0.094,-0.245 0.091,-0.235 0.089,-0.225C0.087,-0.215 0.085,-0.205 0.084,-0.196C0.107,-0.197 0.128,-0.2 0.146,-0.204C0.165,-0.208 0.18,-0.213 0.193,-0.219C0.205,-0.226 0.215,-0.233 0.222,-0.242C0.228,-0.251 0.232,-0.26 0.232,-0.272Z" style="fill-rule:nonzero;"/>
            </g>
            <g transform="matrix(5.12982,0,0,5.12982,340.958,61.9374)">
                <path d="M0.021,-0.019C0.048,-0.039 0.072,-0.057 0.093,-0.074C0.114,-0.091 0.132,-0.107 0.147,-0.122C0.162,-0.136 0.175,-0.15 0.186,-0.162C0.196,-0.175 0.205,-0.187 0.211,-0.197C0.217,-0.208 0.222,-0.218 0.224,-0.228C0.227,-0.237 0.229,-0.246 0.229,-0.254C0.229,-0.269 0.226,-0.281 0.221,-0.29C0.216,-0.3 0.209,-0.308 0.201,-0.314C0.193,-0.32 0.185,-0.325 0.175,-0.327C0.165,-0.33 0.156,-0.332 0.147,-0.332C0.135,-0.332 0.125,-0.33 0.117,-0.328C0.109,-0.325 0.102,-0.321 0.097,-0.317C0.092,-0.312 0.088,-0.307 0.086,-0.301C0.083,-0.295 0.082,-0.289 0.082,-0.282C0.082,-0.273 0.084,-0.264 0.088,-0.254C0.092,-0.245 0.098,-0.237 0.105,-0.231L0.104,-0.228C0.095,-0.223 0.086,-0.22 0.076,-0.22C0.07,-0.22 0.064,-0.221 0.059,-0.223C0.053,-0.225 0.048,-0.228 0.044,-0.232C0.04,-0.235 0.037,-0.24 0.034,-0.245C0.032,-0.25 0.03,-0.257 0.03,-0.263C0.03,-0.273 0.033,-0.282 0.037,-0.291C0.042,-0.3 0.048,-0.308 0.056,-0.315C0.064,-0.322 0.073,-0.329 0.084,-0.334C0.094,-0.34 0.105,-0.345 0.116,-0.349C0.128,-0.353 0.139,-0.356 0.151,-0.358C0.162,-0.36 0.173,-0.361 0.183,-0.361C0.198,-0.361 0.212,-0.359 0.225,-0.355C0.238,-0.351 0.249,-0.346 0.259,-0.338C0.268,-0.331 0.276,-0.322 0.281,-0.311C0.287,-0.3 0.289,-0.288 0.289,-0.274C0.289,-0.264 0.288,-0.254 0.285,-0.244C0.283,-0.233 0.278,-0.223 0.272,-0.211C0.266,-0.2 0.257,-0.187 0.247,-0.175C0.236,-0.162 0.223,-0.148 0.207,-0.133C0.191,-0.119 0.172,-0.103 0.151,-0.087C0.129,-0.07 0.103,-0.052 0.074,-0.033L0.075,-0.032C0.09,-0.036 0.106,-0.039 0.122,-0.043C0.138,-0.046 0.153,-0.049 0.168,-0.051C0.183,-0.054 0.197,-0.055 0.211,-0.057C0.224,-0.058 0.237,-0.058 0.247,-0.058C0.256,-0.058 0.264,-0.058 0.271,-0.057C0.278,-0.055 0.285,-0.053 0.29,-0.051C0.295,-0.048 0.298,-0.045 0.301,-0.041C0.304,-0.036 0.305,-0.032 0.305,-0.026C0.305,-0.018 0.303,-0.009 0.298,0.001C0.275,-0.001 0.252,-0.002 0.23,-0.003C0.208,-0.004 0.185,-0.005 0.162,-0.005C0.141,-0.005 0.119,-0.004 0.096,-0.003C0.073,-0.002 0.049,0 0.023,0.002L0.021,-0.019Z" style="fill-rule:nonzero;"/>
            </g>
            <g transform="matrix(5.12982,0,0,5.12982,342.642,61.9374)">
                <path d="M0.209,-0.36C0.232,-0.36 0.253,-0.356 0.272,-0.349C0.292,-0.341 0.308,-0.33 0.322,-0.316C0.336,-0.301 0.347,-0.283 0.355,-0.262C0.363,-0.24 0.367,-0.216 0.367,-0.188C0.367,-0.167 0.365,-0.148 0.36,-0.13C0.356,-0.113 0.35,-0.096 0.343,-0.081C0.335,-0.067 0.326,-0.053 0.315,-0.042C0.304,-0.03 0.293,-0.02 0.279,-0.012C0.266,-0.004 0.252,0.003 0.237,0.007C0.222,0.011 0.207,0.013 0.19,0.013C0.168,0.013 0.147,0.009 0.128,0.002C0.109,-0.005 0.092,-0.016 0.078,-0.031C0.063,-0.045 0.052,-0.064 0.044,-0.085C0.036,-0.107 0.032,-0.132 0.032,-0.16C0.032,-0.18 0.034,-0.199 0.038,-0.217C0.042,-0.234 0.048,-0.251 0.056,-0.265C0.064,-0.28 0.073,-0.293 0.084,-0.305C0.095,-0.317 0.107,-0.327 0.12,-0.335C0.133,-0.343 0.147,-0.349 0.162,-0.354C0.177,-0.358 0.193,-0.36 0.209,-0.36ZM0.207,-0.019C0.223,-0.019 0.237,-0.023 0.249,-0.03C0.261,-0.037 0.272,-0.047 0.28,-0.059C0.289,-0.072 0.295,-0.087 0.3,-0.104C0.304,-0.122 0.307,-0.141 0.307,-0.162C0.307,-0.177 0.305,-0.191 0.303,-0.205C0.3,-0.219 0.297,-0.232 0.292,-0.245C0.287,-0.257 0.282,-0.268 0.275,-0.278C0.268,-0.288 0.26,-0.297 0.252,-0.304C0.243,-0.312 0.234,-0.317 0.223,-0.321C0.213,-0.325 0.202,-0.327 0.19,-0.327C0.176,-0.327 0.163,-0.324 0.151,-0.318C0.139,-0.311 0.129,-0.302 0.12,-0.29C0.111,-0.277 0.104,-0.262 0.099,-0.245C0.094,-0.227 0.091,-0.207 0.091,-0.185C0.091,-0.163 0.094,-0.142 0.099,-0.122C0.105,-0.102 0.112,-0.085 0.123,-0.069C0.133,-0.054 0.145,-0.042 0.159,-0.033C0.173,-0.024 0.189,-0.019 0.207,-0.019Z" style="fill-rule:nonzero;"/>
            </g>
            <g transform="matrix(5.12982,0,0,5.12982,344.686,61.9374)">
                <path d="M-0.002,-0.316C0.018,-0.323 0.037,-0.329 0.054,-0.334C0.072,-0.339 0.087,-0.344 0.1,-0.347C0.113,-0.351 0.124,-0.353 0.133,-0.355C0.141,-0.357 0.147,-0.357 0.15,-0.357C0.156,-0.357 0.161,-0.356 0.163,-0.352C0.166,-0.349 0.168,-0.344 0.168,-0.338C0.168,-0.337 0.168,-0.334 0.167,-0.328L0.165,-0.278C0.164,-0.268 0.163,-0.257 0.163,-0.245C0.162,-0.234 0.162,-0.223 0.161,-0.211L0.157,-0.134C0.156,-0.119 0.156,-0.103 0.155,-0.088C0.154,-0.073 0.154,-0.058 0.153,-0.043C0.153,-0.028 0.153,-0.014 0.153,0L0.099,0.006L0.095,0.006C0.096,-0.005 0.097,-0.017 0.098,-0.029C0.099,-0.042 0.1,-0.054 0.1,-0.066C0.101,-0.078 0.102,-0.09 0.102,-0.1C0.103,-0.111 0.103,-0.119 0.104,-0.126C0.104,-0.148 0.105,-0.172 0.106,-0.199C0.107,-0.226 0.108,-0.256 0.108,-0.289C0.108,-0.298 0.106,-0.305 0.104,-0.309C0.101,-0.313 0.096,-0.315 0.09,-0.315C0.083,-0.315 0.073,-0.314 0.058,-0.311C0.043,-0.308 0.024,-0.304 0.002,-0.298L-0.002,-0.316Z" style="fill-rule:nonzero;"/>
            </g>
            <g transform="matrix(5.12982,0,0,5.12982,345.86,61.9374)">
                <path d="M0.27,-0.092C0.271,-0.09 0.272,-0.088 0.273,-0.086C0.274,-0.084 0.274,-0.082 0.274,-0.08C0.274,-0.075 0.271,-0.07 0.263,-0.066C0.248,-0.058 0.233,-0.052 0.217,-0.048C0.202,-0.045 0.187,-0.043 0.171,-0.043C0.153,-0.043 0.135,-0.046 0.119,-0.053C0.102,-0.059 0.087,-0.069 0.074,-0.081C0.062,-0.094 0.051,-0.109 0.044,-0.127C0.036,-0.145 0.032,-0.165 0.032,-0.188C0.032,-0.207 0.035,-0.225 0.039,-0.241C0.044,-0.256 0.05,-0.271 0.058,-0.284C0.065,-0.296 0.075,-0.308 0.085,-0.317C0.096,-0.327 0.108,-0.335 0.12,-0.341C0.132,-0.348 0.146,-0.352 0.159,-0.356C0.173,-0.359 0.187,-0.361 0.2,-0.361C0.214,-0.361 0.227,-0.359 0.24,-0.355C0.254,-0.352 0.266,-0.346 0.278,-0.339C0.29,-0.331 0.301,-0.321 0.311,-0.31C0.321,-0.298 0.33,-0.284 0.337,-0.268C0.345,-0.252 0.351,-0.234 0.355,-0.214C0.359,-0.193 0.361,-0.17 0.361,-0.145C0.361,-0.127 0.36,-0.109 0.358,-0.09C0.356,-0.072 0.352,-0.053 0.348,-0.035C0.343,-0.016 0.337,0.002 0.33,0.02C0.323,0.037 0.315,0.054 0.305,0.07C0.296,0.086 0.285,0.1 0.273,0.114C0.26,0.127 0.247,0.139 0.232,0.148C0.217,0.158 0.201,0.166 0.183,0.171C0.166,0.176 0.146,0.179 0.126,0.179C0.109,0.179 0.095,0.177 0.082,0.174C0.069,0.171 0.058,0.166 0.05,0.161C0.041,0.156 0.034,0.15 0.029,0.143C0.025,0.136 0.022,0.13 0.022,0.124C0.022,0.12 0.023,0.117 0.024,0.113C0.025,0.11 0.027,0.107 0.03,0.104C0.032,0.101 0.036,0.098 0.04,0.095C0.044,0.093 0.049,0.091 0.055,0.09C0.062,0.1 0.07,0.108 0.078,0.115C0.086,0.121 0.094,0.126 0.103,0.13C0.111,0.133 0.12,0.136 0.128,0.137C0.137,0.138 0.145,0.139 0.154,0.139C0.178,0.139 0.199,0.133 0.218,0.121C0.236,0.109 0.251,0.091 0.262,0.069C0.274,0.047 0.283,0.02 0.289,-0.012C0.295,-0.044 0.297,-0.079 0.297,-0.118C0.297,-0.156 0.294,-0.189 0.288,-0.215C0.282,-0.242 0.274,-0.264 0.264,-0.281C0.254,-0.298 0.243,-0.31 0.229,-0.317C0.216,-0.325 0.203,-0.329 0.189,-0.329C0.175,-0.329 0.162,-0.326 0.15,-0.321C0.138,-0.316 0.128,-0.309 0.12,-0.299C0.112,-0.289 0.106,-0.277 0.101,-0.262C0.097,-0.248 0.095,-0.231 0.095,-0.213C0.095,-0.203 0.096,-0.192 0.098,-0.181C0.1,-0.171 0.103,-0.16 0.106,-0.15C0.11,-0.14 0.115,-0.13 0.121,-0.121C0.127,-0.112 0.134,-0.104 0.142,-0.097C0.15,-0.09 0.159,-0.085 0.169,-0.081C0.179,-0.077 0.19,-0.075 0.202,-0.075C0.213,-0.075 0.225,-0.076 0.236,-0.079C0.247,-0.081 0.258,-0.086 0.27,-0.092Z" style="fill-rule:nonzero;"/>
            </g>
        </g>
    </g>
    <g id="Layer3">
        <path d="M353.911,28.28C354.164,28.31 354.244,28.682 354.009,28.807C351.73,29.775 348.871,32.366 348.277,30.032C348.202,29.736 348.159,29.388 348.308,29.259C348.666,28.946 348.727,29.993 348.999,30.235C349.546,30.72 350.258,30.164 350.841,29.847C351.845,29.283 352.765,28.532 353.838,28.283C353.863,28.28 353.886,28.279 353.911,28.28ZM348.233,24.774C348.919,24.852 348.412,25.715 348.166,26.2C347.898,26.711 347.583,27.081 347.955,27.638C348.213,28.081 346.496,28.19 347.395,26.466C347.508,26.249 347.627,26.035 347.737,25.817C347.951,25.379 347.847,24.754 348.233,24.774ZM359.81,16.586C359.858,16.529 359.921,16.498 360.005,16.5L360.016,16.501C360.025,16.502 360.034,16.504 360.043,16.506L360.062,16.51C360.088,16.517 360.112,16.526 360.132,16.538C360.561,16.773 360.47,18.002 360.005,18.844C360.951,18.599 361.537,17.678 362.05,16.791C362.05,16.791 362.058,16.767 362.082,16.739C362.12,16.68 362.189,16.647 362.307,16.654C362.312,16.654 362.318,16.654 362.323,16.654L362.331,16.655C362.734,16.738 362.626,17.055 362.635,17.394C362.698,19.931 360.115,21.558 357.257,22.956C356.19,23.489 355.424,24.109 354.685,25.309C354.461,25.648 354.031,25.933 353.758,25.786C353.314,25.548 354.111,25.193 354.503,24.473C356.129,21.6 361.172,22.01 362.004,18.082C361.657,18.508 361.198,18.923 360.755,19.16C359.335,19.921 357.499,19.843 355.733,20.33C355.545,20.382 355.636,20.35 355.317,20.456C355.087,20.533 354.859,20.621 354.634,20.724C354.535,20.77 354.507,20.784 354.44,20.817C354.211,20.932 353.986,21.063 353.765,21.214C353.142,21.64 352.727,22.321 352.622,23.057C352.622,23.057 352,23.476 352.088,22.864C352.253,21.845 352.954,21.13 353.92,20.598C353.8,20.525 353.67,20.451 353.525,20.409C351.315,19.756 347.89,21.55 348.135,23.128C348.173,23.759 347.433,23.453 347.606,22.71C348.037,20.868 350.428,19.7 352.458,19.726C353.169,19.743 354.069,20.031 354.473,20.324C354.696,20.225 354.929,20.133 355.169,20.047C355.331,19.815 355.774,19.485 356.722,19.054C357.355,18.765 357.848,18.724 358.791,18.036C359.297,17.667 359.515,16.851 359.81,16.586ZM359.569,18.008C359.237,18.365 358.807,18.709 358.331,18.938C357.854,19.157 357.346,19.328 356.878,19.544C357.638,19.356 358.409,19.199 359.125,19.043C359.154,18.993 359.191,18.94 359.236,18.885C359.425,18.641 359.517,18.327 359.569,18.008Z" style="fill:rgb(255,0,0);"/>
    </g>
</svg>
